<?xml version="1.0" encoding="utf-8"?>
<!-- Generator: Adobe Illustrator 25.3.1, SVG Export Plug-In . SVG Version: 6.00 Build 0)  -->
<svg version="1.1" xmlns="http://www.w3.org/2000/svg" xmlns:xlink="http://www.w3.org/1999/xlink" x="0px" y="0px"
	 viewBox="0 0 500 500" style="enable-background:new 0 0 500 500;" xml:space="preserve">
<style type="text/css">
	.st0{opacity:0.29;fill:#C3B7FC;}
	.st1{opacity:0.48;fill:#FFFFFF;}
	.st2{fill:#FFFFFF;}
	.st3{fill:#A797FB;}
	.st4{fill:#E7AA36;}
	.st5{fill:#ECBF4C;}
	.st6{fill:#C3B7FC;}
	.st7{fill:#DD6E5C;}
	.st8{fill:#363271;}
	.st9{fill:#F0C9A1;}
	.st10{fill:#E9B588;}
	.st11{fill:#514E92;}
	.st12{fill:#49498F;}
	.st13{fill:#5F5EA5;}
	.st14{fill:#DFDBFC;}
	.st15{fill:#E58F31;}
	.st16{fill:#D5CFFF;}
	.st17{opacity:0.19;fill:#514E92;}
	.st18{fill:#464689;}
	.st19{fill:#E08675;}
</style>
<g id="BACKGROUND">
</g>
<g id="OBJECTS">
	<g>
		<path class="st0" d="M454.3,248.9c-8,19.6,2.7,38.7,8.8,57.4c8.3,25.6,12.1,59.1-4.5,82.3c-0.8,1.1-1.6,2.2-2.5,3.3
			c-17.6,20.9-45.7,23-70.9,24.7c-12.8,0.8-25.6,1.5-38.4,2.1c-20.9,1-41.8,1.6-62.6,1.9c-2.3,0-4.6,0.1-6.9,0.1
			c-17,0.2-34,0.1-50.9-0.2c-22.9-0.3-45.7-0.9-68.6-1.4c-6.6-0.1-13.1-0.3-19.7-0.4c-15.6-0.3-31.3-1.7-46.3-5.4
			C74.8,409.1,59,402,45.7,390.2c-1.4-1.2-2.8-2.5-4.1-3.8c-26.1-26-35.5-65-20.9-99.3c6.5-15.4,17.5-30.2,15.9-46.8
			c-0.9-9-5.4-17.1-8.8-25.5c-13.2-32.3-12.9-82.1,19.4-103.6c14.4-9.6,32.4-11.3,49.6-13.4c47.3-6,78.3-46.7,121.5-63.2
			c26.1-10,56.2-12.6,81.7-1c23.3,10.6,38.7,33.5,62.4,42.7c21.1,8.2,44.8,4.7,66,13.2c20.6,8.3,38.4,24,48.4,43.9
			c11,22,12.3,48.5,4.3,71.7C475.3,221.5,460.8,232.9,454.3,248.9z"/>
		<g>
			<path class="st1" d="M226.2,420.5c-22.9-0.3-45.7-0.9-68.6-1.4c-6.6-0.1-13.1-0.3-19.7-0.4c-15.6-0.3-31.3-1.7-46.3-5.4
				C74.8,409.1,59,402,45.7,390.2l83.8-267.2h16l48.7,179.5L226.2,420.5z"/>
			<path class="st1" d="M346.7,418.7c-20.9,1-41.8,1.6-62.6,1.9c-2.3,0-4.6,0.1-6.9,0.1c-17,0.2-34,0.1-50.9-0.2
				c-22.9-0.3-45.7-0.9-68.6-1.4l36.6-116.6l56.3-179.5h16l48.2,177.8L346.7,418.7z"/>
			<path class="st1" d="M458.6,388.6c-0.8,1.1-1.6,2.2-2.5,3.3c-17.6,20.9-45.7,23-70.9,24.7c-12.8,0.8-25.6,1.5-38.4,2.1
				c-20.9,1-41.8,1.6-62.6,1.9c-2.3,0-4.6,0.1-6.9,0.1l37.6-119.8l55.8-177.8h16L458.6,388.6z"/>
		</g>
	</g>
	<g>
		<g>
			<path class="st2" d="M436.5,163.2h-38c-8.6,0-15.7,7.1-15.7,15.7v18.3c0,6.8,4.4,12.6,10.5,14.8v11.5c0,1.9,2.3,2.9,3.6,1.5
				L409,213h27.5c8.6,0,15.7-7.1,15.7-15.7v-18.3C452.2,170.3,445.2,163.2,436.5,163.2z"/>
			<g>
				<path class="st3" d="M403.4,187.9c0,2.9-2.3,5.2-5.2,5.2c-2.9,0-5.2-2.3-5.2-5.2c0-2.9,2.3-5.2,5.2-5.2
					C401.1,182.7,403.4,185.1,403.4,187.9z"/>
				<path class="st3" d="M422.9,187.9c0,2.9-2.3,5.2-5.2,5.2s-5.2-2.3-5.2-5.2c0-2.9,2.3-5.2,5.2-5.2S422.9,185.1,422.9,187.9z"/>
				<path class="st3" d="M442.5,187.9c0,2.9-2.3,5.2-5.2,5.2c-2.9,0-5.2-2.3-5.2-5.2c0-2.9,2.3-5.2,5.2-5.2
					C440.2,182.7,442.5,185.1,442.5,187.9z"/>
			</g>
		</g>
		<g>
			<path class="st2" d="M68.7,180h36.7c8.4,0,15.2,6.8,15.2,15.2v17.7c0,6.6-4.2,12.2-10.1,14.3v11.1c0,1.8-2.2,2.8-3.5,1.5
				l-11.7-11.7H68.7c-8.4,0-15.2-6.8-15.2-15.2v-17.7C53.5,186.8,60.3,180,68.7,180z"/>
			<g>
				<path class="st3" d="M100.6,203.9c0,2.8,2.3,5,5,5c2.8,0,5-2.3,5-5c0-2.8-2.3-5-5-5C102.9,198.9,100.6,201.1,100.6,203.9z"/>
				<path class="st3" d="M81.8,203.9c0,2.8,2.3,5,5,5c2.8,0,5-2.3,5-5c0-2.8-2.3-5-5-5C84,198.9,81.8,201.1,81.8,203.9z"/>
				<path class="st3" d="M62.9,203.9c0,2.8,2.3,5,5,5c2.8,0,5-2.3,5-5c0-2.8-2.3-5-5-5C65.1,198.9,62.9,201.1,62.9,203.9z"/>
			</g>
		</g>
		<g>
			<path class="st2" d="M191.8,149.1h32.8c7.5,0,13.6,6.1,13.6,13.6v15.9c0,5.9-3.8,10.9-9.1,12.8v9.9c0,1.6-2,2.5-3.1,1.3
				l-10.4-10.4h-23.8c-7.5,0-13.6-6.1-13.6-13.6v-15.9C178.2,155.2,184.3,149.1,191.8,149.1z"/>
			<g>
				<path class="st3" d="M220.4,170.5c0,2.5,2,4.5,4.5,4.5c2.5,0,4.5-2,4.5-4.5c0-2.5-2-4.5-4.5-4.5
					C222.4,166,220.4,168,220.4,170.5z"/>
				<path class="st3" d="M203.5,170.5c0,2.5,2,4.5,4.5,4.5s4.5-2,4.5-4.5c0-2.5-2-4.5-4.5-4.5S203.5,168,203.5,170.5z"/>
				<path class="st3" d="M186.6,170.5c0,2.5,2,4.5,4.5,4.5c2.5,0,4.5-2,4.5-4.5c0-2.5-2-4.5-4.5-4.5
					C188.6,166,186.6,168,186.6,170.5z"/>
			</g>
		</g>
	</g>
	<g>
		<g>
			<g>
				<rect x="376.6" y="44.1" class="st3" width="2.2" height="69.7"/>
				<g>
					<g>
						<path class="st4" d="M377.6,113v21.2h-24.4c-1.1,0-1.7-1.4-0.9-2.2l19.8-18.9l0.1-0.1H377.6z"/>
						<path class="st5" d="M402.3,134.2h-24.8V113h5.7l0.1,0.1l19.8,18.9C404,132.8,403.5,134.2,402.3,134.2z"/>
						<path class="st6" d="M383.3,113.1l-0.1-0.1h-5.7v-8.2h1.8c1.8,0,3.3,1.4,3.4,3.2L383.3,113.1z"/>
					</g>
					<path class="st3" d="M377.6,104.8v8.2h-5.3l-0.1,0.1l0.6-5.1c0.1-1.8,1.6-3.2,3.4-3.2H377.6z"/>
				</g>
			</g>
			<path class="st6" d="M371.8,41.1h12c-0.5,3.4-3,6.1-6,6.1S372.2,44.5,371.8,41.1z"/>
		</g>
		<g>
			<g>
				<rect x="256.7" y="44.1" class="st3" width="2.2" height="69.7"/>
				<g>
					<g>
						<path class="st4" d="M257.6,113v21.2h-24.4c-1.1,0-1.7-1.4-0.9-2.2l19.8-18.9l0.1-0.1H257.6z"/>
						<path class="st5" d="M282.4,134.2h-24.8V113h5.7l0.1,0.1l19.8,18.9C284.1,132.8,283.5,134.2,282.4,134.2z"/>
						<path class="st6" d="M263.4,113.1l-0.1-0.1h-5.7v-8.2h1.8c1.8,0,3.3,1.4,3.4,3.2L263.4,113.1z"/>
					</g>
					<path class="st3" d="M257.6,104.8v8.2h-5.3l-0.1,0.1l0.6-5.1c0.1-1.8,1.6-3.2,3.4-3.2H257.6z"/>
				</g>
			</g>
			<path class="st6" d="M251.8,41.1h12c-0.5,3.4-3,6.1-6,6.1C254.8,47.1,252.3,44.5,251.8,41.1z"/>
		</g>
		<g>
			<g>
				<rect x="135.9" y="44.1" class="st3" width="2.2" height="69.7"/>
				<g>
					<g>
						<path class="st4" d="M136.9,113v21.2h-24.4c-1.1,0-1.7-1.4-0.9-2.2l19.8-18.9l0.1-0.1H136.9z"/>
						<path class="st5" d="M161.6,134.2h-24.8V113h5.7l0.1,0.1l19.8,18.9C163.3,132.8,162.8,134.2,161.6,134.2z"/>
						<path class="st6" d="M142.7,113.1l-0.1-0.1h-5.7v-8.2h1.8c1.8,0,3.3,1.4,3.4,3.2L142.7,113.1z"/>
					</g>
					<path class="st3" d="M136.9,104.8v8.2h-5.3l-0.1,0.1l0.6-5.1c0.1-1.8,1.6-3.2,3.4-3.2H136.9z"/>
				</g>
			</g>
			<path class="st6" d="M131.1,41.1h12c-0.5,3.4-3,6.1-6,6.1C134,47.1,131.5,44.5,131.1,41.1z"/>
		</g>
	</g>
	<g>
		<g>
			<g>
				<path class="st2" d="M286.7,316.1c-7.4,1-14.3,1.6-20.8,2c-8.2,0.5-15.8,0.5-22.5,0.3c-10.1-0.3-18.3-1.3-24.4-2.2
					c0.3-2.3,0.7-5.5,1.2-9c0.2-1.4,0.4-2.8,0.6-4.2c0.5-3.4,1.1-6.9,1.7-10.1c0.3-1.5,0.5-2.9,0.7-4.2c0.5-2.7,0.9-4.8,1.2-6.2
					c0.2-0.9,0.4-1.7,0.6-2.6c0.4-1.3,0.7-2.7,1.2-4c1.1-3.3,2.4-6.5,4.1-9.4c0.8-1.4,1.6-2.7,2.5-3.9c1.2-1.6,2.5-3.1,3.9-4.5
					c1.6-1.6,3.5-3,5.5-4.2c6.2-3.7,13.8-5.2,20.7-3.1c1.5,0.5,2.9,1.1,4.3,1.8c3.6,2,6.7,5,9,8.5c0.8,1.2,1.6,2.4,2.2,3.7
					c0.2,0.3,0.3,0.6,0.4,0.9c1.2,2.5,2.1,5.1,2.8,7.7c0.5,1.7,0.8,3.3,1.2,5c0.4,2.2,0.8,4.4,1.1,6.6c0.1,0.6,0.2,1.3,0.3,1.9
					c0.2,1.6,0.4,3.3,0.6,5.1c0.3,2.8,0.6,5.8,0.8,8.9c0.1,1.7,0.3,3.5,0.4,5.2C286.3,309.7,286.5,313.1,286.7,316.1z"/>
				<path class="st6" d="M278.9,265.8c-7.4,2.1-15.2,3.2-22.7,3.5c-6.1,0.2-12.1-0.1-18.1-1.1c-2.6-0.4-5.1-0.9-7.7-1.7
					c0.8-1.4,1.6-2.7,2.5-3.9c2,0.4,4.1,0.7,6.1,1c5.4,0.8,10.9,1.1,16.4,0.9c7.2-0.3,14-1.5,20.8-3.4c0.8,1.2,1.6,2.4,2.2,3.7
					C278.6,265.2,278.7,265.5,278.9,265.8z"/>
				<path class="st6" d="M282.8,278.5c-9,3.3-18.8,5-28.2,5.3c-6.1,0.2-12.1-0.1-18.1-1.1c-2.9-0.5-5.8-1.1-8.6-2
					c-0.8-0.3-1.8-0.5-2.8-0.8c0.4-1.3,0.7-2.7,1.2-4c0.9,0.2,1.7,0.5,2.5,0.6c2.9,0.6,5.8,1.1,8.8,1.6c5.4,0.8,10.9,1.1,16.4,0.9
					c9.6-0.3,18.8-2.4,27.7-5.6C282.1,275.2,282.5,276.9,282.8,278.5z"/>
				<path class="st6" d="M284.8,292.2c-10.4,3.6-22,5.1-33,5.1c-6.5,0-13-0.6-19.4-1.8c-3.1-0.6-6.2-1.3-9.2-2.3
					c-0.2-0.1-0.5-0.2-0.8-0.2c0.3-1.5,0.5-2.9,0.7-4.2c0.4,0.1,0.7,0.2,1.1,0.3c3.1,0.7,6.2,1.4,9.4,1.9c5.8,1,11.7,1.5,17.6,1.5
					c11.5,0,22.3-2.1,33-5.4C284.4,288.6,284.6,290.4,284.8,292.2z"/>
				<path class="st6" d="M286,306.2c-11.1,3.9-23.4,5.5-35.2,5.5c-6.7,0-13.4-0.6-19.9-1.8c-3.2-0.6-6.4-1.3-9.4-2.3
					c-0.4-0.1-0.8-0.3-1.3-0.4c0.2-1.4,0.4-2.8,0.6-4.2c0.6,0.2,1.2,0.3,1.7,0.4c3.2,0.7,6.4,1.4,9.6,1.9c5.9,1,12,1.5,18,1.5
					c12.3,0.1,23.9-2.3,35.5-5.9C285.8,302.8,285.9,304.5,286,306.2z"/>
				<path class="st7" d="M243.4,318.4c-10.1-0.3-18.3-1.3-24.4-2.2c0.9-8.4,4.3-28.2,5.5-33.6c2-9,5.6-17.9,12.3-24.4
					c1.6-1.6,3.5-3,5.5-4.2c0.4,3-0.3,7.7-0.2,9.8c0.1,3.9,0.2,7.7,0.3,11.6C242.7,289.7,243.1,304.1,243.4,318.4z"/>
				<path class="st7" d="M267.2,263.8c0.1-2.4-0.8-8.3,0-11.1c4.9,2.8,8.7,7.3,11.2,12.2c3.2,6.3,4.5,13.3,5.5,20.2
					c1.3,8.5,2.2,21.5,2.7,30.9c-7.4,1-14.3,1.6-20.8,2c0.3-14.2,0.7-28.4,1-42.7C267,271.6,267.1,267.7,267.2,263.8z"/>
			</g>
			<g>
				<g>
					<path class="st8" d="M229.9,236.1c-2.2-3.3-2.7-7.3-3.2-11.1c-1.8-12.3,3.2-25.9,15.8-30.7c6.9-2.6,14.9-3.1,21.7-0.2
						c13.1,5.5,15.7,19.2,15,31.7c-0.3,5.6-2.3,11.1-6.1,15.4c-3,3.5-6.6,6-11.4,6.8C250.1,250,238,248.4,229.9,236.1z"/>
					<g>
						<path class="st9" d="M262.4,231.7v21.8c0,4.3-3.5,7.8-7.8,7.8c-4.3,0-7.8-3.5-7.8-7.8v-21.8H262.4z"/>
						<path class="st10" d="M262.4,235.8v15c-3.3,1-6.7,1.7-10.1,1.7c-1.8,0-3.6-0.3-5.4-0.8v-13.4c0.9-0.4,1.8-0.8,2.7-1
							C253.7,236,258,235.5,262.4,235.8z"/>
						<path class="st9" d="M233.7,224.5c0,14,7.4,25.3,19,25.3c11.6,0,21-11.3,21-25.3s-9.4-25.3-21-25.3
							C241.1,199.2,233.7,210.5,233.7,224.5z"/>
						<path class="st9" d="M268.4,226.8c-1,4,0.9,7.9,4.1,8.7c3.2,0.8,6.6-1.9,7.6-5.9c1-4-0.9-7.9-4.1-8.7
							C272.7,220.1,269.3,222.8,268.4,226.8z"/>
						<path class="st9" d="M226.8,229.6c-1-4,0.9-7.9,4.1-8.7c3.2-0.8,6.6,1.9,7.6,5.9c1,4-0.9,7.9-4.1,8.7
							C231.2,236.3,227.8,233.6,226.8,229.6z"/>
					</g>
				</g>
				<path class="st2" d="M268.1,221.7h-8.2c-2.3,0-4.2,1.9-4.2,4.2h-4.2c0-2.3-1.9-4.2-4.2-4.2h-8.2c-2.3,0-4.2,1.9-4.2,4.2v5
					c0,2.3,1.9,4.2,4.2,4.2h8.2c2.3,0,4.2-1.9,4.2-4.2v-2.7h4.2v2.7c0,2.3,1.9,4.2,4.2,4.2h8.2c2.3,0,4.2-1.9,4.2-4.2v-5
					C272.4,223.6,270.5,221.7,268.1,221.7z M249.7,230.9c0,1.3-1.1,2.4-2.4,2.4h-8.2c-1.3,0-2.4-1.1-2.4-2.4v-5
					c0-1.3,1.1-2.4,2.4-2.4h8.2c1.3,0,2.4,1.1,2.4,2.4V230.9z M270.5,230.9c0,1.3-1.1,2.4-2.4,2.4h-8.2c-1.3,0-2.4-1.1-2.4-2.4v-5
					c0-1.3,1.1-2.4,2.4-2.4h8.2c1.3,0,2.4,1.1,2.4,2.4V230.9z"/>
				<path class="st8" d="M247,219c7.2,0.5,14.8,0.3,21.1-3c6.4-3.4,11-10.9,8.7-17.6c-2.3,1.3-5.2-0.2-7.6-1.4
					c-5.4-2.9-11.4-4.8-17.5-4.7c-6.1,0-12.3,2.1-16.7,6.3c-3.5,3.3-7,10.7-3.9,15.3C234.1,218.1,242.3,218.7,247,219z"/>
			</g>
		</g>
		<g>
			<path class="st8" d="M322.2,214c-1.4,5.8-1.3,11.9-1.7,17.9c-0.5,6-1.6,12.2-5.1,17c-1,1.4-2.2,2.7-3,4.2c-0.8,1.5-1,3.5-0.1,4.9
				c1,1.6,3.1,2.1,5,2.5c1.6,0.3,3.3,0.7,4.9,1c0.7,0.2,1.5,0.3,2.2,0.5c1,0.2,1.9,0.4,2.9,0.5c2.4,0.3,4.8,0.1,7.2-0.5
				c0.9-0.3,1.8-0.6,2.8-0.5c0.7,0.1,1.3,0.3,1.9,0.5c3,0.8,6.2-0.1,9.2-0.9c1.2-0.3,2.4-0.7,3.3-1.6c0.9-0.9,1.3-2.3,1.5-3.6
				c0.4-2.6,0.5-5.2,0.6-7.8c0.1-5.6,0.3-11.1,0.3-16.7c0-4.9-0.1-9.9-0.8-14.8c-0.6-3.9-1.6-7.8-3.9-10.9
				c-3.9-5.2-10.3-6.1-16.4-5.5C326.8,200.7,323.4,209,322.2,214z"/>
			<path class="st8" d="M375.9,213c1.4,5.8,1.3,11.9,1.7,17.9c0.5,6,1.6,12.2,5.1,17c1,1.4,2.2,2.7,3,4.2c0.8,1.5,1,3.5,0.1,4.9
				c-1,1.6-3.1,2.1-5,2.5c-1.6,0.3-3.3,0.7-4.9,1c-0.7,0.2-1.5,0.3-2.2,0.5c-1,0.2-1.9,0.4-2.9,0.5c-2.4,0.3-4.8,0.1-7.2-0.5
				c-0.9-0.3-1.8-0.6-2.8-0.5c-0.7,0.1-1.3,0.3-1.9,0.5c-3,0.8-6.2-0.1-9.2-0.9c-1.2-0.3-2.4-0.7-3.3-1.6c-0.9-0.9-1.3-2.3-1.5-3.6
				c-0.4-2.6-0.5-5.2-0.6-7.8c-0.1-5.6-0.3-11.1-0.3-16.7c0-4.9,0.1-9.9,0.8-14.8c0.6-3.9,1.6-7.8,3.9-10.9
				c3.9-5.2,10.3-6.1,16.4-5.5C371.3,199.7,374.7,208,375.9,213z"/>
			<path class="st11" d="M356.4,296.4c0,5.2,0,10.4,0.1,15.5c0.1,4,0.2,8.1,0.4,12.1c-0.3,0-0.6,0-0.9,0c-0.3,0-0.6,0-0.9,0
				c-1.5,0-3,0-4.6,0c-0.4,0-0.9,0-1.3,0c-2.2,0-4.3-0.1-6.4-0.2c-1.1,0-2.1-0.1-3.1-0.1c0,0-0.1,0-0.1,0c-0.3,0-0.7,0-1-0.1
				c-0.4,0-0.9,0-1.3-0.1c-0.7,0-1.4-0.1-2-0.1c-0.1,0-0.2,0-0.2,0c-0.4,0-0.7-0.1-1.1-0.1c-3.4-0.2-6.5-0.5-9-0.8
				c-0.1,0-0.3,0-0.4,0c-0.9-0.1-1.8-0.2-2.5-0.4c-0.3,0-0.5-0.1-0.8-0.1c-0.2,0-0.4-0.1-0.6-0.1c-0.1,0-0.3-0.1-0.4-0.1
				c-0.2,0-0.4-0.1-0.5-0.1c-0.1,0-0.1,0-0.2-0.1c-0.5-0.1-0.9-0.3-1.2-0.4c0,0-0.1,0-0.1-0.1c0,0,0,0-0.1-0.1
				c-1.9-2-0.2-7.2,0.2-9.5c1-8,2.4-16,4.5-23.8c1.9-7,4.4-13.9,7.8-20.3c0.7-1.3,1.4-2.5,2.1-3.8c1.7-2.8,3.6-5.5,6.1-7.6
				c0.1-0.1,0.3-0.2,0.4-0.3c0.4-0.3,0.7-0.5,1.1-0.8c0,0,0.1-0.1,0.1-0.1c5.1-3.4,12.1-4.2,17.9-2.1c-1.4,4.6-1.6,9.7-1.7,14.7
				c0,1.2,0,2.4-0.1,3.6C356.5,279.5,356.4,288,356.4,296.4z"/>
			<path class="st9" d="M362.7,269.2c-0.3,0.3-0.8,0.4-1.2,0.4c-6.7,0.6-13.5,0.4-20.1-0.6c-0.2-3.7-0.4-7.4-0.5-11.1
				c0-0.9-0.2-1.9-0.3-2.9c6-4.1,14.6-4.4,20.9-0.7c0.5,0.3,1,0.6,1.5,0.9c0.1,4.1,0.1,8.3,0.2,12.4
				C363.1,268.2,363.1,268.8,362.7,269.2z"/>
			<path class="st9" d="M357.7,234.5v21.8c0,4.3-3.5,7.8-7.8,7.8c-4.3,0-7.8-3.5-7.8-7.8v-21.8H357.7z"/>
			<path class="st10" d="M357.7,239.7v16c-3.3-0.6-7.6-1.4-8.3-1.6c-2.5-0.8-5-1.7-7.3-3c-1.4-0.8-2.8-1.6-4.1-2.6
				c-4.9-3.7,0.1-5.7,4.1-7.3c0,0,0,0,0,0c4.2-1.7,8.7-2.6,13.3-2.6c0.4,0,0.9,0,1.3,0.2C357.2,239,357.5,239.3,357.7,239.7z"/>
			<path class="st9" d="M324.1,226.2c0,14,7.4,25.3,19,25.3c11.6,0,21-11.3,21-25.3c0-14-9.4-25.3-21-25.3
				C331.5,200.9,324.1,212.2,324.1,226.2z"/>
			<path class="st9" d="M358.8,228.6c-1,4,0.9,7.9,4.1,8.7c3.2,0.8,6.6-1.9,7.6-5.9c1-4-0.9-7.9-4.1-8.7
				C363.2,221.9,359.8,224.5,358.8,228.6z"/>
			<path class="st8" d="M324.9,199.3c-5.1,3.5-9.3,9-9.5,15.2c-0.1,2.1,0.4,4.5,2.1,5.9c0.9,0.8,2.1,1.2,3.3,1.4
				c6.5,1.3,12.9-2.1,18.7-5.4c-0.2,2.6,3,3.9,5.5,4.3c6.5,0.8,13.1-0.1,19.2-2.6c3.2-1.3,6.5-3.3,7.6-6.6c1.7-4.8-1.8-9.8-5.9-12.9
				C353.9,189.8,336.8,191.2,324.9,199.3z"/>
			<path class="st2" d="M348.9,223.5c-2.7,0-8,0-8.7,4.5h-2.9c-0.6-4.5-6-4.5-8.7-4.5c-2.8,0-8.8,0-8.8,5.5c0,4.4,3.9,8,8.8,8
				c4.5,0,8.2-3.1,8.7-7h2.9c0.5,4,4.2,7,8.7,7c4.8,0,8.8-3.6,8.8-8C357.6,223.5,351.7,223.5,348.9,223.5z M328.5,235.1
				c-3.8,0-6.9-2.7-6.9-6.1c0-2.6,1.9-3.6,6.9-3.6c5,0,6.9,1,6.9,3.6C335.4,232.3,332.3,235.1,328.5,235.1z M348.9,235.1
				c-3.8,0-6.9-2.7-6.9-6.1c0-2.6,1.9-3.6,6.9-3.6c5,0,6.9,1,6.9,3.6C355.7,232.3,352.6,235.1,348.9,235.1z"/>
			<path class="st2" d="M369.3,221.8l-13.4,4.9c-0.3,0.1-0.7,0-0.8-0.4l-0.3-1c-0.1-0.3,0-0.7,0.4-0.8l13.4-4.9
				c0.3-0.1,0.7,0,0.8,0.4l0.3,1C369.8,221.4,369.6,221.7,369.3,221.8z"/>
			<path class="st2" d="M357.1,324.1c-0.1,0-0.1,0-0.2,0H356c-0.3,0-0.6,0-0.9,0c-1.5,0-3,0-4.6,0c-0.4,0-0.9,0-1.3,0
				c-2.2,0-4.3-0.1-6.4-0.2c-1,0-2.1-0.1-3.1-0.1c0,0-0.1,0-0.1,0c-0.3,0-0.7,0-1-0.1c-0.4,0-0.9,0-1.3-0.1c-0.7,0-1.4-0.1-2-0.1
				c-0.1,0-0.2,0-0.2,0c-0.4,0-0.7-0.1-1.1-0.1c-3.4-0.2-6.5-0.5-9-0.8c-0.1,0-0.3,0-0.4,0c-0.9-0.1-1.8-0.2-2.5-0.4
				c-0.3,0-0.5-0.1-0.8-0.1c-0.2,0-0.4-0.1-0.6-0.1c-0.1,0-0.3-0.1-0.4-0.1c-0.2,0-0.4-0.1-0.5-0.1c-0.1,0-0.1,0-0.2-0.1
				c-0.5-0.1-0.9-0.3-1.2-0.4c0,0-0.1,0-0.1-0.1c0,0,0,0-0.1-0.1c-1.9-2-0.2-7.2,0.2-9.5c1-8,2.4-16,4.5-23.8
				c1.9-7,4.4-13.9,7.8-20.3h26c0,1.2,0,2.4-0.1,3.6c-0.2,8.4-0.3,16.9-0.3,25.4c0,5.2,0,10.4,0.1,15.5c0.1,4,0.2,8.1,0.4,12.1
				C357,324.1,357,324.1,357.1,324.1z"/>
			<path class="st11" d="M343.3,323.9c-13-0.5-24-1.7-24.9-2.7c-1.9-2-0.2-7.2,0.2-9.5c1-8,2.4-16,4.5-23.8c1.9-7,4.4-13.9,7.8-20.3
				c0.7-1.3,1.4-2.5,2.1-3.8c1.7-2.8,3.6-5.5,6.1-7.6c0.1-0.1,0.3-0.2,0.4-0.3c0.4-0.3,0.7-0.5,1.1-0.8c1,2,1,5.8,1.3,7.7
				c0.4,2.9,0.7,5.9,1,8.9c0.5,6.8,0.6,13.5,0.6,20.3C343.3,302.5,343.3,313.2,343.3,323.9z"/>
			<path class="st2" d="M366.8,234.5c0,0.8-0.7,1.5-1.5,1.5s-1.5-0.7-1.5-1.5s0.7-1.5,1.5-1.5S366.8,233.6,366.8,234.5z"/>
			<path class="st2" d="M332.4,311.6h-32.5c-0.9,0-1.7-0.7-1.9-1.6l-8.4-43.7c-0.2-1.2,0.7-2.3,1.9-2.3h32.5c0.9,0,1.7,0.7,1.9,1.6
				l8.4,43.7C334.6,310.5,333.7,311.6,332.4,311.6z"/>
			<path class="st9" d="M290.8,294c0.1,0.1,0.1,0.3,0.2,0.4c1.5,2.7,6.2,3.1,8.5,1.3c0.8-0.6,1-2,0.1-2.5c0.7-0.4,1.1-1.2,0.8-2
				c-0.2-0.7-1-1.3-1.9-1.3c0.7-0.4,1.2-1.1,1.1-1.8c-0.1-0.7-0.9-1.3-1.7-1.2c3.1-0.4-1.4-3.4-2.2-3.6c-2.1-0.6-4.2-0.1-5.3,1.9
				c-0.9,1.8-0.8,3.9-0.5,5.9C290.2,292.1,290.4,293.1,290.8,294z"/>
			<path class="st9" d="M331.3,283.9c-1,0.2-1.3,1.5-1.3,2.6c-0.4-0.8-0.5-1.6-0.7-2.4c-0.3-0.8-0.7-1.6-1.5-1.9
				c-1.3-0.5-2.6,0.8-3.5,1.9c-1.5,2.1-3,4.8-2,7.2c0.4,1,1.1,1.8,1.9,2.6c1.4,1.4,2.8,2.7,4.3,3.9c0.8,0.6,1.6,1.3,2.6,1.2
				c1.1,0,2-0.9,2.5-1.8c1.4-2.3,1.2-4.6,0.4-7.1C333.5,288.7,333.7,283.4,331.3,283.9z"/>
			<path class="st11" d="M382.4,321.8c-0.4,0.1-0.9,0.2-1.3,0.3c-0.2,0-0.4,0.1-0.6,0.1c-0.2,0.1-0.4,0.1-0.7,0.1
				c-0.2,0-0.5,0.1-0.7,0.1c-0.5,0.1-1,0.2-1.6,0.3c-0.3,0-0.7,0.1-1,0.2c-1.2,0.2-2.4,0.3-3.7,0.4c-0.3,0-0.6,0.1-0.9,0.1
				c-0.6,0.1-1.2,0.1-1.7,0.1c-0.8,0.1-1.6,0.1-2.4,0.2c-0.4,0-0.8,0.1-1.2,0.1h0c-0.3,0-0.6,0-0.9,0c0,0-0.1,0-0.1,0
				c-0.6,0-1.2,0.1-1.8,0.1c0,0,0,0,0,0c-0.3,0-0.6,0-1,0c-0.1,0-0.1,0-0.2,0c-0.4,0-0.8,0-1.2,0c-0.4,0-0.8,0-1.2,0
				c-0.9,0-1.8,0-2.7,0c-0.1,0-0.2,0-0.3,0c-0.1,0-0.1,0-0.2,0c-0.2-4-0.3-8.1-0.4-12.1c-0.1-5.2-0.2-10.4-0.1-15.5
				c0-8.5,0.2-16.9,0.3-25.4c0-1.2,0-2.4,0.1-3.6c0.1-4.9,0.3-10,1.7-14.7c1,0.4,2,0.8,3,1.4c0.4,0.2,0.8,0.5,1.2,0.8
				c0.1,0.1,0.2,0.1,0.3,0.2c0.7,0.5,1.3,1,2,1.6c3.2,2.9,5.5,6.7,7.3,10.7c0.2,0.4,0.3,0.7,0.5,1.1c3.7,8.8,5.3,18.4,6.9,27.8
				C381,304.8,382.4,313.3,382.4,321.8z"/>
			<path class="st11" d="M356.9,324.1c0.1,0,0.1,0,0.2,0C357,324.1,357,324.1,356.9,324.1C356.9,324.1,356.9,324.1,356.9,324.1z"/>
			<g>
				<path class="st12" d="M372.9,270.8c-0.5,9.6-2.1,19.1-4.8,28.4c-0.9,3-2.1,6.5-5,9.3c-2.8,2.7-6.6,4.1-10.7,4.1
					c-2.2,0-4.4-0.4-6.5-1.2c-4.8-1.8-8.5-5.1-11.5-7.8l-7.4-6.6c0.4-0.8,0.7-1.6,1-2.1c1.8-2.8,4.3-5.1,7.1-6.8l7.3,6.5
					c2.5,2.2,5,4.5,7.7,5.5c1.8,0.7,3.9,0.6,4.7-0.3c0.8-0.8,1.5-2.9,1.8-4c2.4-8.3,3.9-16.9,4.3-25.5c0.2-3.2,2.8-5.7,6-5.8h0
					C370.3,264.4,373,267.3,372.9,270.8z"/>
			</g>
		</g>
		<g>
			<path class="st8" d="M135.6,208.5c-3.9,6-5.5,13.3-5.8,20.5c-0.2,5.2,0.1,10.7-2.1,15.5c-3.5,7.3-12.6,11.5-13.9,19.5
				c-0.5,2.9,0.3,6,1.6,8.6c1.6,2.9,4,5.5,7.1,6.7c3.1,1.2,6.8,0.9,9.5-1.1c1.6,2.9,4.7,4.7,7.8,5.8c3.6,1.3,7.6,2,11.3,0.9
				c3.7-1.1,6.9-4.3,7.3-8.1c2.8,2.9,7.9,2.4,10.7-0.4c2.9-2.8,3.7-7.1,3-11.1c-0.4-2.2-1.1-4.3-2.3-6.1c-5.1-7.9-16.9-10-20.5-18.6
				c-2.5-6.1,0.1-12.9,2.9-18.9c2.6-5.5,9.5-19.3,1.5-23.8C147.6,194.6,138.4,204.2,135.6,208.5z"/>
			<path class="st5" d="M189.9,320.4c-16.7,4.4-60.8,1.3-62.7-0.7c-1.8-1.9-0.1-7,0.2-9.3c1-7.8,2.3-15.6,4.4-23.3
				c2.2-8.2,5.3-16.3,9.7-23.6c1.7-2.7,3.5-5.4,6-7.4c0.1-0.1,0.2-0.2,0.4-0.3c6-4.7,15-5.4,21.6-1.5c1.2,0.7,2.3,1.6,3.3,2.5
				c3.4,3.1,5.8,7.3,7.6,11.5c3.7,8.7,5.2,18,6.8,27.2C188.5,303.8,189.9,312,189.9,320.4z"/>
			<path class="st9" d="M151.7,234.9v21.3c0,4.2,3.4,7.6,7.6,7.6c4.2,0,7.6-3.4,7.6-7.6v-21.3H151.7z"/>
			<path class="st10" d="M151.7,240v15.7c3.3-0.6,7.5-1.3,8.1-1.5c2.5-0.7,4.9-1.7,7.1-2.9c1.4-0.8,2.8-1.6,4-2.6
				c4.8-3.6-0.1-5.6-4-7.2c0,0,0,0,0,0c-4.1-1.7-8.5-2.5-13-2.5c-0.4,0-0.9,0-1.3,0.2C152.3,239.4,152,239.7,151.7,240z"/>
			<path class="st9" d="M184.6,226.8c0,13.7-7.3,24.7-18.6,24.7c-11.4,0-20.6-11.1-20.6-24.7c0-13.7,9.2-24.7,20.6-24.7
				C177.3,202.1,184.6,213.2,184.6,226.8z"/>
			<path class="st9" d="M150.6,229.1c0.9,3.9-0.9,7.8-4,8.5c-3.2,0.8-6.5-1.8-7.4-5.8c-0.9-3.9,0.9-7.8,4-8.5
				C146.3,222.6,149.7,225.2,150.6,229.1z"/>
			<path class="st8" d="M183.9,200.5c5,3.4,9.1,8.8,9.3,14.9c0.1,2.1-0.4,4.4-2,5.7c-0.9,0.8-2,1.1-3.2,1.4
				c-6.4,1.2-12.7-2.1-18.3-5.3c0.2,2.5-2.9,3.9-5.4,4.2c-6.3,0.8-12.8-0.1-18.7-2.5c-3.1-1.3-6.3-3.2-7.5-6.4
				c-1.7-4.7,1.8-9.6,5.7-12.6C155.4,191.2,172.1,192.6,183.9,200.5z"/>
			<path class="st9" d="M218.2,260.8c-0.2-1.6-0.3-3.3-1.1-4.7c-0.3-0.5-0.7-0.8-1.1-1c-1-0.3-1.6,0.3-2.1,0.9
				c-2,2.3-3.9,4.8-5.5,7.4c-0.4-1.5-1.1-3-1.8-4.4c-0.2-0.4-0.6-0.7-1.1-0.7c-0.9,0-1.2,0.9-1.4,1.6c-0.4,1.9-0.8,3.8-1.2,5.7
				c-0.1,0.4-0.2,0.7-0.3,1.1c-10.5,11.1-15.3,14.3-24.8,19.8c-2.6,1.5-5.6,3-7.8,2.7c-2.7-0.4-5.3-3.7-7-6.2
				c-3.3-4.8-6.1-10-8.3-15.4c-1.2-2.8-4.3-4.2-7.2-3.3l0,0c-3.2,1.1-4.8,4.6-3.5,7.6c2.5,6.2,5.7,12.1,9.5,17.6
				c2.9,4.2,7.5,9.9,14.7,11.1c0.9,0.1,1.7,0.2,2.5,0.2c4.8,0,9.2-2.1,12.9-4.3c11.4-6.6,16-11.1,27.5-23.3c0,0,3.6-3.9,5.4-5.8
				c0.8-0.9,1.6-1.8,1.9-2.9C218.4,263.2,218.3,262,218.2,260.8z"/>
		</g>
	</g>
	<g>
		<g>
			<path class="st13" d="M288.2,319.4h-78.3v-51.2c0-2.5,2-4.4,4.4-4.4h69.4c2.5,0,4.4,2,4.4,4.4V319.4z"/>
			<g>
				<path class="st14" d="M249,303.6c-1.6,1.3-3.6,2.1-5.8,2.1c-5.1,0-9.3-4.1-9.3-9.3c0-5.1,4.1-9.3,9.3-9.3c2.2,0,4.3,0.8,5.8,2.1
					c-2.1,1.7-3.4,4.3-3.4,7.2C245.6,299.3,247,301.9,249,303.6z"/>
				<path class="st6" d="M252.5,296.4c0,2.9-1.3,5.5-3.4,7.2c-2.1-1.7-3.4-4.3-3.4-7.2c0-2.9,1.3-5.5,3.4-7.2
					C251.1,290.9,252.5,293.5,252.5,296.4z"/>
				<path class="st3" d="M264.1,296.4c0,5.1-4.1,9.3-9.3,9.3c-2.2,0-4.3-0.8-5.8-2.1c2.1-1.7,3.4-4.3,3.4-7.2c0-2.9-1.3-5.5-3.4-7.2
					c1.6-1.3,3.6-2.1,5.8-2.1C260,287.2,264.1,291.3,264.1,296.4z"/>
			</g>
		</g>
		<g>
			<g>
				<path class="st11" d="M183.9,319.4h-52.6c-1.7,0-3.2-1.1-3.8-2.7l0,0c-0.9-2.6,1.1-5.2,3.8-5.2h52.6c1.7,0,3.2,1.1,3.8,2.7l0,0
					C188.5,316.8,186.6,319.4,183.9,319.4z"/>
				<path class="st13" d="M156.8,319.4H97.5c-1.4,0-2.5-0.9-2.8-2.3l-9.3-40.6c-0.4-1.8,1-3.6,2.8-3.6h59.4c1.4,0,2.5,0.9,2.8,2.3
					l9.3,40.6C160.1,317.7,158.7,319.4,156.8,319.4z"/>
			</g>
			<g>
				<path class="st14" d="M121.9,302.1c-1.3,1-2.9,1.6-4.6,1.6c-4,0-7.3-3.3-7.3-7.3c0-4,3.3-7.3,7.3-7.3c1.7,0,3.4,0.6,4.6,1.6
					c-1.6,1.3-2.7,3.4-2.7,5.7C119.3,298.7,120.3,300.7,121.9,302.1z"/>
				<path class="st6" d="M124.6,296.4c0,2.3-1,4.3-2.7,5.7c-1.6-1.3-2.7-3.4-2.7-5.7c0-2.3,1-4.3,2.7-5.7
					C123.6,292.1,124.6,294.1,124.6,296.4z"/>
				<path class="st3" d="M133.9,296.4c0,4-3.3,7.3-7.3,7.3c-1.7,0-3.4-0.6-4.6-1.6c1.6-1.3,2.7-3.4,2.7-5.7c0-2.3-1-4.3-2.7-5.7
					c1.3-1,2.9-1.6,4.6-1.6C130.6,289.1,133.9,292.4,133.9,296.4z"/>
			</g>
		</g>
		<g>
			<rect x="321.3" y="309.1" class="st5" width="66.7" height="10.8"/>
			<rect x="321.3" y="306.9" class="st15" width="66.7" height="4.3"/>
			<rect x="321.3" y="298.3" class="st5" width="66.7" height="10.8"/>
			<rect x="321.3" y="296.2" class="st15" width="66.7" height="4.3"/>
			<rect x="321.3" y="287.6" class="st5" width="66.7" height="10.8"/>
			<rect x="321.3" y="285.4" class="st15" width="66.7" height="4.3"/>
			<rect x="321.3" y="276.8" class="st5" width="66.7" height="10.8"/>
			<rect x="321.3" y="274.7" class="st15" width="66.7" height="4.3"/>
		</g>
		<g>
			<g>
				<ellipse class="st16" cx="251.9" cy="429" rx="197.8" ry="25.4"/>
				<g>
					<polygon class="st3" points="392,325.8 391.5,333.7 390.4,349.3 386.1,398.9 385.4,406.8 384.8,412.8 383.3,430.3 117,430.3 
						115.4,412.5 114.9,406.8 114.2,398.9 109.9,349.3 108.3,325.8 					"/>
					<polygon class="st17" points="392,325.8 390.4,349.3 109.9,349.3 108.3,325.8 					"/>
					<path class="st14" d="M405.5,333.7H97.4c-4.1,0-7.4-3.3-7.4-7.4l0,0c0-4.1,3.3-7.4,7.4-7.4h308.1c4.1,0,7.4,3.3,7.4,7.4l0,0
						C412.9,330.4,409.6,333.7,405.5,333.7z"/>
				</g>
			</g>
			<polygon class="st13" points="386.1,398.9 385.4,406.8 114.9,406.8 114.2,398.9 			"/>
		</g>
		<g>
			<path class="st18" d="M50.6,362.5c-0.9-4.1-0.4-9.3,3.3-11.2c4.2-2.2,9,1.2,12.5,4.5c-6.3-9.7-9.6-21.2-9.5-32.7
				c0-3.9,1-8.6,4.7-10c3.5-1.4,7.3,1.2,9.4,4.4c2,3.1,3.1,6.9,5.4,9.8c-2.2-13.3-4-28,3.5-39.1c1-1.4,2.2-2.9,3.9-3.1
				c2.6-0.4,4.7,2,6.1,4.2c4.5,7.3,6.9,15.9,6.8,24.4c1.1-3.2,3.2-6,6-8c1.7-1.2,3.8-2.1,5.9-1.7c4.4,0.7,6.3,6,6.8,10.5
				c1.6,13.2-1,26.9-7.2,38.8c3.3-3,8.2-6.1,11.8-3.4c2.2,1.7,2.5,4.9,2.3,7.7c-0.8,11.3-7.1,22.1-16.5,28.4
				c-8.6,5.7-25.5,10-34.7,3.2c-3.8-2.8-8.1-7.2-11.6-10.6C55.1,374.1,51.9,368.5,50.6,362.5z"/>
			<path class="st3" d="M110.2,362.4c-6,7.6-11.6,15.1-20.8,18.9c0.3-9.7,0.3-19.4-0.1-29.2c0,0,0.1,0,0.2-0.1
				c8-7.3,13.2-17.7,15.9-28.1c0.3-1-1.2-1.4-1.6-0.4c-3.9,9.3-7.9,17.7-14.6,25.2c-0.7-13.6-2.1-27.1-4.7-40
				c-0.2-1-1.8-0.8-1.7,0.2c0.9,14.5,2.8,28.8,3.5,43.3c0,0.9,0,1.7,0.1,2.6c-3.3-3.3-7.1-6.2-10.1-9.9c-3.7-4.4-6.3-9.5-9.9-13.9
				c-0.3-0.4-0.9,0-0.8,0.4c1.4,5.3,4.9,10.3,8.3,14.6c3.5,4.4,7.6,9.4,12.6,12.2c0.2,7.3,0.2,14.5,0.2,21.8
				c-3.4-2.5-7.1-4.6-10.4-7.2c-4-3.2-7.7-6.7-11.6-10c-0.3-0.3-0.9,0.1-0.6,0.5c5.2,7.6,13.8,15.9,22.5,19.5
				c-0.1,4.3-0.2,8.6-0.3,12.9c0,1.7,2.5,1.7,2.6,0c0.2-3.9,0.4-7.9,0.5-11.9c9.4-3.7,17.4-11.5,22-20.5
				C111.7,362.6,110.8,361.8,110.2,362.4z"/>
			<g>
				<g>
					<polygon class="st19" points="109.6,384.6 108.9,389.3 108.1,394.1 107.1,400.2 106.6,403.5 104.6,415.5 104.1,418.9 
						102.2,430.7 72.6,430.7 70.7,419.4 70.2,415.9 68.3,404.1 67.7,400.7 66.7,394.1 65.9,389.3 65.1,384.6 					"/>
					<polygon class="st7" points="109.6,384.6 108.1,394.1 66.7,394.1 65.1,384.6 					"/>
					<path class="st13" d="M110.4,389.3H64.3c-2.2,0-4-1.8-4-4l0,0c0-2.2,1.8-4,4-4h46.1c2.2,0,4,1.8,4,4l0,0
						C114.4,387.6,112.6,389.3,110.4,389.3z"/>
				</g>
				<path class="st2" d="M107.1,400.2l-0.5,3.3c-3.5-1.2-7.4-0.4-11.2,1.8c-2.1,1.2-3.6,2.8-6.1,3.2c-2.9,0.4-5.4-0.8-7.9-2.2
					c-4.5-2.4-9-3.7-13-2.2l-0.5-3.4c1.6-0.6,3.4-0.9,5.2-0.9c7.1,0.2,11.3,6.5,19.1,3.9c4.7-1.6,6.3-4.7,11.9-4.2
					C105,399.6,106.1,399.8,107.1,400.2z"/>
				<path class="st2" d="M104.6,415.5l-0.5,3.4c-2.8-0.2-5.8,0.6-8.8,2.3c-2.1,1.2-3.6,2.8-6.1,3.2c-2.9,0.4-5.4-0.8-7.9-2.2
					c-3.6-1.9-7.2-3.1-10.6-2.8l-0.6-3.5c0.9-0.2,1.8-0.2,2.8-0.2c7.1,0.2,11.3,6.5,19.1,3.9c4.7-1.6,6.3-4.7,11.9-4.2
					C104.1,415.4,104.4,415.5,104.6,415.5z"/>
			</g>
		</g>
		<g>
			<g>
				<path class="st19" d="M382.5,379.8c-4.4-1.5-8.6-4.4-10.8-8.5c-2.2-4.1-2.1-9.6,0.9-13.2c3-3.6,9.1-4.4,12.5-1.2
					c-3.1-3.2-5.7-7.1-6.5-11.5c-0.7-4.4,0.8-9.4,4.6-11.8c3.8-2.4,9.6-1.2,11.4,2.8c0.4-11.1,5.9-22.9,16.2-26.9
					c1.6-0.6,3.3-1,4.9-0.6c1.4,0.4,2.6,1.5,3.5,2.6c5.7,6.9,5.3,16.8,4.5,25.7c1.8-4,5.5-7.2,9.8-7.9c4.3-0.8,9.1,1,11.4,4.7
					c2.4,3.7,2.1,8.7,0.4,12.8c-1.7,4.1-4.8,7.5-7.7,10.8c2.9-2.2,7.5-0.3,9.1,3c1.5,3.3,0.7,7.3-1.1,10.5
					c-3.4,6.2-9.6,10.4-16.3,12.5c-6.7,2.1-13.8,2.4-20.8,2.2c-4.9-0.1-7.9-1.7-12.3-3.2C392,380.9,387,381.3,382.5,379.8z"/>
				<path class="st7" d="M436.5,365.9c-4.2,2.8-8.2,5.9-12.4,8.8c-1.9,1.3-3.8,2.7-5.8,3.8c-1,0.8-2.1,1.3-3.2,1.7
					c0.2-3.9,0.2-7.9,0.1-11.8c3.3-2.2,6.6-6.7,8.6-8.8c4.9-5.1,9.4-10.6,13-16.6c1-1.6-1.5-3.1-2.5-1.5c-2.9,4.7-6.3,8.9-10.2,12.8
					c-2.1,2.1-5.9,7-9.1,9c-0.6-11.5-2.5-22.7-5.8-33.1c-0.3-1-2.1-0.9-2,0.3c1.1,11.2,3,22.3,3.6,33.5c-7.1-1.8-16-16-19.4-19.8
					c-0.9-1-2.3,0.3-1.8,1.4c2.6,5.9,6.9,11,11.5,15.5c1.9,1.9,6.4,7.4,10,8.3c0.1,4,0,8-0.2,12c-1.3,0.2-2.5-0.2-3.6-1.3
					c-9.2-2.7-17-10.1-26-13.7c-0.9-0.4-1.7,1-1,1.6c5.1,4.6,11.4,7.8,17.4,11c3.7,2,8.6,5.8,12.9,6.3c-0.4,6.8-1.1,13.6-1.9,20.5
					c-0.2,2,3.2,2.5,3.5,0.5c1.2-7,2.1-14.3,2.6-21.7c2.8-1.2,5.6-3.4,7.6-4.7c5.5-3.6,11-7.5,15.7-12.1
					C439.1,366.9,437.8,365.1,436.5,365.9z"/>
			</g>
			<g>
				<g>
					<g>
						<polygon class="st5" points="433.7,384.6 432.9,389.3 432.2,394.1 431.2,400.2 430.7,403.5 428.7,415.5 428.2,418.9 
							426.3,430.7 396.6,430.7 394.8,419.4 394.3,415.9 392.4,404.1 391.8,400.7 390.8,394.1 390,389.3 389.2,384.6 						"/>
						<polygon class="st4" points="433.7,384.6 432.2,394.1 390.8,394.1 389.2,384.6 						"/>
						<path class="st13" d="M434.5,389.3h-46.1c-2.2,0-4-1.8-4-4l0,0c0-2.2,1.8-4,4-4h46.1c2.2,0,4,1.8,4,4l0,0
							C438.5,387.6,436.7,389.3,434.5,389.3z"/>
					</g>
					<path class="st2" d="M431.2,400.2l-0.5,3.3c-3.5-1.2-7.4-0.4-11.2,1.8c-2.1,1.2-3.6,2.8-6.1,3.2c-2.9,0.4-5.4-0.8-7.9-2.2
						c-4.5-2.4-9-3.7-13-2.2l-0.5-3.4c1.6-0.6,3.4-0.9,5.2-0.9c7.1,0.2,11.3,6.5,19.1,3.9c4.7-1.6,6.3-4.7,11.9-4.2
						C429.1,399.6,430.2,399.8,431.2,400.2z"/>
					<path class="st2" d="M428.7,415.5l-0.5,3.4c-2.8-0.2-5.8,0.6-8.8,2.3c-2.1,1.2-3.6,2.8-6.1,3.2c-2.9,0.4-5.4-0.8-7.9-2.2
						c-3.6-1.9-7.2-3.1-10.6-2.8l-0.6-3.5c0.9-0.2,1.8-0.2,2.8-0.2c7.1,0.2,11.3,6.5,19.1,3.9c4.7-1.6,6.3-4.7,11.9-4.2
						C428.2,415.4,428.5,415.5,428.7,415.5z"/>
				</g>
			</g>
		</g>
	</g>
</g>
<g id="DESIGNED_BY_FREEPIK">
</g>
</svg>
