<?xml version="1.0" encoding="utf-8"?>
<!-- Generator: Adobe Illustrator 25.4.1, SVG Export Plug-In . SVG Version: 6.00 Build 0)  -->
<svg version="1.1" xmlns="http://www.w3.org/2000/svg" xmlns:xlink="http://www.w3.org/1999/xlink" x="0px" y="0px"
	 viewBox="0 0 616.39 459.09" style="enable-background:new 0 0 616.39 459.09;" xml:space="preserve">
<style type="text/css">
	.st0{opacity:0.29;fill:#C3B7FC;enable-background:new    ;}
	.st1{fill:#FFFFFF;}
	.st2{fill:#FFC500;}
	.st3{fill:#F47E14;}
	.st4{fill:#464689;}
	.st5{fill:#FFB4A6;}
	.st6{fill:#122030;}
	.st7{fill:#DA857C;}
	.st8{fill:#F76687;}
	.st9{fill:none;stroke:#FFFFFF;stroke-miterlimit:10;}
	.st10{fill:#ECBF4C;}
	.st11{fill:#CEC8FC;}
	.st12{opacity:0.3;fill:#FFFFFF;}
	.st13{fill:#A797FB;}
	.st14{opacity:0.2;fill:#9ED3FF;}
	.st15{fill:#DFDBFC;}
	.st16{opacity:0.31;fill:#A797FB;}
	.st17{fill:#FFFDFF;}
	.st18{fill:#E08675;}
	.st19{fill:#DD6E5C;}
	.st20{fill:#E0EEFB;}
	.st21{fill:#5F5EA5;}
</style>
<g id="BACKGROUND">
	<path class="st0" d="M504.57,231.71c-8,19.6,2.7,38.7,8.8,57.4c8.3,25.6,11.51,94.34-5.09,117.54c-0.8,1.1-1.6,2.2-2.5,3.3
		c-17.6,20.9-45.7,23-70.9,24.7c-12.8,0.8-25.6,1.5-38.4,2.1c-20.9,1-41.8,1.6-62.6,1.9c-2.3,0-4.6,0.1-6.9,0.1
		c-17,0.2-34,0.1-50.9-0.2c-22.9-0.3-45.7-0.9-68.6-1.4c-6.6-0.1-13.1-0.3-19.7-0.4c-15.6-0.3-31.3-1.7-46.3-5.4
		c-17-4.2-32.8-11.3-46.1-23.1c-1.4-1.2-2.8-2.5-4.1-3.8c-26.1-26-58.24-83.56-43.64-117.86c6.5-15.4,12.89-36.94,11.29-53.54
		c-0.9-9-7.83-45.47-11.23-53.87c-13.2-32.3,17.48-63.67,49.78-85.17c14.4-9.6,32.65-40.07,46.79-41.88
		c35.07-24.98,81.11-18.22,124.31-34.72c26.1-10,56.2-12.6,81.7-1c23.3,10.6,46.59,16.42,70.29,25.62
		c21.1,8.2,36.91,21.78,58.11,30.28c20.6,8.3,38.4,24,48.4,43.9c11,22,12.3,48.5,4.3,71.7
		C525.57,204.31,511.07,215.71,504.57,231.71z"/>
</g>
<g id="OBJECTS">
	<g>
		<g>
			<polygon class="st1" points="537,406.37 536.26,404.43 512.56,404.45 512.33,406.37 			"/>
			<path class="st2" d="M536.26,404.43l-3.53-12.61l-9.19-0.14l0.24,6.63c0,0-11.37,2.7-11.22,6.15L536.26,404.43z"/>
			<polygon class="st3" points="533.35,394.05 525.64,391.71 523.54,391.68 523.69,396 534.25,397.28 			"/>
		</g>
		<g>
			<polygon class="st1" points="465.27,406.37 465.51,404.43 441.8,404.45 440.81,406.37 			"/>
			<path class="st2" d="M465.51,404.43l1.48-12.61l-9.13-0.14l-2.4,6.63c0,0-12.44,2.7-13.66,6.15L465.51,404.43z"/>
			<polygon class="st3" points="466.72,394.05 459.94,391.71 457.86,391.68 456.29,396 466.35,397.28 			"/>
		</g>
		<g>
			<g>
				<g>
					<polygon class="st4" points="471.69,395.14 508.72,254.46 519.04,395.14 536.96,395.14 528.68,240.36 493.69,233.05 
						451.07,395.14 					"/>
					<polygon class="st1" points="511.95,175.26 493.69,233.05 528.68,240.36 532.32,180.54 					"/>
					<g>
						<path class="st1" d="M527.65,176.31l4.67,4.23c0,0-11.45,5.97-16.36,3.61c-4.91-2.36-4.02-8.89-4.02-8.89l4.12,0.25
							L527.65,176.31z"/>
					</g>
					
						<ellipse transform="matrix(0.1608 -0.987 0.987 0.1608 303.1917 678.7751)" class="st4" cx="550.75" cy="161.1" rx="12.16" ry="12.16"/>
					<circle class="st4" cx="529.48" cy="153.1" r="18.05"/>
					<g>
						<g>
							<path class="st5" d="M527.43,179.16l6.83-13.69c0,0,5.69,4.03,7.7-0.99c1.79-4.47-3.11-6.29-6.16-4.84
								c0,0,9.04-14.81-4.49-20.16c-13.54-5.36-19.26,13.66-20.66,18.25c-2.48,8.09,2.21,13.7,6.31,15.34l-1.78,4.88
								c0,0-1.61,4.26,2.44,5.63c2.16,0.73,4.03,0.42,5.51-0.21C525.02,182.57,526.51,181.02,527.43,179.16z"/>
						</g>
					</g>
					<path class="st1" d="M523,161.14c-1.74,0.94-3.76,1.35-5.73,1.16c0.49,0.85,1.07,1.78,2,2.11c0.93,0.33,2.03,0.23,2.81-0.37
						C522.87,163.44,523.36,162.06,523,161.14z"/>
					<g>
						<path class="st6" d="M520.37,160.18c-0.03-0.01-0.07-0.01-0.1-0.03c-0.59-0.26-1.04-0.73-1.26-1.33
							c-0.22-0.6-0.18-1.25,0.1-1.83l1.65-3.33c0.1-0.2,0.34-0.28,0.53-0.18c0.2,0.1,0.28,0.34,0.18,0.54l-1.65,3.33
							c-0.19,0.38-0.21,0.8-0.07,1.2c0.14,0.4,0.44,0.71,0.82,0.87c0.2,0.09,0.3,0.32,0.21,0.52
							C520.72,160.12,520.54,160.21,520.37,160.18z"/>
					</g>
					<g>
						<path class="st4" d="M516.57,148.93c-0.52-1.75,5.07-1.6,4.13-0.55C520.04,149.13,516.9,150.05,516.57,148.93z"/>
					</g>
					<g>
						<g>
							<path class="st4" d="M525.45,156.2c-0.12,0.85-0.91,1.44-1.77,1.32c-0.85-0.12-1.44-0.91-1.32-1.77
								c0.12-0.85,0.91-1.44,1.77-1.32C524.98,154.56,525.57,155.35,525.45,156.2z"/>
						</g>
					</g>
					<g>
						<g>
							<path class="st4" d="M518.19,154.13c-0.12,0.85-0.91,1.44-1.77,1.32c-0.85-0.12-1.44-0.91-1.32-1.77
								c0.12-0.85,0.91-1.44,1.77-1.32C517.73,152.49,518.32,153.28,518.19,154.13z"/>
						</g>
					</g>
					<g>
						<path class="st6" d="M535.95,163.65c-0.03,0-0.05-0.01-0.08-0.02c-0.21-0.08-0.31-0.31-0.23-0.52
							c0.35-0.91,1.16-1.62,2.1-1.86c0.95-0.24,1.99,0.01,2.73,0.64c0.17,0.14,0.19,0.4,0.04,0.56c-0.14,0.17-0.4,0.19-0.56,0.04
							c-0.55-0.47-1.32-0.65-2.01-0.48c-0.7,0.17-1.29,0.7-1.55,1.37C536.31,163.57,536.13,163.67,535.95,163.65z"/>
					</g>
					<g>
						<path class="st7" d="M516.95,173.08c4.91,1.67,10.84-0.21,10.84-0.21s-5.02,3.37-11.45,1.89L516.95,173.08z"/>
					</g>
					<g>
						<path class="st8" d="M525.96,161.11c0.01,0.63,0.53,1.13,1.16,1.12c0.63-0.01,1.13-0.53,1.12-1.15
							c-0.01-0.63-0.53-1.13-1.15-1.12C526.45,159.97,525.95,160.48,525.96,161.11z"/>
					</g>
					<g>
						<path class="st8" d="M512.62,158.19c0.01,0.63,0.53,1.13,1.16,1.12c0.63-0.01,1.13-0.53,1.12-1.15
							c-0.01-0.63-0.53-1.13-1.16-1.12C513.11,157.04,512.61,157.56,512.62,158.19z"/>
					</g>
					
						<ellipse transform="matrix(0.7071 -0.7071 0.7071 0.7071 58.9566 431.2321)" class="st4" cx="550.02" cy="144.45" rx="8.61" ry="8.61"/>
					<g>
						<path class="st4" d="M512.41,152.39c0,0,2.15-5.71,7.83-8.02c0,0,1.64,4.31,11.5,11.84c0,0-2.49,8-1.55,8.3
							c0.94,0.3,3.15-2.41,5.62-4.85c2.46-2.44,5.5-4.39,5.5-4.39l-3.4-13.91l-3.89-2.81l-5.17-1.83l-5.27,0.6l-4.43,1.29l-4.6,4.66
							l-2.11,4.26L512.41,152.39z"/>
					</g>
				</g>
			</g>
			<path class="st9" d="M520.48,153.3c0,2.29-1.86,4.14-4.14,4.14c-2.29,0-4.14-1.86-4.14-4.14c0-2.29,1.86-4.14,4.14-4.14
				C518.63,149.16,520.48,151.01,520.48,153.3z"/>
			<path class="st9" d="M528.79,156.15c0,2.29-1.86,4.14-4.14,4.14c-2.29,0-4.14-1.86-4.14-4.14s1.86-4.14,4.14-4.14
				C526.94,152.01,528.79,153.86,528.79,156.15z"/>
		</g>
		<polygon class="st5" points="475.62,126.49 484.15,132.59 475.62,132.13 		"/>
		<path class="st10" d="M511.95,175.26l-32.57,112.21l-5.85-2.13l21.76-76.52c0,0-3.71-7.16-3.47-10.81c0.24-3.65,4.3-8.79,4.3-8.79
			s-21.56-1.93-24.04-3.35c-2.48-1.41,0.96-50.03,0.96-50.03l14.3,1.35l-0.91,35.03L511.95,175.26z"/>
	</g>
	<g>
		<path class="st4" d="M460.66,364.03H72.92c-5.52,0-10-4.48-10-10V102.07c0-5.52,4.48-10,10-10h387.74c5.52,0,10,4.48,10,10v251.96
			C470.66,359.55,466.18,364.03,460.66,364.03z"/>
		
			<rect x="154.13" y="18.86" transform="matrix(-1.836970e-16 1 -1 -1.836970e-16 480.5208 -53.0536)" class="st11" width="225.32" height="389.74"/>
		<path class="st12" d="M312.88,101.07H334L108.68,326.39H87.56L312.88,101.07z M461.66,129.78v-28.7H351.57L126.25,326.39h138.79
			L461.66,129.78z M71.92,264.85L235.7,101.07h-67.7l-96.08,96.08V264.85z M461.66,238.23v-21.12L352.37,326.39h21.12L461.66,238.23
			z"/>
		<rect x="229.95" y="357.26" class="st13" width="73.67" height="41.68"/>
		<rect x="229.95" y="357.26" class="st4" width="73.67" height="11.88"/>
		<rect x="207.74" y="398.94" class="st1" width="118.09" height="7.43"/>
		<path class="st1" d="M62.92,335.39v18.63c0,5.52,4.48,10,10,10h387.74c5.52,0,10-4.48,10-10v-18.63H62.92z"/>
	</g>
	<g>
		<path class="st14" d="M424.99,290.32H274.1c-2.21,0-4-1.79-4-4v-92.98c0-2.21,1.79-4,4-4h150.9c2.21,0,4,1.79,4,4v92.98
			C428.99,288.53,427.2,290.32,424.99,290.32z"/>
		<path class="st13" d="M426.44,288.87h-150.9c-2.21,0-4-1.79-4-4v-92.98c0-2.21,1.79-4,4-4h150.9c2.21,0,4,1.79,4,4v92.98
			C430.44,287.08,428.65,288.87,426.44,288.87z"/>
		
			<rect x="306.5" y="164.93" transform="matrix(-1.836970e-16 1 -1 -1.836970e-16 589.3735 -112.6101)" class="st15" width="88.98" height="146.9"/>
		<polygon class="st16" points="424.44,247.38 393.95,216.89 346.84,263.99 314.85,232.01 277.54,269.32 277.54,282.87 
			424.44,282.87 		"/>
		
			<ellipse transform="matrix(0.1595 -0.9872 0.9872 0.1595 69.5917 531.3166)" class="st17" cx="346.84" cy="224.79" rx="12.75" ry="12.75"/>
	</g>
	<g>
		<path class="st14" d="M470.66,113.13H355.89c-2.21,0-4,1.79-4,2.43v71.61c0,3.78,1.79,5.57,4,5.57h114.76V113.13z"/>
		<path class="st18" d="M473.08,190.33H358.31c-2.21,0-4-1.79-4-4v-71.61c0-2.21,1.79-4,4-4h114.77c2.21,0,4,1.79,4,4v71.61
			C477.08,188.54,475.28,190.33,473.08,190.33z"/>
		<path class="st5" d="M477.08,136.22c0-3.3-6.42-2.67-6.42-4.92c0-2.25,12.18,0.47,13.49,1.28c1.31,0.82,0.53,4.35,0.53,4.35
			L477.08,136.22z"/>
		<g>
			<g>
				<path class="st6" d="M468.83,182.84h-73.58c-1.01,0-1.83-0.82-1.83-1.83c0-1.01,0.82-1.83,1.83-1.83h73.58
					c1.01,0,1.83,0.82,1.83,1.83C470.66,182.02,469.84,182.84,468.83,182.84z"/>
			</g>
			<g>
				<path class="st19" d="M395.25,182.84h-32.69c-1.01,0-1.83-0.82-1.83-1.83c0-1.01,0.82-1.83,1.83-1.83h32.69
					c1.01,0,1.83,0.82,1.83,1.83C397.08,182.02,396.26,182.84,395.25,182.84z"/>
			</g>
			<circle class="st17" cx="395.25" cy="181.01" r="3.9"/>
		</g>
		<g>
			<circle class="st17" cx="415.69" cy="147.6" r="23.94"/>
			<polygon class="st19" points="427.34,147.6 418.25,152.85 409.17,158.09 409.17,147.6 409.17,137.11 418.25,142.35 			"/>
		</g>
	</g>
	<g>
		<path class="st17" d="M252.98,326.39H100.1V131.62h122.54c11.85,11.85,18.49,18.49,30.34,30.34V326.39z"/>
		<polygon class="st20" points="222.64,131.62 222.64,161.97 252.98,161.97 		"/>
		<g>
			<path class="st21" d="M144.13,155.93h-9.7v29.44h-8.63v-29.44h-9.7v-8.3h28.04V155.93z"/>
		</g>
		<path class="st20" d="M144.26,195.85H116.1v-3.62h28.16V195.85z M144.26,239.96H116.1v3.62h28.16V239.96z M144.26,287.69H116.1
			v3.62h28.16V287.69z M205.71,306.78H116.1v3.62h89.61V306.78z M177.59,190.42h-3.62v3.62h3.62V190.42z M137.11,297.23H116.1v3.61
			h21.01V297.23z M140.72,300.85h34.99v-3.61h-34.99V300.85z M179.32,297.23v3.61h57.66v-3.61H179.32z M116.1,253.12h38.65v-3.62
			H116.1V253.12z M158.37,253.12h31.22v-3.62h-31.22V253.12z M193.2,249.51v3.62h43.78v-3.62H193.2z M116.1,259.05v3.61h56.07v-3.59
			L116.1,259.05z M175.78,259.08v3.59h61.19v-3.61L175.78,259.08z M116.1,220.87v3.62h15.33v-3.62H116.1z M135.04,220.87v3.62h27.76
			v-3.62H135.04z M152.91,211.32v3.62h35.63v-3.62H152.91z M116.1,211.32v3.62h33.19v-3.62H116.1z M192.15,211.32v3.62h44.83v-3.62
			H192.15z M116.1,201.78v3.62h57.88v-3.62H116.1z M212.59,201.78v3.62h24.39v-3.62H212.59z M177.59,201.78v3.62h31.38v-3.62H177.59
			z M136.98,268.6H116.1v3.62h20.88V268.6z M140.59,268.6v3.62h68.73v-3.62H140.59z"/>
	</g>
	<path class="st14" d="M210.82,99.53c0,9.05,7.33,16.38,16.38,16.38h50.79c7.79,0,14.11-6.31,14.11-14.1c0-3.78-1.49-7.2-3.91-9.73
		h-75.56C211.48,94.31,210.82,96.84,210.82,99.53z"/>
	<path class="st21" d="M279.63,86.18c-0.1-13.29-10.9-24.03-24.21-24.03c-11.84,0-21.7,8.51-23.79,19.74
		c-0.94-0.17-1.91-0.27-2.9-0.27c-9.05,0-16.38,7.33-16.38,16.38c0,9.05,7.33,16.38,16.38,16.38h50.79c7.79,0,14.11-6.31,14.11-14.1
		C293.62,92.53,287.36,86.25,279.63,86.18z"/>
	<g>
		<circle class="st14" cx="393.72" cy="328.84" r="26.83"/>
		<circle class="st19" cx="395.84" cy="326.72" r="26.83"/>
		<path class="st1" d="M400.41,339l-4.62,2.99l-4.62-2.98c-11.54-7.46-11.54-12.79-11.54-14.79c0-4.69,3.8-8.5,8.5-8.5
			c3.36,0,6.27,1.96,7.65,4.79c1.38-2.83,4.28-4.79,7.65-4.79c4.7,0,8.5,3.81,8.5,8.5C411.94,326.22,411.94,331.54,400.41,339z"/>
	</g>
	<g>
		<path class="st14" d="M303.77,123.39c-18.54,0-33.57,11.59-33.57,25.88c0,7.39,4.02,14.05,10.46,18.76l-3.42,10.33l12.28-5.66
			c4.32,1.56,9.15,2.44,14.24,2.44c18.54,0,33.57-11.59,33.57-25.88C337.33,134.97,322.3,123.39,303.77,123.39z"/>
		<path class="st20" d="M305.11,122.05c-18.54,0-33.57,11.59-33.57,25.88c0,7.39,4.02,14.05,10.46,18.76l-3.42,10.33l12.28-5.66
			c4.32,1.56,9.15,2.44,14.24,2.44c18.54,0,33.57-11.59,33.57-25.88C338.67,133.63,323.65,122.05,305.11,122.05z"/>
		<path class="st17" d="M305.11,142.43c2.94,0,5.33,2.39,5.33,5.33c0,2.94-2.39,5.33-5.33,5.33c-2.94,0-5.33-2.39-5.33-5.33
			C299.78,144.82,302.16,142.43,305.11,142.43z M288.29,142.43c-2.94,0-5.33,2.39-5.33,5.33c0,2.94,2.39,5.33,5.33,5.33
			c2.94,0,5.33-2.39,5.33-5.33C293.62,144.82,291.23,142.43,288.29,142.43z M316.6,147.76c0,2.94,2.39,5.33,5.33,5.33
			c2.94,0,5.33-2.39,5.33-5.33c0-2.94-2.39-5.33-5.33-5.33C318.99,142.43,316.6,144.82,316.6,147.76z"/>
	</g>
	<path class="st5" d="M466.38,195.35l-4.72-5.03c0,0-7.92-4.14-8.99-3.23c-1.07,0.91,1.07,3.23,1.07,3.23h-11.43l19.35,10.98
		L466.38,195.35z"/>
	<path class="st10" d="M532.32,180.54l-8.42,15.85l-20.6,15.08l-36.26-17.59l-9.13,12.55c0,0,40.3,26.34,46.41,25.94
		c6.11-0.4,16.85-8.57,16.85-8.57l1.07,68.95l18.35-1.21l-2.5-83.13c0,0,7.21-10.55,7.13-14.69
		C545.15,189.58,532.32,180.54,532.32,180.54z"/>
	<g>
		<path class="st14" d="M62.92,125.17v64.54c13.2-4.77,22.64-17.42,22.64-32.27C85.56,142.59,76.12,129.95,62.92,125.17z"/>
		
			<ellipse transform="matrix(0.9205 -0.3908 0.3908 0.9205 -55.291 32.8558)" class="st18" cx="53.08" cy="152.28" rx="34.31" ry="34.31"/>
		<polygon class="st17" points="53.08,132.2 58.98,144.16 72.17,146.07 62.63,155.38 64.88,168.52 53.08,162.31 41.28,168.52 
			43.54,155.38 33.99,146.07 47.18,144.16 		"/>
	</g>
	<g>
		<g>
			<path class="st13" d="M478.67,72.31c0-0.63,0.51-1.15,1.15-1.15h10.32c0.64,0,1.15,0.51,1.15,1.15v9.17h9.17
				c0.63,0,1.15,0.51,1.15,1.15v9.17h9.17c0.64,0,1.15,0.51,1.15,1.15v10.32c0,0.64-0.51,1.15-1.15,1.15
				c-0.63,0-1.15-0.51-1.15-1.15V94.1h-9.17c-0.64,0-1.15-0.51-1.15-1.15v-9.17h-9.17c-0.63,0-1.15-0.51-1.15-1.15v-9.17h-9.17
				C479.18,73.46,478.67,72.95,478.67,72.31z"/>
		</g>
		<path class="st13" d="M103.81,71.37c1.99,0,3.86,0.77,5.26,2.18c0.45,0.45,0.45,1.18,0,1.62c-0.45,0.45-1.18,0.45-1.62,0
			c-1.94-1.94-5.33-1.95-7.28,0c-2.81,2.81-7.72,2.81-10.53,0c-2.01-2.01-5.27-2-7.28,0c-2.81,2.81-7.71,2.81-10.53,0
			c-0.45-0.45-0.45-1.18,0-1.62c0.45-0.45,1.18-0.45,1.62,0c1.94,1.94,5.34,1.94,7.28,0c2.9-2.9,7.62-2.9,10.53,0
			c1.94,1.94,5.34,1.94,7.28,0C99.95,72.15,101.82,71.37,103.81,71.37z M98.54,61.89c-1.94,1.94-5.34,1.94-7.28,0
			c-2.9-2.9-7.63-2.9-10.53,0c-1.94,1.94-5.34,1.94-7.28,0c-0.45-0.45-1.18-0.45-1.62,0c-0.45,0.45-0.45,1.18,0,1.62
			c2.81,2.81,7.72,2.81,10.53,0c2.01-2.01,5.27-2.01,7.28,0c2.81,2.81,7.72,2.81,10.53,0c1.94-1.95,5.33-1.94,7.28,0
			c0.45,0.45,1.18,0.45,1.62,0c0.45-0.45,0.45-1.18,0-1.62c-1.41-1.41-3.27-2.18-5.26-2.18C101.82,59.71,99.95,60.49,98.54,61.89z"
			/>
		<g>
			<path class="st13" d="M323.93,58.71c0.3,0,0.6,0.12,0.81,0.34l8.64,8.64c0.45,0.45,0.45,1.18,0,1.62l-8.64,8.64
				c-0.45,0.45-1.18,0.45-1.62,0l-8.64-8.64c-0.45-0.45-0.45-1.18,0-1.62l8.64-8.64C323.33,58.84,323.63,58.71,323.93,58.71z
				 M330.94,68.5l-7.01-7.01l-7.01,7.01l7.01,7.01L330.94,68.5z"/>
		</g>
		<g>
			<path class="st13" d="M142.82,377.69h12.21c0.63,0,1.15,0.51,1.15,1.15v12.21c0,0.64-0.51,1.15-1.15,1.15h-12.21
				c-0.63,0-1.15-0.51-1.15-1.15v-12.21C141.67,378.2,142.18,377.69,142.82,377.69z M153.88,379.99h-9.92v9.92h9.92V379.99z"/>
		</g>
		<g>
			<path class="st13" d="M183.79,61.24c4,0,7.25,3.25,7.25,7.25c0,4-3.25,7.26-7.25,7.26c-4,0-7.26-3.25-7.26-7.26
				C176.54,64.5,179.79,61.24,183.79,61.24z M183.79,73.46c2.73,0,4.96-2.22,4.96-4.96s-2.22-4.96-4.96-4.96
				c-2.73,0-4.96,2.22-4.96,4.96S181.06,73.46,183.79,73.46z"/>
		</g>
		<g>
			<path class="st13" d="M42.73,93.82c4,0,7.26,3.25,7.26,7.26c0,4-3.25,7.25-7.26,7.25c-4,0-7.25-3.25-7.25-7.25
				C35.47,97.07,38.73,93.82,42.73,93.82z M42.73,106.03c2.73,0,4.96-2.22,4.96-4.96c0-2.73-2.22-4.96-4.96-4.96
				c-2.73,0-4.96,2.22-4.96,4.96C37.77,103.81,39.99,106.03,42.73,106.03z"/>
		</g>
		<g>
			<path class="st13" d="M33.68,286.02h12.96c0.41,0,0.79,0.22,0.99,0.57c0.21,0.36,0.21,0.79,0,1.15l-6.48,11.22
				c-0.41,0.71-1.58,0.71-1.99,0l-6.48-11.22c-0.21-0.36-0.21-0.79,0-1.15C32.89,286.24,33.27,286.02,33.68,286.02z M44.65,288.32
				h-8.98l4.49,7.77L44.65,288.32z"/>
		</g>
		<path class="st13" d="M548.56,349.02l3.18,3.18l3.18-3.18c0.45-0.45,1.18-0.45,1.62,0c0.22,0.22,0.34,0.52,0.34,0.81
			c0,0.29-0.11,0.59-0.34,0.81l-3.18,3.18l3.18,3.18c0.22,0.22,0.34,0.52,0.34,0.81c0,0.29-0.11,0.59-0.34,0.81
			c-0.45,0.45-1.18,0.45-1.62,0l-3.18-3.18l-3.18,3.18c-0.45,0.45-1.18,0.45-1.62,0c-0.45-0.45-0.45-1.18,0-1.62l3.18-3.18
			l-3.18-3.18c-0.45-0.45-0.45-1.18,0-1.62C547.39,348.57,548.11,348.57,548.56,349.02z M546.94,332.73c-0.45,0.45-0.45,1.17,0,1.62
			l3.18,3.18l-3.18,3.18c-0.45,0.45-0.45,1.18,0,1.62c0.45,0.45,1.18,0.45,1.62,0l3.18-3.18l3.18,3.18c0.45,0.45,1.18,0.45,1.62,0
			c0.22-0.22,0.34-0.52,0.34-0.81c0-0.29-0.11-0.59-0.34-0.81l-3.18-3.18l3.18-3.18c0.22-0.22,0.34-0.52,0.34-0.81
			c0-0.29-0.11-0.59-0.34-0.81c-0.45-0.45-1.18-0.45-1.62,0l-3.18,3.18l-3.18-3.18C548.11,332.28,547.39,332.28,546.94,332.73z
			 M551.75,319.61l-3.18-3.18c-0.45-0.45-1.18-0.45-1.62,0c-0.45,0.45-0.45,1.18,0,1.62l3.18,3.18l-3.18,3.18
			c-0.45,0.45-0.45,1.18,0,1.62c0.45,0.45,1.18,0.45,1.62,0l3.18-3.18l3.18,3.18c0.45,0.45,1.18,0.45,1.62,0
			c0.22-0.22,0.34-0.52,0.34-0.81c0-0.29-0.11-0.59-0.34-0.81l-3.18-3.18l3.18-3.18c0.22-0.22,0.34-0.52,0.34-0.81
			c0-0.29-0.11-0.59-0.34-0.81c-0.45-0.45-1.18-0.45-1.62,0L551.75,319.61z"/>
		<path class="st13" d="M364.25,390.09h4.37v4.37c0,0.63,0.51,1.15,1.15,1.15c0.63,0,1.15-0.51,1.15-1.15v-4.37h4.37
			c0.63,0,1.15-0.51,1.15-1.15c0-0.63-0.51-1.15-1.15-1.15h-4.37v-4.37c0-0.63-0.51-1.15-1.15-1.15c-0.63,0-1.15,0.51-1.15,1.15
			v4.37h-4.37c-0.63,0-1.15,0.51-1.15,1.15C363.1,389.58,363.62,390.09,364.25,390.09z"/>
	</g>
	<g>
		<path class="st4" d="M598.24,408.91H18.15c-0.66,0-1.2-0.54-1.2-1.2c0-0.66,0.54-1.2,1.2-1.2h580.1c0.66,0,1.2,0.54,1.2,1.2
			C599.45,408.37,598.91,408.91,598.24,408.91z"/>
	</g>
	<g>
		<polygon class="st14" points="263.82,121.01 263.82,103.13 244.36,103.13 244.36,121.01 237.74,121.01 254.09,137.36 
			270.44,121.01 		"/>
		<polygon class="st20" points="264.67,120.16 264.67,102.28 245.21,102.28 245.21,120.16 238.59,120.16 254.94,136.51 
			271.29,120.16 		"/>
	</g>
	<g>
	</g>
	<g>
	</g>
	<g>
	</g>
	<g>
	</g>
	<g>
	</g>
</g>
</svg>
