<?xml version="1.0" encoding="utf-8"?>
<!-- Generator: Adobe Illustrator 25.3.1, SVG Export Plug-In . SVG Version: 6.00 Build 0)  -->
<svg version="1.1" xmlns="http://www.w3.org/2000/svg" xmlns:xlink="http://www.w3.org/1999/xlink" x="0px" y="0px"
	 viewBox="0 0 750 500" style="enable-background:new 0 0 750 500;" xml:space="preserve">
<style type="text/css">
	.st0{fill:#F0EFFF;}
	.st1{fill:none;stroke:#D3C6FC;stroke-width:1.0481;stroke-miterlimit:10;}
	.st2{fill:#8F9AF8;}
	.st3{fill:#B8C3FF;}
	.st4{fill:#FFFFFF;}
	.st5{fill:#FFFFFF;stroke:#BBABF8;stroke-width:1.0481;stroke-miterlimit:10;}
	.st6{fill:#DAE0FF;}
	.st7{fill:#FAAF3B;}
	.st8{fill:#E8ECFF;}
	.st9{fill:#BBABF8;}
	.st10{fill:#E6DFFC;}
	.st11{fill:#FF7AA9;}
	.st12{fill:#FDFDFE;}
	.st13{clip-path:url(#SVGID_2_);}
	.st14{fill:#452828;}
	.st15{fill:#915046;}
	.st16{fill:#994F39;}
	.st17{fill:#AB6955;}
	.st18{fill:#B57A68;}
	.st19{fill:none;stroke:#A15545;stroke-width:1.8647;stroke-linecap:round;stroke-linejoin:round;stroke-miterlimit:10;}
	.st20{fill:#383757;}
	.st21{fill:none;stroke:#474463;stroke-width:1.8647;stroke-linecap:round;stroke-miterlimit:10;}
	.st22{fill:#474463;}
	.st23{fill:#615F7F;}
	.st24{fill:none;stroke:#383757;stroke-width:1.8647;stroke-miterlimit:10;}
	.st25{fill:none;stroke:#383757;stroke-width:1.8647;stroke-linecap:round;stroke-miterlimit:10;}
	.st26{fill:none;stroke:#915046;stroke-width:1.2164;stroke-linecap:round;stroke-miterlimit:10;}
	.st27{fill:#FF7A7A;}
	.st28{fill:none;stroke:#452828;stroke-width:1.8231;stroke-linecap:round;stroke-miterlimit:10;}
</style>
<g id="BACKGROUND">
	<g>
		<circle class="st0" cx="511.6" cy="164" r="62"/>
		<path class="st0" d="M614.1,439.4c13.1-10.1,24.7-21.8,33.4-35.9c17.6-28.6,19.6-69-2.9-93.9c-25-27.7-68-26.9-105.1-23.2
			c-37.1,3.7-79.4,6.6-106.7-18.8c-22.3-20.7-27-53.8-29.3-84.1s-4.2-63-23.1-86.8C354.7,64.5,303.5,60.6,269,82.7
			c-34.5,22.1-52.5,64.4-52.9,105.3c-0.2,17.5,0.9,38.6-13.6,48.5c-11.5,7.9-27.4,4-39.8-2.4c-12.4-6.4-24.1-15.3-37.9-17.2
			c-18.4-2.5-36.8,8.7-47,24.2c-10.2,15.5-13.5,34.6-14.1,53.2c-1.6,52.8,18.5,105.4,53.2,145H614.1z"/>
	</g>
</g>
<g id="OBJECTS">
	<g>
		<g>
			<line class="st1" x1="67.5" y1="438.7" x2="650.1" y2="438.7"/>
			<path class="st2" d="M511.7,432.6H341c-6.3,0-11.4,5.1-11.4,11.4h182.1V432.6z"/>
			<path class="st3" d="M567.1,356.1H448.9c-3.3,0-6.2,2-7.5,5l-32.6,76.3c-1.3,3.1,1,6.6,4.4,6.6h122c3.3,0,6.2-2,7.5-5l31.1-72.8
				C575.8,361.4,572.3,356.1,567.1,356.1z"/>
			<path class="st4" d="M505.9,401.7c-1.8,7.3-9.2,13.3-16.5,13.3c-7.3,0-11.8-5.9-10-13.3c1.8-7.3,9.2-13.3,16.5-13.3
				S507.7,394.4,505.9,401.7z"/>
		</g>
		<line class="st1" x1="329.3" y1="449.8" x2="536.6" y2="449.8"/>
		<line class="st1" x1="417.8" y1="455.7" x2="527.8" y2="455.7"/>
	</g>
	<g>
		<g>
			<path class="st5" d="M612.8,170.7H342.3c-12.2,0-22.1,9.9-22.1,22.1v115.1c0,12.2,9.9,22.1,22.1,22.1h104.1l18.6,18.6l18.6-18.6
				h129.2c12.2,0,22.1-9.9,22.1-22.1V192.8C634.9,180.6,625,170.7,612.8,170.7z"/>
			<g>
				<g>
					
						<ellipse transform="matrix(0.9216 -0.3881 0.3881 0.9216 -55.1551 160.9108)" class="st6" cx="370.7" cy="217" rx="23.1" ry="23.1"/>
					<polygon class="st7" points="418.9,196 423.2,208.7 436.6,208.6 425.8,216.6 430,229.3 419.1,221.5 408.3,229.5 412.4,216.7 
						401.5,208.9 414.9,208.8 					"/>
					<polygon class="st7" points="461.6,196 465.9,208.7 479.3,208.6 468.5,216.6 472.8,229.3 461.8,221.5 451.1,229.5 455.1,216.7 
						444.2,208.9 457.6,208.8 					"/>
					<polygon class="st7" points="504.4,196 508.6,208.7 522,208.6 511.2,216.6 515.5,229.3 504.6,221.5 493.8,229.5 497.8,216.7 
						486.9,208.9 500.3,208.8 					"/>
					<polygon class="st8" points="547.1,196 551.3,208.7 564.7,208.6 554,216.6 558.2,229.3 547.3,221.5 536.5,229.5 540.5,216.7 
						529.6,208.9 543,208.8 					"/>
					<polygon class="st8" points="589.8,196 594.1,208.7 607.5,208.6 596.7,216.6 600.9,229.3 590,221.5 579.2,229.5 583.3,216.7 
						572.3,208.9 585.8,208.8 					"/>
				</g>
				<g>
					<g>
						<rect x="346.4" y="250.4" class="st9" width="20.4" height="5.5"/>
						<rect x="371.9" y="250.4" class="st9" width="30.6" height="5.5"/>
					</g>
					<g>
						<g>
							<rect x="346.4" y="266.6" class="st10" width="44" height="5.5"/>
							<rect x="408.4" y="266.6" class="st10" width="103" height="5.5"/>
							<rect x="529.4" y="266.6" class="st10" width="79.3" height="5.5"/>
						</g>
						<g>
							<rect x="346.4" y="284" class="st10" width="98.5" height="5.5"/>
							<rect x="559.5" y="284" class="st10" width="49.2" height="5.5"/>
							<rect x="461.6" y="284" class="st10" width="86.3" height="5.5"/>
						</g>
						<g>
							<rect x="346.4" y="301.4" class="st10" width="125.7" height="5.5"/>
						</g>
					</g>
				</g>
			</g>
		</g>
		<g>
			<path class="st5" d="M667.2,83.1H490.6c-8,0-14.4,6.5-14.4,14.4v35.3c0,8,6.5,14.4,14.4,14.4h176.6c8,0,14.4-6.5,14.4-14.4V97.6
				C681.6,89.6,675.2,83.1,667.2,83.1z"/>
			<polygon class="st7" points="544.1,104.3 546.8,112.6 555.6,112.6 548.6,117.8 551.3,126.1 544.2,121 537.2,126.2 539.8,117.8 
				532.7,112.7 541.4,112.7 			"/>
			<polygon class="st7" points="572,104.3 574.7,112.6 583.5,112.6 576.4,117.8 579.2,126.1 572.1,121 565,126.2 567.7,117.8 
				560.6,112.7 569.3,112.7 			"/>
			<polygon class="st7" points="599.8,104.3 602.6,112.6 611.4,112.6 604.3,117.8 607.1,126.1 600,121 592.9,126.2 595.6,117.8 
				588.4,112.7 597.2,112.7 			"/>
			<polygon class="st7" points="627.7,104.3 630.5,112.6 639.2,112.6 632.2,117.8 635,126.1 627.9,121 620.8,126.2 623.5,117.8 
				616.3,112.7 625.1,112.7 			"/>
			<polygon class="st8" points="655.6,104.3 658.4,112.6 667.1,112.6 660.1,117.8 662.9,126.1 655.7,121 648.7,126.2 651.3,117.8 
				644.2,112.7 653,112.7 			"/>
			<g>
				
					<ellipse transform="matrix(0.1595 -0.9872 0.9872 0.1595 316.0448 596.018)" class="st6" cx="508.1" cy="112.4" rx="12.9" ry="12.9"/>
				<g>
					<rect x="492.5" y="127.9" class="st9" width="11.4" height="3"/>
					<rect x="506.7" y="127.9" class="st9" width="17.1" height="3"/>
				</g>
			</g>
		</g>
		<g>
			<path class="st5" d="M213.3,141.9H92c-5.5,0-9.9,4.4-9.9,9.9v24.3c0,5.5,4.4,9.9,9.9,9.9h121.2c5.5,0,9.9-4.4,9.9-9.9v-24.3
				C223.2,146.3,218.8,141.9,213.3,141.9z"/>
			<polygon class="st7" points="128.8,156.4 130.7,162.1 136.7,162.1 131.8,165.7 133.7,171.4 128.8,167.9 124,171.4 125.8,165.7 
				120.9,162.2 126.9,162.2 			"/>
			<polygon class="st7" points="147.9,156.4 149.8,162.1 155.8,162.1 151,165.7 152.9,171.4 148,167.9 143.2,171.4 145,165.7 
				140.1,162.2 146.1,162.2 			"/>
			<polygon class="st7" points="167,156.4 168.9,162.1 175,162.1 170.1,165.7 172,171.4 167.1,167.9 162.3,171.4 164.1,165.7 
				159.2,162.2 165.2,162.2 			"/>
			<polygon class="st7" points="186.2,156.4 188.1,162.1 194.1,162.1 189.3,165.7 191.2,171.4 186.3,167.9 181.4,171.4 183.3,165.7 
				178.4,162.2 184.4,162.2 			"/>
			<polygon class="st8" points="205.3,156.4 207.2,162.1 213.3,162.1 208.4,165.7 210.3,171.4 205.4,167.9 200.6,171.4 202.4,165.7 
				197.5,162.2 203.5,162.2 			"/>
			<g>
				
					<ellipse transform="matrix(0.1621 -0.9868 0.9868 0.1621 -72.6777 238.3784)" class="st6" cx="104" cy="162" rx="8.8" ry="8.8"/>
				<g>
					<rect x="93.4" y="172.7" class="st9" width="7.8" height="2.1"/>
					<rect x="103.1" y="172.7" class="st9" width="11.7" height="2.1"/>
				</g>
			</g>
		</g>
	</g>
	<g>
		<g>
			<circle class="st11" cx="623.1" cy="376.9" r="26.9"/>
			<path class="st4" d="M631.2,366.7c-4.5,0-8.1,3.6-8.1,8.1c0-4.5-3.6-8.1-8.1-8.1c-4.5,0-8.1,3.6-8.1,8.1
				c0,10.1,16.2,18.6,16.2,18.6s16.2-8.5,16.2-18.6C639.3,370.4,635.7,366.7,631.2,366.7z"/>
		</g>
		<g>
			
				<ellipse transform="matrix(0.1615 -0.9869 0.9869 0.1615 -165.3593 342.3134)" class="st11" cx="118.8" cy="268.5" rx="26.9" ry="26.9"/>
			<path class="st4" d="M126.8,258.3c-4.5,0-8.1,3.6-8.1,8.1c0-4.5-3.6-8.1-8.1-8.1s-8.1,3.6-8.1,8.1c0,10.1,16.2,18.6,16.2,18.6
				s16.2-8.5,16.2-18.6C134.9,261.9,131.3,258.3,126.8,258.3z"/>
		</g>
		<g>
			<polygon class="st9" points="265.7,79.2 272.2,99.4 293.3,99.4 276.2,111.8 282.8,131.9 265.7,119.5 248.6,131.9 255.1,111.8 
				238,99.4 259.1,99.4 			"/>
			<polygon class="st9" points="297.9,127.4 302.9,142.8 319.1,142.8 306,152.3 311,167.6 297.9,158.2 284.9,167.6 289.9,152.3 
				276.8,142.8 292.9,142.8 			"/>
			<polygon class="st9" points="276.8,174 279.7,183 289.1,183 281.5,188.5 284.4,197.4 276.8,191.9 269.2,197.4 272.1,188.5 
				264.5,183 273.9,183 			"/>
		</g>
		<g>
			
				<ellipse transform="matrix(0.7071 -0.7071 0.7071 0.7071 10.4862 535.5076)" class="st9" cx="651.7" cy="255.1" rx="34.8" ry="34.8"/>
			<polygon class="st4" points="634,238 634,250 658.4,255.6 634,261.2 634,273.3 679.2,255.6 			"/>
		</g>
		<g>
			<path class="st9" d="M445.7,95.1c0,28.1-22.8,51-50.7,50.9c-28.3-0.1-48-21.7-50.7-44.6c-1.8-15.1,2.3-28.6,12.3-40
				c10-11.5,23-17.4,38.3-17.4C422.7,44.1,445.9,66.5,445.7,95.1z"/>
			<g>
				<path class="st12" d="M402,114.2c-4.5,0-9,0-13.5,0c-1.6,0-2.2-0.5-2.2-2.1c0.1-7-0.3-14,0.2-21c0.3-4.5,2.1-8.5,4.9-12.1
					c1.9-2.4,3.8-4.8,6-6.9c0.7-0.7,1.1-1.5,1.1-2.5c0-1.2,0.1-2.4,0.1-3.6c0-1.5,0.5-2.7,1.9-3.3c1.5-0.6,2.9-0.3,4.1,0.8
					c1.2,1.1,1.6,2.5,2,4c0.9,3.8,0.2,7.4-1.3,10.8c-0.5,1.2-1,2.4-1.6,3.5c-0.4,0.7-0.1,1,0.6,1.1c0.3,0.1,0.7,0,1,0
					c4,0,8.1,0,12.1,0c2.2,0,3.7,1,4.2,2.9c0.6,2.1-0.3,4.5-2,5.5c-0.8,0.4-0.8,0.6-0.1,1.1c1.5,1,2.5,2.3,2.2,4.3
					c-0.2,1.5-1,2.5-2.4,3c-0.3,0.1-0.7,0.1-0.8,0.4c-0.1,0.4,0.4,0.4,0.6,0.6c1.9,1.4,2.2,5.3-0.6,6.5c-0.5,0.2-0.8,0.4-0.2,0.9
					c1.2,1.2,1.3,2.7,0.7,4.2c-0.6,1.4-1.8,1.9-3.3,1.9C411,114.1,406.5,114.1,402,114.2C402,114.1,402,114.1,402,114.2z"/>
				<path class="st12" d="M380.9,118.2c-3.7,0-7.4,0-11.1,0c-1.1,0-1.6-0.6-1.7-1.6c-0.1-0.5,0-1.1,0-1.6c0-7.8,0-15.6,0-23.3
					c0-1.9,0.5-2.4,2.4-2.4c3.3,0,6.7,0,10,0c1.3,0,2,0.6,2,1.9c0,8.2,0,16.3,0,24.5c0,0,0,0.1,0,0.1c-0.2,0.1-0.2,0.1,0,0.2
					c0.1,0.9,0,1.7-1,2.1c0-0.2-0.1-0.5-0.4-0.4C380.6,117.7,380.9,118,380.9,118.2z"/>
			</g>
		</g>
	</g>
	<g>
		<defs>
			<rect id="SVGID_1_" x="67.1" y="206.8" width="359.5" height="232.7"/>
		</defs>
		<clipPath id="SVGID_2_">
			<use xlink:href="#SVGID_1_"  style="overflow:visible;"/>
		</clipPath>
		<g class="st13">
			<path class="st14" d="M262.5,243c1.4,7.2,1,14.5,1.6,21.8c0.5,7.3,2.2,14.8,7,20.3c4.1,4.7,10.1,7.6,13,13.1
				c2.2,4.2,2.2,9.3,0.5,13.7c-1.6,4.4-4.7,8.2-8.4,11.2c-12.4,10.4-31,12-45.7,5.3c-14.7-6.8-25.3-21.2-28.7-37
				c-3.5-15.8-0.2-32.7,7.6-46.9c4.4-8,10.5-15.4,18.6-19.6c6.8-3.4,16.9-4.7,23.7-0.6C257.6,227.8,261.3,236.7,262.5,243z"/>
			<g>
				<g>
					<g>
						<path class="st15" d="M379.6,405.5c0,0-2.6,5.7-9.4,2.3l-4.4,8.3l11,5.8l8-15l-3.1-14.8c0,0-3,1.2-2.9,4.4
							C378.8,399.6,379.6,405.5,379.6,405.5z"/>
						<path class="st16" d="M389.6,425c0.1-3.5-1.8-6.7-4.9-8.3l-11.5-6.1l-2.4,4.5L389.6,425z"/>
						<path class="st17" d="M392.8,430.1c0.1-3.5-1.8-6.7-4.9-8.3l-13.2-7l-2.4,4.5L392.8,430.1z"/>
						<polygon class="st7" points="377.4,378 381.2,389.4 393.3,389.4 383.6,396.5 387.4,408 377.6,401 367.8,408.2 371.5,396.6 
							361.6,389.6 373.7,389.5 						"/>
						<path class="st18" d="M370,407.7l0.6-4l4.6-3.7c1.4-1.1,2.2-2.8,2.2-4.6l0-0.5l-14.2,5.1l-6.2,7.3l-4,7.5l21.4,11.3l1.5-2.7
							c2.9-5.4,0.8-12.2-4.6-15L370,407.7z"/>
						<path class="st18" d="M389.6,434.2c0.1-3.5-1.8-6.7-4.9-8.3l-13.2-7l-2.4,4.5L389.6,434.2z"/>
						<path class="st19" d="M369.8,407.3c-1.3,2.1-3.1,3.9-5,5.4"/>
					</g>
					<polygon class="st18" points="293.2,407.2 358.4,408.3 358.2,417.2 280.6,429.1 					"/>
				</g>
				<path class="st20" d="M232.8,323.5H252c9,0,17.1,5.7,20,14.3l27.8,81.3c0,0-1.9,15-13.7,16.4c-4.4,0.5-8.7-1.9-10.7-5.8
					l-42.5-80.6V323.5z"/>
				<g>
					<path class="st20" d="M281.3,405.9l62.9,2.1l-20.7,26.2l-39.8,2.4c-5.3,0.3-9.3-4.6-8-9.7l2.6-9.9L281.3,405.9z"/>
					<path class="st21" d="M293.2,407.2c-5.1,3.1-10.9,7.9-13.6,13.3"/>
					<path class="st21" d="M293.2,407.2c-6.7,0.3-14.9,1.2-19.8,5.7"/>
				</g>
			</g>
			<g>
				<path class="st4" d="M247.1,500c-10.2,1-20.9,0.8-31.2-0.2c-16.4-1.6-30.8-9.3-44.9-17.1c-2-1.1-4.1-2.3-6.1-3.5
					c7.4-11.8,16.9-23.9,27.8-31.6H247l17.6,48.2C259.2,498.2,252.8,499.4,247.1,500z"/>
				<path class="st22" d="M184.1,445l-15.8-108.8l7.9-12.8h72.3l19.9,53.5c0,0-16.6,51.5-16.6,70.6l18.3,53.1l-21.6,8.3l-16.6-51
					l-18.3,50.7l-56.9-23.7L184.1,445z"/>
				<polygon class="st20" points="168.3,336.2 176.3,323.2 186.7,323.2 189.7,349.1 179.7,415.1 				"/>
				<polygon class="st4" points="245.2,323.7 245.2,384.9 193.9,323.7 				"/>
				<path class="st18" d="M213.7,338.4c-3.6-0.9-7.1-2.1-10.5-3.6l-9.8-11.7h51.7v9C237.9,340.7,224.2,340.9,213.7,338.4z"/>
				<polygon class="st23" points="193.4,323.2 193.4,361.4 215.4,361.4 203.2,387.1 246.7,386.8 				"/>
				<polygon class="st23" points="245.2,323.2 248.5,323.2 274.1,361.4 253.9,361.4 275.7,387.1 246.7,387.1 245.5,387.1 				"/>
				<path class="st24" d="M245.4,387.1c-4.9,23.3-8.6,47-13.5,70.3"/>
				<path class="st24" d="M256.2,462.2c-4.2,1.4-8.7,2.1-13.2,2"/>
				<path class="st24" d="M208.4,463.7c-8.1-0.4-16.1-2.5-23.4-6.1"/>
			</g>
			<path class="st22" d="M189.7,323.1h-19.1c-9,0-17.1,5.7-20,14.3l-27.8,81.3c0,0,0.3,6,3.1,11.2c4.4,8.2,15.4,10.3,19.8,2.1
				l44-83.2V323.1z"/>
			<g>
				<path class="st15" d="M216.3,410.5l5.3,4.5l12.6,2.9l-0.1-0.5c-0.2-1.8-1.3-3.3-2.8-4.3l-3.2-2.5l0.9-3.5l5.3-4.4l-6.4-5.5
					l-13.7,9L216.3,410.5z"/>
				<polygon class="st7" points="228.6,401.6 237.3,409.9 248,404.2 242.7,415.1 251.5,423.4 239.5,421.8 234.3,432.7 232.1,420.8 
					220.1,419.2 230.7,413.5 				"/>
				<path class="st15" d="M236.5,406c0,0-2.7-4.2-7.6-0.8l-4.4-6.1l8.9-6.2l7.9,11l-1.8,10.1c0,0-2.5-0.6-2.8-3.1
					C236.5,408.4,236.5,406,236.5,406z"/>
				<path class="st18" d="M216.9,411.5l-5.2-7l19.4-15l1.8,2.5c3.6,5,3.4,9.5,0.3,11.9l-4.2,3.3L216.9,411.5z"/>
				<path class="st18" d="M245.4,395.9c0.6-0.1,1,0.4,0.8,1c-0.9,2.1-2.8,3.8-5.1,4.4l-11.8,2.9l-1-4L245.4,395.9z"/>
				<path class="st18" d="M243.8,379.2c0.6-0.4,1.4-0.1,1.4,0.7c0.1,2.9-1.1,5.7-3.5,7.6l-11.7,9.4l-3.2-4L243.8,379.2z"/>
				<path class="st18" d="M246.3,387.5c0.6-0.3,1.4,0.2,1.2,0.9c-0.5,2.8-2.3,5.3-5,6.6l-11.7,5.8l-2.3-4.6L246.3,387.5z"/>
			</g>
			<g>
				<path class="st22" d="M143.3,402.3l64.2-0.4l-20,27.9l-49.7,7.5c-6.4,1-11.9-4.7-10.7-11.1C128.9,415.9,133.2,403.1,143.3,402.3
					z"/>
				<line class="st25" x1="160.8" y1="402.2" x2="139.7" y2="402.7"/>
				<line class="st25" x1="160.8" y1="402.2" x2="138.8" y2="408"/>
			</g>
			<g>
				<path class="st18" d="M206,272l2.3,56.5c0.1,2.3,2,4.1,4.2,4.1h27.8c3.5,0,5.1-4.2,2.7-6.6c-5.3-5.2-10.7-14.2-10.7-29v-23.8
					L206,272z"/>
				<path class="st15" d="M218.9,272.5l13.4,0.6v23.8c0,6.5,1,11.9,2.7,16.3C219.5,308,214.4,287.4,218.9,272.5z"/>
			</g>
			<g>
				<g>
					<g>
						<path class="st18" d="M212.9,293.1c-1.9-1.3-3.7-2.8-5.5-4.5c-8.9-8.7-14.2-20.4-15.5-32.8c-1.2-11.5,1.1-23,10.7-30.6
							c10.2-8.1,26.2-8.8,37.7-3.2c11,5.4,17.1,15.7,19.3,27.4c1.1,5.8,1.4,11.8,1.5,17.7c0.1,11.1-1.6,32.4-14.3,35.1
							C233.1,305.1,223,299.9,212.9,293.1z"/>
					</g>
					<path class="st14" d="M255.6,244.6c3.7,5.2,4.7,11.8,5.7,18.1c2.3-8.1,2.3-16.8,0-24.9c-1.1-3.8-2.7-7.5-5.3-10.4
						c-2.6-2.9-6.4-5-10.3-4.9c-6.2,0.1-13.6,8.6-7.2,13.7c1.9,1.6,5.2,1.2,7.5,1.9C249.9,239,253.3,241.2,255.6,244.6z"/>
					<path class="st14" d="M240.9,249.2c-4.2,3.8-9.3,6.3-14.8,7.4c-5.6,1.2-12.4,0.9-16.7,5.4c-12.8,13.7-2,30.1,4.5,43.9
						c3.3,6.9,6.7,15,4.9,22.8c-2.3,10-12.1,14.8-21.7,14.8c-15.6,0.1-27.7-11.5-30.9-26.5c-1.6-7.7-0.5-15.4,2.5-22.7
						c2.8-6.7,7.2-12.5,9.4-19.4c3.5-11-1.5-22.7,2.1-33.9c7.1-22.3,41.4-44.2,62.3-26C254.7,225.6,250.8,240.2,240.9,249.2z"/>
					<path class="st14" d="M210.3,254.1c-2.8,2.7-4.6,6.4-5,10.3c-0.5,4.4,0.7,8.8,2.9,12.7l2.9-0.5c0.3-5,1.6-10,3.1-14.7
						c0.7-2.2,1.6-4.3,2.6-6.4C215.9,251.6,212.8,251.7,210.3,254.1z"/>
				</g>
				<g>
					<path class="st26" d="M248.1,265.3c0.8,3.7,2.3,7.3,4.4,10.4c0.7,1.1,1.6,2.4,1.3,3.7c-0.3,1.2-1.5,2-2.6,2.6"/>
					<g>
						
							<ellipse transform="matrix(0.9379 -0.3469 0.3469 0.9379 -84.8893 103.5984)" class="st27" cx="246.9" cy="288.9" rx="3.2" ry="3.2"/>
						<path class="st26" d="M251.7,287.1c-3.3,2-7.5,2.2-11,0.7"/>
					</g>
					<g>
						<path class="st28" d="M259.2,255.2c-2.8-1.6-5.8-1.2-8,1.1"/>
					</g>
					<g>
						<path class="st28" d="M237.1,258.1c-4-1.3-8.2-0.6-11.5,1.9"/>
					</g>
					<path class="st14" d="M236.3,266.8c0.3,1.5-0.8,3-2.3,3.3c-1.5,0.3-3-0.8-3.3-2.3c-0.3-1.5,0.8-3,2.3-3.3
						C234.6,264.3,236.1,265.3,236.3,266.8z"/>
					
						<ellipse transform="matrix(0.1626 -0.9867 0.9867 0.1626 -47.7485 473.4619)" class="st14" cx="255.1" cy="264.9" rx="2.8" ry="2.8"/>
				</g>
				<g>
					<path class="st18" d="M207.5,270.3c-1.9-1.6-4.7-2.5-7-1.6c-1.9,0.8-3.2,2.6-3.7,4.6c-0.5,2-0.1,4.1,0.5,6
						c2.2,6.1,8.3,10.6,14.7,10.9c1.3,0.1,0.6-10.7,0.4-11.7C211.9,275.5,209.9,272.3,207.5,270.3z"/>
					<path class="st4" d="M210.2,287.4c0.3,1.5-0.7,3-2.3,3.2c-1.5,0.3-3-0.7-3.2-2.3c-0.3-1.5,0.7-3,2.3-3.2
						C208.5,284.9,209.9,285.9,210.2,287.4z"/>
					<path class="st26" d="M200.9,273.1c1.1-0.9,2.8-1,4.1-0.5c1.3,0.6,2.3,1.7,3,3c0.6,1.3,0.9,2.8,1,4.2c-0.7-0.7-1.9-0.8-2.7-0.2
						c-0.8,0.6-1.1,1.7-0.7,2.6c0.4,0.9,1.5,1.4,2.5,1.1"/>
				</g>
			</g>
		</g>
	</g>
</g>
</svg>
