<svg xmlns="http://www.w3.org/2000/svg" xmlns:xlink="http://www.w3.org/1999/xlink" viewBox="0 0 579.35 566.73"><defs><style>.cls-1{isolation:isolate;}.cls-10,.cls-11,.cls-12,.cls-13,.cls-14,.cls-15,.cls-16,.cls-17,.cls-18,.cls-19,.cls-2,.cls-20,.cls-21,.cls-22,.cls-3,.cls-4,.cls-5,.cls-6,.cls-7,.cls-8,.cls-9{fill-rule:evenodd;}.cls-2{fill:url(#_ÂÁ_Ï_ÌÌ_È_ËÂÌÚ_274);}.cls-10,.cls-11,.cls-12,.cls-13,.cls-14,.cls-15,.cls-16,.cls-19,.cls-20,.cls-22,.cls-3,.cls-4,.cls-5,.cls-6,.cls-7,.cls-8,.cls-9{mix-blend-mode:multiply;}.cls-10,.cls-11,.cls-12,.cls-13,.cls-14,.cls-15,.cls-16,.cls-18,.cls-19,.cls-20,.cls-22,.cls-3,.cls-4,.cls-5,.cls-6,.cls-8,.cls-9{opacity:0.5;}.cls-3{fill:url(#_ÂÁ_Ï_ÌÌ_È_ËÂÌÚ_296);}.cls-4{fill:url(#_ÂÁ_Ï_ÌÌ_È_ËÂÌÚ_296-2);}.cls-5{fill:url(#_ÂÁ_Ï_ÌÌ_È_ËÂÌÚ_296-3);}.cls-6{fill:url(#_ÂÁ_Ï_ÌÌ_È_ËÂÌÚ_296-4);}.cls-7{opacity:0.2;fill:url(#_ÂÁ_Ï_ÌÌ_È_ËÂÌÚ_296-5);}.cls-8{fill:url(#_ÂÁ_Ï_ÌÌ_È_ËÂÌÚ_296-6);}.cls-9{fill:url(#_ÂÁ_Ï_ÌÌ_È_ËÂÌÚ_296-7);}.cls-10{fill:url(#_ÂÁ_Ï_ÌÌ_È_ËÂÌÚ_296-8);}.cls-11{fill:url(#_ÂÁ_Ï_ÌÌ_È_ËÂÌÚ_296-9);}.cls-12{fill:url(#_ÂÁ_Ï_ÌÌ_È_ËÂÌÚ_296-10);}.cls-13{fill:url(#_ÂÁ_Ï_ÌÌ_È_ËÂÌÚ_296-11);}.cls-14{fill:url(#_ÂÁ_Ï_ÌÌ_È_ËÂÌÚ_296-12);}.cls-15{fill:url(#_ÂÁ_Ï_ÌÌ_È_ËÂÌÚ_296-13);}.cls-16{fill:url(#_ÂÁ_Ï_ÌÌ_È_ËÂÌÚ_296-15);}.cls-17{fill:#93839c;mix-blend-mode:soft-light;}.cls-18{fill:#5955b1;}.cls-19{fill:url(#_ÂÁ_Ï_ÌÌ_È_ËÂÌÚ_296-16);}.cls-20{fill:url(#_ÂÁ_Ï_ÌÌ_È_ËÂÌÚ_296-17);}.cls-21{fill:#503e7f;}.cls-22{fill:url(#_ÂÁ_Ï_ÌÌ_È_ËÂÌÚ_296-18);}</style><linearGradient id="_ÂÁ_Ï_ÌÌ_È_ËÂÌÚ_274" x1="300" y1="574.36" x2="300" y2="7.64" gradientUnits="userSpaceOnUse"><stop offset="0" stop-color="#0f1659"/><stop offset="1" stop-color="#572c78"/></linearGradient><linearGradient id="_ÂÁ_Ï_ÌÌ_È_ËÂÌÚ_296" x1="171.63" y1="64.74" x2="579.35" y2="64.74" gradientUnits="userSpaceOnUse"><stop offset="0" stop-color="#745ebd"/><stop offset="1" stop-color="#542e77"/></linearGradient><linearGradient id="_ÂÁ_Ï_ÌÌ_È_ËÂÌÚ_296-2" x1="56.49" y1="164.82" x2="196.33" y2="164.82" xlink:href="#_ÂÁ_Ï_ÌÌ_È_ËÂÌÚ_296"/><linearGradient id="_ÂÁ_Ï_ÌÌ_È_ËÂÌÚ_296-3" x1="216.02" y1="508.93" x2="316.36" y2="508.93" xlink:href="#_ÂÁ_Ï_ÌÌ_È_ËÂÌÚ_296"/><linearGradient id="_ÂÁ_Ï_ÌÌ_È_ËÂÌÚ_296-4" x1="10.33" y1="240.78" x2="589.67" y2="240.78" xlink:href="#_ÂÁ_Ï_ÌÌ_È_ËÂÌÚ_296"/><linearGradient id="_ÂÁ_Ï_ÌÌ_È_ËÂÌÚ_296-5" x1="337.19" y1="91.77" x2="532.17" y2="91.77" xlink:href="#_ÂÁ_Ï_ÌÌ_È_ËÂÌÚ_296"/><linearGradient id="_ÂÁ_Ï_ÌÌ_È_ËÂÌÚ_296-6" x1="231.38" y1="260.67" x2="589.67" y2="260.67" xlink:href="#_ÂÁ_Ï_ÌÌ_È_ËÂÌÚ_296"/><linearGradient id="_ÂÁ_Ï_ÌÌ_È_ËÂÌÚ_296-7" x1="322.11" y1="343.48" x2="357.93" y2="343.48" xlink:href="#_ÂÁ_Ï_ÌÌ_È_ËÂÌÚ_296"/><linearGradient id="_ÂÁ_Ï_ÌÌ_È_ËÂÌÚ_296-8" x1="316.36" y1="417.79" x2="370.15" y2="417.79" xlink:href="#_ÂÁ_Ï_ÌÌ_È_ËÂÌÚ_296"/><linearGradient id="_ÂÁ_Ï_ÌÌ_È_ËÂÌÚ_296-9" x1="240.81" y1="508.93" x2="316.36" y2="508.93" xlink:href="#_ÂÁ_Ï_ÌÌ_È_ËÂÌÚ_296"/><linearGradient id="_ÂÁ_Ï_ÌÌ_È_ËÂÌÚ_296-10" x1="293.7" y1="80.1" x2="407.06" y2="80.1" xlink:href="#_ÂÁ_Ï_ÌÌ_È_ËÂÌÚ_296"/><linearGradient id="_ÂÁ_Ï_ÌÌ_È_ËÂÌÚ_296-11" x1="203.25" y1="176.21" x2="390.55" y2="176.21" xlink:href="#_ÂÁ_Ï_ÌÌ_È_ËÂÌÚ_296"/><linearGradient id="_ÂÁ_Ï_ÌÌ_È_ËÂÌÚ_296-12" x1="341.89" y1="261.38" x2="515.6" y2="261.38" xlink:href="#_ÂÁ_Ï_ÌÌ_È_ËÂÌÚ_296"/><linearGradient id="_ÂÁ_Ï_ÌÌ_È_ËÂÌÚ_296-13" x1="221.06" y1="309.87" x2="339.67" y2="309.87" xlink:href="#_ÂÁ_Ï_ÌÌ_È_ËÂÌÚ_296"/><linearGradient id="_ÂÁ_Ï_ÌÌ_È_ËÂÌÚ_296-15" x1="228.95" y1="360.71" x2="579.35" y2="360.71" xlink:href="#_ÂÁ_Ï_ÌÌ_È_ËÂÌÚ_296"/><linearGradient id="_ÂÁ_Ï_ÌÌ_È_ËÂÌÚ_296-16" x1="104.91" y1="196.7" x2="196.33" y2="196.7" xlink:href="#_ÂÁ_Ï_ÌÌ_È_ËÂÌÚ_296"/><linearGradient id="_ÂÁ_Ï_ÌÌ_È_ËÂÌÚ_296-17" x1="25.14" y1="68.39" x2="56.49" y2="68.39" xlink:href="#_ÂÁ_Ï_ÌÌ_È_ËÂÌÚ_296"/><linearGradient id="_ÂÁ_Ï_ÌÌ_È_ËÂÌÚ_296-18" x1="196.33" y1="195.04" x2="247.37" y2="195.04" xlink:href="#_ÂÁ_Ï_ÌÌ_È_ËÂÌÚ_296"/></defs><g class="cls-1"><g id="Layer_1" data-name="Layer 1"><path class="cls-2" d="M527.4,116.85,522,132.18l67.69,50.4V192S563,224.1,525.92,244.35l-16.81,4L459.2,297.25,472,305.64l-91.92,77.1,4.45,3.94-4.09,5.4-38.4,50.47-15.39,16.22-11.8,12.42L300,557.69l-48.86,16.67-22.07-12.08-9.31.6,6.58-11.15,4.6-7.8,8.84-82.11,8.39-7.92-33.6-109.71L231.38,319S190.85,279.46,185.9,271c-3.71-6.35-13.64-20.55-18.27-27.13h0c-1.51-2.17-2.46-3.5-2.46-3.5L198,219.15l17.55-11.36L206.65,190l-11.86,9.4-44.95,11.35-14.35,7.92-20.25-5.45-48.43-87L69.48,112l.77-4.09L66.81,90.16H51.48s-22.24-8-30.39-25.44L10.33,15.79S72.6,7.64,87.07,7.64s96.37,9.63,96.37,9.63L182,7.64s86.74,7.41,121.58,12.6S411.76,38,411.76,38s132.93-.24,177.91,12.1v5.93Z" transform="translate(-10.33 -7.64)"/><polygon class="cls-3" points="579.35 48.43 480.01 60.29 388.59 69.68 320.88 83.6 294.69 83.6 226.98 38.05 181.02 15.32 171.63 0 180.52 29.65 293.7 87.97 337.19 92.42 387.6 87.97 417.87 100.32 454.31 119.6 504.23 129.48 511.64 124.54 517.08 109.22 579.35 48.43"/><polygon class="cls-4" points="181.03 188.8 196.33 182.36 184.47 191.76 139.51 203.12 125.16 211.04 104.91 205.58 56.49 118.61 85.64 156.65 114.78 167.03 181.03 188.8"/><polygon class="cls-5" points="316.36 451.13 304.56 463.56 289.68 550.05 240.81 566.73 218.75 554.65 216.02 544.09 220.61 536.29 229.45 454.19 249.29 469.99 260.08 469.99 316.36 451.13"/><path class="cls-6" d="M589.67,192S563,224.1,525.92,244.35l-16.81,4L459.2,297.25l-37.57-7.18-69.41,7,24,4.66H433l39,3.94-91.92,77.1-17.79-1.48-19.75,15.33L310,408.45,356.4,403l24.08-10.91-38.4,50.47-15.39,16.22L308,461.82l-40.54,3.95L248.17,453.9l-33.6-109.71L225,354.06l70.42-8.89,46.2-20.76,26.69-18.77H350l-19.27,4.45-56.84,14.32-34.61,4.95L231.38,319S190.85,279.46,185.9,271c-3.71-6.35-13.64-20.55-18.27-27.13l30.13,6.88,9.9,5.18,51.89-3.7,98.84-26.07-58.39-7-52.81,3.47-41.51-3.47H198l17.55-11.36L206.65,190l-11.35-9.88-81-28.67L69.48,112l.77-4.09L66.81,90.16H51.48s-22.24-8-30.39-25.44L10.33,15.79l11.5,22.48,49.67,39,138.62,63.25,55.36,14.82,135.4,6.94,77.09,46h39.56Z" transform="translate(-10.33 -7.64)"/><polygon class="cls-7" points="517.08 109.22 462.72 97.85 428.12 83.6 441.46 69.68 503.24 64.74 532.16 54.07 428.12 65.62 388.59 69.68 337.19 92.42 387.6 87.97 449.37 118.61 504.23 129.48 511.64 124.54 517.08 109.22"/><path class="cls-8" d="M478,208.29,450.8,253.75l-65,31.51-38.3,3.09,10.88-62.15-95.61,25.22-4.72,58.18-13.34,13.83L231.38,319l7.89,10.37,34.61-4.95L350,305.64l2.23-8.6,69.41-7,37.57,7.18,49.91-48.93,16.81-4s44-27.15,63.75-52.37l-72.14,16.31Z" transform="translate(-10.33 -7.64)"/><polygon class="cls-9" points="357.94 298.01 352 373.62 332.26 388.95 322.11 340.26 331.25 316.78 357.94 298.01"/><polygon class="cls-10" points="346.07 395.36 316.36 451.13 335.28 430.28 370.15 384.44 346.07 395.36"/><polygon class="cls-11" points="260.08 469.99 240.81 566.73 289.68 550.05 304.56 463.56 316.36 451.13 260.08 469.99"/><polygon class="cls-12" points="387.6 87.97 407.06 67.79 388.59 69.68 320.88 83.6 294.69 83.6 293.7 87.97 337.19 92.42 387.6 87.97"/><polygon class="cls-13" points="390.55 154.7 348.06 218.57 289.68 211.51 278.62 156.84 252.62 154.7 203.25 133.86 255.16 147.76 390.55 154.7"/><polygon class="cls-14" points="440.48 246.12 492.67 233.14 515.6 236.72 498.78 240.69 448.88 289.62 411.31 282.44 341.89 289.41 375.49 277.62 440.48 246.12"/><polygon class="cls-15" points="247.74 301.96 310.14 298.01 339.67 298.01 266.77 315.98 228.95 321.73 221.06 311.35 234.39 315.8 247.74 301.96"/><polygon class="cls-10" points="346.07 395.36 316.36 451.13 370.15 384.44 346.07 395.36"/><polygon class="cls-16" points="240.81 566.73 260.08 469.99 281.47 455.76 299.64 400.81 285.05 337.53 331.25 316.78 357.94 298.01 339.67 298.01 228.95 321.73 247.74 301.96 252.45 243.78 348.06 218.57 289.68 211.51 278.62 156.84 390.55 154.7 467.65 200.66 507.2 200.66 579.35 184.35 515.6 236.72 498.78 240.69 448.88 289.62 411.31 282.44 370.15 286.57 395.32 294.06 461.72 298.01 369.8 375.1 352 373.62 328.4 389.95 316.36 398.85 346.07 395.36 370.15 384.44 316.36 451.13 304.56 463.56 289.68 550.05 240.81 566.73"/><polygon class="cls-17" points="159.71 247.16 252.45 261.38 343.26 253.04 407.06 226.23 456.94 218.57 555.74 207.72 537.48 222.91 477.19 233.14 443.54 241 419.66 241 341.12 258.87 249.23 283.5 196.33 286.61 159.71 247.16"/><polygon class="cls-17" points="207.58 298.01 248.27 295.36 338.35 270.2 408.99 261.38 492.18 247.16 484.93 253.04 415.24 261.38 404.15 263.73 337.19 275.18 247.74 301.96 225.24 301.96 214.42 304.81 207.58 298.01"/><polygon class="cls-17" points="216.02 375 285.81 380 331.16 368.94 357.94 340.11 411.52 340.11 387.74 360.05 356.05 357.32 330.89 376.96 296.9 388.94 220.29 388.94 216.02 375"/><polygon class="cls-17" points="233.63 432.52 284.41 446.87 322.11 440.33 331.44 436.49 325.6 441.39 320.03 444.37 282.54 451.13 235.03 437.08 233.63 432.52"/><polygon class="cls-18" points="171.63 0 181.02 15.32 226.98 38.05 294.69 83.6 320.88 83.6 390.55 69.48 407.06 67.79 401.44 30.39 237.51 6.14 171.63 0"/><polygon class="cls-19" points="181.03 188.8 124.02 197.47 104.91 205.58 125.16 211.04 139.51 203.12 184.47 191.76 196.33 182.36 181.03 188.8"/><polygon class="cls-20" points="56.49 82.52 56.49 67.79 41.55 54.26 38.43 77.72 25.14 73.66 41.16 82.52 56.49 82.52"/><polygon class="cls-21" points="91.68 83.6 196.33 115.06 260.92 123.91 304.3 150.28 255.16 147.76 196.33 133.86 91.68 83.6"/><polygon class="cls-22" points="205.22 200.15 247.37 207.72 196.33 182.36 205.22 200.15"/></g></g></svg>