<?xml version="1.0" encoding="utf-8"?>
<!-- Generator: Adobe Illustrator 25.4.1, SVG Export Plug-In . SVG Version: 6.00 Build 0)  -->
<svg version="1.1" id="Layer_1" xmlns="http://www.w3.org/2000/svg" xmlns:xlink="http://www.w3.org/1999/xlink" x="0px" y="0px"
	 viewBox="0 0 579.3 566.7" style="enable-background:new 0 0 579.3 566.7;" xml:space="preserve">
<style type="text/css">
	.st0{fill-rule:evenodd;clip-rule:evenodd;fill:url(#SVGID_1_);}
	
		.st1{opacity:0.5;fill-rule:evenodd;clip-rule:evenodd;fill:url(#SVGID_00000109749721800206240690000000462209828609230482_);enable-background:new    ;}
	
		.st2{opacity:0.5;fill-rule:evenodd;clip-rule:evenodd;fill:url(#SVGID_00000005975827529140170060000006676412274853735065_);enable-background:new    ;}
	
		.st3{opacity:0.5;fill-rule:evenodd;clip-rule:evenodd;fill:url(#SVGID_00000024001285924491506690000012982050898442278551_);enable-background:new    ;}
	
		.st4{opacity:0.5;fill-rule:evenodd;clip-rule:evenodd;fill:url(#SVGID_00000116935607852911253630000001803337467847193990_);enable-background:new    ;}
	
		.st5{opacity:0.2;fill-rule:evenodd;clip-rule:evenodd;fill:url(#SVGID_00000052086550464850221860000001366074884443417242_);enable-background:new    ;}
	
		.st6{opacity:0.5;fill-rule:evenodd;clip-rule:evenodd;fill:url(#SVGID_00000175282379517067164290000007207238617575865752_);enable-background:new    ;}
	
		.st7{opacity:0.5;fill-rule:evenodd;clip-rule:evenodd;fill:url(#SVGID_00000039853442912361270970000001854538135607875478_);enable-background:new    ;}
	
		.st8{opacity:0.5;fill-rule:evenodd;clip-rule:evenodd;fill:url(#SVGID_00000160158306523789485130000011481569848410279068_);enable-background:new    ;}
	
		.st9{opacity:0.5;fill-rule:evenodd;clip-rule:evenodd;fill:url(#SVGID_00000148626542529878245820000008214374001775489468_);enable-background:new    ;}
	
		.st10{opacity:0.5;fill-rule:evenodd;clip-rule:evenodd;fill:url(#SVGID_00000136372976409930766910000013234345562508798626_);enable-background:new    ;}
	
		.st11{opacity:0.5;fill-rule:evenodd;clip-rule:evenodd;fill:url(#SVGID_00000067944986410965805060000009316493933122747581_);enable-background:new    ;}
	
		.st12{opacity:0.5;fill-rule:evenodd;clip-rule:evenodd;fill:url(#SVGID_00000047059704367994261840000000516383160608322738_);enable-background:new    ;}
	
		.st13{opacity:0.5;fill-rule:evenodd;clip-rule:evenodd;fill:url(#SVGID_00000162354731979102938350000013158616747566261125_);enable-background:new    ;}
	
		.st14{opacity:0.5;fill-rule:evenodd;clip-rule:evenodd;fill:url(#SVGID_00000111156589502144908710000004233503512969712775_);enable-background:new    ;}
	
		.st15{opacity:0.5;fill-rule:evenodd;clip-rule:evenodd;fill:url(#SVGID_00000087385686697812638790000015745971631775871408_);enable-background:new    ;}
	.st16{fill-rule:evenodd;clip-rule:evenodd;fill:#93839C;}
	.st17{opacity:0.5;fill-rule:evenodd;clip-rule:evenodd;fill:#5955B1;enable-background:new    ;}
	
		.st18{opacity:0.5;fill-rule:evenodd;clip-rule:evenodd;fill:url(#SVGID_00000150818494189993714600000012313410640649180551_);enable-background:new    ;}
	
		.st19{opacity:0.5;fill-rule:evenodd;clip-rule:evenodd;fill:url(#SVGID_00000118397146882531627880000004531584578664177339_);enable-background:new    ;}
	.st20{fill-rule:evenodd;clip-rule:evenodd;fill:#503E7F;}
	
		.st21{opacity:0.5;fill-rule:evenodd;clip-rule:evenodd;fill:url(#SVGID_00000152966527578002684070000011976386107893035406_);enable-background:new    ;}
</style>
<g>
	<g id="Layer_1_00000040534684614575711360000014167302631010343321_">
		
			<linearGradient id="SVGID_1_" gradientUnits="userSpaceOnUse" x1="300.01" y1="-8.4702" x2="300.01" y2="561.3837" gradientTransform="matrix(1 0 0 -1 -10.33 558.2498)">
			<stop  offset="0" style="stop-color:#0F1659"/>
			<stop  offset="1" style="stop-color:#572C78"/>
		</linearGradient>
		<path class="st0" d="M517.1,109.2l-5.4,15.3l67.7,50.4v9.4c0,0-26.7,32.1-63.8,52.4l-16.8,4l-49.9,48.9l12.8,8.4l-91.9,77.1
			l4.5,3.9l-4.1,5.4l-38.4,50.5l-15.4,16.2l-11.8,12.4L289.7,550l-48.9,16.7l-22.1-12.1l-9.3,0.6l6.6-11.2l4.6-7.8l8.8-82.1l8.4-7.9
			l-33.6-109.7l16.8-25.2c0,0-40.5-39.5-45.5-48c-3.7-6.4-13.6-20.5-18.3-27.1l0,0c-1.5-2.2-2.5-3.5-2.5-3.5l32.8-21.2l17.6-11.4
			l-8.9-17.8l-11.9,9.4l-44.9,11.4l-14.4,7.9l-20.2-5.4l-48.4-87l2.7-14.2l0.8-4.1l-3.4-17.8H41.2c0,0-22.2-8-30.4-25.4L0,8.2
			C0,8.2,62.3,0,76.7,0s96.4,9.6,96.4,9.6L171.7,0c0,0,115.9-7.1,150.4,0C362,8.2,450.5,2.3,450.5,2.3s83.9-6.5,128.9,5.8l0,40.2
			L517.1,109.2z"/>
		
			<linearGradient id="SVGID_00000021080553312957610230000010583926287455926158_" gradientUnits="userSpaceOnUse" x1="171.63" y1="501.1498" x2="579.35" y2="501.1498" gradientTransform="matrix(1 0 0 -1 0 565.8898)">
			<stop  offset="0" style="stop-color:#745EBD"/>
			<stop  offset="1" style="stop-color:#542E77"/>
		</linearGradient>
		
			<polygon style="opacity:0.5;fill-rule:evenodd;clip-rule:evenodd;fill:url(#SVGID_00000021080553312957610230000010583926287455926158_);enable-background:new    ;" points="
			579.3,48.4 480,60.3 388.6,69.7 320.9,83.6 294.7,83.6 227,38 181,15.3 171.6,0 180.5,29.6 293.7,88 337.2,92.4 387.6,88 
			417.9,100.3 454.3,119.6 504.2,129.5 511.6,124.5 517.1,109.2 		"/>
		
			<linearGradient id="SVGID_00000108306948231186797270000014939872770160593045_" gradientUnits="userSpaceOnUse" x1="56.49" y1="401.0648" x2="196.33" y2="401.0648" gradientTransform="matrix(1 0 0 -1 0 565.8898)">
			<stop  offset="0" style="stop-color:#745EBD"/>
			<stop  offset="1" style="stop-color:#542E77"/>
		</linearGradient>
		
			<polygon style="opacity:0.5;fill-rule:evenodd;clip-rule:evenodd;fill:url(#SVGID_00000108306948231186797270000014939872770160593045_);enable-background:new    ;" points="
			181,188.8 196.3,182.4 184.5,191.8 139.5,203.1 125.2,211 104.9,205.6 56.5,118.6 85.6,156.6 114.8,167 		"/>
		
			<linearGradient id="SVGID_00000179618572294670790800000007513966424264022680_" gradientUnits="userSpaceOnUse" x1="216.02" y1="56.9598" x2="316.36" y2="56.9598" gradientTransform="matrix(1 0 0 -1 0 565.8898)">
			<stop  offset="0" style="stop-color:#745EBD"/>
			<stop  offset="1" style="stop-color:#542E77"/>
		</linearGradient>
		
			<polygon style="opacity:0.5;fill-rule:evenodd;clip-rule:evenodd;fill:url(#SVGID_00000179618572294670790800000007513966424264022680_);enable-background:new    ;" points="
			316.4,451.1 304.6,463.6 289.7,550 240.8,566.7 218.8,554.7 216,544.1 220.6,536.3 229.4,454.2 249.3,470 260.1,470 		"/>
		
			<linearGradient id="SVGID_00000158018013414474015090000016966130627330696093_" gradientUnits="userSpaceOnUse" x1="10.33" y1="325.1098" x2="589.67" y2="325.1098" gradientTransform="matrix(1 0 0 -1 -10.33 558.2498)">
			<stop  offset="0" style="stop-color:#745EBD"/>
			<stop  offset="1" style="stop-color:#542E77"/>
		</linearGradient>
		
			<path style="opacity:0.5;fill-rule:evenodd;clip-rule:evenodd;fill:url(#SVGID_00000158018013414474015090000016966130627330696093_);enable-background:new    ;" d="
			M579.3,184.4c0,0-26.7,32.1-63.8,52.4l-16.8,4l-49.9,48.9l-37.6-7.2l-69.4,7l24,4.7h56.8l39,3.9l-91.9,77.1l-17.8-1.5L332.2,389
			l-32.5,11.8l46.4-5.5l24.1-10.9l-38.4,50.5l-15.4,16.2l-18.7,3l-40.5,4l-19.3-11.9l-33.6-109.7l10.4,9.9l70.4-8.9l46.2-20.8
			L358,298h-18.3l-19.3,4.5l-56.8,14.3l-34.6,5l-7.9-10.4c0,0-40.5-39.5-45.5-48c-3.7-6.4-13.6-20.5-18.3-27.1l30.1,6.9l9.9,5.2
			l51.9-3.7l98.8-26.1l-58.4-7l-52.8,3.5l-41.5-3.5h-7.7l17.6-11.4l-8.9-17.8l-11.4-9.9l-81-28.7l-44.8-39.4l0.8-4.1l-3.4-17.8H41.2
			c0,0-22.2-8-30.4-25.4L0,8.2l11.5,22.5l49.7,39l138.6,63.2l55.4,14.8l135.4,6.9l77.1,46h39.6L579.3,184.4z"/>
		
			<linearGradient id="SVGID_00000078739093974146697530000008891149789005759117_" gradientUnits="userSpaceOnUse" x1="337.19" y1="474.1148" x2="532.16" y2="474.1148" gradientTransform="matrix(1 0 0 -1 0 565.8898)">
			<stop  offset="0" style="stop-color:#745EBD"/>
			<stop  offset="1" style="stop-color:#542E77"/>
		</linearGradient>
		
			<polygon style="opacity:0.2;fill-rule:evenodd;clip-rule:evenodd;fill:url(#SVGID_00000078739093974146697530000008891149789005759117_);enable-background:new    ;" points="
			517.1,109.2 462.7,97.8 428.1,83.6 441.5,69.7 503.2,64.7 532.2,54.1 428.1,65.6 388.6,69.7 337.2,92.4 387.6,88 449.4,118.6 
			504.2,129.5 511.6,124.5 		"/>
		
			<linearGradient id="SVGID_00000010999590651061342150000014160172197099510957_" gradientUnits="userSpaceOnUse" x1="231.38" y1="305.2448" x2="589.6801" y2="305.2448" gradientTransform="matrix(1 0 0 -1 -10.33 558.2498)">
			<stop  offset="0" style="stop-color:#745EBD"/>
			<stop  offset="1" style="stop-color:#542E77"/>
		</linearGradient>
		
			<path style="opacity:0.5;fill-rule:evenodd;clip-rule:evenodd;fill:url(#SVGID_00000010999590651061342150000014160172197099510957_);enable-background:new    ;" d="
			M467.7,200.6l-27.2,45.5l-65,31.5l-38.3,3.1l10.9-62.1l-95.6,25.2l-4.7,58.2l-13.3,13.8l-13.3-4.4l7.9,10.4l34.6-5l76.1-18.8
			l2.2-8.6l69.4-7l37.6,7.2l49.9-48.9l16.8-4c0,0,44-27.1,63.8-52.4l-72.1,16.3L467.7,200.6z"/>
		
			<linearGradient id="SVGID_00000019646992041228495430000014237614295897104301_" gradientUnits="userSpaceOnUse" x1="322.11" y1="222.4098" x2="357.94" y2="222.4098" gradientTransform="matrix(1 0 0 -1 0 565.8898)">
			<stop  offset="0" style="stop-color:#745EBD"/>
			<stop  offset="1" style="stop-color:#542E77"/>
		</linearGradient>
		
			<polygon style="opacity:0.5;fill-rule:evenodd;clip-rule:evenodd;fill:url(#SVGID_00000019646992041228495430000014237614295897104301_);enable-background:new    ;" points="
			357.9,298 352,373.6 332.3,389 322.1,340.3 331.2,316.8 		"/>
		
			<linearGradient id="SVGID_00000146463058878839855190000002916347618362286995_" gradientUnits="userSpaceOnUse" x1="316.36" y1="148.1048" x2="370.15" y2="148.1048" gradientTransform="matrix(1 0 0 -1 0 565.8898)">
			<stop  offset="0" style="stop-color:#745EBD"/>
			<stop  offset="1" style="stop-color:#542E77"/>
		</linearGradient>
		
			<polygon style="opacity:0.5;fill-rule:evenodd;clip-rule:evenodd;fill:url(#SVGID_00000146463058878839855190000002916347618362286995_);enable-background:new    ;" points="
			346.1,395.4 316.4,451.1 335.3,430.3 370.1,384.4 		"/>
		
			<linearGradient id="SVGID_00000176011359975586306900000004849344405485383831_" gradientUnits="userSpaceOnUse" x1="240.81" y1="56.9598" x2="316.36" y2="56.9598" gradientTransform="matrix(1 0 0 -1 0 565.8898)">
			<stop  offset="0" style="stop-color:#745EBD"/>
			<stop  offset="1" style="stop-color:#542E77"/>
		</linearGradient>
		
			<polygon style="opacity:0.5;fill-rule:evenodd;clip-rule:evenodd;fill:url(#SVGID_00000176011359975586306900000004849344405485383831_);enable-background:new    ;" points="
			260.1,470 240.8,566.7 289.7,550 304.6,463.6 316.4,451.1 		"/>
		
			<linearGradient id="SVGID_00000072985064259679015960000007145408490991050144_" gradientUnits="userSpaceOnUse" x1="293.7" y1="485.7848" x2="407.06" y2="485.7848" gradientTransform="matrix(1 0 0 -1 0 565.8898)">
			<stop  offset="0" style="stop-color:#745EBD"/>
			<stop  offset="1" style="stop-color:#542E77"/>
		</linearGradient>
		
			<polygon style="opacity:0.5;fill-rule:evenodd;clip-rule:evenodd;fill:url(#SVGID_00000072985064259679015960000007145408490991050144_);enable-background:new    ;" points="
			387.6,88 407.1,67.8 388.6,69.7 320.9,83.6 294.7,83.6 293.7,88 337.2,92.4 		"/>
		
			<linearGradient id="SVGID_00000067918198245424588590000011714076341226693806_" gradientUnits="userSpaceOnUse" x1="203.25" y1="389.6748" x2="390.55" y2="389.6748" gradientTransform="matrix(1 0 0 -1 0 565.8898)">
			<stop  offset="0" style="stop-color:#745EBD"/>
			<stop  offset="1" style="stop-color:#542E77"/>
		</linearGradient>
		
			<polygon style="opacity:0.5;fill-rule:evenodd;clip-rule:evenodd;fill:url(#SVGID_00000067918198245424588590000011714076341226693806_);enable-background:new    ;" points="
			390.5,154.7 348.1,218.6 289.7,211.5 278.6,156.8 252.6,154.7 203.2,133.9 255.2,147.8 		"/>
		
			<linearGradient id="SVGID_00000052081852224600735060000007155678970506797234_" gradientUnits="userSpaceOnUse" x1="341.89" y1="304.5098" x2="515.6" y2="304.5098" gradientTransform="matrix(1 0 0 -1 0 565.8898)">
			<stop  offset="0" style="stop-color:#745EBD"/>
			<stop  offset="1" style="stop-color:#542E77"/>
		</linearGradient>
		
			<polygon style="opacity:0.5;fill-rule:evenodd;clip-rule:evenodd;fill:url(#SVGID_00000052081852224600735060000007155678970506797234_);enable-background:new    ;" points="
			440.5,246.1 492.7,233.1 515.6,236.7 498.8,240.7 448.9,289.6 411.3,282.4 341.9,289.4 375.5,277.6 		"/>
		
			<linearGradient id="SVGID_00000079454046806397399990000008853480102723434889_" gradientUnits="userSpaceOnUse" x1="221.06" y1="256.0198" x2="339.67" y2="256.0198" gradientTransform="matrix(1 0 0 -1 0 565.8898)">
			<stop  offset="0" style="stop-color:#745EBD"/>
			<stop  offset="1" style="stop-color:#542E77"/>
		</linearGradient>
		
			<polygon style="opacity:0.5;fill-rule:evenodd;clip-rule:evenodd;fill:url(#SVGID_00000079454046806397399990000008853480102723434889_);enable-background:new    ;" points="
			247.7,302 310.1,298 339.7,298 266.8,316 228.9,321.7 221.1,311.4 234.4,315.8 		"/>
		
			<linearGradient id="SVGID_00000031187562338949187190000017679829470497155203_" gradientUnits="userSpaceOnUse" x1="316.36" y1="148.1048" x2="370.15" y2="148.1048" gradientTransform="matrix(1 0 0 -1 0 565.8898)">
			<stop  offset="0" style="stop-color:#745EBD"/>
			<stop  offset="1" style="stop-color:#542E77"/>
		</linearGradient>
		
			<polygon style="opacity:0.5;fill-rule:evenodd;clip-rule:evenodd;fill:url(#SVGID_00000031187562338949187190000017679829470497155203_);enable-background:new    ;" points="
			346.1,395.4 316.4,451.1 370.1,384.4 		"/>
		
			<linearGradient id="SVGID_00000100345739668670303300000014362237161142076053_" gradientUnits="userSpaceOnUse" x1="228.95" y1="205.1749" x2="579.35" y2="205.1749" gradientTransform="matrix(1 0 0 -1 0 565.8898)">
			<stop  offset="0" style="stop-color:#745EBD"/>
			<stop  offset="1" style="stop-color:#542E77"/>
		</linearGradient>
		
			<polygon style="opacity:0.5;fill-rule:evenodd;clip-rule:evenodd;fill:url(#SVGID_00000100345739668670303300000014362237161142076053_);enable-background:new    ;" points="
			240.8,566.7 260.1,470 281.5,455.8 299.6,400.8 285,337.5 331.2,316.8 357.9,298 339.7,298 228.9,321.7 247.7,302 252.4,243.8 
			348.1,218.6 289.7,211.5 278.6,156.8 390.5,154.7 467.6,200.7 507.2,200.7 579.3,184.4 515.6,236.7 498.8,240.7 448.9,289.6 
			411.3,282.4 370.1,286.6 395.3,294.1 461.7,298 369.8,375.1 352,373.6 328.4,390 316.4,398.9 346.1,395.4 370.1,384.4 
			316.4,451.1 304.6,463.6 289.7,550 		"/>
		<polygon class="st16" points="159.7,247.2 252.4,261.4 343.3,253 407.1,226.2 456.9,218.6 555.7,207.7 537.5,222.9 477.2,233.1 
			443.5,241 419.7,241 341.1,258.9 249.2,283.5 196.3,286.6 		"/>
		<polygon class="st16" points="207.6,298 248.3,295.4 338.4,270.2 409,261.4 492.2,247.2 484.9,253 415.2,261.4 404.1,263.7 
			337.2,275.2 247.7,302 225.2,302 214.4,304.8 		"/>
		<polygon class="st16" points="216,375 285.8,380 331.2,368.9 357.9,340.1 411.5,340.1 387.7,360 356,357.3 330.9,377 296.9,388.9 
			220.3,388.9 		"/>
		<polygon class="st16" points="233.6,432.5 284.4,446.9 322.1,440.3 331.4,436.5 325.6,441.4 320,444.4 282.5,451.1 235,437.1 		
			"/>
		<polygon class="st17" points="171.6,0 181,15.3 227,38 294.7,83.6 320.9,83.6 390.5,69.5 407.1,67.8 407.1,4.1 240.8,0 		"/>
		
			<linearGradient id="SVGID_00000081645579145989724810000008649244463708976820_" gradientUnits="userSpaceOnUse" x1="104.91" y1="369.1898" x2="196.33" y2="369.1898" gradientTransform="matrix(1 0 0 -1 0 565.8898)">
			<stop  offset="0" style="stop-color:#745EBD"/>
			<stop  offset="1" style="stop-color:#542E77"/>
		</linearGradient>
		
			<polygon style="opacity:0.5;fill-rule:evenodd;clip-rule:evenodd;fill:url(#SVGID_00000081645579145989724810000008649244463708976820_);enable-background:new    ;" points="
			181,188.8 124,197.5 104.9,205.6 125.2,211 139.5,203.1 184.5,191.8 196.3,182.4 		"/>
		
			<linearGradient id="SVGID_00000098205000632048094750000000596134759458094521_" gradientUnits="userSpaceOnUse" x1="25.14" y1="497.4998" x2="56.49" y2="497.4998" gradientTransform="matrix(1 0 0 -1 0 565.8898)">
			<stop  offset="0" style="stop-color:#745EBD"/>
			<stop  offset="1" style="stop-color:#542E77"/>
		</linearGradient>
		
			<polygon style="opacity:0.5;fill-rule:evenodd;clip-rule:evenodd;fill:url(#SVGID_00000098205000632048094750000000596134759458094521_);enable-background:new    ;" points="
			56.5,82.5 56.5,67.8 41.5,54.3 38.4,77.7 25.1,73.7 41.2,82.5 		"/>
		<polygon class="st20" points="91.7,83.6 196.3,115.1 260.9,123.9 304.3,150.3 255.2,147.8 196.3,133.9 		"/>
		
			<linearGradient id="SVGID_00000074412855951115755660000017954043305638295216_" gradientUnits="userSpaceOnUse" x1="196.33" y1="370.8498" x2="247.37" y2="370.8498" gradientTransform="matrix(1 0 0 -1 0 565.8898)">
			<stop  offset="0" style="stop-color:#745EBD"/>
			<stop  offset="1" style="stop-color:#542E77"/>
		</linearGradient>
		
			<polygon style="opacity:0.5;fill-rule:evenodd;clip-rule:evenodd;fill:url(#SVGID_00000074412855951115755660000017954043305638295216_);enable-background:new    ;" points="
			205.2,200.1 247.4,207.7 196.3,182.4 		"/>
	</g>
</g>
</svg>
