<svg xmlns="http://www.w3.org/2000/svg" xmlns:xlink="http://www.w3.org/1999/xlink" viewBox="0 0 544.55 570.81"><defs><style>.cls-1{isolation:isolate;}.cls-2,.cls-3,.cls-7,.cls-8,.cls-9{mix-blend-mode:screen;}.cls-2{fill:url(#radial-gradient);}.cls-3{fill:url(#radial-gradient-2);}.cls-4{fill:#fff;}.cls-4,.cls-6{fill-rule:evenodd;}.cls-5{opacity:0.2;}.cls-6{fill:#635eb0;}.cls-7{fill:url(#radial-gradient-3);}.cls-8{fill:url(#radial-gradient-4);}.cls-9{fill:url(#radial-gradient-5);}</style><radialGradient id="radial-gradient" cx="-1334.36" cy="409.03" r="76.22" gradientTransform="translate(3489.59 -638.53) scale(2.39 2.37)" gradientUnits="userSpaceOnUse"><stop offset="0" stop-color="#6a229d"/><stop offset="0.16" stop-color="#672199" stop-opacity="0.97"/><stop offset="0.32" stop-color="#5f1e8c" stop-opacity="0.89"/><stop offset="0.48" stop-color="#511a78" stop-opacity="0.76"/><stop offset="0.64" stop-color="#3d145b" stop-opacity="0.58"/><stop offset="0.81" stop-color="#240c36" stop-opacity="0.34"/><stop offset="0.97" stop-color="#060209" stop-opacity="0.06"/><stop offset="1" stop-opacity="0"/></radialGradient><radialGradient id="radial-gradient-2" cx="-1331.05" cy="405.74" r="65.02" gradientTransform="translate(3483.54 -639.26) scale(2.39 2.37)" gradientUnits="userSpaceOnUse"><stop offset="0" stop-color="#0037a4"/><stop offset="0.15" stop-color="#0036a0" stop-opacity="0.98"/><stop offset="0.31" stop-color="#003294" stop-opacity="0.9"/><stop offset="0.47" stop-color="#002b7f" stop-opacity="0.78"/><stop offset="0.63" stop-color="#002163" stop-opacity="0.6"/><stop offset="0.79" stop-color="#00153e" stop-opacity="0.38"/><stop offset="0.95" stop-color="#000611" stop-opacity="0.1"/><stop offset="1" stop-opacity="0"/></radialGradient><radialGradient id="radial-gradient-3" cx="-1332.67" cy="408.66" r="111.06" gradientTransform="translate(3489.59 -638.53) scale(2.39 2.37)" gradientUnits="userSpaceOnUse"><stop offset="0" stop-color="#0053c2"/><stop offset="1" stop-color="#2c0e41" stop-opacity="0"/></radialGradient><radialGradient id="radial-gradient-4" cx="-1332.67" cy="408.66" r="75.71" gradientTransform="translate(3489.59 -638.53) scale(2.39 2.37)" gradientUnits="userSpaceOnUse"><stop offset="0" stop-color="#0053c2"/><stop offset="0.13" stop-color="#004cb1" stop-opacity="0.91"/><stop offset="0.38" stop-color="#003884" stop-opacity="0.68"/><stop offset="0.73" stop-color="#001a3c" stop-opacity="0.31"/><stop offset="1" stop-opacity="0"/></radialGradient><radialGradient id="radial-gradient-5" cx="-1310.36" cy="436.42" r="114.7" gradientTransform="translate(-763.66 -2862.54) rotate(-90) scale(2.39 2.37)" gradientUnits="userSpaceOnUse"><stop offset="0" stop-color="#0053c2"/><stop offset="0.13" stop-color="#004cb1" stop-opacity="0.91"/><stop offset="0.38" stop-color="#003884" stop-opacity="0.68"/><stop offset="0.73" stop-color="#001a3c" stop-opacity="0.31"/><stop offset="1" stop-opacity="0"/></radialGradient></defs><g class="cls-1"><g id="Layer_1" data-name="Layer 1"><g id="Moon"><ellipse class="cls-2" cx="299" cy="331.54" rx="182.47" ry="180.92" transform="translate(-166.12 283.04) rotate(-45)"/><ellipse class="cls-3" cx="296.85" cy="323.88" rx="155.67" ry="154.35" transform="translate(-161.33 279.27) rotate(-45)"/><path class="cls-4" d="M415.14,325.36a117.18,117.18,0,1,1-234.36,0,118.43,118.43,0,0,1,.68-12.71,117.19,117.19,0,0,1,233.68,12.71Z" transform="translate(-19.26 -25.49)"/><g class="cls-5"><path class="cls-6" d="M268.36,404.57c1.46,3.15,2.45,5.91,5,8.52,2.73,2.83,4.85,3.36,8.39,4.39,2.05.6,2.48,1.32,5.1,1.28,1.72,0,4.1-.44,5.75-.07,3.72.85,5.69,4.14,9.86,4.37,4,.21,6.5-1.09,9.94-2.15,3.22-1,7-2.39,10-3.52,3.26-1.24,6.18-2.11,9.57-3.2,3.63-1.16,5.5-3.58,10-2.31.28,1.69-.13,4.37,2,5.21,1.42.58,3.79-.92,5.32-1.51,4-1.53,7.57-2.37,11.35-3.95,1.83-.77,3.15-.71,5-2.09s3.69-2.31,5.54-3.55c3.43-2.29,6.8-4.77,10.21-7.09,6.55-4.47,10.78-10.58,14.76-17,2.1-3.41,3.3-7.15,4.61-11,1.62-4.78,1.08-6.13-2.12-10-5.74,2.39-8-1.16-6.43-7.31,1.4-5.37,2-12.52.79-18.13-.21-1-1-1.71-1.14-3.12-.18-1.56.13-2.72-.28-4.3a24.21,24.21,0,0,1-1.1-7.09c0-2.79.38-5.83-.32-8.52-.44-1.69-1.05-2.42-1.14-4.26s.24-3.54-.28-5.35c-1.37-4.74-5.7-6.07-9.62-7.42-2.67-.92-4-1.83-5.71,0s-1.36,4.6-1.38,7.12c0,4.74,3,8.92,5.67,12.77,1.18,1.72,3.25,3.37,3,5.73-.17,1.29-1.77,1.49-1.67,2.79.12,1.58,1.82,2.06,2.66,3.16,6.78,8.85-6,16.63-12.07,21.33-3.46,2.67-8.67,4-10,8.48-1.42,4.75,1.86,8.72,3.58,12.78,1.81,4.24,3.37,11.69.74,15.68-1.12,1.7-3.31,2.71-5,3.52-2.5,1.2-3.44,2.69-5.64,4.29a18.88,18.88,0,0,1-12.46,3.19,13.36,13.36,0,0,1-7.1-2.87c-1.7-1.19-4-3.37-6-3.94-1.44-.41-2.51-.1-4-.28-2-.25-2.39-1.07-4.15-1.53-3-.78-5.16,1.36-7.53,2.56-2,1-4.38,2.47-6.82,1.84s-5.07-2.13-7.33-2.59c-5.42-1.13-14.18-1.51-18.52,2.17-2.19,1.85-3,4.46-4.91,6.41S268.94,400.23,268.36,404.57Z" transform="translate(-19.26 -25.49)"/><path class="cls-6" d="M376.23,281.08c-5.2.11-10-3.81-14.23-6.74-3.48-2.41-7.14-6.21-8.83-9.94-.5-1.13-.67-2-1.07-3.19-.08-.25-1.35-3.62-1.35-3.72.05-2,1.66-4.33,3.13-5.85,4.23-4.37,10.7-1.23,14.94,1.41a69,69,0,0,1,11.28,8.52c1.64,1.55,3.88,3,5,4.93,1.53,2.59,1.09,5.75,1,8.9-.06,4.8,6.22,10.33-1.38,11.39-3,.41-12.14-2.1-12.82-5.71Z" transform="translate(-19.26 -25.49)"/><path class="cls-6" d="M282.55,433c-1.29,1.44-2.81.45-4.27,0a12.8,12.8,0,0,0-4.25-.69,34.4,34.4,0,0,1-8.87-.71c-2.8-.7-5.48-1.1-8.16-1.77-1.07-.27-2.09-.87-3.17-1.09-.66-.14-1.41.09-2.09,0-.32-.05-.35-.44-.57-.49-.55-.12-1.07,0-1.61-.14a65.63,65.63,0,0,1-7.62-2,12.32,12.32,0,0,1-3.22-1c-1.09-.67-2.58-1.41-3.56-2.13-3.83-2.83-8-5.21-11.52-8.72-3.29-3.3-6.67-6.32-10.12-9.4-.8-.71-1.45-1.65-2.29-2.31a24.22,24.22,0,0,1-2.67-1.95,42.52,42.52,0,0,1-4.61-5.87c-2.8-4.05-6.41-7.36-8.61-11.78-1.06-2.14-2-4.22-3.28-6.27a31.37,31.37,0,0,1-2.15-4.3c-.43-1.06-1.3-2.32-1.59-3.34-.44-1.53-.43-3-.85-4.47-.18-.65-.61-1.09-.77-1.72-.19-.8.24-1.75.07-2.55s-.61-1-.78-1.71.24-1.74.07-2.55-.61-1-.78-1.71c-.22-.91.3-2,.08-2.91-.17-.68-.62-1-.78-1.71a13.18,13.18,0,0,1,0-2.51c0-1.83-.63-3.23-.73-5a23.93,23.93,0,0,1,0-5.35c.16-.72.62-1,.78-1.71.22-.93-.23-1.87.08-2.82,1.92-.5,1.31,3.56,1.3,4.55,0,1.84.75,2.84.71,4.62-.05,2.2.87,2.5,2.17,4.1a12.49,12.49,0,0,1,2.12,3c.19.6.17,1.57.32,2.17a6.65,6.65,0,0,1,.35,2.13c0,1.73-.12,2.6,1.23,3.72a10.69,10.69,0,0,0,3.71,2c1.61.36,3,.34,4.68.64.74.14,1,.61,1.71.78.89.21,1.85-.35,2.73.1a6.22,6.22,0,0,1,2.11,2.86,5.14,5.14,0,0,1-.55,4.1c-.25.47-.43,1-.71,1.42s-1,1-1.28,1.56c-1.33,2.45.6,6.45,1.13,8.53.2.81,1.42,3.26.75,4s-4.69.1-5.46-.34c-.44.89.4,2.62.67,3.57a16.63,16.63,0,0,0,1.51,3.8,15.64,15.64,0,0,0,5.79,5.22c1.44.76,2.32,1.16,2.59-.78.11-.87-.14-1.36.31-2.17.31-.58.9-.65,1.12-1.36s-.25-1.75-.06-2.54c.14-.58.56-.95.68-1.45.39-1.68-.26-3.57,0-5.27.57-3.41,3.11-4.95,6.07-5.67a53.56,53.56,0,0,0,8.84-2.84,14,14,0,0,1,10-.89c2.72.86,4.88,2.5,7.36,3.81a26.91,26.91,0,0,0,3.3,1.31c1.3.51,2.65,1,4,1.38,2.35.67,5.05,1.06,7.21,2.35s4.79,2.82,6.23,4.79,2.7,5.77,1.7,8.13c-.75,1.79-3.45,3.34-4.73,4.84-2.19,2.56-1.6,4.26,0,6.9a16.25,16.25,0,0,1,1.89,3.28,18.32,18.32,0,0,1,.06,4.91,6.22,6.22,0,0,1-1.23,3.39c-.69,1.05-2.32,1.71-2.88,2.78s0,1.45.36,2.18c.12.21.47.28.58.49.27.5.1,1,.31,1.46.7,1.63,2.11,1.38,3.57,1.76a6.64,6.64,0,0,0,4.28-.33,7.89,7.89,0,0,1,2.09-.75c1-.16,1.54.41,2.3.56,1.75.37,2.74-.83,4.48-.92,1.39-.08,2.26.53,3.35,1.62.9.9,2.16,2.4,2,3.74S283.53,431.69,282.55,433Z" transform="translate(-19.26 -25.49)"/><path class="cls-6" d="M269.07,379.73a11.65,11.65,0,0,1,1.24-.6,17.8,17.8,0,0,0,3.73,3.44c2.07,1.3,3.1.48,3.57-1.74.24-1.14-.37-1.85-.58-2.67s0-2-1-2.54c-1.38-.82-5.42-.39-4.82,2Z" transform="translate(-19.26 -25.49)"/><path class="cls-6" d="M200.93,288.18a1.18,1.18,0,0,1-1.31.66,12.83,12.83,0,0,1-.05-4.5c.13-.66.57-1,.67-1.82s0-1.3.14-2c.19-.88.92-2.27,1.11-3.15a14.27,14.27,0,0,1,.88-3.37c.51-1.15.8-2.65,1.31-3.95a19.45,19.45,0,0,1,1.69-3.15c1.31-2.16,2.39-4.25,3.72-6.41a43.21,43.21,0,0,1,8.57-10.63c1.22-1,2.6-1.78,3.87-2.68.44-.31.78-.8,1.21-1.08s1.08-.4,1.46-.67c1.1-.81,4.29-4,5.74-3.26-1,2.63-2.73,5.27-4,7.85-1.46,3-4.2,2.86-6.38,5-3.42,3.32,2.28,4.7,4.25,6s2,3.09,2,5.18a16.56,16.56,0,0,0,.71,5.32,20.87,20.87,0,0,1,.75,2.48c0,.49,0,1-.08,1.46a1,1,0,0,0,.59.83c.45,2-.39,3.23-1.08,5s-1.09,3.34-2.48,4.63-2.93.86-4.79.89a9.48,9.48,0,0,1-2.84-.55c-.71-.18-1.74-.6-2.29-.71-.85-.16-1.68-.14-2.52-.32s-.94-.7-2.13-.39-2.39,1.72-3.67,2c-1.78.4-3.82-.44-5.6.08C200.3,287.08,200.26,287.27,200.93,288.18Z" transform="translate(-19.26 -25.49)"/></g><ellipse class="cls-7" cx="299" cy="331.54" rx="265.89" ry="263.64" transform="translate(-166.12 283.04) rotate(-45)"/><ellipse class="cls-8" cx="299" cy="331.54" rx="181.26" ry="179.72" transform="translate(-166.12 283.04) rotate(-45)"/><ellipse class="cls-9" cx="272.28" cy="274.61" rx="272.28" ry="274.61"/></g></g></g></svg>