<?xml version="1.0" encoding="utf-8"?>
<!-- Generator: Adobe Illustrator 25.4.1, SVG Export Plug-In . SVG Version: 6.00 Build 0)  -->
<svg version="1.1" id="Слой_1" xmlns="http://www.w3.org/2000/svg" xmlns:xlink="http://www.w3.org/1999/xlink" x="0px" y="0px"
	 viewBox="0 0 3500 2000" style="enable-background:new 0 0 3500 2000;" xml:space="preserve">
<style type="text/css">
	.st0{opacity:0.28;fill:#C9C2F9;}
	.st1{opacity:0.5;fill:#D5CFFF;}
	.st2{fill:#514E92;}
	.st3{clip-path:url(#SVGID_00000134948392255666855830000016368917102511090564_);fill:#D5CFFF;}
	.st4{clip-path:url(#SVGID_00000134948392255666855830000016368917102511090564_);}
	.st5{fill:#303C60;}
	.st6{fill:#F09959;}
	.st7{fill:#6791C9;}
	.st8{fill:#75A1DE;}
	.st9{opacity:0.5;fill:#6791C9;}
	.st10{fill:#E38540;}
	.st11{fill:#F5CE5C;}
	.st12{fill:#4381DB;}
	.st13{fill:#2E5B9A;}
	.st14{fill:#9CBEED;}
	.st15{fill:#FFFFFF;}
	.st16{fill:#232E4F;}
	.st17{fill:#1B243D;}
	.st18{fill:#FFD24F;}
	.st19{fill:#EDC055;}
	.st20{fill:#2A66C6;}
	.st21{fill:#63ACC2;}
	.st22{fill:#0F2D5C;}
	.st23{fill:#A797FB;}
	
		.st24{clip-path:url(#SVGID_00000178196890241627717880000017880944611683278985_);fill:#D5CFFF;stroke:#A69FFC;stroke-miterlimit:10;}
	.st25{clip-path:url(#SVGID_00000178196890241627717880000017880944611683278985_);}
	.st26{fill:#D54A41;}
	.st27{fill:#58556E;}
	.st28{fill:#7EC1D6;}
	.st29{fill:#8DDAF2;}
	.st30{fill:#3E6BAB;}
	.st31{fill:#F37168;}
	.st32{fill:#FFCB30;}
	.st33{fill:#4578BF;}
	
		.st34{clip-path:url(#SVGID_00000123424478317639246250000011195878529760611250_);fill:#D5CFFF;stroke:#A69FFC;stroke-miterlimit:10;}
	.st35{clip-path:url(#SVGID_00000123424478317639246250000011195878529760611250_);}
	.st36{fill:#255096;}
	.st37{fill:#FFC34E;}
	.st38{fill:#A1A654;}
	.st39{fill:#C1C765;}
	
		.st40{clip-path:url(#SVGID_00000104689128016625497420000001161200875655123332_);fill:#D5CFFF;stroke:#A69FFC;stroke-miterlimit:10;}
	.st41{clip-path:url(#SVGID_00000104689128016625497420000001161200875655123332_);}
	.st42{fill:#A8CEFF;}
	.st43{fill:#93BBF0;}
	
		.st44{clip-path:url(#SVGID_00000168832334090844308880000012460218882741596800_);fill:#D5CFFF;stroke:#A69FFC;stroke-miterlimit:10;}
	.st45{clip-path:url(#SVGID_00000168832334090844308880000012460218882741596800_);}
	.st46{fill:#FB8627;}
	.st47{fill:url(#SVGID_00000006670264519111902460000003142491112601114554_);}
	.st48{fill:url(#SVGID_00000153669594581268876370000013829103040887727039_);}
	.st49{fill:url(#SVGID_00000116197636820208690260000011572212066138517401_);}
	.st50{fill:url(#SVGID_00000142898607886915516930000007868019266144053642_);}
	.st51{clip-path:url(#SVGID_00000071555488455568150950000012507081551813362863_);fill:#D5CFFF;}
	.st52{clip-path:url(#SVGID_00000071555488455568150950000012507081551813362863_);}
	.st53{fill:#2E2D3D;}
	.st54{fill:#BDCCD4;}
	
		.st55{clip-path:url(#SVGID_00000008870498988181397960000012225971521787189915_);fill:#D5CFFF;stroke:#A69FFC;stroke-miterlimit:10;}
	.st56{clip-path:url(#SVGID_00000008870498988181397960000012225971521787189915_);}
	.st57{fill:#3A384D;}
	
		.st58{clip-path:url(#SVGID_00000114789293781087680280000009613000823656578178_);fill:#D5CFFF;stroke:#A69FFC;stroke-miterlimit:10;}
	.st59{clip-path:url(#SVGID_00000114789293781087680280000009613000823656578178_);}
	.st60{fill:#7A4E34;}
	.st61{fill:#A19AFC;}
	.st62{fill:#9BD6E8;}
	.st63{fill:#D5CFFF;}
</style>
<g>
	<path class="st0" d="M251.11,1170.41c-122.33-535.13,232-955.25,960-1039.19c815.36-94.01,979.27,356.93,747.64,487.85
		c-231.64,130.92-623,939.15-673.32,1097.04C1235.11,1874,423.11,1922.82,251.11,1170.41z"/>
	<path class="st0" d="M2837.49,593.21c384.22,16.79,645.16,602.74,357.39,907.76c-287.77,305.03-1355.89,195.83-1317.83-25.57
		c38.06-221.4,494.06-150.29,690.06-423.84S2727.87,588.42,2837.49,593.21z"/>
	<path class="st1" d="M2961.62,1757.8c-299.34-0.75-968.09,12.09-1493.64,39.38c-525.55,27.29-80.72,88.45,281.24,62.41
		c361.96-26.03,615.16,56.88,1058.18,28.88S3308.93,1758.67,2961.62,1757.8z"/>
	<g>
		<g>
			<g>
				<path class="st2" d="M342.85,901.65c-1.08,0-2.08-0.71-2.4-1.79l-7.08-23.98c-0.35-1.18,0.21-2.43,1.32-2.96l22.55-10.8
					c1.24-0.6,2.74-0.07,3.33,1.17c0.6,1.25,0.07,2.74-1.17,3.33l-20.62,9.88l6.48,21.93c0.39,1.32-0.37,2.71-1.69,3.11
					C343.32,901.61,343.08,901.65,342.85,901.65z"/>
			</g>
			<g>
				<path class="st2" d="M502.09,1440.76c-1.08,0-2.08-0.71-2.4-1.79l-13.27-44.93c-0.39-1.32,0.37-2.71,1.69-3.11
					c1.32-0.39,2.71,0.37,3.11,1.69l13.27,44.93c0.39,1.32-0.37,2.71-1.69,3.11C502.56,1440.73,502.32,1440.76,502.09,1440.76z
					 M475.55,1350.91c-1.08,0-2.08-0.71-2.4-1.79l-13.27-44.93c-0.39-1.32,0.37-2.71,1.69-3.11c1.32-0.4,2.71,0.37,3.11,1.69
					l13.27,44.93c0.39,1.32-0.37,2.71-1.69,3.11C476.02,1350.88,475.78,1350.91,475.55,1350.91z M449.01,1261.06
					c-1.08,0-2.08-0.71-2.4-1.79l-13.27-44.93c-0.39-1.32,0.37-2.71,1.69-3.11c1.32-0.39,2.71,0.37,3.11,1.69l13.27,44.93
					c0.39,1.32-0.37,2.71-1.69,3.11C449.48,1261.02,449.24,1261.06,449.01,1261.06z M422.47,1171.21c-1.08,0-2.08-0.71-2.4-1.79
					l-13.27-44.93c-0.39-1.32,0.37-2.71,1.69-3.11c1.32-0.4,2.71,0.37,3.11,1.69l13.27,44.93c0.39,1.32-0.37,2.71-1.69,3.11
					C422.94,1171.17,422.7,1171.21,422.47,1171.21z M395.93,1081.35c-1.08,0-2.08-0.71-2.4-1.79l-13.27-44.93
					c-0.39-1.32,0.37-2.71,1.69-3.11c1.32-0.4,2.71,0.37,3.11,1.69l13.27,44.93c0.39,1.32-0.37,2.71-1.69,3.11
					C396.4,1081.32,396.16,1081.35,395.93,1081.35z M369.39,991.5c-1.08,0-2.08-0.71-2.4-1.79l-13.27-44.93
					c-0.39-1.32,0.37-2.71,1.69-3.11c1.32-0.39,2.71,0.37,3.11,1.69l13.27,44.93c0.39,1.32-0.37,2.71-1.69,3.11
					C369.86,991.47,369.62,991.5,369.39,991.5z"/>
			</g>
			<g>
				<path class="st2" d="M522.44,1509.66c-0.38,0-0.77-0.09-1.12-0.26c-0.62-0.31-1.08-0.86-1.28-1.53l-7.08-23.98
					c-0.39-1.32,0.37-2.71,1.69-3.11c1.32-0.39,2.71,0.37,3.11,1.69l6.33,21.41l20.94-7.75c1.29-0.48,2.73,0.18,3.21,1.48
					c0.48,1.29-0.18,2.73-1.48,3.21l-23.45,8.68C523.03,1509.61,522.73,1509.66,522.44,1509.66z"/>
			</g>
			<g>
				<path class="st2" d="M592.09,1483.89c-1.02,0-1.97-0.62-2.34-1.63c-0.48-1.29,0.18-2.73,1.48-3.21l46.21-17.1
					c1.29-0.48,2.73,0.18,3.21,1.48c0.48,1.29-0.18,2.73-1.48,3.21l-46.21,17.1C592.68,1483.84,592.38,1483.89,592.09,1483.89z
					 M684.51,1449.7c-1.02,0-1.97-0.62-2.34-1.63c-0.48-1.29,0.18-2.73,1.48-3.21l46.21-17.1c1.3-0.48,2.73,0.18,3.21,1.48
					c0.48,1.29-0.18,2.73-1.48,3.21l-46.21,17.1C685.09,1449.65,684.8,1449.7,684.51,1449.7z M776.93,1415.51
					c-1.02,0-1.97-0.62-2.34-1.63c-0.48-1.29,0.18-2.73,1.48-3.21l46.21-17.1c1.29-0.48,2.73,0.18,3.21,1.48
					c0.48,1.29-0.18,2.73-1.48,3.21l-46.21,17.1C777.51,1415.46,777.22,1415.51,776.93,1415.51z M869.35,1381.31
					c-1.02,0-1.97-0.62-2.34-1.63c-0.48-1.29,0.18-2.73,1.48-3.21l46.21-17.1c1.3-0.48,2.73,0.18,3.21,1.48
					c0.48,1.29-0.18,2.73-1.48,3.21l-46.21,17.1C869.93,1381.26,869.64,1381.31,869.35,1381.31z M961.77,1347.12
					c-1.02,0-1.97-0.62-2.34-1.63c-0.48-1.29,0.18-2.73,1.48-3.21l46.21-17.1c1.29-0.48,2.73,0.18,3.21,1.48
					c0.48,1.29-0.18,2.73-1.48,3.21l-46.21,17.1C962.35,1347.07,962.06,1347.12,961.77,1347.12z M1054.19,1312.93
					c-1.02,0-1.97-0.62-2.34-1.63c-0.48-1.29,0.18-2.73,1.48-3.21l46.21-17.1c1.29-0.48,2.73,0.18,3.21,1.48
					c0.48,1.29-0.18,2.73-1.48,3.21l-46.21,17.1C1054.77,1312.88,1054.48,1312.93,1054.19,1312.93z M1146.61,1278.73
					c-1.02,0-1.97-0.62-2.34-1.63c-0.48-1.29,0.18-2.73,1.48-3.21l46.21-17.1c1.29-0.48,2.73,0.18,3.21,1.48
					c0.48,1.29-0.18,2.73-1.48,3.21l-46.21,17.1C1147.19,1278.68,1146.89,1278.73,1146.61,1278.73z M1239.03,1244.54
					c-1.02,0-1.97-0.62-2.34-1.63c-0.48-1.29,0.18-2.73,1.48-3.21l46.21-17.1c1.29-0.48,2.73,0.18,3.21,1.48
					c0.48,1.29-0.18,2.73-1.48,3.21l-46.21,17.1C1239.61,1244.49,1239.31,1244.54,1239.03,1244.54z M1331.44,1210.35
					c-1.02,0-1.97-0.62-2.34-1.63c-0.48-1.29,0.18-2.73,1.48-3.21l46.21-17.1c1.29-0.48,2.73,0.18,3.21,1.48
					c0.48,1.29-0.18,2.73-1.48,3.21l-46.21,17.1C1332.03,1210.29,1331.73,1210.35,1331.44,1210.35z M1423.86,1176.15
					c-1.02,0-1.97-0.62-2.34-1.63c-0.48-1.29,0.18-2.73,1.48-3.21l46.21-17.1c1.29-0.48,2.73,0.18,3.21,1.48s-0.18,2.73-1.48,3.21
					l-46.21,17.1C1424.44,1176.1,1424.15,1176.15,1423.86,1176.15z"/>
			</g>
			<g>
				<path class="st2" d="M1561.23,1146.04c-0.43,0-0.87-0.11-1.27-0.35l-20.47-12.15l-22.33,8.26c-1.29,0.48-2.73-0.18-3.21-1.48
					s0.18-2.73,1.48-3.21l23.45-8.67c0.7-0.26,1.49-0.19,2.14,0.2l21.5,12.76c1.19,0.7,1.58,2.24,0.87,3.43
					C1562.91,1145.61,1562.08,1146.04,1561.23,1146.04z"/>
			</g>
			<g>
				<path class="st2" d="M2271.03,1567.33c-0.43,0-0.87-0.11-1.27-0.35l-44.36-26.33c-1.19-0.7-1.58-2.24-0.87-3.43
					c0.71-1.19,2.24-1.58,3.43-0.87l44.36,26.33c1.19,0.7,1.58,2.24,0.87,3.43C2272.71,1566.89,2271.88,1567.33,2271.03,1567.33z
					 M2182.3,1514.67c-0.43,0-0.87-0.11-1.27-0.35l-44.36-26.33c-1.19-0.7-1.58-2.24-0.87-3.43s2.24-1.58,3.43-0.87l44.36,26.33
					c1.19,0.7,1.58,2.24,0.87,3.43C2183.99,1514.23,2183.15,1514.67,2182.3,1514.67z M2093.58,1462.01c-0.43,0-0.87-0.11-1.27-0.35
					l-44.36-26.33c-1.19-0.7-1.58-2.24-0.87-3.43c0.71-1.19,2.24-1.58,3.43-0.87l44.36,26.33c1.19,0.7,1.58,2.24,0.87,3.43
					C2095.26,1461.57,2094.43,1462.01,2093.58,1462.01z M2004.85,1409.35c-0.43,0-0.87-0.11-1.27-0.35l-44.36-26.33
					c-1.19-0.7-1.58-2.24-0.87-3.43c0.71-1.19,2.24-1.58,3.43-0.87l44.36,26.33c1.19,0.7,1.58,2.24,0.87,3.43
					C2006.54,1408.91,2005.7,1409.35,2004.85,1409.35z M1916.12,1356.69c-0.43,0-0.87-0.11-1.27-0.35l-44.36-26.33
					c-1.19-0.7-1.58-2.24-0.87-3.43c0.71-1.19,2.24-1.58,3.43-0.87l44.36,26.33c1.19,0.7,1.58,2.24,0.87,3.43
					C1917.81,1356.25,1916.98,1356.69,1916.12,1356.69z M1827.4,1304.03c-0.43,0-0.87-0.11-1.27-0.35l-44.36-26.33
					c-1.19-0.7-1.58-2.24-0.87-3.43c0.71-1.19,2.24-1.58,3.43-0.87l44.36,26.33c1.19,0.7,1.58,2.24,0.87,3.43
					C1829.08,1303.59,1828.25,1304.03,1827.4,1304.03z M1738.68,1251.37c-0.43,0-0.87-0.11-1.27-0.35l-44.36-26.33
					c-1.19-0.7-1.58-2.24-0.87-3.43c0.7-1.19,2.24-1.58,3.43-0.87l44.36,26.33c1.19,0.7,1.58,2.24,0.87,3.43
					C1740.36,1250.93,1739.53,1251.37,1738.68,1251.37z M1649.95,1198.7c-0.43,0-0.87-0.11-1.27-0.35l-44.36-26.33
					c-1.19-0.7-1.58-2.24-0.87-3.43c0.71-1.19,2.24-1.58,3.43-0.87l44.36,26.33c1.19,0.7,1.58,2.24,0.87,3.43
					C1651.63,1198.27,1650.8,1198.7,1649.95,1198.7z"/>
			</g>
			<g>
				<path class="st2" d="M2336.89,1606.42c-0.44,0-0.88-0.12-1.28-0.35l-21.5-12.76c-1.19-0.7-1.58-2.24-0.87-3.43
					c0.71-1.19,2.24-1.58,3.43-0.87l20.16,11.97l19.64-12.8c1.16-0.75,2.7-0.43,3.46,0.73c0.75,1.16,0.43,2.71-0.73,3.46
					l-20.94,13.65C2337.84,1606.29,2337.36,1606.42,2336.89,1606.42z"/>
			</g>
			<g>
				<path class="st2" d="M2402.22,1563.85c-0.82,0-1.62-0.4-2.1-1.13c-0.75-1.16-0.43-2.71,0.73-3.46l44.38-28.92
					c1.16-0.75,2.7-0.43,3.46,0.73c0.75,1.16,0.43,2.71-0.73,3.46l-44.38,28.92C2403.16,1563.72,2402.69,1563.85,2402.22,1563.85z
					 M2490.98,1506.01c-0.82,0-1.62-0.4-2.1-1.13c-0.75-1.16-0.43-2.71,0.73-3.46l44.38-28.92c1.16-0.75,2.71-0.43,3.46,0.73
					c0.75,1.16,0.43,2.71-0.73,3.46l-44.38,28.92C2491.92,1505.88,2491.45,1506.01,2490.98,1506.01z M2579.74,1448.16
					c-0.82,0-1.62-0.4-2.1-1.13c-0.75-1.16-0.43-2.71,0.73-3.46l44.38-28.92c1.16-0.75,2.71-0.43,3.46,0.73
					c0.75,1.16,0.43,2.71-0.73,3.46l-44.38,28.92C2580.68,1448.03,2580.21,1448.16,2579.74,1448.16z M2668.51,1390.32
					c-0.82,0-1.62-0.4-2.1-1.13c-0.75-1.16-0.43-2.71,0.73-3.46l44.38-28.92c1.16-0.75,2.7-0.43,3.46,0.73
					c0.75,1.16,0.43,2.71-0.73,3.46l-44.38,28.92C2669.45,1390.19,2668.98,1390.32,2668.51,1390.32z M2757.27,1332.47
					c-0.82,0-1.62-0.4-2.1-1.13c-0.75-1.16-0.43-2.71,0.73-3.46l44.38-28.92c1.16-0.75,2.71-0.43,3.46,0.73
					c0.75,1.16,0.43,2.71-0.73,3.46l-44.38,28.92C2758.21,1332.34,2757.74,1332.47,2757.27,1332.47z M2846.03,1274.63
					c-0.82,0-1.62-0.4-2.1-1.13c-0.75-1.16-0.43-2.71,0.73-3.46l44.38-28.92c1.16-0.75,2.71-0.43,3.46,0.73
					c0.75,1.16,0.43,2.71-0.73,3.46l-44.38,28.92C2846.97,1274.5,2846.5,1274.63,2846.03,1274.63z M2934.8,1216.78
					c-0.82,0-1.62-0.4-2.1-1.13c-0.75-1.16-0.43-2.71,0.73-3.46l44.38-28.92c1.16-0.75,2.71-0.43,3.46,0.73
					c0.75,1.16,0.43,2.71-0.73,3.46l-44.38,28.92C2935.74,1216.65,2935.27,1216.78,2934.8,1216.78z"/>
			</g>
			<g>
				<path class="st2" d="M3023.56,1158.94c-0.82,0-1.62-0.4-2.1-1.13c-0.75-1.16-0.43-2.71,0.73-3.46l20.03-13.06l4.13-23.55
					c0.24-1.36,1.53-2.26,2.89-2.03c1.36,0.24,2.27,1.53,2.03,2.89l-4.32,24.62c-0.12,0.68-0.52,1.28-1.1,1.66l-20.94,13.65
					C3024.5,1158.81,3024.03,1158.94,3023.56,1158.94z"/>
			</g>
			<g>
				<path class="st2" d="M3057.67,1070.19c-0.14,0-0.29-0.01-0.43-0.04c-1.36-0.24-2.27-1.53-2.03-2.89l8.84-50.47
					c0.24-1.36,1.54-2.26,2.89-2.03c1.36,0.24,2.27,1.53,2.03,2.89l-8.84,50.47C3059.91,1069.34,3058.86,1070.19,3057.67,1070.19z
					 M3075.35,969.25c-0.14,0-0.29-0.01-0.43-0.04c-1.36-0.24-2.27-1.53-2.03-2.89l8.84-50.47c0.24-1.36,1.54-2.27,2.89-2.03
					c1.36,0.24,2.27,1.53,2.03,2.89l-8.84,50.47C3077.6,968.39,3076.55,969.25,3075.35,969.25z M3093.04,868.3
					c-0.14,0-0.29-0.01-0.43-0.04c-1.36-0.24-2.27-1.53-2.03-2.89l8.84-50.47c0.24-1.36,1.54-2.26,2.89-2.03
					c1.36,0.24,2.27,1.53,2.03,2.89l-8.84,50.47C3095.29,867.45,3094.24,868.3,3093.04,868.3z M3110.73,767.35
					c-0.14,0-0.29-0.01-0.43-0.04c-1.36-0.24-2.27-1.53-2.03-2.89l8.84-50.47c0.24-1.36,1.54-2.27,2.89-2.03
					c1.36,0.24,2.27,1.53,2.03,2.89l-8.84,50.47C3112.98,766.5,3111.93,767.35,3110.73,767.35z M3128.42,666.41
					c-0.14,0-0.29-0.01-0.43-0.04c-1.36-0.24-2.27-1.53-2.03-2.89l8.84-50.47c0.24-1.36,1.54-2.27,2.89-2.03
					c1.36,0.24,2.27,1.53,2.03,2.89l-8.84,50.47C3130.67,665.55,3129.62,666.41,3128.42,666.41z"/>
			</g>
			<g>
				<path class="st2" d="M3146.11,565.46c-0.14,0-0.29-0.01-0.43-0.04c-1.36-0.24-2.27-1.53-2.03-2.89l3.84-21.92l-22.18-1.75
					c-1.38-0.11-2.4-1.31-2.29-2.69c0.11-1.38,1.3-2.41,2.69-2.3l24.92,1.97c0.7,0.06,1.35,0.4,1.78,0.96
					c0.43,0.56,0.61,1.27,0.49,1.96l-4.31,24.62C3148.36,564.61,3147.31,565.46,3146.11,565.46z"/>
			</g>
			<g>
				<path class="st2" d="M403.7,845.12c-0.93,0-1.83-0.52-2.26-1.42c-0.6-1.25-0.07-2.74,1.17-3.33L448,818.62
					c1.24-0.6,2.74-0.07,3.33,1.17c0.6,1.25,0.07,2.74-1.17,3.33l-45.38,21.75C404.43,845.04,404.06,845.12,403.7,845.12z
					 M494.46,801.63c-0.93,0-1.83-0.52-2.26-1.42c-0.6-1.25-0.07-2.74,1.17-3.34l45.38-21.75c1.25-0.6,2.74-0.07,3.34,1.17
					s0.07,2.74-1.17,3.33l-45.38,21.75C495.19,801.55,494.83,801.63,494.46,801.63z M585.23,758.14c-0.93,0-1.83-0.52-2.26-1.42
					c-0.6-1.25-0.07-2.74,1.17-3.34l45.38-21.75c1.25-0.6,2.74-0.07,3.33,1.17c0.6,1.24,0.07,2.74-1.17,3.33l-45.38,21.75
					C585.96,758.06,585.59,758.14,585.23,758.14z M676,714.65c-0.93,0-1.83-0.52-2.26-1.42c-0.6-1.25-0.07-2.74,1.17-3.33
					l45.38-21.75c1.25-0.6,2.74-0.07,3.33,1.17c0.6,1.25,0.07,2.74-1.17,3.34l-45.38,21.75C676.73,714.57,676.36,714.65,676,714.65z
					 M766.76,671.15c-0.93,0-1.83-0.52-2.26-1.42c-0.6-1.25-0.07-2.74,1.17-3.33l45.38-21.75c1.25-0.6,2.74-0.07,3.33,1.17
					c0.6,1.25,0.07,2.74-1.17,3.33l-45.38,21.75C767.49,671.07,767.12,671.15,766.76,671.15z M857.53,627.66
					c-0.93,0-1.83-0.52-2.26-1.42c-0.6-1.24-0.07-2.74,1.17-3.33l45.38-21.75c1.24-0.59,2.74-0.07,3.34,1.17
					c0.6,1.25,0.07,2.74-1.17,3.34l-45.38,21.75C858.26,627.58,857.89,627.66,857.53,627.66z M948.29,584.17
					c-0.93,0-1.83-0.52-2.26-1.42c-0.6-1.25-0.07-2.74,1.17-3.33l30.03-14.39c0.12-0.06,0.25-0.11,0.38-0.15l16.34-4.77
					c1.33-0.39,2.71,0.37,3.1,1.7c0.39,1.33-0.37,2.71-1.7,3.1l-16.14,4.71l-29.85,14.3C949.02,584.09,948.66,584.17,948.29,584.17z
					 M1042.97,550.9c-1.08,0-2.08-0.71-2.4-1.8c-0.39-1.33,0.37-2.71,1.7-3.1l48.31-14.11c1.33-0.39,2.71,0.37,3.1,1.7
					c0.39,1.33-0.37,2.71-1.7,3.1l-48.31,14.11C1043.44,550.87,1043.2,550.9,1042.97,550.9z M3075.34,534.9c-0.07,0-0.13,0-0.2-0.01
					l-50.17-3.96c-1.38-0.11-2.4-1.31-2.29-2.69c0.11-1.38,1.31-2.41,2.69-2.3l50.17,3.96c1.38,0.11,2.4,1.31,2.29,2.69
					C3077.72,533.91,3076.63,534.9,3075.34,534.9z M2975,526.98c-0.07,0-0.13,0-0.2-0.01l-50.17-3.96c-1.38-0.11-2.4-1.31-2.3-2.69
					c0.11-1.38,1.32-2.41,2.69-2.3l50.17,3.96c1.38,0.11,2.4,1.31,2.29,2.69C2977.39,525.98,2976.29,526.98,2975,526.98z
					 M1139.58,522.69c-1.08,0-2.08-0.71-2.4-1.8c-0.39-1.33,0.37-2.71,1.7-3.1l48.31-14.11c1.33-0.39,2.71,0.37,3.1,1.7
					c0.39,1.33-0.37,2.71-1.7,3.1l-48.31,14.11C1140.05,522.65,1139.81,522.69,1139.58,522.69z M2874.67,519.05
					c-0.07,0-0.13,0-0.2-0.01l-50.17-3.96c-1.38-0.11-2.4-1.31-2.29-2.69c0.11-1.38,1.3-2.41,2.69-2.3l50.17,3.96
					c1.38,0.11,2.4,1.31,2.29,2.69C2877.05,518.06,2875.96,519.05,2874.67,519.05z M2774.33,511.13c-0.07,0-0.13,0-0.2-0.01
					l-50.17-3.96c-1.38-0.11-2.4-1.31-2.29-2.69c0.11-1.38,1.31-2.4,2.69-2.3l50.17,3.96c1.38,0.11,2.4,1.31,2.29,2.69
					C2776.72,510.13,2775.62,511.13,2774.33,511.13z M2674,503.2c-0.07,0-0.13,0-0.2-0.01l-50.17-3.96
					c-1.38-0.11-2.4-1.31-2.29-2.69c0.11-1.38,1.31-2.4,2.69-2.3l50.17,3.96c1.38,0.11,2.4,1.31,2.29,2.69
					C2676.38,502.21,2675.29,503.2,2674,503.2z M2573.66,495.27c-0.07,0-0.13,0-0.2-0.01l-50.17-3.96c-1.38-0.11-2.4-1.31-2.29-2.69
					c0.11-1.38,1.34-2.4,2.69-2.29l50.17,3.96c1.38,0.11,2.4,1.31,2.29,2.69C2576.05,494.28,2574.95,495.27,2573.66,495.27z
					 M1236.19,494.47c-1.08,0-2.08-0.71-2.4-1.8c-0.39-1.33,0.37-2.71,1.7-3.1l48.31-14.11c1.33-0.38,2.71,0.37,3.1,1.7
					c0.39,1.33-0.37,2.71-1.7,3.1l-48.31,14.11C1236.66,494.44,1236.43,494.47,1236.19,494.47z M2473.33,487.35
					c-0.07,0-0.13,0-0.2-0.01l-50.17-3.96c-1.38-0.11-2.4-1.31-2.29-2.69c0.11-1.38,1.31-2.41,2.69-2.3l50.17,3.96
					c1.38,0.11,2.4,1.31,2.29,2.69C2475.71,486.35,2474.62,487.35,2473.33,487.35z M2373.06,478.77c-0.1,0-0.2-0.01-0.29-0.02
					l-49.98-5.89c-1.37-0.16-2.35-1.4-2.19-2.78c0.16-1.37,1.42-2.35,2.78-2.19l49.98,5.89c1.37,0.16,2.35,1.4,2.19,2.78
					C2375.39,477.83,2374.31,478.77,2373.06,478.77z M2273.1,466.99c-0.1,0-0.2-0.01-0.3-0.02l-49.98-5.89
					c-1.37-0.16-2.35-1.4-2.19-2.78c0.16-1.37,1.42-2.35,2.77-2.19l49.98,5.89c1.37,0.16,2.35,1.4,2.19,2.78
					C2275.43,466.05,2274.35,466.99,2273.1,466.99z M1332.81,466.26c-1.08,0-2.08-0.71-2.4-1.8c-0.39-1.33,0.37-2.71,1.7-3.1
					l48.31-14.11c1.32-0.39,2.71,0.37,3.1,1.7c0.39,1.33-0.37,2.71-1.7,3.1l-48.31,14.11
					C1333.27,466.23,1333.04,466.26,1332.81,466.26z M2173.14,455.21c-0.1,0-0.2-0.01-0.3-0.02l-49.98-5.89
					c-1.37-0.16-2.35-1.4-2.19-2.78c0.16-1.37,1.4-2.35,2.78-2.19l49.98,5.89c1.37,0.16,2.35,1.4,2.19,2.78
					C2175.47,454.28,2174.39,455.21,2173.14,455.21z M2073.19,443.43c-0.1,0-0.2-0.01-0.3-0.02l-49.98-5.89
					c-1.37-0.16-2.35-1.4-2.19-2.78c0.16-1.37,1.4-2.35,2.78-2.19l49.98,5.89c1.37,0.16,2.35,1.4,2.19,2.78
					C2075.52,442.5,2074.44,443.43,2073.19,443.43z M1429.42,438.05c-1.08,0-2.08-0.71-2.4-1.8c-0.39-1.33,0.37-2.71,1.7-3.1
					l48.31-14.11c1.33-0.39,2.71,0.37,3.1,1.7c0.39,1.33-0.37,2.71-1.7,3.1l-48.31,14.11
					C1429.89,438.01,1429.65,438.05,1429.42,438.05z M1973.23,431.66c-0.1,0-0.2-0.01-0.3-0.02l-49.98-5.89
					c-1.37-0.16-2.35-1.4-2.19-2.78c0.16-1.37,1.4-2.35,2.78-2.19l49.98,5.89c1.37,0.16,2.35,1.4,2.19,2.78
					C1975.56,430.72,1974.48,431.66,1973.23,431.66z M1873.28,419.88c-0.1,0-0.2-0.01-0.3-0.02l-49.98-5.89
					c-1.37-0.16-2.35-1.4-2.19-2.78c0.16-1.37,1.4-2.35,2.78-2.19l49.98,5.89c1.37,0.16,2.35,1.4,2.19,2.78
					C1875.61,418.94,1874.53,419.88,1873.28,419.88z M1526.03,409.83c-1.08,0-2.08-0.71-2.4-1.8c-0.39-1.33,0.37-2.71,1.7-3.1
					l48.31-14.11c1.33-0.39,2.71,0.37,3.1,1.7c0.39,1.33-0.37,2.71-1.7,3.1l-48.31,14.11
					C1526.5,409.8,1526.26,409.83,1526.03,409.83z M1773.32,408.1c-0.1,0-0.2-0.01-0.29-0.02l-49.98-5.89
					c-1.37-0.16-2.35-1.4-2.19-2.78c0.16-1.37,1.41-2.35,2.78-2.19l49.98,5.89c1.37,0.16,2.35,1.4,2.19,2.78
					C1775.65,407.16,1774.57,408.1,1773.32,408.1z M1673.36,396.32c-0.1,0-0.2-0.01-0.29-0.02l-49.98-5.89
					c-1.37-0.16-2.35-1.4-2.19-2.78c0.16-1.37,1.42-2.35,2.77-2.19l49.98,5.89c1.37,0.16,2.35,1.4,2.19,2.78
					C1675.69,395.38,1674.61,396.32,1673.36,396.32z"/>
			</g>
		</g>
		<g>
			<g>
				<path class="st2" d="M380.69,887.24c-0.17,0-0.35-0.02-0.52-0.06l-24.46-5.19c-1.35-0.29-2.21-1.61-1.93-2.96
					c0.29-1.35,1.61-2.21,2.96-1.93l24.46,5.19c1.35,0.29,2.21,1.61,1.93,2.96C382.88,886.43,381.85,887.24,380.69,887.24z"/>
			</g>
			<g>
				<path class="st2" d="M1465.95,1117.62c-0.17,0-0.35-0.02-0.52-0.06l-49.33-10.47c-1.35-0.29-2.21-1.61-1.93-2.96
					c0.29-1.35,1.61-2.21,2.96-1.93l49.33,10.47c1.35,0.29,2.21,1.61,1.93,2.96C1468.14,1116.81,1467.1,1117.62,1465.95,1117.62z
					 M1367.29,1096.68c-0.17,0-0.35-0.02-0.52-0.05l-49.33-10.47c-1.35-0.29-2.21-1.61-1.93-2.96c0.29-1.35,1.61-2.21,2.96-1.93
					l49.33,10.47c1.35,0.29,2.21,1.61,1.93,2.96C1369.48,1095.87,1368.44,1096.68,1367.29,1096.68z M1268.63,1075.73
					c-0.17,0-0.35-0.02-0.52-0.06l-49.33-10.47c-1.35-0.29-2.21-1.61-1.93-2.96c0.29-1.35,1.61-2.21,2.96-1.93l49.33,10.47
					c1.35,0.29,2.21,1.61,1.93,2.96C1270.82,1074.93,1269.78,1075.73,1268.63,1075.73z M1169.97,1054.79
					c-0.17,0-0.35-0.02-0.52-0.05l-49.33-10.47c-1.35-0.29-2.21-1.61-1.93-2.96c0.29-1.35,1.61-2.21,2.96-1.93l49.33,10.47
					c1.35,0.29,2.21,1.61,1.93,2.96C1172.16,1053.98,1171.12,1054.79,1169.97,1054.79z M1071.31,1033.84
					c-0.17,0-0.35-0.02-0.52-0.06l-49.33-10.47c-1.35-0.29-2.21-1.61-1.93-2.96c0.29-1.35,1.61-2.21,2.96-1.93l49.33,10.47
					c1.35,0.29,2.21,1.61,1.93,2.96C1073.5,1033.04,1072.46,1033.84,1071.31,1033.84z M972.65,1012.9c-0.17,0-0.35-0.02-0.52-0.06
					l-49.33-10.47c-1.35-0.29-2.21-1.61-1.93-2.96c0.29-1.35,1.6-2.21,2.96-1.93l49.33,10.47c1.35,0.29,2.21,1.61,1.93,2.96
					C974.84,1012.09,973.8,1012.9,972.65,1012.9z M873.99,991.96c-0.17,0-0.35-0.02-0.52-0.06l-49.33-10.47
					c-1.35-0.29-2.21-1.61-1.93-2.96c0.29-1.35,1.61-2.21,2.96-1.93l49.33,10.47c1.35,0.29,2.21,1.61,1.93,2.96
					C876.18,991.15,875.14,991.96,873.99,991.96z M775.33,971.01c-0.17,0-0.35-0.02-0.52-0.06l-49.33-10.47
					c-1.35-0.29-2.21-1.61-1.93-2.96c0.29-1.35,1.61-2.21,2.96-1.93l49.33,10.47c1.35,0.29,2.21,1.61,1.93,2.96
					C777.52,970.21,776.49,971.01,775.33,971.01z M676.67,950.07c-0.17,0-0.35-0.02-0.52-0.05l-49.33-10.47
					c-1.35-0.29-2.21-1.61-1.93-2.96c0.29-1.35,1.61-2.21,2.96-1.93l49.33,10.47c1.35,0.29,2.21,1.61,1.93,2.96
					C678.86,949.26,677.83,950.07,676.67,950.07z M578.01,929.12c-0.17,0-0.35-0.02-0.52-0.06l-49.33-10.47
					c-1.35-0.29-2.21-1.61-1.93-2.96c0.29-1.35,1.61-2.21,2.96-1.93l49.33,10.47c1.35,0.29,2.21,1.61,1.93,2.96
					C580.2,928.32,579.17,929.12,578.01,929.12z M479.35,908.18c-0.17,0-0.35-0.02-0.52-0.05l-49.33-10.47
					c-1.35-0.29-2.21-1.61-1.93-2.96c0.29-1.35,1.61-2.21,2.96-1.93l49.33,10.47c1.35,0.29,2.21,1.61,1.93,2.96
					C481.54,907.37,480.51,908.18,479.35,908.18z"/>
			</g>
			<g>
				<path class="st2" d="M1539.73,1133.28c-0.17,0-0.35-0.02-0.52-0.05l-24.46-5.19c-1.35-0.29-2.21-1.61-1.93-2.96
					c0.29-1.35,1.61-2.21,2.96-1.93l21.76,4.62l2.49-22.1c0.15-1.37,1.4-2.36,2.76-2.21c1.37,0.15,2.36,1.39,2.21,2.76l-2.8,24.84
					c-0.08,0.7-0.45,1.34-1.02,1.75C1540.76,1133.12,1540.25,1133.28,1539.73,1133.28z"/>
			</g>
			<g>
				<path class="st2" d="M1548.35,1056.76c-0.09,0-0.19,0-0.28-0.02c-1.37-0.15-2.36-1.39-2.21-2.76l5.82-51.68
					c0.15-1.37,1.39-2.36,2.76-2.21c1.37,0.15,2.36,1.39,2.21,2.76l-5.82,51.68C1550.69,1055.82,1549.61,1056.76,1548.35,1056.76z
					 M1559.99,953.4c-0.09,0-0.19,0-0.28-0.02c-1.37-0.15-2.36-1.39-2.21-2.76l5.82-51.68c0.15-1.37,1.4-2.36,2.76-2.21
					c1.37,0.15,2.36,1.39,2.21,2.76l-5.82,51.68C1562.33,952.46,1561.25,953.4,1559.99,953.4z M1571.63,850.04
					c-0.09,0-0.19,0-0.28-0.02c-1.37-0.15-2.36-1.39-2.21-2.76l5.82-51.68c0.15-1.37,1.4-2.36,2.76-2.21
					c1.37,0.15,2.36,1.39,2.21,2.76l-5.82,51.68C1573.97,849.1,1572.88,850.04,1571.63,850.04z M1583.27,746.68
					c-0.09,0-0.19,0-0.28-0.02c-1.37-0.15-2.36-1.39-2.21-2.76l5.82-51.68c0.15-1.37,1.38-2.36,2.76-2.2
					c1.37,0.15,2.36,1.39,2.2,2.76l-5.82,51.68C1585.61,745.73,1584.52,746.68,1583.27,746.68z M1594.91,643.32
					c-0.09,0-0.19,0-0.28-0.02c-1.37-0.15-2.36-1.39-2.21-2.76l5.82-51.68c0.16-1.37,1.39-2.36,2.76-2.2
					c1.37,0.15,2.36,1.39,2.2,2.76l-5.82,51.68C1597.25,642.37,1596.16,643.32,1594.91,643.32z M1606.55,539.96
					c-0.09,0-0.19-0.01-0.28-0.02c-1.37-0.15-2.36-1.39-2.21-2.76l5.82-51.68c0.15-1.37,1.4-2.36,2.76-2.2
					c1.37,0.15,2.36,1.39,2.21,2.76l-5.82,51.68C1608.88,539.01,1607.8,539.96,1606.55,539.96z"/>
			</g>
			<g>
				<path class="st2" d="M1618.19,436.6c-0.09,0-0.19,0-0.28-0.02c-1.37-0.15-2.36-1.39-2.2-2.76l2.8-24.84
					c0.15-1.37,1.4-2.35,2.76-2.2c1.37,0.15,2.36,1.39,2.21,2.76l-2.8,24.84C1620.52,435.65,1619.44,436.6,1618.19,436.6z"/>
			</g>
		</g>
		<g>
			<g>
				<path class="st2" d="M565.65,1531.44c-0.04,0-0.08,0-0.12,0l-24.97-1.16c-1.38-0.06-2.45-1.23-2.38-2.61
					c0.06-1.38,1.26-2.45,2.61-2.38l24.97,1.16c1.38,0.06,2.45,1.23,2.38,2.61C568.08,1530.39,566.97,1531.44,565.65,1531.44z"/>
			</g>
			<g>
				<path class="st2" d="M2097.86,1602.88c-0.04,0-0.08,0-0.12,0l-51.07-2.38c-1.38-0.06-2.45-1.23-2.38-2.61
					c0.06-1.38,1.26-2.44,2.61-2.38l51.07,2.38c1.38,0.06,2.45,1.23,2.38,2.61C2100.29,1601.83,2099.18,1602.88,2097.86,1602.88z
					 M1995.71,1598.11c-0.04,0-0.08,0-0.12,0l-51.07-2.38c-1.38-0.06-2.45-1.23-2.38-2.61s1.25-2.43,2.61-2.38l51.07,2.38
					c1.38,0.06,2.45,1.23,2.38,2.61C1998.14,1597.07,1997.04,1598.11,1995.71,1598.11z M1893.56,1593.35c-0.04,0-0.08,0-0.12,0
					l-51.07-2.38c-1.38-0.06-2.45-1.23-2.38-2.61s1.27-2.45,2.61-2.38l51.07,2.38c1.38,0.06,2.45,1.23,2.38,2.61
					C1895.99,1592.31,1894.89,1593.35,1893.56,1593.35z M1791.41,1588.59c-0.04,0-0.08,0-0.12,0l-51.07-2.38
					c-1.38-0.06-2.45-1.23-2.38-2.61s1.26-2.43,2.61-2.38l51.07,2.38c1.38,0.06,2.45,1.23,2.38,2.61
					C1793.85,1587.54,1792.74,1588.59,1791.41,1588.59z M1689.27,1583.83c-0.04,0-0.08,0-0.12,0l-51.07-2.38
					c-1.38-0.06-2.45-1.23-2.38-2.61c0.07-1.38,1.21-2.45,2.61-2.38l51.07,2.38c1.38,0.06,2.45,1.23,2.38,2.61
					C1691.7,1582.78,1690.59,1583.83,1689.27,1583.83z M1587.12,1579.06c-0.04,0-0.08,0-0.12,0l-51.07-2.38
					c-1.38-0.06-2.45-1.23-2.38-2.61s1.2-2.44,2.61-2.38l51.07,2.38c1.38,0.06,2.45,1.23,2.38,2.61
					C1589.55,1578.02,1588.45,1579.06,1587.12,1579.06z M1484.97,1574.3c-0.04,0-0.08,0-0.12,0l-51.07-2.38
					c-1.38-0.06-2.45-1.23-2.38-2.61s1.23-2.46,2.61-2.38l51.07,2.38c1.38,0.06,2.45,1.23,2.38,2.61
					C1487.41,1573.26,1486.3,1574.3,1484.97,1574.3z M1382.83,1569.54c-0.04,0-0.08,0-0.12,0l-51.07-2.38
					c-1.38-0.06-2.45-1.23-2.38-2.61c0.07-1.38,1.22-2.44,2.61-2.38l51.07,2.38c1.38,0.06,2.45,1.23,2.38,2.61
					C1385.26,1568.49,1384.15,1569.54,1382.83,1569.54z M1280.68,1564.78c-0.04,0-0.08,0-0.12,0l-51.07-2.38
					c-1.38-0.06-2.45-1.23-2.38-2.61s1.24-2.43,2.61-2.38l51.07,2.38c1.38,0.06,2.45,1.23,2.38,2.61
					C1283.11,1563.73,1282,1564.78,1280.68,1564.78z M1178.53,1560.01c-0.04,0-0.08,0-0.12,0l-51.07-2.38
					c-1.38-0.06-2.45-1.23-2.38-2.61c0.06-1.38,1.26-2.45,2.61-2.38l51.07,2.38c1.38,0.06,2.45,1.23,2.38,2.61
					C1180.96,1558.97,1179.86,1560.01,1178.53,1560.01z M1076.38,1555.25c-0.04,0-0.08,0-0.12,0l-51.07-2.38
					c-1.38-0.06-2.45-1.23-2.38-2.61c0.07-1.38,1.22-2.43,2.61-2.38l51.07,2.38c1.38,0.06,2.45,1.23,2.38,2.61
					C1078.82,1554.21,1077.71,1555.25,1076.38,1555.25z M974.24,1550.49c-0.04,0-0.08,0-0.12,0l-51.07-2.38
					c-1.38-0.06-2.45-1.23-2.38-2.61c0.06-1.38,1.24-2.45,2.61-2.38l51.07,2.38c1.38,0.06,2.45,1.23,2.38,2.61
					C976.67,1549.44,975.56,1550.49,974.24,1550.49z M872.09,1545.72c-0.04,0-0.08,0-0.12,0l-51.07-2.38
					c-1.38-0.06-2.45-1.23-2.38-2.61c0.06-1.38,1.26-2.44,2.61-2.38l51.07,2.38c1.38,0.06,2.45,1.23,2.38,2.61
					C874.52,1544.68,873.41,1545.72,872.09,1545.72z M769.94,1540.96c-0.04,0-0.08,0-0.12,0l-51.07-2.38
					c-1.38-0.06-2.45-1.23-2.38-2.61c0.06-1.38,1.22-2.46,2.61-2.38l51.07,2.38c1.38,0.06,2.45,1.23,2.38,2.61
					C772.37,1539.92,771.27,1540.96,769.94,1540.96z M667.79,1536.2c-0.04,0-0.08,0-0.12,0l-51.07-2.38
					c-1.38-0.06-2.45-1.23-2.38-2.61c0.06-1.38,1.22-2.44,2.61-2.38l51.07,2.38c1.38,0.06,2.45,1.23,2.38,2.61
					C670.23,1535.16,669.12,1536.2,667.79,1536.2z"/>
			</g>
			<g>
				<path class="st2" d="M2173.9,1606.42c-0.04,0-0.08,0-0.12,0l-24.97-1.17c-1.38-0.06-2.45-1.23-2.38-2.61s1.27-2.43,2.61-2.38
					l24.97,1.17c1.38,0.06,2.45,1.23,2.38,2.61C2176.34,1605.38,2175.23,1606.42,2173.9,1606.42z"/>
			</g>
		</g>
		<g>
			<g>
				<path class="st2" d="M3095.31,1231.51c-0.59,0-1.18-0.21-1.66-0.63l-18.68-16.62c-1.03-0.92-1.12-2.5-0.21-3.53
					c0.92-1.03,2.5-1.13,3.53-0.21l18.68,16.62c1.03,0.92,1.12,2.5,0.21,3.53C3096.68,1231.23,3096,1231.51,3095.31,1231.51z"/>
			</g>
			<g>
				<path class="st2" d="M3039.37,1181.74c-0.59,0-1.18-0.21-1.66-0.63l-37.27-33.16c-1.03-0.92-1.12-2.5-0.21-3.53
					c0.92-1.03,2.5-1.12,3.53-0.21l37.27,33.16c1.03,0.92,1.12,2.5,0.21,3.53C3040.74,1181.45,3040.06,1181.74,3039.37,1181.74z
					 M2964.83,1115.42c-0.59,0-1.18-0.21-1.66-0.63l-37.27-33.16c-1.03-0.92-1.12-2.5-0.21-3.53c0.92-1.03,2.5-1.12,3.53-0.21
					l37.27,33.16c1.03,0.92,1.12,2.5,0.21,3.53C2966.21,1115.14,2965.52,1115.42,2964.83,1115.42z M2890.3,1049.11
					c-0.59,0-1.18-0.21-1.66-0.63l-37.27-33.16c-1.03-0.92-1.12-2.5-0.21-3.53c0.92-1.03,2.5-1.12,3.53-0.21l37.27,33.16
					c1.03,0.92,1.12,2.5,0.21,3.53C2891.68,1048.82,2890.99,1049.11,2890.3,1049.11z M2815.77,982.79c-0.59,0-1.18-0.21-1.66-0.63
					L2776.85,949c-1.03-0.92-1.12-2.5-0.21-3.53c0.92-1.03,2.5-1.12,3.53-0.21l37.27,33.16c1.03,0.92,1.12,2.5,0.21,3.53
					C2817.15,982.51,2816.46,982.79,2815.77,982.79z M2741.24,916.48c-0.59,0-1.18-0.21-1.66-0.63l-37.27-33.16
					c-1.03-0.92-1.12-2.5-0.21-3.53c0.92-1.03,2.5-1.12,3.53-0.21l37.27,33.16c1.03,0.92,1.12,2.5,0.21,3.53
					C2742.62,916.19,2741.93,916.48,2741.24,916.48z M2666.71,850.16c-0.59,0-1.18-0.21-1.66-0.63l-37.27-33.16
					c-1.03-0.92-1.12-2.5-0.21-3.53c0.92-1.03,2.5-1.12,3.53-0.21l37.27,33.16c1.03,0.92,1.12,2.5,0.21,3.53
					C2668.08,849.88,2667.4,850.16,2666.71,850.16z M2592.18,783.85c-0.59,0-1.18-0.21-1.66-0.63l-37.27-33.16
					c-1.03-0.92-1.12-2.5-0.21-3.53c0.92-1.03,2.5-1.12,3.53-0.21l37.27,33.16c1.03,0.92,1.12,2.5,0.21,3.53
					C2593.55,783.56,2592.87,783.85,2592.18,783.85z M2517.65,717.53c-0.59,0-1.18-0.21-1.66-0.63l-37.27-33.16
					c-1.03-0.92-1.12-2.5-0.21-3.53c0.92-1.03,2.5-1.12,3.53-0.21l37.27,33.16c1.03,0.92,1.12,2.5,0.21,3.53
					C2519.02,717.25,2518.33,717.53,2517.65,717.53z"/>
			</g>
			<g>
				<path class="st2" d="M2443.12,651.22c-0.59,0-1.18-0.21-1.66-0.63l-17.3-15.39l-19.81,11.99c-1.18,0.71-2.72,0.34-3.43-0.85
					c-0.71-1.18-0.34-2.72,0.84-3.43l21.39-12.94c0.94-0.57,2.14-0.46,2.96,0.27l18.68,16.62c1.03,0.92,1.12,2.5,0.21,3.53
					C2444.49,650.93,2443.8,651.22,2443.12,651.22z"/>
			</g>
			<g>
				<path class="st2" d="M1662.65,1095.46c-0.85,0-1.67-0.43-2.14-1.21c-0.71-1.18-0.34-2.72,0.84-3.43l41.13-24.88
					c1.18-0.72,2.72-0.34,3.43,0.84c0.71,1.18,0.34,2.72-0.84,3.43l-41.13,24.88C1663.54,1095.34,1663.09,1095.46,1662.65,1095.46z
					 M1744.92,1045.69c-0.85,0-1.67-0.43-2.14-1.21c-0.71-1.18-0.34-2.72,0.84-3.43l41.13-24.88c1.18-0.71,2.72-0.34,3.43,0.84
					c0.71,1.18,0.34,2.72-0.84,3.43l-41.13,24.88C1745.81,1045.57,1745.36,1045.69,1744.92,1045.69z M1827.19,995.92
					c-0.85,0-1.67-0.43-2.14-1.21c-0.71-1.18-0.34-2.72,0.84-3.43l41.13-24.88c1.18-0.71,2.72-0.34,3.43,0.84
					c0.71,1.18,0.34,2.72-0.84,3.43l-41.13,24.88C1828.07,995.8,1827.63,995.92,1827.19,995.92z M1909.45,946.15
					c-0.85,0-1.67-0.43-2.14-1.21c-0.71-1.18-0.34-2.72,0.84-3.43l41.13-24.88c1.18-0.71,2.72-0.34,3.43,0.84
					c0.71,1.18,0.34,2.72-0.84,3.43l-41.13,24.88C1910.34,946.04,1909.89,946.15,1909.45,946.15z M1991.72,896.38
					c-0.85,0-1.67-0.43-2.14-1.21c-0.71-1.18-0.34-2.72,0.84-3.43l41.13-24.88c1.18-0.71,2.72-0.34,3.43,0.84
					c0.71,1.18,0.34,2.72-0.84,3.43l-41.13,24.88C1992.61,896.27,1992.16,896.38,1991.72,896.38z M2073.99,846.61
					c-0.85,0-1.67-0.43-2.14-1.21c-0.71-1.18-0.34-2.72,0.84-3.43l41.13-24.88c1.18-0.71,2.72-0.34,3.43,0.84
					c0.71,1.18,0.34,2.72-0.84,3.43l-41.13,24.88C2074.87,846.5,2074.43,846.61,2073.99,846.61z M2156.25,796.85
					c-0.85,0-1.67-0.43-2.14-1.21c-0.71-1.18-0.34-2.72,0.84-3.43l41.13-24.88c1.18-0.71,2.72-0.34,3.43,0.84
					c0.71,1.18,0.34,2.72-0.84,3.43l-41.13,24.88C2157.14,796.73,2156.69,796.85,2156.25,796.85z M2238.52,747.08
					c-0.85,0-1.67-0.43-2.14-1.21c-0.71-1.18-0.34-2.72,0.84-3.43l41.13-24.88c1.18-0.71,2.72-0.34,3.43,0.85
					c0.71,1.18,0.34,2.72-0.84,3.43l-41.13,24.88C2239.41,746.96,2238.96,747.08,2238.52,747.08z M2320.79,697.31
					c-0.85,0-1.67-0.43-2.14-1.21c-0.71-1.18-0.34-2.72,0.84-3.43l41.13-24.88c1.18-0.71,2.72-0.34,3.43,0.85
					c0.71,1.18,0.34,2.72-0.84,3.43l-41.13,24.88C2321.67,697.19,2321.23,697.31,2320.79,697.31z"/>
			</g>
			<g>
				<path class="st2" d="M1600.13,1133.28c-0.85,0-1.67-0.43-2.14-1.21c-0.71-1.18-0.34-2.72,0.84-3.43l21.39-12.94
					c1.18-0.71,2.72-0.34,3.43,0.84c0.71,1.18,0.34,2.72-0.84,3.43l-21.39,12.94C1601.02,1133.17,1600.57,1133.28,1600.13,1133.28z"
					/>
			</g>
		</g>
		<g>
			<g>
				<path class="st2" d="M3096.7,592.27c-0.6,0-1.2-0.21-1.68-0.65c-1.02-0.93-1.1-2.51-0.17-3.53l16.81-18.5
					c0.93-1.02,2.51-1.1,3.53-0.17c1.02,0.93,1.1,2.51,0.17,3.53l-16.81,18.5C3098.06,592,3097.38,592.27,3096.7,592.27z"/>
			</g>
			<g>
				<path class="st2" d="M2337.36,1428.09c-0.6,0-1.2-0.21-1.68-0.65c-1.02-0.93-1.1-2.51-0.17-3.53l34.52-37.99
					c0.93-1.02,2.51-1.1,3.53-0.17c1.02,0.93,1.1,2.51,0.17,3.53l-34.52,37.99C2338.72,1427.82,2338.04,1428.09,2337.36,1428.09z
					 M2406.39,1352.11c-0.6,0-1.2-0.21-1.68-0.65c-1.02-0.93-1.1-2.51-0.17-3.53l34.52-37.99c0.93-1.02,2.51-1.1,3.53-0.17
					c1.02,0.93,1.1,2.51,0.17,3.53l-34.52,37.99C2407.75,1351.83,2407.07,1352.11,2406.39,1352.11z M2475.42,1276.12
					c-0.6,0-1.2-0.21-1.68-0.65c-1.02-0.93-1.1-2.51-0.17-3.53l34.52-37.99c0.93-1.02,2.51-1.1,3.53-0.17
					c1.02,0.93,1.1,2.51,0.17,3.53l-34.52,37.99C2476.78,1275.85,2476.1,1276.12,2475.42,1276.12z M2544.45,1200.14
					c-0.6,0-1.2-0.21-1.68-0.65c-1.02-0.93-1.1-2.51-0.17-3.53l34.52-37.99c0.93-1.02,2.51-1.1,3.53-0.17
					c1.02,0.93,1.1,2.51,0.17,3.53l-34.52,37.99C2545.81,1199.86,2545.13,1200.14,2544.45,1200.14z M2613.48,1124.16
					c-0.6,0-1.2-0.21-1.68-0.65c-1.02-0.93-1.1-2.51-0.17-3.53l34.51-37.99c0.93-1.02,2.51-1.1,3.53-0.17
					c1.02,0.93,1.1,2.51,0.17,3.53l-34.51,37.99C2614.84,1123.88,2614.16,1124.16,2613.48,1124.16z M2682.51,1048.17
					c-0.6,0-1.2-0.21-1.68-0.65c-1.02-0.93-1.1-2.51-0.17-3.53l34.52-37.99c0.93-1.02,2.51-1.1,3.53-0.17
					c1.02,0.93,1.1,2.51,0.17,3.53l-34.52,37.99C2683.87,1047.9,2683.19,1048.17,2682.51,1048.17z M2751.54,972.19
					c-0.6,0-1.2-0.21-1.68-0.65c-1.02-0.93-1.1-2.51-0.17-3.53l34.52-37.99c0.93-1.02,2.51-1.1,3.53-0.17
					c1.02,0.93,1.1,2.51,0.17,3.53l-34.52,37.99C2752.9,971.91,2752.22,972.19,2751.54,972.19z M2820.57,896.21
					c-0.6,0-1.2-0.21-1.68-0.65c-1.02-0.93-1.1-2.51-0.17-3.53l34.52-37.99c0.93-1.02,2.51-1.1,3.53-0.17
					c1.02,0.93,1.1,2.51,0.17,3.53l-34.52,37.99C2821.93,895.93,2821.25,896.21,2820.57,896.21z M2889.61,820.22
					c-0.6,0-1.2-0.21-1.68-0.65c-1.02-0.93-1.1-2.51-0.17-3.53l34.52-37.99c0.93-1.02,2.51-1.1,3.53-0.17
					c1.02,0.93,1.1,2.51,0.17,3.53l-34.52,37.99C2890.96,819.95,2890.29,820.22,2889.61,820.22z M2958.64,744.24
					c-0.6,0-1.2-0.21-1.68-0.65c-1.02-0.93-1.1-2.51-0.17-3.53l34.51-37.99c0.93-1.02,2.51-1.1,3.53-0.17
					c1.02,0.93,1.1,2.51,0.17,3.53l-34.51,37.99C2960,743.96,2959.32,744.24,2958.64,744.24z M3027.67,668.26
					c-0.6,0-1.2-0.21-1.68-0.65c-1.02-0.93-1.1-2.51-0.17-3.53l34.52-37.99c0.93-1.02,2.51-1.1,3.53-0.17
					c1.02,0.93,1.1,2.51,0.17,3.53l-34.52,37.99C3029.03,667.98,3028.35,668.26,3027.67,668.26z"/>
			</g>
			<g>
				<path class="st2" d="M2286.03,1484.59c-0.6,0-1.2-0.21-1.68-0.65c-1.02-0.93-1.1-2.51-0.17-3.53l16.81-18.5
					c0.93-1.02,2.51-1.1,3.53-0.17c1.02,0.93,1.1,2.51,0.17,3.53l-16.81,18.5C2287.39,1484.31,2286.71,1484.59,2286.03,1484.59z"/>
			</g>
		</g>
	</g>
	<g>
		<defs>
			
				<ellipse id="SVGID_1_" transform="matrix(0.7071 -0.7071 0.7071 0.7071 -321.992 1425.5042)" cx="1559.74" cy="1101.43" rx="320.17" ry="320.17"/>
		</defs>
		<clipPath id="SVGID_00000155852900912199309540000012898421583926545826_">
			<use xlink:href="#SVGID_1_"  style="overflow:visible;"/>
		</clipPath>
		
			<ellipse transform="matrix(0.7071 -0.7071 0.7071 0.7071 -321.992 1425.5042)" style="clip-path:url(#SVGID_00000155852900912199309540000012898421583926545826_);fill:#D5CFFF;" cx="1559.74" cy="1101.43" rx="320.17" ry="320.17"/>
		<g style="clip-path:url(#SVGID_00000155852900912199309540000012898421583926545826_);">
			<path class="st5" d="M1508.01,843.52c48.64-43.32,84.35-17.48,110.95,11.4c21.2,23.02,24.16,28.12,41.67,51.97
				c2.6,3.54,4.6,7.47,4.68,11.86c0.49,26.36,13.98,137.84-1.01,176.3c-17.48,44.84-233.04,65.35-233.04,65.35L1508.01,843.52z"/>
			<g>
				<path class="st5" d="M1646.06,1120.8c-1.29,0-2.37-1.01-2.43-2.31c-0.07-1.34,0.97-2.49,2.31-2.56
					c6.33-0.32,11.48-3.17,15.76-8.71c24.12-31.25,10.53-135.72-1.3-192.53c-0.27-1.32,0.57-2.61,1.89-2.88
					c1.31-0.28,2.61,0.57,2.88,1.89c2.59,12.42,11.24,56.49,13.94,102.4c2.78,47.19-1.78,78.85-13.55,94.09
					c-5.12,6.64-11.64,10.21-19.37,10.6C1646.15,1120.8,1646.1,1120.8,1646.06,1120.8z"/>
			</g>
			<path class="st5" d="M1526.25,830.61c-93.47,51.67-36.48,226.46-155.02,288.77c-32.84,17.26-133.75,104.87-67.63,220.38
				c43.25,75.56,172.5,59.27,215.06-7.6S1526.25,830.61,1526.25,830.61z"/>
			<g>
				<path class="st5" d="M1277.51,1228.2c-0.11,0-0.21-0.01-0.32-0.02c-1.33-0.18-2.27-1.4-2.09-2.74
					c0.08-0.62,2.12-15.36,11.46-34.89c8.6-18,25.3-43.55,56.02-63.1c54.81-34.88,91.19-67.75,134.22-229.84
					c0.34-1.3,1.68-2.07,2.98-1.73c1.3,0.34,2.08,1.68,1.73,2.98c-20.81,78.38-41.44,131.38-64.94,166.78
					c-21.83,32.89-44.29,48.69-71.38,65.92c-56.9,36.21-65.18,93.94-65.26,94.52C1279.76,1227.31,1278.71,1228.2,1277.51,1228.2z"/>
			</g>
			<g>
				<path class="st5" d="M1279.55,1182.94c-0.45,0-0.9-0.12-1.3-0.38c-1.14-0.72-1.48-2.22-0.76-3.36
					c13.57-21.48,30.86-39.1,51.38-52.37c76.97-49.78,89.71-78.41,153.32-242.39c0.49-1.25,1.9-1.88,3.15-1.39
					c1.25,0.49,1.88,1.9,1.39,3.15c-31.81,82.03-50.83,130.09-71.63,164.17c-22.35,36.62-47.57,57.26-83.58,80.55
					c-19.92,12.88-36.71,30-49.9,50.88C1281.15,1182.54,1280.36,1182.94,1279.55,1182.94z"/>
			</g>
			<path class="st6" d="M1523.02,939.68c-32.18,66.84-27.23,127.49-27.23,127.49s3.71,23.52,18.57,28.47
				c14.85,4.95,35.9-9.9,34.66-29.71c-1.24-19.8,4.95-68.08,12.38-85.41C1568.82,963.19,1523.02,939.68,1523.02,939.68z"/>
			<path class="st7" d="M1352.99,1404.09c2.03,18.24-2.53,16.72,13.68,19.76c16.21,3.04,45.09-8.11,45.09-8.11l-32.42-60.29
				L1352.99,1404.09z"/>
			<path class="st6" d="M1499.67,1031.27c-9.12,29.64-77.51,6.84-101.44,13.68c-23.94,6.84-44.45,107.14-47.87,197.19
				c-3.42,90.05,1.14,161.85,10.26,173.25s159.58,15.96,173.25,11.4s-113.98-61.55-113.98-61.55s-7.98-104.86,2.28-158.44
				c10.26-53.57,102.58-124.24,102.58-124.24L1499.67,1031.27z"/>
			<path class="st6" d="M1531.59,1040.39c23.94,36.47,86.63,31.92,108.28,61.55c21.66,29.63,67.25,192.63,67.25,192.63L1755,1129.3
				c0,0,38.82-6.52,26.22,20.52c-22.42,48.09-30.78,203.24-55.1,225.28c-27.04,24.51-53.95,4.56-69.14-38.34
				c-14.69-41.5-51.29-131.08-77.51-165.27c-26.22-34.2-54.71-88.91-54.71-88.91L1531.59,1040.39z"/>
			<path class="st8" d="M1427.87,1044.95c47.87,55.85,141.34,53.57,161.86,46.73c20.52-6.84,20.52-6.84,20.52-6.84
				s15.96-5.7,29.64,10.26c13.68,15.96,46.73,116.26,52.43,139.06c5.7,22.8,14.82,60.41,14.82,60.41s-24.45,29.35-24.45,58.99
				s10.39,29.89,10.39,29.89s-30.38-6.81-37.22-25.05s-68.39-183.51-68.39-183.51l-169.83,3.42l2.28,186.93c0,0-14.82-13.68-35.33,0
				c-20.52,13.68-27.36,45.59-23.94,50.15s-6.84,4.56-6.84,1.14c0-3.42-19.38-86.63-5.7-223.41
				c13.68-136.78,39.89-151.6,54.71-152.74C1417.61,1039.25,1427.87,1044.95,1427.87,1044.95z"/>
			<g>
				<path class="st7" d="M1686.1,1381.09c0.32,0.11,0.51,0.11,0.51,0.11S1686.42,1381.16,1686.1,1381.09z"/>
				<path class="st7" d="M1692.67,1298.72c-9.88,3.04-26.6,38-26.6,38s-38-82.83-49.4-197.58l-13.56,77.85
					c18.72,50.27,48.11,129.15,52.71,141.42c6.26,16.68,31.48,23.64,34.94,24.41c-0.95-0.32-3.04-1.58-4.77-6.59
					c-1-0.91-6.71-3.58-7.77-4.56c-9.12-8.36-5.32-28.12,0.76-50.15C1685.07,1299.48,1702.55,1295.68,1692.67,1298.72z"/>
			</g>
			<path class="st7" d="M1425.78,1178.14l-18.84-86.12c-20.52,28.88-22.8,127.67-14.44,195.3c6.85,55.47,17.11,69.86,24.16,75.64
				c2.08,1.23,3.23,2.28,3.23,2.28l-2.28-186.93L1425.78,1178.14z"/>
			<path class="st8" d="M1371.23,1091.26c34.96,94.23,17.48,113.23,63.48,223.83c25.69,61.77,75.23,108.28,75.23,108.28
				s39.89,10.26,90.05,6.84c50.15-3.42,86.87-6.87,86.87-6.87s-52.67-31.89-54.95-53.54s-12.17-107.56,0.75-168.35
				c10.09-47.47-31.52-94.95-31.52-94.95l-69.53-3.42L1371.23,1091.26z"/>
			<path class="st9" d="M1432.78,1235.64c-6.08-22.04,25.84,6.84,78.27,12.16c52.43,5.32,110.95-3.04,82.07,6.08
				c-28.88,9.12-107.91-4.56-93.47,24.32c16.99,33.98,37.06,66.87,66.11,86.63c19,12.92,64.59,25.08,20.52,18.24
				c-44.08-6.84-91.19-58.51-111.71-91.95S1434.14,1240.56,1432.78,1235.64z"/>
			<path class="st10" d="M1548.89,1057.25c0.46-22.75,6.01-61.57,12.51-76.73c5.32-12.42-16.68-28.01-29.58-35.85l-10.91-0.47
				c-1.66,3.62-3.22,7.23-4.68,10.8c-11.52,75.65,22.96,106.91,39.41,113.2c7.1,2.71,15.06,3.02,21.86,2.4
				C1567.34,1067,1557.44,1062.89,1548.89,1057.25z"/>
			<g>
				<path class="st11" d="M1528,1091.01c-3.96,0-8.08-0.48-12.16-1.47c-9.53-2.32-32.28-11.16-37.57-42.89
					c-0.13-0.75,0.38-1.46,1.13-1.59c0.75-0.12,1.46,0.38,1.59,1.13c5.02,30.11,26.5,38.46,35.5,40.66
					c13.97,3.41,28.8,0.26,34.48-7.32c4.55-6.07,1.81-19.01,1.78-19.14c-0.16-0.75,0.31-1.48,1.06-1.64
					c0.75-0.16,1.48,0.31,1.64,1.06c0.13,0.58,3.03,14.32-2.27,21.39C1548.5,1087.45,1538.83,1091.01,1528,1091.01z"/>
			</g>
			<path class="st6" d="M1635.27,969.41c-7.73,40.83-25.59,73.77-55.81,67.56c-30.22-6.21-61.99-49.33-53.63-90.04
				c8.36-40.7,39.64-68.67,69.86-62.46C1625.91,890.68,1645.57,915.01,1635.27,969.41z"/>
			<path class="st6" d="M1742.83,1171.05c0,0-55.85,150.08-58.51,165.66s2.66,25.46,4.18,25.46c1.52,0,49.02-81.31,49.02-81.31
				L1742.83,1171.05z"/>
			<path class="st6" d="M1745.11,1164.46c4.56-15.2-2.53-34.45-2.53-34.45l20.26,2.53L1745.11,1164.46z"/>
			<g>
				<path class="st12" d="M1767.38,1138.54h-56.54c-3.43,0-5.9-3.31-4.92-6.59l35.69-119.68c0.65-2.17,2.65-3.66,4.92-3.66h56.54
					c3.43,0,5.9,3.31,4.92,6.6l-35.69,119.68C1771.64,1137.05,1769.64,1138.54,1767.38,1138.54z"/>
				<path class="st13" d="M1774.47,1138.54h-56.54c-3.43,0-5.9-3.31-4.92-6.59l35.69-119.68c0.65-2.17,2.65-3.66,4.92-3.66h56.54
					c3.43,0,5.9,3.31,4.92,6.6l-35.69,119.68C1778.74,1137.05,1776.74,1138.54,1774.47,1138.54z"/>
				<path class="st14" d="M1733.53,1051.79c-6.03,21.72-10.09,39.56-9.06,39.84c1.02,0.28,6.74-17.09,12.77-38.81
					s10.08-39.56,9.06-39.84C1745.27,1012.7,1739.56,1030.07,1733.53,1051.79z"/>
			</g>
			<path class="st6" d="M1771.96,1174.09c1.67-19.74,18.77-38.24,25.27-44.14c1.98-1.79,3.09-4.34,3.07-7.01
				c-0.09-9.84-0.53-33.06-2.57-35.78c-2.59-3.45-9.07-47.92-12.09-46.19c-3.02,1.73,0.86,40.58,0.86,40.58s-7.34-3.45-11.23-5.18
				c-3.88-1.73-19.86,15.97-19.86,15.97s-7.49,18.92,12.99,10.82c24.32-9.63,6.08,17.22-10.13,34.45
				c-13.36,14.19-1.99,17.33-1.99,17.33l10.79-0.43L1771.96,1174.09z"/>
			<g>
				<path class="st11" d="M1765.82,1189.74c-1.8,0-3.84-0.28-5.88-0.92c-5.29-1.65-14.52-6.96-16.96-24.04
					c-0.11-0.75,0.42-1.46,1.17-1.56c0.75-0.11,1.45,0.42,1.56,1.17c2.04,14.29,8.91,19.6,14.32,21.54c4.5,1.62,8.34,0.96,9.37,0.44
					c0.08-0.45,0.39-0.85,0.84-1.03c0.71-0.28,1.51,0.06,1.8,0.77c0.27,0.68,0.11,1.44-0.42,2.02
					C1770.71,1189.11,1768.53,1189.74,1765.82,1189.74z"/>
			</g>
			<g>
				<path class="st11" d="M1763.68,1184.85c-1.67,0-3.42-0.12-5.08-0.37c-9.83-1.43-16.41-6.42-18.07-13.7
					c-0.17-0.74,0.3-1.48,1.04-1.65c0.74-0.17,1.48,0.3,1.65,1.04c1.51,6.63,7.45,9.55,12.17,10.83c7.05,1.92,13.89,0.88,14.77-0.05
					c0.37-0.67,1.2-0.87,1.86-0.5c0.67,0.37,0.88,1.25,0.51,1.91C1771.57,1184.07,1767.84,1184.85,1763.68,1184.85z"/>
			</g>
			<g>
				<path class="st15" d="M1600.59,990.87c-0.63,0-1.26-0.05-1.89-0.14c-9.71-1.49-15.58-13.97-13.37-28.41
					c2.21-14.44,11.56-24.58,21.26-23.11c9.71,1.49,15.58,13.97,13.37,28.41C1617.88,981.12,1609.59,990.87,1600.59,990.87z
					 M1604.74,943.95c-6.43,0-12.95,8.38-14.6,19.11c-1.74,11.35,2.52,21.82,9.29,22.86c6.78,1.04,13.96-7.68,15.7-19.03
					c1.74-11.35-2.52-21.82-9.29-22.86C1605.48,943.97,1605.11,943.95,1604.74,943.95z"/>
			</g>
			<g>
				<path class="st15" d="M1632.23,990.88c-0.33,0-0.65-0.02-0.97-0.07c-6.47-0.99-9.87-11.48-7.89-24.4
					c1.98-12.92,8.36-21.91,14.83-20.92c6.48,0.99,9.87,11.48,7.89,24.4c-0.89,5.82-2.79,11.16-5.33,15.04
					C1638.21,988.81,1635.22,990.88,1632.23,990.88z M1637.24,949.1c-3.62,0-8.57,7.07-10.23,17.87c-1.72,11.21,1.16,19.64,4.8,20.2
					c1.78,0.27,3.9-1.28,5.86-4.26c2.26-3.44,3.96-8.27,4.77-13.58c1.72-11.21-1.15-19.64-4.8-20.2
					C1637.51,949.11,1637.38,949.1,1637.24,949.1z"/>
			</g>
			<g>
				<path class="st15" d="M1590.09,953.11c-0.22,0-0.45-0.03-0.67-0.09l-74.47-21.28c-1.29-0.37-2.04-1.72-1.67-3.01
					c0.37-1.29,1.72-2.04,3.01-1.67l74.47,21.28c1.29,0.37,2.04,1.72,1.67,3.01C1592.12,952.41,1591.15,953.11,1590.09,953.11z"/>
			</g>
			<path class="st5" d="M1643.28,906.6c-115.25,67.89-121.59,22.29-121.59,22.29l6.84-64.85l68.39,3.8L1643.28,906.6z"/>
			<path class="st6" d="M1530.61,943.95c2.68,11.48-0.98,22.14-8.18,23.82c-7.2,1.68-15.21-6.26-17.89-17.73
				c-2.68-11.48,0.98-22.14,8.18-23.82C1519.92,924.54,1527.93,932.48,1530.61,943.95z"/>
			<path class="st11" d="M1522.71,959.03c0,2.51-2.03,4.54-4.54,4.54c-2.51,0-4.54-2.03-4.54-4.54c0-2.51,2.03-4.54,4.54-4.54
				C1520.68,954.49,1522.71,956.52,1522.71,959.03z"/>
			<path class="st6" d="M1555.89,1391.93c0,0,31.16-13.68,40.28-7.6c9.12,6.08,35.46,33.94,35.46,33.94L1555.89,1391.93z"/>
			<path class="st13" d="M1629.91,1420.76c-0.59,0.74-1.48,1.05-1.97,0.68l-64.11-47.73c-3.45-2.57-5.1-6.5-3.44-8.58
				s5.86-1.34,9.12,1.47l60.63,52.08C1630.61,1419.09,1630.5,1420.02,1629.91,1420.76z"/>
			<path class="st6" d="M1461.66,1386.11c0,0,51.67,20.52,57.75,20.52c6.08,0,40.02-22.8,51.42-19.76
				c11.4,3.04,67.13,31.16,65.61,33.44c-1.52,2.28-17.48,7.6-64.59,6.08c-47.12-1.52-123.87-8.36-123.87-8.36L1461.66,1386.11z"/>
		</g>
	</g>
	<g>
		<path class="st16" d="M2288.75,1748.18c0,0-270.97-188.21-385.59-79.69c-91.52,86.65,70.94,188.45,278.77,161.08
			c146.29-19.27,162.87,8.72,188.49,8.11c190.67-14.61,447.59-71.66,322.56-161.28c-170.32-122.09-285.53,7.34-344.88,39.56
			C2288.75,1748.18,2288.75,1748.18,2288.75,1748.18z"/>
		<path class="st17" d="M2639.09,1671.88c-71.22-14.7-342.53,85.92-342.53,85.92s-236.27-71.22-292.79-78
			c-56.52-6.78-82.52,14.7-82.52,14.7s26.67-30.05,57.65-32.78c30.98-2.73,75.74-10.17,75.74-10.17s452.18-21.48,512.1-7.91
			S2639.09,1671.88,2639.09,1671.88z"/>
		<path class="st18" d="M2254.84,1305.63c-10.75,1.7-177.78,74.55-179.83,105.08c-2.05,30.52,45.76,278.13,138.23,310.35
			c92.47,32.22,195.9,0,195.9,0s108.52-267.9,76.3-318.77s-178.04-96.65-178.04-96.65H2254.84z"/>
		<path class="st18" d="M2132.08,1363.3c-159.58,85.51-198.76,239.89-156.56,273.92c29.57,23.84,141.08,76.58,237.73,73.19
			c96.65-3.39,187.42,5.71,187.42,5.71s165.8-33.74,198.86-83.42s-58.67-211.09-140.93-257.74
			C2376.34,1328.3,2132.08,1363.3,2132.08,1363.3z"/>
		<path class="st6" d="M2284.23,1402.28c-22.07,0-40.13-18.06-40.13-40.13v-135.08c0-22.07,18.06-40.13,40.13-40.13
			c22.07,0,40.13,18.06,40.13,40.13v135.08C2324.36,1384.22,2306.3,1402.28,2284.23,1402.28z"/>
		<path class="st10" d="M2284.23,1186.94c-22.07,0-40.13,18.06-40.13,40.13v110.45c23.66,19.77,46.57,9.41,80.26-16.7v-93.75
			C2324.36,1205,2306.3,1186.94,2284.23,1186.94z"/>
		<path class="st6" d="M2372.31,1232.53c-6.59,13.46-17.31,20.93-23.92,16.68s-6.64-18.61-0.04-32.08
			c6.59-13.46,17.3-20.93,23.92-16.68C2378.89,1204.7,2378.91,1219.06,2372.31,1232.53z"/>
		<path class="st6" d="M2217.04,1218.13c7.63,12.25,9.09,27.05,3.27,33.06c-5.82,6.01-16.72,0.95-24.35-11.3
			c-7.63-12.25-9.09-27.05-3.27-33.06C2198.51,1200.82,2209.41,1205.88,2217.04,1218.13z"/>
		<ellipse class="st6" cx="2286.03" cy="1231.66" rx="69.02" ry="88.87"/>
		<path class="st19" d="M2436.53,1451.62c45.22,24.12,84.62,115.5,84.62,115.5s-101.74,15.83-122.84,31.65
			c-21.1,15.83,3.01-6.03,15.07-49.74S2436.53,1451.62,2436.53,1451.62z"/>
		<path class="st19" d="M2121.72,1445.04c10.55,48.23,61.04,182.89,61.04,182.89s-46.77-53.27-96.47-56.28
			c-49.7-3.01-68.14-3.77-67.83,8.29c0.06,2.38,8.29-53.51,46.73-88.17C2103.63,1457.09,2121.72,1445.04,2121.72,1445.04z"/>
		<path class="st20" d="M2424.82,1748.69h-273.04c-11,0-20.39-7.95-22.21-18.8l-32.92-196.49c-2.3-13.73,8.29-26.24,22.21-26.24
			h338.88c13.92,0,24.51,12.51,22.21,26.24l-32.92,196.49C2445.21,1740.74,2435.82,1748.69,2424.82,1748.69z"/>
		<path class="st21" d="M2424.82,1748.69h-273.04c-11,0-20.39-7.66-22.21-18.12l-32.92-189.4c-2.3-13.24,8.29-25.29,22.21-25.29
			h338.88c13.92,0,24.51,12.06,22.21,25.29l-32.92,189.4C2445.21,1741.03,2435.82,1748.69,2424.82,1748.69z"/>
		<path class="st17" d="M2324.36,1826.1c-1.63-0.28-176.34-44.01-215.34-11.79c-39,32.22,130.56,32.77,161.08,25.71
			C2300.62,1832.96,2324.36,1826.1,2324.36,1826.1z"/>
		<path class="st17" d="M2363.36,1833.94c0,0,37.3-28.11,86.48-23.02s91.56,15.81,49.17,29.1c-42.39,13.29-86.47,14.99-106.82,13.29
			C2371.84,1851.61,2363.36,1833.94,2363.36,1833.94z"/>
		<path class="st22" d="M2264.01,1106.39c-44.83,13.6-29.23,139.81,22.03,135.65c51.26-4.16,53.34-58.73,49.7-94.07
			C2332.09,1112.62,2310.26,1092.35,2264.01,1106.39z"/>
		<path class="st22" d="M2247.89,1199.94c-12.47-11.95-29.63,25.67-22.87,42.2s-2.69,26.15,6.45,43.95s-16.84-11.31-20.48-32.62
			c-3.64-21.31-5.72-58.21-10.92-74.84c-5.2-16.63,0.26-45.47,23.42-51.46c23.16-5.98,28.55-16.63,37.39-17.15
			c8.84-0.52,50.94,3.64,71.73,15.07s32.22,28.59,30.67,54.57c-1.56,25.99-8.32,92.52-14.55,103.43c-6.24,10.92-9.46,8.33-7.59,2.08
			c1.87-6.24,8.63-43.67,3.43-57.18c-5.2-13.51-2.6-46.78-16.11-49.38c-13.51-2.6-10.4,20.45-26.51,22.18
			S2247.89,1199.94,2247.89,1199.94z"/>
	</g>
	<g>
		<path class="st23" d="M2002.17,918.68h-246.19c-7.85,0-14.19-6.42-14.09-14.27l1.3-102.28c0.1-7.85,6.6-14.27,14.45-14.27h246.19
			c7.85,0,14.19,6.42,14.09,14.27l-1.29,102.28C2016.53,912.26,2010.02,918.68,2002.17,918.68z"/>
		<path class="st15" d="M1990.07,907.97h-221.71c-6.8,0-12.29-5.56-12.21-12.36l1.07-84.7c0.09-6.8,5.72-12.36,12.52-12.36h221.71
			c6.8,0,12.29,5.56,12.21,12.36l-1.07,84.7C2002.5,902.41,1996.87,907.97,1990.07,907.97z"/>
		<path class="st23" d="M1851.6,912.73c-1.48,53.92-27.06,70.57-27.06,70.57s11.49-30.92,2.96-45.99
			c-8.53-15.06-22.72-21.41-22.72-21.41L1851.6,912.73z"/>
		<path class="st23" d="M1980.02,828.69H1837.1c-2.34,0-4.24-1.92-4.21-4.26l0-0.2c0.03-2.34,1.97-4.26,4.32-4.26h142.92
			c2.34,0,4.24,1.92,4.21,4.26l0,0.2C1984.31,826.77,1982.37,828.69,1980.02,828.69z"/>
		<path class="st23" d="M1979.79,846.92h-142.92c-2.34,0-4.24-1.92-4.21-4.26l0-0.2c0.03-2.34,1.97-4.26,4.32-4.26h142.92
			c2.34,0,4.24,1.92,4.21,4.26l0,0.2C1984.08,845,1982.14,846.92,1979.79,846.92z"/>
		<path class="st23" d="M1979.53,867.54h-142.92c-2.34,0-4.24-1.92-4.21-4.26l0-0.2c0.03-2.34,1.97-4.26,4.32-4.26h142.92
			c2.34,0,4.24,1.92,4.21,4.26l0,0.2C1983.82,865.62,1981.88,867.54,1979.53,867.54z"/>
		<path class="st23" d="M1819.97,843.35c-0.2,15.55-10.65,28.15-23.35,28.15c-12.7,0-22.83-12.6-22.64-28.15
			s10.65-28.15,23.35-28.15S1820.17,827.81,1819.97,843.35z"/>
	</g>
	<g>
		<path class="st23" d="M2207.92,1104.96h-249.35c-7.95,0-14.37-6.5-14.27-14.45l1.31-103.59c0.1-7.95,6.69-14.46,14.64-14.46
			h249.35c7.95,0,14.37,6.5,14.27,14.46l-1.31,103.59C2222.46,1098.46,2215.87,1104.96,2207.92,1104.96z"/>
		<path class="st15" d="M2195.66,1094.12h-224.55c-6.89,0-12.45-5.63-12.36-12.52l1.09-85.78c0.09-6.89,5.79-12.52,12.68-12.52
			h224.55c6.89,0,12.45,5.63,12.36,12.52l-1.09,85.78C2208.25,1088.49,2202.54,1094.12,2195.66,1094.12z"/>
		<path class="st23" d="M2089.41,1098.94c0.11,54.61,25.59,71.47,25.59,71.47s-10.85-31.32-1.82-46.58
			c9.03-15.26,23.56-21.68,23.56-21.68L2089.41,1098.94z"/>
		<path class="st23" d="M2109.04,1021.04H1986.9c-2.19,0-3.95-1.79-3.92-3.98l0.01-0.88c0.03-2.19,1.84-3.97,4.03-3.97h122.14
			c2.19,0,3.95,1.79,3.92,3.97l-0.01,0.88C2113.04,1019.25,2111.23,1021.04,2109.04,1021.04z"/>
		<path class="st23" d="M2108.81,1039.51h-122.14c-2.19,0-3.95-1.79-3.92-3.98l0.01-0.88c0.03-2.19,1.84-3.97,4.03-3.97h122.14
			c2.19,0,3.95,1.79,3.92,3.97l-0.01,0.88C2112.81,1037.72,2110.99,1039.51,2108.81,1039.51z"/>
		<path class="st23" d="M2108.54,1060.39H1986.4c-2.19,0-3.95-1.79-3.93-3.97l0.01-0.88c0.03-2.19,1.84-3.97,4.03-3.97h122.14
			c2.19,0,3.95,1.79,3.92,3.97l-0.01,0.88C2112.54,1058.6,2110.73,1060.39,2108.54,1060.39z"/>
		<path class="st23" d="M2167.84,1067.62h-17.67c-7.95,0-14.37-6.5-14.27-14.46l0.46-36.14c0.1-7.95,6.69-14.45,14.64-14.45h17.67
			c7.95,0,14.37,6.5,14.27,14.45l-0.46,36.14C2182.38,1061.12,2175.79,1067.62,2167.84,1067.62z"/>
	</g>
	<g>
		<defs>
			<circle id="SVGID_00000003817435867936055610000000455128582064694173_" cx="953.1" cy="538.34" r="380"/>
		</defs>
		<clipPath id="SVGID_00000168797994437879806190000004891627207884634033_">
			<use xlink:href="#SVGID_00000003817435867936055610000000455128582064694173_"  style="overflow:visible;"/>
		</clipPath>
		
			<circle style="clip-path:url(#SVGID_00000168797994437879806190000004891627207884634033_);fill:#D5CFFF;stroke:#A69FFC;stroke-miterlimit:10;" cx="953.1" cy="538.34" r="380"/>
		<g style="clip-path:url(#SVGID_00000168797994437879806190000004891627207884634033_);">
			<path class="st26" d="M777.49,478.39c50.27,36.3,158.25,52.13,192.69,53.99c34.44,1.86-19.12,96.81-19.12,96.81
				s-92.59,11.17-136.34,0C770.97,618.02,777.49,478.39,777.49,478.39z"/>
			<path class="st5" d="M691.23,1419.83c0.62,24.82,14.77,39.59,37.86,56.78c24.2,18.02,25.44,20-8.07,24.43
				c-33.51,4.43-42.82-10.77-65.16-17.29c-22.34-6.52-8.07-22.34-9.31-37.24c-1.24-14.89-3.36-39.1-3.36-39.1L691.23,1419.83z"/>
			<path class="st5" d="M886.71,1407.41c0,0,14.89,17.24,34.75,34.38c19.86,17.13,70.13,22.97,45.92,29.36
				c-24.2,6.39-51.32,2.94-76.24,6.53s-46.64,0.12-48.5-6.53c-1.86-6.64,0-53.81,0-53.81L886.71,1407.41z"/>
			<path class="st27" d="M955.3,321.33c31.15-29.58,88.42,8.13,93.82,33.2c13.89,64.49,20.04,131.17,3.14,157.37
				c-16.9,26.2-156.11,33.61-165.58,33.38c-12.74-0.31-20.17-43.5,4.76-71.81c24.93-28.31,36.03-79.34,40.6-105.49
				C937.52,336.55,950.31,326.07,955.3,321.33z"/>
			<g>
				<path class="st27" d="M1065.93,495.97c-0.07,0-0.14,0-0.21-0.01c-0.82-0.11-1.39-0.87-1.28-1.69
					c7.3-52.7-2.46-112.99-24.31-150.03c-0.42-0.71-0.18-1.63,0.53-2.05c0.71-0.42,1.63-0.18,2.05,0.53
					c22.16,37.58,32.08,98.65,24.69,151.97C1067.31,495.43,1066.67,495.97,1065.93,495.97z"/>
			</g>
			<g>
				<path class="st27" d="M1074.93,461.47c-0.03,0-0.06,0-0.09,0c-0.83-0.05-1.46-0.76-1.4-1.59
					c2.98-47.72-20.79-107.53-42.45-125.23c-0.64-0.52-0.74-1.47-0.21-2.11c0.53-0.64,1.47-0.74,2.11-0.21
					c22.21,18.14,46.58,79.17,43.55,127.75C1076.37,460.86,1075.71,461.47,1074.93,461.47z"/>
			</g>
			<path class="st28" d="M890.96,509.83c-10.61,75.14-20.85,216.64-51.57,251.08c-30.72,34.44-47.82,116.58-47.82,116.58
				s99.28-54.21,139.91-187.51c12.75-41.82-18.36-139.45-25.9-148.76C898.04,531.91,890.96,509.83,890.96,509.83z"/>
			<g>
				<path class="st6" d="M1106.09,716.23c-6.13,7.45-22.57,43.55-30.91,43.55c-28.39,0-30.49,11.13-45.89,19.29
					c-19.78,10.47-15.59,26.53-14.2,27.46c1.4,0.93,43.49-6.44,57.62-15.65c11.73-7.64,20.07-11.81,25.79-20.19
					c5.72-8.38,38.11-32.58,38.11-32.58L1106.09,716.23z"/>
				<path class="st29" d="M1077.37,493.31c28.72,17.35,34,33.49,62.23,82.51c28.24,49.03,33.2,66.71,44.37,84.4
					c11.17,17.69,14.89,38.17-8.69,60.51c-22.53,21.34-33.04,30.05-45.41,26.72c-8.33-2.25-14.91-26.51-26.49-22.11
					c-11.58,4.4,8.9-29.74,19.45-39.36c5.75-5.24,8.07-4.84,6.21-7.23c-1.86-2.39-37.24-28.77-66.71-66.93
					C1032.86,573.65,1077.37,493.31,1077.37,493.31z"/>
				<g>
					<path class="st28" d="M1167.53,676.67c-13.98-6.28-31.44-5.38-44.27-2.95c3.3,2.77,5.38,4.5,5.79,5.03
						c1.86,2.39-0.46,1.99-6.21,7.23c-2.04,1.86-4.44,4.63-6.92,7.86c9.78-5.18,20.48-9.84,29.26-11.12
						c22.34-3.26,23.74,2.79,35.37,10.24C1192.2,700.4,1190.34,686.91,1167.53,676.67z"/>
					<path class="st28" d="M1106.25,519.28c-7.69-10.51-15.89-18.12-28.88-25.97c0,0-44.51,80.34-15.03,118.51
						c9.36,12.12,19.31,23.04,28.59,32.39C1091.54,618.49,1094.24,561.01,1106.25,519.28z"/>
				</g>
				<path class="st29" d="M968.06,466.75c-38.48,8.69-69.53,20.04-77.47,42.36c-3.86,10.83,18.46,189.59,40.8,209.45
					c43.12,38.33,114.19,2.48,114.19,2.48s32.27-80.37,45.07-215.28c3.33-12.17-73.62-36.06-86.03-38.55
					C992.21,464.73,968.06,466.75,968.06,466.75z"/>
				<path class="st6" d="M981.02,1415c0,0-52.72,72.97-21.07,70.39c31.65-2.58,52.32-35.16,52.32-35.16s10.98,36.95,42.63,35.23
					c31.65-1.72,13.8-21.08,0-43.67c-13.03-21.34-13.73-43.73-13.73-43.73L981.02,1415z"/>
				<path class="st6" d="M985.54,501.66c-13.06,0-23.74-10.68-23.74-23.74v-88.43c0-13.06,10.68-23.74,23.74-23.74
					c13.06,0,23.74,10.68,23.74,23.74v88.43C1009.28,490.98,998.6,501.66,985.54,501.66z"/>
				<path class="st10" d="M985.54,365.75c-13.06,0-23.74,10.68-23.74,23.74v40.04c15.38,22.06,33.36,35.69,47.48,43.8v-83.83
					C1009.28,376.43,998.6,365.75,985.54,365.75z"/>
				
					<ellipse transform="matrix(0.9736 -0.2284 0.2284 0.9736 -61.9333 239.6106)" class="st6" cx="1004.33" cy="387.4" rx="42.79" ry="58.83"/>
				<path class="st6" d="M936.74,707.91c0,0-74,55.85-50.27,238.76c23.74,182.91,48.87,177.33,50.27,265.29
					c1.4,87.96,39.1,209.44,61.44,233.18c22.34,23.74,77.2-103.51,77.2-216.46c0-66,0.03-97.7,15.39-201.03
					s12.13-254.12-49.31-319.74S936.74,707.91,936.74,707.91z"/>
				<path class="st10" d="M996.67,1116.97c-0.06-43.28-14.39-135.28-11.13-262.45l-94.39,125.8
					c22.25,148.93,44.28,149.45,45.58,231.65c1.06,66.65,22.96,152.54,43.23,200.57c13.17,4.73,22.02,10.28,24.36,17.25
					c3.13,9.33,5.21,14.5,6.45,16c0.44-0.29,0.89-0.6,1.34-0.94c1.08-7.79-4.57-47.54-10.76-105.38
					C990.91,1241.68,996.74,1160.25,996.67,1116.97z"/>
				<path class="st29" d="M903.49,642.58c12.31,72.31,4.92,82.09-12.33,142.13c-17.25,60.04-17.48,219.21-17.48,219.21
					s46.78,19.55,137.3,11.17c90.52-8.38,103.09-18.15,103.09-18.15s-10.29-154.99-23.3-201.06
					c-13.01-46.08-33.34-77.59-34.34-107.21C1055.42,659.04,903.49,642.58,903.49,642.58z"/>
				<path class="st30" d="M959.94,1485.4c31.65-2.58,52.32-35.16,52.32-35.16s10.98,36.95,42.63,35.23
					c27.18-1.48,17.85-15.96,5.94-34.34c-1.09,4.13-4.45,7.99-13.38,7.65c-18.7-0.72-36.26-23.43-36.26-23.43
					s-32.63,25.13-44.73,23.34c-12.1-1.79,5.89-30.89,5.9-30.91C958.89,1448.57,936.74,1487.29,959.94,1485.4z"/>
			</g>
			<path class="st27" d="M739.84,418.86c-14.7-20.65-29.47-76.86-16.34-82.6c13.13-5.74,9.85-14.77,22.97-31.59
				c13.13-16.82,66.05-23.38,81.64,4.92c15.59,28.31,22.27,31.18,22.83,46.36c0.56,15.18-36.78,52.92-36.78,52.92L739.84,418.86z"/>
			<path class="st6" d="M1086.6,748.59c-4.29,6.42-8.38,11.19-11.41,11.19c-28.39,0-30.49,11.13-45.89,19.29
				c-19.78,10.47-15.59,26.53-14.2,27.46c1.4,0.93,43.49-6.44,57.62-15.65c11.73-7.64,20.07-11.81,25.79-20.19
				c1.09-1.6,3.16-3.78,5.79-6.26C1097.93,759.71,1092.01,754.39,1086.6,748.59z"/>
			<path class="st6" d="M749.56,346.2c0,0-9.31,114.6-29.79,127.12c-20.48,12.52-59.58,59.06-53.99,159.6
				c5.58,100.54,13.03,143.9,20.48,182.73c7.45,38.83,147.08,15.17,161.97,0c14.89-15.17,31.65-153.87,0-224.15
				c-31.65-70.28-67.02-110-70.75-127.38c-3.72-17.38,20.48-87.19,20.48-87.19L749.56,346.2z"/>
			<path class="st10" d="M777.11,460.35c-0.47-21.91,20.86-83.43,20.86-83.43l-48.41-30.72c0,0-2.03,24.98-6.28,52.89
				C749.56,437.89,762.13,452.79,777.11,460.35z"/>
			<path class="st6" d="M837.94,378.39c4.66,33.66-6.93,60.02-31.17,63.38c-24.24,3.36-51.94-17.55-56.6-51.22
				c-4.66-33.66,11.2-63.68,35.44-67.04C809.85,320.16,833.28,344.73,837.94,378.39z"/>
			<path class="st6" d="M1103.69,507.24c14.25,8.86,25.12,31.03,18.88,49.03c-6.24,18-14.88-5.1-24.38-18.31
				C1088.69,524.75,1093.03,500.62,1103.69,507.24z"/>
			<path class="st30" d="M850.17,748.13c-9.77,117.56,23.28,382.85,23.51,442.89c0.23,60.04,24.21,224.21,24.21,224.21
				s-39.1,11.23-54.45,12.54s-59.72-148.79-66.28-228.37c-6.57-79.59-48.08-220.83-48.08-220.83l14.22-242.31L850.17,748.13z"/>
			<path class="st13" d="M850.17,748.13l-106.88-11.88l-14.22,242.31c0,0,41.51,141.24,48.08,220.82c0.09,1.04,0.18,2.09,0.28,3.16
				c0.8-122.67,36.46-175.91,74.15-305.79C848.33,839.72,847,786.19,850.17,748.13z"/>
			<path class="st30" d="M845.98,787.5c-50.27,170.34-96.34,330.91-127.06,437.03c-30.72,106.12-21.49,215.2-21.49,215.2
				l-51.66,4.12c0,0-58.1-174.91-19.01-269.58c39.1-94.67,20.5-151.71,27.93-240.16c8.38-99.78,22.46-172.69,22.46-172.69
				L845.98,787.5z"/>
			<path class="st31" d="M848.24,591.49c-17-37.75-35.06-66.67-48.73-88.06c-6.03-0.84-13.67-1.6-22.34-1.78
				c-14.41-0.29-39.49-18.77-54.45-30.91c-0.95,1.08-1.93,1.95-2.94,2.57c-20.48,12.52-59.58,59.06-53.99,159.6
				c5.58,100.54-15.51,134.87-8.07,173.69c7.45,38.83,175.63,24.2,190.52,9.04C863.13,800.47,879.89,661.77,848.24,591.49z"/>
			<path class="st31" d="M717.29,449.22l-15.12,39.87l95.8,38.94l11.06-9.5c0,0-14.79-21.53-11.06-34.57
				c3.72-13.03,8.07-16.76,0-19.86c-8.07-3.1-36.76-8.07-54.68-14.89C725.36,442.39,720.41,441.01,717.29,449.22z"/>
			<path class="st26" d="M866.22,710.47c-1.9-29.93-7.95-96.69-17.99-118.98c-3.7-8.21-7.45-15.98-11.19-23.37l-12.08-5.25
				c0,0-67.02-53.51-110.78-43.53c-43.75,9.98-45.61,172.97-20.48,190.83c25.13,17.87,35.36-29.9,128.31-15.07
				C837.15,697.52,853.83,711.65,866.22,710.47z"/>
			<path class="st30" d="M1022.89,758.55c2.05,1.51,4.96,1.07,6.47-0.98l197.47-268.21c1.51-2.05,1.07-4.96-0.98-6.47
				c-2.05-1.51-4.96-1.07-6.47,0.98l-197.47,268.21C1020.4,754.13,1020.84,757.04,1022.89,758.55z"/>
			<path class="st13" d="M1238.17,493.31h-32.92c-5.48,0-9.97-4.49-9.97-9.97c0-5.48,4.49-9.97,9.97-9.97h32.92
				c5.48,0,9.97,4.49,9.97,9.97C1248.14,488.82,1243.66,493.31,1238.17,493.31z"/>
			<path class="st27" d="M1228.45,394.9l31.71,5.35c5.99,1.01,9.41,7.41,6.91,12.95l-30.74,68.19c-1.98,4.38-6.98,6.53-11.51,4.94
				l-27.92-9.76c-5.05-1.77-7.56-7.43-5.48-12.36l26.94-63.78C1220.04,396.48,1224.21,394.18,1228.45,394.9z"/>
			<path class="st30" d="M1226.52,400.36l26.24,4.71c4.96,0.89,7.78,6.53,5.72,11.41l-25.43,60.08c-1.63,3.86-5.77,5.75-9.53,4.36
				l-23.1-8.6c-4.18-1.56-6.26-6.55-4.54-10.89l22.29-56.19C1219.56,401.75,1223.02,399.73,1226.52,400.36z"/>
			<g>
				<g>
					<path class="st32" d="M1206.33,394.22c-0.23,0-0.47-0.06-0.69-0.17l-35.12-18.33c-0.73-0.38-1.02-1.29-0.64-2.02
						c0.38-0.73,1.29-1.02,2.02-0.64l35.12,18.33c0.73,0.38,1.02,1.29,0.64,2.02C1207.4,393.92,1206.87,394.22,1206.33,394.22z"/>
				</g>
				<g>
					<path class="st32" d="M1212.84,386.84c-0.46,0-0.92-0.21-1.21-0.61l-24.77-33.72c-0.49-0.67-0.35-1.61,0.32-2.1
						c0.67-0.49,1.61-0.35,2.1,0.32l24.77,33.72c0.49,0.67,0.35,1.61-0.32,2.1C1213.46,386.74,1213.15,386.84,1212.84,386.84z"/>
				</g>
				<g>
					<path class="st32" d="M1160.88,431.44c-0.64,0-1.23-0.41-1.43-1.04c-0.25-0.79,0.18-1.63,0.97-1.88l42.94-13.71
						c0.79-0.26,1.63,0.18,1.88,0.97c0.25,0.79-0.18,1.63-0.97,1.89l-42.94,13.71C1161.18,431.42,1161.03,431.44,1160.88,431.44z"/>
				</g>
				<g>
					<path class="st32" d="M1206.02,407.01c-0.07,0-0.14,0-0.21-0.02c-32.7-4.68-50.59-7.51-53.18-8.42
						c-0.78-0.27-1.19-1.13-0.92-1.91c0.28-0.78,1.13-1.19,1.91-0.92c1.35,0.48,9.99,2.18,52.61,8.28c0.82,0.12,1.39,0.88,1.27,1.7
						C1207.4,406.48,1206.76,407.01,1206.02,407.01z"/>
				</g>
			</g>
			<g>
				<path class="st33" d="M1195.89,461.43c-1.72,4.34,0.36,9.33,4.54,10.89l2.8,1.04l39.73-20.2l15.52-36.68
					c0.72-1.7,0.83-3.48,0.48-5.13l-60.87,44.53L1195.89,461.43z"/>
				<path class="st33" d="M1204.3,473.77l19.22,7.16c3.76,1.4,7.89-0.49,9.53-4.36l6.66-15.74
					C1228.3,464.76,1213.18,470.41,1204.3,473.77z"/>
			</g>
			<path class="st6" d="M1033.21,634.16l53.06-2.42c0,0,27.14-33.73,38.1-26.86c10.97,6.87,29.96-5.37,29.85,6.87
				c-0.12,12.24-15.52,44.06-33.93,47.32c-18.41,3.26-60.52,0-60.52,0L1033.21,634.16z"/>
			<path class="st31" d="M729.61,509.83c31.08,2.18,136.85,95.1,184.94,129.8c66.08-10.75,145.22-9.94,145.22-9.94
				s16.45,31.01,15.41,33.45c-1.04,2.45-107.21,39.3-169.94,36.72c-62.73-2.59-91.64-22.27-139.51-27.98
				c-31.17-3.72-46.33,9.22-63.56-8.73c-17.23-17.95-23.31-110.08-13.9-128.65C697.7,515.92,716.27,508.89,729.61,509.83z"/>
			<path class="st27" d="M739.84,418.86c16.44-8.12,8.27-23.92,9.71-34.39c1.43-10.47-3.14-18.86,0.79-18.15
				c3.93,0.71,3.05,40.19,8,39.94s3.11-29.79,8.34-30.62c5.23-0.82,7.28-8.17,3.18-21.11c-4.1-12.94-0.82-24.43,10.26-14.17
				c11.08,10.26,35.69,34.05,50.05,30.77c14.36-3.28,13.54-18.05,12.31-19.69c-1.23-1.64-38.15-43.08-38.15-43.08l-73.02,41.85
				l-2.05,38.15L739.84,418.86z"/>
			<path class="st6" d="M752.95,374.06c0.98,9.92,1.32,24.96,2.18,27.12c-6.51,2.65-14.83-2.68-18.6-11.91
				c-3.77-9.23-3.42-21.34,3.17-23.79C743.8,363.97,751.8,362.52,752.95,374.06z"/>
			<path class="st27" d="M1041.98,351.79c-10.36,33.51-68.07,33.98-70.86,43.29c-2.79,9.31-3.48,45.47-11.92,68.5
				c-13.5,36.79-19.55,48.95-38.34,54.53c-18.79,5.59-26.7-25.55-26.7-25.55s33.68-44.43,35.54-45.36
				c1.86-0.93,19.59-114.5,19.59-114.5s45.11-8.27,47.44-9.49c2.33-1.21,34.91,13.21,34.91,13.21L1041.98,351.79z"/>
		</g>
	</g>
	<g>
		<defs>
			
				<ellipse id="SVGID_00000059995475918520356490000008441345806663357628_" transform="matrix(0.7071 -0.7071 0.7071 0.7071 344.2256 1844.0808)" cx="2398.12" cy="506.52" rx="351.03" ry="351.03"/>
		</defs>
		<clipPath id="SVGID_00000146465046757609966050000007820931801875549865_">
			<use xlink:href="#SVGID_00000059995475918520356490000008441345806663357628_"  style="overflow:visible;"/>
		</clipPath>
		
			<ellipse transform="matrix(0.7071 -0.7071 0.7071 0.7071 344.2256 1844.0808)" style="clip-path:url(#SVGID_00000146465046757609966050000007820931801875549865_);fill:#D5CFFF;stroke:#A69FFC;stroke-miterlimit:10;" cx="2398.12" cy="506.52" rx="351.03" ry="351.03"/>
		<g style="clip-path:url(#SVGID_00000146465046757609966050000007820931801875549865_);">
			<path class="st36" d="M2340.09,521.05c0,0-12.29,11.44-27.66,4.05c-15.36-7.4-71.46-47.04-69.75-56.71s27.92-11.99,27.92-11.99
				S2351.81,520.59,2340.09,521.05z"/>
			<path class="st37" d="M2325.31,519.56c10.52-1.68-24.09-29.21-35.41-40.59c-11.32-11.38-18.62-16.69-18.62-16.69
				s-19.35,2.36-19.35,6.11c0,3.75,55.48,48.06,55.48,48.06S2320.56,520.32,2325.31,519.56z"/>
			<path class="st6" d="M2393.23,569.08c0,0-20.2-34.14-29.88-43.25c-9.67-9.1-42.34-26.75-47.29-26.86
				c-8.47-0.19,29.08,25.15,29.08,25.15s-5.12,33-0.57,44.95c4.55,11.95,52.35,27.88,52.35,27.88L2393.23,569.08z"/>
			<path class="st38" d="M2430.79,604.91c0,0-33-49.51-40.4-46.09c-7.4,3.41-27.31,46.09-27.31,46.09s58.04,60.32,58.04,48.94
				C2421.12,642.47,2430.79,604.91,2430.79,604.91z"/>
			<path class="st6" d="M2522.06,339.78c0,0,34.14,120.64,56.9,170.71s34.14,143.4,29.59,307.28
				c-4.55,163.88,27.31,159.33-20.49,179.82c-47.8,20.49-218.51-13.66-241.27-66.01c-22.76-52.35,15.24-265.49,71.7-343.7
				c55.74-77.22,80.8-104.7,80.8-122.91c0-18.21-22.03-95.6-22.03-95.6L2522.06,339.78z"/>
			<path class="st39" d="M2346.79,931.58c-22.76-52.35,15.24-265.49,71.7-343.7c25.96-35.96,45.26-61.13,58.48-79.6
				c27.03-16.13,56.87-31.16,85.5-39.89c5.73,16.14,11.39,30.9,16.49,42.11c22.76,50.08,34.14,143.4,29.59,307.28
				c-4.55,163.88,27.31,159.33-20.49,179.82C2540.27,1018.08,2369.56,983.94,2346.79,931.58z"/>
			<path class="st39" d="M2582.76,446.76c-0.57-9.37-122.15,38.69-122.91,47.8c-0.76,9.1-7.93,43.07-18,61.37
				c-10.07,18.3,169.27,120.51,162.67,70.75C2597.92,576.91,2584.27,471.8,2582.76,446.76z"/>
			<path class="st10" d="M2499.19,467c0.07-0.69,0.1-1.37,0.1-2.03c0-18.21-22.03-95.6-22.03-95.6l44.79-29.59
				c0,0,7.93,28.01,18.69,62.63C2526.83,443.97,2513.81,458.14,2499.19,467z"/>
			<path class="st6" d="M2396.46,398.84c9.47,42.9,39.09,73.41,73.34,65.02c25.12-6.15,63.72-41.28,51.34-92.53
				c-10.31-42.7-45.05-71.51-79.48-63.92C2407.23,315.01,2386.99,355.95,2396.46,398.84z"/>
			<path class="st6" d="M2357.58,678.11c-31.08-53.67-34.55-103.81-56.57-119.46c-30.97-22.02-56.42-71.28-45.2-73.22
				c11.22-1.94,56.63,39.66,56.63,39.66s-11.82-16.17-9-17.52c2.82-1.35,25.7,15.25,29.25,34.87
				c3.55,19.61,47.49,109.77,84.35,138.64C2453.9,709.96,2388.66,731.79,2357.58,678.11z"/>
			<path class="st38" d="M2558.92,542.88c55.07,13.71,29.88,180.02-16.55,278.65c-46.43,98.63-133.68,13.42-166.3-10.74
				c-12.39-9.17-20.55-18.47-25.91-26.48c10.47-58.86,28.43-122,50.59-166.43C2452.72,678.89,2477.44,522.59,2558.92,542.88z"/>
			<path class="st39" d="M2542.37,530.94c69.25,6.94,31.33,179.82-19.31,249.62c-50.64,69.8-122.72,2.28-145.48-37.94
				c-22.76-40.21-68.85-108.59-68.85-153.07c0-8.35,17.07-10.05,37.56-8.54c19.29,1.43,106.44,121.4,106.44,121.4
				S2481.82,524.87,2542.37,530.94z"/>
			<path class="st22" d="M2375.31,309.39c-42.34,17.83-16.98,74.22,5.35,76.33c22.33,2.11,48.14-39.05,61.4-40.45
				c13.26-1.4-2.68,23.02,9.13,28.61c11.8,5.58,22.82,14.85,26.25,29.51c3.44,14.65,12.87,46.55-2.54,47.94
				c-15.4,1.4-32.15-15.35-42.61-16.05c-10.47-0.7-19.56,2.33-19.56,2.33s26.58,36.74,46.09,38.84s40.81-26.43,55.98-50.55
				c15.17-24.11,8.72-40.18,8.72-40.18s15.52,17.46,25.28,16.07c9.77-1.4-14.65-15.35-15.35-56.52c-0.7-41.17-18.84-62.8-41.17-62.8
				s-19.54-11.36-53.64-10.47C2407.93,272.82,2385.24,305.21,2375.31,309.39z"/>
			<path class="st6" d="M2468.42,393.51c-0.99,10.63,4.47,19.83,12.19,20.54s14.78-7.32,15.76-17.95
				c0.99-10.63-4.47-19.83-12.19-20.54C2476.46,374.84,2469.41,382.88,2468.42,393.51z"/>
		</g>
	</g>
	<g>
		<defs>
			
				<ellipse id="SVGID_00000163781246844918221270000003658581583113651358_" transform="matrix(0.7071 -0.7071 0.7071 0.7071 96.2713 2493.9858)" cx="3058.64" cy="1130.78" rx="251.24" ry="251.24"/>
		</defs>
		<clipPath id="SVGID_00000047769633186452250740000001125293105155497884_">
			<use xlink:href="#SVGID_00000163781246844918221270000003658581583113651358_"  style="overflow:visible;"/>
		</clipPath>
		
			<ellipse transform="matrix(0.7071 -0.7071 0.7071 0.7071 96.2713 2493.9858)" style="clip-path:url(#SVGID_00000047769633186452250740000001125293105155497884_);fill:#D5CFFF;stroke:#A69FFC;stroke-miterlimit:10;" cx="3058.64" cy="1130.78" rx="251.24" ry="251.24"/>
		<g style="clip-path:url(#SVGID_00000047769633186452250740000001125293105155497884_);">
			<path class="st5" d="M3019.08,1011.07c-19.15,38.29-3.3,82.38,34.36,97.96c37.91,15.68,79.35,6.77,98.5-31.51
				s4.93-84.2-31.76-102.55C3083.49,956.62,3038.22,972.79,3019.08,1011.07z"/>
			<g>
				<path class="st5" d="M3122.27,1114.09c-1.91,0-3.01-0.29-3.15-0.33c-1.29-0.37-2.04-1.72-1.68-3.01
					c0.37-1.29,1.72-2.05,3.01-1.68c0.06,0.01,8.86,2.08,22.06-9.63c14.9-13.22,25.32-43.24,9.88-87.87
					c-0.44-1.27,0.23-2.66,1.51-3.1c1.27-0.44,2.66,0.23,3.1,1.51c20.41,59.02-3.45,86.19-11.25,93.11
					C3135.06,1112.57,3126.59,1114.09,3122.27,1114.09z"/>
			</g>
			<g>
				<path class="st42" d="M3063.74,1160.06c-21.79,4.88-49.3,65.44-62.78,104.23c-13.59,39.13-36.62,87.67-51.71,102.75
					c-15.08,15.08-114.18,50.04-114.18,50.04s244.86,0.47,239.85-0.01C3069.9,1416.59,3063.74,1160.06,3063.74,1160.06z"/>
				<path class="st43" d="M2933.74,1397.63c13.41-1.92,61.76,4.31,41.18-4.31s-17.71-19.63-17.71-19.63s29.21,24.42,34.47,3.07
					c4.54-18.41,6.28-83.41,23.51-148.56c14.24-32.3,32.88-64.62,48.55-68.13c0,0,0.55,22.94,1.46,55.1
					c-6.01,71.18-16.22,175.75-18.81,202.11c-32.46,0.05-86.78,0-132.22-0.06l-30.22-1.44
					C2883.95,1415.77,2920.33,1399.55,2933.74,1397.63z"/>
				<path class="st42" d="M3143.85,1146.64c0,0,69.32,38.73,85.48,46.97s-45.27,250.01-58.93,260.37
					c-13.66,10.36-133.93,1.78-147.63-11.27c-13.69-13.05,10.51-53.12-1.34-133.33s36.14-149.47,42.31-149.31
					c6.17,0.16,46.41-13.42,46.41-13.42H3143.85z"/>
				<path class="st43" d="M3170.4,1453.98c-13.66,10.36-99.73,10.59-136.36-0.81c-4.14-1.29-22.91-8.77-23.35-15.8
					c4.42-0.83,21.97,1.28,29.1-0.36c24.78-5.69,38.42-36.39,38.42-36.39s13.64-4.91,44.17-17.83s17.95-52.07,18.67-69.3
					c0.72-17.24,30.16-73.61,85.46-116.34l5.07,2.27C3235.53,1238.71,3183.04,1444.39,3170.4,1453.98z"/>
				<path class="st6" d="M3101.31,1393.8c-43.57,8.14-54.28,18.14-78.03,21.97c-26.92,4.34-23.72,10.29-3.73,10.29
					s70.25,0.78,87.49-3.05S3101.31,1393.8,3101.31,1393.8z"/>
				<path class="st42" d="M3234.77,1198.15c33.39,106.76,80.73,227.91,73.19,227.91c-7.54,0-199.28,7.75-206.82,1.29
					c-7.54-6.46-5.39-31.23-4.31-34.46s109.01-22.39,109.01-22.39s-14.21-27.7-19.6-81.83
					C3180.85,1234.55,3228.44,1177.9,3234.77,1198.15z"/>
			</g>
			<path class="st6" d="M3118.47,1053.87l26.9,98.29c0,0-45.45,70.95-57.95,64.64c-12.5-6.3,6.99-57.67,6.99-64.64
				s-19.48-78.99-19.48-78.99L3118.47,1053.87z"/>
			<path class="st10" d="M3093.47,1157.17c0.58-2.33,0.93-4.07,0.93-5.01c0-6.98-19.48-78.99-19.48-78.99l43.55-19.3l8.9,32.53
				C3119.59,1120,3105.56,1142.38,3093.47,1157.17z"/>
			<path class="st6" d="M3017.82,1052.24c-5.12,28.5-1.75,66.36,23.56,75.99s55.8-8.79,68.1-41.13
				c12.3-32.34,1.75-66.36-23.56-75.99S3023.94,1018.19,3017.82,1052.24z"/>
			
				<ellipse transform="matrix(0.3354 -0.9421 0.9421 0.3354 1060.6783 3649.4805)" class="st6" cx="3116.78" cy="1073.02" rx="19.15" ry="14.12"/>
			<path class="st5" d="M3017.52,1016.43c8.62,66.89,89.88,58.27,89.88,58.27s16.76-22.03,24.3-10.48
				c7.54,11.56-10.46-67.81-57.09-70.31C3059.29,993.09,3017.52,1016.43,3017.52,1016.43z"/>
			<ellipse class="st5" cx="3144.13" cy="988.16" rx="44.01" ry="41.29"/>
		</g>
	</g>
	<g>
		<defs>
			<circle id="SVGID_00000085236088102122158660000012261985379361002674_" cx="522.44" cy="1482.09" r="315.09"/>
		</defs>
		<clipPath id="SVGID_00000161630808772896307030000000287402513676889992_">
			<use xlink:href="#SVGID_00000085236088102122158660000012261985379361002674_"  style="overflow:visible;"/>
		</clipPath>
		
			<circle style="clip-path:url(#SVGID_00000161630808772896307030000000287402513676889992_);fill:#D5CFFF;stroke:#A69FFC;stroke-miterlimit:10;" cx="522.44" cy="1482.09" r="315.09"/>
		<g style="clip-path:url(#SVGID_00000161630808772896307030000000287402513676889992_);">
			<g>
				<path class="st36" d="M675.59,1456.71c0,0,9.88,9.2,22.22,3.25c12.35-5.94,57.42-37.8,56.05-45.57
					c-1.37-7.77-22.43-9.63-22.43-9.63S666.17,1456.34,675.59,1456.71z"/>
				<path class="st37" d="M687.46,1455.51c-8.45-1.35,19.36-23.47,28.45-32.62c9.09-9.14,14.96-13.41,14.96-13.41
					s15.55,1.89,15.55,4.91s-44.58,38.62-44.58,38.62S691.28,1456.12,687.46,1455.51z"/>
				<path class="st6" d="M632.89,1495.3c0,0,16.23-27.43,24-34.75c7.77-7.32,34.02-21.5,38-21.58c6.81-0.15-23.37,20.21-23.37,20.21
					s4.12,26.52,0.46,36.12c-3.66,9.6-42.06,22.4-42.06,22.4L632.89,1495.3z"/>
				<path class="st46" d="M602.71,1524.09c0,0,26.52-39.78,32.46-37.04c5.94,2.74,21.95,37.04,21.95,37.04s-46.64,48.47-46.64,39.32
					S602.71,1524.09,602.71,1524.09z"/>
				<path class="st6" d="M529.37,1311.05c0,0-27.43,96.93-45.72,137.17c-18.29,40.24-27.43,115.22-23.78,246.9
					c3.66,131.68-21.95,128.02,16.46,144.48c38.41,16.46,175.58-10.97,193.86-53.04c18.29-42.06-12.25-213.32-57.61-276.17
					c-44.79-62.04-64.93-84.13-64.93-98.76c0-14.63,17.7-76.81,17.7-76.81L529.37,1311.05z"/>
				
					<linearGradient id="SVGID_00000176731087192320146650000006056156600710506165_" gradientUnits="userSpaceOnUse" x1="2852.7119" y1="1343.5607" x2="2313.6658" y2="1982.7356" gradientTransform="matrix(1 0 0 1 -2051.6167 0)">
					<stop  offset="0" style="stop-color:#FFC34E"/>
					<stop  offset="1" style="stop-color:#FB8627"/>
				</linearGradient>
				<path style="fill:url(#SVGID_00000176731087192320146650000006056156600710506165_);" d="M670.2,1786.57
					c18.29-42.06-12.25-213.32-57.61-276.17c-20.86-28.89-36.37-49.12-46.99-63.96c-21.71-12.96-45.69-25.04-68.7-32.05
					c-4.6,12.97-9.16,24.83-13.25,33.83c-18.29,40.24-27.43,115.22-23.78,246.9c3.66,131.68-21.95,128.02,16.46,144.48
					C514.74,1856.07,651.91,1828.64,670.2,1786.57z"/>
				
					<linearGradient id="SVGID_00000181052183614904207500000009003034837149945262_" gradientUnits="userSpaceOnUse" x1="2747.4319" y1="1254.7731" x2="2208.3853" y2="1893.949" gradientTransform="matrix(1 0 0 1 -2051.6167 0)">
					<stop  offset="0" style="stop-color:#FFC34E"/>
					<stop  offset="1" style="stop-color:#FB8627"/>
				</linearGradient>
				<path style="fill:url(#SVGID_00000181052183614904207500000009003034837149945262_);" d="M480.6,1397.01
					c0.46-7.53,98.15,31.09,98.76,38.41c0.61,7.32,6.37,34.61,14.46,49.31c8.09,14.7-136.01,96.83-130.71,56.84
					C468.42,1501.59,479.38,1417.13,480.6,1397.01z"/>
				<path class="st10" d="M547.75,1413.28c-0.05-0.55-0.08-1.1-0.08-1.63c0-14.63,17.7-76.81,17.7-76.81l-35.99-23.78
					c0,0-6.37,22.5-15.02,50.32C525.54,1394.77,536,1406.16,547.75,1413.28z"/>
				<path class="st6" d="M619.94,1358.35c-6.65,30.13-27.46,51.56-51.51,45.66c-17.64-4.32-44.76-28.99-36.06-64.99
					c7.24-29.99,31.64-50.23,55.83-44.89C612.38,1299.47,626.59,1328.22,619.94,1358.35z"/>
				<path class="st6" d="M661.53,1582.91c24.97-43.13,27.76-83.41,45.46-95.99c24.89-17.7,45.33-57.27,36.32-58.83
					c-9.01-1.56-45.5,31.87-45.5,31.87s9.5-13,7.23-14.08c-2.27-1.08-20.65,12.26-23.5,28.02c-2.85,15.76-38.16,88.2-67.78,111.4
					C584.14,1608.5,636.56,1626.04,661.53,1582.91z"/>
				
					<linearGradient id="SVGID_00000105413802669604802930000014512625418703793831_" gradientUnits="userSpaceOnUse" x1="2872.6794" y1="1138.7421" x2="2502.3423" y2="1801.2328" gradientTransform="matrix(1 0 0 1 -2051.6167 0)">
					<stop  offset="0" style="stop-color:#FFC34E"/>
					<stop  offset="1" style="stop-color:#FB8627"/>
				</linearGradient>
				<path style="fill:url(#SVGID_00000105413802669604802930000014512625418703793831_);" d="M499.76,1474.24
					c-44.25,11.02-24.01,144.65,13.3,223.9c37.3,79.25,107.41,10.78,133.63-8.63c9.95-7.37,16.51-14.84,20.82-21.28
					c-8.41-47.29-22.84-98.02-40.65-133.73C585.09,1583.53,565.23,1457.95,499.76,1474.24z"/>
				
					<linearGradient id="SVGID_00000065056776642762006770000010067959989776071354_" gradientUnits="userSpaceOnUse" x1="2840.7312" y1="1296.1375" x2="2265.405" y2="1978.3314" gradientTransform="matrix(1 0 0 1 -2051.6167 0)">
					<stop  offset="0" style="stop-color:#FFC34E"/>
					<stop  offset="1" style="stop-color:#FB8627"/>
				</linearGradient>
				<path style="fill:url(#SVGID_00000065056776642762006770000010067959989776071354_);" d="M513.05,1464.65
					c-55.65,5.58-25.18,144.48,15.51,200.57c40.69,56.09,98.61,1.83,116.89-30.48c18.29-32.31,55.32-87.25,55.32-123
					c0-6.71-13.72-8.08-30.18-6.86c-15.5,1.15-85.52,97.54-85.52,97.54S561.71,1459.77,513.05,1464.65z"/>
			</g>
			<path class="st22" d="M597.78,1264.82c58.08,3.97,50.67,93.99,50.67,93.99s-47.9,1.39-62.19-2.76
				c-14.28-4.15-28.83-15.33-28.83-15.33s-8.79,34.1-32.79,36c-24.01,1.9-24.01,1.9-24.01,1.9s-15.84-64.73-3.31-93.91
				C523.28,1224.19,575.13,1254.49,597.78,1264.82z"/>
			<path class="st6" d="M534.42,1351.99c3.44,8.85,11.57,13.94,18.17,11.38c6.6-2.56,9.16-11.81,5.72-20.66
				c-3.44-8.85-11.57-13.94-18.17-11.38C533.54,1333.89,530.98,1343.14,534.42,1351.99z"/>
			<path class="st22" d="M505.73,1341.63c0-1.89-2.59-2.42-3.33-0.68c-5.24,12.23-16.23,33.45-29.94,34.95
				c-19.34,2.11-157.28,13.36-111.37,119.81c29.01,67.26,50.01,94.1,21.49,119c-26.24,22.91-60.86,1.34-69.5-4.44
				c-1.05-0.7-2.47-0.09-2.68,1.15c-2.43,14.82-10.5,85.81,58.27,84.79c76.78-1.14,113.44-70.53,82.16-134.21
				c-31.28-63.68,30.7-79.96,33.23-115.74c2.44-34.46,0.61-51.86,0.12-55.69c-0.07-0.52,0.11-1.05,0.48-1.43l20.59-21.09
				c0.32-0.32,0.49-0.76,0.49-1.21V1341.63z"/>
			<g>
				<path class="st22" d="M353.8,1622c-15.63,0-40.21-6.38-41.32-6.67c-1.23-0.32-2-1.53-1.78-2.78c0.22-1.25,1.36-2.12,2.62-2.01
					c0.33,0.03,33.36,2.86,46.27-7.32c16.31-12.85,7.2-33.86-7.89-68.66c-6.37-14.7-13.6-31.36-20.23-50.63
					c-12.58-36.52,0.93-61.63,14.48-76.25c28.44-30.7,83.86-43.92,131.77-31.41c1.3,0.34,2.08,1.67,1.74,2.97
					c-0.34,1.3-1.67,2.08-2.97,1.74c-1.12-0.29-2.24-0.57-3.37-0.83c-60.95,1.03-100.27,15.17-116.88,42.04
					c-14.53,23.51-11.54,57.01,8.89,99.56c19.94,41.53,25.29,70.74,15.9,86.82c-4.66,7.98-12.99,12.59-24.1,13.33
					C355.93,1621.97,354.89,1622,353.8,1622z M335.87,1615.3c7.35,1.23,15.09,2.11,20.72,1.74c9.56-0.64,16.36-4.31,20.22-10.93
					c5.86-10.04,7.82-32.45-16.09-82.25c-21.2-44.15-24.11-79.21-8.65-104.23c15.01-24.29,46.98-38.72,95.21-43.04
					c-37.97-1.76-76.1,11-97.78,34.4c-18.13,19.58-22.78,44.25-13.45,71.36c6.57,19.09,13.76,35.66,20.1,50.28
					c15.47,35.68,25.69,59.25,6.44,74.43C356.07,1612.2,345.56,1614.42,335.87,1615.3z"/>
			</g>
		</g>
	</g>
	<g>
		<defs>
			<circle id="SVGID_00000178180821165863184840000000279586199354438320_" cx="1620.98" cy="385.34" r="153"/>
		</defs>
		<clipPath id="SVGID_00000137817713445163175980000012499220498504043683_">
			<use xlink:href="#SVGID_00000178180821165863184840000000279586199354438320_"  style="overflow:visible;"/>
		</clipPath>
		
			<circle style="clip-path:url(#SVGID_00000137817713445163175980000012499220498504043683_);fill:#D5CFFF;" cx="1620.98" cy="385.34" r="153"/>
		<g style="clip-path:url(#SVGID_00000137817713445163175980000012499220498504043683_);">
			<path class="st53" d="M1573.64,371.22c-0.38-1.14-9.89-55.72-11.02-76.95c-1.14-21.23,34.11-24.26,34.11-24.26
				s28.81-15.54,49.66-7.58c20.85,7.96,35.04,21.35,44.51,38.03c9.48,16.68-8.34,68.66-8.34,68.66L1573.64,371.22z"/>
			<path class="st15" d="M1508.29,546.59c-0.13-0.9,2.43-22.38,2.53-23.25c4.8-45.23,60.56-57.95,116.2-57.95
				c65.37,0,109.72,11.96,116.79,58.97c0.21,1.38,3.98,22.91,3.79,24.36C1626.44,550.38,1508.29,546.59,1508.29,546.59z"/>
			<path class="st6" d="M1638.23,500.5c-6.48,9.56-11.23,9.96-18.26,0c-5.59-7.92-24.26-25.98-24.26-35.11l7.66-91.03
				c0-9.13,7.47-16.6,16.6-16.6h18.26c9.13,0,16.6,7.47,16.6,16.6l3.56,91.03C1658.39,474.52,1644.04,491.92,1638.23,500.5z"/>
			<path class="st10" d="M1638.23,357.76h-18.26c-9.13,0-16.6,7.47-16.6,16.6l-6.65,80.75c20.5,6.53,48.18-6.74,60.42-21.35
				l-2.32-59.4C1654.83,365.23,1647.36,357.76,1638.23,357.76z"/>
			<path class="st54" d="M1566.45,472.03l29.27,54.1c0,0,15.67-12.89,17.18-10.36c1.52,2.53-2.78,34.42-2.78,34.42
				s34.87,0.47,36.39-1.04c1.52-1.52-7.08-34.64-3.54-34.64c3.54,0,14.18,9.6,14.18,9.6l32.68-52.08l-7.18-1.75l-53.54,28.81
				l-57.27-28.18L1566.45,472.03z"/>
			<polygon class="st26" points="1599.92,496.95 1621.66,511.54 1614.92,550.25 1644.24,548.61 1636.92,513.4 1654.93,496.95 
				1646.47,488.98 1608.39,488.98 			"/>
			<path class="st15" d="M1597.24,445.51l-26.88,25.58c0,0,27.39,48.71,28.91,48.71c1.52,0,23.24-26.86,23.24-26.86l13.91-0.24
				l21.98,23.06l25.54-45.18l-26.04-27.6c0,0-22.24,42.96-26.28,43.97c-4.04,1.01-4.07,1.52-7.34-1.01
				C1620.99,483.42,1597.24,445.51,1597.24,445.51z"/>
			<ellipse class="st6" cx="1629.11" cy="358.69" rx="55.18" ry="75.19"/>
			<path class="st6" d="M1579.57,357.53c5.16,10.87,3.47,22.47-3.77,25.91c-7.24,3.44-17.3-2.58-22.46-13.45
				c-5.16-10.87-3.47-22.47,3.77-25.91C1564.35,340.64,1574.41,346.66,1579.57,357.53z"/>
			<path class="st6" d="M1676.15,357.53c-5.16,10.87-3.47,22.47,3.77,25.91c7.24,3.44,17.3-2.58,22.46-13.45
				c5.16-10.87,3.47-22.47-3.77-25.91C1691.37,340.64,1681.31,346.66,1676.15,357.53z"/>
			<path class="st15" d="M1653.59,389.54c0,0-10.96,17.75-24.48,17.75c-13.52,0-24.48-17.75-24.48-17.75H1653.59z"/>
			<path class="st53" d="M1596.73,307.54c22.74-15.92,32.98-13.27,50.03,12.89c17.06,26.15,37.53,26.62,37.53,26.62l2.65-27.12
				c0,0-25.41-49.15-59.52-42.71c-34.11,6.44-53.51,37.15-53.51,37.15s-1.66,57.55,3.1,59.51c4.76,1.96,5.31-18.57,8.72-22.74
				c3.41-4.17-3.41-23.88,1.14-32.98C1591.42,309.05,1596.73,307.54,1596.73,307.54z"/>
			<path class="st53" d="M1669.89,337.1c7.94,8.69,4.93,43.21,9.1,42.83c4.17-0.38,5.69-32.98,4.55-36.39
				C1682.4,340.14,1669.89,337.1,1669.89,337.1z"/>
		</g>
	</g>
	<g>
		<defs>
			<circle id="SVGID_00000058555154284551917700000011001167636665949102_" cx="335.77" cy="875.17" r="153"/>
		</defs>
		<clipPath id="SVGID_00000078749340686204577680000016473888130122454195_">
			<use xlink:href="#SVGID_00000058555154284551917700000011001167636665949102_"  style="overflow:visible;"/>
		</clipPath>
		
			<circle style="clip-path:url(#SVGID_00000078749340686204577680000016473888130122454195_);fill:#D5CFFF;stroke:#A69FFC;stroke-miterlimit:10;" cx="335.77" cy="875.17" r="153"/>
		<g style="clip-path:url(#SVGID_00000078749340686204577680000016473888130122454195_);">
			<path class="st30" d="M214.66,1017.45c18.51-39.81,49.83-52.57,101.27-52.57c61.24,0,101.81,37.81,110.82,70.12
				C317.07,1036.5,214.66,1017.45,214.66,1017.45z"/>
			<path class="st57" d="M294.54,771.24c-25.93,7.28-24.79,21.85-33.43,35.37c-8.64,13.52-27.42,22.54-29.67,31.55
				c-2.25,9.01,5.78,27.79-3.76,38.31c-9.54,10.52-12.77,15.78-9.01,26.29c3.76,10.52,12.02,27.04,12.77,29.3
				c0.75,2.25,11.27,18.03,24.04,20.28c12.77,2.25,36.81,6.01,48.83,11.27c12.02,5.26,50.66-6.73,72.12-5.98
				c21.45,0.75,36.06-15.05,34.56-25.57c-1.5-10.52,15.82-31.55,15.78-49.58c-0.05-19.36-22.54-33.8-28.55-46.58
				c-6.01-12.77,0.75-35.31-21.79-48.66c-14.24-8.44-24.04-7.69-35.31-11.44C329.84,772.05,311.06,766.6,294.54,771.24z"/>
			<path class="st6" d="M326.09,996.67c-5.86,8.66-10.16,9.01-16.53,0c-5.06-7.17-15.02-23.45-15.02-31.72v-82.47
				c0-8.26,6.76-15.02,15.02-15.02h16.53c8.26,0,15.02,6.76,15.02,15.02v82.47C341.11,973.21,331.35,988.9,326.09,996.67z"/>
			<path class="st10" d="M326.09,867.46h-16.53c-8.26,0-15.02,6.76-15.02,15.02v73.58c18.56,5.91,35.49-5.84,46.58-19.07v-54.51
				C341.11,874.22,334.35,867.46,326.09,867.46z"/>
			<ellipse class="st6" cx="317.82" cy="868.29" rx="49.96" ry="68.07"/>
			<path class="st57" d="M341.11,814.12c-31.55,53.34-78.13,48.08-78.13,48.08s1.13-70.61,38.12-74.37
				c37-3.76,58.78,11.09,66.29,35.59c7.51,24.5,0,40.65,0,40.65s-12.02-9.39-18.03-24.41C343.36,824.64,341.11,814.12,341.11,814.12
				z"/>
			<path class="st6" d="M272.98,867.24c4.67,9.84,3.14,20.34-3.41,23.45c-6.56,3.11-15.66-2.34-20.34-12.17
				c-4.67-9.84-3.14-20.34,3.42-23.45C259.2,851.96,268.31,857.41,272.98,867.24z"/>
			<path class="st6" d="M360.41,867.24c-4.67,9.84-3.14,20.34,3.42,23.45c6.56,3.11,15.66-2.34,20.33-12.17
				c4.67-9.84,3.14-20.34-3.42-23.45C374.19,851.96,365.08,857.41,360.41,867.24z"/>
			<path class="st15" d="M336.6,905.21c0,0-8.41,10.9-18.78,10.9c-10.37,0-18.78-10.9-18.78-10.9H336.6z"/>
		</g>
	</g>
	<g>
		<defs>
			
				<ellipse id="SVGID_00000095328909503052455030000001818991835779133341_" transform="matrix(0.7071 -0.7071 0.7071 0.7071 548.3452 2382.7664)" cx="3150.43" cy="529.47" rx="163.03" ry="163.03"/>
		</defs>
		<clipPath id="SVGID_00000028298139644277107690000008990030110540286381_">
			<use xlink:href="#SVGID_00000095328909503052455030000001818991835779133341_"  style="overflow:visible;"/>
		</clipPath>
		
			<ellipse transform="matrix(0.7071 -0.7071 0.7071 0.7071 548.3452 2382.7664)" style="clip-path:url(#SVGID_00000028298139644277107690000008990030110540286381_);fill:#D5CFFF;stroke:#A69FFC;stroke-miterlimit:10;" cx="3150.43" cy="529.47" rx="163.03" ry="163.03"/>
		<g style="clip-path:url(#SVGID_00000028298139644277107690000008990030110540286381_);">
			<path class="st60" d="M3065.58,505.33c0,44.8,26.97,117.08,90.6,114.76c63.63-2.32,77.7-71.22,80.16-90.66
				C3238.81,509.98,3065.58,505.33,3065.58,505.33z"/>
			<path class="st26" d="M3039.07,679.75c21.01-45.2,56.57-59.67,114.96-59.67c69.52,0,105.62,25.19,115.86,61.85
				c-40.91,0.56-79.85,41.23-113.7,40.92C3087,722.22,3039.07,679.75,3039.07,679.75z"/>
			<path class="st6" d="M3165.56,656.15c-6.66,9.83-11.54,10.23-18.76,0c-5.74-8.14-17.05-26.62-17.05-36v-93.62
				c0-9.38,7.67-17.06,17.05-17.06h18.76c9.38,0,17.06,7.67,17.06,17.06v93.62C3182.62,629.53,3171.53,647.34,3165.56,656.15z"/>
			<path class="st10" d="M3165.56,509.48h-18.76c-9.38,0-17.05,7.67-17.05,17.06v83.53c21.06,6.71,40.29-6.62,52.87-21.65v-61.88
				C3182.62,517.15,3174.94,509.48,3165.56,509.48z"/>
			<path class="st6" d="M3212.89,510.43c0,42.67-25.39,77.27-56.71,77.27c-31.32,0-56.71-34.6-56.71-77.27
				c0-42.68,25.39-77.27,56.71-77.27C3187.5,433.16,3212.89,467.75,3212.89,510.43z"/>
			<path class="st60" d="M3187.35,451.69c-6.74,23.76-21.51,23.49-42.1,31.29c-20.59,7.8-30.43,15.66-37.17,30.86
				c-8.59,19.38,3.9,75.9,3.9,75.9s-52.14-39.02-46.11-100.38c6.03-61.36,42.21-85.12,76.26-85.12c34.05,0,47,20.75,47,20.75
				s18.14,0.08,35.29,20.39c23.05,27.31,15.96,93.64,0,117.4c-15.96,23.76-26.6,31.21-26.25,30.15c0.36-1.06,14.9-55.64,7.09-89.38
				C3197.46,469.81,3187.35,451.69,3187.35,451.69z"/>
			<path class="st15" d="M3177.5,552.33c0,0-9.54,12.37-21.32,12.37c-11.77,0-21.32-12.37-21.32-12.37H3177.5z"/>
		</g>
	</g>
	<g>
		<path class="st61" d="M953.1,922.34c-51.84,0-102.13-10.15-149.47-30.18c-45.73-19.34-86.79-47.03-122.06-82.29
			c-35.26-35.26-62.95-76.33-82.29-122.06c-20.02-47.34-30.18-97.63-30.18-149.47c0-51.84,10.15-102.13,30.18-149.47
			c19.34-45.73,47.03-86.79,82.29-122.06c35.26-35.26,76.33-62.95,122.06-82.29c47.34-20.02,97.63-30.18,149.47-30.18
			c51.84,0,102.13,10.15,149.47,30.18c45.73,19.34,86.79,47.03,122.06,82.29c35.26,35.26,62.95,76.33,82.29,122.06
			c20.02,47.34,30.18,97.63,30.18,149.47c0,51.84-10.15,102.13-30.18,149.47c-19.34,45.73-47.03,86.79-82.29,122.06
			c-35.26,35.26-76.33,62.95-122.06,82.29C1055.22,912.18,1004.94,922.34,953.1,922.34z M953.1,162.34c-207.33,0-376,168.67-376,376
			s168.67,376,376,376s376-168.67,376-376S1160.42,162.34,953.1,162.34z"/>
	</g>
	<g>
		<path class="st61" d="M2398.12,861.55c-47.93,0-94.42-9.39-138.19-27.9c-42.28-17.88-80.24-43.48-112.85-76.08
			c-32.6-32.6-58.2-70.57-76.08-112.85c-18.51-43.77-27.9-90.27-27.9-138.19c0-47.93,9.39-94.42,27.9-138.19
			c17.88-42.28,43.48-80.24,76.08-112.85c32.6-32.6,70.57-58.2,112.85-76.08c43.77-18.51,90.27-27.9,138.19-27.9
			s94.42,9.39,138.19,27.9c42.28,17.88,80.24,43.48,112.85,76.08c32.6,32.6,58.2,70.57,76.08,112.85
			c18.51,43.77,27.9,90.27,27.9,138.19c0,47.93-9.39,94.42-27.9,138.19c-17.88,42.28-43.48,80.24-76.08,112.85
			c-32.6,32.6-70.57,58.2-112.85,76.08C2492.54,852.16,2446.04,861.55,2398.12,861.55z M2398.12,159.5
			c-191.35,0-347.03,155.67-347.03,347.03s155.67,347.03,347.03,347.03s347.03-155.68,347.03-347.03S2589.47,159.5,2398.12,159.5z"
			/>
	</g>
	<g>
		<path class="st61" d="M3058.64,1386.02c-68.18,0-132.27-26.55-180.48-74.76c-48.21-48.21-74.76-112.3-74.76-180.48
			s26.55-132.27,74.76-180.48c48.21-48.21,112.31-74.76,180.48-74.76s132.27,26.55,180.48,74.76
			c48.21,48.21,74.76,112.31,74.76,180.48s-26.55,132.27-74.76,180.48S3126.82,1386.02,3058.64,1386.02z M3058.64,883.54
			c-136.33,0-247.24,110.91-247.24,247.24c0,136.33,110.91,247.24,247.24,247.24c136.33,0,247.24-110.91,247.24-247.24
			C3305.88,994.45,3194.97,883.54,3058.64,883.54z"/>
	</g>
	<g>
		<path class="st61" d="M522.44,1801.18c-85.23,0-165.37-33.19-225.63-93.46c-60.27-60.27-93.46-140.4-93.46-225.63
			s33.19-165.36,93.46-225.63c60.27-60.27,140.4-93.46,225.63-93.46s165.36,33.19,225.63,93.46
			c60.27,60.27,93.46,140.4,93.46,225.63s-33.19,165.37-93.46,225.63C687.8,1767.99,607.67,1801.18,522.44,1801.18z M522.44,1170.99
			c-171.54,0-311.09,139.56-311.09,311.09s139.56,311.09,311.09,311.09s311.09-139.56,311.09-311.09S693.98,1170.99,522.44,1170.99z
			"/>
	</g>
	<g>
		<path class="st61" d="M1620.98,542.34c-86.57,0-157-70.43-157-157c0-86.57,70.43-157,157-157s157,70.43,157,157
			C1777.98,471.91,1707.55,542.34,1620.98,542.34z M1620.98,236.34c-82.16,0-149,66.84-149,149s66.84,149,149,149s149-66.84,149-149
			S1703.14,236.34,1620.98,236.34z"/>
	</g>
	<g>
		<path class="st61" d="M335.77,1032.17c-86.57,0-157-70.43-157-157s70.43-157,157-157s157,70.43,157,157
			S422.34,1032.17,335.77,1032.17z M335.77,726.17c-82.16,0-149,66.84-149,149s66.84,149,149,149s149-66.84,149-149
			S417.93,726.17,335.77,726.17z"/>
	</g>
	<g>
		<path class="st61" d="M3150.43,696.5c-92.1,0-167.03-74.93-167.03-167.03c0-92.1,74.93-167.03,167.03-167.03
			c92.1,0,167.03,74.93,167.03,167.03C3317.45,621.57,3242.52,696.5,3150.43,696.5z M3150.43,370.45
			c-87.69,0-159.03,71.34-159.03,159.03c0,87.69,71.34,159.03,159.03,159.03c87.69,0,159.03-71.34,159.03-159.03
			C3309.45,441.79,3238.11,370.45,3150.43,370.45z"/>
	</g>
	<g>
		
			<ellipse transform="matrix(0.145 -0.9894 0.9894 0.145 1564.4724 2479.7878)" class="st31" cx="2217.01" cy="334.71" rx="74.55" ry="74.55"/>
		<path class="st15" d="M2216.29,308.5c0,0-26.03-22.96-44.46-0.9c-25.29,30.28,44.46,68.79,44.46,68.79s71-39.75,46.17-70.38
			C2243.67,282.86,2216.29,308.5,2216.29,308.5z"/>
	</g>
	<g>
		
			<ellipse transform="matrix(0.2411 -0.9705 0.9705 0.2411 568.5502 3491.0835)" class="st31" cx="2516.4" cy="1382.02" rx="74.55" ry="74.55"/>
		<path class="st15" d="M2515.67,1355.82c0,0-26.03-22.96-44.46-0.9c-25.29,30.28,44.46,68.79,44.46,68.79s71-39.75,46.17-70.38
			C2543.06,1330.17,2515.67,1355.82,2515.67,1355.82z"/>
	</g>
	<g>
		
			<ellipse transform="matrix(0.3844 -0.9232 0.9232 0.3844 -722.3032 1499.1808)" class="st31" cx="762.99" cy="1291.2" rx="74.55" ry="74.55"/>
		<path class="st15" d="M762.26,1264.99c0,0-26.03-22.96-44.46-0.9c-25.29,30.28,44.46,68.79,44.46,68.79s71-39.75,46.16-70.38
			C789.64,1239.35,762.26,1264.99,762.26,1264.99z"/>
	</g>
	<g>
		<path class="st31" d="M732.82,1086.58c0,24.51-19.87,44.37-44.37,44.37c-24.51,0-44.37-19.87-44.37-44.37
			c0-24.51,19.87-44.38,44.37-44.38C712.95,1042.21,732.82,1062.07,732.82,1086.58z"/>
		<path class="st15" d="M688.01,1070.98c0,0-15.5-13.67-26.46-0.54c-15.06,18.02,26.46,40.95,26.46,40.95s42.27-23.66,27.48-41.89
			C704.31,1055.72,688.01,1070.98,688.01,1070.98z"/>
	</g>
	<g>
		<path class="st31" d="M2136.75,158.34c0,29.09-23.58,52.66-52.67,52.66c-29.08,0-52.66-23.58-52.66-52.66
			c0-29.09,23.58-52.66,52.66-52.66C2113.17,105.67,2136.75,129.25,2136.75,158.34z"/>
		<path class="st15" d="M2083.57,139.82c0,0-18.39-16.22-31.41-0.64c-17.87,21.39,31.41,48.6,31.41,48.6s50.16-28.08,32.61-49.72
			C2102.92,121.71,2083.57,139.82,2083.57,139.82z"/>
	</g>
	<g>
		<path class="st31" d="M2674.39,1101.9c0,29.09-23.58,52.67-52.66,52.67s-52.66-23.58-52.66-52.67c0-29.08,23.58-52.66,52.66-52.66
			S2674.39,1072.81,2674.39,1101.9z"/>
		<path class="st15" d="M2621.22,1083.39c0,0-18.39-16.22-31.41-0.64c-17.87,21.39,31.41,48.6,31.41,48.6s50.16-28.08,32.61-49.72
			C2640.56,1065.27,2621.22,1083.39,2621.22,1083.39z"/>
	</g>
	<g>
		
			<ellipse transform="matrix(0.9732 -0.2298 0.2298 0.9732 -59.0833 356.5136)" class="st30" cx="1501.43" cy="431.98" rx="74.55" ry="74.55"/>
		<path class="st15" d="M1499.76,382.87c9.67-1.33,18,22.67,17.33,30.33c-0.67,7.67,18-1,27,5.67c9,6.67,6.33,41.33,0,43.67
			c-6.33,2.33-31.88,2.67-40.11-1.67c-8.23-4.33-13.78-3.52-13.78-3.52l-4.24-36.26c0,0,5.13-1.54,10.79-6.54
			C1502.43,409.54,1499.76,382.87,1499.76,382.87z M1456.76,467.87c2.33,2,28.67,8.33,30-5c1.33-13.33-5.33-41.67-5.33-41.67
			s-18.32-0.92-24.67,2.32C1454.31,424.78,1454.43,465.87,1456.76,467.87z"/>
	</g>
	<g>
		
			<ellipse transform="matrix(0.2887 -0.9574 0.9574 0.2887 -903.4274 1915.6957)" class="st30" cx="837.53" cy="1565.85" rx="74.55" ry="74.55"/>
		<path class="st15" d="M835.87,1516.74c9.67-1.33,18,22.67,17.33,30.33c-0.67,7.67,18-1,27,5.67s6.33,41.33,0,43.67
			c-6.33,2.33-31.88,2.67-40.11-1.67c-8.23-4.33-13.78-3.52-13.78-3.52l-4.24-36.26c0,0,5.13-1.54,10.79-6.54
			C838.53,1543.41,835.87,1516.74,835.87,1516.74z M792.87,1601.74c2.33,2,28.67,8.33,30-5c1.33-13.33-5.33-41.67-5.33-41.67
			s-18.32-0.92-24.67,2.32C790.42,1558.65,790.53,1599.74,792.87,1601.74z"/>
	</g>
	<g>
		<circle class="st30" cx="2865.43" cy="983.3" r="68.33"/>
		<path class="st15" d="M2863.9,938.29c8.86-1.22,16.5,20.78,15.89,27.81c-0.61,7.03,16.5-0.92,24.75,5.19
			c8.25,6.11,5.8,37.89,0,40.03c-5.81,2.14-29.22,2.44-36.76-1.53c-7.54-3.97-12.63-3.23-12.63-3.23l-3.89-33.24
			c0,0,4.7-1.42,9.89-6C2866.34,962.73,2863.9,938.29,2863.9,938.29z M2824.48,1016.2c2.14,1.83,26.28,7.64,27.5-4.58
			c1.22-12.22-4.89-38.19-4.89-38.19s-16.8-0.85-22.61,2.13C2822.24,976.7,2822.34,1014.37,2824.48,1016.2z"/>
	</g>
	<g>
		
			<ellipse transform="matrix(0.7071 -0.7071 0.7071 0.7071 -147.2335 1125.8684)" class="st30" cx="1285.43" cy="740.66" rx="57.87" ry="57.87"/>
		<path class="st15" d="M1284.13,702.54c7.5-1.03,13.97,17.6,13.46,23.55c-0.52,5.95,13.97-0.78,20.96,4.4
			c6.99,5.17,4.92,32.08,0,33.9c-4.92,1.81-24.75,2.07-31.13-1.29c-6.39-3.36-10.7-2.74-10.7-2.74l-3.29-28.15
			c0,0,3.98-1.2,8.38-5.08C1286.2,723.24,1284.13,702.54,1284.13,702.54z M1250.75,768.53c1.81,1.55,22.25,6.47,23.29-3.88
			c1.03-10.35-4.14-32.34-4.14-32.34s-14.22-0.72-19.15,1.8C1248.86,735.07,1248.94,766.97,1250.75,768.53z"/>
	</g>
	<g>
		
			<ellipse transform="matrix(0.7071 -0.7071 0.7071 0.7071 -433.092 551.5364)" class="st39" cx="449.22" cy="798.56" rx="74.55" ry="74.55"/>
		<path class="st15" d="M413.66,838.06c-11.01-65.87,39.41-67.49,39.41-67.49v-19.52L493.02,791l-38.49,38.49v-22.33
			c0,0-19.35,0.81-26.67,11.38C420.54,829.12,413.66,838.06,413.66,838.06z"/>
	</g>
	<g>
		
			<ellipse transform="matrix(0.322 -0.9467 0.9467 0.322 -338.3052 2640.863)" class="st39" cx="1674.67" cy="1556.63" rx="74.55" ry="74.55"/>
		<path class="st15" d="M1639.11,1596.14c-11.01-65.87,39.41-67.49,39.41-67.49v-19.52l39.95,39.95l-38.49,38.49v-22.33
			c0,0-19.35,0.81-26.67,11.38C1646,1587.19,1639.11,1596.14,1639.11,1596.14z"/>
	</g>
	<g>
		<circle class="st62" cx="1360.54" cy="215.16" r="20"/>
		<circle class="st62" cx="1360.54" cy="305.16" r="20"/>
		
			<ellipse transform="matrix(0.3827 -0.9239 0.9239 0.3827 551.8176 1349.2316)" class="st62" cx="1285.54" cy="261.69" rx="20" ry="20"/>
		<g>
			<path class="st62" d="M1360.54,309.16c-0.68,0-1.37-0.17-2-0.54l-75-43.47c-1.22-0.7-1.97-2-1.99-3.4
				c-0.02-1.41,0.7-2.72,1.89-3.46l75-46.53c1.88-1.16,4.34-0.59,5.51,1.29c1.16,1.88,0.59,4.34-1.29,5.51l-69.33,43.01l69.23,40.13
				c1.91,1.11,2.56,3.56,1.46,5.47C1363.26,308.45,1361.92,309.16,1360.54,309.16z"/>
		</g>
	</g>
	<g>
		<circle class="st23" cx="3289.88" cy="742.85" r="20"/>
		<circle class="st23" cx="3289.88" cy="832.85" r="20"/>
		<circle class="st23" cx="3214.88" cy="789.38" r="20"/>
		<g>
			<path class="st23" d="M3289.88,836.85c-0.68,0-1.37-0.17-2-0.54l-75-43.47c-1.22-0.71-1.97-2-1.99-3.4
				c-0.02-1.4,0.7-2.72,1.89-3.46l75-46.53c1.88-1.17,4.34-0.59,5.51,1.29c1.16,1.88,0.59,4.34-1.29,5.51l-69.33,43.01l69.23,40.13
				c1.91,1.11,2.56,3.56,1.46,5.47C3292.6,836.14,3291.26,836.85,3289.88,836.85z"/>
		</g>
	</g>
	<g>
		<path class="st63" d="M2848.22,207.26h-31.58c-6.67,0-12.08,5.41-12.08,12.08v26.01c0,6.67,5.41,12.08,12.08,12.08h31.58
			c6.67,0,12.08-5.41,12.08-12.08v-26.01C2860.29,212.66,2854.89,207.26,2848.22,207.26z"/>
		<path class="st63" d="M2949.55,207.26h-31.58c-6.67,0-12.08,5.41-12.08,12.08v26.01c0,6.67,5.41,12.08,12.08,12.08h31.58
			c6.67,0,12.08-5.41,12.08-12.08v-26.01C2961.62,212.66,2956.22,207.26,2949.55,207.26z"/>
		<path class="st63" d="M3050.88,207.26h-31.58c-6.67,0-12.08,5.41-12.08,12.08v26.01c0,6.67,5.41,12.08,12.08,12.08h31.58
			c6.67,0,12.08-5.41,12.08-12.08v-26.01C3062.96,212.66,3057.55,207.26,3050.88,207.26z"/>
	</g>
</g>
</svg>
