<?xml version="1.0" encoding="utf-8"?>
<!-- Generator: Adobe Illustrator 25.3.1, SVG Export Plug-In . SVG Version: 6.00 Build 0)  -->
<svg version="1.1" id="Layer_1" xmlns="http://www.w3.org/2000/svg" xmlns:xlink="http://www.w3.org/1999/xlink" x="0px" y="0px"
	 viewBox="0 0 438.5 394.3" style="enable-background:new 0 0 438.5 394.3;" xml:space="preserve">
<style type="text/css">
	.st0{fill:#EAE8ED;}
	.st1{fill:#596876;}
	.st2{fill:#1C1A2A;}
	.st3{fill:#717F90;}
	.st4{fill:#403D54;}
	.st5{fill:#2F2D3D;}
	.st6{fill:#585858;}
	.st7{fill:url(#SVGID_1_);}
	.st8{fill:#090000;}
	.st9{fill:#1A2738;}
	.st10{opacity:0.27;}
	.st11{fill:#8140FF;}
	.st12{fill:#A68EFE;}
	.st13{fill:#FCFFFF;}
	.st14{fill:#D2448D;}
	.st15{fill:#FF73B5;}
	.st16{fill:#D22E72;}
	.st17{fill:#DCD3FE;}
	.st18{fill:#E8ACD5;}
	.st19{fill:#987CFE;}
</style>
<g>
	<g>
		<path class="st0" d="M83.5,336.1l-66.2,38.2c-2.2,1.2-5.6,1.2-7.8,0l0,0c-2.2-1.2-2.2-3.3,0-4.5l66.2-38.2c2.2-1.2,5.6-1.2,7.8,0
			l0,0C85.6,332.8,85.6,334.8,83.5,336.1z"/>
		<path class="st0" d="M134.6,306.5l-35,20.2c-2.2,1.2-5.6,1.2-7.8,0l0,0c-2.2-1.2-2.2-3.3,0-4.5l35-20.2c2.2-1.2,5.6-1.2,7.8,0h0
			C136.8,303.3,136.8,305.3,134.6,306.5z"/>
	</g>
	<path class="st0" d="M103.1,304.7l-66.2,38.2c-2.2,1.2-5.6,1.2-7.8,0l0,0c-2.2-1.2-2.2-3.3,0-4.5l66.2-38.2c2.2-1.2,5.6-1.2,7.8,0
		l0,0C105.3,301.4,105.3,303.4,103.1,304.7z"/>
	<path class="st0" d="M187.8,255.8L121.6,294c-2.2,1.2-5.6,1.2-7.8,0l0,0c-2.2-1.2-2.2-3.3,0-4.5l66.2-38.2c2.2-1.2,5.6-1.2,7.8,0
		l0,0C189.9,252.5,189.9,254.6,187.8,255.8z"/>
	<path class="st0" d="M225.8,274l-66.2,38.2c-2.2,1.2-5.6,1.2-7.8,0l0,0c-2.2-1.2-2.2-3.3,0-4.5l66.2-38.2c2.2-1.2,5.6-1.2,7.8,0
		l0,0C227.9,270.7,227.9,272.7,225.8,274z"/>
	<path class="st0" d="M100.9,346.1l-19.4,11.2c-2.2,1.2-5.6,1.2-7.8,0l0,0c-2.2-1.2-2.2-3.3,0-4.5l19.4-11.2c2.2-1.2,5.6-1.2,7.8,0
		l0,0C103,342.8,103,344.8,100.9,346.1z"/>
	<path class="st0" d="M267,250.2l-19.4,11.2c-2.2,1.2-5.6,1.2-7.8,0l0,0c-2.2-1.2-2.2-3.3,0-4.5l19.4-11.2c2.2-1.2,5.6-1.2,7.8,0
		l0,0C269.2,246.9,269.2,248.9,267,250.2z"/>
	<path class="st0" d="M116.3,277l-66.2,38.2c-2.2,1.2-5.6,1.2-7.8,0l0,0c-2.2-1.2-2.2-3.3,0-4.5l66.2-38.2c2.2-1.2,5.6-1.2,7.8,0
		l0,0C118.4,273.8,118.4,275.8,116.3,277z"/>
	<path class="st0" d="M157.5,253.2l-19.4,11.2c-2.2,1.2-5.6,1.2-7.8,0l0,0c-2.2-1.2-2.2-3.3,0-4.5l19.4-11.2c2.2-1.2,5.6-1.2,7.8,0
		l0,0C159.6,250,159.6,252,157.5,253.2z"/>
</g>
<g>
	<g>
		<path class="st0" d="M234,327.2l-66.2,38.2c-2.2,1.2-5.6,1.2-7.8,0l0,0c-2.2-1.2-2.2-3.3,0-4.5l66.2-38.2c2.2-1.2,5.6-1.2,7.8,0
			l0,0C236.2,323.9,236.2,325.9,234,327.2z"/>
		<path class="st0" d="M285.2,297.7l-35,20.2c-2.2,1.2-5.6,1.2-7.8,0l0,0c-2.2-1.2-2.2-3.3,0-4.5l35-20.2c2.2-1.2,5.6-1.2,7.8,0l0,0
			C287.3,294.4,287.3,296.4,285.2,297.7z"/>
	</g>
	<path class="st0" d="M253.7,295.8L187.5,334c-2.2,1.2-5.6,1.2-7.8,0l0,0c-2.2-1.2-2.2-3.3,0-4.5l66.2-38.2c2.2-1.2,5.6-1.2,7.8,0
		l0,0C255.8,292.6,255.8,294.6,253.7,295.8z"/>
	<path class="st0" d="M338.3,246.9l-66.2,38.2c-2.2,1.2-5.6,1.2-7.8,0h0c-2.2-1.2-2.2-3.3,0-4.5l66.2-38.2c2.2-1.2,5.6-1.2,7.8,0
		l0,0C340.5,243.7,340.5,245.7,338.3,246.9z"/>
	<path class="st0" d="M376.3,265.1l-66.2,38.2c-2.2,1.2-5.6,1.2-7.8,0v0c-2.2-1.2-2.2-3.3,0-4.5l66.2-38.2c2.2-1.2,5.6-1.2,7.8,0
		l0,0C378.5,261.8,378.5,263.8,376.3,265.1z"/>
	<path class="st0" d="M251.4,337.2L232,348.4c-2.2,1.2-5.6,1.2-7.8,0l0,0c-2.2-1.2-2.2-3.3,0-4.5l19.4-11.2c2.2-1.2,5.6-1.2,7.8,0
		l0,0C253.5,334,253.5,336,251.4,337.2z"/>
	<path class="st0" d="M417.5,241.3l-19.4,11.2c-2.2,1.2-5.6,1.2-7.8,0l0,0c-2.2-1.2-2.2-3.3,0-4.5l19.4-11.2c2.2-1.2,5.6-1.2,7.8,0
		l0,0C419.7,238,419.7,240.1,417.5,241.3z"/>
	<path class="st0" d="M266.8,268.1l-66.2,38.2c-2.2,1.2-5.6,1.2-7.8,0l0,0c-2.2-1.2-2.2-3.3,0-4.5l66.2-38.2c2.2-1.2,5.6-1.2,7.8,0
		l0,0C269,264.9,269,266.9,266.8,268.1z"/>
	<path class="st0" d="M308,244.4l-19.4,11.2c-2.2,1.2-5.6,1.2-7.8,0l0,0c-2.2-1.2-2.2-3.3,0-4.5l19.4-11.2c2.2-1.2,5.6-1.2,7.8,0
		l0,0C310.2,241.1,310.2,243.1,308,244.4z"/>
</g>
<g>
	<g>
		<path class="st1" d="M78.6,257.5c1.1,1.5,2.7,2.6,4.2,3.5l191.6,110.6c2.2,1.3,4.6,2.2,7.2,2.8c2.5,0.5,5.1,0.8,7.8,0.8
			c5.3,0,10.6-1.1,15-3.6l91.2-52.6c2.6-1.5,5.4-4,6-6.9c0.1-0.5,0.2-1,0.2-1.5c0,5.9,0,7.7,0,13.6c0,3.7-2.9,6.7-6.2,8.6
			l-91.2,52.6c-2.2,1.3-4.6,2.2-7.2,2.7c-7.4,1.6-16.2,1-22.7-2.7L82.9,274.9c-0.8-0.5-1.6-1-2.4-1.6c-2.1-1.6-3.8-4.4-3.8-7.1h0
			c0-6,0-7.8,0-13.8h0C76.7,254.2,77.5,256.1,78.6,257.5z"/>
		<path class="st2" d="M357.7,345.1c0.6-0.3,1.1-0.4,1.5-0.2c0.5,0.2,0.7,0.7,0.7,1.5v1c0,1.4-1,3.2-2.3,3.9l-15.4,8.9
			c-0.6,0.4-1.2,0.4-1.6,0.2c-0.4-0.2-0.7-0.7-0.7-1.5v-1c0-1.4,1-3.2,2.3-3.9L357.7,345.1z"/>
		<path class="st2" d="M323.5,364.7c2.1-2.2,4.2-1.3,4.1,0.9c-0.1,3.4-3.4,6.7-5.3,5.6c-0.2-0.2-0.4-0.4-0.6-0.7
			c-0.3-0.5-0.3-1.2-0.2-1.8c0.1-0.7,0.3-1.5,0.6-2.1c0,0,0,0,0,0c0.2-0.3,0.3-0.5,0.5-0.8C322.9,365.3,323.2,365,323.5,364.7z"/>
		<path class="st3" d="M82.4,256.7c1.6,1.9,2.8,2.4,8.3,5.6c0.1,0.1,186.7,107.8,187.7,108.3c3.2,1.5,7.1,2.3,11.1,2.3l0,2.3
			c-2.6,0-5.3-0.3-7.8-0.8c-2.6-0.6-5-1.5-7.2-2.8L82.9,261.1c-1.6-0.9-3.1-2-4.2-3.5c-1.1-1.5-1.9-3.3-1.9-5.1c0-0.6,0-1.1,0.2-1.7
			c0.7-2.9,3.5-5.5,6-6.9l91.2-52.6c4.3-2.5,9.7-3.6,15-3.6l0,2.3c-1.9,0-3.9,0.2-5.9,0.6c-3.9,0.8-5.9,2-8.8,3.8
			c-3,1.8,6.8-4-34.2,19.7c-6.7,3.9-13.3,7.8-20,11.6c-6.7,3.8-13.4,7.6-20,11.5c-2.8,1.6-5.5,3.3-8.3,4.8c-3.3,1.8-6.3,3.4-7.9,4.7
			C80.4,249.4,79.5,253.3,82.4,256.7z"/>
		<g>
			<polygon class="st4" points="128.3,294.6 129.9,293.7 113.1,284 111.5,284.9 			"/>
			<polygon class="st5" points="129.9,295.9 129.9,293.7 128.3,294.6 128.3,296.7 			"/>
			<polygon class="st6" points="128.3,296.7 128.3,294.6 111.5,284.9 111.5,287 			"/>
		</g>
		<path class="st2" d="M313.7,373.6L313.7,373.6c0.3-0.2,0.6-0.6,0.6-1l0,0c0-0.4-0.3-0.5-0.6-0.3l0,0c-0.3,0.2-0.6,0.6-0.6,1l0,0
			C313.1,373.7,313.3,373.8,313.7,373.6z"/>
		<g>
			<path class="st2" d="M390.7,332.3L390.7,332.3c0.5-0.3,0.9-1,0.9-1.5v-4.4c0-0.6-0.4-0.8-0.9-0.5l0,0c-0.5,0.3-0.9,1-0.9,1.5v4.4
				C389.8,332.4,390.2,332.6,390.7,332.3z"/>
			<path class="st2" d="M387,334.4L387,334.4c0.5-0.3,0.9-1,0.9-1.5v-4.4c0-0.6-0.4-0.8-0.9-0.5l0,0c-0.5,0.3-0.9,1-0.9,1.5v4.4
				C386.1,334.5,386.5,334.7,387,334.4z"/>
			<path class="st2" d="M383.4,336.6L383.4,336.6c0.5-0.3,0.9-1,0.9-1.5v-4.4c0-0.6-0.4-0.8-0.9-0.5l0,0c-0.5,0.3-0.9,1-0.9,1.5v4.4
				C382.5,336.6,382.9,336.8,383.4,336.6z"/>
			<path class="st2" d="M379.7,338.7L379.7,338.7c0.5-0.3,0.9-1,0.9-1.5v-4.4c0-0.6-0.4-0.8-0.9-0.5l0,0c-0.5,0.3-0.9,1-0.9,1.5v4.4
				C378.8,338.7,379.2,339,379.7,338.7z"/>
			<path class="st2" d="M376,340.8L376,340.8c0.5-0.3,0.9-1,0.9-1.5v-4.4c0-0.6-0.4-0.8-0.9-0.5l0,0c-0.5,0.3-0.9,1-0.9,1.5v4.4
				C375.1,340.9,375.5,341.1,376,340.8z"/>
			<path class="st2" d="M372.4,342.9L372.4,342.9c0.5-0.3,0.9-1,0.9-1.5V337c0-0.6-0.4-0.8-0.9-0.5l0,0c-0.5,0.3-0.9,1-0.9,1.5v4.4
				C371.5,343,371.9,343.2,372.4,342.9z"/>
		</g>
		<path class="st3" d="M395.6,319l-91.2,52.6c-4.3,2.5-9.7,3.6-15,3.6l0-2.3c3.5,0,7-0.6,10-1.9c1.8-0.7,3.1-1.6,4.7-2.5
			c3-1.8-6.8,4,34.2-19.7c6.7-3.9,13.3-7.8,20-11.6c6.7-3.8,13.4-7.6,20-11.5c2.8-1.6,5.5-3.3,8.3-4.8c5.5-3.1,8.1-4.3,9.8-6.8
			c2.2-3.2,1.7-7.4-3.8-10.7c-0.2-0.1-191.8-110.8-192.7-111.2c-3-1.5-7-2.3-11.1-2.3l0-2.3c2.6,0,5.3,0.3,7.8,0.8
			c2.6,0.6,5,1.5,7.2,2.8l191.6,110.6c1.6,0.9,3.1,2,4.2,3.5c1.2,1.5,1.9,3.5,1.9,5.4c0,0.5-0.1,1-0.2,1.5
			C401,315,398.2,317.6,395.6,319z"/>
		<g>
			<path class="st3" d="M203.6,194.2c-2.2-1.3-3.5-2-3.5-2c-3-1.5-7-2.3-11.1-2.3c-1.9,0-3.9,0.2-5.9,0.6c-3.9,0.8-5.9,2-8.8,3.8
				c-2.8,1.7,5.5-3.2-26.4,15.2l-7.8,4.5c-6.7,3.9-13.3,7.8-20,11.6c-1.8,1.1-3.7,2.1-5.5,3.1c-4.8,2.8-9.7,5.5-14.5,8.4
				c-2.8,1.6-5.5,3.3-8.3,4.8c-3.3,1.8-6.3,3.4-7.9,4.7c-3.5,2.8-4.4,6.7-1.5,10.1c1.6,1.9,2.8,2.4,8.3,5.6l81,46.8
				c50.5,29.2,106.1,61.3,106.7,61.5c3.2,1.5,7.1,2.3,11.1,2.3c3.5,0,7-0.6,10-1.9c1.8-0.7,3.1-1.6,4.7-2.5c3-1.8-6.8,4,34.2-19.7
				c6.7-3.9,13.3-7.8,20-11.6c6.7-3.8,13.4-7.6,20-11.5c2.8-1.6,5.5-3.3,8.3-4.8c5.5-3.1,8.1-4.3,9.8-6.8c2.2-3.1,1.8-7.1-3.2-10.3
				c-0.2-0.1-0.4-0.3-0.6-0.4C392.6,303.3,229.8,209.3,203.6,194.2z"/>
			<linearGradient id="SVGID_1_" gradientUnits="userSpaceOnUse" x1="80.6602" y1="281.4075" x2="397.8025" y2="281.4075">
				<stop  offset="0" style="stop-color:#C4B8E9"/>
				<stop  offset="0.4166" style="stop-color:#B2CFDE"/>
				<stop  offset="1" style="stop-color:#FFCADE"/>
			</linearGradient>
			<path class="st7" d="M393.4,303.8c4.9,3.2,5.3,7.2,3.2,10.3c-1.7,2.5-4.3,3.7-9.8,6.8c-2.8,1.6-5.6,3.2-8.3,4.8
				c-6.7,3.9-13.4,7.7-20,11.5c-6.7,3.9-13.3,7.8-20,11.6c-41,23.7-31.3,17.9-34.2,19.7c-1.6,0.9-2.9,1.8-4.7,2.5
				c-6.4,2.7-15.2,2.5-21.1-0.4c-0.9-0.4-163.2-94.1-187.7-108.3c-5.5-3.2-6.8-3.7-8.3-5.6c-2.8-3.4-1.9-7.3,1.5-10.1
				c1.9-1.5,3.5-2.1,16.2-9.5c3.8-2.2,7.6-4.4,11.3-6.5c1.8-1,4.6-1,6.4,0c4.2,2.4,10.9,2.4,15.1,0l18.3-10.6c4.2-2.4,4.2-6.3,0-8.7
				c-1.9-1.1-1.8-2.7,0-3.7c28.1-16.2,20.5-11.7,23.2-13.3c2.9-1.8,4.8-3,8.8-3.8c6-1.3,12.5-0.4,17,1.7
				C200.2,192.2,195,189.2,393.4,303.8z"/>
		</g>
		<g>
			<path class="st8" d="M144,216.6c0.8-0.5,2.2-0.5,3,0l1.1,0.6L127.8,229c-0.8,0.5-2.2,0.5-3,0l-1.1-0.6L144,216.6z"/>
			<path class="st9" d="M147,214.6l1.4,0.8c0.8,0.5,0.8,1.3,0,1.7l-0.3,0.2l-1.1-0.6c-0.8-0.5-2.2-0.5-3,0l-20.3,11.7l-0.3-0.2
				c-0.4-0.2-0.6-0.5-0.6-0.8c0,0,0,0,0,0c0-0.3,0.2-0.6,0.6-0.9l20.6-11.9C144.8,214.1,146.2,214.1,147,214.6z"/>
		</g>
		<path class="st3" d="M109.4,237.4c1.7,1,4.4,1,6.1,0c1.7-1,1.7-2.6,0-3.5c-1.7-1-4.4-1-6.1,0C107.7,234.9,107.7,236.5,109.4,237.4
			z"/>
		<path class="st3" d="M167.9,203.7c1.7,1,4.4,1,6.1,0c1.7-1,1.7-2.6,0-3.5c-1.7-1-4.4-1-6.1,0C166.2,201.1,166.2,202.7,167.9,203.7
			z"/>
		<ellipse class="st3" cx="101.8" cy="241.9" rx="2.2" ry="1.2"/>
		<path class="st3" d="M154.9,210.8c0.8,0.5,2.2,0.5,3.1,0c0.8-0.5,0.8-1.3,0-1.8c-0.8-0.5-2.2-0.5-3.1,0
			C154,209.5,154,210.3,154.9,210.8z"/>
		<ellipse class="st3" cx="161.4" cy="207" rx="2.2" ry="1.2"/>
	</g>
	<g class="st10">
		<path class="st3" d="M164.7,238.7l-41.6,24c-1.3,0.8-3.5,0.8-4.9,0l0,0c-1.3-0.8-1.3-2,0-2.8l41.6-24c1.3-0.8,3.5-0.8,4.9,0l0,0
			C166.1,236.7,166.1,237.9,164.7,238.7z"/>
		<path class="st3" d="M162,251.6l-29,16.7c-1.3,0.8-3.5,0.8-4.9,0l0,0c-1.3-0.8-1.3-2,0-2.8l29-16.7c1.3-0.8,3.5-0.8,4.9,0l0,0
			C163.3,249.6,163.3,250.8,162,251.6z"/>
		<path class="st3" d="M171.7,257.2l-29,16.7c-1.3,0.8-3.5,0.8-4.9,0h0c-1.3-0.8-1.3-2,0-2.8l29-16.7c1.3-0.8,3.5-0.8,4.9,0l0,0
			C173.1,255.2,173.1,256.5,171.7,257.2z"/>
	</g>
	<g class="st10">
		<path class="st3" d="M239.7,226.6l-41.6,24c-1.3,0.8-3.5,0.8-4.9,0v0c-1.3-0.8-1.3-2,0-2.8l41.6-24c1.3-0.8,3.5-0.8,4.9,0l0,0
			C241.1,224.6,241.1,225.9,239.7,226.6z"/>
		<path class="st3" d="M237,239.5l-29,16.7c-1.3,0.8-3.5,0.8-4.9,0l0,0c-1.3-0.8-1.3-2,0-2.8l29-16.7c1.3-0.8,3.5-0.8,4.9,0l0,0
			C238.3,237.5,238.3,238.8,237,239.5z"/>
		<path class="st3" d="M246.7,245.2l-29,16.7c-1.3,0.8-3.5,0.8-4.9,0h0c-1.3-0.8-1.3-2,0-2.8l29-16.7c1.3-0.8,3.5-0.8,4.9,0v0
			C248.1,243.1,248.1,244.4,246.7,245.2z"/>
	</g>
	<g class="st10">
		<path class="st3" d="M253.3,293.8l-41.6,24c-1.3,0.8-3.5,0.8-4.9,0v0c-1.3-0.8-1.3-2,0-2.8l41.6-24c1.3-0.8,3.5-0.8,4.9,0l0,0
			C254.6,291.8,254.6,293.1,253.3,293.8z"/>
		<path class="st3" d="M250.5,306.7l-29,16.7c-1.3,0.8-3.5,0.8-4.9,0l0,0c-1.3-0.8-1.3-2,0-2.8l29-16.7c1.3-0.8,3.5-0.8,4.9,0h0
			C251.8,304.7,251.8,306,250.5,306.7z"/>
		<path class="st3" d="M260.3,312.4l-29,16.7c-1.3,0.8-3.5,0.8-4.9,0l0,0c-1.3-0.8-1.3-2,0-2.8l29-16.7c1.3-0.8,3.5-0.8,4.9,0v0
			C261.6,310.3,261.6,311.6,260.3,312.4z"/>
	</g>
	<g>
		<path class="st11" d="M387.6,191.3c-5.1,2.9-10.2,5.9-15.3,8.8c2.6-1.6,4.2-4.9,4.2-9.5c0-8.6,0-17.2,0-25.8
			c0-9.5-6.7-21-14.9-25.7c-12.6-7.3-25.2-14.6-37.8-21.8c-4-2.3-7.7-2.6-10.3-1.1c5.1-3,10.2-5.9,15.3-8.9c2.7-1.5,6.4-1.3,10.5,1
			c12.6,7.3,25.2,14.6,37.8,21.8c8.2,4.7,14.9,16.3,14.9,25.7c0,8.6,0,17.2,0,25.8C391.9,186.4,390.3,189.8,387.6,191.3z"/>
		<path class="st12" d="M376.4,164.9c0,8.6,0,17.2,0,25.8c0,4.6-1.6,7.9-4.2,9.5c-0.1,0-0.1,0.1-0.2,0.1c-2.7,1.6-6.4,1.3-10.5-1
			c-12.6-7.3-25.2-14.6-37.8-21.8l-14.9,4.2c0-6.7,0-49,0-55.7c0-4.7,1.7-8.1,4.4-9.6c0.1,0,0.1-0.1,0.2-0.1
			c2.7-1.5,6.3-1.2,10.3,1.1c12.6,7.3,25.2,14.6,37.8,21.8C369.8,143.9,376.4,155.4,376.4,164.9z"/>
		<g>
			<path class="st13" d="M334.7,152.4c0,2-1.6,2.7-3.7,1.5s-3.7-3.8-3.7-5.8c0-2,1.6-2.7,3.7-1.5S334.7,150.4,334.7,152.4z"/>
			<path class="st13" d="M346.3,159.1c0,2-1.6,2.7-3.7,1.5c-2-1.2-3.7-3.8-3.7-5.8s1.6-2.7,3.7-1.5
				C344.7,154.5,346.3,157.1,346.3,159.1z"/>
			<path class="st13" d="M358,165.9c0,2-1.6,2.7-3.7,1.5c-2-1.2-3.7-3.8-3.7-5.8s1.6-2.7,3.7-1.5S358,163.8,358,165.9z"/>
		</g>
	</g>
	<g>
		<path class="st12" d="M327,71.8c0,1.3,0,2.6,0,3.9c0-1.1-1.1-2-2.4-2C325.9,73.7,327,72.9,327,71.8z"/>
		<path class="st12" d="M327,68.4c0,1.1,0,2.3,0,3.4c0-1.1-1.1-2-2.4-2c-1.2,0-4.3,0-5.5,0v0c0.1-0.2,1.2-3.6,1.2-6.8
			c0-0.2,0-0.3,0-0.5c0.8,0,3.2,0,4.3,0c1.3,0,2.4,0.9,2.4,2C327,65.8,327,67.1,327,68.4z"/>
		<path class="st12" d="M326.6,76.9c0,0.9,0,1.7,0,2.6c0-0.8-0.5-1.4-1.3-1.8h-0.6C325.4,77.7,326.1,77.4,326.6,76.9z"/>
		<path class="st12" d="M324.1,81.4c0.3,0,0.6-0.1,0.9-0.1c0,0.6,0,1.2,0,1.8C325.1,82.4,324.7,81.8,324.1,81.4L324.1,81.4
			C324.1,81.4,324.1,81.4,324.1,81.4z"/>
		<path class="st11" d="M320.3,63c0,3.2-1.1,6.6-1.2,6.8v0c1.3,0,4.3,0,5.5,0c1.3,0,2.4,0.9,2.4,2c0,1.1-1.1,2-2.4,2
			c1.3,0,2.4,0.9,2.4,2c0,0.4-0.2,0.8-0.5,1.2c-0.4,0.5-1.1,0.8-1.9,0.8h0.6c0.8,0.3,1.3,1,1.3,1.8c0,0.8-0.6,1.5-1.5,1.8v0
			c-0.3,0.1-0.6,0.1-0.9,0.1c0,0,0,0-0.1,0c-0.6,0-1.1,0-1.7,0l1.7,0.1c0.6,0.4,1,0.9,1,1.6c0,1.1-1.1,2-2.4,2c-0.2,0-0.3,0-0.5,0
			c-1.2,0-2.5,0-3.7,0c-1.9,0-3.9,0-5.8,0c-3.7,0-6.7-2.4-6.7-5.4c0-1.4,0-3.9,0-5.7c0-2,1.5-3.8,3.8-4.5c2.2-0.7,4.7-2.4,6-6.4
			c1.1-3.3,4.1-3.2,4.4-0.5C320.3,62.6,320.3,62.8,320.3,63z"/>
		<path class="st12" d="M309.8,69.3c-2.3,0.7-3.8,2.5-3.8,4.5c0-0.5,0-1.1,0-1.6c0,0,0,0,0,0c0-1.9,0-3.8,0-5.7c0-2,1.5-3.8,3.8-4.5
			c2.2-0.7,4.7-2.4,6-6.4c1.2-3.5,4.5-3.2,4.5,0c0,2.3,0,4.5,0,6.8c0,0,0,0,0,0c-0.3-2.7-3.3-2.8-4.4,0.5
			C314.5,66.9,311.9,68.6,309.8,69.3z"/>
	</g>
	<g>
		<path class="st12" d="M199.4,18c-2-0.3-4-0.6-5.9-0.9c0.6-5,2-8.9,3-9.1l0.1,0c2.3,0.4,4.7,0.7,7,1.1v0c-0.3,0-0.7,0.4-1.2,1.4
			c-1.1,2.5-2.1,7.4-2.1,11C200.3,19.2,199.9,18,199.4,18L199.4,18z"/>
		<path class="st11" d="M200.3,21.4c0-3.6,0.9-8.5,2.1-11c0.4-0.9,0.8-1.4,1.2-1.4c0.5,0,0.9,1.2,0.9,3.5c0,3.1-0.3,4.4-4.1,27.3
			c-1.1-2.4-2.3-4.5-3.6-6.2c-0.3-0.4-0.5-1.5-0.5-3.2c0-3.6,0.9-8.5,2.1-11c0.4-0.9,0.8-1.4,1.2-1.4
			C199.9,18,200.3,19.2,200.3,21.4z"/>
		<path class="st12" d="M192.4,16.9c0.3,0.1,0.7,0.1,1.1,0.2c2,0.3,4,0.6,5.9,0.9v0c-0.3,0-0.7,0.4-1.2,1.4c-1.1,2.5-2.1,7.4-2.1,11
			c0,1.7,0.2,2.8,0.5,3.2c1.3,1.7,2.5,3.8,3.6,6.2l-7.1-1.1c-1.1-2.4-2.3-4.5-3.6-6.2c-0.3-0.4-0.5-1.5-0.5-3.2
			c0-3.6,0.9-8.5,2.1-11C191.6,17.3,192,16.8,192.4,16.9z"/>
	</g>
	<g>
		<path class="st14" d="M240.9,252.5c0,0.6,0,1.3,0,1.9l-1.9,1.1l-38.2,22c0-0.6,0-1.3,0-1.9c0-7.4,5.2-16.3,11.5-20
			c5.7-3.3,11.4-6.6,17-9.8c3.1-1.8,6-2,8-0.9C239.5,246.2,240.9,248.8,240.9,252.5z"/>
		<polygon class="st12" points="240.9,256.7 200.7,279.9 191.4,274.5 193.3,273.3 200.7,277.6 238.9,255.6 		"/>
		<polygon class="st15" points="240.8,277.4 200.8,300.5 191.4,295.1 193.3,294 200.8,298.3 238.9,276.3 		"/>
		<path class="st14" d="M240.8,277.4c-0.3,7.2-5.3,15.7-11.5,19.3c-5.7,3.3-11.4,6.6-17,9.8c-3.2,1.8-6.1,2-8.2,0.8c0,0,0,0,0,0
			c-1.9-1.1-3.2-3.5-3.3-6.8L240.8,277.4z"/>
		<path class="st15" d="M228.1,239.7c3.1,1.8,6.2,3.6,9.2,5.3l0,0c-2.1-1.1-4.9-0.9-8,0.9c-5.7,3.3-11.4,6.6-17,9.8
			c-6.4,3.7-11.5,12.6-11.5,20c0,0.6,0,1.3,0,1.9l-7.4-4.3l-1.9-1.1c0-0.6,0-1.3,0-1.9c0-7.4,5.2-16.3,11.5-20
			c5.7-3.3,11.4-6.6,17-9.8C223.2,238.6,226,238.5,228.1,239.7z"/>
		<path class="st15" d="M200.8,300.5c0.1,3.3,1.4,5.6,3.3,6.8c-3.1-1.8-6.2-3.6-9.3-5.4c-2-1.1-3.2-3.5-3.4-6.8L200.8,300.5z"/>
		<path class="st11" d="M238.9,276.3l-38.1,22c0-0.5,0,0.7,0-18.4l40.1-23.2v17.8c0,0.2,0,0.5,0,0.7L238.9,276.3z"/>
		<path class="st12" d="M200.7,279.9c0,19.1,0,17.9,0,18.4l-7.4-4.3l-1.9-1.1c0-0.5,0,1,0-18.4L200.7,279.9z"/>
	</g>
	<g>
		<path class="st15" d="M119.9,97.2c1.5,0.9,3,1.7,4.5,2.6v0c-0.9-0.5-2.1-0.4-3.5,0.3c-2.7,1.6-4.9,5.3-4.9,8.4
			c0-1.6-0.5-2.7-1.4-3.2l0,0c-0.9-0.5-1.8-1-2.7-1.6c0.7-2.5,2.5-5.1,4.6-6.3C117.8,96.7,119,96.6,119.9,97.2z"/>
		<path class="st16" d="M125.8,102.9c0,1.4-0.5,3-1.2,4.5c-2.8,5.7-5.7,11.3-8.5,17c-2.7-2.6-5.5-5-8.5-7.1c-0.8-0.6-1.2-1.6-1.2-3
			c0-3.1,2.2-6.9,4.9-8.4c1.3-0.8,2.6-0.8,3.4-0.3c0.9,0.5,1.4,1.6,1.4,3.2c0-3.1,2.2-6.9,4.9-8.4c1.3-0.8,2.6-0.9,3.5-0.3
			C125.2,100.2,125.8,101.3,125.8,102.9z"/>
		<path class="st15" d="M106.2,114.1c0,1.4,0.5,2.5,1.2,3c3,2.1,5.8,4.5,8.5,7.1l-4.4-2.6c-2.7-2.6-5.5-5-8.5-7.1
			c-0.8-0.6-1.2-1.6-1.2-3c0-3.1,2.2-6.9,4.9-8.4c1.3-0.8,2.6-0.8,3.4-0.3c0.6,0.3,1.2,0.7,1.7,1c0.9,0.5,1.8,1,2.7,1.6l0,0
			c-0.9-0.5-2.1-0.4-3.4,0.3C108.4,107.2,106.2,111,106.2,114.1z"/>
	</g>
	<g>
		<path class="st12" d="M379.3,229v3.6c0-3.1-3.1-5.6-6.9-5.6c-3.6,0-6.6,2.3-6.9,5.2h0V229c0-3.1,3.1-5.6,6.9-5.6
			C376.2,223.4,379.3,225.9,379.3,229z"/>
		<path class="st11" d="M365.5,248.4c-3.8-4.2-7.8-8.2-12-12c-1.1-1-1.8-2.3-1.8-3.7c0-3.1,3.1-5.6,6.9-5.6s6.9,2.5,6.9,5.6
			c0-0.1,0-0.2,0-0.4c0.2-2.9,3.2-5.2,6.9-5.2c3.8,0,6.9,2.5,6.9,5.6c0,1.4-0.7,2.7-1.8,3.7C373.5,240.4,369.5,244.4,365.5,248.4z"
			/>
		<path class="st12" d="M365.5,232.3c0,0.1,0,0.2,0,0.4c0-3.1-3.1-5.6-6.9-5.6s-6.9,2.5-6.9,5.6c0-1.2,0-2.4,0-3.6h0
			c0-2.9,2.9-5.6,6.9-5.6c3.8,0,6.9,2.5,6.9,5.6L365.5,232.3L365.5,232.3z"/>
	</g>
	<g>
		<path class="st11" d="M193.8,67.1c0,8.3,0,16.6,0,24.8c0,8.7-6.1,19.3-13.6,23.6c-1.1,0.6-2.1,1.2-3.2,1.8l-7.6,18.2l-7.6-9.5
			c-1.1,0.6-2.1,1.2-3.2,1.8c-0.3,0.2-0.6,0.3-0.9,0.5c-3.4,1.7-6.5,1.8-8.7,0.5c-0.1,0-0.1-0.1-0.2-0.1c-2.4-1.5-3.8-4.5-3.8-8.7
			c0-8.3,0-16.6,0-24.8c0-8.7,6.1-19.3,13.6-23.6c7.2-4.1,14.3-8.3,21.5-12.4c3.7-2.1,7-2.4,9.5-1c0,0,0.1,0.1,0.1,0.1
			C192.3,59.7,193.8,62.8,193.8,67.1z"/>
		<path class="st12" d="M138,122.6c-2.5-1.4-4-4.5-4-8.8c0-8.3,0-16.6,0-24.8c0-8.7,6.1-19.3,13.6-23.6c7.2-4.1,14.3-8.3,21.5-12.4
			c3.8-2.2,7.2-2.4,9.6-1c3.6,2.1,7.3,4.2,10.9,6.3c-2.5-1.3-5.8-1.1-9.5,1c-7.2,4.1-14.3,8.3-21.5,12.4C151.1,76,145,86.6,145,95.3
			c0,8.3,0,16.6,0,24.8c0,4.2,1.5,7.3,3.8,8.7C145.2,126.8,141.6,124.7,138,122.6z"/>
		<path class="st12" d="M161.8,126.2l7.6,9.5l-11.1-6.4l-0.6-0.8c0.3-0.1,0.6-0.3,0.9-0.5C159.7,127.4,160.8,126.8,161.8,126.2z"/>
		<path class="st17" d="M162.4,91.8c-1.4,1-2.4,2.7-2.4,4.1v0.6l-2,1.2c-0.6,0.3-1.1,1.1-1.1,1.7s0.5,0.8,1.1,0.5l2-1.2v0.6
			c0,1.4,1,2,2.4,1.4l0.3-0.1v4.3c0,0.6,0.5,0.8,1.1,0.5c0.6-0.3,1.1-1.1,1.1-1.7v-4l5.9-2.6c0.3,1.4,1.6,1.8,3.2,0.9
			c1.8-1,3.2-3.3,3.2-5.1V82.7c0-1.8-1.5-2.4-3.2-1.4c-1.6,0.9-2.9,2.9-3.2,4.5L162.4,91.8z M170.8,94.9l-8,3.6
			c-0.3,0.1-0.5,0-0.5-0.3v-3.5c0-0.3,0.2-0.7,0.5-0.9l8-5.7V94.9z M172.9,85.2c0-0.6,0.5-1.4,1.1-1.7c0.6-0.3,1.1-0.1,1.1,0.5V94
			c0,0.6-0.5,1.4-1.1,1.7c-0.6,0.3-1.1,0.1-1.1-0.5V85.2z"/>
	</g>
	<g>
		<path class="st14" d="M134,150.3c0,6,0,43.2,0,49.1l-13.1-3.7c-15.5,8.9-31,17.9-46.4,26.8c-3.6,2.1-6.9,2.3-9.3,0.9
			c-2.4-1.4-3.8-4.3-3.8-8.5c0-7.6,0-15.2,0-22.7c0-8.4,5.9-18.5,13.1-22.7c15.5-8.9,31-17.9,46.4-26.8c3.5-2,6.8-2.3,9.1-1
			C132.4,143,134,146,134,150.3z"/>
		<path class="st15" d="M130,141.7c-2.4-1.3-5.6-1.1-9.1,1c-15.5,8.9-31,17.9-46.4,26.8c-7.2,4.2-13.1,14.3-13.1,22.7
			c0,7.6,0,15.1,0,22.7c0,4.2,1.5,7.1,3.8,8.5v0c-3.5-2-7.1-4.1-10.6-6.1c-2.4-1.4-3.8-4.3-3.8-8.5c0-7.6,0-15.1,0-22.7
			c0-8.4,5.9-18.5,13.1-22.7c15.5-8.9,31-17.9,46.4-26.8c3.6-2.1,6.9-2.3,9.3-0.9C123,137.7,126.5,139.7,130,141.7L130,141.7z"/>
		<path class="st18" d="M109.9,174.8c0-6.8-5.5-9.1-12.3-5.2c-2,1.1-3.9,2.7-5.6,4.6c-1.5,1.7-2.9,3.6-4,5.5c-0.2,0-0.4,0.1-0.5,0.2
			c-1,0.6-1.8,1.8-1.8,2.8c0,0.5,0.2,0.8,0.5,1c-0.6,1.9-1,3.7-1,5.3c0,6.8,5.5,9.1,12.3,5.2c2.2-1.3,4.3-3.1,6.2-5.3
			c1.3-1.5,2.4-3,3.3-4.7c0,0,0-0.1,0.1-0.1c0.1-0.1,1.3-2.2,2.1-5c0,0,0,0,0-0.1c0.2-0.6,0.3-1.2,0.4-1.7c0.1-0.6,0.2-1.2,0.2-1.8
			c0-0.1,0-0.1,0-0.2C109.9,175.3,109.9,175.1,109.9,174.8z M108.8,174.9l-3.5,2c0-0.6-0.1-1.1-0.1-1.6c0.6-0.6,1-1.5,1-2.2
			c0-1-0.8-1.3-1.7-0.8c-0.3-0.7-0.6-1.4-1.1-1.9c0.5-0.4,0.9-0.9,1.4-1.3C107.1,169.8,108.6,171.8,108.8,174.9z M105.1,173.8
			c0,0.4-0.3,0.9-0.7,1.1c-0.4,0.2-0.7,0.1-0.7-0.3c0-0.4,0.3-0.9,0.7-1.1C104.8,173.3,105.1,173.4,105.1,173.8z M103.8,169
			c-0.3,0.3-0.6,0.6-0.9,0.9c-0.3-0.3-0.6-0.5-1-0.7c-0.1,0-0.1-0.1-0.2-0.1C102.4,169,103.1,168.9,103.8,169z M98.1,170.4
			c1.3-0.6,2.6-0.4,3.6,0.4c-1.1,0.9-2.4,1.8-3.6,2.6V170.4z M98.1,174.5c1.5-0.9,2.9-1.9,4.3-3c0.4,0.5,0.8,1.1,1.1,1.8
			c-0.5,0.6-0.8,1.4-0.8,2c0,0.9,0.7,1.3,1.5,0.9c0.1,0.5,0.1,1,0.1,1.4l-6.1,3.5V174.5z M98.1,182.2l6.1-3.5
			c-0.1,2.8-0.7,5.7-1.9,8.3l0,0c-1.3,0.4-2.8,1-4.3,1.9v-1.8c0.7-0.6,1.3-1.6,1.3-2.4s-0.5-1.2-1.3-1V182.2z M97,171v2.9
			c-1.3,0.7-2.5,1.2-3.6,1.6C94.4,173.6,95.7,172,97,171z M92.4,174.9c0.3-0.4,0.7-0.7,1-1.1c-0.4,0.7-0.8,1.4-1.2,2.1
			c-0.3,0.1-0.6,0.2-0.9,0.2C91.7,175.7,92.1,175.3,92.4,174.9z M87.4,181c0.4-0.2,0.7-0.1,0.7,0.3c0,0.4-0.3,0.9-0.7,1.1
			c-0.4,0.2-0.7,0.1-0.7-0.3C86.7,181.8,87,181.3,87.4,181z M87.1,183.7c0.1,0,0.2-0.1,0.3-0.1c1-0.6,1.8-1.8,1.8-2.8
			c0-0.4-0.1-0.7-0.4-0.9c0.4-0.8,0.9-1.6,1.5-2.3c0.4-0.1,0.9-0.1,1.4-0.3c-0.5,1.3-1,2.6-1.3,4c-0.1,0.3,0.1,0.5,0.4,0.4
			c0,0,0.1,0,0.1-0.1c0.2-0.1,0.5-0.4,0.5-0.7c0.3-1.4,0.8-2.8,1.3-4c1.3-0.4,2.8-1.1,4.3-1.9v6.7l-6.1,3.5c0-0.6,0.1-1.1,0.1-1.7
			c0-0.3-0.2-0.5-0.5-0.3c-0.3,0.1-0.6,0.5-0.6,0.8c-0.1,0.6-0.1,1.3-0.1,1.9l-3.5,2C86.3,186.6,86.6,185.2,87.1,183.7z M86.3,189
			l3.5-2c0.1,2.8,0.7,5,1.9,6.5c-0.5,0.4-0.9,0.9-1.4,1.3C88,194.2,86.4,192.2,86.3,189z M91.3,195c0.3-0.3,0.6-0.6,0.9-0.9
			c0.4,0.3,0.8,0.6,1.2,0.8C92.7,195,92,195,91.3,195z M97,193.5c-1.3,0.6-2.6,0.5-3.6-0.4c1.2-0.9,2.4-1.8,3.6-2.6V193.5z
			 M97,189.5c-1.5,0.9-2.9,1.9-4.3,3c-1.1-1.3-1.8-3.5-1.9-6.2l6.1-3.5v1.5h0c-0.7,0.6-1.3,1.6-1.3,2.4c0,0.8,0.5,1.2,1.3,1V189.5z
			 M97.5,186.4c-0.4,0.2-0.7,0.1-0.7-0.3c0-0.4,0.3-0.9,0.7-1.1c0.4-0.2,0.7-0.1,0.7,0.3C98.3,185.7,97.9,186.2,97.5,186.4z
			 M98.1,192.9v-2.9c1.3-0.7,2.5-1.2,3.6-1.6C100.7,190.3,99.4,191.9,98.1,192.9z M103.2,188.4c-0.5,0.6-1,1.1-1.6,1.7
			c0.4-0.7,0.8-1.4,1.2-2.1c0.3-0.1,0.6-0.2,0.9-0.2C103.6,188,103.4,188.2,103.2,188.4z M104.8,186.4c-0.4,0.1-0.9,0.1-1.4,0.3
			c1.1-2.8,1.8-5.8,1.9-8.7l3.5-2c0,0.6-0.1,1.2-0.2,1.8c-0.3,1.6-0.8,3.1-1.3,4.2c0,0,0,0.1,0,0.1
			C106.6,183.6,105.8,185,104.8,186.4z"/>
	</g>
	<g>
		<path class="st14" d="M230.9,148c0,11.6,0,23.2,0,34.8c0,12.2-8.5,27-19.1,33.1c-1.5,0.9-3,1.7-4.5,2.6L196.7,244l-10.6-13.3
			c-1.5,0.9-3,1.7-4.5,2.6c-0.4,0.2-0.9,0.5-1.3,0.7c-4.8,2.4-9.1,2.5-12.2,0.6c-0.1,0-0.2-0.1-0.2-0.1c-3.3-2.1-5.3-6.3-5.3-12.2
			c0-11.6,0-23.2,0-34.8c0-12.2,8.6-27,19.1-33.1c10-5.8,20.1-11.6,30.1-17.4c5.2-3,9.9-3.3,13.3-1.5c0.1,0,0.1,0.1,0.2,0.1
			C228.8,137.6,230.9,141.9,230.9,148z"/>
		<path class="st15" d="M152.7,225.7c-3.5-2-5.6-6.3-5.6-12.4c0-11.6,0-23.2,0-34.8c0-12.2,8.5-27,19.1-33.1
			c10-5.8,20.1-11.6,30.1-17.4c5.3-3,10.1-3.3,13.5-1.3c5.1,2.9,10.2,5.9,15.3,8.8c-3.4-1.9-8.1-1.5-13.3,1.5
			c-10,5.8-20.1,11.6-30.1,17.4c-10.6,6.1-19.1,20.9-19.1,33.1c0,11.6,0,23.2,0,34.8c0,5.9,2,10.2,5.3,12.2
			C162.8,231.5,157.8,228.6,152.7,225.7z"/>
		<path class="st15" d="M186.1,230.7l10.6,13.3l-15.5-8.9l-0.8-1.1c0.4-0.2,0.9-0.4,1.3-0.7C183.2,232.4,184.7,231.5,186.1,230.7z"
			/>
		<g>
			<path class="st18" d="M196.7,207.7c-0.3,0-0.6-0.1-0.9-0.4c-3.9-3.8-8.1-7.4-12.4-10.5c-1.5-1.1-2.4-3-2.4-5.5
				c0-5.1,3.4-11,7.8-13.6c2.3-1.3,4.6-1.5,6.3-0.5c0.4,0.2,0.8,0.6,1.2,0.9c1.3-3.6,3.9-7,6.9-8.8c2.3-1.3,4.6-1.5,6.4-0.5
				c1.7,1,2.7,3,2.7,5.7c0,2.1-0.7,4.6-2,7.2c-4.2,8.4-8.4,16.7-12.6,25.1c-0.2,0.4-0.5,0.6-0.9,0.7
				C196.9,207.7,196.8,207.7,196.7,207.7z M192.7,179.1c-0.8,0-1.6,0.3-2.6,0.8c-3.6,2.1-6.6,7.3-6.6,11.4c0,1.6,0.5,2.9,1.3,3.5
				c4,2.9,7.9,6.1,11.5,9.5c3.9-7.9,7.9-15.7,11.8-23.6c1.1-2.2,1.7-4.3,1.7-6.1c0-1.8-0.5-3-1.5-3.6c-1-0.6-2.3-0.4-3.9,0.5
				c-3.6,2.1-6.6,7.3-6.6,11.4c0,0.7-0.6,1.2-1.2,1.2c-0.7,0-1.2-0.6-1.2-1.2c0-1.7-0.5-3.1-1.5-3.6
				C193.6,179.2,193.2,179.1,192.7,179.1z"/>
		</g>
	</g>
	<g>
		<path class="st11" d="M381.9,305.3c0,0.9-0.3,1.4-0.7,1.6c-14.5,8.4-28.9,16.7-43.4,25.1V328l-3.7-2.1c14.5-8.4,29-16.8,43.5-25.1
			c0.5-0.3,1.2-0.1,1.7,0.1c0.7,0.4,1.2,0.9,1.6,1.6C381.5,303.4,381.9,304.3,381.9,305.3z"/>
		<path class="st11" d="M356.7,279.6c0.4,1,0.6,2.3,0.5,3.9c2.2-1.1,4.2-1.2,5.7-0.3c1.6,0.9,2.6,2.9,2.6,5.6
			c0,5.6-3.9,12.4-8.7,15.2c-11.4,6.6-22.8,13.2-34.2,19.8c-2.5,1.4-4.7,1.5-6.3,0.5c-1.5-0.9-2.4-2.9-2.4-5.6
			c0-4.9,3-10.6,6.9-13.9c-3.1-7.5,3-20.6,11.3-25.4c3.3-1.9,6.3-2.1,8.4-0.9c0,0,0,0,0.1,0c1.5,0.8,2.5,2.3,3.1,4.3
			c3.7-5.3,8.4-7.2,11.2-5.6C355.6,277.8,356.3,278.5,356.7,279.6z"/>
		<path class="st12" d="M356.7,279.6c2.1,1.2,4.1,2.4,6.2,3.6l0,0c-1.5-0.9-3.5-0.8-5.7,0.3C357.4,281.9,357.2,280.6,356.7,279.6z"
			/>
		<path class="st19" d="M339.3,268.4c5.2,3,10.3,6,15.5,8.9c-2.8-1.6-7.5,0.3-11.2,5.6c-0.6-2-1.6-3.5-3.1-4.3c0,0,0,0-0.1,0
			c-3.6-2.1-7.3-4.2-11-6.3c1.2-1.3,2.4-2.5,3.8-3.3C335.6,267.6,337.8,267.5,339.3,268.4z"/>
		<polygon class="st14" points="337.8,331.9 337.8,335.6 331.2,339.4 331.2,331.8 337.8,328 		"/>
		<polygon class="st15" points="337.8,328 331.2,331.8 324.3,327.9 330.9,324.1 334.1,325.9 		"/>
		<path class="st15" d="M331.2,331.8v7.6l-3.2-1.8c0.5-0.3,1-0.6,1.4-0.8c0.5-0.2,0.8-0.8,0.8-1.7c0-1.7-1.4-3.9-2.8-4.5
			c-0.6-0.2-1-0.2-1.4-0.1c-0.1,0-0.1,0.1-0.2,0.1c-0.5,0.3-1.1,0.6-1.6,0.9v-3.7L331.2,331.8z"/>
		<path class="st12" d="M325.1,269.7c1.5,0.8,2.9,1.7,4.4,2.5c3.6,2.1,7.3,4.2,11,6.3c-2.2-1.2-5.1-1-8.4,0.9
			c-8.3,4.8-14.3,17.8-11.3,25.4l-15.5-8.9c-3.1-7.6,3-20.6,11.3-25.4C319.8,268.6,322.8,268.4,325.1,269.7
			C325,269.6,325.1,269.7,325.1,269.7z"/>
		<path class="st19" d="M305.2,295.9l15.5,8.9c-4,3.3-6.9,9-6.9,13.9c0,2.7,0.9,4.7,2.4,5.6v0c-5.1-3-10.3-5.9-15.4-8.9
			c-1.6-0.9-2.6-2.9-2.6-5.7C298.3,304.9,301.3,299.1,305.2,295.9z"/>
		<path class="st11" d="M285.2,361.1c-0.1-2.8-2.8-5.4-4.2-4.5l0,0c14.5-8.4,28.9-16.7,43.4-25.1c0.5-0.3,1.1-0.6,1.6-0.9
			c0,0,0.1-0.1,0.2-0.1c0.3-0.2,0.8-0.2,1.4,0.1c1.4,0.6,2.8,2.8,2.8,4.5c0,0.9-0.4,1.4-0.8,1.7c-0.5,0.3-1,0.6-1.4,0.8
			c-14.5,8.4-29,16.7-43.5,25.1l0,0c0.2-0.1,0.4-0.3,0.5-0.5C285.2,361.9,285.2,361.5,285.2,361.1z"/>
		<path class="st12" d="M283,362.7c-2-0.9-3.4-4.2-2.6-5.6c0.1-0.2,0.3-0.4,0.5-0.5c1.5-0.9,4.2,1.7,4.2,4.5c0,0.4,0,0.8-0.2,1.1
			c-0.1,0.2-0.3,0.4-0.5,0.5c-0.1,0.1-0.2,0.1-0.3,0.1C283.8,363,283.4,362.9,283,362.7z"/>
		<g>
			<path class="st17" d="M333.9,304.6c0,1.7-1.4,3.8-3,4.8c-1.7,1-3,0.4-3-1.3c0-1.7,1.4-3.8,3-4.8
				C332.5,302.4,333.9,303,333.9,304.6z"/>
			<path class="st17" d="M343.5,299.1c0,1.7-1.4,3.8-3,4.8c-1.7,1-3,0.4-3-1.3c0-1.7,1.4-3.8,3-4.8
				C342.1,296.8,343.5,297.4,343.5,299.1z"/>
			<path class="st17" d="M353.1,293.5c0,1.7-1.4,3.8-3,4.8c-1.7,1-3,0.4-3-1.3s1.4-3.8,3-4.8C351.7,291.3,353.1,291.9,353.1,293.5z"
				/>
		</g>
	</g>
	<g>
		<path class="st11" d="M292.2,152.1c0,5.5,0,11.1,0,16.6c0,6.1-4.3,13.5-9.6,16.6c-8.1,4.7-16.2,9.4-24.3,14.1l-9.6,13.8
			c0-4.3,0-31.5,0-35.9c0-6.1,4.3-13.5,9.6-16.6c8.1-4.7,16.2-9.4,24.3-14c2.6-1.5,4.9-1.7,6.7-0.7
			C291.1,146.8,292.2,149,292.2,152.1z"/>
		<path class="st12" d="M279.5,140.2c3.3,1.9,6.5,3.8,9.8,5.6c-1.7-0.9-4.1-0.8-6.7,0.7c-8.1,4.7-16.2,9.4-24.3,14
			c-5.3,3.1-9.6,10.5-9.6,16.6c0,4.4,0,31.5,0,35.9l-10-5.8c0-4.3,0-31.5,0-35.9c0-6.1,4.3-13.5,9.6-16.6c8.1-4.7,16.2-9.4,24.3-14
			c2.6-1.5,5-1.7,6.8-0.7C279.4,140.2,279.5,140.2,279.5,140.2z"/>
		<g>
			<path class="st17" d="M267.4,181c1.6,0.8,3.2,0.9,3.4,0.9c0.1,0,0.2,0,0.2-0.1c0.1-0.1,0.2-0.1,0.2-0.2c0.2-0.3,1.8-2.2,3.4-4.8
				c2.2-3.7,3.4-7,3.4-9.6c0-1.9-0.7-3.2-2.1-3.8c-1.3-0.6-3.1-0.3-5,0.8l0,0c0,0,0,0,0,0c-3.9,2.2-7,7.2-7,11.1
				C264,178,265.2,179.9,267.4,181L267.4,181z M271,165.2c1.6-0.9,3.2-1.2,4.4-0.7c1.2,0.5,1.8,1.7,1.8,3.3c0,3-1.7,6.5-3.2,8.9
				c-1.2,2-2.5,3.7-3,4.3c-0.5,0-1.8-0.2-3-0.8c-1.4-0.7-3.2-2.2-3.2-5.2C264.9,171.5,267.6,167.1,271,165.2z"/>
			<path class="st17" d="M274.9,169.5c0-2.3-2-2.9-4.2-1.4c-2,1.3-3.5,3.9-3.5,5.8c0,1.1,0.4,1.8,1.1,2.1c1.8,0.8,4.8-1.4,6.1-4.4
				C274.7,170.9,274.9,170.2,274.9,169.5z M268,173.4c0-1.7,1.4-3.8,3-4.7c1.7-1,3-0.4,3,1.3c0,1.6-1.3,3.8-3,4.7
				C269.4,175.7,268,175.1,268,173.4z"/>
		</g>
	</g>
	<g>
		<path class="st14" d="M337.9,205.3c0,8.6,0,17.2,0,25.8c0,9.5-6.7,21-14.9,25.7c-12.6,7.3-25.2,14.6-37.8,21.8L270.3,300
			c0-6.7,0-49,0-55.7c0-9.5,6.7-21,14.9-25.7c12.6-7.3,25.2-14.5,37.8-21.8c4-2.3,7.7-2.6,10.3-1.1
			C336.1,197.1,337.9,200.4,337.9,205.3z"/>
		<path class="st15" d="M318.2,186.8c5.1,2.9,10.1,5.8,15.2,8.7c-2.7-1.4-6.3-1.2-10.3,1.1c-12.6,7.3-25.2,14.6-37.8,21.8
			c-8.2,4.7-14.9,16.3-14.9,25.7c0,6.8,0,49,0,55.7l-15.5-8.9c0-6.7,0-49,0-55.7c0-9.5,6.7-21,14.9-25.7
			c12.6-7.3,25.2-14.6,37.8-21.8c4.1-2.4,7.8-2.6,10.5-1C318.1,186.7,318.1,186.8,318.2,186.8z"/>
		<g>
			<path class="st18" d="M319.3,218.8L294.6,233l-8.3-1.5c-0.5-0.1-1.1,0.2-1.7,0.8c-0.5,0.6-0.9,1.3-0.9,1.9V260
				c0,2.7,2.2,3.6,4.8,2l10.7-6.2l6.1-3.5l13.9-8.1c2.7-1.5,4.8-4.9,4.8-7.6v-15.9C324.1,218.2,321.9,217.3,319.3,218.8z
				 M320.9,238.5c0,0.9-0.7,2.1-1.7,2.6l-13.9,8.1l-6.1,3.5l-10.7,6.2c-0.9,0.5-1.7,0.2-1.7-0.7v-22.6l6.2,1.1c0.3,0.1,0.6,0,1-0.2
				l25.2-14.5c0.9-0.5,1.7-0.2,1.7,0.7V238.5z"/>
			<path class="st18" d="M314.9,236.1l-21,12.1c-0.9,0.5-1.6,1.6-1.6,2.5c0,0.9,0.7,1.2,1.6,0.7l21-12.1c0.9-0.5,1.6-1.6,1.6-2.5
				C316.5,235.9,315.8,235.6,314.9,236.1z"/>
			<path class="st18" d="M293.9,244.3l18.9-10.9c0.9-0.5,1.6-1.6,1.6-2.5c0-0.9-0.7-1.2-1.6-0.7l-18.9,10.9
				c-0.9,0.5-1.6,1.6-1.6,2.5C292.4,244.5,293.1,244.8,293.9,244.3z"/>
		</g>
	</g>
	<g>
		<path class="st14" d="M285.5,122.9c-5.1,2.9-10.2,5.9-15.3,8.8c2.6-1.6,4.2-4.9,4.2-9.5c0-8.6,0-17.2,0-25.8
			c0-9.5-6.7-21-14.9-25.7c-12.6-7.3-25.2-14.6-37.8-21.8c-4-2.3-7.7-2.6-10.3-1.1c5.1-3,10.2-5.9,15.3-8.9c2.7-1.5,6.4-1.3,10.5,1
			c12.6,7.3,25.2,14.6,37.8,21.8c8.2,4.7,14.9,16.3,14.9,25.7c0,8.6,0,17.2,0,25.8C289.8,118,288.2,121.4,285.5,122.9z"/>
		<path class="st15" d="M274.3,96.5c0,8.6,0,17.2,0,25.8c0,4.6-1.6,7.9-4.2,9.5c-0.1,0-0.1,0.1-0.2,0.1c-2.7,1.6-6.4,1.3-10.5-1
			c-12.6-7.3-25.2-14.6-37.8-21.8l-14.9,4.2c0-6.7,0-49,0-55.7c0-4.7,1.7-8.1,4.4-9.6c0.1,0,0.1-0.1,0.2-0.1
			c2.7-1.5,6.3-1.2,10.3,1.1c12.6,7.3,25.2,14.6,37.8,21.8C267.7,75.5,274.3,87,274.3,96.5z"/>
		<path class="st13" d="M250,97.2L232.5,77c-0.4-0.5-0.9-0.8-1.3-0.8c-0.4,0-0.7,0.3-0.7,0.8v20.2c0,0.5,0.3,1.1,0.7,1.6
			c0.2,0.2,0.4,0.4,0.7,0.6c0.2,0.1,0.5,0.2,0.7,0.2l5.2,0c0,0,0,0,0,0l12.4,0c0.4,0,0.7-0.3,0.7-0.8
			C250.7,98.3,250.4,97.7,250,97.2z M238.6,96.4C238.6,96.4,238.6,96.4,238.6,96.4l-5.5,0V80.9l13.5,15.5L238.6,96.4z"/>
	</g>
</g>
<path class="st0" d="M414.7,347.9c4.8,2.8,4.8,7.3,0,10.1c-4.8,2.8-12.6,2.8-17.4,0c-4.8-2.8-4.8-7.3,0-10.1
	C402.1,345.1,409.9,345.1,414.7,347.9z"/>
<path class="st0" d="M-31.4,327.5c3,1.7,3,4.5,0,6.3c-3,1.7-7.8,1.7-10.8,0c-3-1.7-3-4.5,0-6.3S-34.4,325.8-31.4,327.5z"/>
<path class="st0" d="M419,182.9c3,1.7,3,4.5,0,6.3c-3,1.7-7.8,1.7-10.8,0c-3-1.7-3-4.5,0-6.3C411.2,181.1,416,181.1,419,182.9z"/>
<path class="st0" d="M-6.2,268.8c3,1.7,3,4.5,0,6.3c-3,1.7-7.8,1.7-10.8,0c-3-1.7-3-4.5,0-6.3C-14.1,267-9.2,267-6.2,268.8z"/>
</svg>
