<svg id="Layer_1" data-name="Layer 1" xmlns="http://www.w3.org/2000/svg" viewBox="0 0 1350.37 817.14"><defs><style>.cls-1{opacity:0.5;}.cls-2,.cls-7{fill:#fff;}.cls-2,.cls-3,.cls-6{fill-rule:evenodd;}.cls-3,.cls-4{fill:#b8d3ff;}.cls-5,.cls-6{fill:#9d6dff;}</style></defs><g class="cls-1"><path class="cls-2" d="M279.89,461.66a2.75,2.75,0,1,1-2.74-2.68A2.71,2.71,0,0,1,279.89,461.66Z" transform="translate(-20.22 -14.62)"/><path class="cls-3" d="M209.43,293.92a2.75,2.75,0,1,1-2.75-2.68A2.71,2.71,0,0,1,209.43,293.92Z" transform="translate(-20.22 -14.62)"/><path class="cls-3" d="M186.51,318.54a2.75,2.75,0,1,1-2.75-2.68A2.71,2.71,0,0,1,186.51,318.54Z" transform="translate(-20.22 -14.62)"/><path class="cls-3" d="M79.56,411a2.75,2.75,0,1,1-2.75-2.68A2.71,2.71,0,0,1,79.56,411Z" transform="translate(-20.22 -14.62)"/><path class="cls-2" d="M277.15,411a2.75,2.75,0,1,1-2.75-2.68A2.71,2.71,0,0,1,277.15,411Z" transform="translate(-20.22 -14.62)"/><path class="cls-3" d="M76.81,363.72A2.75,2.75,0,1,1,74.07,361,2.71,2.71,0,0,1,76.81,363.72Z" transform="translate(-20.22 -14.62)"/><ellipse class="cls-4" cx="293.48" cy="458.04" rx="1.94" ry="1.89"/><ellipse class="cls-4" cx="26.13" cy="396.36" rx="1.94" ry="1.89"/><ellipse class="cls-5" cx="214.6" cy="429.65" rx="1.94" ry="1.89"/><ellipse class="cls-4" cx="310.48" cy="322.04" rx="1.94" ry="1.89"/><ellipse class="cls-4" cx="311.95" cy="402.36" rx="1.94" ry="1.89"/><path class="cls-6" d="M222.11,422.05a1.43,1.43,0,1,1-1.42-1.39A1.41,1.41,0,0,1,222.11,422.05Z" transform="translate(-20.22 -14.62)"/><ellipse class="cls-4" cx="104.89" cy="386.92" rx="1.43" ry="1.39"/><path class="cls-3" d="M25.82,328.49a1.43,1.43,0,1,1-1.43-1.39A1.41,1.41,0,0,1,25.82,328.49Z" transform="translate(-20.22 -14.62)"/><path class="cls-3" d="M283.2,451.11a.92.92,0,1,1-.92-.89A.91.91,0,0,1,283.2,451.11Z" transform="translate(-20.22 -14.62)"/><ellipse class="cls-5" cx="209.52" cy="428.76" rx="0.91" ry="0.89"/><path class="cls-6" d="M231.57,464.34a.92.92,0,1,1-.91-.9A.9.9,0,0,1,231.57,464.34Z" transform="translate(-20.22 -14.62)"/><ellipse class="cls-5" cx="222.16" cy="444.35" rx="0.91" ry="0.89"/><path class="cls-6" d="M218.86,462.9a.92.92,0,1,1-.92-.89A.91.91,0,0,1,218.86,462.9Z" transform="translate(-20.22 -14.62)"/><path class="cls-3" d="M291.31,393.47a.92.92,0,1,1-.91-.89A.9.9,0,0,1,291.31,393.47Z" transform="translate(-20.22 -14.62)"/><path class="cls-3" d="M246.69,444.72a.46.46,0,1,1-.45-.44A.45.45,0,0,1,246.69,444.72Z" transform="translate(-20.22 -14.62)"/><path class="cls-3" d="M127.72,544.68a.57.57,0,0,1-.58.56.56.56,0,1,1,0-1.12A.57.57,0,0,1,127.72,544.68Z" transform="translate(-20.22 -14.62)"/><path class="cls-3" d="M137.11,445.17a.46.46,0,1,1-.45-.45A.45.45,0,0,1,137.11,445.17Z" transform="translate(-20.22 -14.62)"/><path class="cls-3" d="M33.35,438.87a.46.46,0,0,1-.91,0,.46.46,0,0,1,.91,0Z" transform="translate(-20.22 -14.62)"/><path class="cls-3" d="M189.75,438.43a.46.46,0,1,1-.46-.45A.45.45,0,0,1,189.75,438.43Z" transform="translate(-20.22 -14.62)"/><path class="cls-3" d="M125.58,442.49a.46.46,0,1,1-.46-.45A.46.46,0,0,1,125.58,442.49Z" transform="translate(-20.22 -14.62)"/><path class="cls-6" d="M239.83,452a.46.46,0,1,1-.46-.45A.45.45,0,0,1,239.83,452Z" transform="translate(-20.22 -14.62)"/><path class="cls-3" d="M153.18,452.45a.46.46,0,1,1-.46-.44A.45.45,0,0,1,153.18,452.45Z" transform="translate(-20.22 -14.62)"/><path class="cls-3" d="M32.9,453.75a.46.46,0,1,1-.46-.44A.46.46,0,0,1,32.9,453.75Z" transform="translate(-20.22 -14.62)"/><ellipse class="cls-5" cx="222.16" cy="422.91" rx="0.91" ry="0.89"/><path class="cls-6" d="M201.31,436.64a.92.92,0,1,1-.92-.89A.91.91,0,0,1,201.31,436.64Z" transform="translate(-20.22 -14.62)"/><ellipse class="cls-4" cx="6.51" cy="384.21" rx="0.91" ry="0.89"/><path class="cls-3" d="M218.86,329.88a.92.92,0,1,1-.92-.89A.91.91,0,0,1,218.86,329.88Z" transform="translate(-20.22 -14.62)"/><path class="cls-3" d="M184.45,271.58a.92.92,0,1,1-.92-.89A.91.91,0,0,1,184.45,271.58Z" transform="translate(-20.22 -14.62)"/><ellipse class="cls-4" cx="149.9" cy="452.13" rx="0.91" ry="0.89"/><ellipse class="cls-4" cx="1.83" cy="383.32" rx="0.91" ry="0.89"/><ellipse class="cls-4" cx="65.41" cy="281.98" rx="0.91" ry="0.89"/><path class="cls-3" d="M163.07,273.36a.92.92,0,1,1-.92-.89A.91.91,0,0,1,163.07,273.36Z" transform="translate(-20.22 -14.62)"/><ellipse class="cls-4" cx="0.91" cy="329.66" rx="0.91" ry="0.89"/><ellipse class="cls-4" cx="81.97" cy="293.75" rx="0.91" ry="0.89"/><path class="cls-3" d="M189.29,394.37a.92.92,0,1,1-.92-.9A.91.91,0,0,1,189.29,394.37Z" transform="translate(-20.22 -14.62)"/><path class="cls-3" d="M37.26,332.6a.92.92,0,1,1-.91-.89A.9.9,0,0,1,37.26,332.6Z" transform="translate(-20.22 -14.62)"/><path class="cls-3" d="M173,353.31a.92.92,0,1,1-.92-.9A.91.91,0,0,1,173,353.31Z" transform="translate(-20.22 -14.62)"/><path class="cls-3" d="M35.18,286.52a.92.92,0,1,1-.91-.89A.9.9,0,0,1,35.18,286.52Z" transform="translate(-20.22 -14.62)"/><path class="cls-3" d="M235.75,389.22a.92.92,0,1,1-.92-.9A.91.91,0,0,1,235.75,389.22Z" transform="translate(-20.22 -14.62)"/><ellipse class="cls-4" cx="1060.37" cy="357.97" rx="1.61" ry="1.57"/><ellipse class="cls-4" cx="519.32" cy="221.7" rx="2.74" ry="2.68"/><path class="cls-3" d="M411.5,354.78a2.8,2.8,0,0,1,3.88,0,2.64,2.64,0,0,1,0,3.79,2.78,2.78,0,0,1-3.88,0A2.64,2.64,0,0,1,411.5,354.78Z" transform="translate(-20.22 -14.62)"/><path class="cls-3" d="M429,284.59a2,2,0,0,1,2.75,0,1.86,1.86,0,0,1,0,2.68,2,2,0,0,1-2.75,0A1.88,1.88,0,0,1,429,284.59Z" transform="translate(-20.22 -14.62)"/><ellipse class="cls-4" cx="1006.81" cy="307.43" rx="1.14" ry="1.11"/><path class="cls-3" d="M375.56,311.22a2,2,0,0,1,2.75,0,1.86,1.86,0,0,1,0,2.68,2,2,0,0,1-2.75,0A1.88,1.88,0,0,1,375.56,311.22Z" transform="translate(-20.22 -14.62)"/><ellipse class="cls-4" cx="1003.22" cy="322.39" rx="0.84" ry="0.82"/><path class="cls-3" d="M1105,326.36a.54.54,0,0,1,.76,0,.51.51,0,0,1,0,.74.56.56,0,0,1-.76,0A.51.51,0,0,1,1105,326.36Z" transform="translate(-20.22 -14.62)"/><path class="cls-3" d="M1028.38,324.11a.56.56,0,0,1,.76,0,.51.51,0,0,1,0,.74.54.54,0,0,1-.76,0A.51.51,0,0,1,1028.38,324.11Z" transform="translate(-20.22 -14.62)"/><path class="cls-3" d="M1036.92,315a.54.54,0,0,1,.76,0,.51.51,0,0,1,0,.74.56.56,0,0,1-.76,0A.51.51,0,0,1,1036.92,315Z" transform="translate(-20.22 -14.62)"/><path class="cls-3" d="M1029.77,312.51a.54.54,0,0,1,.76,0,.51.51,0,0,1,0,.74.56.56,0,0,1-.76,0A.51.51,0,0,1,1029.77,312.51Z" transform="translate(-20.22 -14.62)"/><ellipse class="cls-4" cx="369.23" cy="343.39" rx="0.91" ry="0.89"/><path class="cls-3" d="M1022.29,317.05a.28.28,0,0,1,.38,0,.25.25,0,0,1,0,.37.28.28,0,0,1-.38,0A.27.27,0,0,1,1022.29,317.05Z" transform="translate(-20.22 -14.62)"/><path class="cls-3" d="M921.94,478.67a.28.28,0,0,1,.38,0,.25.25,0,0,1,0,.37.28.28,0,0,1-.38,0A.27.27,0,0,1,921.94,478.67Z" transform="translate(-20.22 -14.62)"/><ellipse class="cls-4" cx="319.62" cy="262.9" rx="0.46" ry="0.45"/><path class="cls-3" d="M1028.24,316.81a.28.28,0,0,1,.38,0,.25.25,0,0,1,0,.37.28.28,0,0,1-.38,0A.27.27,0,0,1,1028.24,316.81Z" transform="translate(-20.22 -14.62)"/><path class="cls-3" d="M1020.64,321.41a.56.56,0,0,1,.76,0,.53.53,0,0,1,0,.75.56.56,0,0,1-.76,0A.53.53,0,0,1,1020.64,321.41Z" transform="translate(-20.22 -14.62)"/><path class="cls-3" d="M1037.71,338.81a.56.56,0,0,1,.76,0,.53.53,0,0,1,0,.75.56.56,0,0,1-.76,0A.53.53,0,0,1,1037.71,338.81Z" transform="translate(-20.22 -14.62)"/><path class="cls-3" d="M302,277.78a.92.92,0,0,1,1.29,0,.87.87,0,0,1,0,1.26.92.92,0,0,1-1.29,0A.87.87,0,0,1,302,277.78Z" transform="translate(-20.22 -14.62)"/><path class="cls-3" d="M903.38,497.16a.54.54,0,0,1,.76,0,.51.51,0,0,1,0,.74.56.56,0,0,1-.76,0A.51.51,0,0,1,903.38,497.16Z" transform="translate(-20.22 -14.62)"/><ellipse class="cls-4" cx="405.43" cy="384.76" rx="0.91" ry="0.89"/><ellipse class="cls-4" cx="939.25" cy="447.64" rx="1.61" ry="1.57"/><ellipse class="cls-4" cx="1017.91" cy="415.89" rx="1.61" ry="1.57"/><ellipse class="cls-4" cx="971.91" cy="424.85" rx="1.61" ry="1.57"/><ellipse class="cls-4" cx="918.82" cy="469.81" rx="1.61" ry="1.57"/><ellipse class="cls-4" cx="923.82" cy="486.17" rx="1.61" ry="1.57"/><path class="cls-3" d="M948.16,442.08a1.17,1.17,0,0,1,1.61,0,1.08,1.08,0,0,1,0,1.57,1.15,1.15,0,0,1-1.61,0A1.08,1.08,0,0,1,948.16,442.08Z" transform="translate(-20.22 -14.62)"/><ellipse class="cls-4" cx="992.25" cy="399.37" rx="1.14" ry="1.11"/><ellipse class="cls-4" cx="983.12" cy="408.03" rx="1.14" ry="1.11"/><path class="cls-3" d="M968.85,485.86a1.17,1.17,0,0,1,1.61,0,1.09,1.09,0,0,1,0,1.58,1.17,1.17,0,0,1-1.61,0A1.11,1.11,0,0,1,968.85,485.86Z" transform="translate(-20.22 -14.62)"/><ellipse class="cls-4" cx="1018.7" cy="307.98" rx="1.14" ry="1.11"/><ellipse class="cls-4" cx="945.85" cy="486.99" rx="0.84" ry="0.82"/><path class="cls-3" d="M972.18,517a.85.85,0,0,1,1.18,0,.8.8,0,0,1,0,1.16.85.85,0,0,1-1.18,0A.8.8,0,0,1,972.18,517Z" transform="translate(-20.22 -14.62)"/><ellipse class="cls-4" cx="920.43" cy="482.1" rx="0.84" ry="0.82"/><ellipse class="cls-4" cx="871.82" cy="512.12" rx="0.84" ry="0.82"/><path class="cls-3" d="M952.47,464.19a.56.56,0,0,1,.76,0,.51.51,0,0,1,0,.74.54.54,0,0,1-.76,0A.51.51,0,0,1,952.47,464.19Z" transform="translate(-20.22 -14.62)"/><path class="cls-3" d="M971,488.71a.54.54,0,0,1,.76,0,.51.51,0,0,1,0,.74.54.54,0,0,1-.76,0A.51.51,0,0,1,971,488.71Z" transform="translate(-20.22 -14.62)"/><path class="cls-3" d="M944.15,495.5a.56.56,0,0,1,.76,0,.53.53,0,0,1,0,.75.56.56,0,0,1-.76,0A.53.53,0,0,1,944.15,495.5Z" transform="translate(-20.22 -14.62)"/><path class="cls-3" d="M1004.11,484.06a.54.54,0,0,1,.76,0,.51.51,0,0,1,0,.74.54.54,0,0,1-.76,0A.51.51,0,0,1,1004.11,484.06Z" transform="translate(-20.22 -14.62)"/><path class="cls-3" d="M1020.45,480.16a.54.54,0,0,1,.76,0,.51.51,0,0,1,0,.74.54.54,0,0,1-.76,0A.51.51,0,0,1,1020.45,480.16Z" transform="translate(-20.22 -14.62)"/><path class="cls-3" d="M979.54,479.63a.56.56,0,0,1,.76,0,.53.53,0,0,1,0,.75.56.56,0,0,1-.76,0A.53.53,0,0,1,979.54,479.63Z" transform="translate(-20.22 -14.62)"/><ellipse class="cls-4" cx="376.67" cy="317.98" rx="0.91" ry="0.89"/><path class="cls-3" d="M1050.3,414.68a.54.54,0,0,1,.76,0,.51.51,0,0,1,0,.74.56.56,0,0,1-.76,0A.51.51,0,0,1,1050.3,414.68Z" transform="translate(-20.22 -14.62)"/><path class="cls-3" d="M972.39,477.1a.56.56,0,0,1,.76,0,.53.53,0,0,1,0,.75.56.56,0,0,1-.76,0A.53.53,0,0,1,972.39,477.1Z" transform="translate(-20.22 -14.62)"/><path class="cls-3" d="M924.57,484.85a.54.54,0,0,1,.76,0,.51.51,0,0,1,0,.74.56.56,0,0,1-.76,0A.51.51,0,0,1,924.57,484.85Z" transform="translate(-20.22 -14.62)"/><ellipse class="cls-4" cx="270.17" cy="311.69" rx="0.91" ry="0.89"/><path class="cls-3" d="M964.92,481.65a.28.28,0,0,1,.38,0,.27.27,0,0,1,0,.37.28.28,0,0,1-.38,0A.25.25,0,0,1,964.92,481.65Z" transform="translate(-20.22 -14.62)"/><path class="cls-3" d="M922.48,490.16a.26.26,0,0,1,.38,0,.25.25,0,0,1,0,.37.28.28,0,0,1-.38,0A.27.27,0,0,1,922.48,490.16Z" transform="translate(-20.22 -14.62)"/><path class="cls-3" d="M929.85,485.35a.28.28,0,0,1,.38,0,.25.25,0,0,1,0,.37.28.28,0,0,1-.38,0A.27.27,0,0,1,929.85,485.35Z" transform="translate(-20.22 -14.62)"/><ellipse class="cls-4" cx="404.06" cy="313.87" rx="0.46" ry="0.45"/><path class="cls-3" d="M985.89,507.36a.28.28,0,0,1,.38,0,.25.25,0,0,1,0,.37.28.28,0,0,1-.38,0A.27.27,0,0,1,985.89,507.36Z" transform="translate(-20.22 -14.62)"/><path class="cls-3" d="M986.16,525.77a.28.28,0,0,1,.38,0,.25.25,0,0,1,0,.37.28.28,0,0,1-.38,0A.27.27,0,0,1,986.16,525.77Z" transform="translate(-20.22 -14.62)"/><ellipse class="cls-4" cx="300.23" cy="421.43" rx="0.46" ry="0.45"/><path class="cls-3" d="M975.91,526a.28.28,0,0,1,.38,0,.25.25,0,0,1,0,.37.26.26,0,0,1-.38,0A.27.27,0,0,1,975.91,526Z" transform="translate(-20.22 -14.62)"/><path class="cls-3" d="M975.64,522.58a.28.28,0,0,1,.38,0,.25.25,0,0,1,0,.37.28.28,0,0,1-.38,0A.27.27,0,0,1,975.64,522.58Z" transform="translate(-20.22 -14.62)"/><path class="cls-3" d="M942.24,498.81a.26.26,0,0,1,.38,0,.25.25,0,0,1,0,.37.28.28,0,0,1-.38,0A.27.27,0,0,1,942.24,498.81Z" transform="translate(-20.22 -14.62)"/><path class="cls-3" d="M970.87,481.41a.26.26,0,0,1,.38,0,.27.27,0,0,1,0,.37.28.28,0,0,1-.38,0A.25.25,0,0,1,970.87,481.41Z" transform="translate(-20.22 -14.62)"/><path class="cls-3" d="M940.47,494.9a.28.28,0,0,1,.38,0,.27.27,0,0,1,0,.37.26.26,0,0,1-.38,0A.25.25,0,0,1,940.47,494.9Z" transform="translate(-20.22 -14.62)"/><path class="cls-3" d="M963.27,486a.56.56,0,0,1,.76,0,.51.51,0,0,1,0,.74.54.54,0,0,1-.76,0A.51.51,0,0,1,963.27,486Z" transform="translate(-20.22 -14.62)"/><path class="cls-3" d="M930.47,494.45a.56.56,0,0,1,.76,0,.53.53,0,0,1,0,.75.56.56,0,0,1-.76,0A.53.53,0,0,1,930.47,494.45Z" transform="translate(-20.22 -14.62)"/><path class="cls-3" d="M937.59,495a.54.54,0,0,1,.76,0,.51.51,0,0,1,0,.74.54.54,0,0,1-.76,0A.51.51,0,0,1,937.59,495Z" transform="translate(-20.22 -14.62)"/><path class="cls-3" d="M311.12,349.41a.94.94,0,0,1,1.3,0,.89.89,0,0,1,0,1.26.94.94,0,0,1-1.3,0A.87.87,0,0,1,311.12,349.41Z" transform="translate(-20.22 -14.62)"/><path class="cls-3" d="M531.81,229.71a2,2,0,0,1,2.75,0,1.86,1.86,0,0,1,0,2.68,2,2,0,0,1-2.75,0A1.88,1.88,0,0,1,531.81,229.71Z" transform="translate(-20.22 -14.62)"/><path class="cls-3" d="M344.58,309.1a.92.92,0,0,1,1.29,0,.87.87,0,0,1,0,1.26.92.92,0,0,1-1.29,0A.87.87,0,0,1,344.58,309.1Z" transform="translate(-20.22 -14.62)"/><ellipse class="cls-4" cx="518.26" cy="200.81" rx="0.91" ry="0.89"/><ellipse class="cls-4" cx="505.21" cy="208.23" rx="0.46" ry="0.45"/><ellipse class="cls-4" cx="515.34" cy="207.82" rx="0.46" ry="0.45"/><path class="cls-3" d="M522.3,230a.94.94,0,0,1,1.3,0,.89.89,0,0,1,0,1.26.94.94,0,0,1-1.3,0A.89.89,0,0,1,522.3,230Z" transform="translate(-20.22 -14.62)"/><ellipse class="cls-4" cx="442.38" cy="206.03" rx="0.91" ry="0.89"/><path class="cls-3" d="M980.33,503.41a.56.56,0,0,1,.76,0,.51.51,0,0,1,0,.74.54.54,0,0,1-.76,0A.51.51,0,0,1,980.33,503.41Z" transform="translate(-20.22 -14.62)"/><path class="cls-3" d="M1044.09,455.63a.56.56,0,0,1,.76,0,.51.51,0,0,1,0,.74.54.54,0,0,1-.76,0A.51.51,0,0,1,1044.09,455.63Z" transform="translate(-20.22 -14.62)"/><path class="cls-3" d="M1030.65,503.94a.54.54,0,0,1,.76,0,.51.51,0,0,1,0,.74.56.56,0,0,1-.76,0A.51.51,0,0,1,1030.65,503.94Z" transform="translate(-20.22 -14.62)"/><path class="cls-3" d="M957.48,522.13a.56.56,0,0,1,.76,0,.51.51,0,0,1,0,.74.54.54,0,0,1-.76,0A.51.51,0,0,1,957.48,522.13Z" transform="translate(-20.22 -14.62)"/><path class="cls-3" d="M1051.53,450.94a.56.56,0,0,1,.76,0,.53.53,0,0,1,0,.75.56.56,0,0,1-.76,0A.53.53,0,0,1,1051.53,450.94Z" transform="translate(-20.22 -14.62)"/><ellipse class="cls-4" cx="356.03" cy="412.27" rx="1.94" ry="1.89"/><ellipse class="cls-4" cx="358.65" cy="354.54" rx="1.94" ry="1.89"/><path class="cls-3" d="M45,429.4a2,2,0,0,1,2.74,0,1.86,1.86,0,0,1,0,2.68,2,2,0,0,1-2.74,0A1.86,1.86,0,0,1,45,429.4Z" transform="translate(-20.22 -14.62)"/><ellipse class="cls-4" cx="349.92" cy="437.74" rx="1.43" ry="1.39"/><path class="cls-3" d="M378.55,430.39a.92.92,0,0,1,1.29,0,.88.88,0,0,1,0,1.27.94.94,0,0,1-1.29,0A.88.88,0,0,1,378.55,430.39Z" transform="translate(-20.22 -14.62)"/><ellipse class="cls-4" cx="373.5" cy="400.95" rx="0.91" ry="0.89"/><path class="cls-3" d="M410.05,361.72a.92.92,0,0,1,1.29,0,.87.87,0,0,1,0,1.26.92.92,0,0,1-1.29,0A.87.87,0,0,1,410.05,361.72Z" transform="translate(-20.22 -14.62)"/><path class="cls-3" d="M380.91,410.64a.92.92,0,0,1,1.29,0,.87.87,0,0,1,0,1.26.92.92,0,0,1-1.29,0A.87.87,0,0,1,380.91,410.64Z" transform="translate(-20.22 -14.62)"/><ellipse class="cls-4" cx="348.28" cy="404.07" rx="0.46" ry="0.45"/><ellipse class="cls-4" cx="330.78" cy="440.81" rx="0.46" ry="0.45"/><path class="cls-3" d="M403.89,462.14a.45.45,0,0,1,.64,0,.44.44,0,0,1,0,.63.47.47,0,0,1-.64,0A.44.44,0,0,1,403.89,462.14Z" transform="translate(-20.22 -14.62)"/><path class="cls-3" d="M378.31,418a.48.48,0,0,1,.65,0,.45.45,0,0,1,0,.64.48.48,0,0,1-.65,0A.45.45,0,0,1,378.31,418Z" transform="translate(-20.22 -14.62)"/><ellipse class="cls-4" cx="345.79" cy="411.81" rx="0.91" ry="0.89"/><ellipse class="cls-4" cx="283.37" cy="411.26" rx="0.91" ry="0.89"/><ellipse class="cls-4" cx="374.84" cy="441.43" rx="0.91" ry="0.89"/><path class="cls-3" d="M967.33,525.85a.54.54,0,0,1,.76,0,.51.51,0,0,1,0,.74.56.56,0,0,1-.76,0A.51.51,0,0,1,967.33,525.85Z" transform="translate(-20.22 -14.62)"/><ellipse class="cls-4" cx="955.07" cy="535.27" rx="0.54" ry="0.52"/><ellipse class="cls-4" cx="926" cy="494.9" rx="0.54" ry="0.52"/><ellipse class="cls-4" cx="224.37" cy="545.39" rx="2.86" ry="2.79"/><ellipse class="cls-4" cx="151.05" cy="370.84" rx="2.86" ry="2.79"/><path class="cls-3" d="M150.28,411.08a2.86,2.86,0,1,1-2.86-2.79A2.83,2.83,0,0,1,150.28,411.08Z" transform="translate(-20.22 -14.62)"/><ellipse class="cls-7" cx="15.9" cy="492.65" rx="2.86" ry="2.79"/><ellipse class="cls-4" cx="221.52" cy="492.65" rx="2.86" ry="2.79"/><ellipse class="cls-4" cx="13.05" cy="443.48" rx="2.86" ry="2.79"/><path class="cls-3" d="M284.66,571.46a2,2,0,1,1-2-2A2,2,0,0,1,284.66,571.46Z" transform="translate(-20.22 -14.62)"/><path class="cls-3" d="M202.57,541.93a2,2,0,1,1-2-2A2,2,0,0,1,202.57,541.93Z" transform="translate(-20.22 -14.62)"/><ellipse class="cls-4" cx="280.11" cy="415.32" rx="2.02" ry="1.97"/><path class="cls-3" d="M303.88,513.52a2,2,0,1,1-2-2A2,2,0,0,1,303.88,513.52Z" transform="translate(-20.22 -14.62)"/><path class="cls-3" d="M187.33,518.8a1.49,1.49,0,0,1-3,0,1.49,1.49,0,0,1,3,0Z" transform="translate(-20.22 -14.62)"/><path class="cls-3" d="M87.88,497.45A1.49,1.49,0,1,1,86.4,496,1.46,1.46,0,0,1,87.88,497.45Z" transform="translate(-20.22 -14.62)"/><path class="cls-3" d="M250.89,549a1,1,0,1,1-.95-.93A.94.94,0,0,1,250.89,549Z" transform="translate(-20.22 -14.62)"/><path class="cls-3" d="M196.22,541a1,1,0,0,1-1.9,0,1,1,0,0,1,1.9,0Z" transform="translate(-20.22 -14.62)"/><path class="cls-3" d="M197.17,562.8a1,1,0,1,1-.95-.93A.94.94,0,0,1,197.17,562.8Z" transform="translate(-20.22 -14.62)"/><path class="cls-3" d="M209.38,557.22a1,1,0,1,1-.95-.93A.94.94,0,0,1,209.38,557.22Z" transform="translate(-20.22 -14.62)"/><path class="cls-3" d="M183.94,561.31a1,1,0,1,1-.95-.93A.93.93,0,0,1,183.94,561.31Z" transform="translate(-20.22 -14.62)"/><path class="cls-3" d="M259.34,489.06a1,1,0,1,1-.95-.93A.95.95,0,0,1,259.34,489.06Z" transform="translate(-20.22 -14.62)"/><ellipse class="cls-4" cx="192.21" cy="527.77" rx="0.48" ry="0.46"/><ellipse class="cls-4" cx="78.18" cy="528.23" rx="0.48" ry="0.46"/><path class="cls-3" d="M153.65,535.84a.48.48,0,0,1-.48.46.47.47,0,1,1,0-.93A.48.48,0,0,1,153.65,535.84Z" transform="translate(-20.22 -14.62)"/><path class="cls-3" d="M86.87,540.07a.48.48,0,1,1-.47-.47A.47.47,0,0,1,86.87,540.07Z" transform="translate(-20.22 -14.62)"/><path class="cls-3" d="M205.76,550a.46.46,0,0,1-.47.46.47.47,0,0,1-.48-.46.48.48,0,0,1,.48-.47A.47.47,0,0,1,205.76,550Z" transform="translate(-20.22 -14.62)"/><path class="cls-3" d="M115.6,550.43a.48.48,0,0,1-.48.47.47.47,0,1,1,0-.93A.48.48,0,0,1,115.6,550.43Z" transform="translate(-20.22 -14.62)"/><path class="cls-3" d="M209.38,534.91a1,1,0,1,1-.95-.93A.95.95,0,0,1,209.38,534.91Z" transform="translate(-20.22 -14.62)"/><path class="cls-3" d="M165.68,534a1,1,0,1,1-1-.93A.94.94,0,0,1,165.68,534Z" transform="translate(-20.22 -14.62)"/><path class="cls-3" d="M183.94,422.88A1,1,0,1,1,183,422,.93.93,0,0,1,183.94,422.88Z" transform="translate(-20.22 -14.62)"/><path class="cls-3" d="M148.14,362.21a1,1,0,1,1-.95-.92A.94.94,0,0,1,148.14,362.21Z" transform="translate(-20.22 -14.62)"/><path class="cls-3" d="M134.19,565.32a1,1,0,1,1-1-.93A.95.95,0,0,1,134.19,565.32Z" transform="translate(-20.22 -14.62)"/><ellipse class="cls-4" cx="25.09" cy="373.63" rx="0.95" ry="0.93"/><ellipse class="cls-4" cx="104.71" cy="349.45" rx="0.95" ry="0.93"/><ellipse class="cls-4" cx="42.31" cy="385.88" rx="0.95" ry="0.93"/><path class="cls-3" d="M153.17,490a1,1,0,1,1-.95-.93A.94.94,0,0,1,153.17,490Z" transform="translate(-20.22 -14.62)"/><path class="cls-3" d="M136.2,447.26a1,1,0,1,1-.95-.93A.95.95,0,0,1,136.2,447.26Z" transform="translate(-20.22 -14.62)"/><path class="cls-3" d="M201.52,484.63a1,1,0,1,1-1-.93A.95.95,0,0,1,201.52,484.63Z" transform="translate(-20.22 -14.62)"/><ellipse class="cls-4" cx="402.38" cy="396.89" rx="2.86" ry="2.79"/><path class="cls-3" d="M301.86,417.2a2.9,2.9,0,0,1,4,0,2.75,2.75,0,0,1,0,3.94,2.9,2.9,0,0,1-4,0A2.73,2.73,0,0,1,301.86,417.2Z" transform="translate(-20.22 -14.62)"/><path class="cls-3" d="M384.41,448.8a2.9,2.9,0,0,1,4,0,2.75,2.75,0,0,1,0,3.94,2.9,2.9,0,0,1-4,0A2.73,2.73,0,0,1,384.41,448.8Z" transform="translate(-20.22 -14.62)"/><ellipse class="cls-4" cx="383.77" cy="362.53" rx="2.02" ry="1.97"/><ellipse class="cls-4" cx="420.43" cy="440.08" rx="2.02" ry="1.97"/><path class="cls-3" d="M347,403.46a2.06,2.06,0,0,1,2.86,0,1.94,1.94,0,0,1,0,2.79,2.06,2.06,0,0,1-2.86,0A1.94,1.94,0,0,1,347,403.46Z" transform="translate(-20.22 -14.62)"/><path class="cls-3" d="M433.25,480.18a1.51,1.51,0,0,1,2.09,0,1.43,1.43,0,0,1,0,2.05,1.49,1.49,0,0,1-2.09,0A1.43,1.43,0,0,1,433.25,480.18Z" transform="translate(-20.22 -14.62)"/><ellipse class="cls-4" cx="390.66" cy="400.95" rx="0.95" ry="0.93"/><path class="cls-3" d="M443,458.35a1,1,0,0,1,1.35,0,.91.91,0,0,1,0,1.31,1,1,0,0,1-1.35,0A.91.91,0,0,1,443,458.35Z" transform="translate(-20.22 -14.62)"/><ellipse class="cls-4" cx="438.61" cy="428.31" rx="0.95" ry="0.93"/><path class="cls-3" d="M445.49,437.79a1,1,0,0,1,1.35,0,.92.92,0,0,1,0,1.32,1,1,0,0,1-1.35,0A.92.92,0,0,1,445.49,437.79Z" transform="translate(-20.22 -14.62)"/><path class="cls-3" d="M360.79,451.5a1,1,0,0,1,1.34,0,.91.91,0,0,1,0,1.32,1,1,0,0,1-1.34,0A.92.92,0,0,1,360.79,451.5Z" transform="translate(-20.22 -14.62)"/><path class="cls-3" d="M432.25,445.84a.48.48,0,0,1,.67,0,.45.45,0,0,1,0,.66.48.48,0,0,1-.67,0A.45.45,0,0,1,432.25,445.84Z" transform="translate(-20.22 -14.62)"/><ellipse class="cls-4" cx="449.52" cy="477.09" rx="0.48" ry="0.46"/><path class="cls-3" d="M309.5,368.07a.48.48,0,0,1,.67,0,.44.44,0,0,1,0,.65.46.46,0,0,1-.67,0A.44.44,0,0,1,309.5,368.07Z" transform="translate(-20.22 -14.62)"/><path class="cls-3" d="M442.79,445.41a.48.48,0,0,1,.67,0,.45.45,0,0,1,0,.66.48.48,0,0,1-.67,0A.47.47,0,0,1,442.79,445.41Z" transform="translate(-20.22 -14.62)"/><ellipse class="cls-4" cx="409.77" cy="439.61" rx="0.95" ry="0.93"/><path class="cls-3" d="M459.55,484.39a1,1,0,0,1,1.35,0,.91.91,0,0,1,0,1.31,1,1,0,0,1-1.35,0A.91.91,0,0,1,459.55,484.39Z" transform="translate(-20.22 -14.62)"/><ellipse class="cls-4" cx="250.94" cy="354.7" rx="0.95" ry="0.93"/><path class="cls-3" d="M436.53,524.13a1,1,0,0,1,1.35,0,.91.91,0,0,1,0,1.31,1,1,0,0,1-1.35,0A.91.91,0,0,1,436.53,524.13Z" transform="translate(-20.22 -14.62)"/><ellipse class="cls-4" cx="378.91" cy="480.58" rx="0.95" ry="0.93"/><path class="cls-2" d="M533.86,460.36a2.9,2.9,0,0,1,4,0,2.75,2.75,0,0,1,0,3.94,2.9,2.9,0,0,1-4,0A2.73,2.73,0,0,1,533.86,460.36Z" transform="translate(-20.22 -14.62)"/><path class="cls-3" d="M673.18,404.11a2.9,2.9,0,0,1,4,0,2.73,2.73,0,0,1,0,3.94,2.9,2.9,0,0,1-4,0A2.75,2.75,0,0,1,673.18,404.11Z" transform="translate(-20.22 -14.62)"/><path class="cls-2" d="M591.71,420a2.92,2.92,0,0,1,4,0,2.74,2.74,0,0,1,0,3.95,2.92,2.92,0,0,1-4,0A2.76,2.76,0,0,1,591.71,420Z" transform="translate(-20.22 -14.62)"/><ellipse class="cls-4" cx="479.47" cy="486.96" rx="2.86" ry="2.79"/><path class="cls-3" d="M506.53,528.61a2.9,2.9,0,0,1,4,0,2.75,2.75,0,0,1,0,3.94,2.9,2.9,0,0,1-4,0A2.73,2.73,0,0,1,506.53,528.61Z" transform="translate(-20.22 -14.62)"/><ellipse class="cls-4" cx="497.04" cy="413.35" rx="2.02" ry="1.97"/><ellipse class="cls-4" cx="609.53" cy="362.21" rx="2.02" ry="1.97"/><ellipse class="cls-4" cx="593.37" cy="377.54" rx="2.02" ry="1.97"/><path class="cls-3" d="M552.49,504.13a2.06,2.06,0,0,1,2.86,0,1.93,1.93,0,0,1,0,2.78,2.06,2.06,0,0,1-2.86,0A1.93,1.93,0,0,1,552.49,504.13Z" transform="translate(-20.22 -14.62)"/><ellipse class="cls-4" cx="441.49" cy="441.05" rx="2.02" ry="1.97"/><ellipse class="cls-4" cx="527.34" cy="517.4" rx="1.48" ry="1.45"/><path class="cls-3" d="M558.39,559.35a1.52,1.52,0,0,1,2.1,0,1.44,1.44,0,0,1,0,2,1.5,1.5,0,0,1-2.1,0A1.43,1.43,0,0,1,558.39,559.35Z" transform="translate(-20.22 -14.62)"/><path class="cls-3" d="M501.5,522.33a1.52,1.52,0,0,1,2.1,0,1.43,1.43,0,0,1,0,2,1.5,1.5,0,0,1-2.1,0A1.43,1.43,0,0,1,501.5,522.33Z" transform="translate(-20.22 -14.62)"/><path class="cls-3" d="M415.39,575.51a1.5,1.5,0,0,1,2.1,0,1.43,1.43,0,0,1,0,2,1.52,1.52,0,0,1-2.1,0A1.43,1.43,0,0,1,415.39,575.51Z" transform="translate(-20.22 -14.62)"/><path class="cls-3" d="M523.48,465.74a1,1,0,0,1,1.35,0,.91.91,0,0,1,0,1.31,1,1,0,0,1-1.35,0A.91.91,0,0,1,523.48,465.74Z" transform="translate(-20.22 -14.62)"/><path class="cls-3" d="M556.31,509.17a1,1,0,0,1,1.35,0,.91.91,0,0,1,0,1.31,1,1,0,0,1-1.35,0A.91.91,0,0,1,556.31,509.17Z" transform="translate(-20.22 -14.62)"/><path class="cls-3" d="M508.73,521.2a1,1,0,0,1,1.35,0,.92.92,0,0,1,0,1.32,1,1,0,0,1-1.35,0A.92.92,0,0,1,508.73,521.2Z" transform="translate(-20.22 -14.62)"/><path class="cls-3" d="M614.94,500.93a1,1,0,0,1,1.34,0,.9.9,0,0,1,0,1.31,1,1,0,0,1-1.34,0A.91.91,0,0,1,614.94,500.93Z" transform="translate(-20.22 -14.62)"/><path class="cls-3" d="M643.89,494a1,1,0,0,1,1.34,0,.91.91,0,0,1,0,1.32,1,1,0,0,1-1.34,0A.92.92,0,0,1,643.89,494Z" transform="translate(-20.22 -14.62)"/><path class="cls-3" d="M571.43,493.09a1,1,0,0,1,1.35,0,.92.92,0,0,1,0,1.32,1,1,0,0,1-1.35,0A.92.92,0,0,1,571.43,493.09Z" transform="translate(-20.22 -14.62)"/><path class="cls-3" d="M368.53,425.06a1,1,0,0,1,1.35,0,.91.91,0,0,1,0,1.31,1,1,0,0,1-1.35,0A.91.91,0,0,1,368.53,425.06Z" transform="translate(-20.22 -14.62)"/><path class="cls-3" d="M696.76,378a1,1,0,0,1,1.35,0,.92.92,0,0,1,0,1.32,1,1,0,0,1-1.35,0A.92.92,0,0,1,696.76,378Z" transform="translate(-20.22 -14.62)"/><path class="cls-3" d="M558.76,488.61a1,1,0,0,1,1.35,0,.91.91,0,0,1,0,1.31,1,1,0,0,1-1.35,0A.91.91,0,0,1,558.76,488.61Z" transform="translate(-20.22 -14.62)"/><path class="cls-3" d="M474.06,502.32a1,1,0,0,1,1.35,0,.92.92,0,0,1,0,1.32,1,1,0,0,1-1.35,0A.92.92,0,0,1,474.06,502.32Z" transform="translate(-20.22 -14.62)"/><path class="cls-3" d="M257.71,418.51a1,1,0,0,1,1.35,0,.91.91,0,0,1,0,1.31,1,1,0,0,1-1.35,0A.91.91,0,0,1,257.71,418.51Z" transform="translate(-20.22 -14.62)"/><path class="cls-3" d="M545.52,496.66a.48.48,0,0,1,.67,0,.45.45,0,0,1,0,.66.48.48,0,0,1-.67,0A.45.45,0,0,1,545.52,496.66Z" transform="translate(-20.22 -14.62)"/><path class="cls-3" d="M470.36,511.73a.48.48,0,0,1,.67,0,.45.45,0,0,1,0,.66.48.48,0,0,1-.67,0A.45.45,0,0,1,470.36,511.73Z" transform="translate(-20.22 -14.62)"/><path class="cls-3" d="M483.41,503.22a.48.48,0,0,1,.67,0,.45.45,0,0,1,0,.66.48.48,0,0,1-.67,0A.45.45,0,0,1,483.41,503.22Z" transform="translate(-20.22 -14.62)"/><path class="cls-3" d="M397.37,421.11a.5.5,0,0,1,.68,0,.46.46,0,0,1,0,.65.48.48,0,0,1-.68,0A.46.46,0,0,1,397.37,421.11Z" transform="translate(-20.22 -14.62)"/><path class="cls-3" d="M582.68,542.2a.48.48,0,0,1,.67,0,.45.45,0,0,1,0,.66.48.48,0,0,1-.67,0A.45.45,0,0,1,582.68,542.2Z" transform="translate(-20.22 -14.62)"/><path class="cls-3" d="M583.15,574.81a.5.5,0,0,1,.68,0,.47.47,0,0,1,0,.66.5.5,0,0,1-.68,0A.47.47,0,0,1,583.15,574.81Z" transform="translate(-20.22 -14.62)"/><path class="cls-3" d="M289.33,533a.5.5,0,0,1,.68,0,.46.46,0,0,1,0,.65.48.48,0,0,1-.68,0A.46.46,0,0,1,289.33,533Z" transform="translate(-20.22 -14.62)"/><path class="cls-3" d="M565,575.28a.48.48,0,0,1,.67,0,.44.44,0,0,1,0,.65.46.46,0,0,1-.67,0A.44.44,0,0,1,565,575.28Z" transform="translate(-20.22 -14.62)"/><path class="cls-3" d="M564.52,569.16a.5.5,0,0,1,.68,0,.47.47,0,0,1,0,.66.5.5,0,0,1-.68,0A.47.47,0,0,1,564.52,569.16Z" transform="translate(-20.22 -14.62)"/><path class="cls-3" d="M505.36,527.05a.48.48,0,0,1,.67,0,.45.45,0,0,1,0,.66.48.48,0,0,1-.67,0A.45.45,0,0,1,505.36,527.05Z" transform="translate(-20.22 -14.62)"/><path class="cls-3" d="M556.06,496.23a.5.5,0,0,1,.68,0,.47.47,0,0,1,0,.66.5.5,0,0,1-.68,0A.47.47,0,0,1,556.06,496.23Z" transform="translate(-20.22 -14.62)"/><path class="cls-3" d="M502.22,520.14a.48.48,0,0,1,.67,0,.44.44,0,0,1,0,.65.46.46,0,0,1-.67,0A.44.44,0,0,1,502.22,520.14Z" transform="translate(-20.22 -14.62)"/><ellipse class="cls-4" cx="523.05" cy="490.42" rx="0.95" ry="0.93"/><path class="cls-3" d="M484.5,519.34a1,1,0,0,1,1.35,0,.92.92,0,0,1,0,1.32,1,1,0,0,1-1.35,0A.92.92,0,0,1,484.5,519.34Z" transform="translate(-20.22 -14.62)"/><path class="cls-3" d="M497.12,520.27a1,1,0,0,1,1.35,0,.92.92,0,0,1,0,1.32,1,1,0,0,1-1.35,0A.92.92,0,0,1,497.12,520.27Z" transform="translate(-20.22 -14.62)"/><path class="cls-3" d="M280,443.2a1,1,0,0,1,1.35,0,.92.92,0,0,1,0,1.32,1,1,0,0,1-1.35,0A.92.92,0,0,1,280,443.2Z" transform="translate(-20.22 -14.62)"/><ellipse class="cls-4" cx="277.03" cy="399.06" rx="2.02" ry="1.97"/><path class="cls-3" d="M314.77,401.26a1,1,0,0,1,1.34,0,.9.9,0,0,1,0,1.31,1,1,0,0,1-1.34,0A.91.91,0,0,1,314.77,401.26Z" transform="translate(-20.22 -14.62)"/><path class="cls-3" d="M302.1,396.77a1,1,0,0,1,1.35,0,.92.92,0,0,1,0,1.32,1,1,0,0,1-1.35,0A.92.92,0,0,1,302.1,396.77Z" transform="translate(-20.22 -14.62)"/><path class="cls-3" d="M288.86,404.83a.46.46,0,0,1,.67,0,.44.44,0,0,1,0,.65.48.48,0,0,1-.67,0A.44.44,0,0,1,288.86,404.83Z" transform="translate(-20.22 -14.62)"/><path class="cls-3" d="M299.4,404.4a.48.48,0,0,1,.67,0,.44.44,0,0,1,0,.65.47.47,0,0,1-.67,0A.44.44,0,0,1,299.4,404.4Z" transform="translate(-20.22 -14.62)"/><path class="cls-3" d="M285.93,412.55a1,1,0,0,1,1.35,0,.92.92,0,0,1,0,1.32,1,1,0,0,1-1.35,0A.92.92,0,0,1,285.93,412.55Z" transform="translate(-20.22 -14.62)"/><path class="cls-3" d="M572.82,535.21a1,1,0,0,1,1.35,0,.91.91,0,0,1,0,1.31,1,1,0,0,1-1.35,0A.91.91,0,0,1,572.82,535.21Z" transform="translate(-20.22 -14.62)"/><ellipse class="cls-5" cx="666.22" cy="436.61" rx="0.95" ry="0.93"/><path class="cls-3" d="M662,536.14a1,1,0,0,1,1.35,0,.91.91,0,0,1,0,1.31,1,1,0,0,1-1.35,0A.91.91,0,0,1,662,536.14Z" transform="translate(-20.22 -14.62)"/><path class="cls-3" d="M532.35,568.37a1,1,0,0,1,1.34,0,.9.9,0,0,1,0,1.31,1,1,0,0,1-1.34,0A.91.91,0,0,1,532.35,568.37Z" transform="translate(-20.22 -14.62)"/><ellipse class="cls-5" cx="679.38" cy="428.31" rx="0.95" ry="0.93"/><path class="cls-3" d="M346.3,522.44a2.06,2.06,0,0,1,2.86,0,1.93,1.93,0,0,1,0,2.78,2.06,2.06,0,0,1-2.86,0A1.93,1.93,0,0,1,346.3,522.44Z" transform="translate(-20.22 -14.62)"/><path class="cls-3" d="M349,462.37a2.06,2.06,0,0,1,2.86,0,2,2,0,0,1,0,2.79,2.06,2.06,0,0,1-2.86,0A1.94,1.94,0,0,1,349,462.37Z" transform="translate(-20.22 -14.62)"/><ellipse class="cls-4" cx="321.15" cy="535.71" rx="1.48" ry="1.45"/><ellipse class="cls-4" cx="330.57" cy="513.51" rx="0.95" ry="0.93"/><path class="cls-3" d="M365.24,511.4a1,1,0,0,1,1.35,0,.92.92,0,0,1,0,1.32,1,1,0,0,1-1.35,0A.92.92,0,0,1,365.24,511.4Z" transform="translate(-20.22 -14.62)"/><path class="cls-3" d="M382.9,456a1,1,0,0,1,1.34,0,.91.91,0,0,1,0,1.32,1,1,0,0,1-1.34,0A.92.92,0,0,1,382.9,456Z" transform="translate(-20.22 -14.62)"/><ellipse class="cls-4" cx="333.02" cy="492.96" rx="0.95" ry="0.93"/><path class="cls-3" d="M339.33,515a.48.48,0,0,1,.67,0,.45.45,0,0,1,0,.66.48.48,0,0,1-.67,0A.45.45,0,0,1,339.33,515Z" transform="translate(-20.22 -14.62)"/><path class="cls-3" d="M321.12,553.21a.46.46,0,0,1,.67,0,.44.44,0,0,1,0,.65.48.48,0,0,1-.67,0A.44.44,0,0,1,321.12,553.21Z" transform="translate(-20.22 -14.62)"/><path class="cls-3" d="M376.49,560.51a.48.48,0,0,1,.67,0,.47.47,0,0,1,0,.66.48.48,0,0,1-.67,0A.45.45,0,0,1,376.49,560.51Z" transform="translate(-20.22 -14.62)"/><path class="cls-3" d="M349.87,514.54a.48.48,0,0,1,.67,0,.45.45,0,0,1,0,.66.48.48,0,0,1-.67,0A.47.47,0,0,1,349.87,514.54Z" transform="translate(-20.22 -14.62)"/><path class="cls-3" d="M336.41,522.7a1,1,0,0,1,1.34,0,.92.92,0,0,1,0,1.32,1,1,0,0,1-1.34,0A.91.91,0,0,1,336.41,522.7Z" transform="translate(-20.22 -14.62)"/><path class="cls-3" d="M271.44,522.13a1,1,0,0,1,1.35,0,.92.92,0,0,1,0,1.32,1,1,0,0,1-1.35,0A.92.92,0,0,1,271.44,522.13Z" transform="translate(-20.22 -14.62)"/><path class="cls-3" d="M32.76,423.4a.91.91,0,0,1,1,.81.9.9,0,0,1-.83,1,.92.92,0,0,1-1-.81A.91.91,0,0,1,32.76,423.4Z" transform="translate(-20.22 -14.62)"/><path class="cls-3" d="M1209,184a.48.48,0,0,1-.67,0,.46.46,0,0,1-.06-.65.5.5,0,0,1,.68-.06A.46.46,0,0,1,1209,184Z" transform="translate(-20.22 -14.62)"/><path class="cls-3" d="M1324.77,195.1a.48.48,0,0,1-.67.05.45.45,0,0,1-.06-.65.49.49,0,0,1,.67-.06A.46.46,0,0,1,1324.77,195.1Z" transform="translate(-20.22 -14.62)"/><path class="cls-3" d="M1317.42,185.42a.49.49,0,0,1-.68.06.45.45,0,0,1,0-.65.48.48,0,0,1,.67-.06A.46.46,0,0,1,1317.42,185.42Z" transform="translate(-20.22 -14.62)"/><path class="cls-3" d="M208.22,214.37a.92.92,0,0,1-1.25.33.88.88,0,0,1-.34-1.22.93.93,0,0,1,1.25-.33A.89.89,0,0,1,208.22,214.37Z" transform="translate(-20.22 -14.62)"/><path class="cls-3" d="M258,312.91a2.89,2.89,0,0,1-3.9,1,2.75,2.75,0,0,1-1-3.81,2.89,2.89,0,0,1,3.9-1A2.76,2.76,0,0,1,258,312.91Z" transform="translate(-20.22 -14.62)"/><path class="cls-3" d="M187.8,256.57a1.5,1.5,0,0,1-2,.53,1.43,1.43,0,0,1-.55-2,1.51,1.51,0,0,1,2-.53A1.43,1.43,0,0,1,187.8,256.57Z" transform="translate(-20.22 -14.62)"/><path class="cls-3" d="M204.79,227.84a1.51,1.51,0,0,1-2,.53,1.43,1.43,0,0,1-.54-2,1.5,1.5,0,0,1,2-.53A1.43,1.43,0,0,1,204.79,227.84Z" transform="translate(-20.22 -14.62)"/><path class="cls-3" d="M117.56,278.34a1,1,0,0,1-1.3.34.93.93,0,0,1-.35-1.27,1,1,0,0,1,1.3-.34A.91.91,0,0,1,117.56,278.34Z" transform="translate(-20.22 -14.62)"/><path class="cls-3" d="M321,15.32a.48.48,0,0,1-.65.17.46.46,0,0,1-.17-.63.47.47,0,0,1,.65-.17A.44.44,0,0,1,321,15.32Z" transform="translate(-20.22 -14.62)"/><path class="cls-3" d="M220.21,271a.48.48,0,0,1-.65.17.46.46,0,0,1-.17-.63.47.47,0,0,1,.65-.17A.45.45,0,0,1,220.21,271Z" transform="translate(-20.22 -14.62)"/><path class="cls-3" d="M158.6,243.5a.48.48,0,0,1-.65.17.46.46,0,0,1-.18-.64.5.5,0,0,1,.66-.17A.47.47,0,0,1,158.6,243.5Z" transform="translate(-20.22 -14.62)"/><path class="cls-3" d="M144.46,233.76a.47.47,0,0,1-.65.17.44.44,0,0,1-.17-.63.48.48,0,0,1,.65-.17A.46.46,0,0,1,144.46,233.76Z" transform="translate(-20.22 -14.62)"/><path class="cls-3" d="M367.78,336.34a.48.48,0,0,1-.65.17.47.47,0,0,1-.17-.64.48.48,0,0,1,.65-.17A.46.46,0,0,1,367.78,336.34Z" transform="translate(-20.22 -14.62)"/><path class="cls-3" d="M1314.72,226.88a1,1,0,0,1-1.31.34.92.92,0,0,1-.34-1.27,1,1,0,0,1,1.3-.34A.92.92,0,0,1,1314.72,226.88Z" transform="translate(-20.22 -14.62)"/><path class="cls-3" d="M204.7,222.19a1,1,0,0,1-1.3.34.91.91,0,0,1-.35-1.27,1,1,0,0,1,1.3-.34A.93.93,0,0,1,204.7,222.19Z" transform="translate(-20.22 -14.62)"/><path class="cls-3" d="M1315.32,224a1,1,0,0,1-1.3.34.92.92,0,0,1-.35-1.27,1,1,0,0,1,1.3-.34A.93.93,0,0,1,1315.32,224Z" transform="translate(-20.22 -14.62)"/><path class="cls-3" d="M268.1,250.38a2.77,2.77,0,0,1-3.52-1.61,2.66,2.66,0,0,1,1.64-3.43,2.77,2.77,0,0,1,3.52,1.6A2.67,2.67,0,0,1,268.1,250.38Z" transform="translate(-20.22 -14.62)"/><path class="cls-3" d="M410.87,234.34a2.76,2.76,0,0,1-3.52-1.6,2.66,2.66,0,0,1,1.64-3.43,2.76,2.76,0,0,1,3.52,1.6A2.66,2.66,0,0,1,410.87,234.34Z" transform="translate(-20.22 -14.62)"/><path class="cls-3" d="M337.89,237.68a2,2,0,0,1-2.49-1.14,1.88,1.88,0,0,1,1.16-2.42,2,2,0,0,1,2.49,1.13A1.88,1.88,0,0,1,337.89,237.68Z" transform="translate(-20.22 -14.62)"/><path class="cls-3" d="M354.29,216.65a1.44,1.44,0,0,1-1.83-.84,1.38,1.38,0,0,1,.85-1.78,1.44,1.44,0,0,1,1.83.83A1.39,1.39,0,0,1,354.29,216.65Z" transform="translate(-20.22 -14.62)"/><path class="cls-3" d="M191.26,230.47a.93.93,0,0,1-1.18-.53.9.9,0,0,1,.55-1.15.91.91,0,0,1,1.17.54A.89.89,0,0,1,191.26,230.47Z" transform="translate(-20.22 -14.62)"/><path class="cls-3" d="M336.66,231.77a.92.92,0,0,1-1.17-.53.89.89,0,0,1,.55-1.15.92.92,0,0,1,1.17.54A.88.88,0,0,1,336.66,231.77Z" transform="translate(-20.22 -14.62)"/><path class="cls-3" d="M316.8,239.77a.92.92,0,0,1-1.17-.54.88.88,0,0,1,.55-1.14.92.92,0,0,1,1.17.53A.89.89,0,0,1,316.8,239.77Z" transform="translate(-20.22 -14.62)"/><path class="cls-3" d="M326,248.7a.91.91,0,0,1-1.17-.54.88.88,0,0,1,.54-1.14.93.93,0,0,1,1.18.53A.9.9,0,0,1,326,248.7Z" transform="translate(-20.22 -14.62)"/><path class="cls-3" d="M313.84,227.61a.92.92,0,0,1-1.17-.53.89.89,0,0,1,.55-1.15.92.92,0,0,1,1.17.54A.88.88,0,0,1,313.84,227.61Z" transform="translate(-20.22 -14.62)"/><path class="cls-3" d="M340.85,246.94a.45.45,0,1,1-.31-.84.47.47,0,0,1,.59.27A.45.45,0,0,1,340.85,246.94Z" transform="translate(-20.22 -14.62)"/><path class="cls-3" d="M1271.6,209.81a.46.46,0,0,1-.59-.26.45.45,0,0,1,.27-.58.47.47,0,0,1,.59.27A.44.44,0,0,1,1271.6,209.81Z" transform="translate(-20.22 -14.62)"/><path class="cls-2" d="M331.49,243.13a.44.44,0,0,1-.58-.27.44.44,0,0,1,.27-.57.47.47,0,0,1,.59.27A.45.45,0,0,1,331.49,243.13Z" transform="translate(-20.22 -14.62)"/><path class="cls-3" d="M1245.6,181.06a.46.46,0,0,1-.58-.27.43.43,0,0,1,.27-.57.45.45,0,1,1,.31.84Z" transform="translate(-20.22 -14.62)"/><path class="cls-3" d="M346.62,241.37a.93.93,0,0,1-1.18-.53.9.9,0,0,1,.55-1.15.93.93,0,0,1,1.17.54A.88.88,0,0,1,346.62,241.37Z" transform="translate(-20.22 -14.62)"/><path class="cls-3" d="M1277.27,219.81a.93.93,0,0,1-1.18-.53.9.9,0,0,1,.55-1.15.92.92,0,0,1,1.17.54A.88.88,0,0,1,1277.27,219.81Z" transform="translate(-20.22 -14.62)"/><path class="cls-3" d="M1237.93,202.33a.92.92,0,0,1-1.17-.53.89.89,0,0,1,.55-1.15.92.92,0,0,1,1.17.54A.88.88,0,0,1,1237.93,202.33Z" transform="translate(-20.22 -14.62)"/><ellipse class="cls-7" cx="53" cy="217.63" rx="2.86" ry="2.79"/><path class="cls-6" d="M124,214.24a2.88,2.88,0,0,1-3.66-1.67,2.76,2.76,0,0,1,1.71-3.57,2.87,2.87,0,0,1,3.66,1.67A2.78,2.78,0,0,1,124,214.24Z" transform="translate(-20.22 -14.62)"/><path class="cls-3" d="M75.88,272.92a2,2,0,0,1-2.58-1.18,2,2,0,0,1,1.2-2.53,2,2,0,0,1,2.59,1.18A2,2,0,0,1,75.88,272.92Z" transform="translate(-20.22 -14.62)"/><path class="cls-6" d="M1176.33,256.93a2,2,0,0,1-2.59-1.18,2,2,0,0,1,1.21-2.53,2,2,0,0,1,2.58,1.18A2,2,0,0,1,1176.33,256.93Z" transform="translate(-20.22 -14.62)"/><path class="cls-3" d="M218.18,240.81a2,2,0,0,1-2.58-1.18,2,2,0,0,1,1.2-2.52,2,2,0,0,1,2.59,1.18A2,2,0,0,1,218.18,240.81Z" transform="translate(-20.22 -14.62)"/><path class="cls-3" d="M1193.39,235.05a1.5,1.5,0,0,1-1.9-.87,1.45,1.45,0,0,1,.89-1.86,1.5,1.5,0,0,1,1.9.87A1.45,1.45,0,0,1,1193.39,235.05Z" transform="translate(-20.22 -14.62)"/><path class="cls-3" d="M85.94,234.28a1,1,0,0,1-1.22-.56.92.92,0,0,1,.57-1.19,1,1,0,0,1,1.22.56A.93.93,0,0,1,85.94,234.28Z" transform="translate(-20.22 -14.62)"/><path class="cls-6" d="M1175.05,250.78a1,1,0,0,1-1.22-.55.92.92,0,0,1,.57-1.19,1,1,0,0,1,1.22.55A.91.91,0,0,1,1175.05,250.78Z" transform="translate(-20.22 -14.62)"/><path class="cls-6" d="M1154.38,259.1a1,1,0,0,1-1.22-.55.93.93,0,0,1,.57-1.19,1,1,0,0,1,1.22.55A.91.91,0,0,1,1154.38,259.1Z" transform="translate(-20.22 -14.62)"/><path class="cls-3" d="M63.88,199a1,1,0,0,1-1.22-.55.92.92,0,0,1,.57-1.19,1,1,0,0,1,1.22.55A.92.92,0,0,1,63.88,199Z" transform="translate(-20.22 -14.62)"/><path class="cls-3" d="M146.57,221.54a1,1,0,0,1-1.22-.55.94.94,0,0,1,.57-1.2,1,1,0,0,1,1.22.56A.92.92,0,0,1,146.57,221.54Z" transform="translate(-20.22 -14.62)"/><path class="cls-6" d="M79.37,197.16a.49.49,0,0,1-.61-.28.47.47,0,0,1,.28-.6.49.49,0,0,1,.61.28A.47.47,0,0,1,79.37,197.16Z" transform="translate(-20.22 -14.62)"/><path class="cls-3" d="M1169.67,262.61a.49.49,0,0,1-.61-.28.47.47,0,0,1,.29-.6.49.49,0,0,1,.61.28A.47.47,0,0,1,1169.67,262.61Z" transform="translate(-20.22 -14.62)"/><path class="cls-6" d="M1185.41,260.78a1,1,0,0,1-1.22-.56.92.92,0,0,1,.57-1.19,1,1,0,0,1,1.22.56A.93.93,0,0,1,1185.41,260.78Z" transform="translate(-20.22 -14.62)"/><path class="cls-3" d="M1171.38,220.37a1,1,0,0,1-1.22-.56.92.92,0,0,1,.57-1.19,1,1,0,0,1,1.22.56A.93.93,0,0,1,1171.38,220.37Z" transform="translate(-20.22 -14.62)"/><path class="cls-3" d="M1209.46,193.87a1,1,0,0,1-1.22-.56.93.93,0,0,1,.57-1.19,1,1,0,0,1,1.22.56A.93.93,0,0,1,1209.46,193.87Z" transform="translate(-20.22 -14.62)"/><path class="cls-3" d="M287,219.12a1,1,0,0,1-1.22-.55.92.92,0,0,1,.57-1.19,1,1,0,0,1,1.22.55A.92.92,0,0,1,287,219.12Z" transform="translate(-20.22 -14.62)"/><path class="cls-3" d="M1367.58,355.38a.93.93,0,0,1-1.29.11.87.87,0,0,1-.11-1.26.94.94,0,0,1,1.29-.11A.89.89,0,0,1,1367.58,355.38Z" transform="translate(-20.22 -14.62)"/><path class="cls-3" d="M1347.16,335.79a2.9,2.9,0,0,1-4,.34,2.75,2.75,0,0,1-.35-3.93,2.91,2.91,0,0,1,4-.34A2.75,2.75,0,0,1,1347.16,335.79Z" transform="translate(-20.22 -14.62)"/><path class="cls-3" d="M1339.93,393.45a1.52,1.52,0,0,1-2.09.18,1.43,1.43,0,0,1-.18-2.05,1.5,1.5,0,0,1,2.09-.17A1.42,1.42,0,0,1,1339.93,393.45Z" transform="translate(-20.22 -14.62)"/><path class="cls-3" d="M1361.79,368.05a1.5,1.5,0,0,1-2.09.18,1.43,1.43,0,0,1-.18-2,1.52,1.52,0,0,1,2.09-.18A1.42,1.42,0,0,1,1361.79,368.05Z" transform="translate(-20.22 -14.62)"/><path class="cls-2" d="M1266.87,402.91a1,1,0,0,1-1.34.11.91.91,0,0,1-.11-1.31,1,1,0,0,1,1.34-.11A.92.92,0,0,1,1266.87,402.91Z" transform="translate(-20.22 -14.62)"/><path class="cls-3" d="M1331.81,474.88a.49.49,0,0,1-.67.06.46.46,0,0,1-.06-.66.48.48,0,0,1,.67,0A.45.45,0,0,1,1331.81,474.88Z" transform="translate(-20.22 -14.62)"/><path class="cls-3" d="M1369.26,413.2a.48.48,0,0,1-.67.05.45.45,0,0,1-.06-.65.49.49,0,0,1,.67-.06A.46.46,0,0,1,1369.26,413.2Z" transform="translate(-20.22 -14.62)"/><path class="cls-2" d="M1313.51,375.6a.49.49,0,0,1-.67.06.47.47,0,0,1-.06-.66.5.5,0,0,1,.68-.05A.45.45,0,0,1,1313.51,375.6Z" transform="translate(-20.22 -14.62)"/><path class="cls-2" d="M1301.33,363.6a.48.48,0,0,1-.67.06.45.45,0,0,1-.06-.65.48.48,0,0,1,.67-.06A.44.44,0,0,1,1301.33,363.6Z" transform="translate(-20.22 -14.62)"/><path class="cls-3" d="M1358.69,424.75a.49.49,0,0,1-.67.06.46.46,0,0,1-.06-.66.48.48,0,0,1,.67,0A.45.45,0,0,1,1358.69,424.75Z" transform="translate(-20.22 -14.62)"/><path class="cls-3" d="M1362.71,362.48a1,1,0,0,1-1.34.12.92.92,0,0,1-.11-1.31,1,1,0,0,1,1.34-.12A.92.92,0,0,1,1362.71,362.48Z" transform="translate(-20.22 -14.62)"/><path class="cls-3" d="M1368.43,472a.45.45,0,1,1,.27-.57A.43.43,0,0,1,1368.43,472Z" transform="translate(-20.22 -14.62)"/><path class="cls-3" d="M1360.76,493.26a.93.93,0,0,1-1.17-.54.88.88,0,0,1,.55-1.14.92.92,0,0,1,1.17.53A.89.89,0,0,1,1360.76,493.26Z" transform="translate(-20.22 -14.62)"/><path class="cls-3" d="M1316.22,526a1.49,1.49,0,0,1-1.9-.87,1.43,1.43,0,0,1,.88-1.85,1.5,1.5,0,0,1,1.91.86A1.44,1.44,0,0,1,1316.22,526Z" transform="translate(-20.22 -14.62)"/><path class="cls-6" d="M1297.88,541.71a1,1,0,0,1-1.22-.56.93.93,0,0,1,.57-1.19,1,1,0,0,1,1.22.56A.93.93,0,0,1,1297.88,541.71Z" transform="translate(-20.22 -14.62)"/><path class="cls-3" d="M1294.21,511.29a1,1,0,0,1-1.22-.55.92.92,0,0,1,.57-1.19,1,1,0,0,1,1.22.55A.92.92,0,0,1,1294.21,511.29Z" transform="translate(-20.22 -14.62)"/><path class="cls-3" d="M1332.29,484.79a1,1,0,0,1-1.22-.55.92.92,0,0,1,.57-1.19,1,1,0,0,1,1.22.55A.92.92,0,0,1,1332.29,484.79Z" transform="translate(-20.22 -14.62)"/><path class="cls-3" d="M1354,527.32a1,1,0,0,1-1.22-.56.92.92,0,0,1,.57-1.19,1,1,0,0,1,1.22.56A.93.93,0,0,1,1354,527.32Z" transform="translate(-20.22 -14.62)"/><path class="cls-3" d="M1334.25,592.34a.58.58,0,0,1-.81.07.56.56,0,0,1-.07-.79.58.58,0,0,1,.81-.07A.54.54,0,0,1,1334.25,592.34Z" transform="translate(-20.22 -14.62)"/><path class="cls-3" d="M1359.93,601.86a.49.49,0,0,1-.67.06.47.47,0,0,1-.06-.66.5.5,0,0,1,.68,0A.45.45,0,0,1,1359.93,601.86Z" transform="translate(-20.22 -14.62)"/><path class="cls-3" d="M1321.18,589.14a.49.49,0,0,1-.67.06.46.46,0,0,1-.06-.66.49.49,0,0,1,.67-.06A.46.46,0,0,1,1321.18,589.14Z" transform="translate(-20.22 -14.62)"/><path class="cls-3" d="M1370.37,608a1,1,0,0,1-1.34.12.92.92,0,0,1-.12-1.31,1,1,0,0,1,1.34-.11A.9.9,0,0,1,1370.37,608Z" transform="translate(-20.22 -14.62)"/><path class="cls-3" d="M1325.6,612.21a1,1,0,0,1-1.34.11.92.92,0,0,1-.11-1.31,1,1,0,0,1,1.34-.11A.91.91,0,0,1,1325.6,612.21Z" transform="translate(-20.22 -14.62)"/><path class="cls-3" d="M1336.3,628a.46.46,0,0,1-.62.17.45.45,0,0,1-.17-.61.47.47,0,0,1,.63-.17A.44.44,0,0,1,1336.3,628Z" transform="translate(-20.22 -14.62)"/><path class="cls-3" d="M1322.72,618.69a.47.47,0,0,1-.63.16.44.44,0,0,1-.17-.61.48.48,0,0,1,.63-.16A.45.45,0,0,1,1322.72,618.69Z" transform="translate(-20.22 -14.62)"/><path class="cls-3" d="M1335.3,621.55a1,1,0,0,1-1.3.34.91.91,0,0,1-.35-1.27,1,1,0,0,1,1.3-.34A.93.93,0,0,1,1335.3,621.55Z" transform="translate(-20.22 -14.62)"/><path class="cls-3" d="M1303.32,604.62a1,1,0,0,1-1.3.34.92.92,0,0,1-.34-1.27,1,1,0,0,1,1.3-.34A.91.91,0,0,1,1303.32,604.62Z" transform="translate(-20.22 -14.62)"/><path class="cls-3" d="M1303.93,601.74a1,1,0,0,1-1.3.34.92.92,0,0,1-.35-1.27,1,1,0,0,1,1.3-.34A.92.92,0,0,1,1303.93,601.74Z" transform="translate(-20.22 -14.62)"/><path class="cls-3" d="M1349.08,627.17a1,1,0,0,1-1.3.34.91.91,0,0,1-.35-1.27,1,1,0,0,1,1.3-.34A.92.92,0,0,1,1349.08,627.17Z" transform="translate(-20.22 -14.62)"/><path class="cls-3" d="M1270.63,632.68a2,2,0,0,1-2.49-1.13,1.9,1.9,0,0,1,1.16-2.43,2,2,0,0,1,2.49,1.14A1.87,1.87,0,0,1,1270.63,632.68Z" transform="translate(-20.22 -14.62)"/><path class="cls-3" d="M1287,611.65a1.43,1.43,0,0,1-1.83-.83,1.38,1.38,0,0,1,.85-1.78,1.43,1.43,0,0,1,1.83.83A1.38,1.38,0,0,1,1287,611.65Z" transform="translate(-20.22 -14.62)"/><path class="cls-3" d="M1269.41,626.78a.93.93,0,0,1-1.18-.54.89.89,0,0,1,.55-1.14.92.92,0,0,1,1.17.53A.89.89,0,0,1,1269.41,626.78Z" transform="translate(-20.22 -14.62)"/><path class="cls-3" d="M1246.58,622.62a.92.92,0,0,1-1.17-.54.88.88,0,0,1,.55-1.14.92.92,0,0,1,1.17.53A.89.89,0,0,1,1246.58,622.62Z" transform="translate(-20.22 -14.62)"/><path class="cls-3" d="M1260.21,587.55a.47.47,0,0,1-.59-.27.45.45,0,0,1,.27-.57.47.47,0,0,1,.59.27A.44.44,0,0,1,1260.21,587.55Z" transform="translate(-20.22 -14.62)"/><path class="cls-3" d="M1265.88,597.55a.93.93,0,0,1-1.18-.53.9.9,0,0,1,.55-1.15.91.91,0,0,1,1.17.54A.88.88,0,0,1,1265.88,597.55Z" transform="translate(-20.22 -14.62)"/><path class="cls-3" d="M1226.54,580.07a.92.92,0,0,1-1.17-.54.88.88,0,0,1,.55-1.14.92.92,0,0,1,1.17.53A.89.89,0,0,1,1226.54,580.07Z" transform="translate(-20.22 -14.62)"/><path class="cls-3" d="M1323.3,613a.93.93,0,0,1-1.18-.54.89.89,0,0,1,.55-1.14.92.92,0,0,1,1.17.53A.89.89,0,0,1,1323.3,613Z" transform="translate(-20.22 -14.62)"/><path class="cls-3" d="M1182,612.78a1.49,1.49,0,0,1-1.9-.86,1.44,1.44,0,0,1,.89-1.86,1.5,1.5,0,0,1,1.9.87A1.43,1.43,0,0,1,1182,612.78Z" transform="translate(-20.22 -14.62)"/><path class="cls-3" d="M1219.74,614.13a1,1,0,0,1-1.22-.56.93.93,0,0,1,.57-1.19,1,1,0,0,1,1.22.56A.92.92,0,0,1,1219.74,614.13Z" transform="translate(-20.22 -14.62)"/><path class="cls-3" d="M213.94,196a.92.92,0,0,1,.46,1.24,1,1,0,0,1-1.26.45.92.92,0,0,1-.46-1.24A1,1,0,0,1,213.94,196Z" transform="translate(-20.22 -14.62)"/><path class="cls-3" d="M114.47,264.08a.45.45,0,0,1,.23.62.48.48,0,0,1-.63.22.46.46,0,0,1-.23-.62A.48.48,0,0,1,114.47,264.08Z" transform="translate(-20.22 -14.62)"/><path class="cls-3" d="M197.76,224.79a.92.92,0,0,1,.46,1.24,1,1,0,0,1-1.26.45.92.92,0,0,1-.46-1.24A1,1,0,0,1,197.76,224.79Z" transform="translate(-20.22 -14.62)"/><path class="cls-3" d="M229.32,219.81a.93.93,0,0,1,.46,1.24,1,1,0,0,1-1.27.45.93.93,0,0,1-.46-1.24A1,1,0,0,1,229.32,219.81Z" transform="translate(-20.22 -14.62)"/><path class="cls-3" d="M1169.58,581.41a1,1,0,1,1-.95-.93A.94.94,0,0,1,1169.58,581.41Z" transform="translate(-20.22 -14.62)"/><path class="cls-2" d="M1109.77,564.92a2.91,2.91,0,0,1-4,.34,2.75,2.75,0,0,1-.35-3.93,2.91,2.91,0,0,1,4-.34A2.76,2.76,0,0,1,1109.77,564.92Z" transform="translate(-20.22 -14.62)"/><path class="cls-3" d="M1130.7,597.05a2,2,0,0,1-2.84.25,2,2,0,0,1-.25-2.78,2.05,2.05,0,0,1,2.85-.24A1.93,1.93,0,0,1,1130.7,597.05Z" transform="translate(-20.22 -14.62)"/><path class="cls-3" d="M1119.63,558.68a1,1,0,0,1-1.34.11.92.92,0,0,1-.12-1.31,1,1,0,0,1,1.34-.11A.91.91,0,0,1,1119.63,558.68Z" transform="translate(-20.22 -14.62)"/><path class="cls-3" d="M1159.6,570.57a.47.47,0,1,1-.43.5A.47.47,0,0,1,1159.6,570.57Z" transform="translate(-20.22 -14.62)"/><path class="cls-3" d="M1153.09,551a.93.93,0,1,1-.86,1A.92.92,0,0,1,1153.09,551Z" transform="translate(-20.22 -14.62)"/><path class="cls-3" d="M1081.45,552.79a.47.47,0,0,1-.63.16.44.44,0,0,1-.16-.61.46.46,0,0,1,.62-.16A.44.44,0,0,1,1081.45,552.79Z" transform="translate(-20.22 -14.62)"/><path class="cls-2" d="M1059.32,602.12a2.9,2.9,0,0,1-3.9,1,2.75,2.75,0,0,1-1.05-3.81,2.9,2.9,0,0,1,3.9-1A2.75,2.75,0,0,1,1059.32,602.12Z" transform="translate(-20.22 -14.62)"/><path class="cls-3" d="M1082,558.13a2.89,2.89,0,0,1-3.9,1,2.75,2.75,0,0,1-1-3.81,2.89,2.89,0,0,1,3.9-1A2.76,2.76,0,0,1,1082,558.13Z" transform="translate(-20.22 -14.62)"/><path class="cls-3" d="M1031.15,586.25a2,2,0,0,1-2.76.72,1.94,1.94,0,0,1-.74-2.69,2,2,0,0,1,2.76-.72A2,2,0,0,1,1031.15,586.25Z" transform="translate(-20.22 -14.62)"/><path class="cls-3" d="M1106.7,617.47a1.51,1.51,0,0,1-2,.53,1.43,1.43,0,0,1-.54-2,1.51,1.51,0,0,1,2-.53A1.44,1.44,0,0,1,1106.7,617.47Z" transform="translate(-20.22 -14.62)"/><path class="cls-3" d="M1093,662.15a.48.48,0,0,1-.65.18.46.46,0,0,1-.17-.64.48.48,0,0,1,.65-.17A.46.46,0,0,1,1093,662.15Z" transform="translate(-20.22 -14.62)"/><path class="cls-3" d="M1002.82,603.8a.49.49,0,0,1-.65.17.46.46,0,0,1-.18-.63.48.48,0,0,1,.65-.17A.46.46,0,0,1,1002.82,603.8Z" transform="translate(-20.22 -14.62)"/><path class="cls-3" d="M1084,653.88a.47.47,0,0,1-.65.17.45.45,0,0,1-.18-.63.49.49,0,0,1,.65-.17A.46.46,0,0,1,1084,653.88Z" transform="translate(-20.22 -14.62)"/><path class="cls-3" d="M1103.58,676.88a.48.48,0,0,1-.65.17.46.46,0,0,1-.17-.64.48.48,0,0,1,.65-.17A.47.47,0,0,1,1103.58,676.88Z" transform="translate(-20.22 -14.62)"/><path class="cls-3" d="M994.47,617a.48.48,0,0,1-.65.17.46.46,0,0,1-.17-.63.48.48,0,0,1,.65-.17A.44.44,0,0,1,994.47,617Z" transform="translate(-20.22 -14.62)"/><path class="cls-3" d="M1019,564.82a1,1,0,0,1-1.3.34.91.91,0,0,1-.35-1.27,1,1,0,0,1,1.3-.34A.92.92,0,0,1,1019,564.82Z" transform="translate(-20.22 -14.62)"/><path class="cls-3" d="M1015.26,561.64a1,1,0,0,1-1.3.34.93.93,0,0,1-.35-1.27,1,1,0,0,1,1.3-.34A.91.91,0,0,1,1015.26,561.64Z" transform="translate(-20.22 -14.62)"/><path class="cls-3" d="M1018.34,601.17a2,2,0,0,1,2.48,1.4,2,2,0,0,1-1.43,2.41,2,2,0,0,1-2.47-1.39A2,2,0,0,1,1018.34,601.17Z" transform="translate(-20.22 -14.62)"/><path class="cls-3" d="M1032.13,551a.93.93,0,0,1-1.18-.53.9.9,0,0,1,.55-1.15.91.91,0,0,1,1.17.54A.88.88,0,0,1,1032.13,551Z" transform="translate(-20.22 -14.62)"/><path class="cls-3" d="M1000.79,573.6a2,2,0,0,1-2.59-1.18,2,2,0,0,1,1.21-2.52,2,2,0,0,1,2.58,1.18A2,2,0,0,1,1000.79,573.6Z" transform="translate(-20.22 -14.62)"/><path class="cls-3" d="M1015.55,561.59a2,2,0,0,1,1,2.62,2,2,0,0,1-2.69.95,2,2,0,0,1-1-2.62A2,2,0,0,1,1015.55,561.59Z" transform="translate(-20.22 -14.62)"/><path class="cls-3" d="M1020.36,552.64a.46.46,0,0,1,.23.62.5.5,0,0,1-.64.23.47.47,0,0,1-.23-.62A.5.5,0,0,1,1020.36,552.64Z" transform="translate(-20.22 -14.62)"/><path class="cls-3" d="M1024.37,562.17a.46.46,0,0,1,.23.62.48.48,0,0,1-.63.22.46.46,0,0,1-.23-.62A.48.48,0,0,1,1024.37,562.17Z" transform="translate(-20.22 -14.62)"/><path class="cls-3" d="M1011.92,552.6a.93.93,0,0,1,.46,1.24,1,1,0,0,1-1.27.45.93.93,0,0,1-.46-1.24A1,1,0,0,1,1011.92,552.6Z" transform="translate(-20.22 -14.62)"/><path class="cls-3" d="M118.86,243.94a.92.92,0,0,1,.46,1.24,1,1,0,0,1-1.26.44.91.91,0,0,1-.46-1.23A1,1,0,0,1,118.86,243.94Z" transform="translate(-20.22 -14.62)"/><path class="cls-3" d="M366.63,553.52a1,1,0,0,1,1.35,0,.91.91,0,0,1,0,1.31,1,1,0,0,1-1.35,0A.91.91,0,0,1,366.63,553.52Z" transform="translate(-20.22 -14.62)"/><path class="cls-3" d="M549.8,575a1,1,0,0,1,1.35,0,.91.91,0,0,1,0,1.31,1,1,0,0,1-1.35,0A.91.91,0,0,1,549.8,575Z" transform="translate(-20.22 -14.62)"/><path class="cls-3" d="M563.23,616.88a1,1,0,0,1,1.35,0,.91.91,0,0,1,0,1.31,1,1,0,0,1-1.35,0A.91.91,0,0,1,563.23,616.88Z" transform="translate(-20.22 -14.62)"/><path class="cls-3" d="M511.74,545.37a1,1,0,0,1,1.34,0,.91.91,0,0,1,0,1.31,1,1,0,0,1-1.34,0A.9.9,0,0,1,511.74,545.37Z" transform="translate(-20.22 -14.62)"/><ellipse class="cls-5" cx="699.73" cy="460.4" rx="2.86" ry="2.79"/><ellipse class="cls-5" cx="696.87" cy="407.67" rx="2.86" ry="2.79"/><path class="cls-6" d="M760,486.48a2,2,0,1,1-2-2A2,2,0,0,1,760,486.48Z" transform="translate(-20.22 -14.62)"/><ellipse class="cls-4" cx="655.68" cy="442.32" rx="2.02" ry="1.97"/><ellipse class="cls-4" cx="755.46" cy="330.33" rx="2.02" ry="1.97"/><path class="cls-6" d="M779.23,428.53a2,2,0,1,1-2-2A2,2,0,0,1,779.23,428.53Z" transform="translate(-20.22 -14.62)"/><path class="cls-3" d="M662.68,433.81a1.48,1.48,0,1,1-1.48-1.45A1.46,1.46,0,0,1,662.68,433.81Z" transform="translate(-20.22 -14.62)"/><path class="cls-6" d="M726.25,464.05a1,1,0,1,1-1-.93A.94.94,0,0,1,726.25,464.05Z" transform="translate(-20.22 -14.62)"/><path class="cls-3" d="M671.57,456a1,1,0,1,1-1-.93A.94.94,0,0,1,671.57,456Z" transform="translate(-20.22 -14.62)"/><path class="cls-6" d="M672.53,477.81a1,1,0,1,1-1-.93A.94.94,0,0,1,672.53,477.81Z" transform="translate(-20.22 -14.62)"/><path class="cls-3" d="M684.73,472.24a1,1,0,0,1-1.9,0,1,1,0,0,1,1.9,0Z" transform="translate(-20.22 -14.62)"/><ellipse class="cls-4" cx="638.12" cy="461.7" rx="0.95" ry="0.93"/><path class="cls-6" d="M734.69,404.07a1,1,0,1,1-1-.93A.93.93,0,0,1,734.69,404.07Z" transform="translate(-20.22 -14.62)"/><ellipse class="cls-5" cx="667.56" cy="442.78" rx="0.48" ry="0.46"/><ellipse class="cls-4" cx="660.42" cy="450.36" rx="0.48" ry="0.46"/><path class="cls-3" d="M684.73,449.92a1,1,0,1,1-1-.93A.95.95,0,0,1,684.73,449.92Z" transform="translate(-20.22 -14.62)"/><ellipse class="cls-4" cx="638.12" cy="323.27" rx="0.95" ry="0.93"/><ellipse class="cls-4" cx="655.69" cy="385.02" rx="0.95" ry="0.93"/><path class="cls-3" d="M895.94,324.55a2.9,2.9,0,0,1,4,0,2.75,2.75,0,0,1,0,3.94,2.9,2.9,0,0,1-4,0A2.73,2.73,0,0,1,895.94,324.55Z" transform="translate(-20.22 -14.62)"/><path class="cls-3" d="M777.21,332.21a2.9,2.9,0,0,1,4,0,2.73,2.73,0,0,1,0,3.94,2.9,2.9,0,0,1-4,0A2.75,2.75,0,0,1,777.21,332.21Z" transform="translate(-20.22 -14.62)"/><path class="cls-2" d="M859.76,363.81a2.9,2.9,0,0,1,4,0,2.75,2.75,0,0,1,0,3.94,2.9,2.9,0,0,1-4,0A2.73,2.73,0,0,1,859.76,363.81Z" transform="translate(-20.22 -14.62)"/><path class="cls-3" d="M877.92,290.77a2.06,2.06,0,0,1,2.86,0,1.94,1.94,0,0,1,0,2.79,2.06,2.06,0,0,1-2.86,0A1.94,1.94,0,0,1,877.92,290.77Z" transform="translate(-20.22 -14.62)"/><path class="cls-3" d="M914.58,368.32a2,2,0,0,1,2.85,0,1.94,1.94,0,0,1,0,2.79,2,2,0,0,1-2.85,0A1.94,1.94,0,0,1,914.58,368.32Z" transform="translate(-20.22 -14.62)"/><path class="cls-3" d="M822.36,318.48a2.06,2.06,0,0,1,2.86,0,1.94,1.94,0,0,1,0,2.79,2.06,2.06,0,0,1-2.86,0A2,2,0,0,1,822.36,318.48Z" transform="translate(-20.22 -14.62)"/><ellipse class="cls-4" cx="889.42" cy="381.6" rx="1.48" ry="1.45"/><ellipse class="cls-4" cx="866.01" cy="315.97" rx="0.95" ry="0.93"/><path class="cls-3" d="M918.39,373.36a1,1,0,0,1,1.35,0,.92.92,0,0,1,0,1.32,1,1,0,0,1-1.35,0A.92.92,0,0,1,918.39,373.36Z" transform="translate(-20.22 -14.62)"/><path class="cls-3" d="M933.51,357.29a1,1,0,0,1,1.35,0,.91.91,0,0,1,0,1.31,1,1,0,0,1-1.35,0A.91.91,0,0,1,933.51,357.29Z" transform="translate(-20.22 -14.62)"/><path class="cls-3" d="M920.84,352.81a1,1,0,0,1,1.35,0,.91.91,0,0,1,0,1.31,1,1,0,0,1-1.35,0A.91.91,0,0,1,920.84,352.81Z" transform="translate(-20.22 -14.62)"/><path class="cls-3" d="M836.14,366.52a1,1,0,0,1,1.35,0,.91.91,0,0,1,0,1.31,1,1,0,0,1-1.35,0A.91.91,0,0,1,836.14,366.52Z" transform="translate(-20.22 -14.62)"/><path class="cls-3" d="M907.6,360.86a.48.48,0,0,1,.68,0,.46.46,0,0,1,0,.65.5.5,0,0,1-.68,0A.46.46,0,0,1,907.6,360.86Z" transform="translate(-20.22 -14.62)"/><path class="cls-3" d="M944.76,406.4a.46.46,0,0,1,.67,0,.44.44,0,0,1,0,.65.48.48,0,0,1-.67,0A.44.44,0,0,1,944.76,406.4Z" transform="translate(-20.22 -14.62)"/><path class="cls-3" d="M784.85,283.08a.5.5,0,0,1,.68,0,.47.47,0,0,1,0,.66.5.5,0,0,1-.68,0A.47.47,0,0,1,784.85,283.08Z" transform="translate(-20.22 -14.62)"/><path class="cls-3" d="M918.14,360.43a.5.5,0,0,1,.68,0,.47.47,0,0,1,0,.66.5.5,0,0,1-.68,0A.47.47,0,0,1,918.14,360.43Z" transform="translate(-20.22 -14.62)"/><ellipse class="cls-4" cx="885.13" cy="354.62" rx="0.95" ry="0.93"/><path class="cls-3" d="M934.9,399.4a1,1,0,0,1,1.35,0,.92.92,0,0,1,0,1.32,1,1,0,0,1-1.35,0A.92.92,0,0,1,934.9,399.4Z" transform="translate(-20.22 -14.62)"/><path class="cls-3" d="M745.84,283.68a1,1,0,0,1,1.35,0,.92.92,0,0,1,0,1.32,1,1,0,0,1-1.35,0A.92.92,0,0,1,745.84,283.68Z" transform="translate(-20.22 -14.62)"/><path class="cls-3" d="M1033.21,303.24a1,1,0,0,1,1.35,0,.91.91,0,0,1,0,1.31,1,1,0,0,1-1.35,0A.91.91,0,0,1,1033.21,303.24Z" transform="translate(-20.22 -14.62)"/><path class="cls-3" d="M873.82,409.56a1,1,0,0,1,1.34,0,.91.91,0,0,1,0,1.32,1,1,0,0,1-1.34,0A.92.92,0,0,1,873.82,409.56Z" transform="translate(-20.22 -14.62)"/><ellipse class="cls-4" cx="991.01" cy="362.72" rx="2.86" ry="2.79"/><path class="cls-2" d="M1148.54,319.12a2.9,2.9,0,0,1,4,0,2.75,2.75,0,0,1,0,3.94,2.9,2.9,0,0,1-4,0A2.73,2.73,0,0,1,1148.54,319.12Z" transform="translate(-20.22 -14.62)"/><path class="cls-3" d="M1067.07,335a2.89,2.89,0,0,1,4,0,2.73,2.73,0,0,1,0,3.94,2.89,2.89,0,0,1-4,0A2.73,2.73,0,0,1,1067.07,335Z" transform="translate(-20.22 -14.62)"/><path class="cls-3" d="M973,414.63a2.9,2.9,0,0,1,4,0,2.73,2.73,0,0,1,0,3.94,2.9,2.9,0,0,1-4,0A2.75,2.75,0,0,1,973,414.63Z" transform="translate(-20.22 -14.62)"/><path class="cls-3" d="M981.88,443.62a2.9,2.9,0,0,1,4,0,2.73,2.73,0,0,1,0,3.94,2.9,2.9,0,0,1-4,0A2.75,2.75,0,0,1,981.88,443.62Z" transform="translate(-20.22 -14.62)"/><ellipse class="cls-4" cx="972.4" cy="328.36" rx="2.02" ry="1.97"/><ellipse class="cls-4" cx="1084.89" cy="277.22" rx="2.02" ry="1.97"/><ellipse class="cls-4" cx="1068.72" cy="292.55" rx="2.02" ry="1.97"/><path class="cls-3" d="M1027.85,419.14a2,2,0,0,1,2.85,0,1.94,1.94,0,0,1,0,2.79,2,2,0,0,1-2.85,0A1.94,1.94,0,0,1,1027.85,419.14Z" transform="translate(-20.22 -14.62)"/><path class="cls-3" d="M935.64,369.3a2,2,0,0,1,2.85,0,1.94,1.94,0,0,1,0,2.79,2.07,2.07,0,0,1-2.85,0A1.94,1.94,0,0,1,935.64,369.3Z" transform="translate(-20.22 -14.62)"/><ellipse class="cls-4" cx="1002.69" cy="432.42" rx="1.48" ry="1.45"/><ellipse class="cls-4" cx="1014.56" cy="460.77" rx="1.48" ry="1.45"/><path class="cls-3" d="M976.86,437.35a1.5,1.5,0,0,1,2.1,0,1.43,1.43,0,0,1,0,2,1.52,1.52,0,0,1-2.1,0A1.43,1.43,0,0,1,976.86,437.35Z" transform="translate(-20.22 -14.62)"/><path class="cls-3" d="M890.74,490.52a1.52,1.52,0,0,1,2.1,0,1.43,1.43,0,0,1,0,2.05,1.5,1.5,0,0,1-2.1,0A1.44,1.44,0,0,1,890.74,490.52Z" transform="translate(-20.22 -14.62)"/><path class="cls-3" d="M998.83,380.75a1,1,0,0,1,1.35,0,.92.92,0,0,1,0,1.32,1,1,0,0,1-1.35,0A.92.92,0,0,1,998.83,380.75Z" transform="translate(-20.22 -14.62)"/><ellipse class="cls-4" cx="1012.11" cy="410.21" rx="0.95" ry="0.93"/><path class="cls-3" d="M984.09,436.22a1,1,0,0,1,1.34,0,.91.91,0,0,1,0,1.31,1,1,0,0,1-1.34,0A.9.9,0,0,1,984.09,436.22Z" transform="translate(-20.22 -14.62)"/><path class="cls-3" d="M1090.29,415.94a1,1,0,0,1,1.35,0,.92.92,0,0,1,0,1.32,1,1,0,0,1-1.35,0A.92.92,0,0,1,1090.29,415.94Z" transform="translate(-20.22 -14.62)"/><path class="cls-3" d="M1119.24,409a1,1,0,0,1,1.35,0,.91.91,0,0,1,0,1.31,1,1,0,0,1-1.35,0A.91.91,0,0,1,1119.24,409Z" transform="translate(-20.22 -14.62)"/><path class="cls-3" d="M1046.79,408.11a1,1,0,0,1,1.34,0,.91.91,0,0,1,0,1.31,1,1,0,0,1-1.34,0A.9.9,0,0,1,1046.79,408.11Z" transform="translate(-20.22 -14.62)"/><path class="cls-3" d="M843.89,340.07a1,1,0,0,1,1.34,0,.91.91,0,0,1,0,1.32,1,1,0,0,1-1.34,0A.92.92,0,0,1,843.89,340.07Z" transform="translate(-20.22 -14.62)"/><ellipse class="cls-4" cx="1152.56" cy="279.08" rx="0.95" ry="0.93"/><path class="cls-3" d="M1034.12,403.62a1,1,0,0,1,1.34,0,.92.92,0,0,1,0,1.32,1,1,0,0,1-1.34,0A.91.91,0,0,1,1034.12,403.62Z" transform="translate(-20.22 -14.62)"/><ellipse class="cls-4" cx="929.86" cy="403.37" rx="0.95" ry="0.93"/><path class="cls-3" d="M733.07,333.52a1,1,0,0,1,1.34,0,.91.91,0,0,1,0,1.32,1,1,0,0,1-1.34,0A.92.92,0,0,1,733.07,333.52Z" transform="translate(-20.22 -14.62)"/><path class="cls-3" d="M1020.87,411.68a.48.48,0,0,1,.68,0,.46.46,0,0,1,0,.65.5.5,0,0,1-.68,0A.46.46,0,0,1,1020.87,411.68Z" transform="translate(-20.22 -14.62)"/><path class="cls-3" d="M945.71,426.75a.46.46,0,0,1,.67,0,.44.44,0,0,1,0,.65.48.48,0,0,1-.67,0A.46.46,0,0,1,945.71,426.75Z" transform="translate(-20.22 -14.62)"/><ellipse class="cls-4" cx="938.88" cy="403.94" rx="0.48" ry="0.46"/><path class="cls-3" d="M872.73,336.12a.48.48,0,0,1,.67,0,.45.45,0,0,1,0,.66.48.48,0,0,1-.67,0A.45.45,0,0,1,872.73,336.12Z" transform="translate(-20.22 -14.62)"/><path class="cls-3" d="M1058,457.21a.48.48,0,0,1,.67,0,.45.45,0,0,1,0,.66.48.48,0,0,1-.67,0A.45.45,0,0,1,1058,457.21Z" transform="translate(-20.22 -14.62)"/><path class="cls-3" d="M1058.51,489.83a.46.46,0,0,1,.67,0,.44.44,0,0,1,0,.65.48.48,0,0,1-.67,0A.44.44,0,0,1,1058.51,489.83Z" transform="translate(-20.22 -14.62)"/><path class="cls-6" d="M764.69,448.05a.48.48,0,0,1,.67,0,.47.47,0,0,1,0,.66.48.48,0,0,1-.67,0A.45.45,0,0,1,764.69,448.05Z" transform="translate(-20.22 -14.62)"/><path class="cls-3" d="M1040.35,490.29a.5.5,0,0,1,.68,0,.47.47,0,0,1,0,.66.5.5,0,0,1-.68,0A.47.47,0,0,1,1040.35,490.29Z" transform="translate(-20.22 -14.62)"/><path class="cls-3" d="M1039.88,484.18a.46.46,0,0,1,.67,0,.44.44,0,0,1,0,.65.48.48,0,0,1-.67,0A.44.44,0,0,1,1039.88,484.18Z" transform="translate(-20.22 -14.62)"/><path class="cls-3" d="M980.71,442.06a.48.48,0,0,1,.67,0,.45.45,0,0,1,0,.66.48.48,0,0,1-.67,0A.45.45,0,0,1,980.71,442.06Z" transform="translate(-20.22 -14.62)"/><path class="cls-3" d="M1031.42,411.25a.48.48,0,0,1,.67,0,.44.44,0,0,1,0,.65.46.46,0,0,1-.67,0A.44.44,0,0,1,1031.42,411.25Z" transform="translate(-20.22 -14.62)"/><path class="cls-3" d="M977.57,435.15a.48.48,0,0,1,.67,0,.45.45,0,0,1,0,.66.48.48,0,0,1-.67,0A.45.45,0,0,1,977.57,435.15Z" transform="translate(-20.22 -14.62)"/><path class="cls-3" d="M1018,419.4a1,1,0,0,1,1.35,0,.92.92,0,0,1,0,1.32,1,1,0,0,1-1.35,0A.92.92,0,0,1,1018,419.4Z" transform="translate(-20.22 -14.62)"/><ellipse class="cls-4" cx="940.3" cy="420.39" rx="0.95" ry="0.93"/><path class="cls-3" d="M972.47,435.29a1,1,0,0,1,1.35,0,.91.91,0,0,1,0,1.31,1,1,0,0,1-1.35,0A.91.91,0,0,1,972.47,435.29Z" transform="translate(-20.22 -14.62)"/><ellipse class="cls-4" cx="735.75" cy="344.25" rx="0.95" ry="0.93"/><ellipse class="cls-4" cx="752.39" cy="314.07" rx="2.02" ry="1.97"/><ellipse class="cls-4" cx="770.57" cy="302.3" rx="0.95" ry="0.93"/><path class="cls-3" d="M777.45,311.79a1,1,0,0,1,1.35,0,.91.91,0,0,1,0,1.31,1,1,0,0,1-1.35,0A.91.91,0,0,1,777.45,311.79Z" transform="translate(-20.22 -14.62)"/><path class="cls-3" d="M764.21,319.84a.48.48,0,0,1,.67,0,.45.45,0,0,1,0,.66.48.48,0,0,1-.67,0A.45.45,0,0,1,764.21,319.84Z" transform="translate(-20.22 -14.62)"/><path class="cls-3" d="M774.75,319.41a.48.48,0,0,1,.67,0,.45.45,0,0,1,0,.66.48.48,0,0,1-.67,0A.47.47,0,0,1,774.75,319.41Z" transform="translate(-20.22 -14.62)"/><path class="cls-3" d="M761.29,327.57a1,1,0,0,1,1.34,0,.91.91,0,0,1,0,1.31,1,1,0,0,1-1.34,0A.9.9,0,0,1,761.29,327.57Z" transform="translate(-20.22 -14.62)"/><path class="cls-2" d="M562.18,341.44a2,2,0,1,1-2-2A2,2,0,0,1,562.18,341.44Z" transform="translate(-20.22 -14.62)"/><path class="cls-3" d="M561.69,328.69a2.9,2.9,0,0,1,4,0,2.74,2.74,0,0,1,0,3.95,2.92,2.92,0,0,1-4,0A2.76,2.76,0,0,1,561.69,328.69Z" transform="translate(-20.22 -14.62)"/><path class="cls-3" d="M606.84,315a2.06,2.06,0,0,1,2.86,0,1.94,1.94,0,0,1,0,2.79,2.06,2.06,0,0,1-2.86,0A2,2,0,0,1,606.84,315Z" transform="translate(-20.22 -14.62)"/><path class="cls-3" d="M569.33,279.56a.5.5,0,0,1,.68,0,.47.47,0,0,1,0,.66.5.5,0,0,1-.68,0A.47.47,0,0,1,569.33,279.56Z" transform="translate(-20.22 -14.62)"/><ellipse class="cls-4" cx="510.77" cy="266.2" rx="0.95" ry="0.93"/><path class="cls-3" d="M517.55,330a1,1,0,0,1,1.34,0,.9.9,0,0,1,0,1.31,1,1,0,0,1-1.34,0A.91.91,0,0,1,517.55,330Z" transform="translate(-20.22 -14.62)"/><ellipse class="cls-4" cx="520.24" cy="340.73" rx="0.95" ry="0.93"/><ellipse class="cls-4" cx="536.87" cy="310.56" rx="2.02" ry="1.97"/><path class="cls-3" d="M574.6,312.75a1,1,0,0,1,1.35,0,.92.92,0,0,1,0,1.32,1,1,0,0,1-1.35,0A.92.92,0,0,1,574.6,312.75Z" transform="translate(-20.22 -14.62)"/><path class="cls-3" d="M561.93,308.27a1,1,0,0,1,1.35,0,.92.92,0,0,1,0,1.32,1,1,0,0,1-1.35,0A.92.92,0,0,1,561.93,308.27Z" transform="translate(-20.22 -14.62)"/><path class="cls-3" d="M548.69,316.32a.48.48,0,0,1,.67,0,.45.45,0,0,1,0,.66.48.48,0,0,1-.67,0A.45.45,0,0,1,548.69,316.32Z" transform="translate(-20.22 -14.62)"/><path class="cls-3" d="M559.23,315.89a.5.5,0,0,1,.68,0,.47.47,0,0,1,0,.66.5.5,0,0,1-.68,0A.47.47,0,0,1,559.23,315.89Z" transform="translate(-20.22 -14.62)"/><path class="cls-3" d="M545.77,324.05a1,1,0,0,1,1.34,0,.91.91,0,0,1,0,1.32,1,1,0,0,1-1.34,0A.92.92,0,0,1,545.77,324.05Z" transform="translate(-20.22 -14.62)"/><ellipse class="cls-4" cx="1028.62" cy="436.26" rx="0.95" ry="0.93"/><ellipse class="cls-4" cx="1141.57" cy="351.62" rx="0.95" ry="0.93"/><ellipse class="cls-4" cx="1117.77" cy="437.19" rx="0.95" ry="0.93"/><path class="cls-3" d="M1007.7,483.38a1,1,0,0,1,1.35,0,.92.92,0,0,1,0,1.32,1,1,0,0,1-1.35,0A.92.92,0,0,1,1007.7,483.38Z" transform="translate(-20.22 -14.62)"/><ellipse class="cls-4" cx="1154.74" cy="343.32" rx="0.95" ry="0.93"/><path class="cls-3" d="M1125.71,235.1a2.06,2.06,0,0,1,2.86,0,1.94,1.94,0,0,1,0,2.79,2.06,2.06,0,0,1-2.86,0A1.94,1.94,0,0,1,1125.71,235.1Z" transform="translate(-20.22 -14.62)"/><ellipse class="cls-4" cx="1086.91" cy="347.26" rx="2.02" ry="1.97"/><path class="cls-3" d="M815.68,464.33a1.5,1.5,0,0,1,2.1,0,1.43,1.43,0,0,1,0,2.05,1.52,1.52,0,0,1-2.1,0A1.43,1.43,0,0,1,815.68,464.33Z" transform="translate(-20.22 -14.62)"/><ellipse class="cls-4" cx="805.92" cy="428.53" rx="0.95" ry="0.93"/><ellipse class="cls-4" cx="821.04" cy="412.45" rx="0.95" ry="0.93"/><path class="cls-3" d="M858.25,371a1,1,0,0,1,1.35,0,.91.91,0,0,1,0,1.31,1,1,0,0,1-1.35,0A.91.91,0,0,1,858.25,371Z" transform="translate(-20.22 -14.62)"/><path class="cls-3" d="M827.92,421.94a1,1,0,0,1,1.35,0,.91.91,0,0,1,0,1.31,1,1,0,0,1-1.35,0A.91.91,0,0,1,827.92,421.94Z" transform="translate(-20.22 -14.62)"/><path class="cls-3" d="M814.68,430a.5.5,0,0,1,.68,0,.46.46,0,0,1,0,.65.48.48,0,0,1-.68,0A.46.46,0,0,1,814.68,430Z" transform="translate(-20.22 -14.62)"/><path class="cls-6" d="M796.47,468.22a.48.48,0,0,1,.67,0,.45.45,0,0,1,0,.66.48.48,0,0,1-.67,0A.45.45,0,0,1,796.47,468.22Z" transform="translate(-20.22 -14.62)"/><path class="cls-3" d="M851.84,475.53a.47.47,0,0,1,.67,0,.44.44,0,0,1,0,.65.48.48,0,0,1-.67,0A.44.44,0,0,1,851.84,475.53Z" transform="translate(-20.22 -14.62)"/><path class="cls-3" d="M825.22,429.56a.5.5,0,0,1,.68,0,.47.47,0,0,1,0,.66.5.5,0,0,1-.68,0A.47.47,0,0,1,825.22,429.56Z" transform="translate(-20.22 -14.62)"/><path class="cls-3" d="M1209.41,250.18a1,1,0,0,1,1.35,0,.92.92,0,0,1,0,1.32,1,1,0,0,1-1.35,0A.92.92,0,0,1,1209.41,250.18Z" transform="translate(-20.22 -14.62)"/><ellipse class="cls-5" cx="727.24" cy="423.18" rx="0.95" ry="0.93"/><path class="cls-3" d="M842,468.53a1,1,0,0,1,1.35,0,.92.92,0,0,1,0,1.32,1,1,0,0,1-1.35,0A.92.92,0,0,1,842,468.53Z" transform="translate(-20.22 -14.62)"/><ellipse class="cls-4" cx="1005.61" cy="476" rx="0.95" ry="0.93"/><path class="cls-3" d="M1038.59,531.89a1,1,0,0,1,1.34,0,.9.9,0,0,1,0,1.31,1,1,0,0,1-1.34,0A.91.91,0,0,1,1038.59,531.89Z" transform="translate(-20.22 -14.62)"/><path class="cls-3" d="M987.09,460.38a1,1,0,0,1,1.35,0,.92.92,0,0,1,0,1.32,1,1,0,0,1-1.35,0A.92.92,0,0,1,987.09,460.38Z" transform="translate(-20.22 -14.62)"/><ellipse class="cls-4" cx="1163.31" cy="438.89" rx="1.61" ry="1.57"/><path class="cls-3" d="M1136.39,461.36a1.65,1.65,0,0,1,2.28,0,1.55,1.55,0,0,1,0,2.23,1.65,1.65,0,0,1-2.28,0A1.57,1.57,0,0,1,1136.39,461.36Z" transform="translate(-20.22 -14.62)"/><path class="cls-3" d="M1157.07,436.22a1.15,1.15,0,0,1,1.61,0,1.08,1.08,0,0,1,0,1.57,1.17,1.17,0,0,1-1.61,0A1.08,1.08,0,0,1,1157.07,436.22Z" transform="translate(-20.22 -14.62)"/><path class="cls-3" d="M1147.94,444.87a1.15,1.15,0,0,1,1.61,0,1.08,1.08,0,0,1,0,1.57,1.15,1.15,0,0,1-1.61,0A1.08,1.08,0,0,1,1147.94,444.87Z" transform="translate(-20.22 -14.62)"/><ellipse class="cls-4" cx="1097.95" cy="526" rx="0.84" ry="0.82"/><path class="cls-3" d="M1116.41,511.71a.56.56,0,0,1,.76,0,.53.53,0,0,1,0,.75.56.56,0,0,1-.76,0A.53.53,0,0,1,1116.41,511.71Z" transform="translate(-20.22 -14.62)"/><path class="cls-3" d="M1149.51,507.06a.56.56,0,0,1,.76,0,.53.53,0,0,1,0,.75.56.56,0,0,1-.76,0A.53.53,0,0,1,1149.51,507.06Z" transform="translate(-20.22 -14.62)"/><path class="cls-3" d="M1165.85,503.16a.56.56,0,0,1,.76,0,.53.53,0,0,1,0,.75.56.56,0,0,1-.76,0A.53.53,0,0,1,1165.85,503.16Z" transform="translate(-20.22 -14.62)"/><path class="cls-3" d="M1124.94,502.64a.54.54,0,0,1,.76,0,.51.51,0,0,1,0,.74.54.54,0,0,1-.76,0A.51.51,0,0,1,1124.94,502.64Z" transform="translate(-20.22 -14.62)"/><path class="cls-3" d="M1195.7,437.68a.56.56,0,0,1,.76,0,.51.51,0,0,1,0,.74.54.54,0,0,1-.76,0A.51.51,0,0,1,1195.7,437.68Z" transform="translate(-20.22 -14.62)"/><path class="cls-3" d="M1117.79,500.11a.54.54,0,0,1,.76,0,.51.51,0,0,1,0,.74.54.54,0,0,1-.76,0A.51.51,0,0,1,1117.79,500.11Z" transform="translate(-20.22 -14.62)"/><path class="cls-3" d="M1131.29,530.36a.28.28,0,0,1,.38,0,.25.25,0,0,1,0,.37.26.26,0,0,1-.38,0A.27.27,0,0,1,1131.29,530.36Z" transform="translate(-20.22 -14.62)"/><ellipse class="cls-4" cx="1111.53" cy="534.34" rx="0.27" ry="0.26"/><path class="cls-3" d="M1121.31,549a.26.26,0,0,1,.38,0,.25.25,0,0,1,0,.37.28.28,0,0,1-.38,0A.27.27,0,0,1,1121.31,549Z" transform="translate(-20.22 -14.62)"/><path class="cls-3" d="M1121,545.58a.28.28,0,0,1,.38,0,.26.26,0,0,1,0,.38.27.27,0,0,1-.38-.38Z" transform="translate(-20.22 -14.62)"/><path class="cls-3" d="M1116.27,504.41a.28.28,0,0,1,.38,0,.27.27,0,0,1,0,.37.26.26,0,0,1-.38,0A.25.25,0,0,1,1116.27,504.41Z" transform="translate(-20.22 -14.62)"/><path class="cls-3" d="M1125.73,526.42a.54.54,0,0,1,.76,0,.51.51,0,0,1,0,.74.56.56,0,0,1-.76,0A.51.51,0,0,1,1125.73,526.42Z" transform="translate(-20.22 -14.62)"/><path class="cls-3" d="M1189.49,478.63a.56.56,0,0,1,.76,0,.53.53,0,0,1,0,.75.56.56,0,0,1-.76,0A.53.53,0,0,1,1189.49,478.63Z" transform="translate(-20.22 -14.62)"/><path class="cls-3" d="M1176.06,526.94a.56.56,0,0,1,.76,0,.51.51,0,0,1,0,.74.54.54,0,0,1-.76,0A.51.51,0,0,1,1176.06,526.94Z" transform="translate(-20.22 -14.62)"/><path class="cls-3" d="M1196.93,474a.54.54,0,0,1,.76,0,.51.51,0,0,1,0,.74.56.56,0,0,1-.76,0A.51.51,0,0,1,1196.93,474Z" transform="translate(-20.22 -14.62)"/><path class="cls-3" d="M1120.32,572.52a.56.56,0,0,1,.76,0,.51.51,0,0,1,0,.74.54.54,0,0,1-.76,0A.51.51,0,0,1,1120.32,572.52Z" transform="translate(-20.22 -14.62)"/><path class="cls-3" d="M1154.61,398.37a2.92,2.92,0,0,1,4,0,2.74,2.74,0,0,1,0,3.95,2.9,2.9,0,0,1-4,0A2.76,2.76,0,0,1,1154.61,398.37Z" transform="translate(-20.22 -14.62)"/><path class="cls-2" d="M1293.94,342.13a2.9,2.9,0,0,1,4,0,2.75,2.75,0,0,1,0,3.94,2.9,2.9,0,0,1-4,0A2.73,2.73,0,0,1,1293.94,342.13Z" transform="translate(-20.22 -14.62)"/><path class="cls-2" d="M1212.47,358a2.9,2.9,0,0,1,4,0,2.75,2.75,0,0,1,0,3.94,2.9,2.9,0,0,1-4,0A2.73,2.73,0,0,1,1212.47,358Z" transform="translate(-20.22 -14.62)"/><path class="cls-3" d="M1118.43,437.63a2.92,2.92,0,0,1,4,0,2.74,2.74,0,0,1,0,3.95,2.9,2.9,0,0,1-4,0A2.76,2.76,0,0,1,1118.43,437.63Z" transform="translate(-20.22 -14.62)"/><path class="cls-3" d="M1127.28,466.62a2.92,2.92,0,0,1,4,0,2.74,2.74,0,0,1,0,3.95,2.9,2.9,0,0,1-4,0A2.76,2.76,0,0,1,1127.28,466.62Z" transform="translate(-20.22 -14.62)"/><ellipse class="cls-4" cx="1117.8" cy="351.36" rx="2.02" ry="1.97"/><path class="cls-3" d="M1249.08,313.46a2.06,2.06,0,0,1,2.86,0,1.94,1.94,0,0,1,0,2.79,2.08,2.08,0,0,1-2.86,0A2,2,0,0,1,1249.08,313.46Z" transform="translate(-20.22 -14.62)"/><path class="cls-3" d="M1232.92,328.78a2,2,0,0,1,2.85,0,1.94,1.94,0,0,1,0,2.79,2,2,0,0,1-2.85,0A1.94,1.94,0,0,1,1232.92,328.78Z" transform="translate(-20.22 -14.62)"/><ellipse class="cls-4" cx="1154.45" cy="428.91" rx="2.02" ry="1.97"/><path class="cls-3" d="M1167.27,469a1.5,1.5,0,0,1,2.1,0,1.43,1.43,0,0,1,0,2.05,1.52,1.52,0,0,1-2.1,0A1.43,1.43,0,0,1,1167.27,469Z" transform="translate(-20.22 -14.62)"/><path class="cls-3" d="M1179.14,497.37a1.52,1.52,0,0,1,2.1,0,1.43,1.43,0,0,1,0,2.05,1.52,1.52,0,0,1-2.1,0A1.43,1.43,0,0,1,1179.14,497.37Z" transform="translate(-20.22 -14.62)"/><ellipse class="cls-4" cx="1103.08" cy="446.75" rx="1.48" ry="1.45"/><ellipse class="cls-4" cx="1124.68" cy="389.79" rx="0.95" ry="0.93"/><path class="cls-3" d="M1177.07,447.19a1,1,0,0,1,1.34,0,.91.91,0,0,1,0,1.31,1,1,0,0,1-1.34,0A.9.9,0,0,1,1177.07,447.19Z" transform="translate(-20.22 -14.62)"/><path class="cls-3" d="M1129.49,459.22a1,1,0,0,1,1.34,0,.92.92,0,0,1,0,1.32,1,1,0,0,1-1.34,0A.91.91,0,0,1,1129.49,459.22Z" transform="translate(-20.22 -14.62)"/><path class="cls-3" d="M1235.69,439a1,1,0,0,1,1.35,0,.91.91,0,0,1,0,1.31,1,1,0,0,1-1.35,0A.91.91,0,0,1,1235.69,439Z" transform="translate(-20.22 -14.62)"/><path class="cls-3" d="M1264.64,432a1,1,0,0,1,1.35,0,.91.91,0,0,1,0,1.31,1,1,0,0,1-1.35,0A.91.91,0,0,1,1264.64,432Z" transform="translate(-20.22 -14.62)"/><ellipse class="cls-4" cx="1172.63" cy="417.14" rx="0.95" ry="0.93"/><path class="cls-3" d="M1317.51,316.05a1,1,0,0,1,1.35,0,.92.92,0,0,1,0,1.32,1,1,0,0,1-1.35,0A.92.92,0,0,1,1317.51,316.05Z" transform="translate(-20.22 -14.62)"/><path class="cls-3" d="M1179.52,426.63a1,1,0,0,1,1.34,0,.91.91,0,0,1,0,1.31,1,1,0,0,1-1.34,0A.91.91,0,0,1,1179.52,426.63Z" transform="translate(-20.22 -14.62)"/><ellipse class="cls-4" cx="1146.39" cy="420.39" rx="0.48" ry="0.46"/><ellipse class="cls-4" cx="1183.54" cy="465.92" rx="0.48" ry="0.46"/><path class="cls-3" d="M1203.91,512.83a.48.48,0,0,1,.67,0,.45.45,0,0,1,0,.66.48.48,0,0,1-.67,0A.45.45,0,0,1,1203.91,512.83Z" transform="translate(-20.22 -14.62)"/><path class="cls-3" d="M1185.75,513.3a.48.48,0,0,1,.68,0,.46.46,0,0,1,0,.65.5.5,0,0,1-.68,0A.46.46,0,0,1,1185.75,513.3Z" transform="translate(-20.22 -14.62)"/><path class="cls-3" d="M1185.28,507.18a.48.48,0,0,1,.67,0,.45.45,0,0,1,0,.66.48.48,0,0,1-.67,0A.45.45,0,0,1,1185.28,507.18Z" transform="translate(-20.22 -14.62)"/><path class="cls-3" d="M1126.11,465.07a.48.48,0,0,1,.67,0,.45.45,0,0,1,0,.66.48.48,0,0,1-.67,0A.45.45,0,0,1,1126.11,465.07Z" transform="translate(-20.22 -14.62)"/><path class="cls-3" d="M1176.82,434.25a.48.48,0,0,1,.67,0,.45.45,0,0,1,0,.66.48.48,0,0,1-.67,0A.45.45,0,0,1,1176.82,434.25Z" transform="translate(-20.22 -14.62)"/><path class="cls-3" d="M1123,458.16a.46.46,0,0,1,.67,0,.44.44,0,0,1,0,.65.48.48,0,0,1-.67,0A.44.44,0,0,1,1123,458.16Z" transform="translate(-20.22 -14.62)"/><ellipse class="cls-4" cx="1143.8" cy="428.44" rx="0.95" ry="0.93"/><path class="cls-3" d="M1117.87,458.29a1,1,0,0,1,1.35,0,.92.92,0,0,1,0,1.32,1,1,0,0,1-1.35,0A.92.92,0,0,1,1117.87,458.29Z" transform="translate(-20.22 -14.62)"/><path class="cls-3" d="M1193.58,473.23a1,1,0,0,1,1.34,0,.91.91,0,0,1,0,1.31,1,1,0,0,1-1.34,0A.9.9,0,0,1,1193.58,473.23Z" transform="translate(-20.22 -14.62)"/><path class="cls-3" d="M1306.52,388.59a1,1,0,0,1,1.35,0,.92.92,0,0,1,0,1.32,1,1,0,0,1-1.35,0A.92.92,0,0,1,1306.52,388.59Z" transform="translate(-20.22 -14.62)"/><path class="cls-3" d="M1282.72,474.16a1,1,0,0,1,1.34,0,.91.91,0,0,1,0,1.31,1,1,0,0,1-1.34,0A.91.91,0,0,1,1282.72,474.16Z" transform="translate(-20.22 -14.62)"/><ellipse class="cls-4" cx="1133.55" cy="492.42" rx="0.95" ry="0.93"/><ellipse class="cls-4" cx="1300.14" cy="366.33" rx="0.95" ry="0.93"/><path class="cls-3" d="M1170.56,513a1,1,0,0,1,1.34,0,.9.9,0,0,1,0,1.31,1,1,0,0,1-1.34,0A.91.91,0,0,1,1170.56,513Z" transform="translate(-20.22 -14.62)"/><ellipse class="cls-4" cx="1164.44" cy="540.93" rx="0.95" ry="0.93"/><path class="cls-3" d="M431.32,666.53a.56.56,0,0,1,.76,0,.51.51,0,0,1,0,.74.54.54,0,0,1-.76,0A.51.51,0,0,1,431.32,666.53Z" transform="translate(-20.22 -14.62)"/><ellipse class="cls-4" cx="451.75" cy="655.55" rx="1.61" ry="1.57"/><path class="cls-3" d="M493.41,670.41a.86.86,0,0,1,1.19,0,.82.82,0,0,1,0,1.16.86.86,0,0,1-1.19,0A.8.8,0,0,1,493.41,670.41Z" transform="translate(-20.22 -14.62)"/><path class="cls-3" d="M500.11,686.42a.86.86,0,0,1,1.19,0,.79.79,0,0,1,0,1.15.86.86,0,0,1-1.19,0A.81.81,0,0,1,500.11,686.42Z" transform="translate(-20.22 -14.62)"/><ellipse class="cls-4" cx="448.37" cy="651.47" rx="0.84" ry="0.82"/><path class="cls-3" d="M419.38,695.54a.86.86,0,0,1,1.19,0,.79.79,0,0,1,0,1.15.86.86,0,0,1-1.19,0A.81.81,0,0,1,419.38,695.54Z" transform="translate(-20.22 -14.62)"/><path class="cls-3" d="M472.08,664.88a.54.54,0,0,1,.76,0,.51.51,0,0,1,0,.74.54.54,0,0,1-.76,0A.51.51,0,0,1,472.08,664.88Z" transform="translate(-20.22 -14.62)"/><path class="cls-3" d="M513.83,676.73a.28.28,0,0,1,.38,0,.27.27,0,0,1,0,.37.26.26,0,0,1-.38,0A.25.25,0,0,1,513.83,676.73Z" transform="translate(-20.22 -14.62)"/><path class="cls-3" d="M514.1,695.14a.27.27,0,1,1,0,.38A.26.26,0,0,1,514.1,695.14Z" transform="translate(-20.22 -14.62)"/><path class="cls-3" d="M503.85,695.41a.26.26,0,0,1,.38,0,.27.27,0,0,1,0,.37.28.28,0,0,1-.38,0A.25.25,0,0,1,503.85,695.41Z" transform="translate(-20.22 -14.62)"/><path class="cls-3" d="M503.58,692a.27.27,0,1,1,0,.38A.26.26,0,0,1,503.58,692Z" transform="translate(-20.22 -14.62)"/><path class="cls-3" d="M470.17,668.18a.28.28,0,0,1,.38,0,.25.25,0,0,1,0,.37.28.28,0,0,1-.38,0A.27.27,0,0,1,470.17,668.18Z" transform="translate(-20.22 -14.62)"/><path class="cls-3" d="M468.4,664.28a.26.26,0,0,1,.38,0,.25.25,0,0,1,0,.37.28.28,0,0,1-.38,0A.27.27,0,0,1,468.4,664.28Z" transform="translate(-20.22 -14.62)"/><path class="cls-3" d="M458.4,663.83a.54.54,0,0,1,.76,0,.51.51,0,0,1,0,.74.54.54,0,0,1-.76,0A.51.51,0,0,1,458.4,663.83Z" transform="translate(-20.22 -14.62)"/><path class="cls-3" d="M465.52,664.35a.56.56,0,0,1,.76,0,.53.53,0,0,1,0,.75.56.56,0,0,1-.76,0A.53.53,0,0,1,465.52,664.35Z" transform="translate(-20.22 -14.62)"/><path class="cls-3" d="M508.26,672.79a.54.54,0,0,1,.76,0,.51.51,0,0,1,0,.74.56.56,0,0,1-.76,0A.51.51,0,0,1,508.26,672.79Z" transform="translate(-20.22 -14.62)"/><path class="cls-3" d="M558.59,673.31a.56.56,0,0,1,.76,0,.51.51,0,0,1,0,.74.54.54,0,0,1-.76,0A.51.51,0,0,1,558.59,673.31Z" transform="translate(-20.22 -14.62)"/><path class="cls-3" d="M485.41,691.51a.54.54,0,0,1,.76,0,.51.51,0,0,1,0,.74.56.56,0,0,1-.76,0A.51.51,0,0,1,485.41,691.51Z" transform="translate(-20.22 -14.62)"/><path class="cls-3" d="M495.27,695.22a.56.56,0,0,1,.76,0,.51.51,0,0,1,0,.74.54.54,0,0,1-.76,0A.51.51,0,0,1,495.27,695.22Z" transform="translate(-20.22 -14.62)"/><ellipse class="cls-4" cx="483.01" cy="704.64" rx="0.54" ry="0.52"/><ellipse class="cls-4" cx="453.93" cy="664.27" rx="0.54" ry="0.52"/><path class="cls-3" d="M171.82,663.4a1,1,0,0,1,1.35,0,.91.91,0,0,1,0,1.31,1,1,0,0,1-1.35,0A.91.91,0,0,1,171.82,663.4Z" transform="translate(-20.22 -14.62)"/><path class="cls-3" d="M189.9,705.51a1,1,0,0,1,1.34,0,.91.91,0,0,1,0,1.32,1,1,0,0,1-1.34,0A.92.92,0,0,1,189.9,705.51Z" transform="translate(-20.22 -14.62)"/><path class="cls-3" d="M697.51,750.79a1,1,0,1,1-1-.93A.94.94,0,0,1,697.51,750.79Z" transform="translate(-20.22 -14.62)"/><path class="cls-2" d="M637.7,734.29a2.9,2.9,0,0,1-4,.34,2.73,2.73,0,0,1-.35-3.92,2.9,2.9,0,0,1,4-.34A2.73,2.73,0,0,1,637.7,734.29Z" transform="translate(-20.22 -14.62)"/><path class="cls-3" d="M658.64,766.43a2.06,2.06,0,0,1-2.85.24,1.94,1.94,0,0,1-.24-2.78,2.05,2.05,0,0,1,2.84-.24A1.94,1.94,0,0,1,658.64,766.43Z" transform="translate(-20.22 -14.62)"/><path class="cls-3" d="M647.56,728.05a1,1,0,0,1-1.34.12.92.92,0,0,1-.11-1.31,1,1,0,0,1,1.34-.11A.9.9,0,0,1,647.56,728.05Z" transform="translate(-20.22 -14.62)"/><path class="cls-3" d="M687.54,739.94a.47.47,0,0,1,.51.43.46.46,0,0,1-.43.5.47.47,0,1,1-.08-.93Z" transform="translate(-20.22 -14.62)"/><path class="cls-3" d="M681,720.36a1,1,0,0,1,1,.85.93.93,0,0,1-.87,1,.93.93,0,1,1-.16-1.85Z" transform="translate(-20.22 -14.62)"/><path class="cls-3" d="M609.38,722.16a.46.46,0,0,1-.62.17.45.45,0,0,1-.17-.61.47.47,0,0,1,.63-.17A.44.44,0,0,1,609.38,722.16Z" transform="translate(-20.22 -14.62)"/><path class="cls-2" d="M587.25,771.49a2.89,2.89,0,0,1-3.9,1,2.74,2.74,0,0,1-1-3.8,2.88,2.88,0,0,1,3.9-1A2.74,2.74,0,0,1,587.25,771.49Z" transform="translate(-20.22 -14.62)"/><path class="cls-3" d="M610,727.51a2.9,2.9,0,0,1-3.9,1,2.75,2.75,0,0,1-1-3.81,2.89,2.89,0,0,1,3.9-1A2.75,2.75,0,0,1,610,727.51Z" transform="translate(-20.22 -14.62)"/><path class="cls-3" d="M559.08,755.62a2,2,0,0,1-2.76.73,2,2,0,0,1-.74-2.7,2.05,2.05,0,0,1,2.76-.72A1.94,1.94,0,0,1,559.08,755.62Z" transform="translate(-20.22 -14.62)"/><path class="cls-3" d="M634.63,786.84a1.5,1.5,0,0,1-2,.53,1.43,1.43,0,0,1-.55-2,1.51,1.51,0,0,1,2-.53A1.43,1.43,0,0,1,634.63,786.84Z" transform="translate(-20.22 -14.62)"/><path class="cls-3" d="M620.91,831.53a.48.48,0,0,1-.65.17.46.46,0,0,1-.17-.63.48.48,0,0,1,.65-.18A.46.46,0,0,1,620.91,831.53Z" transform="translate(-20.22 -14.62)"/><path class="cls-3" d="M530.75,773.18a.49.49,0,0,1-.65.17.46.46,0,0,1-.17-.64.48.48,0,0,1,.65-.17A.47.47,0,0,1,530.75,773.18Z" transform="translate(-20.22 -14.62)"/><path class="cls-3" d="M611.94,823.26a.48.48,0,0,1-.65.17.47.47,0,0,1-.17-.64.48.48,0,0,1,.65-.17A.46.46,0,0,1,611.94,823.26Z" transform="translate(-20.22 -14.62)"/><path class="cls-3" d="M522.41,786.36a.49.49,0,0,1-.65.17.47.47,0,0,1-.18-.64.49.49,0,0,1,.65-.17A.46.46,0,0,1,522.41,786.36Z" transform="translate(-20.22 -14.62)"/><path class="cls-3" d="M546.94,734.19a1,1,0,0,1-1.3.34.92.92,0,0,1-.35-1.27,1,1,0,0,1,1.3-.34A.92.92,0,0,1,546.94,734.19Z" transform="translate(-20.22 -14.62)"/><path class="cls-3" d="M543.2,731a1,1,0,0,1-1.3.34.92.92,0,0,1-.35-1.27,1,1,0,0,1,1.3-.34A.93.93,0,0,1,543.2,731Z" transform="translate(-20.22 -14.62)"/><path class="cls-3" d="M546.28,770.55a2,2,0,0,1,2.47,1.39,2,2,0,0,1-1.43,2.42,2,2,0,0,1-2.47-1.4A2,2,0,0,1,546.28,770.55Z" transform="translate(-20.22 -14.62)"/><path class="cls-3" d="M560.06,720.39a.92.92,0,0,1-1.17-.53.88.88,0,0,1,.55-1.14.92.92,0,0,1,1.17.53A.88.88,0,0,1,560.06,720.39Z" transform="translate(-20.22 -14.62)"/><path class="cls-3" d="M528.72,743a2,2,0,0,1-2.59-1.18,2,2,0,0,1,1.21-2.53,2,2,0,0,1,2.59,1.18A2,2,0,0,1,528.72,743Z" transform="translate(-20.22 -14.62)"/><path class="cls-3" d="M543.49,731a2,2,0,0,1,1,2.62,2,2,0,0,1-2.68,1,2,2,0,0,1-1-2.62A2.05,2.05,0,0,1,543.49,731Z" transform="translate(-20.22 -14.62)"/><path class="cls-3" d="M548.29,722a.46.46,0,0,1,.23.62.48.48,0,0,1-.63.22.46.46,0,0,1-.23-.62A.48.48,0,0,1,548.29,722Z" transform="translate(-20.22 -14.62)"/><path class="cls-3" d="M552.3,731.54a.46.46,0,0,1,.23.62.49.49,0,0,1-.63.23.46.46,0,0,1-.23-.62A.49.49,0,0,1,552.3,731.54Z" transform="translate(-20.22 -14.62)"/><path class="cls-3" d="M539.85,722a.91.91,0,0,1,.46,1.23,1,1,0,0,1-1.26.45.92.92,0,0,1-.46-1.24A1,1,0,0,1,539.85,722Z" transform="translate(-20.22 -14.62)"/><path class="cls-3" d="M566.52,701.26a1,1,0,0,1,1.35,0,.92.92,0,0,1,0,1.32,1,1,0,0,1-1.35,0A.92.92,0,0,1,566.52,701.26Z" transform="translate(-20.22 -14.62)"/><ellipse class="cls-4" cx="625.88" cy="695.38" rx="0.84" ry="0.82"/><path class="cls-3" d="M644.34,681.09a.54.54,0,0,1,.76,0,.51.51,0,0,1,0,.74.56.56,0,0,1-.76,0A.51.51,0,0,1,644.34,681.09Z" transform="translate(-20.22 -14.62)"/><path class="cls-3" d="M677.44,676.44a.54.54,0,0,1,.76,0,.51.51,0,0,1,0,.74.56.56,0,0,1-.76,0A.51.51,0,0,1,677.44,676.44Z" transform="translate(-20.22 -14.62)"/><path class="cls-3" d="M693.79,672.54a.54.54,0,0,1,.76,0,.51.51,0,0,1,0,.74.56.56,0,0,1-.76,0A.51.51,0,0,1,693.79,672.54Z" transform="translate(-20.22 -14.62)"/><ellipse class="cls-4" cx="633.03" cy="657.76" rx="0.54" ry="0.52"/><path class="cls-3" d="M645.73,669.48a.56.56,0,0,1,.76,0,.51.51,0,0,1,0,.74.54.54,0,0,1-.76,0A.51.51,0,0,1,645.73,669.48Z" transform="translate(-20.22 -14.62)"/><ellipse class="cls-4" cx="639.19" cy="685.3" rx="0.27" ry="0.26"/><path class="cls-3" d="M659.5,718.15a.28.28,0,0,1,.38,0,.27.27,0,0,1,0,.37.28.28,0,0,1-.38,0A.25.25,0,0,1,659.5,718.15Z" transform="translate(-20.22 -14.62)"/><path class="cls-3" d="M649.25,718.41a.28.28,0,0,1,.38,0,.27.27,0,0,1,0,.37.28.28,0,0,1-.38,0A.25.25,0,0,1,649.25,718.41Z" transform="translate(-20.22 -14.62)"/><path class="cls-3" d="M649,715a.28.28,0,0,1,.38,0,.27.27,0,0,1,0,.37.28.28,0,0,1-.38,0A.25.25,0,0,1,649,715Z" transform="translate(-20.22 -14.62)"/><path class="cls-3" d="M644.2,673.79a.26.26,0,0,1,.38,0,.25.25,0,0,1,0,.37.28.28,0,0,1-.38,0A.27.27,0,0,1,644.2,673.79Z" transform="translate(-20.22 -14.62)"/><ellipse class="cls-4" cx="633.82" cy="681.54" rx="0.54" ry="0.52"/><path class="cls-3" d="M704,696.32a.54.54,0,0,1,.76,0,.51.51,0,0,1,0,.74.56.56,0,0,1-.76,0A.51.51,0,0,1,704,696.32Z" transform="translate(-20.22 -14.62)"/><path class="cls-3" d="M648.25,741.9a.54.54,0,0,1,.76,0,.51.51,0,0,1,0,.74.56.56,0,0,1-.76,0A.51.51,0,0,1,648.25,741.9Z" transform="translate(-20.22 -14.62)"/><path class="cls-3" d="M707.07,666.75a1.5,1.5,0,0,1,2.1,0,1.41,1.41,0,0,1,0,2,1.5,1.5,0,0,1-2.1,0A1.43,1.43,0,0,1,707.07,666.75Z" transform="translate(-20.22 -14.62)"/><path class="cls-3" d="M731.84,682.21a.46.46,0,0,1,.67,0,.44.44,0,0,1,0,.65.48.48,0,0,1-.67,0A.46.46,0,0,1,731.84,682.21Z" transform="translate(-20.22 -14.62)"/><path class="cls-3" d="M713.69,682.67a.48.48,0,0,1,.67,0,.45.45,0,0,1,0,.66.48.48,0,0,1-.67,0A.45.45,0,0,1,713.69,682.67Z" transform="translate(-20.22 -14.62)"/><path class="cls-3" d="M713.21,676.55a.48.48,0,0,1,.67,0,.45.45,0,0,1,0,.66.48.48,0,0,1-.67,0A.47.47,0,0,1,713.21,676.55Z" transform="translate(-20.22 -14.62)"/><path class="cls-3" d="M681,675.76a1,1,0,0,1,1.34,0,.92.92,0,0,1,0,1.32,1,1,0,0,1-1.34,0A.91.91,0,0,1,681,675.76Z" transform="translate(-20.22 -14.62)"/><path class="cls-3" d="M698.49,682.34a1,1,0,0,1,1.35,0,.92.92,0,0,1,0,1.32,1,1,0,0,1-1.35,0A.92.92,0,0,1,698.49,682.34Z" transform="translate(-20.22 -14.62)"/><path class="cls-3" d="M711.92,724.27a1,1,0,0,1,1.35,0,.91.91,0,0,1,0,1.31,1,1,0,0,1-1.35,0A.91.91,0,0,1,711.92,724.27Z" transform="translate(-20.22 -14.62)"/><ellipse class="cls-4" cx="1112.94" cy="469.42" rx="0.95" ry="0.93"/></g></svg>