<svg xmlns="http://www.w3.org/2000/svg" xmlns:xlink="http://www.w3.org/1999/xlink" viewBox="0 0 474.86 340.13"><defs><style>.cls-1{isolation:isolate;}.cls-10,.cls-11,.cls-12,.cls-13,.cls-14,.cls-15,.cls-16,.cls-17,.cls-18,.cls-19,.cls-2,.cls-20,.cls-21,.cls-22,.cls-3,.cls-4,.cls-5,.cls-6,.cls-7,.cls-8,.cls-9{fill-rule:evenodd;}.cls-2{fill:url(#_ÂÁ_Ï_ÌÌ_È_ËÂÌÚ_274);}.cls-10,.cls-11,.cls-12,.cls-13,.cls-14,.cls-15,.cls-16,.cls-19,.cls-20,.cls-22,.cls-3,.cls-4,.cls-5,.cls-6,.cls-7,.cls-8,.cls-9{mix-blend-mode:multiply;}.cls-10,.cls-11,.cls-12,.cls-13,.cls-14,.cls-15,.cls-16,.cls-18,.cls-19,.cls-20,.cls-22,.cls-3,.cls-4,.cls-5,.cls-6,.cls-8,.cls-9{opacity:0.5;}.cls-3{fill:url(#_ÂÁ_Ï_ÌÌ_È_ËÂÌÚ_296);}.cls-4{fill:url(#_ÂÁ_Ï_ÌÌ_È_ËÂÌÚ_296-2);}.cls-5{fill:url(#_ÂÁ_Ï_ÌÌ_È_ËÂÌÚ_296-3);}.cls-6{fill:url(#_ÂÁ_Ï_ÌÌ_È_ËÂÌÚ_296-4);}.cls-7{opacity:0.2;fill:url(#_ÂÁ_Ï_ÌÌ_È_ËÂÌÚ_296-5);}.cls-8{fill:url(#_ÂÁ_Ï_ÌÌ_È_ËÂÌÚ_296-6);}.cls-9{fill:url(#_ÂÁ_Ï_ÌÌ_È_ËÂÌÚ_296-7);}.cls-10{fill:url(#_ÂÁ_Ï_ÌÌ_È_ËÂÌÚ_296-8);}.cls-11{fill:url(#_ÂÁ_Ï_ÌÌ_È_ËÂÌÚ_296-9);}.cls-12{fill:url(#_ÂÁ_Ï_ÌÌ_È_ËÂÌÚ_296-10);}.cls-13{fill:url(#_ÂÁ_Ï_ÌÌ_È_ËÂÌÚ_296-11);}.cls-14{fill:url(#_ÂÁ_Ï_ÌÌ_È_ËÂÌÚ_296-12);}.cls-15{fill:url(#_ÂÁ_Ï_ÌÌ_È_ËÂÌÚ_296-13);}.cls-16{fill:url(#_ÂÁ_Ï_ÌÌ_È_ËÂÌÚ_296-15);}.cls-17{fill:#93839c;mix-blend-mode:soft-light;}.cls-18{fill:#5955b1;}.cls-19{fill:url(#_ÂÁ_Ï_ÌÌ_È_ËÂÌÚ_296-16);}.cls-20{fill:url(#_ÂÁ_Ï_ÌÌ_È_ËÂÌÚ_296-17);}.cls-21{fill:#503e7f;}.cls-22{fill:url(#_ÂÁ_Ï_ÌÌ_È_ËÂÌÚ_296-18);}</style><linearGradient id="_ÂÁ_Ï_ÌÌ_È_ËÂÌÚ_274" x1="256.58" y1="716.78" x2="256.58" y2="376.64" gradientUnits="userSpaceOnUse"><stop offset="0" stop-color="#0f1659"/><stop offset="1" stop-color="#572c78"/></linearGradient><linearGradient id="_ÂÁ_Ï_ÌÌ_È_ËÂÌÚ_296" x1="140.67" y1="38.86" x2="474.86" y2="38.86" gradientUnits="userSpaceOnUse"><stop offset="0" stop-color="#745ebd"/><stop offset="1" stop-color="#542e77"/></linearGradient><linearGradient id="_ÂÁ_Ï_ÌÌ_È_ËÂÌÚ_296-2" x1="46.3" y1="98.92" x2="160.92" y2="98.92" xlink:href="#_ÂÁ_Ï_ÌÌ_È_ËÂÌÚ_296"/><linearGradient id="_ÂÁ_Ï_ÌÌ_È_ËÂÌÚ_296-3" x1="177.06" y1="305.44" x2="259.3" y2="305.44" xlink:href="#_ÂÁ_Ï_ÌÌ_È_ËÂÌÚ_296"/><linearGradient id="_ÂÁ_Ï_ÌÌ_È_ËÂÌÚ_296-4" x1="19.15" y1="516.57" x2="494.01" y2="516.57" xlink:href="#_ÂÁ_Ï_ÌÌ_È_ËÂÌÚ_296"/><linearGradient id="_ÂÁ_Ï_ÌÌ_È_ËÂÌÚ_296-5" x1="276.37" y1="55.08" x2="436.18" y2="55.08" xlink:href="#_ÂÁ_Ï_ÌÌ_È_ËÂÌÚ_296"/><linearGradient id="_ÂÁ_Ï_ÌÌ_È_ËÂÌÚ_296-6" x1="200.34" y1="528.51" x2="494.01" y2="528.51" xlink:href="#_ÂÁ_Ï_ÌÌ_È_ËÂÌÚ_296"/><linearGradient id="_ÂÁ_Ï_ÌÌ_È_ËÂÌÚ_296-7" x1="264.02" y1="206.15" x2="293.38" y2="206.15" xlink:href="#_ÂÁ_Ï_ÌÌ_È_ËÂÌÚ_296"/><linearGradient id="_ÂÁ_Ï_ÌÌ_È_ËÂÌÚ_296-8" x1="259.3" y1="250.74" x2="303.39" y2="250.74" xlink:href="#_ÂÁ_Ï_ÌÌ_È_ËÂÌÚ_296"/><linearGradient id="_ÂÁ_Ï_ÌÌ_È_ËÂÌÚ_296-9" x1="197.38" y1="305.44" x2="259.3" y2="305.44" xlink:href="#_ÂÁ_Ï_ÌÌ_È_ËÂÌÚ_296"/><linearGradient id="_ÂÁ_Ï_ÌÌ_È_ËÂÌÚ_296-10" x1="240.73" y1="48.07" x2="333.64" y2="48.07" xlink:href="#_ÂÁ_Ï_ÌÌ_È_ËÂÌÚ_296"/><linearGradient id="_ÂÁ_Ï_ÌÌ_È_ËÂÌÚ_296-11" x1="166.59" y1="105.76" x2="320.11" y2="105.76" xlink:href="#_ÂÁ_Ï_ÌÌ_È_ËÂÌÚ_296"/><linearGradient id="_ÂÁ_Ï_ÌÌ_È_ËÂÌÚ_296-12" x1="280.23" y1="156.87" x2="422.6" y2="156.87" xlink:href="#_ÂÁ_Ï_ÌÌ_È_ËÂÌÚ_296"/><linearGradient id="_ÂÁ_Ï_ÌÌ_È_ËÂÌÚ_296-13" x1="181.19" y1="185.97" x2="278.41" y2="185.97" xlink:href="#_ÂÁ_Ï_ÌÌ_È_ËÂÌÚ_296"/><linearGradient id="_ÂÁ_Ï_ÌÌ_È_ËÂÌÚ_296-15" x1="187.65" y1="216.49" x2="474.86" y2="216.49" xlink:href="#_ÂÁ_Ï_ÌÌ_È_ËÂÌÚ_296"/><linearGradient id="_ÂÁ_Ï_ÌÌ_È_ËÂÌÚ_296-16" x1="85.99" y1="118.05" x2="160.92" y2="118.05" xlink:href="#_ÂÁ_Ï_ÌÌ_È_ËÂÌÚ_296"/><linearGradient id="_ÂÁ_Ï_ÌÌ_È_ËÂÌÚ_296-17" x1="20.6" y1="41.05" x2="46.3" y2="41.05" xlink:href="#_ÂÁ_Ï_ÌÌ_È_ËÂÌÚ_296"/><linearGradient id="_ÂÁ_Ï_ÌÌ_È_ËÂÌÚ_296-18" x1="160.92" y1="117.06" x2="202.75" y2="117.06" xlink:href="#_ÂÁ_Ï_ÌÌ_È_ËÂÌÚ_296"/></defs><g class="cls-1"><g id="Layer_1" data-name="Layer 1"><path class="cls-2" d="M443,442.19l-4.45,9.2L494,481.64v5.64a200.39,200.39,0,0,1-52.26,31.43L428,521.1l-40.9,29.36,10.52,5-75.34,46.27,3.65,2.36-3.36,3.24-31.47,30.29-12.62,9.74-9.67,7.45-12.2,51.92-40,10-18.09-7.25-7.63.35,5.4-6.69,3.76-4.68,7.25-49.28,6.87-4.75-27.53-65.85,13.78-15.12s-33.23-23.73-37.28-28.78c-3-3.81-11.18-12.33-15-16.29h0l-2-2.1L173,503.58l14.39-6.81-7.29-10.68-9.72,5.64-36.85,6.82-11.76,4.75L105.14,500l-39.69-52.2,2.19-8.53.63-2.45-2.82-10.68H52.88S34.66,421.35,28,410.9l-8.82-29.36s51-4.9,62.9-4.9,79,5.79,79,5.79l-1.22-5.79s71.09,4.45,99.65,7.57,88.71,10.67,88.71,10.67,109-.14,145.83,7.26v3.56Z" transform="translate(-19.15 -376.64)"/><polygon class="cls-3" points="474.86 29.07 393.44 36.19 318.5 41.82 263.01 50.18 241.54 50.18 186.04 22.84 148.37 9.2 140.67 0 147.97 17.8 240.73 52.8 276.37 55.47 317.69 52.8 342.5 60.21 372.38 71.78 413.29 77.71 419.36 74.75 423.82 65.55 474.86 29.07"/><polygon class="cls-4" points="148.38 113.31 160.92 109.45 151.2 115.09 114.35 121.91 102.59 126.66 85.99 123.38 46.3 71.19 70.19 94.02 94.08 100.25 148.38 113.31"/><polygon class="cls-5" points="259.3 270.76 249.63 278.21 237.43 330.13 197.38 340.13 179.29 332.88 177.06 326.55 180.82 321.87 188.07 272.59 204.33 282.07 213.17 282.07 259.3 270.76"/><path class="cls-6" d="M494,487.28a200.39,200.39,0,0,1-52.26,31.43L428,521.1l-40.9,29.36-30.79-4.31-56.9,4.19L319,553.13h46.59l32,2.37-75.34,46.27-14.58-.89-16.19,9.2-26.73,7.12,38.06-3.28,19.73-6.55-31.47,30.29-12.62,9.74-15.33,1.83-33.23,2.37-15.8-7.12-27.53-65.85,8.5,5.93,57.73-5.34,37.86-12.46,21.88-11.26h-15l-15.8,2.67-46.59,8.59-28.37,3-6.46-6.22s-33.23-23.73-37.28-28.78c-3-3.81-11.18-12.33-15-16.29l24.7,4.13,8.12,3.12,42.53-2.23,81-15.64-47.85-4.24-43.29,2.09-34-2.09H173l14.39-6.81-7.29-10.68-9.31-5.93L104.34,463,67.64,439.3l.63-2.45-2.82-10.68H52.88S34.66,421.35,28,410.9l-8.82-29.36L28.58,395l40.71,23.43,113.62,38,45.38,8.9,111,4.17,63.19,27.58h32.43Z" transform="translate(-19.15 -376.64)"/><polygon class="cls-7" points="423.82 65.55 379.26 58.73 350.91 50.18 361.84 41.82 412.48 38.85 436.19 32.45 350.91 39.38 318.5 41.82 276.37 55.47 317.69 52.8 368.32 71.19 413.29 77.71 419.36 74.75 423.82 65.55"/><path class="cls-8" d="M402.45,497.07l-22.27,27.28-53.26,18.91-31.4,1.86,8.91-37.3L226.07,523l-3.87,34.92-10.93,8.3-10.93-2.66,6.46,6.22,28.37-3,62.39-11.26,1.82-5.16,56.9-4.19,30.79,4.31L428,521.1l13.78-2.39s36.06-16.29,52.26-31.43l-59.13,9.79Z" transform="translate(-19.15 -376.64)"/><polygon class="cls-9" points="293.38 178.85 288.52 224.24 272.33 233.44 264.02 204.21 271.5 190.12 293.38 178.85"/><polygon class="cls-10" points="283.66 237.28 259.3 270.76 274.81 258.24 303.39 230.73 283.66 237.28"/><polygon class="cls-11" points="213.17 282.07 197.38 340.13 237.43 330.13 249.63 278.21 259.3 270.76 213.17 282.07"/><polygon class="cls-12" points="317.69 52.8 333.64 40.68 318.5 41.82 263.01 50.18 241.54 50.18 240.73 52.8 276.37 55.47 317.69 52.8"/><polygon class="cls-13" points="320.11 92.84 285.29 131.18 237.43 126.94 228.37 94.13 207.06 92.84 166.59 80.34 209.14 88.68 320.11 92.84"/><polygon class="cls-14" points="361.03 147.71 403.81 139.93 422.61 142.07 408.82 144.45 367.92 173.82 337.13 169.51 280.23 173.69 307.77 166.62 361.03 147.71"/><polygon class="cls-15" points="203.06 181.23 254.21 178.85 278.41 178.85 218.65 189.64 187.65 193.09 181.19 186.86 192.12 189.53 203.06 181.23"/><polygon class="cls-10" points="283.66 237.28 259.3 270.76 303.39 230.73 283.66 237.28"/><polygon class="cls-16" points="197.38 340.13 213.17 282.07 230.71 273.53 245.6 240.56 233.64 202.58 271.5 190.12 293.38 178.85 278.41 178.85 187.65 193.09 203.06 181.23 206.92 146.31 285.29 131.18 237.43 126.94 228.37 94.13 320.11 92.84 383.3 120.43 415.73 120.43 474.86 110.64 422.61 142.07 408.82 144.45 367.92 173.82 337.13 169.51 303.39 171.99 324.02 176.49 378.44 178.85 303.1 225.13 288.52 224.24 269.17 234.04 259.3 239.38 283.66 237.28 303.39 230.73 259.3 270.76 249.63 278.21 237.43 330.13 197.38 340.13"/><polygon class="cls-17" points="130.9 148.34 206.92 156.87 281.35 151.87 333.64 135.78 374.53 131.18 455.51 124.67 440.54 133.78 391.12 139.93 363.54 144.64 343.97 144.64 279.6 155.36 204.28 170.15 160.92 172.01 130.9 148.34"/><polygon class="cls-17" points="170.14 178.85 203.49 177.26 277.33 162.17 335.23 156.87 403.41 148.34 397.47 151.87 340.35 156.87 331.26 158.28 276.37 165.16 203.06 181.23 184.62 181.23 175.75 182.94 170.14 178.85"/><polygon class="cls-17" points="177.06 225.06 234.26 228.06 271.44 221.42 293.38 204.12 337.3 204.12 317.81 216.09 291.84 214.45 271.21 226.24 243.35 233.43 180.56 233.43 177.06 225.06"/><polygon class="cls-17" points="191.49 259.58 233.11 268.2 264.02 264.27 271.66 261.96 266.88 264.91 262.31 266.69 231.58 270.76 192.64 262.32 191.49 259.58"/><polygon class="cls-18" points="140.67 0 148.37 9.2 186.04 22.84 241.54 50.18 263.01 50.18 320.11 41.7 333.64 40.68 329.03 18.24 194.68 3.69 140.67 0"/><polygon class="cls-19" points="148.38 113.31 101.65 118.52 85.99 123.38 102.59 126.66 114.35 121.91 151.2 115.09 160.92 109.45 148.38 113.31"/><polygon class="cls-20" points="46.3 49.53 46.3 40.68 34.06 32.56 31.5 46.65 20.6 44.21 33.73 49.53 46.3 49.53"/><polygon class="cls-21" points="75.15 50.18 160.92 69.05 213.86 74.36 249.42 90.19 209.14 88.68 160.92 80.34 75.15 50.18"/><polygon class="cls-22" points="168.21 120.13 202.75 124.67 160.92 109.45 168.21 120.13"/></g></g></svg>