<svg xmlns="http://www.w3.org/2000/svg" xmlns:xlink="http://www.w3.org/1999/xlink" viewBox="0 0 290.73 381"><defs><style>.cls-1{isolation:isolate;}.cls-10,.cls-100,.cls-101,.cls-102,.cls-103,.cls-104,.cls-106,.cls-107,.cls-11,.cls-12,.cls-13,.cls-14,.cls-15,.cls-16,.cls-17,.cls-18,.cls-19,.cls-2,.cls-20,.cls-21,.cls-22,.cls-23,.cls-24,.cls-25,.cls-26,.cls-27,.cls-28,.cls-29,.cls-3,.cls-30,.cls-31,.cls-32,.cls-33,.cls-34,.cls-35,.cls-36,.cls-37,.cls-38,.cls-39,.cls-4,.cls-40,.cls-41,.cls-42,.cls-43,.cls-44,.cls-45,.cls-46,.cls-47,.cls-48,.cls-49,.cls-5,.cls-50,.cls-51,.cls-52,.cls-53,.cls-54,.cls-55,.cls-56,.cls-57,.cls-58,.cls-59,.cls-6,.cls-60,.cls-61,.cls-62,.cls-63,.cls-64,.cls-65,.cls-66,.cls-67,.cls-68,.cls-69,.cls-7,.cls-70,.cls-71,.cls-72,.cls-73,.cls-74,.cls-75,.cls-76,.cls-77,.cls-78,.cls-79,.cls-8,.cls-80,.cls-81,.cls-82,.cls-83,.cls-84,.cls-85,.cls-86,.cls-87,.cls-88,.cls-89,.cls-9,.cls-90,.cls-91,.cls-92,.cls-93,.cls-94,.cls-95,.cls-96,.cls-97,.cls-98,.cls-99{fill-rule:evenodd;}.cls-2{fill:url(#_ÂÁ_Ï_ÌÌ_È_ËÂÌÚ_118);}.cls-3{fill:url(#_ÂÁ_Ï_ÌÌ_È_ËÂÌÚ_114);}.cls-4{fill:url(#_ÂÁ_Ï_ÌÌ_È_ËÂÌÚ_511);}.cls-5{fill:url(#_ÂÁ_Ï_ÌÌ_È_ËÂÌÚ_115);}.cls-10,.cls-100,.cls-103,.cls-104,.cls-11,.cls-12,.cls-13,.cls-15,.cls-17,.cls-19,.cls-29,.cls-30,.cls-32,.cls-34,.cls-35,.cls-36,.cls-37,.cls-40,.cls-43,.cls-45,.cls-48,.cls-53,.cls-6,.cls-74,.cls-75,.cls-77,.cls-78,.cls-81,.cls-85,.cls-86,.cls-9,.cls-94,.cls-95,.cls-96,.cls-99{mix-blend-mode:multiply;}.cls-100,.cls-15,.cls-17,.cls-29,.cls-32,.cls-34,.cls-35,.cls-36,.cls-37,.cls-40,.cls-43,.cls-45,.cls-48,.cls-53,.cls-6,.cls-74,.cls-75,.cls-77,.cls-78,.cls-85,.cls-86,.cls-94,.cls-96,.cls-99{opacity:0.6;}.cls-6{fill:url(#_ÂÁ_Ï_ÌÌ_È_ËÂÌÚ_154);}.cls-104,.cls-7{fill:#a15952;}.cls-102,.cls-49,.cls-71,.cls-72,.cls-73,.cls-76,.cls-79,.cls-8,.cls-80,.cls-97{mix-blend-mode:screen;}.cls-8{fill:url(#_ÂÁ_Ï_ÌÌ_È_ËÂÌÚ_122);}.cls-10,.cls-103,.cls-104,.cls-11,.cls-12,.cls-13,.cls-9{opacity:0.2;}.cls-9{fill:url(#_ÂÁ_Ï_ÌÌ_È_ËÂÌÚ_504);}.cls-10{fill:url(#_ÂÁ_Ï_ÌÌ_È_ËÂÌÚ_504-2);}.cls-11{fill:url(#_ÂÁ_Ï_ÌÌ_È_ËÂÌÚ_504-3);}.cls-12{fill:url(#_ÂÁ_Ï_ÌÌ_È_ËÂÌÚ_504-4);}.cls-13{fill:url(#_ÂÁ_Ï_ÌÌ_È_ËÂÌÚ_504-5);}.cls-14{fill:url(#_ÂÁ_Ï_ÌÌ_È_ËÂÌÚ_806);}.cls-15{fill:url(#_ÂÁ_Ï_ÌÌ_È_ËÂÌÚ_221);}.cls-16{fill:url(#_ÂÁ_Ï_ÌÌ_È_ËÂÌÚ_32);}.cls-17{fill:#90609a;}.cls-18{fill:url(#_ÂÁ_Ï_ÌÌ_È_ËÂÌÚ_2);}.cls-19{fill:url(#_ÂÁ_Ï_ÌÌ_È_ËÂÌÚ_173);}.cls-20{fill:url(#_ÂÁ_Ï_ÌÌ_È_ËÂÌÚ_2-2);}.cls-21{fill:url(#_ÂÁ_Ï_ÌÌ_È_ËÂÌÚ_32-2);}.cls-22{fill:url(#_ÂÁ_Ï_ÌÌ_È_ËÂÌÚ_49);}.cls-23{fill:url(#_ÂÁ_Ï_ÌÌ_È_ËÂÌÚ_4);}.cls-24{fill:url(#_ÂÁ_Ï_ÌÌ_È_ËÂÌÚ_32-3);}.cls-25{fill:url(#_ÂÁ_Ï_ÌÌ_È_ËÂÌÚ_271);}.cls-26{fill:url(#_ÂÁ_Ï_ÌÌ_È_ËÂÌÚ_294);}.cls-27{fill:#dd6668;}.cls-28{fill:url(#_ÂÁ_Ï_ÌÌ_È_ËÂÌÚ_627);}.cls-29{fill:url(#_ÂÁ_Ï_ÌÌ_È_ËÂÌÚ_221-2);}.cls-30{fill:url(#_ÂÁ_Ï_ÌÌ_È_ËÂÌÚ_196);}.cls-31{fill:url(#_ÂÁ_Ï_ÌÌ_È_ËÂÌÚ_234);}.cls-32{fill:url(#_ÂÁ_Ï_ÌÌ_È_ËÂÌÚ_221-3);}.cls-33{fill:url(#_ÂÁ_Ï_ÌÌ_È_ËÂÌÚ_178);}.cls-34{fill:url(#_ÂÁ_Ï_ÌÌ_È_ËÂÌÚ_125);}.cls-35{fill:url(#_ÂÁ_Ï_ÌÌ_È_ËÂÌÚ_196-2);}.cls-36{fill:url(#_ÂÁ_Ï_ÌÌ_È_ËÂÌÚ_196-3);}.cls-37{fill:url(#_ÂÁ_Ï_ÌÌ_È_ËÂÌÚ_196-4);}.cls-38{fill:url(#_ÂÁ_Ï_ÌÌ_È_ËÂÌÚ_479);}.cls-39{fill:url(#_ÂÁ_Ï_ÌÌ_È_ËÂÌÚ_13);}.cls-40{fill:url(#_ÂÁ_Ï_ÌÌ_È_ËÂÌÚ_230);}.cls-41{fill:url(#_ÂÁ_Ï_ÌÌ_È_ËÂÌÚ_271-2);}.cls-42{fill:url(#_ÂÁ_Ï_ÌÌ_È_ËÂÌÚ_50);}.cls-43{fill:url(#_ÂÁ_Ï_ÌÌ_È_ËÂÌÚ_409);}.cls-44{fill:url(#_ÂÁ_Ï_ÌÌ_È_ËÂÌÚ_165);}.cls-45{fill:url(#_ÂÁ_Ï_ÌÌ_È_ËÂÌÚ_230-2);}.cls-46{fill:url(#_ÂÁ_Ï_ÌÌ_È_ËÂÌÚ_3);}.cls-47{fill:#883d52;}.cls-48{fill:url(#_ÂÁ_Ï_ÌÌ_È_ËÂÌÚ_409-2);}.cls-49{fill:url(#_ÂÁ_Ï_ÌÌ_È_ËÂÌÚ_184);}.cls-50{fill:url(#_ÂÁ_Ï_ÌÌ_È_ËÂÌÚ_294-2);}.cls-51{fill:url(#_ÂÁ_Ï_ÌÌ_È_ËÂÌÚ_160);}.cls-52{fill:#fff4c9;}.cls-53{fill:url(#_ÂÁ_Ï_ÌÌ_È_ËÂÌÚ_409-3);}.cls-54{fill:url(#_ÂÁ_Ï_ÌÌ_È_ËÂÌÚ_92);}.cls-55{fill:url(#_ÂÁ_Ï_ÌÌ_È_ËÂÌÚ_32-4);}.cls-56{fill:url(#_ÂÁ_Ï_ÌÌ_È_ËÂÌÚ_479-2);}.cls-57{fill:url(#_ÂÁ_Ï_ÌÌ_È_ËÂÌÚ_11);}.cls-58{fill:url(#_ÂÁ_Ï_ÌÌ_È_ËÂÌÚ_41);}.cls-59{fill:url(#_ÂÁ_Ï_ÌÌ_È_ËÂÌÚ_49-2);}.cls-60{fill:url(#_ÂÁ_Ï_ÌÌ_È_ËÂÌÚ_98);}.cls-61{fill:url(#_ÂÁ_Ï_ÌÌ_È_ËÂÌÚ_271-3);}.cls-62{fill:url(#_ÂÁ_Ï_ÌÌ_È_ËÂÌÚ_74);}.cls-63{fill:url(#_ÂÁ_Ï_ÌÌ_È_ËÂÌÚ_59);}.cls-64{fill:url(#_ÂÁ_Ï_ÌÌ_È_ËÂÌÚ_59-2);}.cls-65{fill:url(#_ÂÁ_Ï_ÌÌ_È_ËÂÌÚ_142);}.cls-66{fill:url(#_ÂÁ_Ï_ÌÌ_È_ËÂÌÚ_142-2);}.cls-67{fill:url(#_ÂÁ_Ï_ÌÌ_È_ËÂÌÚ_142-3);}.cls-68{fill:url(#_ÂÁ_Ï_ÌÌ_È_ËÂÌÚ_225);}.cls-69{fill:url(#_ÂÁ_Ï_ÌÌ_È_ËÂÌÚ_225-2);}.cls-70{fill:url(#_ÂÁ_Ï_ÌÌ_È_ËÂÌÚ_225-3);}.cls-71{fill:url(#_ÂÁ_Ï_ÌÌ_È_ËÂÌÚ_184-2);}.cls-72{fill:url(#_ÂÁ_Ï_ÌÌ_È_ËÂÌÚ_110);}.cls-73{fill:url(#_ÂÁ_Ï_ÌÌ_È_ËÂÌÚ_110-2);}.cls-74{fill:url(#_ÂÁ_Ï_ÌÌ_È_ËÂÌÚ_154-2);}.cls-75{fill:url(#_ÂÁ_Ï_ÌÌ_È_ËÂÌÚ_409-4);}.cls-76{fill:url(#_ÂÁ_Ï_ÌÌ_È_ËÂÌÚ_116);}.cls-77{fill:url(#_ÂÁ_Ï_ÌÌ_È_ËÂÌÚ_154-3);}.cls-78{fill:url(#_ÂÁ_Ï_ÌÌ_È_ËÂÌÚ_409-5);}.cls-79{fill:url(#_ÂÁ_Ï_ÌÌ_È_ËÂÌÚ_184-3);}.cls-80{fill:url(#_ÂÁ_Ï_ÌÌ_È_ËÂÌÚ_111);}.cls-81{fill:#a977bd;}.cls-82{fill:url(#_ÂÁ_Ï_ÌÌ_È_ËÂÌÚ_50-2);}.cls-83{fill:url(#_ÂÁ_Ï_ÌÌ_È_ËÂÌÚ_50-3);}.cls-84{fill:url(#_ÂÁ_Ï_ÌÌ_È_ËÂÌÚ_74-2);}.cls-85{fill:url(#_ÂÁ_Ï_ÌÌ_È_ËÂÌÚ_154-4);}.cls-86{fill:url(#_ÂÁ_Ï_ÌÌ_È_ËÂÌÚ_113);}.cls-87{fill:url(#_ÂÁ_Ï_ÌÌ_È_ËÂÌÚ_74-3);}.cls-88{fill:url(#_ÂÁ_Ï_ÌÌ_È_ËÂÌÚ_13-2);}.cls-89{fill:#ffe500;}.cls-90{fill:url(#_ÂÁ_Ï_ÌÌ_È_ËÂÌÚ_294-3);}.cls-91{fill:url(#_ÂÁ_Ï_ÌÌ_È_ËÂÌÚ_294-4);}.cls-92{fill:url(#_ÂÁ_Ï_ÌÌ_È_ËÂÌÚ_294-5);}.cls-93{fill:url(#_ÂÁ_Ï_ÌÌ_È_ËÂÌÚ_13-3);}.cls-94{fill:url(#_ÂÁ_Ï_ÌÌ_È_ËÂÌÚ_196-5);}.cls-95{fill:url(#_ÂÁ_Ï_ÌÌ_È_ËÂÌÚ_196-6);}.cls-96{fill:url(#_ÂÁ_Ï_ÌÌ_È_ËÂÌÚ_196-7);}.cls-97{fill:url(#_ÂÁ_Ï_ÌÌ_È_ËÂÌÚ_202);}.cls-98{fill:url(#_ÂÁ_Ï_ÌÌ_È_ËÂÌÚ_88);}.cls-99{fill:url(#_ÂÁ_Ï_ÌÌ_È_ËÂÌÚ_121);}.cls-100{fill:url(#_ÂÁ_Ï_ÌÌ_È_ËÂÌÚ_125-2);}.cls-101{fill:url(#_ÂÁ_Ï_ÌÌ_È_ËÂÌÚ_118-2);}.cls-102{fill:url(#_ÂÁ_Ï_ÌÌ_È_ËÂÌÚ_202-2);}.cls-103{fill:url(#_ÂÁ_Ï_ÌÌ_È_ËÂÌÚ_125-3);}.cls-105,.cls-106{fill:#65271e;}.cls-107{fill:#ab5f58;}.cls-108{fill:#cc061e;}</style><linearGradient id="_ÂÁ_Ï_ÌÌ_È_ËÂÌÚ_118" x1="380.87" y1="359.83" x2="380.87" y2="337.7" gradientUnits="userSpaceOnUse"><stop offset="0" stop-color="#e5ccae"/><stop offset="1" stop-color="#907c7e"/></linearGradient><linearGradient id="_ÂÁ_Ï_ÌÌ_È_ËÂÌÚ_114" x1="383.7" y1="411.03" x2="383.7" y2="338.96" gradientUnits="userSpaceOnUse"><stop offset="0" stop-color="#907c7e"/><stop offset="1" stop-color="#e5ccae"/></linearGradient><linearGradient id="_ÂÁ_Ï_ÌÌ_È_ËÂÌÚ_511" x1="355.99" y1="348.53" x2="355.99" y2="200.16" gradientUnits="userSpaceOnUse"><stop offset="0" stop-color="#5f123e"/><stop offset="1" stop-color="#be423b"/></linearGradient><linearGradient id="_ÂÁ_Ï_ÌÌ_È_ËÂÌÚ_115" x1="379.36" y1="383.55" x2="379.36" y2="340.71" gradientUnits="userSpaceOnUse"><stop offset="0" stop-color="#9f7767"/><stop offset="1" stop-color="#7a637e"/></linearGradient><linearGradient id="_ÂÁ_Ï_ÌÌ_È_ËÂÌÚ_154" x1="355.45" y1="345.59" x2="355.45" y2="200.16" gradientUnits="userSpaceOnUse"><stop offset="0" stop-color="#ffc4c0"/><stop offset="0.99" stop-color="#90609a"/></linearGradient><linearGradient id="_ÂÁ_Ï_ÌÌ_È_ËÂÌÚ_122" x1="376.84" y1="378.63" x2="376.84" y2="343.37" gradientUnits="userSpaceOnUse"><stop offset="0"/><stop offset="1" stop-color="#b26875"/></linearGradient><linearGradient id="_ÂÁ_Ï_ÌÌ_È_ËÂÌÚ_504" x1="363.6" y1="400.14" x2="363.6" y2="365.32" gradientUnits="userSpaceOnUse"><stop offset="0.01" stop-color="#e39574"/><stop offset="0.44" stop-color="#d38f85"/><stop offset="1" stop-color="#b984a2"/></linearGradient><linearGradient id="_ÂÁ_Ï_ÌÌ_È_ËÂÌÚ_504-2" x1="381.36" y1="398.85" x2="381.36" y2="390.03" xlink:href="#_ÂÁ_Ï_ÌÌ_È_ËÂÌÚ_504"/><linearGradient id="_ÂÁ_Ï_ÌÌ_È_ËÂÌÚ_504-3" x1="469.96" y1="775.89" x2="469.96" y2="767.02" gradientTransform="translate(663.48 -515.38) rotate(47.78)" xlink:href="#_ÂÁ_Ï_ÌÌ_È_ËÂÌÚ_504"/><linearGradient id="_ÂÁ_Ï_ÌÌ_È_ËÂÌÚ_504-4" x1="1386.64" y1="244.96" x2="1386.64" y2="239.41" gradientTransform="matrix(-0.72, -0.7, 0.7, -0.72, 1237.2, 1498.88)" xlink:href="#_ÂÁ_Ï_ÌÌ_È_ËÂÌÚ_504"/><linearGradient id="_ÂÁ_Ï_ÌÌ_È_ËÂÌÚ_504-5" x1="1442.12" y1="511.13" x2="1442.12" y2="507.62" gradientTransform="translate(1736.66 1115.91) rotate(-171.77)" xlink:href="#_ÂÁ_Ï_ÌÌ_È_ËÂÌÚ_504"/><linearGradient id="_ÂÁ_Ï_ÌÌ_È_ËÂÌÚ_806" x1="241.53" y1="412.39" x2="241.53" y2="331.34" gradientUnits="userSpaceOnUse"><stop offset="0" stop-color="#33002c"/><stop offset="1" stop-color="#39152f"/></linearGradient><linearGradient id="_ÂÁ_Ï_ÌÌ_È_ËÂÌÚ_221" x1="226.86" y1="365.32" x2="226.86" y2="350.62" gradientUnits="userSpaceOnUse"><stop offset="0.01" stop-color="#90609a"/><stop offset="1" stop-color="#9783c0"/></linearGradient><linearGradient id="_ÂÁ_Ï_ÌÌ_È_ËÂÌÚ_32" x1="269.11" y1="339.29" x2="269.11" y2="88.26" gradientUnits="userSpaceOnUse"><stop offset="0" stop-color="#79072c"/><stop offset="1" stop-color="#861a22"/></linearGradient><linearGradient id="_ÂÁ_Ï_ÌÌ_È_ËÂÌÚ_2" x1="231.31" y1="68.91" x2="310.4" y2="68.91" gradientUnits="userSpaceOnUse"><stop offset="0" stop-color="#5b3255"/><stop offset="1" stop-color="#39152f"/></linearGradient><linearGradient id="_ÂÁ_Ï_ÌÌ_È_ËÂÌÚ_173" x1="270.75" y1="100.89" x2="270.75" y2="67.57" gradientUnits="userSpaceOnUse"><stop offset="0" stop-color="#97c4c0"/><stop offset="0.99" stop-color="#90609a"/></linearGradient><linearGradient id="_ÂÁ_Ï_ÌÌ_È_ËÂÌÚ_2-2" x1="204.9" y1="339.01" x2="244.17" y2="339.01" xlink:href="#_ÂÁ_Ï_ÌÌ_È_ËÂÌÚ_2"/><linearGradient id="_ÂÁ_Ï_ÌÌ_È_ËÂÌÚ_32-2" x1="169.57" y1="263.1" x2="169.57" y2="240.04" xlink:href="#_ÂÁ_Ï_ÌÌ_È_ËÂÌÚ_32"/><linearGradient id="_ÂÁ_Ï_ÌÌ_È_ËÂÌÚ_49" x1="170.18" y1="273.58" x2="170.18" y2="247.16" gradientUnits="userSpaceOnUse"><stop offset="0" stop-color="#ecb5a3"/><stop offset="1" stop-color="#ffc9c6"/></linearGradient><linearGradient id="_ÂÁ_Ï_ÌÌ_È_ËÂÌÚ_4" x1="169.19" y1="268.46" x2="169.19" y2="241.52" gradientUnits="userSpaceOnUse"><stop offset="0.01" stop-color="#a96255"/><stop offset="1" stop-color="#823427"/></linearGradient><linearGradient id="_ÂÁ_Ï_ÌÌ_È_ËÂÌÚ_32-3" x1="319.55" y1="197.1" x2="319.55" y2="115.47" xlink:href="#_ÂÁ_Ï_ÌÌ_È_ËÂÌÚ_32"/><linearGradient id="_ÂÁ_Ï_ÌÌ_È_ËÂÌÚ_271" x1="261.78" y1="258.1" x2="261.78" y2="134.14" gradientUnits="userSpaceOnUse"><stop offset="0" stop-color="#ffa486"/><stop offset="1" stop-color="#ffb886"/></linearGradient><linearGradient id="_ÂÁ_Ï_ÌÌ_È_ËÂÌÚ_294" x1="1422.35" y1="70.65" x2="1418.68" y2="54.46" gradientTransform="matrix(-1, 0.08, 0.08, 1, 1656.58, -74.38)" gradientUnits="userSpaceOnUse"><stop offset="0" stop-color="#ff7f66"/><stop offset="1" stop-color="#ec887e"/></linearGradient><linearGradient id="_ÂÁ_Ï_ÌÌ_È_ËÂÌÚ_627" x1="252.94" y1="404.75" x2="252.94" y2="333.78" gradientUnits="userSpaceOnUse"><stop offset="0" stop-color="#9e4044"/><stop offset="1" stop-color="#ae4c45"/></linearGradient><linearGradient id="_ÂÁ_Ï_ÌÌ_È_ËÂÌÚ_221-2" x1="228.16" y1="343.37" x2="228.16" y2="326.8" xlink:href="#_ÂÁ_Ï_ÌÌ_È_ËÂÌÚ_221"/><linearGradient id="_ÂÁ_Ï_ÌÌ_È_ËÂÌÚ_196" x1="227.98" y1="365.32" x2="278.93" y2="365.32" gradientUnits="userSpaceOnUse"><stop offset="0" stop-color="#a981c0"/><stop offset="1" stop-color="#d6607c"/></linearGradient><linearGradient id="_ÂÁ_Ï_ÌÌ_È_ËÂÌÚ_234" x1="250.59" y1="346.76" x2="250.59" y2="229.56" gradientUnits="userSpaceOnUse"><stop offset="0" stop-color="#295445"/><stop offset="1" stop-color="#225634"/></linearGradient><linearGradient id="_ÂÁ_Ï_ÌÌ_È_ËÂÌÚ_221-3" x1="249.13" y1="346.76" x2="249.13" y2="230.41" xlink:href="#_ÂÁ_Ï_ÌÌ_È_ËÂÌÚ_221"/><linearGradient id="_ÂÁ_Ï_ÌÌ_È_ËÂÌÚ_178" x1="258.54" y1="268.73" x2="258.54" y2="237.31" gradientUnits="userSpaceOnUse"><stop offset="0" stop-color="#552727"/><stop offset="0.99" stop-color="#84431d"/></linearGradient><linearGradient id="_ÂÁ_Ï_ÌÌ_È_ËÂÌÚ_125" x1="251.19" y1="239.91" x2="251.19" y2="200.16" gradientUnits="userSpaceOnUse"><stop offset="0" stop-color="#b079b5"/><stop offset="0.99" stop-color="#ffabba"/></linearGradient><linearGradient id="_ÂÁ_Ï_ÌÌ_È_ËÂÌÚ_196-2" x1="250.53" y1="724.35" x2="250.53" y2="687.53" gradientTransform="translate(438.08 -353.04) rotate(34.36)" xlink:href="#_ÂÁ_Ï_ÌÌ_È_ËÂÌÚ_196"/><linearGradient id="_ÂÁ_Ï_ÌÌ_È_ËÂÌÚ_196-3" x1="255.02" y1="717.42" x2="255.02" y2="684.96" gradientTransform="translate(438.08 -353.04) rotate(34.36)" xlink:href="#_ÂÁ_Ï_ÌÌ_È_ËÂÌÚ_196"/><linearGradient id="_ÂÁ_Ï_ÌÌ_È_ËÂÌÚ_196-4" x1="256.52" y1="704.31" x2="256.52" y2="692.87" gradientTransform="translate(438.08 -353.04) rotate(34.36)" xlink:href="#_ÂÁ_Ï_ÌÌ_È_ËÂÌÚ_196"/><linearGradient id="_ÂÁ_Ï_ÌÌ_È_ËÂÌÚ_479" x1="319.9" y1="339.29" x2="319.9" y2="108.37" gradientUnits="userSpaceOnUse"><stop offset="0" stop-color="#900745"/><stop offset="1" stop-color="#d12c22"/></linearGradient><linearGradient id="_ÂÁ_Ï_ÌÌ_È_ËÂÌÚ_13" x1="261.77" y1="259.35" x2="261.77" y2="130.85" gradientUnits="userSpaceOnUse"><stop offset="0" stop-color="#f1c7b9"/><stop offset="1" stop-color="#fff4d0"/></linearGradient><linearGradient id="_ÂÁ_Ï_ÌÌ_È_ËÂÌÚ_230" x1="275.83" y1="200.16" x2="275.83" y2="149.54" gradientUnits="userSpaceOnUse"><stop offset="0" stop-color="#b389ab"/><stop offset="0.99" stop-color="#b060f4"/></linearGradient><linearGradient id="_ÂÁ_Ï_ÌÌ_È_ËÂÌÚ_271-2" x1="271.79" y1="140.91" x2="271.79" y2="73.1" xlink:href="#_ÂÁ_Ï_ÌÌ_È_ËÂÌÚ_271"/><linearGradient id="_ÂÁ_Ï_ÌÌ_È_ËÂÌÚ_50" x1="269.25" y1="187" x2="269.25" y2="93.11" gradientUnits="userSpaceOnUse"><stop offset="0.01" stop-color="#8b2c27"/><stop offset="1" stop-color="#af3827"/></linearGradient><linearGradient id="_ÂÁ_Ï_ÌÌ_È_ËÂÌÚ_409" x1="279.32" y1="187" x2="279.32" y2="109.03" gradientUnits="userSpaceOnUse"><stop offset="0" stop-color="#ffeadb"/><stop offset="0.99" stop-color="#b060f4"/></linearGradient><linearGradient id="_ÂÁ_Ï_ÌÌ_È_ËÂÌÚ_165" x1="277.28" y1="121.21" x2="277.28" y2="108.38" gradientUnits="userSpaceOnUse"><stop offset="0" stop-color="#ba4d27"/><stop offset="1" stop-color="#af3827"/></linearGradient><linearGradient id="_ÂÁ_Ï_ÌÌ_È_ËÂÌÚ_230-2" x1="255.83" y1="259.35" x2="255.83" y2="130.85" xlink:href="#_ÂÁ_Ï_ÌÌ_È_ËÂÌÚ_230"/><linearGradient id="_ÂÁ_Ï_ÌÌ_È_ËÂÌÚ_3" x1="1314.05" y1="-25.27" x2="1309.72" y2="-44.38" gradientTransform="matrix(-0.96, 0.29, 0.29, 0.96, 1546.31, -236.22)" gradientUnits="userSpaceOnUse"><stop offset="0.01" stop-color="#ff6d66"/><stop offset="1" stop-color="#ffae7e"/></linearGradient><linearGradient id="_ÂÁ_Ï_ÌÌ_È_ËÂÌÚ_409-2" x1="1305.91" y1="-29.85" x2="1320.01" y2="-29.85" gradientTransform="matrix(-0.96, 0.29, 0.29, 0.96, 1546.31, -236.22)" xlink:href="#_ÂÁ_Ï_ÌÌ_È_ËÂÌÚ_409"/><linearGradient id="_ÂÁ_Ï_ÌÌ_È_ËÂÌÚ_184" x1="1307.86" y1="-28.71" x2="1307.86" y2="-43.38" gradientTransform="matrix(-0.96, 0.29, 0.29, 0.96, 1546.31, -236.22)" gradientUnits="userSpaceOnUse"><stop offset="0"/><stop offset="1" stop-color="#d7683d"/></linearGradient><linearGradient id="_ÂÁ_Ï_ÌÌ_È_ËÂÌÚ_294-2" x1="278.52" y1="126.57" x2="275.28" y2="112.25" gradientTransform="matrix(1, 0, 0, 1, 0, 0)" xlink:href="#_ÂÁ_Ï_ÌÌ_È_ËÂÌÚ_294"/><linearGradient id="_ÂÁ_Ï_ÌÌ_È_ËÂÌÚ_160" x1="275.42" y1="123.76" x2="275.42" y2="114.6" gradientUnits="userSpaceOnUse"><stop offset="0.02" stop-color="#562c27"/><stop offset="1" stop-color="#592c27"/></linearGradient><linearGradient id="_ÂÁ_Ï_ÌÌ_È_ËÂÌÚ_409-3" x1="273.44" y1="113.02" x2="273.44" y2="84.54" xlink:href="#_ÂÁ_Ï_ÌÌ_È_ËÂÌÚ_409"/><linearGradient id="_ÂÁ_Ï_ÌÌ_È_ËÂÌÚ_92" x1="250.04" y1="85.27" x2="293.33" y2="85.27" gradientUnits="userSpaceOnUse"><stop offset="0" stop-color="#89599a"/><stop offset="1" stop-color="#b13675"/></linearGradient><linearGradient id="_ÂÁ_Ï_ÌÌ_È_ËÂÌÚ_32-4" x1="323.98" y1="203.99" x2="323.98" y2="178.31" xlink:href="#_ÂÁ_Ï_ÌÌ_È_ËÂÌÚ_32"/><linearGradient id="_ÂÁ_Ï_ÌÌ_È_ËÂÌÚ_479-2" x1="212.36" y1="325.67" x2="212.36" y2="131.64" xlink:href="#_ÂÁ_Ï_ÌÌ_È_ËÂÌÚ_479"/><linearGradient id="_ÂÁ_Ï_ÌÌ_È_ËÂÌÚ_11" x1="323.69" y1="197.1" x2="323.69" y2="148.39" gradientUnits="userSpaceOnUse"><stop offset="0" stop-color="#d12c22"/><stop offset="1" stop-color="#900736"/></linearGradient><linearGradient id="_ÂÁ_Ï_ÌÌ_È_ËÂÌÚ_41" x1="219.15" y1="325.67" x2="219.15" y2="88.01" gradientUnits="userSpaceOnUse"><stop offset="0.01" stop-color="#bd0745"/><stop offset="1" stop-color="#f22c22"/></linearGradient><linearGradient id="_ÂÁ_Ï_ÌÌ_È_ËÂÌÚ_49-2" x1="319.66" y1="214.15" x2="319.66" y2="188.78" xlink:href="#_ÂÁ_Ï_ÌÌ_È_ËÂÌÚ_49"/><linearGradient id="_ÂÁ_Ï_ÌÌ_È_ËÂÌÚ_98" x1="187.01" y1="263.09" x2="187.01" y2="139.99" gradientUnits="userSpaceOnUse"><stop offset="0" stop-color="#900745"/><stop offset="1" stop-color="#e2342a"/></linearGradient><linearGradient id="_ÂÁ_Ï_ÌÌ_È_ËÂÌÚ_271-3" x1="314.09" y1="238.48" x2="314.09" y2="189.42" xlink:href="#_ÂÁ_Ï_ÌÌ_È_ËÂÌÚ_271"/><linearGradient id="_ÂÁ_Ï_ÌÌ_È_ËÂÌÚ_74" x1="257.12" y1="263.51" x2="280.69" y2="263.51" gradientUnits="userSpaceOnUse"><stop offset="0" stop-color="#ec7a55"/><stop offset="1" stop-color="#ffff36"/></linearGradient><linearGradient id="_ÂÁ_Ï_ÌÌ_È_ËÂÌÚ_59" x1="285.41" y1="107.04" x2="285.41" y2="101.95" gradientUnits="userSpaceOnUse"><stop offset="0.02" stop-color="#814227"/><stop offset="1" stop-color="#592c27"/></linearGradient><linearGradient id="_ÂÁ_Ï_ÌÌ_È_ËÂÌÚ_59-2" x1="270.27" y1="105.73" x2="270.27" y2="101.91" xlink:href="#_ÂÁ_Ï_ÌÌ_È_ËÂÌÚ_59"/><linearGradient id="_ÂÁ_Ï_ÌÌ_È_ËÂÌÚ_142" x1="1342.8" y1="72.48" x2="1342.8" y2="64.94" gradientTransform="matrix(-0.97, 0.23, 0.23, 0.97, 1530.65, -187.22)" gradientUnits="userSpaceOnUse"><stop offset="0" stop-color="#ff7a55"/><stop offset="0.99" stop-color="#ff8b36"/></linearGradient><linearGradient id="_ÂÁ_Ï_ÌÌ_È_ËÂÌÚ_142-2" x1="1290.85" y1="18.39" x2="1290.85" y2="9.34" gradientTransform="matrix(-0.91, 0.4, 0.4, 0.91, 1409.13, -319.45)" xlink:href="#_ÂÁ_Ï_ÌÌ_È_ËÂÌÚ_142"/><linearGradient id="_ÂÁ_Ï_ÌÌ_È_ËÂÌÚ_142-3" x1="1423.64" y1="325.86" x2="1423.64" y2="316.19" gradientTransform="matrix(-0.99, -0.13, -0.13, 0.99, 1672.56, 115.44)" xlink:href="#_ÂÁ_Ï_ÌÌ_È_ËÂÌÚ_142"/><linearGradient id="_ÂÁ_Ï_ÌÌ_È_ËÂÌÚ_225" x1="1418.47" y1="320.71" x2="1428.31" y2="320.71" gradientTransform="matrix(-0.99, -0.13, -0.13, 0.99, 1672.56, 115.44)" gradientUnits="userSpaceOnUse"><stop offset="0" stop-color="#f09679"/><stop offset="1" stop-color="#ffff36"/></linearGradient><linearGradient id="_ÂÁ_Ï_ÌÌ_È_ËÂÌÚ_225-2" x1="1285.99" y1="13.38" x2="1294.07" y2="13.38" gradientTransform="matrix(-0.91, 0.4, 0.4, 0.91, 1409.13, -319.45)" xlink:href="#_ÂÁ_Ï_ÌÌ_È_ËÂÌÚ_225"/><linearGradient id="_ÂÁ_Ï_ÌÌ_È_ËÂÌÚ_225-3" x1="1338.35" y1="67.39" x2="1346.54" y2="67.39" gradientTransform="matrix(-0.97, 0.23, 0.23, 0.97, 1530.65, -187.22)" xlink:href="#_ÂÁ_Ï_ÌÌ_È_ËÂÌÚ_225"/><linearGradient id="_ÂÁ_Ï_ÌÌ_È_ËÂÌÚ_184-2" x1="231.31" y1="75.32" x2="245.45" y2="75.32" gradientTransform="matrix(1, 0, 0, 1, 0, 0)" xlink:href="#_ÂÁ_Ï_ÌÌ_È_ËÂÌÚ_184"/><linearGradient id="_ÂÁ_Ï_ÌÌ_È_ËÂÌÚ_110" x1="276.79" y1="52.62" x2="276.79" y2="31.39" gradientUnits="userSpaceOnUse"><stop offset="0" stop-color="#5e1900"/><stop offset="1" stop-color="#d7683d"/></linearGradient><linearGradient id="_ÂÁ_Ï_ÌÌ_È_ËÂÌÚ_110-2" x1="306.58" y1="48.33" x2="306.58" y2="38.23" xlink:href="#_ÂÁ_Ï_ÌÌ_È_ËÂÌÚ_110"/><linearGradient id="_ÂÁ_Ï_ÌÌ_È_ËÂÌÚ_154-2" x1="271.69" y1="98.58" x2="271.69" y2="71.96" xlink:href="#_ÂÁ_Ï_ÌÌ_È_ËÂÌÚ_154"/><linearGradient id="_ÂÁ_Ï_ÌÌ_È_ËÂÌÚ_409-4" x1="272.36" y1="180.06" x2="272.36" y2="179.86" xlink:href="#_ÂÁ_Ï_ÌÌ_È_ËÂÌÚ_409"/><linearGradient id="_ÂÁ_Ï_ÌÌ_È_ËÂÌÚ_116" x1="309.65" y1="189.22" x2="309.65" y2="160.38" gradientUnits="userSpaceOnUse"><stop offset="0" stop-color="#d7683d"/><stop offset="1" stop-color="#5b0000"/></linearGradient><linearGradient id="_ÂÁ_Ï_ÌÌ_È_ËÂÌÚ_154-3" x1="171.18" y1="267.48" x2="171.18" y2="245.65" xlink:href="#_ÂÁ_Ï_ÌÌ_È_ËÂÌÚ_154"/><linearGradient id="_ÂÁ_Ï_ÌÌ_È_ËÂÌÚ_409-5" x1="256.44" y1="179.86" x2="256.44" y2="119.21" xlink:href="#_ÂÁ_Ï_ÌÌ_È_ËÂÌÚ_409"/><linearGradient id="_ÂÁ_Ï_ÌÌ_È_ËÂÌÚ_184-3" x1="245.19" y1="138.6" x2="245.19" y2="107.94" gradientTransform="matrix(1, 0, 0, 1, 0, 0)" xlink:href="#_ÂÁ_Ï_ÌÌ_È_ËÂÌÚ_184"/><linearGradient id="_ÂÁ_Ï_ÌÌ_È_ËÂÌÚ_111" x1="246.87" y1="162.15" x2="246.87" y2="119.66" gradientUnits="userSpaceOnUse"><stop offset="0" stop-color="#d7683d"/><stop offset="1"/></linearGradient><linearGradient id="_ÂÁ_Ï_ÌÌ_È_ËÂÌÚ_50-2" x1="290.57" y1="103.46" x2="290.57" y2="96.5" xlink:href="#_ÂÁ_Ï_ÌÌ_È_ËÂÌÚ_50"/><linearGradient id="_ÂÁ_Ï_ÌÌ_È_ËÂÌÚ_50-3" x1="271.31" y1="103.07" x2="271.31" y2="97.99" xlink:href="#_ÂÁ_Ï_ÌÌ_È_ËÂÌÚ_50"/><linearGradient id="_ÂÁ_Ï_ÌÌ_È_ËÂÌÚ_74-2" x1="297.09" y1="183.71" x2="350.31" y2="183.71" xlink:href="#_ÂÁ_Ï_ÌÌ_È_ËÂÌÚ_74"/><linearGradient id="_ÂÁ_Ï_ÌÌ_È_ËÂÌÚ_154-4" x1="195.55" y1="222.2" x2="221.84" y2="222.2" xlink:href="#_ÂÁ_Ï_ÌÌ_È_ËÂÌÚ_154"/><linearGradient id="_ÂÁ_Ï_ÌÌ_È_ËÂÌÚ_113" x1="187.13" y1="263.09" x2="187.13" y2="179.02" gradientUnits="userSpaceOnUse"><stop offset="0.01" stop-color="#90609a"/><stop offset="1" stop-color="#ffc4c0"/></linearGradient><linearGradient id="_ÂÁ_Ï_ÌÌ_È_ËÂÌÚ_74-3" x1="142.47" y1="249.26" x2="196.5" y2="249.26" xlink:href="#_ÂÁ_Ï_ÌÌ_È_ËÂÌÚ_74"/><linearGradient id="_ÂÁ_Ï_ÌÌ_È_ËÂÌÚ_13-2" x1="169.98" y1="270.18" x2="169.98" y2="244.36" xlink:href="#_ÂÁ_Ï_ÌÌ_È_ËÂÌÚ_13"/><linearGradient id="_ÂÁ_Ï_ÌÌ_È_ËÂÌÚ_294-3" x1="318.84" y1="205.74" x2="315.59" y2="191.42" gradientTransform="matrix(1, 0, 0, 1, 0, 0)" xlink:href="#_ÂÁ_Ï_ÌÌ_È_ËÂÌÚ_294"/><linearGradient id="_ÂÁ_Ï_ÌÌ_È_ËÂÌÚ_294-4" x1="307.03" y1="220.35" x2="304.69" y2="210" gradientTransform="matrix(1, 0, 0, 1, 0, 0)" xlink:href="#_ÂÁ_Ï_ÌÌ_È_ËÂÌÚ_294"/><linearGradient id="_ÂÁ_Ï_ÌÌ_È_ËÂÌÚ_294-5" x1="316.35" y1="235.4" x2="311.02" y2="211.86" gradientTransform="matrix(1, 0, 0, 1, 0, 0)" xlink:href="#_ÂÁ_Ï_ÌÌ_È_ËÂÌÚ_294"/><linearGradient id="_ÂÁ_Ï_ÌÌ_È_ËÂÌÚ_13-3" x1="322.05" y1="211.81" x2="322.05" y2="185.18" xlink:href="#_ÂÁ_Ï_ÌÌ_È_ËÂÌÚ_13"/><linearGradient id="_ÂÁ_Ï_ÌÌ_È_ËÂÌÚ_196-5" x1="324.52" y1="197.1" x2="324.52" y2="184.99" xlink:href="#_ÂÁ_Ï_ÌÌ_È_ËÂÌÚ_196"/><linearGradient id="_ÂÁ_Ï_ÌÌ_È_ËÂÌÚ_196-6" x1="232.11" y1="404.75" x2="232.11" y2="396.05" xlink:href="#_ÂÁ_Ï_ÌÌ_È_ËÂÌÚ_196"/><linearGradient id="_ÂÁ_Ï_ÌÌ_È_ËÂÌÚ_196-7" x1="170.01" y1="261.6" x2="170.01" y2="244.28" xlink:href="#_ÂÁ_Ï_ÌÌ_È_ËÂÌÚ_196"/><linearGradient id="_ÂÁ_Ï_ÌÌ_È_ËÂÌÚ_202" x1="184.86" y1="240.04" x2="184.86" y2="150.78" gradientUnits="userSpaceOnUse"><stop offset="0" stop-color="#5b0000"/><stop offset="1" stop-color="#d7683d"/></linearGradient><linearGradient id="_ÂÁ_Ï_ÌÌ_È_ËÂÌÚ_88" x1="170.91" y1="398.68" x2="170.91" y2="288.07" gradientUnits="userSpaceOnUse"><stop offset="0" stop-color="#b57061"/><stop offset="1" stop-color="#ee926b"/></linearGradient><linearGradient id="_ÂÁ_Ï_ÌÌ_È_ËÂÌÚ_121" x1="116.39" y1="341.21" x2="166.96" y2="295.32" gradientUnits="userSpaceOnUse"><stop offset="0.01" stop-color="#ffabba"/><stop offset="1" stop-color="#b079b5"/></linearGradient><linearGradient id="_ÂÁ_Ï_ÌÌ_È_ËÂÌÚ_125-2" x1="171.08" y1="317.17" x2="207.2" y2="284.39" xlink:href="#_ÂÁ_Ï_ÌÌ_È_ËÂÌÚ_125"/><linearGradient id="_ÂÁ_Ï_ÌÌ_È_ËÂÌÚ_118-2" x1="184.07" y1="306.25" x2="184.07" y2="263.31" xlink:href="#_ÂÁ_Ï_ÌÌ_È_ËÂÌÚ_118"/><linearGradient id="_ÂÁ_Ï_ÌÌ_È_ËÂÌÚ_202-2" x1="174.72" y1="278.74" x2="198.49" y2="278.74" xlink:href="#_ÂÁ_Ï_ÌÌ_È_ËÂÌÚ_202"/><linearGradient id="_ÂÁ_Ï_ÌÌ_È_ËÂÌÚ_125-3" x1="173.26" y1="398.64" x2="173.26" y2="374.91" xlink:href="#_ÂÁ_Ï_ÌÌ_È_ËÂÌÚ_125"/></defs><g class="cls-1"><g id="Layer_1" data-name="Layer 1"><path class="cls-2" d="M350.26,359.83l.85-1.86s11.6-12.82,26.27-17.26,33.31-2.66,33.31-2.66l.79,1.24Z" transform="translate(-126.42 -31.39)"/><path class="cls-3" d="M371.06,344.43s-13.68,8.85-20.8,15.4c0,0,8,30.47,20.78,43.57s38.6,9,44.3-9.72-3.86-54.39-3.86-54.39a101.42,101.42,0,0,0-31.14,2.35Z" transform="translate(-126.42 -31.39)"/><path class="cls-4" d="M382.8,343.84s-6.06,5.91-13.47,4.46c0,0-.11-1-.3-2.69-.69-5.83-2.42-19.43-4-23.65-2-5.41-4.55-8.83-6.26-13.66s-5.41-20.69-8-30c-1.7-6.19-10.68-36.58-16.53-56.3-3-10-5.11-17.23-5.11-17.23s1.14-5.82,9.69-4.4c0,0,14.52,70.19,18.8,80.94s13.09,20.88,13.94,23.08,2.16,13.57,4.72,22.4a126.05,126.05,0,0,0,5.39,14.65h0C382.38,343,382.8,343.84,382.8,343.84Z" transform="translate(-126.42 -31.39)"/><path class="cls-5" d="M367.55,346.76s14.53,35.92,21.36,36.78-4-42.83-4-42.83S372.59,343.27,367.55,346.76Z" transform="translate(-126.42 -31.39)"/><path class="cls-6" d="M381.72,341.45h0l-12.67,4.13c.36-.2,6.3-3.51,7.4-6.62s-7.4-30.59-7.4-30.59-8.26-3.5-11.38-15.14-12.26-54.42-14.25-58.2-9.11-13-9.11-13l0-.05c-3-10-5.11-17.23-5.11-17.23s1.14-5.82,9.69-4.4c0,0,14.52,70.19,18.8,80.94s13.09,20.88,13.94,23.08,2.16,13.57,4.72,22.4A126.05,126.05,0,0,0,381.72,341.45Z" transform="translate(-126.42 -31.39)"/><path class="cls-7" d="M359.08,293.24s-.15,6.87,4.13,10.58a6.68,6.68,0,0,0,8.4.58S366.2,292.14,359.08,293.24Z" transform="translate(-126.42 -31.39)"/><path class="cls-8" d="M367.55,346.76s9,25.89,18.58,31.87c0,0-9.23-21-11.55-35.26A50.19,50.19,0,0,0,367.55,346.76Z" transform="translate(-126.42 -31.39)"/><path class="cls-9" d="M351.87,365.32s13.19,3.74,16.9,8.66,7.68,16.32,6.26,20.31-6.82,5.85-6.82,5.85S358.44,387.74,351.87,365.32Z" transform="translate(-126.42 -31.39)"/><path class="cls-10" d="M377.81,390.37c-3.29,1.28,1,8.08,1.55,8.31,2.36,1,6.56-2.35,6.77-4.16S381.65,388.88,377.81,390.37Z" transform="translate(-126.42 -31.39)"/><path class="cls-11" d="M409,346.13c-3.15-1.57-6.62,1.26-5.1,6.73.68,2.46,6.14,3.28,7.62,2.23S412.67,348,409,346.13Z" transform="translate(-126.42 -31.39)"/><path class="cls-12" d="M408.58,363.83c2,.85,4.07-1.06,2.91-4.41-.53-1.51-4-1.79-4.85-1.08S406.2,362.83,408.58,363.83Z" transform="translate(-126.42 -31.39)"/><path class="cls-13" d="M383.27,407c1.36-.31,1.7-2.05-.14-3.34-.82-.58-2.7.55-2.88,1.25S381.68,407.41,383.27,407Z" transform="translate(-126.42 -31.39)"/><path class="cls-14" d="M217.21,335.28s-3.63,16.22-3,20.71,4.49,7.9,8.33,15.38S227,383.11,227,383.11s-2.27,2.78-2.06,4.7a6.09,6.09,0,0,0,2.06,3.42,26.42,26.42,0,0,0-2.27,9.39,72.67,72.67,0,0,0,.64,9h9s.85,1.07,4.06,2.14,22.87,1.06,30.55-1.71c0,0-1.72-5.55-4.07-7.9s-23.57-9.4-25-19.65,0-51.13,0-51.13Z" transform="translate(-126.42 -31.39)"/><path class="cls-15" d="M214.45,350.62s8.87,14.07,24.72,14.7l.09-12.13Z" transform="translate(-126.42 -31.39)"/><path class="cls-16" d="M208.17,88.26s16,4.06,49.3,10.33,46.19,5.93,53.67,10.79c0,0-9.95-1-14.06,11.83S302.43,190,302.43,190s38.15,129,44.41,149.29c0,0-2.28-14.76-29.33-19s-77.45-1.94-99.94-7.24-26.2-34.72-26.2-34.72l33-73.53s14.19-54.17,7.31-73.13S208.17,88.26,208.17,88.26Z" transform="translate(-126.42 -31.39)"/><path class="cls-17" d="M335.06,308.38l-20.24-56.63s-22,19.94-38.33,63.37L239,315.8l1.74-40.33,43.24-74,6.57-42.05,4.59-4.37Z" transform="translate(-126.42 -31.39)"/><path class="cls-18" d="M302.71,48.33s-5-8.4-4.77-16.94c0,0-23.62,4-42.31,17.73h0a26.21,26.21,0,0,1,1.3,3.49,11.54,11.54,0,0,1,.54,4c-.32,3.84-6.09,9.61-9.5,8.33a6.78,6.78,0,0,1-2.52-1.75,13.52,13.52,0,0,1-1.93-2.65c-10.59,13-12,25.91-12.19,28.93l0,.67A55.14,55.14,0,0,0,247.54,105c10,5.8,43.56-8.52,43.56-8.52s19.72-26.26,19.3-58.29C310.4,38.23,308.12,46.36,302.71,48.33ZM245.6,77.09c-.44,1.5-4.89,2.77-5.79,1.5s-1.2-4.1,0-5.49C242.55,70,244.12,72,244.12,72S246,75.59,245.6,77.09Z" transform="translate(-126.42 -31.39)"/><path class="cls-19" d="M247.61,98.59s-1.72-6.41-1.36-9.4S263.41,65,295.3,67.84a41,41,0,0,0-9.89,2.42s7,7.2,6.85,14.35L248,100.89Z" transform="translate(-126.42 -31.39)"/><path class="cls-20" d="M212.36,329.37a93.83,93.83,0,0,0-7.46,17.39A66.33,66.33,0,0,0,227,353.28c12.28,1.28,17.09-1.42,17.09-1.42s1-11.39-2.85-21.35l-12-6.13H214.15Z" transform="translate(-126.42 -31.39)"/><path class="cls-21" d="M145,263.09s37.8.65,49.12-14.3l-.9-6.23s-16.18-4.89-26.86-1S144.25,256.9,145,263.09Z" transform="translate(-126.42 -31.39)"/><path class="cls-22" d="M151.87,261.81s3,10.25,9.61,11.54,8.5-3.17,8.5-3.17,5.16,4.8,11.29.82,8.87-14.81,6.21-21.93S154.93,256.62,151.87,261.81Z" transform="translate(-126.42 -31.39)"/><path class="cls-23" d="M149.32,256.33s2.12,11.46,17.28,12.1S188.6,258,189,252a13.12,13.12,0,0,0-2.78-9.43S163.21,235.9,149.32,256.33Z" transform="translate(-126.42 -31.39)"/><path class="cls-24" d="M347.48,197.1s1.28-5,.21-6.66-16-6.78-30.32-5.08-18.29,5.34-18.22,6.63c0,.55,0,1.2,0,1.78,0,.74,0,1.33,0,1.33a16.48,16.48,0,0,1-1.13-2,8.07,8.07,0,0,1-.93-3.87s8.52-21.32,14.92-26.91c-.3.07-4.05,1-4.25-.23s2.31-2.4,2.6-2.54h0s-12.67-.6-13.31.19c-.17.21-1-1.59-2-4.6-2.78-8.11-7.28-24.92-6.1-34.88,0,0,14.72-5.66,17.29-4.65s4.13,8.17,4.13,8.17,28.53,14.62,38.58,24.65c0,0,3,12,0,23.07l1.33,19A10.18,10.18,0,0,1,347.48,197.1Z" transform="translate(-126.42 -31.39)"/><path class="cls-25" d="M242.91,134.14s-1.71,47.4-5.55,64.65-13,37-13,37,13.1,18.77,36.17,21.88,32.76-10.55,32.76-10.55,8.24-9.88,5.11-36-6.55-49.44-6.55-49.44l-13.51-23Z" transform="translate(-126.42 -31.39)"/><path class="cls-26" d="M251,99.09s-3.34-3.27-7.8-2.46-3,10.44-1.19,13.82c2.07,3.85,7.12,3.06,7.12,3.06A13.53,13.53,0,0,0,251,99.09Z" transform="translate(-126.42 -31.39)"/><path class="cls-27" d="M245.48,103.37a3.55,3.55,0,0,0-3,.85c-1.4,1.25,2.52,5.44,2.52,5.44s-1.66-2-1-3.72,2.27-.56,2.27-.56,1.26,3.93,4.38,2.47a13.93,13.93,0,0,0-4.65-5.77c-3.45-2.53-5.47-.25-5.47-.25a4.08,4.08,0,0,1,4.94,1.54Z" transform="translate(-126.42 -31.39)"/><path class="cls-28" d="M278.93,340.18l-1.85,5.56c-1,1.91-2.34,4.15-3.9,6.63-10.16,16.29-30,42.76-35.92,49.22a8.21,8.21,0,0,1-1.47,1.38c-3.2,1.92-8.11,2.78-8.75,0-.24-1,.06-3.42.94-6.92a145.32,145.32,0,0,1,10.16-26.39c8.33-17.09,15.17-29.48,15.17-29.48l13.63-5.59,2-.81,2,1.29Z" transform="translate(-126.42 -31.39)"/><path class="cls-29" d="M212.36,331.51s17.27,11.35,31.6,11.86c0,0-.48-9.17-2.76-12.87l-25.8-3.7Z" transform="translate(-126.42 -31.39)"/><path class="cls-30" d="M278.93,340.18l-1.85,5.56c-1,1.91-2.34,4.15-3.9,6.63,0,0-10.34-4.5-17.35-2.36s-20.91,28.88-27.85,46a145.32,145.32,0,0,1,10.16-26.39c8.33-17.09,15.17-29.48,15.17-29.48l13.63-5.59,4,.48Z" transform="translate(-126.42 -31.39)"/><path class="cls-31" d="M293.53,304.4c-.5,24.68-5.71,37.51-5.71,37.51h0c-.24.36-5,7.43-10.73,3.82v-1.43s-2.54,1.28-8.17.86a10.55,10.55,0,0,1-8.06-4.41,22.62,22.62,0,0,1-7.54-.58c-3.28-1-3.28-7.11-3.28-7.11s5.64-1.43,7.09-3.84c0,0-1.4-30.76-5.38-45.57l-1.71,1s-2.87,14.89-3.84,23.21-1.42,13.38-1.29,14.95a16.35,16.35,0,0,0,1.57,4.27v0c-.12.23-1.12,2.06-5.26,3.39,0,0-4.55,3.56-14.38,3.28s-11.53-4.55-11.53-4.55a5,5,0,0,1-2.93,2.28c-1.91.42-4.75-7.13-4.75-7.13a140.73,140.73,0,0,0,3.84-28.9c.15-14.38-.86-33.88,2-46.69a37.3,37.3,0,0,1,8.95-17.31,19.23,19.23,0,0,1,2-1.92l.45.85,14.08,26.08,50.59,2.67s.5,2.24,1.13,6.13v0A220.13,220.13,0,0,1,293.53,304.4Z" transform="translate(-126.42 -31.39)"/><path class="cls-32" d="M260.08,289.36s3.93,35.49,12,46.44a65.08,65.08,0,0,1-12-16.76l-1.54,12.3s-4.52-.37-6.27,2.44a20.77,20.77,0,0,0,7.81,3.62v-3.62a14,14,0,0,0,8.83,8.55c7,2.37,12,2.16,18.9-.41-.24.36-5,7.43-10.73,3.82v-1.43s-2.54,1.28-8.17.86a10.55,10.55,0,0,1-8.06-4.41,22.62,22.62,0,0,1-7.54-.58c-3.28-1-3.28-7.11-3.28-7.11s5.64-1.43,7.09-3.84c0,0-1.4-30.76-5.38-45.57l-1.71,1s-8.05-17.52-21-25.31a141.51,141.51,0,0,0-11.22,32.57c-3.41,17.3,0,34.81,0,34.81s2.82,4.61,12.39,4.61a32.71,32.71,0,0,0,16.23-4.25v0c-.12.23-1.12,2.06-5.26,3.39,0,0-4.55,3.56-14.38,3.28s-11.53-4.55-11.53-4.55a5,5,0,0,1-2.93,2.28c-1.91.42-4.75-7.13-4.75-7.13a140.73,140.73,0,0,0,3.84-28.9c.15-14.38-.86-33.88,2-46.69a37.3,37.3,0,0,1,8.95-17.31l2.46-1.07,14.08,26.08,50.59,2.67s.5,2.24,1.13,6.13v0s-13.56,5.26-21.39,12.1S260.08,289.36,260.08,289.36Z" transform="translate(-126.42 -31.39)"/><path class="cls-33" d="M223.55,241.72s15.91,21.89,35,26.14,37.09-8,34.79-20.78l-44.18,7.57-23.54-17.34Z" transform="translate(-126.42 -31.39)"/><path class="cls-34" d="M240.24,239.91s-3.4-5.76-3-8.14S242,233.7,242,233.7s-3.13-10-1.27-11.85,9.15-3.66,12.26,1.92,4.36,10.56,1.81,13.54,2.66-3.68,2.66-3.68l-1.66-11.42a12.3,12.3,0,0,1,1.29-6.52c1.74-3.85,7.29-7.71,10.07-4.92s0-6.78,0-6.78l-9.7-3.83-13.32,11-9.48,10.27-.73,7.21,3.4,10.31Z" transform="translate(-126.42 -31.39)"/><path class="cls-35" d="M248.41,350.14s-8.47,23.62-3.9,41.93l1.81-2.63S241.06,376.29,248.41,350.14Z" transform="translate(-126.42 -31.39)"/><path class="cls-36" d="M248.93,386.7a45.48,45.48,0,0,1,1.14-23.39c4.06-11.87,10.27-8.84,12.92-6.06s-2.42,13.24-2.42,13.24,5.71-13-.45-13.53-11.43,9.81-10.88,18,2.46,8.13,2.46,8.13Z" transform="translate(-126.42 -31.39)"/><path class="cls-37" d="M257.52,362.88c-.66-1.36-5.86,8.54-4.3,10.8S258.62,365.13,257.52,362.88Z" transform="translate(-126.42 -31.39)"/><path class="cls-38" d="M323.35,122.42a19.47,19.47,0,0,0-3.8-4.75c-2.61-2.42-10.29-7.12-13.14-5.84s-8.69,7.52-11,20.63,9.53,62,19.22,92.3,32.17,114.53,32.17,114.53-5.69-10.49-13.38-36.12S316,235.51,307.83,209.29s-16.78-66.91-14.5-79.16,11.37-20.82,14.22-21.7,13.66,7.53,15.09,9.24S323.35,122.42,323.35,122.42Z" transform="translate(-126.42 -31.39)"/><path class="cls-17" d="M306.27,115.59s-6,11-7.4,21.3c0,0,5.83-10,11.53-13.13C310.4,123.76,309.48,118.64,306.27,115.59Z" transform="translate(-126.42 -31.39)"/><path class="cls-17" d="M322.05,149.54l-11.65,10s-12.67-.6-13.31.19c-.17.21-1-1.59-2-4.6l-.9-5.58,16.23,7.63S315.42,151.3,322.05,149.54Z" transform="translate(-126.42 -31.39)"/><path class="cls-39" d="M290.57,150.84l-2.49-1.14s1.81,6,0,18.15-7,30.82-25.88,21.37c-10.91-5.46-15.77-20.17-17.94-31.62h0a99.85,99.85,0,0,1-1.71-14.94c-.82-9.31-2-11.8-2-11.8l-5.88.8s3.13,14.06,2.7,45.62-13,58.48-13,58.48,9.12,17,31.61,22.35c15.66,3.71,26.27-1.68,31.26-5.29a22.63,22.63,0,0,0,3.3-2.83c3-2.31,8.43-6.89,8.58-27.77S290.57,150.84,290.57,150.84Zm-28.8,57.58c3.2.64,5.35,7.34,3.14,9.44s-8.77,4.22-10.33,0C253.16,214,258.57,207.79,261.77,208.42ZM250,215.69c2.86,1.63,6.82,12.31,6.26,17.23a11,11,0,0,1-4,7.36l-6-3,3.79,4.13s-5.7,3.38-9.8-1.51-6.72-9.92-5-11.32,8.15,6.68,8.53,7.14c-.26-.58-5.05-11.14-4.82-14.29C239.13,218.65,247.18,214.05,250,215.69Z" transform="translate(-126.42 -31.39)"/><path class="cls-40" d="M252.27,163.5s29.06,27.11,45.58,36.66l1.54-22.82L295.16,155l-22.8-5.5Z" transform="translate(-126.42 -31.39)"/><path class="cls-41" d="M286.33,131.47a12.39,12.39,0,0,1-10.24,9.4c-4.7.57-13.67-5.13-19.08-16.8-2.8-6-4.11-13.28-5.2-19.35C250.78,99,250,94.4,250.3,92.2a28.72,28.72,0,0,1,2.9-8.87s9.93-10.23,28.73-10.23c0,0,3.67,1,4.68,2.71,0,0,2.48,2.28,4.24,8.73a40.72,40.72,0,0,1,1,4.94c1,6.41-1.57,16.08-1.29,17.08s2.28,2.56,2.71,3.85S287.75,126.21,286.33,131.47Z" transform="translate(-126.42 -31.39)"/><path class="cls-42" d="M300.29,154.68c.85-9.82-2.43-14.52-2.43-14.52s.86,7.69-4.53,22.92S280.78,187,280.78,187a26.68,26.68,0,0,0-3.85-10.68,40.8,40.8,0,0,0-8.53-9.54c1.14,8.55,8.53,14.81,8.53,14.81-1.43-.46-2.77-.93-4-1.42l-.29-.11-.5-.2c-14.39-5.65-17.1-12.08-17.1-12.08a47.62,47.62,0,0,1-10.39-14.09c-4.27-8.83-3.84-20.5-3.84-20.5l-3.42,5.41c1.7-18.23,14.52-30.66,14.52-30.66a81.59,81.59,0,0,0-1.57-9.36l-.21-5.47h5.34s-.1,11.74,4.8,17.94a25.17,25.17,0,0,0,4.84,4.67,22.93,22.93,0,0,0,15.35,4.52c2.47-.21,4.62-.44,6.4-.67,3.26-.41,5.3-.79,5.79-.89l.13,0,.58,4.84s3.54,3.27,6.38,12S300.29,154.68,300.29,154.68Z" transform="translate(-126.42 -31.39)"/><path class="cls-43" d="M300.29,154.68c.85-9.82-2.43-14.52-2.43-14.52s.86,7.69-4.53,22.92S280.78,187,280.78,187a26.68,26.68,0,0,0-3.85-10.68,40.8,40.8,0,0,0-8.53-9.54c1.14,8.55,8.53,14.81,8.53,14.81-1.43-.46-2.77-.93-4-1.42,0,0-2.65-3.42-5.22-13S263.41,140,263.41,140s3.56,14.84,7.9,22.67a44.48,44.48,0,0,0,10.5,12.52c4.3-10.82,4.12-35.87,4.12-35.87.38,6.43,0,30.18,0,30.18s9.09-18.79,7.4-31.9-3.93-16.37-3.93-16.37l-.54,5.06a4.74,4.74,0,0,0-2-1.92c-.23,4.41-.9,11.38-.9,11.38a41.37,41.37,0,0,0-1.93-9.46,19.55,19.55,0,0,0-4.5,3.34c1.13,5.88,1.46,22.22,1.46,22.22a167,167,0,0,0-4.47-24.21c-2.3-1.42-9.5-9.16-9.5-9.16-7.19-4.86-9.26-8.94-9.5-9.44a19.58,19.58,0,0,0,7.59,6.69c.47.22.75.33.75.33l21,3.52,5.79-.89.13,0,.58,4.84s3.54,3.27,6.38,12S300.29,154.68,300.29,154.68Z" transform="translate(-126.42 -31.39)"/><path class="cls-44" d="M257.47,108.38a57,57,0,0,0,11.78,4.94c7.05,1.93,11,3,17.16,2.53A52.34,52.34,0,0,0,297.08,114a13.37,13.37,0,0,1-4.34,4.62c-3.34,2.42-11.35,2.64-13.06,2.53s-10.84-3.52-14.77-5.6A18.94,18.94,0,0,1,257.47,108.38Z" transform="translate(-126.42 -31.39)"/><path class="cls-45" d="M287.27,252.81c-5,3.61-15.6,9-31.26,5.29-22.49-5.33-31.61-22.35-31.61-22.35s12.53-26.93,13-58.48-2.7-45.62-2.7-45.62l5.88-.8s1.19,2.49,2,11.8a99.85,99.85,0,0,0,1.71,14.94h0c-1.82,12.31-5.86,38.38-8.81,46.39-3.93,10.63-7.17,34.39,3.12,44.37,4.55,4.42,12.71,8,12.71,8l-6.73-7s9.66,8.33,23.13,8.67C272.09,258.2,280.22,256.42,287.27,252.81Z" transform="translate(-126.42 -31.39)"/><path class="cls-46" d="M273.84,116.3a6.27,6.27,0,0,1,2.78,1c1.51.92,4.51,3.5,6.09,3s2.81-2.48,3.67-3.55,1.67-1.21,1.69-2.08a1.33,1.33,0,0,0,0-.2,1.62,1.62,0,0,0-.24-.58c-.82-1.41-3.56-4.12-3.77-4.8s.6-8.54.6-8.54l-6.9,1a56,56,0,0,1-.13,8.72s-2.84,1.13-3.3,2.47A14.36,14.36,0,0,0,273.84,116.3Z" transform="translate(-126.42 -31.39)"/><path class="cls-47" d="M278.38,118.46s-1.06-2.53-2.24-2.82a3,3,0,0,0-2.3.66,5.66,5.66,0,0,1,2.6,1A20.71,20.71,0,0,0,278.38,118.46Z" transform="translate(-126.42 -31.39)"/><path class="cls-48" d="M273.84,116.3a6.27,6.27,0,0,1,2.78,1c1.51.92,4.51,3.5,6.09,3s2.81-2.48,3.67-3.55,1.67-1.21,1.69-2.08l-.24-.78s.1.83-1.64,1.47c0,0-1.12,2.56-4.37,1.57s-4.84-4.21-7.08-4.27a1.39,1.39,0,0,0-.41,0A14.36,14.36,0,0,0,273.84,116.3Z" transform="translate(-126.42 -31.39)"/><path class="cls-49" d="M287.83,113.87l-1.64,1.47s-4-3.89-4.32-4.86.66-9.36.66-9.36l2.13-.59s-.75,7.47-.6,8.54S287.83,113.87,287.83,113.87Z" transform="translate(-126.42 -31.39)"/><path class="cls-50" d="M264.91,114.6s7.35,10.61,13.47,11.61c4.73.77,9.69-5.6,9.69-5.6a25.3,25.3,0,0,1-8.61,1.22C275.41,121.51,264.91,114.6,264.91,114.6Z" transform="translate(-126.42 -31.39)"/><path class="cls-51" d="M266.72,116.58s6.51,7,11.66,7.17,7.55-2.64,7.55-2.64a60.51,60.51,0,0,1-9.82-1c-4-.88-11.2-5.55-11.2-5.55Z" transform="translate(-126.42 -31.39)"/><path class="cls-52" d="M264.91,114.6s5.41,7.94,13.47,9.15l1.3-2.56,1.28.11-.52,2.36a6.25,6.25,0,0,0,3.77-1.22v-1.39S271.69,119.59,264.91,114.6Z" transform="translate(-126.42 -31.39)"/><path class="cls-53" d="M290.6,106.56a15.84,15.84,0,0,1-6.54,2.52,20.61,20.61,0,0,1,.27-5.62c.55-3.47,1.59-3.48,1.6-3.48l4.67-2.7s-1.74-5.67-10.17-6.3-12.64,4-14.6,7.94L278.38,100s.14,6.24-2.27,8.38c0,0-10.77-2-13.91-4.56a72.28,72.28,0,0,0,1.74,7.68L261.27,113l-5.64-6-.87-11.6,6.55-6.71,29.54-4.19a40.72,40.72,0,0,1,1,4.94C292.87,95.89,290.32,105.56,290.6,106.56Z" transform="translate(-126.42 -31.39)"/><path class="cls-54" d="M293.33,90.62l-1.24,1.13L292,90.62a41.37,41.37,0,0,0-23.48-.71c-12.82,3.41-18.23,8.67-18.23,8.67-.84-6.12-.37-16.55,11.53-22.91a30.75,30.75,0,0,1,23-2.57A27.59,27.59,0,0,1,287,75.25a25.52,25.52,0,0,1,6.31,14.68C293.33,90.35,293.33,90.58,293.33,90.62Z" transform="translate(-126.42 -31.39)"/><path class="cls-55" d="M299.18,193.77a34.09,34.09,0,0,0,22.87,10.17,43.83,43.83,0,0,0,25.43-6.84s3.62-8.9,0-13.42-34-5.37-34-5.37S296.37,186.37,299.18,193.77Z" transform="translate(-126.42 -31.39)"/><path class="cls-56" d="M234,211.1c-7,26-23.5,50.62-25.72,57.56-1.33,4.14-2.34,57-2.34,57s-16.23-16.23-17.5-21.27c-1.08-4.23-1.86-32.12,1.72-50.85a59.15,59.15,0,0,1,2.17-8.47c.12-.36.25-.71.38-1.05.43-1.11.89-2.23,1.4-3.32s1-2.06,1.48-3.08h0c7.18-14,18.6-25.71,18.6-25.71s-1.71-3.69-1.56-5.13a.18.18,0,0,1,0-.05c.12-.69,1.3-1.84,2.49-2.88h0c1.36-1.15,2.74-2.14,2.74-2.14q.24-3.44.22-7c0-1.73,0-3.48-.13-5.23-.9-21.5-6.56-44.77-7.39-48.11l-.1-.4c11.89-10.06,24.21-9.26,24.21-9.26S240.92,185.14,234,211.1Z" transform="translate(-126.42 -31.39)"/><path class="cls-57" d="M347.48,197.1s1.28-5,.21-6.66-16-6.78-30.32-5.08-18.29,5.34-18.22,6.63c0,.55,0,1.2,0,1.78l-1.16-.68a8.07,8.07,0,0,1-.93-3.87s8.52-21.32,14.92-26.91h0c4.91-2.35,23.92-14.52,37-13.89,0,0,3,12,0,23.07l1.33,19A10.18,10.18,0,0,1,347.48,197.1Z" transform="translate(-126.42 -31.39)"/><path class="cls-58" d="M205.9,325.67h4.27s-1.71-52.11,0-56.38,21.12-40.87,27.07-60.87,0-70.84-2.55-82.15-24.52-38-24.52-38A15,15,0,0,0,198.49,91s4.56-1.42,7.12.86,24.82,29.08,29.08,49,2.7,55.05-.09,67.51-22.91,49.65-26.38,60.24S205.9,325.67,205.9,325.67Z" transform="translate(-126.42 -31.39)"/><path class="cls-59" d="M299.39,197.1h5.14s6.86,15.11,16.26,16.85S333,205.53,333,205.53s.85,4.6,2.78,4.89,4.2-7,4.2-7l-4.06-12.29L323,188.78,307.9,190.2Z" transform="translate(-126.42 -31.39)"/><path class="cls-60" d="M230,177.89c-.11.39-.23.76-.35,1.13a0,0,0,0,1,0,0c-3.65,11.38-9.23,13.78-9.23,13.78s-.91.67-2.36,1.82c-3.8,3-11.26,9.25-15.59,15.27-6,8.33-11.75,25-11.1,27.34.31,1.13,1.51,2.32,2.68,3.45s2.44,2.39,2.44,3.38c0,1.92-2.35,4.7-2.35,4.7l-1.87-3.71s-10.09-3.13-28.88,3.71S145,263.09,145,263.09l-2.56-1.49a0,0,0,0,1,0,0c.2-.73,6.52-24.34,14.08-41.28,7.7-17.21,12.6-21.92,14.31-23.2S185,187.29,195,175.54s13.67-22.64,13.88-24.13-.72-8.72.42-9.61c0,0,.46-.21,1.24-.49,2.69-.93,9.16-2.66,13.85.49C230.45,145.85,233.65,165.5,230,177.89Z" transform="translate(-126.42 -31.39)"/><path class="cls-61" d="M330.55,203.09a0,0,0,0,0,0,0c-.05,3.29-.25,6.62-.79,8.19-1.29,3.75-2.46,9.19-2.36,10.15s.54,5.55,0,7.5-3.3,3.28-3.72,2.54a29.69,29.69,0,0,1-1.63-7.66c0-2.21,0-8.48,0-8.48-1.61,2.86-2.15,7.6-2.15,7.6s.78,7.58-.35,9.93-4,3.68-4.75,3.1a5.52,5.52,0,0,1-1.27-2s0,2.45-.76,3.31-4.15,1.81-5,.74-1.39-8.75-1.49-11.64.2-12,.2-12a40.72,40.72,0,0,0-2.87,7.75c.43,3-.54,9-1.23,9.83s-4.18,1.81-4.52.21-.55-11.21,1-16.63A117.12,117.12,0,0,1,304,203l.25-.55c1.87-4.05,3.47-7.34,3.47-7.34,3-2.33,16.66-5.68,16.66-5.68l6,4.81S330.6,198.63,330.55,203.09Z" transform="translate(-126.42 -31.39)"/><path class="cls-62" d="M257.81,258.49s-1.2,7.65-.45,10,17.3,2.86,20.4.72,2.93-12.69,2.93-12.69l-2,.78s.25,6.85-1.67,9.06-15.27,1.89-16.76.82l-.43-1.71,5.44-.85.22-2-5-.21.34-3.37Z" transform="translate(-126.42 -31.39)"/><path class="cls-52" d="M284,107.94a6.48,6.48,0,0,0,3.23-1.52c1.28-1.25,2.14-5.14,2.14-5.14s-3.42.37-5.08,2.18C284.32,103.46,284,106.8,284,107.94Z" transform="translate(-126.42 -31.39)"/><path class="cls-52" d="M265.83,102a10.46,10.46,0,0,0,2.07,3.66c1.28,1.21,6.66,1.37,6.66,1.37a14.37,14.37,0,0,0,.3-4.18S268.75,101,265.83,102Z" transform="translate(-126.42 -31.39)"/><path class="cls-63" d="M284,106.8a1.27,1.27,0,0,0,1.43,0c1.08-.61,1.66-4.27,1.28-4.9a7.63,7.63,0,0,0-2.39,1.51A25.37,25.37,0,0,0,284,106.8Z" transform="translate(-126.42 -31.39)"/><path class="cls-64" d="M267,102s.86,3.15,2.69,3.62,3.58-.32,3.85-3.15A27.3,27.3,0,0,0,267,102Z" transform="translate(-126.42 -31.39)"/><path class="cls-65" d="M234.16,181.54c.36-.5,8.19,1.61,8.92,3s-2.33,3.27-4,3.6-4.39-1.28-4.74-1.88S233.77,182.11,234.16,181.54Z" transform="translate(-126.42 -31.39)"/><path class="cls-66" d="M239.73,215.81c.17.85-3.67,2.5-5,2.49a10.18,10.18,0,0,1-4.32-1.41c-1.61-1.67-3-2.71-1.15-5.63.3-.47,5.53,1,7.06,1.82S239.58,215.09,239.73,215.81Z" transform="translate(-126.42 -31.39)"/><path class="cls-67" d="M224.1,256.38c-.43,1.32-7.83-.8-6.28-.19a9.92,9.92,0,0,1-3.6-3.41c-.18-.64.95-6.16,1.56-6.49s4.37,3.84,5.52,5.6S224.36,255.59,224.1,256.38Z" transform="translate(-126.42 -31.39)"/><path class="cls-68" d="M224.1,256.38a2.65,2.65,0,0,1-1.88-.61s-2.44-3.76-3.91-5.6a37,37,0,0,0-2.91-3.24,1.33,1.33,0,0,1,.68-.63S223.07,251.61,224.1,256.38Z" transform="translate(-126.42 -31.39)"/><path class="cls-69" d="M239.73,215.81l-1.69,0a20,20,0,0,0-4-2.51,26.14,26.14,0,0,0-4.93-1.63,4.83,4.83,0,0,1,.51-.86,30.16,30.16,0,0,1,6.4,1.8A10,10,0,0,1,239.73,215.81Z" transform="translate(-126.42 -31.39)"/><path class="cls-70" d="M243.08,184.5a3.06,3.06,0,0,1-1.51.18,46.23,46.23,0,0,0-4.49-1.89c-2-.69-3-1-3-1s.11-.56.6-.43C234.66,181.4,241.59,182.36,243.08,184.5Z" transform="translate(-126.42 -31.39)"/><path class="cls-71" d="M243.52,60.52a13.52,13.52,0,0,0,1.93,2.65,74.74,74.74,0,0,0-14.14,27l0-.67C231.52,86.43,232.93,73.53,243.52,60.52Z" transform="translate(-126.42 -31.39)"/><path class="cls-72" d="M297.94,31.39l-.32,2.14s-15.91,4.06-37.91,17.29c-1,.57-1.88,1.17-2.78,1.8a26.21,26.21,0,0,0-1.3-3.49h0C274.32,35.43,297.94,31.39,297.94,31.39Z" transform="translate(-126.42 -31.39)"/><path class="cls-73" d="M302.71,48.33a9.55,9.55,0,0,0,5.55-2.7c2.7-2.57,2.14-7.4,2.14-7.4S309.12,45.62,302.71,48.33Z" transform="translate(-126.42 -31.39)"/><path class="cls-74" d="M293.33,90.62l-1.24,1.13L292,90.62a41.37,41.37,0,0,0-23.48-.71c-12.82,3.41-18.23,8.67-18.23,8.67-.84-6.12-.37-16.55,11.53-22.91a30.75,30.75,0,0,1,23-2.57A27.59,27.59,0,0,1,287,75.25c-2.91-.17-13-.39-22.08,3.86C254.43,84,252.37,90.63,252.28,91a39,39,0,0,1,9.87-6.7,25.37,25.37,0,0,0-8.21,8.41,65.52,65.52,0,0,1,24.44-6c8.81-.28,13.05,1.79,14.92,3.23C293.33,90.35,293.33,90.58,293.33,90.62Z" transform="translate(-126.42 -31.39)"/><path class="cls-75" d="M272.61,180.06l-.5-.2Z" transform="translate(-126.42 -31.39)"/><path class="cls-76" d="M297.09,189.22s9.66-19.87,17.73-27.07c0,0,6.18-3.27,7.23-.92.86,1.93-1.81,12-3.17,15.75l-1.37,3.75S307.41,179.49,297.09,189.22Z" transform="translate(-126.42 -31.39)"/><path class="cls-77" d="M160.61,267.48a25,25,0,0,1,11-9.38c7.83-3.64,15.38,0,15.38,0A15.59,15.59,0,0,0,189,252l-.46-4.83-6.19-1.51L171,249.78l-14.85,10.59-2.83,2.94S156.77,266.71,160.61,267.48Z" transform="translate(-126.42 -31.39)"/><path class="cls-17" d="M193.25,242.56s8.85,25.6,11.65,39a87,87,0,0,1,.82,26.85s-14.89-7.47-18.17-15.45C187.55,292.93,186,252.57,193.25,242.56Z" transform="translate(-126.42 -31.39)"/><path class="cls-78" d="M272.11,179.86c-14.39-5.65-17.1-12.08-17.1-12.08a47.62,47.62,0,0,1-10.39-14.09c-4.27-8.83-3.84-20.5-3.84-20.5,2.45-7.27,8-13.53,8.37-14-.43.9-8.27,17.4-6,28.49,2.38,11.41,9.07,15.8,9.07,15.8-1-5.26-.82-14.17-.82-14.17s2.42,12.33,6,19.45C260.5,174.78,269.41,178.77,272.11,179.86Z" transform="translate(-126.42 -31.39)"/><path class="cls-79" d="M237.36,138.6a100.21,100.21,0,0,1,8.09-14.55A64.66,64.66,0,0,0,253,107.94S239.64,118,237.36,138.6Z" transform="translate(-126.42 -31.39)"/><path class="cls-80" d="M250,119.66a33.2,33.2,0,0,0-7,20.33c.26,11.82,7.58,22.16,7.58,22.16s-5.24-11.74-3.79-23.55A185.13,185.13,0,0,1,250,119.66Z" transform="translate(-126.42 -31.39)"/><path class="cls-81" d="M265.83,102l.61,1.48s5.46,1.87,8.42,1.57c0,0,.12-.7.12-.94a8.05,8.05,0,0,0-.12-1.26S268.84,101.59,265.83,102Z" transform="translate(-126.42 -31.39)"/><path class="cls-81" d="M284.32,103.46l-.29,1.82a9.56,9.56,0,0,0,4.88-2.21l.49-1.79A8.33,8.33,0,0,0,284.32,103.46Z" transform="translate(-126.42 -31.39)"/><path class="cls-82" d="M284.43,102.24A12.71,12.71,0,0,1,285.66,98l.27,1.15s3-2.24,5.17-2.62,5.72,4,5.72,4-5.18.43-7.42.75a15.78,15.78,0,0,0-5.08,2.18Z" transform="translate(-126.42 -31.39)"/><path class="cls-83" d="M262.2,102.5A18.82,18.82,0,0,1,267.26,98l-.43.93A9.51,9.51,0,0,1,270,98c1.91-.21,6.93,1.21,8,1.21l2.37-.71a8.6,8.6,0,0,1-3.54,4.56s-7.36-.86-9.42-1.07A21.32,21.32,0,0,0,262.2,102.5Z" transform="translate(-126.42 -31.39)"/><path class="cls-84" d="M297.09,189.22s5.84-5.36,22.46-6.53,30.76,7.75,30.76,7.75l-.51-7.25s-25.47-13.64-50.41-.5Z" transform="translate(-126.42 -31.39)"/><path class="cls-85" d="M212.59,206.78s1.8,1.81,9.25,3.14L217,215.35c-3.37,3.76-20.91,21.71-21.46,22.27,7.18-14,18.6-25.71,18.6-25.71S212.44,208.22,212.59,206.78Z" transform="translate(-126.42 -31.39)"/><path class="cls-86" d="M231.56,205.79s-7.87-3.56-13.28-2.85a10.06,10.06,0,0,0-3.17.9c1.36-1.15,2.74-2.14,2.74-2.14q.24-3.44.22-7c-3.8,3-11.26,9.25-15.59,15.27-6,8.33-11.75,25-11.1,27.34.31,1.13,1.51,2.32,2.68,3.45.46-1,1-2.06,1.48-3.08l2.24,5.75-2.24,7-5.43,3.19a59.15,59.15,0,0,1,2.17-8.47s-10.09-3.13-28.88,3.71S145,263.09,145,263.09l-2.56-1.49a0,0,0,0,1,0,0c.41-.76,11.34-21.13,42.78-19.76,0,0,8.15-19.28,9.27-27.09s-3.3-14.86-3.15-16.24,19.26-5.79,26.56-9.07c7.09-3.17,11.45-10,11.72-10.37a0,0,0,0,0,0,0S232.59,197.82,231.56,205.79Z" transform="translate(-126.42 -31.39)"/><path class="cls-87" d="M142.47,261.6s5.34-11.41,22.85-17.24,31.18-.27,31.18-.27-.21-4.27-5.13-6.84c0,0-26.33-3.82-45.94,14.32C145.43,251.57,142.68,258.82,142.47,261.6Z" transform="translate(-126.42 -31.39)"/><path class="cls-88" d="M149.32,256.33s-5.35,8.54-3.5,13,13.24-9,13.24-9a1.91,1.91,0,0,0,2.28,1.85c2.27-.14,5.41-4.7,5.41-4.7s2.27,6.55,7.83,3.42,7-14.52,7-14.52,1,6.26,3.42,6,2.51-3.28,2.51-3.28,1.76,9,5,9.2,2.09-8.21-.23-13.19A55,55,0,0,0,149.32,256.33Z" transform="translate(-126.42 -31.39)"/><polygon class="cls-17" points="91.65 163.26 99.66 155.62 95.42 171.59 91.43 170.31 91.65 163.26"/><path class="cls-89" d="M304.56,185.18l3-5.9s9-3.18,17.49-2.26l-2,5.57S311.44,182.79,304.56,185.18Z" transform="translate(-126.42 -31.39)"/><path class="cls-89" d="M144,259.16l3.14-9.13a64.22,64.22,0,0,1,9-6.1v4.37A88.19,88.19,0,0,0,144,259.16Z" transform="translate(-126.42 -31.39)"/><path class="cls-90" d="M330.55,203.09c-.36-2.69-5.48-3.85-5.48-3.85s-.87,1.92-7.48,3.75A29.7,29.7,0,0,1,304,203l.25-.55c1.87-4.05,3.47-7.34,3.47-7.34,3-2.33,16.66-5.68,16.66-5.68l6,4.81S330.6,198.63,330.55,203.09Z" transform="translate(-126.42 -31.39)"/><path class="cls-91" d="M303.89,221.06s.67-7.15,1.74-9.25a4.92,4.92,0,0,1,2.2-2.52l-1.35,5.05Z" transform="translate(-126.42 -31.39)"/><path class="cls-92" d="M313.29,236.1s-1-6.64-1.47-11.34,2.27-13.59,2.27-13.59-1.52,11.46-1.31,13.59.75,9.18.75,9.18Z" transform="translate(-126.42 -31.39)"/><path class="cls-93" d="M304.35,188.21s-6.06,7.59-6.48,8.89S307.4,194,307.4,194s-1.56,4.13,3.42,5.27,14.52-5.51,14.52-5.51a3.08,3.08,0,0,0,2.42,2.39c2.28.7,5.13-1,5.13-1s4.84,15.53,10.11,16.67,2.56-22.64,2.56-22.64S327.64,180.88,304.35,188.21Z" transform="translate(-126.42 -31.39)"/><path class="cls-94" d="M302.88,190.07s32.63-6.36,43.28,7l-.6-8s-16.78-8.68-41.21-.92Z" transform="translate(-126.42 -31.39)"/><path class="cls-95" d="M228,396.05s8.36,1.44,9.28,5.54a8.21,8.21,0,0,1-1.47,1.38c-3.2,1.92-8.11,2.78-8.75,0C226.8,402,227.1,399.55,228,396.05Z" transform="translate(-126.42 -31.39)"/><path class="cls-96" d="M146.7,261.6s12.17-9.54,25.17-13.38,21.46-1.06,21.46-1.06l-1.05-2.08s-21.24-5.27-43,11.25Z" transform="translate(-126.42 -31.39)"/><path class="cls-97" d="M208.89,151.41s7.25-2,9,1.14c0,0-12.06,17.41-19.36,22.3S178,191.81,176,195.1s-4.84,15-9.4,24.93-14.73,20-14.73,20,7.95-31.48,17.32-41.55c0,0,18.91-15.33,25.82-23S207.62,154.26,208.89,151.41Z" transform="translate(-126.42 -31.39)"/><path class="cls-98" d="M209.52,356.41c-1.06-11.74,5.89-68.24,5.89-68.24l-3.95.9h0c-7.74,1.78-24.28,5.63-25.63,6.27-1.77.84,1.9,2.55,0,3.63-.78.45-7.37.53-15.29.28-2.37-.07-4.85-.17-7.34-.29-9.5-.48-19-1.36-21.79-2.55-6-2.56-14.89-9.24-14.94-8.24-.58,9.94,5.44,40.12,9.17,58.1.47,2.24.9,4.28,1.29,6.09a70.85,70.85,0,0,1,1.33,12.91,153.19,153.19,0,0,1-2,26.38s13,5.34,37.59,6.84a100.88,100.88,0,0,0,15.74-.27c15.34-1.51,24.54-6.14,24.54-6.14s-1.2-8.1-2.41-17.18C210.85,368.37,210,361.33,209.52,356.41Zm-20-54.75,0,0c3.86,1.17,6,5.24,6,5.24l-5-1.61-3.74,3.11-1.08-2.15c-7.88,2.31-14.68,7.5-16.19,8.65A98.22,98.22,0,0,1,189.51,301.66Z" transform="translate(-126.42 -31.39)"/><path class="cls-99" d="M138,348.76a154.65,154.65,0,0,1,.27,16.56v-.05a70.85,70.85,0,0,0-1.33-12.91c-3.42-16.23-11.11-53-10.46-64.19.05-1,9,5.68,14.94,8.24,3.53,1.51,17.71,2.5,29.13,2.84l-39.8-1.06C126.42,310.57,137.34,339.76,138,348.76Z" transform="translate(-126.42 -31.39)"/><path class="cls-100" d="M211.45,289.07l-18.12,7.13-3.78,5.44,0,0a133.94,133.94,0,0,0-20.22,13.4l-.07.06,9.56-11.67,7-4.48c1.9-1.08-1.77-2.79,0-3.63C187.17,294.7,203.71,290.85,211.45,289.07Z" transform="translate(-126.42 -31.39)"/><path class="cls-101" d="M169.19,266.58s.54-2.16,3.68-3.07a5.33,5.33,0,0,1,5.26,1.54s1.29,8.23,1.57,9.29,12.53.07,18.79,7.48c0,0,2.57,14.23-4.34,22.49a16,16,0,0,1-9.32,1.85l-.15-2.13s3.82-.9,4.87-2.39c1.71-2.42,2.68-14.76,1.82-16.86s-15.51-4.25-17.08-5.38A41.76,41.76,0,0,1,169.19,266.58Z" transform="translate(-126.42 -31.39)"/><path class="cls-102" d="M179.7,274.34s-3.87,1-5,2.42c0,0,13.24,4.7,17.51,6s6.26-.92,6.26-.92S196.9,277.51,179.7,274.34Z" transform="translate(-126.42 -31.39)"/><path class="cls-52" d="M191.37,282.48s5.59-1.06,7.12-.66c0,0,.36,1.46-3,1.78S191.37,282.48,191.37,282.48Z" transform="translate(-126.42 -31.39)"/><path class="cls-103" d="M136.27,391.65s17.52-18.14,38.45-16.65,35.52,18.68,35.52,18.68S179.41,406.09,136.27,391.65Z" transform="translate(-126.42 -31.39)"/><path class="cls-104" d="M164.9,310.86a28.73,28.73,0,0,1-1.94,5.21,7.48,7.48,0,0,0-.55,2.15,10.17,10.17,0,0,0-.08,1.11c0,1.09,0,2.13-.12,3.22a26.69,26.69,0,0,1-.53,3.34,10,10,0,0,1-1.4,3,20,20,0,0,1-2,2.39,17.93,17.93,0,0,1-1.91,1.89,10.65,10.65,0,0,1-2,1.4,4.56,4.56,0,0,1-2,.42,6.67,6.67,0,0,0-2.48.22,6.75,6.75,0,0,0-2.13,1.5c-.75.74-1.46,1.53-2.27,2.22a26.52,26.52,0,0,1-2.64,2c-1.33.85-2.72,1.61-4,2.5a26.12,26.12,0,0,0-2.37,1.95,7.15,7.15,0,0,0-.88,1c-3.73-18-9.75-48.16-9.17-58.1.05-1,9,5.68,14.94,8.24,2.8,1.19,12.29,2.07,21.79,2.55l0,.08a8.68,8.68,0,0,1,.55,1.93c.11.67.16,1.35.3,2,.29,1.53.47,3.08.72,4.62A9.64,9.64,0,0,1,164.9,310.86Z" transform="translate(-126.42 -31.39)"/><path class="cls-104" d="M161.37,335.49A.76.76,0,0,0,161,335a6.34,6.34,0,0,0-.73.46,6.2,6.2,0,0,1-1.61.74,17.89,17.89,0,0,0-2.48,1.14,13.09,13.09,0,0,0-3.21,2.42c-1.24,1.22-2.57,2.83-2.73,4.65a4.67,4.67,0,0,0,1.05,3.24,21.88,21.88,0,0,0,2.35,2.56c1.17,1.14,2.93,1.54,4.37,2.24a22.29,22.29,0,0,1,2.21,1.17c.55.34,1.05.76,1.59,1.12a19.36,19.36,0,0,1,1.73,1.41,17.11,17.11,0,0,0,2.24,1.54,11.76,11.76,0,0,0,2.25,1,11.3,11.3,0,0,0,2.07.4c.82.11,1.62.25,2.45.31,1,.09,2,.05,3,.06a26.89,26.89,0,0,0,6.73-.92,13,13,0,0,0,3.37-1.25,12.74,12.74,0,0,0,2.94-2.16c2.63-2.76,3.06-6.92,2.25-10.51a12,12,0,0,0-2.28-5.14c-1.73-2.07-4.29-3.29-6.71-4.36-1.1-.48-2.24-.91-3.37-1.28a24.39,24.39,0,0,0-4.63-.87,19.24,19.24,0,0,0-6.89-.11c-1.34.32-2.51,1-3.81,1.45C162.4,334.64,161.67,334.87,161.37,335.49Z" transform="translate(-126.42 -31.39)"/><path class="cls-104" d="M214.14,392.08s-9.2,4.63-24.54,6.14a7.91,7.91,0,0,1-.52-.66c-.43-.62-.92-1.18-1.38-1.78s-1-1.45-1.45-2.17a15.91,15.91,0,0,1-1.44-2.74c-.35-.78-.73-1.56-1-2.37a24.93,24.93,0,0,1-1.4-5.09c-.26-1.92.2-3.73.34-5.63.11-1.45.05-2.9.2-4.35.37-3.45,4.67-3,7.16-2.7,1.39-1.8,5.51-1.33,8.23-.88a4.06,4.06,0,0,0,1.55.07,11.78,11.78,0,0,0,1.83-.67,7.1,7.1,0,0,1,5-.25,5,5,0,0,1,2.16,1.56,18.29,18.29,0,0,1,1.24,1.95c.45.69.9,1.39,1.39,2,.09.12.19.25.29.36C212.94,384,214.14,392.08,214.14,392.08Z" transform="translate(-126.42 -31.39)"/><path class="cls-105" d="M129.4,292.1c-.83-1.94-1.32-3.11-1.32-3.11l.52-.21,1.32,3.1Z" transform="translate(-126.42 -31.39)"/><path class="cls-105" d="M176.6,393.57a16.15,16.15,0,0,1-4.88-4.9l.49-.27a15.73,15.73,0,0,0,4.72,4.71Zm-6.48-11.63c0-.15,0-.3,0-.45a15.51,15.51,0,0,1,1.31-6.34l.51.23a15.08,15.08,0,0,0-1.25,6.11v.43ZM176,370.09l-.37-.43a18.74,18.74,0,0,1,2.14-1.53,14.88,14.88,0,0,1,4-1.73l.15.55a13.93,13.93,0,0,0-3.81,1.66A16.75,16.75,0,0,0,176,370.09Zm18.49-1.4a11.08,11.08,0,0,1-3.24-.8c-.83-.28-1.76-.6-2.75-.85l.14-.55c1,.26,2,.58,2.79.87a7.89,7.89,0,0,0,3.49.73l.18,0,.13.55-.21,0A2.32,2.32,0,0,1,194.46,368.69Zm6.43-4-.49-.28a4.35,4.35,0,0,0,.62-2.21,6.3,6.3,0,0,0-1.54-3.8l.44-.35a6.79,6.79,0,0,1,1.67,4.15A4.91,4.91,0,0,1,200.89,364.69Zm-6.62-10.51a47.16,47.16,0,0,0-6.13-2.93l.21-.52a47.76,47.76,0,0,1,6.21,3ZM181.7,349c-2-.63-4.19-1.24-6.58-1.85l.14-.55c2.4.62,4.56,1.23,6.61,1.86Zm-13.21-3.62a48.64,48.64,0,0,1-6.37-2.6l.25-.51a47.57,47.57,0,0,0,6.3,2.57Zm-12.29-6.1a37.38,37.38,0,0,1-5.27-4.43l.4-.4a36.85,36.85,0,0,0,5.19,4.37Zm-9.49-9.89c-.86-1.44-2-3.48-3.23-6.06l.5-.25c1.28,2.57,2.36,4.59,3.22,6Zm-6.21-12.23c-.94-2-1.91-4.12-2.86-6.23l.51-.23c.95,2.11,1.92,4.21,2.86,6.22Zm-5.65-12.48c-1-2.22-1.91-4.35-2.75-6.28l.52-.22c.83,1.93,1.76,4.06,2.74,6.27Z" transform="translate(-126.42 -31.39)"/><path class="cls-105" d="M185.66,398.48s-1.31-.53-3.1-1.41l.25-.51c1.77.88,3,1.39,3.06,1.4Z" transform="translate(-126.42 -31.39)"/><path class="cls-105" d="M144.86,329.88l-.37-.91q1.84-.84,3.42-1.5l.29.92-1.17.45,1.16,3.22-.95.2-1.11-3.05Z" transform="translate(-126.42 -31.39)"/><path class="cls-105" d="M148.1,327.06a2.55,2.55,0,0,1,2.23.08,1,1,0,0,1,.46.54,2.09,2.09,0,0,1-.39,1.64l2.09,1.25-1.26.41-1.3-.79.37,1.09-1.05.29-1.44-4.41Zm1.81,1c-.09-.26-.36-.34-.81-.26l.38,1.11C149.84,328.53,150,328.24,149.91,328Z" transform="translate(-126.42 -31.39)"/><path class="cls-105" d="M153.25,325.52l.38,1.12-1.6.51.2.58,1.36-.46.27.9-1.34.42.19.56,1.46-.5.35,1.09-2.41.78-1.33-4.19Z" transform="translate(-126.42 -31.39)"/><path class="cls-105" d="M155.39,327.86l.15,1.47-.94.16-.23-4.34.88-.3,2.47,3.36-.89.59-.74-1.18Zm.32-.84-.48-.78.09.93Z" transform="translate(-126.42 -31.39)"/><path class="cls-105" d="M157.62,328.19l.11-1.19a2.93,2.93,0,0,0,1.53.11.61.61,0,0,0,.29-.21.33.33,0,0,0,.08-.33c0-.17-.31-.23-.78-.19a1.87,1.87,0,0,1-1.6-.55,1.37,1.37,0,0,1-.26-.42,1,1,0,0,1,.28-1,2.37,2.37,0,0,1,1-.58,6.53,6.53,0,0,1,1.32-.29v1.09a2.42,2.42,0,0,0-1,.06.88.88,0,0,0-.29.18.29.29,0,0,0-.1.31c0,.09.14.16.34.21a5.64,5.64,0,0,0,.76.08,1.94,1.94,0,0,1,.71.12.88.88,0,0,1,.5.53,1.49,1.49,0,0,1-.2,1.39,1.28,1.28,0,0,1-.71.5A6,6,0,0,1,157.62,328.19Z" transform="translate(-126.42 -31.39)"/><path class="cls-105" d="M160.48,325.66l-.8-1.93,1-.38.72,2.26c.33.26.57.36.71.31s.18-.71-.22-1.89c-.1-.31-.23-.66-.39-1.06l.95-.29a10.51,10.51,0,0,1,.84,3.53.92.92,0,0,1-.62.85,1.53,1.53,0,0,1-.46.07C161.45,327.15,160.89,326.66,160.48,325.66Z" transform="translate(-126.42 -31.39)"/><path class="cls-105" d="M162.64,322.1a2.58,2.58,0,0,1,2.23.08,1,1,0,0,1,.46.54,2.08,2.08,0,0,1-.39,1.64l2.08,1.25-1.25.42-1.31-.8.38,1.1-1.05.28-1.44-4.4Zm1.8,1c-.08-.25-.35-.34-.8-.26l.37,1.11C164.37,323.57,164.52,323.29,164.44,323.07Z" transform="translate(-126.42 -31.39)"/><path class="cls-105" d="M167.79,320.56l.38,1.12-1.6.51.2.59,1.35-.47.28.9-1.34.43.19.55,1.46-.5.34,1.09-2.4.79-1.33-4.2Z" transform="translate(-126.42 -31.39)"/><path class="cls-105" d="M171.1,319.56l.53,1.56.72-.24-.46-1.46,1-.24,1.18,3.86-1,.33-.5-1.58-.66.23.51,1.57-.95.33-1.5-4.05Z" transform="translate(-126.42 -31.39)"/><path class="cls-105" d="M175.41,318l.38,1.12-1.6.51.2.59,1.35-.47.28.9-1.34.43.19.55,1.46-.5.34,1.09-2.4.79-1.33-4.2Z" transform="translate(-126.42 -31.39)"/><path class="cls-105" d="M175.77,317.62a2.59,2.59,0,0,1,2.23.08,1,1,0,0,1,.46.54,2.08,2.08,0,0,1-.39,1.64l2.08,1.26-1.25.41-1.31-.79.37,1.09-1,.28-1.44-4.4Zm1.8,1c-.09-.26-.35-.35-.81-.27l.38,1.11C177.5,319.09,177.64,318.81,177.57,318.6Z" transform="translate(-126.42 -31.39)"/><path class="cls-105" d="M180.92,316.08l.38,1.12-1.6.52.2.58,1.35-.46.28.89-1.34.43.19.55,1.46-.5.34,1.1-2.4.78-1.33-4.2Z" transform="translate(-126.42 -31.39)"/><rect class="cls-105" x="164.28" y="333.41" width="27.21" height="1.13" transform="translate(-323.1 356.2) rotate(-70.1)"/><path class="cls-106" d="M181.36,324.38s12.69,4.27,13.17,5.56-.81,9.37-3.16,9.73S177,336.55,177,336.55Z" transform="translate(-126.42 -31.39)"/><path class="cls-107" d="M185.17,336l.28-1.36a3.18,3.18,0,0,1-1.61-3c0-2.05,2.41-3.22,4.55-2.6,1.32.37,3.41,2,2.91,3.78a3.05,3.05,0,0,1-2.87,2.39L188,336.7Z" transform="translate(-126.42 -31.39)"/><path class="cls-106" d="M188.12,332.64c0,.81.43,1.17,1.07.9a1.12,1.12,0,0,0,.37-1.58C189.27,331.62,188.13,332.06,188.12,332.64Z" transform="translate(-126.42 -31.39)"/><path class="cls-106" d="M185.24,332.23c-.07.42.9.94,1.22.64s.8-1,.4-1.28A1,1,0,0,0,185.24,332.23Z" transform="translate(-126.42 -31.39)"/><path class="cls-108" d="M173.26,356.72a12.37,12.37,0,1,1,12.37-12.37A12.37,12.37,0,0,1,173.26,356.72Zm0-23.43a11.07,11.07,0,1,0,11.06,11.06A11.07,11.07,0,0,0,173.26,333.29Z" transform="translate(-126.42 -31.39)"/></g></g></svg>