<?xml version="1.0" encoding="utf-8"?>
<!-- Generator: Adobe Illustrator 25.4.1, SVG Export Plug-In . SVG Version: 6.00 Build 0)  -->
<svg version="1.1" id="Illustration" xmlns="http://www.w3.org/2000/svg" xmlns:xlink="http://www.w3.org/1999/xlink" x="0px"
	 y="0px" viewBox="0 0 1351 1543" style="enable-background:new 0 0 1351 1543;" xml:space="preserve">
<style type="text/css">
	.st0{display:none;}
	.st1{display:inline;}
	.st2{fill:url(#SVGID_1_);}
	.st3{fill:url(#SVGID_00000057120517759273913260000000885148177071492237_);}
	.st4{fill:url(#SVGID_00000179615834144336811290000016561577671182960536_);}
	.st5{opacity:0.3;fill:url(#SVGID_00000181073311117887059220000003281840574780591267_);enable-background:new    ;}
	.st6{fill:url(#SVGID_00000042735148316349267710000015939003713919917737_);}
	.st7{fill:url(#SVGID_00000101076790719534088560000004278228152645667502_);}
	.st8{opacity:0.3;fill:url(#SVGID_00000029744527549738950540000014743020702784297096_);enable-background:new    ;}
	.st9{fill:url(#SVGID_00000034771376780184290970000007631202115407174047_);}
	.st10{fill:url(#SVGID_00000081643777964464398330000018392483064264886676_);}
	
		.st11{clip-path:url(#SVGID_00000041996687064259225210000012286950555680732589_);fill:url(#SVGID_00000178164768723791288750000015487265621382000548_);}
	
		.st12{opacity:0.3;clip-path:url(#SVGID_00000111167152031700783660000006955265677942139305_);fill:url(#SVGID_00000057120562027807316850000006698826906135126690_);enable-background:new    ;}
	.st13{fill:url(#SVGID_00000142880432062124979430000010833155502739845536_);}
	.st14{fill:#FFFFFF;}
	.st15{opacity:0.3;}
	.st16{fill:url(#SVGID_00000083795544634601271950000008534839071014258079_);}
	.st17{fill:url(#SVGID_00000047771211009102245360000007415118932550215596_);}
	.st18{fill:url(#SVGID_00000175285177812271079300000010677087213176516013_);}
	.st19{fill:url(#SVGID_00000108304458824029301180000003529196825343597443_);}
	.st20{fill:url(#SVGID_00000127024621415664146390000000292662699331888046_);}
	.st21{fill:url(#SVGID_00000012439579268879441140000004993138966313530268_);}
	.st22{fill:url(#SVGID_00000016782326809938503480000000360928347443715490_);}
	.st23{fill:url(#SVGID_00000116933455474764192030000016840576473921096853_);}
	.st24{fill:url(#SVGID_00000083069758851871539000000002956946479943556500_);}
	.st25{fill:url(#SVGID_00000062164990451504220760000017353602346934003120_);}
	.st26{fill:url(#SVGID_00000142169550954432254290000002450189940095121840_);}
	.st27{fill:url(#SVGID_00000175301445979581694220000010356244691937236157_);}
	.st28{fill:url(#SVGID_00000150788517748210914170000015553859895369482387_);}
	.st29{fill:url(#SVGID_00000134227008722626035930000008590814604893346178_);}
	.st30{fill:url(#SVGID_00000073693253587854954440000002706236546318938510_);}
	.st31{fill:url(#SVGID_00000009574928010741036230000002746453058593154696_);}
	.st32{fill:url(#SVGID_00000031194772758133838460000017490760840577680298_);}
	.st33{fill:url(#SVGID_00000073709274015867893530000000962011262898786189_);}
	.st34{fill:url(#SVGID_00000103957337957909451300000001843621677169681078_);}
	.st35{opacity:0.3;fill:url(#SVGID_00000113354982600969819700000005191625168516021427_);enable-background:new    ;}
	.st36{fill:url(#SVGID_00000049199008222412976870000018039953163418076567_);}
	.st37{fill:url(#SVGID_00000028309106909526442960000017125238227361681085_);}
	.st38{fill:url(#SVGID_00000041286223872650566400000014325865278932369833_);}
	.st39{fill:url(#SVGID_00000122681387320593497850000016550338400987810949_);}
	.st40{fill:url(#SVGID_00000165953235396022084910000010645011896286064811_);}
	.st41{fill:url(#SVGID_00000121977126896710382480000008056794041948158090_);}
	.st42{fill:url(#SVGID_00000183206824675377890420000014313719569047728574_);}
	.st43{fill:url(#SVGID_00000008861924215822997680000016545170009636948886_);}
	.st44{fill:#665757;}
	.st45{fill:url(#SVGID_00000088118671987067787180000010081548103320860061_);}
	.st46{fill:#132B38;}
	.st47{fill:#1E3D57;}
	.st48{fill:#1C4154;}
	.st49{fill:#2F5778;}
	.st50{fill:#285173;}
	.st51{fill:#EEA886;}
	.st52{fill:#EBDBDB;}
	.st53{fill:#EDDCC5;}
	.st54{fill:#AB9F8E;}
	.st55{fill:#BCC0CF;}
	.st56{fill:#EEA987;}
	.st57{fill:#385369;}
	.st58{fill:#665249;}
	.st59{fill:#A0CC83;}
	.st60{fill:#A77860;}
	.st61{fill:#2A3E4F;}
	.st62{fill:url(#SVGID_00000102546895863424869530000016899913107523796612_);}
	.st63{fill:url(#SVGID_00000042011898470962988510000016786858525538099349_);}
	.st64{fill:#DB9C7C;}
	.st65{fill:#CF8C6C;}
	.st66{fill:#8A664D;}
	.st67{fill:#4A3F3F;}
	.st68{fill:#86AB6E;}
	.st69{fill:#244057;}
	.st70{fill:#81807E;}
	.st71{fill:#74945F;}
	.st72{fill:#5B87AB;}
	.st73{fill:#877373;}
</style>
<g id="Online_marketing" class="st0">
	<g class="st1">
		<g>
			
				<linearGradient id="SVGID_1_" gradientUnits="userSpaceOnUse" x1="342.2264" y1="335.9384" x2="347.2657" y2="119.2441" gradientTransform="matrix(0.9987 -5.180000e-02 5.180000e-02 0.9987 167.1829 577.6108)">
				<stop  offset="3.597000e-03" style="stop-color:#F36F56"/>
				<stop  offset="1" style="stop-color:#FFC444"/>
			</linearGradient>
			<path class="st2" d="M539.1,758.5c0,0,13.5,68.7-60.4,121.2l82.5,14.5c0,0,23.5-47.7,0.5-123.6L539.1,758.5z"/>
			
				<linearGradient id="SVGID_00000094607669412687970890000012583762186481156233_" gradientUnits="userSpaceOnUse" x1="-2455.8057" y1="113.9706" x2="-2453.3918" y2="149.0831" gradientTransform="matrix(-0.9987 5.180000e-02 5.180000e-02 0.9987 -2013.4652 690.9136)">
				<stop  offset="3.597000e-03" style="stop-color:#F36F56"/>
				<stop  offset="1" style="stop-color:#FFC444"/>
			</linearGradient>
			<path style="fill:url(#SVGID_00000094607669412687970890000012583762186481156233_);" d="M452.1,693c0,0,2.9-7.9,2.2-11.4
				s-9.7-7.7-15.9-12.2s0.5,4.8,2,6.9c1.5,2.1,6.5,5.2,6.2,12.7L452.1,693z"/>
		</g>
		<g>
			<g>
				<g>
					
						<linearGradient id="SVGID_00000012465990672355325990000004126499081941200541_" gradientUnits="userSpaceOnUse" x1="-8503.9434" y1="-538.5718" x2="-8671.9512" y2="-340.4322" gradientTransform="matrix(0.9353 -0.3538 0.3538 0.9353 8697.6465 -1961.5825)">
						<stop  offset="0" style="stop-color:#311944"/>
						<stop  offset="1" style="stop-color:#893976"/>
					</linearGradient>
					<path style="fill:url(#SVGID_00000012465990672355325990000004126499081941200541_);" d="M642.5,837.5
						c-22.1,6.5-47.7,0.8-64.3-16.1l-235.8-238c-21.5-21.7-20.3-55.3,2.6-75.4c23.1-20.2,70.4-23.2,92.3-1.4l240.2,239.9
						c22.7,22.6,20.9,56.9-3.9,76.4C667.5,827.8,649.8,835.4,642.5,837.5z"/>
					
						<linearGradient id="SVGID_00000158011957972797873250000011914427783643683714_" gradientUnits="userSpaceOnUse" x1="-8525.5098" y1="-556.7919" x2="-8692.6807" y2="-359.6409" gradientTransform="matrix(0.9353 -0.3538 0.3538 0.9353 8697.6465 -1961.5825)">
						<stop  offset="0" style="stop-color:#311944"/>
						<stop  offset="1" style="stop-color:#893976"/>
					</linearGradient>
					
						<path style="opacity:0.3;fill:url(#SVGID_00000158011957972797873250000011914427783643683714_);enable-background:new    ;" d="
						M344.8,508.1c23.1-20.2,70.4-23.2,92.3-1.4L656.8,726c-21.3,2.2-44.1,10.9-73.4,0.5c-48.8-17.4-46.4-63.2-89.4-87.6
						c-19.7-11.2-50.9-19.1-103-6.2l-48.7-49.2C320.8,561.9,321.9,528.2,344.8,508.1z"/>
				</g>
				<g>
					
						<linearGradient id="SVGID_00000111883323641146984130000007131984393834160528_" gradientUnits="userSpaceOnUse" x1="6279.9238" y1="-688.265" x2="6138.0967" y2="-521.0002" gradientTransform="matrix(-0.9353 0.3538 0.3538 0.9353 6341.2739 -1069.859)">
						<stop  offset="0" style="stop-color:#311944"/>
						<stop  offset="1" style="stop-color:#893976"/>
					</linearGradient>
					<path style="fill:url(#SVGID_00000111883323641146984130000007131984393834160528_);" d="M248.2,478.9c1.1-0.4,2.2-0.7,3.2-0.9
						l76.1-28.3l75.1,189l-74.2,25.6c-1.7,1.1-3.6,2.1-5.5,2.8c-26.2,9.4-64.1-25.1-84.8-77C217.5,538,222,488.3,248.2,478.9z"/>
					
						<linearGradient id="SVGID_00000091005265175688591130000006376478106979561885_" gradientUnits="userSpaceOnUse" x1="-8419.623" y1="-900.8511" x2="-8261.3633" y2="-25.4676" gradientTransform="matrix(0.9353 -0.3538 0.3538 0.9353 8697.6465 -1961.5825)">
						<stop  offset="0" style="stop-color:#AA80F9"/>
						<stop  offset="0.9964" style="stop-color:#6165D7"/>
					</linearGradient>
					<path style="fill:url(#SVGID_00000091005265175688591130000006376478106979561885_);" d="M327.5,449.6
						c-3.9,73.4,21,136.1,75.1,189l637.3-30.7L835,75.4L327.5,449.6z"/>
					
						<linearGradient id="SVGID_00000027605851670584042060000008326002186181443757_" gradientUnits="userSpaceOnUse" x1="-8473.1943" y1="-921.0648" x2="-8307.7393" y2="-5.8882" gradientTransform="matrix(0.9353 -0.3538 0.3538 0.9353 8697.6465 -1961.5825)">
						<stop  offset="0" style="stop-color:#AA80F9"/>
						<stop  offset="0.9964" style="stop-color:#6165D7"/>
					</linearGradient>
					
						<path style="opacity:0.3;fill:url(#SVGID_00000027605851670584042060000008326002186181443757_);enable-background:new    ;" d="
						M824.6,507.2c-61.8,0-108.2-68.5-171.9-48.5c-50,15.7-46.8,66.5-96.9,79c-51.4,12.7-79.8-34.9-142.1-32.9
						c-28.4,0.9-54.1,11.9-76.8,28c11.5,38.8,33.4,74,65.9,105.8L1040,608l-105.2-168C891,491.2,854.5,507.2,824.6,507.2z"/>
					
						<linearGradient id="SVGID_00000098918138293734666120000008040611444575218358_" gradientUnits="userSpaceOnUse" x1="5688.1104" y1="-782.687" x2="5367.2817" y2="-404.3188" gradientTransform="matrix(-0.9353 0.3538 0.3538 0.9353 6341.2739 -1069.859)">
						<stop  offset="3.597120e-03" style="stop-color:#E38DDD"/>
						<stop  offset="1" style="stop-color:#9571F6"/>
					</linearGradient>
					<path style="fill:url(#SVGID_00000098918138293734666120000008040611444575218358_);" d="M823,380.5
						c60.2,151.5,170.9,252,247.3,224.6c76.3-27.5,89.4-172.5,29.2-324C1039.2,129.5,928.6,29,852.2,56.5
						C775.8,83.9,762.8,229,823,380.5z"/>
					
						<linearGradient id="SVGID_00000005978274820443684060000015335090743782498236_" gradientUnits="userSpaceOnUse" x1="5716.0469" y1="-598.3116" x2="5398.8369" y2="-590.2301" gradientTransform="matrix(-0.9353 0.3538 0.3538 0.9353 6341.2739 -1069.859)">
						<stop  offset="0" style="stop-color:#311944"/>
						<stop  offset="1" style="stop-color:#893976"/>
					</linearGradient>
					<path style="fill:url(#SVGID_00000005978274820443684060000015335090743782498236_);" d="M1066.6,595.7
						c16.2-5.8,29.6-18,39.7-36.3c10.3-18.5,16.8-42.4,19.4-70.8c5.4-59.7-7.4-132.3-36-204.1c-28.6-71.9-69.4-134.3-115-175.7
						C953,89.1,931.5,75.4,910.9,68c-20.3-7.3-38.8-8-55-2.2c-16.2,5.8-29.5,18-39.7,36.3c-10.3,18.5-16.8,42.4-19.4,70.8
						c-2.2,25-1.3,52.2,2.6,80.6c5.5,39.6,46.6,68.2,63.2,110.1c17.7,44.5,10.2,98.7,35.6,133.3c15.6,21.3,32.3,40.1,49.7,55.9
						c21.7,19.7,43.1,33.4,63.8,40.8C1031.8,600.8,1050.3,601.5,1066.6,595.7z"/>
					<g>
						<g>
							<g>
								<defs>
									<path id="SVGID_00000085935757482726641650000003182570589965082527_" d="M1066.6,595.7c16.2-5.8,29.6-18,39.7-36.3
										c10.3-18.5,16.8-42.4,19.4-70.8c5.4-59.7-7.4-132.3-36-204.1c-28.6-71.9-69.4-134.3-115-175.7
										C953,89.1,931.5,75.4,910.9,68c-20.3-7.3-38.8-8-55-2.2c-16.2,5.8-29.5,18-39.7,36.3c-10.3,18.5-16.8,42.4-19.4,70.8
										c-5.4,59.7,7.4,132.3,36,204.1c28.6,71.9,69.4,134.3,115,175.7c21.7,19.7,43.1,33.4,63.8,40.8
										C1031.8,600.8,1050.3,601.5,1066.6,595.7z"/>
								</defs>
								<clipPath id="SVGID_00000049926684445722491910000017516650869859045790_">
									<use xlink:href="#SVGID_00000085935757482726641650000003182570589965082527_"  style="overflow:visible;"/>
								</clipPath>
								
									<linearGradient id="SVGID_00000072279859097461639170000017871067498042025605_" gradientUnits="userSpaceOnUse" x1="-8199.0107" y1="-877.3741" x2="-8095.3442" y2="-303.9814" gradientTransform="matrix(0.9353 -0.3538 0.3538 0.9353 8697.6465 -1961.5825)">
									<stop  offset="0" style="stop-color:#FFC444"/>
									<stop  offset="0.9964" style="stop-color:#F36F56"/>
								</linearGradient>
								
									<path style="clip-path:url(#SVGID_00000049926684445722491910000017516650869859045790_);fill:url(#SVGID_00000072279859097461639170000017871067498042025605_);" d="
									M974,330.2c27.6,69.5,1.2,142.1-58.2,161.9c-58.5,19.5-126.9-19.8-153.8-87.3s-2.5-139.4,55.2-160.8
									C875.8,222.3,946.4,260.8,974,330.2z"/>
							</g>
						</g>
						<g>
							<g>
								<defs>
									<path id="SVGID_00000170247215573807276930000002068577006385406085_" d="M1066.6,595.7c16.2-5.8,29.6-18,39.7-36.3
										c10.3-18.5,16.8-42.4,19.4-70.8c5.4-59.7-7.4-132.3-36-204.1c-28.6-71.9-69.4-134.3-115-175.7
										C953,89.1,931.5,75.4,910.9,68c-20.3-7.3-38.8-8-55-2.2c-16.2,5.8-29.5,18-39.7,36.3c-10.3,18.5-16.8,42.4-19.4,70.8
										c-5.4,59.7,7.4,132.3,36,204.1c28.6,71.9,69.4,134.3,115,175.7c21.7,19.7,43.1,33.4,63.8,40.8
										C1031.8,600.8,1050.3,601.5,1066.6,595.7z"/>
								</defs>
								<clipPath id="SVGID_00000110437242760374037300000017320213743548128672_">
									<use xlink:href="#SVGID_00000170247215573807276930000002068577006385406085_"  style="overflow:visible;"/>
								</clipPath>
								
									<linearGradient id="SVGID_00000117671300504436240260000015360179726480577419_" gradientUnits="userSpaceOnUse" x1="-8137.6943" y1="-802.3885" x2="-8061.333" y2="-380.0068" gradientTransform="matrix(0.9353 -0.3538 0.3538 0.9353 8697.6465 -1961.5825)">
									<stop  offset="0" style="stop-color:#FFC444"/>
									<stop  offset="0.9964" style="stop-color:#F36F56"/>
								</linearGradient>
								
									<path style="opacity:0.3;clip-path:url(#SVGID_00000110437242760374037300000017320213743548128672_);fill:url(#SVGID_00000117671300504436240260000015360179726480577419_);enable-background:new    ;" d="
									M964.3,332.4c20.5,51.6,13.2,101.1-15.8,110.3c-28.6,9.1-67.7-24.3-87.6-74.4c-19.9-50.2-13.7-99.3,14.4-109.8
									C903.7,247.8,943.8,280.9,964.3,332.4z"/>
							</g>
						</g>
					</g>
				</g>
			</g>
			<g>
				
					<linearGradient id="SVGID_00000015322831904659130650000003752099660597591176_" gradientUnits="userSpaceOnUse" x1="605.1526" y1="-1112.3051" x2="740.6108" y2="-861.0699" gradientTransform="matrix(0.9226 -0.3857 0.3857 0.9226 827.8252 1327.9719)">
					<stop  offset="0" style="stop-color:#FFC444"/>
					<stop  offset="0.9964" style="stop-color:#F36F56"/>
				</linearGradient>
				<path style="fill:url(#SVGID_00000015322831904659130650000003752099660597591176_);" d="M1112.8,78.8
					c17.6,40-11,89.5-63.9,110.6c-52.9,21-110,5.6-127.6-34.4c-17.6-40,11-89.5,63.9-110.6C1038.1,23.4,1095.3,38.8,1112.8,78.8z"/>
				<path class="st14" d="M1002.4,163.3l-30.3-68.9c-2-4.4,0.7-8.9,4.9-8.3l76.2,10.2c4.8,0.6,7.7,7.2,4.8,10.8l-45.9,58.7
					C1009.5,169.1,1004.3,167.7,1002.4,163.3z"/>
				<g class="st15">
					
						<linearGradient id="SVGID_00000071524293748124579910000009520086774054712470_" gradientUnits="userSpaceOnUse" x1="566.2035" y1="-1097.8958" x2="699.0771" y2="-831.2504" gradientTransform="matrix(0.9226 -0.3857 0.3857 0.9226 827.8252 1327.9719)">
						<stop  offset="0" style="stop-color:#FFC444"/>
						<stop  offset="0.9964" style="stop-color:#F36F56"/>
					</linearGradient>
					<path style="fill:url(#SVGID_00000071524293748124579910000009520086774054712470_);" d="M1064.1,161.7
						c-20.9-16.8-18.1-41.5-39.8-49.1c-22-7.8-36.9,13.5-64.1,10.9c-10.5-1-23.8-5.7-38.5-20.3c-7,17.1-7.6,35.2-0.3,51.8
						c17.6,40,74.7,55.5,127.6,34.4c12.1-4.8,22.9-11.1,32.2-18.5C1074,168.5,1068.4,165.2,1064.1,161.7z"/>
				</g>
			</g>
			<g>
				
					<linearGradient id="SVGID_00000139252226855924299690000003632942981450663338_" gradientUnits="userSpaceOnUse" x1="808.8949" y1="-618.923" x2="974.649" y2="-311.4977" gradientTransform="matrix(0.9701 -0.2427 0.2427 0.9701 471.0807 994.2677)">
					<stop  offset="0" style="stop-color:#AA80F9"/>
					<stop  offset="0.9964" style="stop-color:#6165D7"/>
				</linearGradient>
				<path style="fill:url(#SVGID_00000139252226855924299690000003632942981450663338_);" d="M1293.3,237.8
					c13.7,51.9-30.8,107.2-99.3,123.5c-68.5,16.3-135.1-12.5-148.8-64.4c-13.7-51.9,30.8-107.2,99.3-123.5
					C1213.1,157,1279.7,185.9,1293.3,237.8z"/>
				<path class="st14" d="M1153.1,205.9c-24.5,5.9-39.4,29.5-33.3,52.8c4,15.1,31.8,45.8,51,65.6c8,8.2,22.3,4.8,25.2-6
					c7.1-26,16.5-65.6,12.5-80.7C1202.4,214.2,1177.6,200,1153.1,205.9z M1170.2,270.7c-13.2,3.1-26.5-4.5-29.8-17
					c-3.3-12.5,4.7-25.2,17.9-28.4c13.2-3.1,26.5,4.5,29.8,17C1191.3,254.9,1183.3,267.6,1170.2,270.7z"/>
				<g class="st15">
					
						<linearGradient id="SVGID_00000087398847986355395190000012135101757144961186_" gradientUnits="userSpaceOnUse" x1="760.5197" y1="-600.9255" x2="923.0897" y2="-274.6868" gradientTransform="matrix(0.9701 -0.2427 0.2427 0.9701 471.0807 994.2677)">
						<stop  offset="0" style="stop-color:#AA80F9"/>
						<stop  offset="0.9964" style="stop-color:#6165D7"/>
					</linearGradient>
					<path style="fill:url(#SVGID_00000087398847986355395190000012135101757144961186_);" d="M1217.8,330.2
						c-22.3-24.2-13.9-53.7-38.9-66.8c-25.3-13.3-47.6,10-80.2,2c-12.6-3.1-27.9-11.1-43-31.5c-11.8,19.6-16.1,41.6-10.4,63.1
						c13.7,51.9,80.2,80.8,148.8,64.4c15.7-3.7,30.1-9.5,42.9-16.8C1228.5,340.1,1222.4,335.1,1217.8,330.2z"/>
				</g>
			</g>
			<g>
				
					<linearGradient id="SVGID_00000182499016240967361290000010439520341020364928_" gradientUnits="userSpaceOnUse" x1="1250.3457" y1="217.1175" x2="1380.321" y2="458.1826" gradientTransform="matrix(0.9805 0.1963 -0.1963 0.9805 -77.0422 -47.3664)">
					<stop  offset="0" style="stop-color:#FF9085"/>
					<stop  offset="1" style="stop-color:#FB6FBB"/>
				</linearGradient>
				<path style="fill:url(#SVGID_00000182499016240967361290000010439520341020364928_);" d="M1225.2,501.3
					c-8.8,41.6-58.5,67.4-111.8,57.3c-54.3-10.2-91.6-53.4-82.6-96.3c9-42.9,60.8-68.2,114.8-56.7
					C1198.7,416.9,1234,459.6,1225.2,501.3z"/>
				
					<linearGradient id="SVGID_00000089548897322058273480000014609966817131359659_" gradientUnits="userSpaceOnUse" x1="1250.3457" y1="217.1175" x2="1380.321" y2="458.1826" gradientTransform="matrix(0.9805 0.1963 -0.1963 0.9805 -77.0422 -47.3664)">
					<stop  offset="0" style="stop-color:#FF9085"/>
					<stop  offset="1" style="stop-color:#FB6FBB"/>
				</linearGradient>
				<path style="fill:url(#SVGID_00000089548897322058273480000014609966817131359659_);" d="M1225.2,501.3
					c-8.8,41.6-58.5,67.4-111.8,57.3c-54.3-10.2-91.6-53.4-82.6-96.3c9-42.9,60.8-68.2,114.8-56.7
					C1198.7,416.9,1234,459.6,1225.2,501.3z"/>
				<g>
					<path class="st14" d="M1188,472.5L1188,472.5c-1.8-11.5-10.3-21.1-22.2-23.6c-15.5-3.2-30.9,7.1-34.2,23.1
						c3.4-16-6.6-31.6-22.3-34.8c-12.1-2.5-24.1,3-30.6,13l0,0c-24.2,35.7,39.5,85.6,39.5,85.6S1195.3,513.7,1188,472.5z"/>
				</g>
				<g class="st15">
					
						<linearGradient id="SVGID_00000010284922798323922790000017541704472361405072_" gradientUnits="userSpaceOnUse" x1="1212.7343" y1="231.3192" x2="1340.6157" y2="487.9466" gradientTransform="matrix(0.9805 0.1963 -0.1963 0.9805 -77.0422 -47.3664)">
						<stop  offset="0" style="stop-color:#FF9085"/>
						<stop  offset="1" style="stop-color:#FB6FBB"/>
					</linearGradient>
					<path style="fill:url(#SVGID_00000010284922798323922790000017541704472361405072_);" d="M1141,543.6
						c-6.9-24.8,9.3-43.5-3.4-61.3c-13-18.1-36.9-8.5-57.2-25.3c-7.8-6.5-15.8-17.5-19.3-37.7c-15.5,10.4-26.6,25.1-30.3,42.9
						c-9,42.9,28.3,86.1,82.6,96.3c12.3,2.3,24.4,2.7,35.8,1.5C1144.9,554.3,1142.4,548.7,1141,543.6z"/>
				</g>
			</g>
		</g>
	</g>
	<g class="st1">
		
			<linearGradient id="SVGID_00000074434760326799287840000006153553687247560867_" gradientUnits="userSpaceOnUse" x1="57.9197" y1="1046.0251" x2="81.0384" y2="1046.0251" gradientTransform="matrix(0.9858 -0.1678 0.1678 0.9858 258.1085 333.6191)">
			<stop  offset="3.597000e-03" style="stop-color:#F36F56"/>
			<stop  offset="1" style="stop-color:#FFC444"/>
		</linearGradient>
		<path style="fill:url(#SVGID_00000074434760326799287840000006153553687247560867_);" d="M494.2,1340l-1.7,25.8
			c0,0,3.8,3.9,11.2,1.2l8.1-25.3L494.2,1340z"/>
		
			<linearGradient id="SVGID_00000003091416409099920390000000896255717612313276_" gradientUnits="userSpaceOnUse" x1="101.2867" y1="954.8727" x2="43.221" y2="1158.5961" gradientTransform="matrix(0.9858 -0.1678 0.1678 0.9858 258.1085 333.6191)">
			<stop  offset="0" style="stop-color:#444B8C"/>
			<stop  offset="0.9964" style="stop-color:#26264F"/>
		</linearGradient>
		<path style="fill:url(#SVGID_00000003091416409099920390000000896255717612313276_);" d="M497.6,1359c0,0-13.2,5.2-10.7,10.7
			c1.4,3,6.2,9.8,10.3,15.4c3.8,5.2,10.7,7.5,17.1,5.7c2.2-0.6,4.3-1.2,6.3-1.7c4-1,4.2-6.3,0.3-7.7c-1.9-0.6-3.8-1.2-5.4-1.4
			c-4.9-0.7-11.5-11.7-12.3-16C502.5,1359.7,497.6,1359,497.6,1359z"/>
		
			<linearGradient id="SVGID_00000119817560381753365720000011149617332173248926_" gradientUnits="userSpaceOnUse" x1="562.0468" y1="567.6" x2="371.3688" y2="724.2285" gradientTransform="matrix(1 0 0 1 0 594.2203)">
			<stop  offset="0" style="stop-color:#AB316D"/>
			<stop  offset="1" style="stop-color:#792D3D"/>
		</linearGradient>
		<path style="fill:url(#SVGID_00000119817560381753365720000011149617332173248926_);" d="M465.7,1092.6
			c19.5,6.4,91.8,32.4,107.9,92c0.8,3.2,3.1,12.1,3.2,26.5c0.4,60.2-36.4,111.1-63.1,140.8c-8.5-0.1-16.9-0.3-25.3-0.4
			c-4.2-15.4-8.1-38.3-2-64.2c9.2-39.5,33.2-49.8,28.6-69.2c-8.4-35.2-94.3-29.9-102.4-61.4C409.6,1145.4,416.1,1126,465.7,1092.6z"
			/>
		
			<linearGradient id="SVGID_00000168098288097174478890000008647658279349294249_" gradientUnits="userSpaceOnUse" x1="506.3483" y1="437.0374" x2="453.0687" y2="623.9678" gradientTransform="matrix(0.9956 9.370000e-02 -9.370000e-02 0.9956 -135.0431 743.5156)">
			<stop  offset="0" style="stop-color:#444B8C"/>
			<stop  offset="0.9964" style="stop-color:#26264F"/>
		</linearGradient>
		<path style="fill:url(#SVGID_00000168098288097174478890000008647658279349294249_);" d="M224,1452.9l36.7-0.8
			c2.2,0,3.2-2.7,1.5-4.1c-1.7-1.4-4.1-2.5-7.1-2.2c-7,0.7-22.6-8.6-29.8-6.6c-2.3,0.6-4.2,5.8-5.2,7.3
			C218.3,1449.3,220.5,1453,224,1452.9z"/>
		
			<linearGradient id="SVGID_00000041998614162291504670000018316900764363501190_" gradientUnits="userSpaceOnUse" x1="424.0314" y1="652.4711" x2="451.5895" y2="652.4711" gradientTransform="matrix(0.9956 9.370000e-02 -9.370000e-02 0.9956 -135.0431 743.5156)">
			<stop  offset="3.597000e-03" style="stop-color:#F36F56"/>
			<stop  offset="1" style="stop-color:#FFC444"/>
		</linearGradient>
		<path style="fill:url(#SVGID_00000041998614162291504670000018316900764363501190_);" d="M240.5,1426.1l-15.1,13.1
			c0,0,5.3,3.8,13,2.2l15.5-10.1L240.5,1426.1z"/>
		<g class="st15">
			
				<linearGradient id="SVGID_00000145024551321314043310000007424440577215170963_" gradientUnits="userSpaceOnUse" x1="228.022" y1="1017.5372" x2="3.2527" y2="896.4288" gradientTransform="matrix(0.9858 -0.1678 0.1678 0.9858 258.1085 333.6191)">
				<stop  offset="0" style="stop-color:#AB316D"/>
				<stop  offset="1" style="stop-color:#792D3D"/>
			</linearGradient>
			<path style="fill:url(#SVGID_00000145024551321314043310000007424440577215170963_);" d="M530.5,1247.9
				c10.1-26,22.3-58.1,8.4-76.4c-14-18.5-44.8-2.9-75.7-17.7c-11.5-5.5-23.2-15.4-33-33.2c-17.3,17-19.7,28.5-17.7,36.2
				c8,31.5,94,26.2,102.4,61.4c4.6,19.4-19.4,29.6-28.6,69.2c-5.2,22.2-3.1,42.3,0.3,57.3c3-13.9,7.7-28.5,14.8-43.2
				C512.6,1278.5,519.9,1275.3,530.5,1247.9z"/>
		</g>
		
			<linearGradient id="SVGID_00000008848632564711944540000001607589072766276228_" gradientUnits="userSpaceOnUse" x1="-342.6419" y1="1012.9684" x2="-553.7884" y2="1232.2358" gradientTransform="matrix(0.9542 -0.2992 0.2992 0.9542 425.3515 93.5695)">
			<stop  offset="0" style="stop-color:#AB316D"/>
			<stop  offset="1" style="stop-color:#792D3D"/>
		</linearGradient>
		<path style="fill:url(#SVGID_00000008848632564711944540000001607589072766276228_);" d="M476.9,1085.1
			c-11.9,52-37.2,131.3-95.3,214.2c-43,61.3-90.2,105-127.2,134.2c-2.6,0.8-7.1,1.7-12.6,1c-4.1-0.5-7.3-1.6-9.5-2.6
			c2.6-14.7,7.9-36.3,20.7-59.7c23.3-42.8,44.2-41.4,67.6-79.2c17.2-27.6,22.7-57,33.9-115.7c8.6-45.3,8.6-56.2,20.4-69.2
			C398.7,1081.8,443.6,1081.5,476.9,1085.1z"/>
		<g class="st15">
			
				<linearGradient id="SVGID_00000142870277546359430610000002026762685996192899_" gradientUnits="userSpaceOnUse" x1="-360.006" y1="1006.3994" x2="-566.2724" y2="1220.5989" gradientTransform="matrix(0.9542 -0.2992 0.2992 0.9542 425.3515 93.5695)">
				<stop  offset="0" style="stop-color:#AB316D"/>
				<stop  offset="1" style="stop-color:#792D3D"/>
			</linearGradient>
			<path style="fill:url(#SVGID_00000142870277546359430610000002026762685996192899_);" d="M261.8,1381.8
				c8.3-12.5,23.1-25.6,52.3-51.2c30.1-26.6,29-21.8,34.9-29.6c26.5-35.2,12.2-72.7,18.7-118c3.7-25.3,15.4-58.3,49.6-95.4
				c-16,2.8-31.4,8.8-42.5,20.6c-13.7,14.4-12.7,28.5-20.4,69.2c-11.2,58.7-16.7,88.1-33.9,115.7c-23.5,37.8-44.2,36.4-67.6,79.2
				c-12.8,23.4-18.1,45-20.7,59.7c2.2,1,5.4,2.2,9.5,2.6c3.2,0.4,6.1,0.2,8.5-0.2C248.3,1404.6,257.6,1388.1,261.8,1381.8z"/>
		</g>
		
			<linearGradient id="SVGID_00000002351902870004610010000003334553714268254342_" gradientUnits="userSpaceOnUse" x1="-2682.3523" y1="379.9567" x2="-2686.9431" y2="324.8772" gradientTransform="matrix(-0.9986 5.370000e-02 5.370000e-02 0.9986 -2280.7246 586.2106)">
			<stop  offset="0" style="stop-color:#444B8C"/>
			<stop  offset="0.9964" style="stop-color:#26264F"/>
		</linearGradient>
		<path style="fill:url(#SVGID_00000002351902870004610010000003334553714268254342_);" d="M432.1,813.3c4-7.5,5.6-7.5,6.6-11.4
			c2.2-9-3.6-20.5-8.5-20.7c-3.2-0.1-3.4,4.6-10.1,11.9c-8.2,8.9-13.2,7.8-18,15.5c-1.1,1.8-6.2,10-3.1,16.1c4,7.8,19.7,9,26.3,3
			C428.5,824.8,427.2,822.5,432.1,813.3z"/>
		
			<linearGradient id="SVGID_00000099627087424424644570000009049257995616657843_" gradientUnits="userSpaceOnUse" x1="428.0536" y1="176.1439" x2="443.1646" y2="402.8084" gradientTransform="matrix(1 0 0 1 0 594.2203)">
			<stop  offset="3.597000e-03" style="stop-color:#F36F56"/>
			<stop  offset="1" style="stop-color:#FFC444"/>
		</linearGradient>
		<path style="fill:url(#SVGID_00000099627087424424644570000009049257995616657843_);" d="M420.3,821.4c0,0,2.8,14.3,0.8,25.9
			c-1.8,10.5-22.2,21.4-26.1,24.5c-3.9,3.1,10.4,6.5,23.5,4.9c13.1-1.6,49-12.6,54.5-18.7s-6.4-3.1-16.3-4.2s-19.4-17-19.7-25.1
			C436.6,820.6,420.3,821.4,420.3,821.4z"/>
		<g>
			
				<linearGradient id="SVGID_00000079481588899745553600000008542502308523194768_" gradientUnits="userSpaceOnUse" x1="3273.9836" y1="972.1884" x2="3319.0476" y2="1019.687" gradientTransform="matrix(0.966 -0.2584 0.2584 0.966 -3027.1841 701.5603)">
				<stop  offset="3.597000e-03" style="stop-color:#F36F56"/>
				<stop  offset="1" style="stop-color:#FFC444"/>
			</linearGradient>
			<path style="fill:url(#SVGID_00000079481588899745553600000008542502308523194768_);" d="M424.6,832c0,0,10,4.2,18.9-2.6
				c8-6-3.9-24.7-12-24.9c-2.7-0.1-6.6,1.8-9,4.4c-1.4,1.6-1.4,2.6-3.8,5.2c-2.1,2.4-3,2.6-3.4,3.7c-0.4,1.4,0.3,3.8,5.7,7.9
				c-2.7-0.5-5,0.2-6,1.7c-0.2,0.2-0.4,1-0.4,1.8C415.2,832.2,419,833.5,424.6,832z"/>
		</g>
		
			<linearGradient id="SVGID_00000093156035084266277120000008700673652805498028_" gradientUnits="userSpaceOnUse" x1="-2835.4465" y1="188.9253" x2="-2826.3452" y2="217.9915" gradientTransform="matrix(-1 0 0 1 -2182.9724 594.2203)">
			<stop  offset="3.597000e-03" style="stop-color:#F36F56"/>
			<stop  offset="1" style="stop-color:#FFC444"/>
		</linearGradient>
		<path style="fill:url(#SVGID_00000093156035084266277120000008700673652805498028_);" d="M645.2,782.4c0,0,6.1-0.8,4.2-11.8
			c-1.5-8.7-0.4-11.6,1.8-10s2.4,6.5,2.4,6.5s7.8-6.4,11-14.7c3.2-8.3,5.3-1.3,6,2.8c0.7,4.2-4.6,17.1-7.6,19.5
			c-3,2.4-7.4,13-7.4,13L645.2,782.4z"/>
		
			<linearGradient id="SVGID_00000170241028881001977790000008202524661186350761_" gradientUnits="userSpaceOnUse" x1="313.4213" y1="594.6194" x2="595.4979" y2="182.6167" gradientTransform="matrix(1 0 0 1 0 594.2203)">
			<stop  offset="3.597000e-03" style="stop-color:#F36F56"/>
			<stop  offset="1" style="stop-color:#FFC444"/>
		</linearGradient>
		<path style="fill:url(#SVGID_00000170241028881001977790000008202524661186350761_);" d="M661.3,785.3
			c-6.9-4.6-13.8-9.2-20.7-13.8c-8.4,49.2-27.5,68.5-43.8,77c-39.2,20.4-74.2-15.9-149.2-1.1c-20.7,4.1-56.7,11.7-76.7,39.7
			c-5.2,7.4-7.1,12.9-15.9,65.8c-11.1,67.5-11.5,79.3-10,93.9c2.9,26.6,4.6,42.7,17.5,57c34.2,37.9,107,18.3,116.1,15.8
			c16.9-4.8,43-12.1,53.5-33.3c4.9-10,4.4-19.1-3.2-55.5c-14.9-72.2-16.8-76.9-12.7-84.8c14-26.7,58.5-11.4,96.1-36.2
			C634.6,895.1,659.4,863.4,661.3,785.3z"/>
		
			<linearGradient id="SVGID_00000121260577788228847800000009370688478412477074_" gradientUnits="userSpaceOnUse" x1="-2740.3792" y1="280.7388" x2="-2683.8579" y2="575.119" gradientTransform="matrix(-1 0 0 1 -2182.9724 594.2203)">
			<stop  offset="3.597000e-03" style="stop-color:#F36F56"/>
			<stop  offset="1" style="stop-color:#FFC444"/>
		</linearGradient>
		<path style="opacity:0.3;fill:url(#SVGID_00000121260577788228847800000009370688478412477074_);enable-background:new    ;" d="
			M444.7,1109.8c7.3-14.3-2.5-27.5,8.3-44.7c13.8-21.9,38.6-14.5,47.9-30.7c16-27.7-46.9-66.4-34.1-110.5
			c6.1-21.1,27.4-36.3,45.2-42.1c39.5-12.8,65.3,19.9,102.3,9.7c8.8-2.4,18.9-7.5,29-17.9c-9,18.1-20.2,29-30.7,36
			c-37.6,24.8-82.1,9.5-96.1,36.2c-4.2,7.9-2.2,12.6,12.7,84.8c7.5,36.5,8,45.6,3.2,55.5c-10.4,21.2-36.6,28.6-53.5,33.3
			c-5,1.4-29.1,7.9-55.5,7.2C435.2,1122.2,441.5,1116.2,444.7,1109.8z"/>
	</g>
</g>
<g>
	<g>
		
			<linearGradient id="SVGID_00000111157672996856903550000016193755642942577330_" gradientUnits="userSpaceOnUse" x1="3159.4792" y1="399.3052" x2="3302.1646" y2="399.3052" gradientTransform="matrix(0.8437 0.2989 -0.2323 0.6557 -1743.4729 208.3479)">
			<stop  offset="0" style="stop-color:#3076A1"/>
			<stop  offset="1" style="stop-color:#639C38"/>
		</linearGradient>
		<path style="fill:url(#SVGID_00000111157672996856903550000016193755642942577330_);" d="M867,1547.9c0,0,18.2-8,23.4-25.4
			c5.2-17.4,8.5-41.5,22.7-47.6c14.1-6.2,43.8-22.6,44.7-43.3c0.9-20.7-43.7-45.3-33.4-50.4c10.3-5.1,28.9-18.8,10.6-30
			c-18.2-11.2-27.9-13.2-32.7-28.3c-4.8-15.1-22.4-22.9-26.3,0.1c-3.9,23-14.8,28.3-12.5,47.5c2.3,19.2,13.4,37.3-17.5,41.5
			c-30.8,4.2-19.6,25.1-12.8,40.3c6.8,15.2,8.5,75,10.5,85.5C845.8,1548.1,854.4,1554.9,867,1547.9z"/>
		
			<linearGradient id="SVGID_00000134232468364473625840000016991185236019352219_" gradientUnits="userSpaceOnUse" x1="3211.5715" y1="435.4799" x2="3437.6973" y2="435.4799" gradientTransform="matrix(0.8437 0.2989 -0.2323 0.6557 -1743.4729 208.3479)">
			<stop  offset="0" style="stop-color:#3076A1"/>
			<stop  offset="1" style="stop-color:#639C38"/>
		</linearGradient>
		<path style="fill:url(#SVGID_00000134232468364473625840000016991185236019352219_);" d="M859.2,1558.4c0,0,41.9-15.7,54.9-12.9
			c13,2.9,37.2,9.8,46.8-1.1c9.6-10.9,17.3-47.7,48-43.5c30.6,4.2,41.9-3.1,40.2-21.4c-1.7-18.3,48-46,39-56
			c-8.9-10.1-76.6,8.3-96.7,15.3c-20.1,7-39.6-9.1-50.7,10.4c-11.1,19.5-48.3,36.1-60.7,32.8c-12.3-3.4-22.3-5.1-25.4,13.4
			c-3.1,18.5-15.6,29.9-18.9,41.4C832.4,1548.2,828,1556.5,859.2,1558.4z"/>
		
			<linearGradient id="SVGID_00000004545283660886794150000009036488737500712882_" gradientUnits="userSpaceOnUse" x1="3095.2698" y1="437.7696" x2="3240.0835" y2="437.7696" gradientTransform="matrix(0.8437 0.2989 -0.2323 0.6557 -1743.4729 208.3479)">
			<stop  offset="0" style="stop-color:#3076A1"/>
			<stop  offset="1" style="stop-color:#639C38"/>
		</linearGradient>
		<path style="fill:url(#SVGID_00000004545283660886794150000009036488737500712882_);" d="M828.5,1344.8
			c-1.5-11.3-21-16.6-24.1-2.4c-3.1,14.2,4,33-22.8,49.5c-26.8,16.5,14.1,36.1,24.1,55.9c10,19.9,8.2,41.6,16.5,58.8
			c8.3,17.2,6.3,50.6,20.8,43s9.8-25.8,18.2-45.8c8.4-20,36.3-24.6,17.6-46c-18.7-21.4-40.7-33.7-22.5-60.6
			C864.5,1385.5,833.1,1380.1,828.5,1344.8z"/>
		
			<linearGradient id="SVGID_00000131339105420150656760000011075612426385247883_" gradientUnits="userSpaceOnUse" x1="1316.5276" y1="3034.5278" x2="1341.5906" y2="2891.1677" gradientTransform="matrix(0.8728 6.280000e-02 6.280000e-02 0.7179 -421.8178 -673.778)">
			<stop  offset="0" style="stop-color:#3076A1"/>
			<stop  offset="1" style="stop-color:#639C38"/>
		</linearGradient>
		<path style="fill:url(#SVGID_00000131339105420150656760000011075612426385247883_);" d="M833.8,1546.9c0,0,14.5-13.5,7.1-42.6
			c-7.3-29.1-21.3-30,22.9-34.7c44.2-4.7,26.9-75.1,61.6-70.9c34.8,4.2,95.4-78.3,115.7-57.8c20.3,20.4-28.4,54.1-15.7,73.9
			c12.7,19.8,8.9,37.9-32.2,39.1c-41.1,1.2,1.7,76.5-53,75.5C885.6,1528.3,877,1597.2,833.8,1546.9z"/>
	</g>
	<g>
		
			<linearGradient id="SVGID_00000136406483974588770790000014417587002620906916_" gradientUnits="userSpaceOnUse" x1="3394.5586" y1="390.8546" x2="3537.2444" y2="390.8546" gradientTransform="matrix(0.8437 0.2989 -0.2323 0.6557 -1743.4729 208.3479)">
			<stop  offset="0" style="stop-color:#3076A1"/>
			<stop  offset="1" style="stop-color:#639C38"/>
		</linearGradient>
		<path style="fill:url(#SVGID_00000136406483974588770790000014417587002620906916_);" d="M1067.3,1612.7c0,0,18.2-8,23.4-25.4
			c5.2-17.4,8.5-41.5,22.7-47.6c14.1-6.2,43.8-22.6,44.7-43.3c0.9-20.7-43.7-45.3-33.4-50.4c10.3-5.1,28.9-18.8,10.6-30
			c-18.2-11.2-27.9-13.2-32.7-28.3c-4.8-15.1-22.4-22.9-26.3,0.1c-3.9,23-14.8,28.3-12.5,47.5c2.3,19.2,13.4,37.3-17.5,41.5
			c-30.8,4.2-19.6,25.1-12.8,40.3c6.8,15.2,8.5,75,10.5,85.5C1046.1,1612.8,1054.7,1619.6,1067.3,1612.7z"/>
		
			<linearGradient id="SVGID_00000034054482765612977720000012653941151553984949_" gradientUnits="userSpaceOnUse" x1="3446.6523" y1="427.0269" x2="3672.7776" y2="427.0269" gradientTransform="matrix(0.8437 0.2989 -0.2323 0.6557 -1743.4729 208.3479)">
			<stop  offset="0" style="stop-color:#3076A1"/>
			<stop  offset="1" style="stop-color:#639C38"/>
		</linearGradient>
		<path style="fill:url(#SVGID_00000034054482765612977720000012653941151553984949_);" d="M1059.5,1623.1c0,0,41.9-15.7,54.9-12.9
			c13,2.9,37.2,9.8,46.8-1.1c9.6-10.9,17.3-47.7,48-43.5c30.6,4.2,41.9-3.1,40.2-21.4c-1.7-18.3,48-46,39-56
			c-8.9-10.1-76.6,8.3-96.7,15.3c-20.1,7-39.6-9.1-50.7,10.4c-11.1,19.5-48.3,36.1-60.7,32.8c-12.3-3.4-22.3-5.1-25.4,13.4
			c-3.1,18.5-15.6,29.9-18.9,41.4C1032.7,1612.9,1028.3,1621.2,1059.5,1623.1z"/>
		
			<linearGradient id="SVGID_00000029036215755939587390000010695694387986418334_" gradientUnits="userSpaceOnUse" x1="3330.3499" y1="429.3197" x2="3475.1631" y2="429.3197" gradientTransform="matrix(0.8437 0.2989 -0.2323 0.6557 -1743.4729 208.3479)">
			<stop  offset="0" style="stop-color:#3076A1"/>
			<stop  offset="1" style="stop-color:#639C38"/>
		</linearGradient>
		<path style="fill:url(#SVGID_00000029036215755939587390000010695694387986418334_);" d="M1028.8,1409.5
			c-1.5-11.3-21-16.6-24.1-2.4c-3.1,14.2,4,33-22.8,49.5c-26.8,16.5,14.1,36.1,24.1,55.9c10,19.9,8.2,41.6,16.5,58.8
			c8.3,17.2,6.3,50.6,20.8,43c14.5-7.6,9.8-25.8,18.2-45.8c8.4-20,36.3-24.6,17.6-46c-18.7-21.4-40.7-33.7-22.5-60.6
			C1064.8,1450.2,1033.4,1444.8,1028.8,1409.5z"/>
		
			<linearGradient id="SVGID_00000153694661835713069120000013125422470698763455_" gradientUnits="userSpaceOnUse" x1="1540.9442" y1="3105.0544" x2="1566.0071" y2="2961.6946" gradientTransform="matrix(0.8728 6.280000e-02 6.280000e-02 0.7179 -421.8178 -673.778)">
			<stop  offset="0" style="stop-color:#3076A1"/>
			<stop  offset="1" style="stop-color:#639C38"/>
		</linearGradient>
		<path style="fill:url(#SVGID_00000153694661835713069120000013125422470698763455_);" d="M1034.1,1611.7c0,0,14.5-13.5,7.1-42.6
			c-7.3-29.1-21.3-30,22.9-34.7c44.2-4.7,26.9-75.1,61.6-70.9c34.7,4.2,95.4-78.3,115.7-57.8c20.3,20.4-28.4,54.1-15.7,73.9
			c12.7,19.8,8.9,37.9-32.2,39.1c-41.1,1.2,1.7,76.5-53,75.5C1085.9,1593,1077.3,1661.9,1034.1,1611.7z"/>
	</g>
	<path class="st44" d="M355.1,1504.7c0,0,834.1,0,907.3,0c73.2,0,75.5,58.6-14.5,69.1c-90.1,10.5-141.4,129.7-291.4,96.2
		c-150-33.5-480.7-109.2-640.5-79.7c-159.9,29.5-337.6-48.6-264.4-62.9C124.7,1513.1,307.4,1494.1,355.1,1504.7z"/>
	
		<linearGradient id="SVGID_00000047059181946498811820000010897499661734414496_" gradientUnits="userSpaceOnUse" x1="875.9077" y1="1203.1046" x2="724.7929" y2="1329.6635">
		<stop  offset="9.585490e-02" style="stop-color:#5D7D2E"/>
		<stop  offset="1" style="stop-color:#677D2E"/>
	</linearGradient>
	<path style="fill:url(#SVGID_00000047059181946498811820000010897499661734414496_);" d="M648.8,1428c11.2,2.1,54.4,6.6,74.5-46.6
		c0,0-11.8,11.7-29.7,5c-12.7-4.8-31.7,2.9-41.3,18.5c3.1-33.9-3.1-57.1-4.3-88c-0.2-4.7-0.2-8.9-0.1-12.9
		c7.7-1.4,54.4-12.3,51.6-72.6c0,0-6.2,15.4-25.3,16.3c-15.1,0.7-31.2,18.6-31.1,39.7c-2.5,6.6-4.2,14.3-4.4,25.6
		c-0.2,15,3.6,30.3,5.9,47.2c-2-4.3-4.6-8.8-8.2-13.3c-19.3-23.8-40.4-26.8-44.4-32.9c0,0-7.5,27.1,22.6,45.4
		c18.4,11.2,27.3,21.8,31.5,28.4c-0.5,12-2.7,24.8-8.2,38.9c-18.7,47.5,6.9,97.4,6.9,97.4l16.5-10.1c0,0-24.9-28.8-13.4-80.2
		C648.2,1431.7,648.4,1429.9,648.8,1428z"/>
	<path class="st44" d="M355.1,1504.7c0,0,12.5-34.8,63.8-27.5c51.2,7.3,76.3-42.9,111.9-18.8c35.6,24.1,86,41.6,106.7,46.3H355.1z"
		/>
	<g>
		<path class="st46" d="M167.9,1427.3c0,0-3.5,46.4-2.2,54c1.3,7.6,40.5,23.5,47.2,34.3c6.7,10.8-1.9,25.6-5.9,25.9
			c-4,0.3-71,3.8-75.8-1.6c-4.9-5.4-50.6-111.2-48.2-127.4c2.4-16.2,16.2-34,61.3-34.5C189.3,1377.4,167.9,1427.3,167.9,1427.3z"/>
	</g>
	<g>
		<path class="st47" d="M285.1,1186.7c0,0,38.8,22.7,54.1,34.9c15.3,12.2,124.6,82.4,136.3,99.9c11.6,17.6,7.8,82.8-1.5,90.5
			c-9.3,7.7-49.8,13.3-61.5,15.8c-11.7,2.5-230.6,20.3-230.6,20.3l-30.9-75c0,0,33.5-16.8,66.7-17.5c33.2-0.7,48.1-10.6,48.1-10.6
			s-88.5-16.8-138.2-34.2c-49.7-17.4-62.2-43.6-56.9-77.7c5.4-34.2,17.2-87.8,38.6-105C130.7,1110.8,285.1,1186.7,285.1,1186.7z"/>
	</g>
	<g>
		<path class="st48" d="M110.4,1427.3c0,0-3.5,46.4-2.2,54c1.4,7.6,40.5,23.5,47.2,34.3c6.7,10.8-1.9,25.6-5.9,25.9
			c-4,0.3-71,3.8-75.8-1.6c-4.9-5.4-57.2-112.3-54.8-128.5c2.4-16.2,21.3-37.8,66.4-38.3C130.3,1372.5,110.4,1427.3,110.4,1427.3z"
			/>
	</g>
	<g>
		<path class="st49" d="M140,1418.9c0,0-27.5,8.4-29.7,8.4c0,0-25.1-51.3-25.1-54.2l31.3-8.9L140,1418.9z"/>
	</g>
	<g>
		<path class="st50" d="M279.8,1171.8c0,0,41,18.4,57.6,28.8c16.6,10.4,132.9,68.3,146.4,84.5c13.5,16.2,16.7,81.5,8.4,90.1
			c-8.4,8.6-48,18.6-59.4,22.4c-11.3,3.8-303.9,52.4-303.9,52.4l-39.4-82.6c0,0,71.2-20.5,104.2-24.8s84.2-11.3,84.2-11.3
			s-90.1-3.2-141.4-15.1c-51.3-11.9-78.1-47.9-76.5-82.4c1.6-34.5,22.5-78.1,38.7-101.1C114.4,1110.1,279.8,1171.8,279.8,1171.8z"/>
	</g>
	<g>
		<g>
			<path class="st51" d="M523.8,807.5c0,0-12,35.4-21.8,32.5c-8.1-2.5-21,31.1-23.4,36.2c-2.5,5.1-15.7-3.5-20.3-3.5
				c-4.7-0.1-41.9,21.4-51.4,13c-9.5-8.3-33.6-63.2-32.3-85.4c1.2-22.2,45.7-80.7,75-94C478.9,693.2,544.6,745.4,523.8,807.5z"/>
		</g>
	</g>
	<g>
		<g>
			<path class="st52" d="M521.4,814.9c0,0,32.5-19.3,29.4-61.4c-3.1-42.1-72.6-47-78.9-50.4c-26.5-14.4-45.9-10.2-70.9,37
				c-33.3,62.7-22.7,51.1-22.7,51.1s22.5-21.4,33-14.3c11.4,7.7,28.7,21.8,28.7,21.8s14.7-29.5,30.3-19.2
				C485.9,789.8,513.9,796.8,521.4,814.9z"/>
		</g>
	</g>
	<g>
		<path class="st51" d="M376.4,792c0,0-16.2,29.7-33.8,35.6c-17.7,5.9,40.3,60.1,40.3,60.1s16.4-19.6,35.1-14.6
			C436.7,878.2,376.4,792,376.4,792z"/>
	</g>
	<g>
		<g>
			<path class="st51" d="M435.6,776.6c2-4.1,10.2-15.6-8.2-19.7c-18.5-4.2-24.8,33.1-23.2,35.4C405.7,794.5,418.7,810.7,435.6,776.6
				z"/>
		</g>
	</g>
	<g>
		<g>
			<g>
				<path class="st51" d="M595.2,1258c0,0,13.2,5.8,19.4,5.5c6.2-0.3,44.1-4.1,49,2.4c4.9,6.5,41.3,43.2,36.4,48.8
					c-4.9,5.6-8.6,2.8-11.1,0c-2.5-2.8-30.5-26.4-33.9-26.8c0,0,25,28,20.7,36.3c-4.3,8.3-12,6.8-16.6,8.3
					c-4.6,1.5-12.3,7.4-20.7,3.7c-8.3-3.7-40.1-38.3-47.8-43.2c-7.7-4.9-28.1-12.7-28.4-14.5C561.9,1276.8,595.2,1258,595.2,1258z"
					/>
			</g>
		</g>
	</g>
	<g>
		<path class="st53" d="M382.9,887.7c0,0,12,63.9,3.8,93.4c-8.3,29.5-55.4,69.1-66.9,77.4c-11.5,8.3-43.2,70.9-41.7,85.3
			c1.4,14.4,1.8,28.1,1.8,28.1s-191.3,64.2-223.1,14c0,0,85.1-181.1,90-201.1c4.9-20,46.2-75.9,68.4-98.6
			c34.1-34.9,127.5-58.5,127.5-58.5L382.9,887.7z"/>
	</g>
	<g>
		<path class="st54" d="M326.9,1053.3c-2,1.9-8.1,7.3-9.7,8.7c0,0-7-32.3-14.7-69.3C302.9,994,324.5,1049.4,326.9,1053.3z"/>
	</g>
	<g class="st0">
		<g class="st1">
			<g>
				<path class="st51" d="M505,1008.4c0,0-8.2,5-11.5,9.7c-0.7,1.1-1.3,2.2-0.6,3.3c0.7,1.1,3.2,1.5,6.9-0.5c3.7-2,9.3-2.8,9.3-2.8
					S512.3,1014.9,505,1008.4z"/>
			</g>
		</g>
		<g class="st1">
			<g>
				<path class="st55" d="M576.9,1458.3c0,0-9.5,10.6-19.1,12.8c-9.6,2.2-16.4,5-16.4,11.1c-0.1,6.1,27.7,10.1,38.7,4
					c16.4-9.1,18.1-6.4,19.9-11c1.8-4.6-2.2-16.8-2.1-18.2C598.1,1455.2,576.9,1458.3,576.9,1458.3z"/>
			</g>
		</g>
		<g class="st1">
			<g>
				<path class="st55" d="M673.7,1461c0,0-7,10.3-16.3,12.7c-9.2,2.3-15.2,6.8-15.6,12.7c-0.5,5.9,21.7,13.6,37.2,3.3
					c10.2-6.8,14-6.4,16.1-10.8c2.1-4.3-1.1-16.5-0.9-17.9C694.5,1459.3,673.7,1461,673.7,1461z"/>
			</g>
		</g>
		<g class="st1">
			<path class="st56" d="M596.7,1450.2c0,0-13.2,5.1-18.6,1.5l-1.6,7c0,0,4.3,2.5,11.6,1.5c7.3-0.9,9.9-3.3,9.9-3.3L596.7,1450.2z"
				/>
		</g>
		<g class="st1">
			<path class="st56" d="M693,1452.8c0,0-15.2,5.7-19.3,1.2l-0.7,7.9c0,0,1.5,2.4,7.5,2.1c6-0.3,13.7-2.9,13.7-2.9L693,1452.8z"/>
		</g>
		<g class="st1">
			<g>
				<path class="st51" d="M605.1,1156.1c0,0-17.2,70-21.2,96c-4.8,30.4-5.6,47.2-6.9,62.9c-1.7,19.8,2.3,132.4,1.1,138.1
					c-1.2,5.8,18.7-3,18.7-3s17.3-123.4,22.3-144.4c4.6-19.6,21.8-104.1,26-98.8c4.2,5.4,9.5,98.6,12.6,114.1
					c3.1,15.5,16.3,134.8,16.3,134.8s13.2,3,19-1.9c0,0,7.2-101.3,5.2-130.3c-0.8-11.1,13-132.6-4.6-181.5
					C684.2,1116.4,605.1,1156.1,605.1,1156.1z"/>
			</g>
		</g>
		<g class="st1">
			<g>
				<path class="st53" d="M603.3,1141.2c0,0-15.4,85-19.4,111c-4.8,30.4-5.6,47.2-6.9,62.9c-1.7,19.8-5.9,131.8-6,137.7
					c0,6.6,30.9,2.4,30.9,2.4s12.2-128.3,17.1-149.4c4.6-19.6,21.8-104.1,26-98.8c4.2,5.4,9.5,98.6,12.6,114.1
					c3.1,15.5,9.9,139.2,9.9,139.2s25-0.1,30.7-4.9c0,0,1.9-102.6-0.1-131.6c-0.8-11.1,13-132.6-4.6-181.5
					C684.2,1116.4,603.3,1141.2,603.3,1141.2z"/>
			</g>
		</g>
		<g class="st1">
			<g>
				<path class="st51" d="M518,1015.8c0,0-11.1-6.4-12.6-7.4c-1.4-0.9-6.2-0.9-11.7-0.4c-5.5,0.5-12.7,3.7-13.2,4.5
					c-0.4,0.8-1.3,1.5-1,3.9c0.3,2.4,1.9,4.3,1.9,4.3s-1.1,3.2,1.1,5.4c0,0-0.9,3,2,5.1c0,0-0.8,3,1.4,4.3c0,0,4.4,0.4,6.6,0.5
					c1.9,0.1,11.6-1.2,21.1-3.4C513.5,1032.6,526.2,1031.5,518,1015.8z"/>
			</g>
		</g>
		<g class="st1">
			<path class="st57" d="M507.2,1035.2c0,0,39.5,14.5,46.6,16.7c5.5,1.7,12.4,6.8,25.1-0.9c5.9-3.6,13.7-10.8,21-18.3v0
				c1.7-1.7,3.3-3.5,4.9-5.2c0,0,0,0,0,0c8.3-8.9,14.9-17,15.7-18.2c1.5-2.6,31.4-24.1,10.6-38.6c-4.7-3.3-22.6-11.1-32.8,0
				c-9,9.7-13.1,27.9-15.3,32.1c-2.6,4.9-13.7,25.5-13.7,25.5c-0.6,1.5-15.7-3-17.7-3.6c-6-1.8-35.7-11-35.7-11L507.2,1035.2z"/>
		</g>
		<g class="st1">
			<g>
				<g>
					<g>
						<g>
							<g>
								<path class="st56" d="M663,926.3C663,926.3,663,926.3,663,926.3c-3.9,6.1-8.4,11.8-13.1,16.6c-16.4,16.3-49.3,12.7-43.6-37
									c1.1-9.4,3.2-16.9,5.9-22.8c9.5-21.2,25.7-22.9,25.7-22.9c11.8,0.8,31.8,6.3,36.8,22.3C678.2,893.8,672.5,911.2,663,926.3z"
									/>
							</g>
						</g>
					</g>
				</g>
			</g>
		</g>
		<g class="st1">
			<g>
				<g>
					<g>
						<g>
							<g>
								<path class="st58" d="M663,926.3C663,926.3,663,926.3,663,926.3c0,0-1.8,0.3-6.3-12.7c-0.9-2.6-2.1-1-2.5-2.1l-9.2-5
									c0,0,11.6-14.8-0.4-20.8c-12.2-6.1-32.4-2.7-32.4-2.7c9.5-21.2,25.7-22.9,25.7-22.9c11.8,0.8,31.8,6.3,36.8,22.3
									C678.2,893.8,672.5,911.2,663,926.3z"/>
							</g>
						</g>
					</g>
				</g>
			</g>
		</g>
		<g class="st1">
			<g>
				<g>
					<g>
						<g>
							<g>
								<path class="st56" d="M652.4,903.6c0.7-3.3,7.3-6.2,10.1,1c2.8,7.2-6.6,14.8-9.1,13.2C651,916.2,651.2,909.1,652.4,903.6z"
									/>
							</g>
						</g>
					</g>
				</g>
			</g>
		</g>
		<g class="st1">
			<g>
				<path class="st59" d="M673.8,906.8c0,0-28.4-25.4-65.6-22.2c0,0,7.8-45,48.1-32.1C694.2,864.6,675.8,901.9,673.8,906.8z"/>
			</g>
		</g>
		<g class="st1">
			<g>
				<path class="st59" d="M655,894.6c0,0-53.8-2.9-73-9.4c-19.2-6.6,27.3-5.2,27.3-5.2S626.5,876.8,655,894.6z"/>
			</g>
		</g>
		<g class="st1">
			<path class="st57" d="M631.5,959c0,0-23.8,4.9-26.9,7.6c-3.4,2.9-10,32.4-10.4,40.3c-0.4,7.9,1.7,40.7,5,53
				c3.4,12.4,3.1,71.3,1,88.4c0,0,49.2,11.8,100.8,5.1c0,0-8.1-61.8-6-78.7c2.6-21.7,11.2-68.9,11.2-68.9s-0.6-32.8-5.2-36.7
				c-4.6-3.9-40.1-10.2-40.1-10.2H631.5z"/>
		</g>
		<g class="st1">
			<path class="st51" d="M626.2,964.5c0,0,7.3,5.5,31.7-5.3c0,0-3.6-12.1,1.2-27.8c4.8-15.6-30.4,15.1-30.4,15.1
				c0.4,0.3,0.5,1.8,0.2,4c0,0.1,0,0.3,0,0.4c-0.2,1.6-0.5,3.4-1,5.3c-0.1,0.2-0.1,0.5-0.2,0.7C626.4,962.3,626.2,959.9,626.2,964.5
				z"/>
		</g>
		<g class="st1">
			<path class="st60" d="M628,956.3L628,956.3c17.5,2.2,27-16.6,27.3-17.2c-12,17.5-26.3,11.8-26.3,11.8s0,0,0,0
				C628.8,952.6,628.4,954.4,628,956.3z"/>
		</g>
		<g class="st1">
			<path class="st51" d="M626.3,960.1c0,0-5.6,8.3,2.2,9.7c7.8,1.4,23.7-0.3,32.4-10.9C660.9,959,637.2,956.9,626.3,960.1z"/>
		</g>
		<g class="st1">
			<path class="st61" d="M595.8,1036.9c0,0-1.7-23-1.6-26.8c0,0-3.5,14.1-4,32.2L595.8,1036.9z"/>
		</g>
		<g class="st1">
			<g>
				
					<linearGradient id="SVGID_00000016772310032246191040000006481823878893514145_" gradientUnits="userSpaceOnUse" x1="1101.396" y1="479.2997" x2="1067.6704" y2="331.8485" gradientTransform="matrix(0.9938 0.1113 -0.1113 0.9938 -457.0901 498.408)">
					<stop  offset="0.1602" style="stop-color:#105885"/>
					<stop  offset="1" style="stop-color:#2B6D8F"/>
				</linearGradient>
				<path style="fill:url(#SVGID_00000016772310032246191040000006481823878893514145_);" d="M596.5,1095.9l-63.8-114.8l4.2-2.8
					c0.2,0.3,1.1,1.1,1.9,1.1c0.6,0,1.2-0.2,1.8-0.9c0.8-0.8,2.4-3.1,4-5.5c8-12.1,24.5-37.1,51.2-23.5c21.5,11,10.2,52.8,1.1,86.3
					c-4.5,16.6-8.7,32.2-7,37.9L596.5,1095.9z M540.3,984.4l44.7,80.5c1.1-7.8,3.9-18.2,7.1-30.2c8.2-30.1,19.3-71.4,1.4-80.5
					c-22.7-11.6-37,10.1-44.7,21.8c-2,3.1-3.5,5.3-4.8,6.5C542.7,983.5,541.4,984.1,540.3,984.4z"/>
			</g>
			
				<linearGradient id="SVGID_00000013192959939006338980000017675454478819973527_" gradientUnits="userSpaceOnUse" x1="-2568.6987" y1="2520.4482" x2="-2585.8948" y2="2445.2659" gradientTransform="matrix(0.9311 -0.3648 0.3648 0.9311 2055.4297 -2157.667)">
				<stop  offset="0.1602" style="stop-color:#105885"/>
				<stop  offset="1" style="stop-color:#2B6D8F"/>
			</linearGradient>
			<polygon style="fill:url(#SVGID_00000013192959939006338980000017675454478819973527_);" points="514.5,1133.2 480.2,991.3 
				480.2,991.3 444.2,970.9 528.3,937.9 530.9,958.5 607.9,1096.6 			"/>
		</g>
		<g class="st1">
			<g>
				<path class="st64" d="M482,1012.4c0,0,14-1,14.4,1.3c0.4,2.2-0.8,3.3-0.8,3.3l5.9,2.2c0,0,3.1,3.7-1.8,6c0,0,3.3,3.1-1.8,4.8
					c0,0,1.2,3-1,4.2c-2.2,1.2-11.2,1.4-11.2,1.4s-1.9-0.8-1.4-4.3c0,0-2.8-1.8-2-5.1c0,0-2-1.8-1.1-5.4c0,0-4.2-4.4-0.9-8.2
					C480.5,1012.5,481.4,1012.4,482,1012.4z"/>
			</g>
		</g>
		<g class="st1">
			<g>
				<g>
					<g>
						<g>
							<g>
								<g>
									<g>
										<path class="st51" d="M585.6,1089.4c0,0-8-0.5-10.4-2c-2.4-1.4-16.3-8.1-19.6-6.6c-3.4,1.5-25.3,6.8-24.7,10.1
											c0.3,1.8,2.3,1.5,3.9,0.9c1.6-0.6,17.8-3.9,19.2-3.3c0,0-15.9,5.8-16,10c-0.1,4.2,3.3,5.3,4.8,6.9
											c1.5,1.6,3.3,5.6,7.4,5.9c4.1,0.3,23.4-4.6,27.5-4.9c4.1-0.3,14.8-1.3,15.3-2C593.5,1103.7,585.6,1089.4,585.6,1089.4z"/>
									</g>
								</g>
							</g>
						</g>
					</g>
				</g>
			</g>
		</g>
		<g class="st1">
			<path class="st57" d="M693.4,966.1c-5.9-0.9-23.9-1.4-30.1,25.1c-2.8,12.1-5.3,25.8-5.6,30.7c-0.3,4.9-9.6,40.2-12.9,42.8
				c-4.2,3.3-26.2,10.2-28.2,11.1c-7.1,3.2-40.8,11.8-40.8,11.8l2.5,25.6c0,0,74.1-17.9,82.2-22.2c5.3-2.9,13.1-7.9,19.8-22
				c7.4-15.5,24-48.7,24.3-51.9C704.7,1014.1,719.7,970.2,693.4,966.1z"/>
		</g>
	</g>
	<g>
		<g>
			<path class="st51" d="M708.9,664.7c0,0-24.2-10-27.9-11.4c-3.7-1.4-14.6,1.1-26.8,5.1c-12.2,4-26.9,14.9-27.5,17
				c-0.6,2.1-2.2,4-0.3,9.4c1.9,5.4,6.4,8.9,6.4,8.9s-0.8,7.7,5.2,11.6c0,0-0.4,7.3,7.1,10.6c0,0-0.2,7.1,5.4,9.1
				c0,0,10.9-2.5,15.2-2.3c4.3,0.2,26.6-6.6,46.9-16.4C712.7,706.1,735.6,696.2,708.9,664.7z"/>
		</g>
		<g>
			<path class="st65" d="M675.1,680.1c0,0,9.2,9.4,13.1,10.7c3.9,1.3-10.1,27.4-10.1,27.4S664,691.6,675.1,680.1z"/>
		</g>
		<g>
			<g>
				
					<rect x="716.7" y="565.7" transform="matrix(0.9801 -0.1987 0.1987 0.9801 -173.9322 162.8535)" class="st66" width="15.6" height="764.8"/>
			</g>
			<g>
				<path class="st67" d="M874.3,1275.6l30.5,150.2c-17.5,53.6-69.6,69.2-69.6,69.2s-54,6-91-36.6l-30.5-150.2L874.3,1275.6z"/>
			</g>
		</g>
		<g>
			<path class="st68" d="M873.5,1451c0,0-21.8,24.3-43.9,29.4c-22.1,5.1-37.6,11.6-37.8,25.6c-0.2,14,63.7,23.2,89,9.1
				c37.8-21,41.6-14.7,45.8-25.2c4.2-10.5-4.5-38.6-4.8-41.9C921.5,1443.8,873.5,1451,873.5,1451z"/>
		</g>
		<g>
			<path class="st68" d="M1095.8,1457.3c0,0-16,23.7-37.5,29.2c-21.1,5.4-34.8,15.6-35.9,29.2c-1,13.6,49.9,31.3,85.6,7.5
				c23.5-15.7,32.3-14.8,37-24.7c4.7-10-1.7-37.7-2-41.1C1142.7,1453.4,1095.8,1457.3,1095.8,1457.3z"/>
		</g>
		<g>
			<path class="st51" d="M920.9,757c0,0-22.2,160.5-31.5,220.3c-10.9,69.9-12.9,108.4-15.9,144.6c-3.8,45.5,5.2,304.2,2.5,317.5
				c-2.7,13.3,43-6.9,43-6.9s39.9-283.5,51.3-332c10.6-45.1,50.1-239.3,59.8-227c9.7,12.3,21.7,226.6,28.9,262.2
				c7.2,35.6,37.6,309.9,37.6,309.9s30.4,6.9,43.6-4.3c0,0,16.6-232.8,12-299.5c-1.7-25.4,29.8-304.8-10.6-417.3
				C1120.1,665.1,920.9,757,920.9,757z"/>
		</g>
		<g>
			<path class="st69" d="M920.9,757c0,0-22.2,160.5-31.5,220.3c-10.9,69.9-12.9,108.4-15.9,144.6c-3.8,45.5-2.3,218.6-2.4,232.2
				c-0.1,15.1,65.7,7.3,65.7,7.3s22.1-212.4,33.5-260.8c10.6-45.1,50.1-239.3,59.8-227c9.7,12.3,21.7,226.6,28.9,262.2
				c7.2,35.6,23.2,240.6,23.2,240.6s57.1,8,70.3-3.2c0,0,4.3-164.7-0.3-231.4c-1.7-25.4,29.8-304.8-10.6-417.3
				C1120.1,665.1,920.9,757,920.9,757z"/>
		</g>
		<path class="st70" d="M918.9,1432.5c0,0-30.5,11.6-42.7,3.4l-3.8,16.2c0,0,9.8,5.7,26.7,3.6c16.9-2.1,22.7-7.7,22.7-7.7
			L918.9,1432.5z"/>
		<path class="st70" d="M1140.3,1438.4c0,0-35,13-44.3,2.8l-1.6,18.1c0,0,3.5,5.6,17.2,4.9c13.7-0.7,31.5-6.8,31.5-6.8
			L1140.3,1438.4z"/>
		<g>
			<path class="st51" d="M717.5,665.2c0,0-11.3,1-18.8-0.8c-7.5-1.8,8.2,34.2,8.2,34.2s14.3-14.8,25-17.3
				C742.7,678.8,717.5,665.2,717.5,665.2z"/>
		</g>
		<g>
			<path class="st64" d="M629.9,674.4c0,0,30.9-9.3,33-4.5c2.1,4.8,0,7.8,0,7.8l14.4,1.9c0,0,8.8,6.7-1,14.4c0,0,8.9,5.4-1.5,11.7
				c0,0,4.3,6.2,0,9.9c-4.3,3.8-24.4,8.9-24.4,8.9s-6,0-6.7-8.1c0,0-7-3.1-6.8-10.9c0,0-5.3-2.9-4.9-11.3c0,0-10.8-8.5-5.2-18.7
				C626.7,675.6,628.6,674.8,629.9,674.4z"/>
		</g>
		<g>
			<path class="st51" d="M679.5,653.9c0,0-16,15.3-21,27.5c-1.1,2.8-1.7,5.6,0.4,7.7c2.1,2.1,7.9,1.7,15.1-4.6
				c7.3-6.3,19.5-11.1,19.5-11.1S699.1,664.8,679.5,653.9z"/>
		</g>
		<g>
			<path class="st59" d="M703.8,661.1l5.8,47.5c148.7-73,168.1-107.4,173.6-114.4c3.8-4.8,20.3-31.2,28.3-50.6
				c0.7-1.6,1.3-3.2,1.8-4.7l7.1-22.4c0,0,0,0,0,0c3.3,45.6,2.1,114.9,2,209l-3.6,46.2c50.6,30,237,19.1,237,19.1l-4.4-111.4
				c0,0-3.5-39.1-3.7-73c0-3.9,0-7.7,0.1-11.4c0,0,0.1-5.6,0.7-14.3v0c1.3-18.7,4.8-51.5,13.9-70.8c12.9-27.4,55.5-42.1,58-42.9
				c0.1,0,0.1,0,0.1,0s0.3-1.9,0.8-5.1c0.1-0.4,0.1-0.6,0.1-0.6c2.2-15,7.5-55.9,4-77.4c-6.8-26.7-23.1-32.8-27.6-35.3
				c-47.4-26.6-104.6-46.5-104.6-46.5c-14.6,0.8-58.1,4.9-72,6.3c0,0-86.2,33-111.4,60.4l-75.3,174.6L703.8,661.1z"/>
		</g>
		<g>
			<path class="st51" d="M1009.5,328.2c0,0,29,15.9,84.1-11.4c0,0-4-54.9,5.4-91.4c9.4-36.5-73.3,51.3-73.3,51.3
				c0.9,0.6,1.3,4.2,1,9.2c-0.1,1.6-0.3,3.4-0.5,5.3c-0.3,2.4-0.7,4.9-1.2,7.5c-0.1,0.7-0.3,1.4-0.4,2.1
				C1022,313.2,1017,325.8,1009.5,328.2z"/>
		</g>
		<g>
			<g>
				<g>
					<g>
						<g>
							<path class="st56" d="M1098.5,232.7C1098.4,232.7,1098.4,232.7,1098.5,232.7c-6.2,13.2-13.7,25.6-21.9,36.2
								c-28.5,36.5-94.8,37.4-95.8-62.8c-0.2-19,2.2-34.4,6-46.9c13.6-44.5,45.5-51.9,45.5-51.9c23.6-1.3,64.9,4.5,78.6,35.2
								C1120.7,164.3,1113.6,200.4,1098.5,232.7z"/>
						</g>
					</g>
				</g>
			</g>
		</g>
		<g>
			<g>
				<g>
					<g>
						<g>
							<path class="st58" d="M1098.5,232.7C1098.4,232.7,1098.4,232.7,1098.5,232.7c0,0.1-3.4,1-15.7-23.8c-2.5-5-4.3-1.4-5.4-3.6
								l-19.5-7.6c0,0,19.3-32.3-6-41.3c-25.8-9.1-65.1,2.7-65.1,2.7c-2.9-80.4,45.5-51.9,45.5-51.9c23.6-1.3,64.9,4.5,78.6,35.2
								C1120.7,164.3,1113.6,200.4,1098.5,232.7z"/>
						</g>
					</g>
				</g>
			</g>
		</g>
		<g>
			<g>
				<g>
					<g>
						<g>
							<path class="st56" d="M1073.4,190.2c1.5-6.7,14.7-12.5,20.3,1.9c5.6,14.4-13.2,29.7-18.2,26.5
								C1070.6,215.5,1071,201.3,1073.4,190.2z"/>
						</g>
					</g>
				</g>
			</g>
		</g>
		<path class="st59" d="M1047.5,466.7c0,0,57.5,34.9,70,39.9c9,3.6,21.6-10,33.2-42.3c0,0,31.3-44.8,70.8-3c0,0-14.9,99.3-59.3,122
			c-14.7,7.5-142-81.4-142-81.4S1035.4,480.2,1047.5,466.7z"/>
		<path class="st59" d="M1092.8,294.1c0,0-52.8,22-67.9,5.5l-4.8,8.9l-17.3,24.1c0,0,74.3,20.3,92.8-3.4L1092.8,294.1z"/>
		<path class="st71" d="M911.5,543.5c0.7-1.6,1.3-3.2,1.8-4.7l7.1-22.4c0,0,0,0,0,0c0,0,0-0.1,0-0.1s1-12.4,2.8-28.3v0
			c2.2-18.6,5.7-42.1,10.3-56.3c0,0-7.8,10.1-14.1,33.2c-0.9,3.2-1.7,6.6-2.5,10.3C913.3,492.4,910.7,514.9,911.5,543.5z"/>
		
			<rect x="1048.5" y="198.8" transform="matrix(0.7065 0.7077 -0.7077 0.7065 596.0319 -629.2767)" class="st66" width="16.4" height="410.3"/>
		<g>
			<path class="st67" d="M918.9,543.1c7.6,11.7,16.1,39.7-5.6,61.4l-3.6,3.5l-57.3-57.4l3.6-3.5c21.8-21.7,49.7-13.1,61.4-5.5
				l0.9,0.6L918.9,543.1z M909.5,593.6c14.6-18.5,4.2-39.4,1.5-44.1c-2.2-1.2-8-4.2-15.5-5.5c-10.8-1.9-20.4,0.4-28.6,6.9
				L909.5,593.6z"/>
		</g>
		<path class="st67" d="M1172.2,288.7l-44.6-44.7c74.4-74.2,157.7-68.3,157.7-68.3s5.8,83.4-68.5,157.6L1172.2,288.7z"/>
		
			<rect x="915.2" y="519.5" transform="matrix(0.7065 0.7077 -0.7077 0.7065 651.0887 -495.8946)" class="st67" width="16.4" height="35.1"/>
		<g>
			<g>
				<g>
					<g>
						<g>
							<path class="st51" d="M971.8,469.7c0,0,2.7,5,4.9,6.6c0,0,4.3,2.6,7.2,4.6c0.9,0.6,1.7,1.2,2.2,1.7c2,1.8,5.8,6.4,11.8,9.3
								c6,3,35,9.3,35,9.3l7.9-14.7l9.3-12.7c0,0-21.8-34.5-27.1-38c-0.5-0.3-1-0.6-1.5-0.9c-4.7-2.5-9.3-2.3-11.9-3.4
								c-1-0.4-10.8-3.4-13.4-1.7c-3.6,2.3-5.1,5.4-5.1,8.3c0,0-6.8,4.9-8.2,10.3c0,0-6.4,4.3-6.3,11.6
								C976.7,460.1,970.7,465.2,971.8,469.7z"/>
						</g>
					</g>
				</g>
			</g>
		</g>
		<path class="st71" d="M1054.2,525c41.4,48.5,93.6,81.4,93.6,81.4c0-3.9,0-7.7,0.1-11.4c0,0,0.1-5.6,0.7-14.3
			c-0.1,0-0.1-0.1-0.2-0.1c-23.4-9.1-68.3-38.7-72.5-41.5C1075.7,539.1,1054.2,525,1054.2,525z"/>
		<path class="st60" d="M1025,298.9c37.3,4.5,53.9-31.8,53.9-31.8c-24.8,30.5-52,24.5-52.7,24.3
			C1025.9,293.7,1025.5,296.3,1025,298.9z"/>
		<path class="st72" d="M1153.5,1373.6c0,0-30.3,16.5-74.3,1.4l-2.5-29.4c0,0,31,9.6,78.2,1.5L1153.5,1373.6z"/>
		<path class="st72" d="M938.9,1361.2c0,0-27.7,15.4-71.1-1.2l0-30.6c0,0,29.3,11.8,73.5,5.4L938.9,1361.2z"/>
	</g>
	<g>
		<path class="st53" d="M382.7,943c-4.6-8.7-14.4-58.3-54.7-49.7c-40.3,8.6-44.6,53.6-32.7,82c11.9,28.4,26.7,65.8,28.8,72
			c2.1,6.2,52.2,100,58.7,105.4c6.5,5.4,78.8,67.3,91.4,74.1c12.6,6.8,104,62.4,104,62.4l23.4-29.7c0,0-134.6-122.3-145.7-131
			c-11.2-8.6-28.1-29.5-30.9-43.2C421.9,1071.8,389.5,955.9,382.7,943z"/>
	</g>
	<path class="st73" d="M265.3,1556c0,0,62.2-69,137,0H265.3z"/>
	<path class="st73" d="M454.1,1543.5c0,0,62.2-69,137,0H454.1z"/>
	<path class="st73" d="M642.8,1579.6c0,0,62.2-69,137,0H642.8z"/>
	<path class="st73" d="M839.1,1610.3c0,0,62.2-69,137,0H839.1z"/>
</g>
</svg>
