<?xml version="1.0" encoding="utf-8"?>
<!-- Generator: Adobe Illustrator 25.3.1, SVG Export Plug-In . SVG Version: 6.00 Build 0)  -->
<svg version="1.1" id="Layer_1" xmlns="http://www.w3.org/2000/svg" xmlns:xlink="http://www.w3.org/1999/xlink" x="0px" y="0px"
	 viewBox="0 0 290.7 381" style="enable-background:new 0 0 290.7 381;" xml:space="preserve">
<style type="text/css">
	.st0{fill:#606060;}
	.st1{opacity:0.19;}
	.st2{fill:#EAEAEA;}
	.st3{fill:#1B1C16;}
	.st4{opacity:0.29;}
	.st5{opacity:0.38;}
	.st6{opacity:0.35;fill:none;stroke:#000000;stroke-width:0.2642;stroke-miterlimit:10;}
	.st7{opacity:0.19;fill:none;stroke:#000000;stroke-width:0.2642;stroke-miterlimit:10;}
	.st8{fill:#B33C43;}
	.st9{opacity:0.1;}
</style>
<g>
	<rect x="192.9" y="273.9" class="st0" width="14.2" height="106.8"/>
	<rect x="203" y="273.9" class="st1" width="9.5" height="106.8"/>
	<rect x="188.2" y="273.9" class="st1" width="9.5" height="106.8"/>
	<rect x="119.9" y="312.8" class="st0" width="73" height="67.9"/>
	<path class="st0" d="M117.6,380.7H73.8c-1.2,0-2.2-1-2.2-2.2V229.6c0-1.2,1-2.2,2.2-2.2H115c2.7,0,4.8,2.2,4.8,4.8v146.2
		C119.9,379.7,118.9,380.7,117.6,380.7z"/>
	<path class="st0" d="M192.9,269.1v64.1c0,0.9-0.7,1.5-1.5,1.5h-70.1c-0.8,0-1.5-0.7-1.5-1.5v-64.8c0-0.9,0.7-1.5,1.5-1.5h69.5
		C191.9,266.8,192.9,267.8,192.9,269.1z"/>
	<rect x="119.9" y="279.4" class="st2" width="73" height="9.1"/>
	<rect x="119.9" y="325.6" class="st2" width="73" height="9.1"/>
	<rect x="119.9" y="288.5" class="st3" width="18.6" height="25.1"/>
	<rect x="119.9" y="334.7" class="st3" width="18.6" height="25.1"/>
	<rect x="174.3" y="288.5" class="st3" width="18.6" height="25.1"/>
	<rect x="174.3" y="334.7" class="st3" width="18.6" height="25.1"/>
	<path class="st2" d="M106.2,298.9H83.9c-2.2,0-4-1.8-4-4v-24.2c0-2.2,1.8-4,4-4h22.3c2.2,0,4,1.8,4,4V295
		C110.2,297.2,108.4,298.9,106.2,298.9z"/>
	<path class="st2" d="M106.2,341.6H83.9c-2.2,0-4-1.8-4-4v-24.2c0-2.2,1.8-4,4-4h22.3c2.2,0,4,1.8,4,4v24.2
		C110.2,339.9,108.4,341.6,106.2,341.6z"/>
	<rect x="119.9" y="334.7" class="st4" width="73" height="16.8"/>
	<rect x="119.9" y="288.5" class="st5" width="18.6" height="8.4"/>
	<rect x="174.3" y="288.5" class="st5" width="18.6" height="8.4"/>
	<rect x="134.9" y="288.5" class="st1" width="3.6" height="46.2"/>
	<path class="st1" d="M98,380.7h19.7c1.2,0,2.2-1,2.2-2.2V232.2c0-2.7-2.2-4.8-4.8-4.8H98c-1.2,0-2.2,1-2.2,2.2v148.9
		C95.7,379.7,96.7,380.7,98,380.7z"/>
	<rect x="174.3" y="288.5" class="st1" width="3.6" height="46.2"/>
	<rect x="134.9" y="334.7" class="st1" width="3.6" height="46"/>
	<rect x="174.3" y="334.7" class="st1" width="3.6" height="46"/>
	<rect x="207.1" y="312.8" class="st0" width="73" height="67.9"/>
	<path class="st0" d="M280.2,268.4v64.8c0,0.9-0.7,1.5-1.5,1.5h-70.1c-0.8,0-1.5-0.7-1.5-1.5v-64.1c0-1.2,1-2.3,2.1-2.3h69.5
		C279.5,266.8,280.2,267.5,280.2,268.4z"/>
	<rect x="207.1" y="279.4" class="st2" width="73" height="9.1"/>
	<rect x="207.1" y="325.6" class="st2" width="73" height="9.1"/>
	<rect x="207.1" y="288.5" class="st3" width="18.6" height="25.1"/>
	<rect x="207.1" y="334.7" class="st3" width="18.6" height="25.1"/>
	<rect x="261.5" y="288.5" class="st3" width="18.6" height="25.1"/>
	<rect x="261.5" y="334.7" class="st3" width="18.6" height="25.1"/>
	<rect x="207.1" y="334.7" class="st4" width="73" height="16.8"/>
	<rect x="222.2" y="288.5" class="st1" width="3.6" height="46.2"/>
	<rect x="261.5" y="288.5" class="st1" width="3.6" height="46.2"/>
	<rect x="222.2" y="334.7" class="st1" width="3.6" height="46"/>
	<rect x="261.5" y="334.7" class="st1" width="3.6" height="46"/>
	<rect x="207.1" y="288.5" class="st5" width="18.6" height="8.4"/>
	<rect x="261.5" y="288.5" class="st5" width="18.6" height="8.4"/>
	<line class="st6" x1="138.5" y1="298.9" x2="174.3" y2="298.9"/>
	<line class="st7" x1="71.6" y1="238.8" x2="119.9" y2="238.8"/>
	<line class="st7" x1="71.6" y1="244.7" x2="119.9" y2="244.7"/>
	<line class="st6" x1="225.7" y1="298.9" x2="261.5" y2="298.9"/>
	<line class="st6" x1="149.5" y1="298.9" x2="149.5" y2="325.6"/>
	<line class="st6" x1="164.1" y1="298.9" x2="164.1" y2="325.6"/>
	<line class="st6" x1="236.3" y1="298.9" x2="236.3" y2="325.6"/>
	<line class="st6" x1="251" y1="298.9" x2="251" y2="325.6"/>
</g>
<path class="st8" d="M82,95v280.6c0,2.8-2.1,5.1-4.8,5.1H20.7c-2.7,0-4.8-2.3-4.8-5.1V95c0-2.8,2.2-5.1,4.8-5.1h56.5
	C79.8,89.9,82,92.2,82,95z"/>
<path class="st2" d="M88.5,311.9v6.6c0,1.3-1,2.3-2.2,2.3H11.6c-1.2,0-2.2-1-2.2-2.3v-6.6c0-1.3,1-2.3,2.2-2.3h74.8
	C87.5,309.5,88.5,310.6,88.5,311.9z"/>
<path class="st9" d="M88.5,311.9v6.6c0,1.3-1,2.3-2.2,2.3H82v54.8c0,2.8-2.1,5.1-4.8,5.1H49V89.9h28.2c2.7,0,4.8,2.3,4.8,5.1v214.6
	h4.3C87.5,309.5,88.5,310.6,88.5,311.9z"/>
<rect x="49.5" y="223.2" class="st1" width="15.5" height="4.1"/>
<rect x="15.4" y="325.7" class="st1" width="60.7" height="5.9"/>
<rect x="53.1" y="178.8" class="st1" width="16.8" height="26.9"/>
<path class="st2" d="M69.9,174H53.2c-0.6,0-1.1,0.5-1.1,1.2v33c0,0.6,0.5,1.1,1.1,1.1h16.7c0.6,0,1.1-0.5,1.1-1.1v-33
	C71,174.5,70.5,174,69.9,174z M68.4,202.3c0,0.6-0.5,1.1-1.1,1.1h-11c-0.6,0-1.1-0.5-1.1-1.1v-20.9c0-0.6,0.5-1.2,1.1-1.2h11
	c0.6,0,1.1,0.5,1.1,1.2V202.3z"/>
</svg>
