<?xml version="1.0" encoding="utf-8"?>
<!-- Generator: Adobe Illustrator 25.4.1, SVG Export Plug-In . SVG Version: 6.00 Build 0)  -->
<svg version="1.1" id="Layer_1" xmlns="http://www.w3.org/2000/svg" xmlns:xlink="http://www.w3.org/1999/xlink" x="0px" y="0px"
	 viewBox="0 0 276.6 295" style="enable-background:new 0 0 276.6 295;" xml:space="preserve">
<style type="text/css">
	.st0{fill:#606060;}
	.st1{opacity:0.19;enable-background:new    ;}
	.st2{fill:#EAEAEA;}
	.st3{fill:#1B1C16;}
	.st4{opacity:0.29;enable-background:new    ;}
	.st5{opacity:0.38;enable-background:new    ;}
	.st6{opacity:0.35;fill:none;stroke:#000000;stroke-width:0.2642;stroke-miterlimit:10;enable-background:new    ;}
	.st7{opacity:0.19;fill:none;stroke:#000000;stroke-width:0.2642;stroke-miterlimit:10;enable-background:new    ;}
	.st8{fill:#B33C43;}
	.st9{opacity:0.1;enable-background:new    ;}
</style>
<g>
	<rect x="183.5" y="187.9" class="st0" width="14.2" height="106.8"/>
	<rect x="193.6" y="187.9" class="st1" width="9.5" height="106.8"/>
	<rect x="178.8" y="187.9" class="st1" width="9.5" height="106.8"/>
	<rect x="110.5" y="226.8" class="st0" width="73" height="67.9"/>
	<path class="st0" d="M108.2,294.7H64.4c-1.2,0-2.2-1-2.2-2.2V143.6c0-1.2,1-2.2,2.2-2.2h41.2c2.7,0,4.8,2.2,4.8,4.8v146.2
		C110.5,293.7,109.5,294.7,108.2,294.7z"/>
	<path class="st0" d="M183.5,183.1v64.1c0,0.9-0.7,1.5-1.5,1.5h-70.1c-0.8,0-1.5-0.7-1.5-1.5v-64.8c0-0.9,0.7-1.5,1.5-1.5h69.5
		C182.5,180.8,183.5,181.8,183.5,183.1z"/>
	<rect x="110.5" y="193.4" class="st2" width="73" height="9.1"/>
	<rect x="110.5" y="239.6" class="st2" width="73" height="9.1"/>
	<rect x="110.5" y="202.5" class="st3" width="18.6" height="25.1"/>
	<rect x="110.5" y="248.7" class="st3" width="18.6" height="25.1"/>
	<rect x="164.9" y="202.5" class="st3" width="18.6" height="25.1"/>
	<rect x="164.9" y="248.7" class="st3" width="18.6" height="25.1"/>
	<path class="st2" d="M96.8,212.9H74.5c-2.2,0-4-1.8-4-4v-24.2c0-2.2,1.8-4,4-4h22.3c2.2,0,4,1.8,4,4V209
		C100.8,211.2,99,212.9,96.8,212.9z"/>
	<path class="st2" d="M96.8,255.6H74.5c-2.2,0-4-1.8-4-4v-24.2c0-2.2,1.8-4,4-4h22.3c2.2,0,4,1.8,4,4v24.2
		C100.8,253.9,99,255.6,96.8,255.6z"/>
	<rect x="110.5" y="248.7" class="st4" width="73" height="16.8"/>
	<rect x="110.5" y="202.5" class="st5" width="18.6" height="8.4"/>
	<rect x="164.9" y="202.5" class="st5" width="18.6" height="8.4"/>
	<rect x="125.5" y="202.5" class="st1" width="3.6" height="46.2"/>
	<path class="st1" d="M88.6,294.7h19.7c1.2,0,2.2-1,2.2-2.2V146.2c0-2.7-2.2-4.8-4.8-4.8H88.6c-1.2,0-2.2,1-2.2,2.2v148.9
		C86.3,293.7,87.3,294.7,88.6,294.7z"/>
	<rect x="164.9" y="202.5" class="st1" width="3.6" height="46.2"/>
	<rect x="125.5" y="248.7" class="st1" width="3.6" height="46"/>
	<rect x="164.9" y="248.7" class="st1" width="3.6" height="46"/>
	<rect x="197.7" y="226.8" class="st0" width="73" height="67.9"/>
	<path class="st0" d="M270.8,182.4v64.8c0,0.9-0.7,1.5-1.5,1.5h-70.1c-0.8,0-1.5-0.7-1.5-1.5v-64.1c0-1.2,1-2.3,2.1-2.3h69.5
		C270.1,180.8,270.8,181.5,270.8,182.4z"/>
	<rect x="197.7" y="193.4" class="st2" width="73" height="9.1"/>
	<rect x="197.7" y="239.6" class="st2" width="73" height="9.1"/>
	<rect x="197.7" y="202.5" class="st3" width="18.6" height="25.1"/>
	<rect x="197.7" y="248.7" class="st3" width="18.6" height="25.1"/>
	<rect x="252.1" y="202.5" class="st3" width="18.6" height="25.1"/>
	<rect x="252.1" y="248.7" class="st3" width="18.6" height="25.1"/>
	<rect x="197.7" y="248.7" class="st4" width="73" height="16.8"/>
	<rect x="212.8" y="202.5" class="st1" width="3.6" height="46.2"/>
	<rect x="252.1" y="202.5" class="st1" width="3.6" height="46.2"/>
	<rect x="212.8" y="248.7" class="st1" width="3.6" height="46"/>
	<rect x="252.1" y="248.7" class="st1" width="3.6" height="46"/>
	<rect x="197.7" y="202.5" class="st5" width="18.6" height="8.4"/>
	<rect x="252.1" y="202.5" class="st5" width="18.6" height="8.4"/>
	<line class="st6" x1="129.1" y1="212.9" x2="164.9" y2="212.9"/>
	<line class="st7" x1="62.2" y1="152.8" x2="110.5" y2="152.8"/>
	<line class="st7" x1="62.2" y1="158.7" x2="110.5" y2="158.7"/>
	<line class="st6" x1="216.3" y1="212.9" x2="252.1" y2="212.9"/>
	<line class="st6" x1="140.1" y1="212.9" x2="140.1" y2="239.6"/>
	<line class="st6" x1="154.7" y1="212.9" x2="154.7" y2="239.6"/>
	<line class="st6" x1="226.9" y1="212.9" x2="226.9" y2="239.6"/>
	<line class="st6" x1="241.6" y1="212.9" x2="241.6" y2="239.6"/>
</g>
<path class="st8" d="M72.6,9v280.6c0,2.8-2.1,5.1-4.8,5.1H11.3c-2.7,0-4.8-2.3-4.8-5.1V9c0-2.8,2.2-5.1,4.8-5.1h56.5
	C70.4,3.9,72.6,6.2,72.6,9z"/>
<path class="st2" d="M79.1,225.9v6.6c0,1.3-1,2.3-2.2,2.3H2.2c-1.2,0-2.2-1-2.2-2.3v-6.6c0-1.3,1-2.3,2.2-2.3H77
	C78.1,223.5,79.1,224.6,79.1,225.9z"/>
<path class="st9" d="M79.1,225.9v6.6c0,1.3-1,2.3-2.2,2.3h-4.3v54.8c0,2.8-2.1,5.1-4.8,5.1H39.6V3.9h28.2c2.7,0,4.8,2.3,4.8,5.1
	v214.6h4.3C78.1,223.5,79.1,224.6,79.1,225.9z"/>
<rect x="40.1" y="137.2" class="st1" width="15.5" height="4.1"/>
<rect x="6" y="239.7" class="st1" width="60.7" height="5.9"/>
<rect x="43.7" y="92.8" class="st1" width="16.8" height="26.9"/>
<path class="st2" d="M60.5,88H43.8c-0.6,0-1.1,0.5-1.1,1.2v33c0,0.6,0.5,1.1,1.1,1.1h16.7c0.6,0,1.1-0.5,1.1-1.1v-33
	C61.6,88.5,61.1,88,60.5,88z M59,116.3c0,0.6-0.5,1.1-1.1,1.1h-11c-0.6,0-1.1-0.5-1.1-1.1V95.4c0-0.6,0.5-1.2,1.1-1.2h11
	c0.6,0,1.1,0.5,1.1,1.2V116.3z"/>
</svg>
