<svg id="Layer_1" data-name="Layer 1" xmlns="http://www.w3.org/2000/svg" viewBox="0 0 68.93 69.38"><defs><style>.cls-1{fill:#fff;}</style></defs><path class="cls-1" d="M50.77,31.37a11.38,11.38,0,0,0-8.8-4.2,11.76,11.76,0,0,0-2.47.27,11.33,11.33,0,0,0,0,22.12,11.13,11.13,0,0,0,2.47.27,11.33,11.33,0,0,0,8.8-18.46Zm-15,7.29v-.32a6.17,6.17,0,1,1,0,.32Z" transform="translate(-5.29 -6.31)"/><circle class="cls-1" cx="47.13" cy="21.85" r="2.38"/><path class="cls-1" d="M13.66,23.23A31.68,31.68,0,0,0,9.81,36.09,29.43,29.43,0,0,1,13.66,23.23Z" transform="translate(-5.29 -6.31)"/><path class="cls-1" d="M63.92,17l-.15,0h0Z" transform="translate(-5.29 -6.31)"/><path class="cls-1" d="M63.77,17l-.18,0-.43,0v0h.51a.27.27,0,0,1,.08.07h0Z" transform="translate(-5.29 -6.31)"/><path class="cls-1" d="M15,40.28A26.94,26.94,0,0,0,40.25,65.49l1.14.05A26.93,26.93,0,0,0,69,38.29V22.72l0,0H46.18a0,0,0,0,1,0,0,5.77,5.77,0,0,1,5.76-5.76H63.16v0l.43,0,.18,0,.15,0-.16,0h0a.27.27,0,0,0-.08-.07H74.2l0,0V38.63A32.51,32.51,0,0,1,41.54,70.81a32.11,32.11,0,0,1-20-7.3L10.19,74.85a2.87,2.87,0,0,1-4-4.06l11.29-11.3a32.53,32.53,0,0,1-4.61-7.1A32.14,32.14,0,0,1,9.72,39c0-1,0-1.92.09-2.87v0a31.68,31.68,0,0,1,3.85-12.86l0-.06a32.67,32.67,0,0,1,26-16.76h0c.83-.07,1.67-.1,2.51-.1h32l0,0v5.23s0,0,0,0h-32a27.71,27.71,0,0,0-11.7,2.56A26.78,26.78,0,0,0,15,40.28Z" transform="translate(-5.29 -6.31)"/><path class="cls-1" d="M63.92,17l-.15,0-.18,0h.17Z" transform="translate(-5.29 -6.31)"/><path class="cls-1" d="M63.8,38.5A21.73,21.73,0,1,1,42.08,16.78a5.25,5.25,0,0,1,1,.09v.05c0,2-2.3,5.5-4.21,6l-.12,0A15.85,15.85,0,0,0,26.22,38.73a13.22,13.22,0,0,0,.11,1.66l0,.2,0,.2.06.4c0,.21.08.41.13.61l.09.4c0,.13.07.26.11.39s.07.27.11.4.13.38.19.58.09.25.14.37a1.67,1.67,0,0,0,.08.2l.15.37a3.73,3.73,0,0,0,.16.35v0l.09.18.18.37.18.36.18.33.06.09.16.28,0,0,.18.29,0,0c.07.11.13.21.21.32l.21.31.06.09.16.22.34.45c.06.06.11.13.17.2l.47.55.1.11,0,0,.23.25.27.27.13.13h0l.16.16.29.26h0l.29.26.22.19h0l.27.22c.3.24.6.47.92.68l.22.15.25.17.07,0,.25.16h0l.31.18.3.17.27.14.12.06.21.11.1.05.25.12.26.12.08,0,.27.12.4.16.3.1.33.12.34.11.34.1.27.07.19,0,.23.06.25.05.39.08.39.07h.06l.32,0,.25,0h0l.14,0,.23,0h.14l.36,0,.66,0a15.85,15.85,0,0,0,15.33-11,7.78,7.78,0,0,1,.42-1,6.89,6.89,0,0,1,6-3.83Z" transform="translate(-5.29 -6.31)"/></svg>