<?xml version="1.0" encoding="utf-8"?>
<!-- Generator: Adobe Illustrator 25.4.1, SVG Export Plug-In . SVG Version: 6.00 Build 0)  -->
<svg version="1.1" id="Layer_1" xmlns="http://www.w3.org/2000/svg" xmlns:xlink="http://www.w3.org/1999/xlink" x="0px" y="0px"
	 viewBox="0 0 474.9 340.1" style="enable-background:new 0 0 474.9 340.1;" xml:space="preserve">
<style type="text/css">
	.st0{fill-rule:evenodd;clip-rule:evenodd;fill:url(#SVGID_1_);}
	
		.st1{opacity:0.5;fill-rule:evenodd;clip-rule:evenodd;fill:url(#SVGID_00000081616270587168188240000011185008771928069276_);enable-background:new    ;}
	
		.st2{opacity:0.5;fill-rule:evenodd;clip-rule:evenodd;fill:url(#SVGID_00000018928970470685078820000017434793836867233968_);enable-background:new    ;}
	
		.st3{opacity:0.5;fill-rule:evenodd;clip-rule:evenodd;fill:url(#SVGID_00000047062038361001404390000004756458570119689392_);enable-background:new    ;}
	
		.st4{opacity:0.5;fill-rule:evenodd;clip-rule:evenodd;fill:url(#SVGID_00000021077361854435971990000005145178309828157612_);enable-background:new    ;}
	
		.st5{opacity:0.2;fill-rule:evenodd;clip-rule:evenodd;fill:url(#SVGID_00000157285123806424140010000007861664689740517803_);enable-background:new    ;}
	
		.st6{opacity:0.5;fill-rule:evenodd;clip-rule:evenodd;fill:url(#SVGID_00000093892244830892804000000002914240897204448650_);enable-background:new    ;}
	
		.st7{opacity:0.5;fill-rule:evenodd;clip-rule:evenodd;fill:url(#SVGID_00000063596956949329506970000016681468281882073221_);enable-background:new    ;}
	
		.st8{opacity:0.5;fill-rule:evenodd;clip-rule:evenodd;fill:url(#SVGID_00000111192075994556373890000007029775399192563895_);enable-background:new    ;}
	
		.st9{opacity:0.5;fill-rule:evenodd;clip-rule:evenodd;fill:url(#SVGID_00000142172843935203619880000003433441592654969008_);enable-background:new    ;}
	
		.st10{opacity:0.5;fill-rule:evenodd;clip-rule:evenodd;fill:url(#SVGID_00000180327656950770819890000014386352466955975555_);enable-background:new    ;}
	
		.st11{opacity:0.5;fill-rule:evenodd;clip-rule:evenodd;fill:url(#SVGID_00000177463461601604105210000009943839768166377383_);enable-background:new    ;}
	
		.st12{opacity:0.5;fill-rule:evenodd;clip-rule:evenodd;fill:url(#SVGID_00000179642561325050364960000007118205251683582340_);enable-background:new    ;}
	
		.st13{opacity:0.5;fill-rule:evenodd;clip-rule:evenodd;fill:url(#SVGID_00000014632779788148604950000002858547137492410022_);enable-background:new    ;}
	
		.st14{opacity:0.5;fill-rule:evenodd;clip-rule:evenodd;fill:url(#SVGID_00000049188070520636448720000013462531698854768772_);enable-background:new    ;}
	
		.st15{opacity:0.5;fill-rule:evenodd;clip-rule:evenodd;fill:url(#SVGID_00000062154691583586333640000016672132104334276535_);enable-background:new    ;}
	.st16{fill-rule:evenodd;clip-rule:evenodd;fill:#93839C;}
	.st17{opacity:0.5;fill-rule:evenodd;clip-rule:evenodd;fill:#5955B1;enable-background:new    ;}
	
		.st18{opacity:0.5;fill-rule:evenodd;clip-rule:evenodd;fill:url(#SVGID_00000045594755894421658100000000207976813221726872_);enable-background:new    ;}
	
		.st19{opacity:0.5;fill-rule:evenodd;clip-rule:evenodd;fill:url(#SVGID_00000118390301064625843530000017838279885630477501_);enable-background:new    ;}
	.st20{fill-rule:evenodd;clip-rule:evenodd;fill:#503E7F;}
	
		.st21{opacity:0.5;fill-rule:evenodd;clip-rule:evenodd;fill:url(#SVGID_00000035515455376363064060000014470493274919378868_);enable-background:new    ;}
</style>
<g>
	<g id="Layer_1_00000028285805082410923750000001064936141090518695_">
		
			<linearGradient id="SVGID_1_" gradientUnits="userSpaceOnUse" x1="256.615" y1="-376.8401" x2="256.615" y2="-36.7502" gradientTransform="matrix(1 0 0 -1 -19.15 -36.7502)">
			<stop  offset="0" style="stop-color:#0F1659"/>
			<stop  offset="1" style="stop-color:#572C78"/>
		</linearGradient>
		<path class="st0" d="M423.9,65.5l-4.5,9.2l55.5,30.2v5.6c-15.7,13.1-33.3,23.7-52.3,31.4l-13.7,2.4L368,173.8l10.5,5l-75.3,46.3
			l3.6,2.4l-3.4,3.2L272,261l-12.6,9.7l-9.7,7.5l-12.2,51.9l-40,10l-18.1-7.2l-7.6,0.3l5.4-6.7l3.8-4.7l7.2-49.3l6.9-4.8l-27.5-65.8
			l13.8-15.1c0,0-33.2-23.7-37.3-28.8c-3-3.8-11.2-12.3-15-16.3l0,0l-2-2.1l26.9-12.7l14.4-6.8l-7.3-10.7l-9.7,5.6l-36.9,6.8
			l-11.8,4.8L86,123.4L46.3,71.2l2.2-8.5l0.6-2.5l-2.8-10.7H33.7c0,0-18.2-4.8-24.9-15.2L0,4.9C0,4.9,51,0,62.9,0s79,5.8,79,5.8
			L140.7,0c0,0,74.1,1.8,102.6,4.9c31,1.4,76.8-2.7,76.8-2.7S431.6,0,468.4,7.4l6.5,21.7L423.9,65.5z"/>
		
			<linearGradient id="SVGID_00000050644816532040544470000004250635140385142426_" gradientUnits="userSpaceOnUse" x1="140.67" y1="301.0348" x2="474.86" y2="301.0348" gradientTransform="matrix(1 0 0 -1 0 339.8898)">
			<stop  offset="0" style="stop-color:#745EBD"/>
			<stop  offset="1" style="stop-color:#542E77"/>
		</linearGradient>
		
			<polygon style="opacity:0.5;fill-rule:evenodd;clip-rule:evenodd;fill:url(#SVGID_00000050644816532040544470000004250635140385142426_);enable-background:new    ;" points="
			474.9,29.1 393.4,36.2 318.5,41.8 263,50.2 241.5,50.2 186,22.8 148.4,9.2 140.7,0 148,17.8 240.7,52.8 276.4,55.5 317.7,52.8 
			342.5,60.2 372.4,71.8 413.3,77.7 419.4,74.8 423.8,65.6 		"/>
		
			<linearGradient id="SVGID_00000038371788426772232210000005346193892850188703_" gradientUnits="userSpaceOnUse" x1="46.3" y1="240.9648" x2="160.92" y2="240.9648" gradientTransform="matrix(1 0 0 -1 0 339.8898)">
			<stop  offset="0" style="stop-color:#745EBD"/>
			<stop  offset="1" style="stop-color:#542E77"/>
		</linearGradient>
		
			<polygon style="opacity:0.5;fill-rule:evenodd;clip-rule:evenodd;fill:url(#SVGID_00000038371788426772232210000005346193892850188703_);enable-background:new    ;" points="
			148.4,113.3 160.9,109.4 151.2,115.1 114.3,121.9 102.6,126.7 86,123.4 46.3,71.2 70.2,94 94.1,100.2 		"/>
		
			<linearGradient id="SVGID_00000091700678225114294770000013904117839973106593_" gradientUnits="userSpaceOnUse" x1="177.06" y1="34.4448" x2="259.3" y2="34.4448" gradientTransform="matrix(1 0 0 -1 0 339.8898)">
			<stop  offset="0" style="stop-color:#745EBD"/>
			<stop  offset="1" style="stop-color:#542E77"/>
		</linearGradient>
		
			<polygon style="opacity:0.5;fill-rule:evenodd;clip-rule:evenodd;fill:url(#SVGID_00000091700678225114294770000013904117839973106593_);enable-background:new    ;" points="
			259.3,270.8 249.6,278.2 237.4,330.1 197.4,340.1 179.3,332.9 177.1,326.5 180.8,321.9 188.1,272.6 204.3,282.1 213.2,282.1 		"/>
		
			<linearGradient id="SVGID_00000021828800631780608840000001019068627322196887_" gradientUnits="userSpaceOnUse" x1="19.18" y1="-176.6801" x2="494" y2="-176.6801" gradientTransform="matrix(1 0 0 -1 -19.15 -36.7502)">
			<stop  offset="0" style="stop-color:#745EBD"/>
			<stop  offset="1" style="stop-color:#542E77"/>
		</linearGradient>
		
			<path style="opacity:0.5;fill-rule:evenodd;clip-rule:evenodd;fill:url(#SVGID_00000021828800631780608840000001019068627322196887_);enable-background:new    ;" d="
			M474.9,110.6c-15.7,13.1-33.3,23.7-52.3,31.4l-13.7,2.4L368,173.8l-30.8-4.3l-56.9,4.2l19.6,2.8h46.6l32,2.4l-75.3,46.3l-14.6-0.9
			l-16.2,9.2l-26.7,7.1l38.1-3.3l19.7-6.5L271.9,261l-12.6,9.7l-15.3,1.8l-33.2,2.4l-15.8-7.1L167.4,202l8.5,5.9l57.7-5.3l37.9-12.5
			l21.9-11.3h-15l-15.8,2.7l-46.6,8.6l-28.4,3l-6.5-6.2c0,0-33.2-23.7-37.3-28.8c-3-3.8-11.2-12.3-15-16.3l24.7,4.1l8.1,3.1
			l42.5-2.2l81-15.6l-47.9-4.2l-43.3,2.1l-34-2.1h-6.2l14.4-6.8l-7.3-10.7l-9.3-5.9L85.2,86.4L48.5,62.7l0.6-2.5l-2.8-10.7H33.7
			c0,0-18.2-4.8-24.9-15.3L0,4.9l9.4,13.5l40.7,23.4l113.6,38l45.4,8.9l111,4.2l63.2,27.6h32.4L474.9,110.6z"/>
		
			<linearGradient id="SVGID_00000152957394338625363280000005175408732046330796_" gradientUnits="userSpaceOnUse" x1="276.37" y1="284.8098" x2="436.19" y2="284.8098" gradientTransform="matrix(1 0 0 -1 0 339.8898)">
			<stop  offset="0" style="stop-color:#745EBD"/>
			<stop  offset="1" style="stop-color:#542E77"/>
		</linearGradient>
		
			<polygon style="opacity:0.2;fill-rule:evenodd;clip-rule:evenodd;fill:url(#SVGID_00000152957394338625363280000005175408732046330796_);enable-background:new    ;" points="
			423.8,65.6 379.3,58.7 350.9,50.2 361.8,41.8 412.5,38.8 436.2,32.5 350.9,39.4 318.5,41.8 276.4,55.5 317.7,52.8 368.3,71.2 
			413.3,77.7 419.4,74.8 		"/>
		
			<linearGradient id="SVGID_00000180326480220435635390000017075632735469612207_" gradientUnits="userSpaceOnUse" x1="200.34" y1="-188.6401" x2="494.04" y2="-188.6401" gradientTransform="matrix(1 0 0 -1 -19.15 -36.7502)">
			<stop  offset="0" style="stop-color:#745EBD"/>
			<stop  offset="1" style="stop-color:#542E77"/>
		</linearGradient>
		
			<path style="opacity:0.5;fill-rule:evenodd;clip-rule:evenodd;fill:url(#SVGID_00000180326480220435635390000017075632735469612207_);enable-background:new    ;" d="
			M383.3,120.4L361,147.7l-53.3,18.9l-31.4,1.9l8.9-37.3l-78.4,15.2l-3.9,34.9l-10.9,8.3l-10.9-2.7l6.5,6.2l28.4-3l62.4-11.3
			l1.8-5.2l56.9-4.2l30.8,4.3l40.9-29.4l13.8-2.4c0,0,36.1-16.3,52.3-31.4l-59.1,9.8L383.3,120.4z"/>
		
			<linearGradient id="SVGID_00000176730810690911546660000011334804254195413654_" gradientUnits="userSpaceOnUse" x1="264.02" y1="133.7448" x2="293.38" y2="133.7448" gradientTransform="matrix(1 0 0 -1 0 339.8898)">
			<stop  offset="0" style="stop-color:#745EBD"/>
			<stop  offset="1" style="stop-color:#542E77"/>
		</linearGradient>
		
			<polygon style="opacity:0.5;fill-rule:evenodd;clip-rule:evenodd;fill:url(#SVGID_00000176730810690911546660000011334804254195413654_);enable-background:new    ;" points="
			293.4,178.9 288.5,224.2 272.3,233.4 264,204.2 271.5,190.1 		"/>
		
			<linearGradient id="SVGID_00000170992977908669012420000015410267865496629130_" gradientUnits="userSpaceOnUse" x1="259.3" y1="89.1448" x2="303.39" y2="89.1448" gradientTransform="matrix(1 0 0 -1 0 339.8898)">
			<stop  offset="0" style="stop-color:#745EBD"/>
			<stop  offset="1" style="stop-color:#542E77"/>
		</linearGradient>
		
			<polygon style="opacity:0.5;fill-rule:evenodd;clip-rule:evenodd;fill:url(#SVGID_00000170992977908669012420000015410267865496629130_);enable-background:new    ;" points="
			283.7,237.3 259.3,270.8 274.8,258.2 303.4,230.7 		"/>
		
			<linearGradient id="SVGID_00000072254799447560343060000017178978862051709089_" gradientUnits="userSpaceOnUse" x1="197.38" y1="34.4448" x2="259.3" y2="34.4448" gradientTransform="matrix(1 0 0 -1 0 339.8898)">
			<stop  offset="0" style="stop-color:#745EBD"/>
			<stop  offset="1" style="stop-color:#542E77"/>
		</linearGradient>
		
			<polygon style="opacity:0.5;fill-rule:evenodd;clip-rule:evenodd;fill:url(#SVGID_00000072254799447560343060000017178978862051709089_);enable-background:new    ;" points="
			213.2,282.1 197.4,340.1 237.4,330.1 249.6,278.2 259.3,270.8 		"/>
		
			<linearGradient id="SVGID_00000111149528421033397160000002300672213117663419_" gradientUnits="userSpaceOnUse" x1="240.73" y1="291.8148" x2="333.64" y2="291.8148" gradientTransform="matrix(1 0 0 -1 0 339.8898)">
			<stop  offset="0" style="stop-color:#745EBD"/>
			<stop  offset="1" style="stop-color:#542E77"/>
		</linearGradient>
		
			<polygon style="opacity:0.5;fill-rule:evenodd;clip-rule:evenodd;fill:url(#SVGID_00000111149528421033397160000002300672213117663419_);enable-background:new    ;" points="
			317.7,52.8 333.6,40.7 318.5,41.8 263,50.2 241.5,50.2 240.7,52.8 276.4,55.5 		"/>
		
			<linearGradient id="SVGID_00000119077848267478660190000001184656535810228102_" gradientUnits="userSpaceOnUse" x1="166.59" y1="234.1298" x2="320.11" y2="234.1298" gradientTransform="matrix(1 0 0 -1 0 339.8898)">
			<stop  offset="0" style="stop-color:#745EBD"/>
			<stop  offset="1" style="stop-color:#542E77"/>
		</linearGradient>
		
			<polygon style="opacity:0.5;fill-rule:evenodd;clip-rule:evenodd;fill:url(#SVGID_00000119077848267478660190000001184656535810228102_);enable-background:new    ;" points="
			320.1,92.8 285.3,131.2 237.4,126.9 228.4,94.1 207.1,92.8 166.6,80.3 209.1,88.7 		"/>
		
			<linearGradient id="SVGID_00000044162319056056396380000014756704280463672971_" gradientUnits="userSpaceOnUse" x1="280.23" y1="183.0148" x2="422.61" y2="183.0148" gradientTransform="matrix(1 0 0 -1 0 339.8898)">
			<stop  offset="0" style="stop-color:#745EBD"/>
			<stop  offset="1" style="stop-color:#542E77"/>
		</linearGradient>
		
			<polygon style="opacity:0.5;fill-rule:evenodd;clip-rule:evenodd;fill:url(#SVGID_00000044162319056056396380000014756704280463672971_);enable-background:new    ;" points="
			361,147.7 403.8,139.9 422.6,142.1 408.8,144.4 367.9,173.8 337.1,169.5 280.2,173.7 307.8,166.6 		"/>
		
			<linearGradient id="SVGID_00000134234259389429564970000011965479821879723945_" gradientUnits="userSpaceOnUse" x1="181.19" y1="153.9198" x2="278.41" y2="153.9198" gradientTransform="matrix(1 0 0 -1 0 339.8898)">
			<stop  offset="0" style="stop-color:#745EBD"/>
			<stop  offset="1" style="stop-color:#542E77"/>
		</linearGradient>
		
			<polygon style="opacity:0.5;fill-rule:evenodd;clip-rule:evenodd;fill:url(#SVGID_00000134234259389429564970000011965479821879723945_);enable-background:new    ;" points="
			203.1,181.2 254.2,178.9 278.4,178.9 218.6,189.6 187.6,193.1 181.2,186.9 192.1,189.5 		"/>
		
			<linearGradient id="SVGID_00000077310920421584230600000008668827725374590109_" gradientUnits="userSpaceOnUse" x1="259.3" y1="89.1448" x2="303.39" y2="89.1448" gradientTransform="matrix(1 0 0 -1 0 339.8898)">
			<stop  offset="0" style="stop-color:#745EBD"/>
			<stop  offset="1" style="stop-color:#542E77"/>
		</linearGradient>
		
			<polygon style="opacity:0.5;fill-rule:evenodd;clip-rule:evenodd;fill:url(#SVGID_00000077310920421584230600000008668827725374590109_);enable-background:new    ;" points="
			283.7,237.3 259.3,270.8 303.4,230.7 		"/>
		
			<linearGradient id="SVGID_00000029012383385504920180000018306690514818741433_" gradientUnits="userSpaceOnUse" x1="187.65" y1="123.4048" x2="474.86" y2="123.4048" gradientTransform="matrix(1 0 0 -1 0 339.8898)">
			<stop  offset="0" style="stop-color:#745EBD"/>
			<stop  offset="1" style="stop-color:#542E77"/>
		</linearGradient>
		
			<polygon style="opacity:0.5;fill-rule:evenodd;clip-rule:evenodd;fill:url(#SVGID_00000029012383385504920180000018306690514818741433_);enable-background:new    ;" points="
			197.4,340.1 213.2,282.1 230.7,273.5 245.6,240.6 233.6,202.6 271.5,190.1 293.4,178.9 278.4,178.9 187.6,193.1 203.1,181.2 
			206.9,146.3 285.3,131.2 237.4,126.9 228.4,94.1 320.1,92.8 383.3,120.4 415.7,120.4 474.9,110.6 422.6,142.1 408.8,144.4 
			367.9,173.8 337.1,169.5 303.4,172 324,176.5 378.4,178.9 303.1,225.1 288.5,224.2 269.2,234 259.3,239.4 283.7,237.3 
			303.4,230.7 259.3,270.8 249.6,278.2 237.4,330.1 		"/>
		<polygon class="st16" points="130.9,148.3 206.9,156.9 281.4,151.9 333.6,135.8 374.5,131.2 455.5,124.7 440.5,133.8 391.1,139.9 
			363.5,144.6 344,144.6 279.6,155.4 204.3,170.1 160.9,172 		"/>
		<polygon class="st16" points="170.1,178.9 203.5,177.3 277.3,162.2 335.2,156.9 403.4,148.3 397.5,151.9 340.4,156.9 331.3,158.3 
			276.4,165.2 203.1,181.2 184.6,181.2 175.8,182.9 		"/>
		<polygon class="st16" points="177.1,225.1 234.3,228.1 271.4,221.4 293.4,204.1 337.3,204.1 317.8,216.1 291.8,214.4 271.2,226.2 
			243.4,233.4 180.6,233.4 		"/>
		<polygon class="st16" points="191.5,259.6 233.1,268.2 264,264.3 271.7,262 266.9,264.9 262.3,266.7 231.6,270.8 192.6,262.3 		
			"/>
		<polygon class="st17" points="140.7,0 148.4,9.2 186,22.8 241.5,50.2 263,50.2 320.1,41.7 333.6,40.7 325.7,2.1 252.9,6.4 
			197.4,1.9 		"/>
		
			<linearGradient id="SVGID_00000083079148604128380470000004515782657267698076_" gradientUnits="userSpaceOnUse" x1="85.99" y1="221.8348" x2="160.92" y2="221.8348" gradientTransform="matrix(1 0 0 -1 0 339.8898)">
			<stop  offset="0" style="stop-color:#745EBD"/>
			<stop  offset="1" style="stop-color:#542E77"/>
		</linearGradient>
		
			<polygon style="opacity:0.5;fill-rule:evenodd;clip-rule:evenodd;fill:url(#SVGID_00000083079148604128380470000004515782657267698076_);enable-background:new    ;" points="
			148.4,113.3 101.7,118.5 86,123.4 102.6,126.7 114.3,121.9 151.2,115.1 160.9,109.4 		"/>
		
			<linearGradient id="SVGID_00000124880490541343915480000003694002125113791909_" gradientUnits="userSpaceOnUse" x1="20.6" y1="298.8448" x2="46.3" y2="298.8448" gradientTransform="matrix(1 0 0 -1 0 339.8898)">
			<stop  offset="0" style="stop-color:#745EBD"/>
			<stop  offset="1" style="stop-color:#542E77"/>
		</linearGradient>
		
			<polygon style="opacity:0.5;fill-rule:evenodd;clip-rule:evenodd;fill:url(#SVGID_00000124880490541343915480000003694002125113791909_);enable-background:new    ;" points="
			46.3,49.5 46.3,40.7 34.1,32.6 31.5,46.7 20.6,44.2 33.7,49.5 		"/>
		<polygon class="st20" points="75.2,50.2 160.9,69.1 213.9,74.4 249.4,90.2 209.1,88.7 160.9,80.3 		"/>
		
			<linearGradient id="SVGID_00000166647670033587431110000000677038061475440562_" gradientUnits="userSpaceOnUse" x1="160.92" y1="222.8298" x2="202.75" y2="222.8298" gradientTransform="matrix(1 0 0 -1 0 339.8898)">
			<stop  offset="0" style="stop-color:#745EBD"/>
			<stop  offset="1" style="stop-color:#542E77"/>
		</linearGradient>
		
			<polygon style="opacity:0.5;fill-rule:evenodd;clip-rule:evenodd;fill:url(#SVGID_00000166647670033587431110000000677038061475440562_);enable-background:new    ;" points="
			168.2,120.1 202.8,124.7 160.9,109.4 		"/>
	</g>
</g>
</svg>
