<?xml version="1.0" encoding="utf-8"?>
<!-- Generator: Adobe Illustrator 25.4.1, SVG Export Plug-In . SVG Version: 6.00 Build 0)  -->
<svg version="1.1" id="Illustration" xmlns="http://www.w3.org/2000/svg" xmlns:xlink="http://www.w3.org/1999/xlink" x="0px"
	 y="0px" viewBox="0 0 1351 1543" style="enable-background:new 0 0 1351 1543;" xml:space="preserve">
<style type="text/css">
	.st0{fill:#3E1D36;}
	.st1{fill:#F4D1BD;}
	.st2{fill:#54294C;}
	.st3{fill:#563550;}
	.st4{fill:#7A4370;}
	.st5{fill:#684162;}
	.st6{fill:#995C91;}
	.st7{fill:#6CE09B;}
	.st8{fill:#91B3FA;}
	.st9{fill:#4AA06F;}
	.st10{fill:#7D97F4;}
	.st11{fill:url(#SVGID_1_);}
	.st12{fill:url(#SVGID_00000080921951971355392270000000672623417900696710_);}
	.st13{fill:url(#SVGID_00000027580422814221550590000016007621157109212079_);}
	.st14{fill:url(#SVGID_00000145775037115957625550000018244374580956756396_);}
	.st15{fill:url(#SVGID_00000041976028967506424740000010385260031210670239_);}
	.st16{fill:url(#SVGID_00000144305004932903373320000000338864922097002372_);}
	.st17{fill:url(#SVGID_00000060018569015453124890000015669019799277229716_);}
	.st18{fill:url(#SVGID_00000118375319337665728170000002411625289342495675_);}
	.st19{fill:url(#SVGID_00000140728087526009648220000008028383351953998751_);}
	.st20{fill:url(#SVGID_00000070114284032951081120000000922389245844839052_);}
	.st21{fill:#B70034;}
	.st22{fill:url(#SVGID_00000143609225635100338840000014403430963765392053_);}
	.st23{fill:url(#SVGID_00000021800326487019458730000003997174877502689415_);}
	.st24{fill:url(#SVGID_00000068651598159769006020000013672033267385942716_);}
	.st25{fill:url(#SVGID_00000024710207373419270730000015787203247216962204_);}
	.st26{fill:url(#SVGID_00000025436463450951604470000016657234254517116845_);}
	.st27{fill:url(#SVGID_00000047759987576070541530000014219164666946532756_);}
	.st28{fill:url(#SVGID_00000086658892244390871510000004856591506520245125_);}
	.st29{fill:url(#SVGID_00000004547856233564295490000007666649617529988226_);}
	.st30{fill:#8D2428;}
	.st31{fill:url(#SVGID_00000039092488517760262580000000467161828384925630_);}
	.st32{fill:#244C37;}
	.st33{opacity:0.8;}
	.st34{fill:#FFFFFF;}
	.st35{fill:url(#SVGID_00000173156380889927056930000008088332823091039413_);}
	.st36{fill:url(#SVGID_00000004508023412835317090000004084585718726313088_);}
	.st37{fill:url(#SVGID_00000063632927190292857010000001343727840909011634_);}
	.st38{fill:url(#SVGID_00000158710003404212864590000010366402804321257116_);}
	.st39{fill:#1B342B;}
	.st40{fill:url(#SVGID_00000086679737497089288090000004590669853160682409_);}
	.st41{fill:url(#SVGID_00000021119365460438845790000013365018284777890187_);}
	.st42{fill:url(#SVGID_00000181053825077577269240000007649469061578530222_);}
	.st43{fill:#B90033;}
	.st44{fill:url(#SVGID_00000031201714274346701370000006582883290011004857_);}
	.st45{fill:url(#SVGID_00000016778240413511585230000005130036083821595816_);}
	.st46{fill:url(#SVGID_00000154389725448751035110000004933435527043100034_);}
	.st47{fill:url(#SVGID_00000132792270782690599200000001008844091313543577_);}
	.st48{fill:#3F1E37;}
	.st49{fill:url(#SVGID_00000153701153877276244410000003295569504937652138_);}
	.st50{display:none;}
	.st51{display:inline;}
	.st52{fill:url(#SVGID_00000181076538562789012240000013171626523478636683_);}
	.st53{fill:url(#SVGID_00000152242488433534584250000012982439709197851312_);}
	.st54{fill:url(#SVGID_00000108290404627776108330000005383961450857805758_);}
	.st55{opacity:0.3;fill:url(#SVGID_00000013908706814379295620000017013751209111641474_);enable-background:new    ;}
	.st56{fill:url(#SVGID_00000115509687224447930920000000121441707888927633_);}
	.st57{fill:url(#SVGID_00000067952705134634479910000017129848987572752551_);}
	.st58{opacity:0.3;fill:url(#SVGID_00000169558768891748652140000017690524102420313769_);enable-background:new    ;}
	.st59{fill:url(#SVGID_00000021819482456852524260000008298452449509831319_);}
	.st60{fill:url(#SVGID_00000042714743274551719210000003052223721735016605_);}
	
		.st61{clip-path:url(#SVGID_00000051351470736371154600000001454733077950521254_);fill:url(#SVGID_00000006696655422904379020000004658644461860726187_);}
	
		.st62{opacity:0.3;clip-path:url(#SVGID_00000176029543900949930600000010399716524192153534_);fill:url(#SVGID_00000138570333420796492110000001608941075681900936_);enable-background:new    ;}
	.st63{fill:url(#SVGID_00000165931100655530225430000002599182145395676817_);}
	.st64{opacity:0.3;}
	.st65{fill:url(#SVGID_00000053523754464841621950000002360680880518008735_);}
	.st66{fill:url(#SVGID_00000048471033550700902160000001657507732256173701_);}
	.st67{fill:url(#SVGID_00000011724768146316728980000010382096598221526685_);}
	.st68{fill:url(#SVGID_00000148631311940219786310000009056164408036729520_);}
	.st69{fill:url(#SVGID_00000045603512398588700350000003784801962638372268_);}
	.st70{fill:url(#SVGID_00000052803680749103551900000015498303152582315952_);}
	.st71{fill:url(#SVGID_00000078753074626243284980000005904761567243774383_);}
	.st72{fill:url(#SVGID_00000081634325825956825980000005275514351317562808_);}
	.st73{fill:url(#SVGID_00000119100132484001802890000003721097366047524012_);}
	.st74{fill:url(#SVGID_00000023265146386391452210000009497645609237000583_);}
	.st75{fill:url(#SVGID_00000052789937938847330580000010153281818223796127_);}
	.st76{fill:url(#SVGID_00000056397115550983730610000010241815568364396177_);}
	.st77{fill:url(#SVGID_00000026878261224538168040000007267582114389126794_);}
	.st78{fill:url(#SVGID_00000122687826128268930980000004703494838450492590_);}
	.st79{fill:url(#SVGID_00000044870875473432200760000012654936725386592644_);}
	.st80{fill:url(#SVGID_00000109021052990303864900000011799439585079949731_);}
	.st81{fill:url(#SVGID_00000094585480622831360400000005615395702008849027_);}
	.st82{fill:url(#SVGID_00000123421836887217882900000010608594862728145065_);}
	.st83{fill:url(#SVGID_00000069367368667314377330000002872374753170027426_);}
	.st84{opacity:0.3;fill:url(#SVGID_00000175315089884863049720000011899757294818816412_);enable-background:new    ;}
</style>
<g>
	<g>
		<g>
			<path class="st0" d="M926.49,597.51c-0.11,11.69-9.14,21.16-20.17,21.19l-266.74,0.65c-11.11,0.03-20.34-9.44-20.6-21.17
				L606.55,45.7c-0.3-13.14,9.03-23.76,20.83-23.7l283.14,1.51c11.71,0.06,21.1,10.74,20.98,23.82L926.49,597.51z"/>
			<path class="st1" d="M902.45,79.21c0.08-12.62-9.23-22.92-20.81-22.98l-224.73-1.1c-11.64-0.06-20.88,10.19-20.63,22.86
				l9.24,469.74c0.23,11.51,9.38,20.8,20.44,20.78l213.5-0.38c10.99-0.02,19.96-9.31,20.04-20.78L902.45,79.21z"/>
			<path class="st2" d="M803.14,38.35c0.01,2.45-1.77,4.42-3.96,4.41l-58.49-0.29c-2.2-0.01-4-2.01-4.02-4.46l0,0
				c-0.03-2.45,1.73-4.43,3.93-4.42l58.55,0.3C801.35,33.91,803.14,35.9,803.14,38.35L803.14,38.35z"/>
		</g>
	</g>
	<g>
		<g>
			<path class="st3" d="M623.99,54.22c-1.46,0-2.82,0.75-3.6,1.98c-16.45,25.95-32.89,52.07-49.34,77.85c16.16,0,32.32,0,48.49,0
				c12.65-25.78,25.3-52.81,37.95-79.84C646.32,54.22,635.15,54.22,623.99,54.22z"/>
			<path class="st4" d="M668.02,133.94c-16.16,0-32.32,0-48.49,0c12.65-26.61,25.3-53.23,37.95-79.84c11.95,0,23.89,0,35.84,0
				C684.89,80.71,676.45,107.32,668.02,133.94z"/>
			<g>
				<path class="st3" d="M716.51,133.94c-16.16,0-32.32,0-48.49,0c8.43-26.61,16.87-53.23,25.3-79.84c11.95,0,23.89,0,35.84,0
					C724.94,80.71,720.72,107.32,716.51,133.94z"/>
			</g>
			<path class="st4" d="M764.99,133.94c-16.16,0-32.32,0-48.49,0c4.22-26.61,8.43-53.23,12.65-79.84c11.95,0,23.89,0,35.84,0
				C764.99,80.71,764.99,107.32,764.99,133.94z"/>
			<g>
				<path class="st3" d="M813.48,133.94c-16.16,0-32.32,0-48.49,0c0-26.61,0-53.23,0-79.84c11.95,0,23.89,0,35.84,0
					C805.05,80.71,809.26,107.32,813.48,133.94z"/>
			</g>
			<path class="st4" d="M861.97,133.94c-16.16,0-32.32,0-48.49,0c-4.22-26.61-8.43-53.23-12.65-79.84c11.95,0,23.89,0,35.84,0
				C845.1,80.71,853.54,107.32,861.97,133.94z"/>
			<g>
				<path class="st3" d="M910.46,133.94c-16.16,0-32.32,0-48.49,0c-8.43-26.61-16.87-53.23-25.3-79.84c11.95,0,23.89,0,35.84,0
					C885.16,80.71,897.81,107.32,910.46,133.94z"/>
			</g>
			<path class="st4" d="M909.6,56.2c-0.78-1.23-2.14-1.98-3.6-1.98c-11.16,0-22.33,0-33.49,0c12.65,27.03,25.3,54.06,37.95,79.84
				c16.16,0,32.32,0,48.49,0C942.5,108.27,926.05,82.15,909.6,56.2z"/>
		</g>
		<g>
			<path class="st5" d="M570.96,134.05v13.11c0,11.52,11.09,20.15,24.45,20.15h0.52c13.35,0,24.1-8.63,24.1-20.15v-13.11H570.96z"/>
			<path class="st6" d="M620.02,134.05v13.11c0,11.52,10.29,20.15,23.42,20.15h0.51c13.13,0,23.48-8.63,23.48-20.15v-13.11H620.02z"
				/>
		</g>
		<g>
			<path class="st5" d="M667.43,134.05v13.11c0,11.52,11.51,20.15,24.86,20.15h0.52c13.35,0,23.68-8.63,23.68-20.15v-13.11H667.43z"
				/>
			<path class="st6" d="M716.49,134.05v13.11c0,11.52,10.7,20.15,23.83,20.15h0.51c13.13,0,24.31-8.63,24.31-20.15v-13.11H716.49z"
				/>
		</g>
		<g>
			<path class="st5" d="M765.14,134.05v13.11c0,11.52,10.68,20.15,24.03,20.15h0.52c13.35,0,24.1-8.63,24.1-20.15v-13.11H765.14z"/>
			<path class="st6" d="M813.79,134.05v13.11c0,11.52,10.29,20.15,23.41,20.15h0.51c13.13,0,24.31-8.63,24.31-20.15v-13.11H813.79z"
				/>
		</g>
		<g>
			<path class="st5" d="M862.03,134.05v13.11c0,11.52,10.68,20.15,24.03,20.15h0.52c13.35,0,24.52-8.63,24.52-20.15v-13.11H862.03z"
				/>
			<path class="st6" d="M911.09,134.05v13.11c0,11.52,9.87,20.15,23,20.15h0.51c13.13,0,23.89-8.63,23.89-20.15v-13.11H911.09z"/>
		</g>
	</g>
	<g>
		<g>
			<path class="st7" d="M497.95,1494.86c0,0-89.13,98.26-163.56,56.73c-59.82-33.38,25.17-24.65,97.26-40.42
				c5.66-1.24,4.18-9.69-1.56-8.93c-56.41,7.48-142.48,13.59-157.42-15.82c-22.57-44.4-0.68-30,68-23.59
				c68.68,6.41,81.92-10.55,37.08-21.11c-44.83-10.56-116.15,12.8-132.77-8.92c-16.61-21.73-25.7-64.85-32.32-83.4
				c-6.62-18.55,85.5-46.38,110.4-22.03c24.9,24.35,45.13,78.69,74.68,88.61c29.56,9.92-2.24-38.15-21.84-62.96
				c-19.6-24.81-27.37-43.25,11.79-37.33c39.16,5.92,59.86,53.71,63.99,89.39c4.13,35.68,17.92,55.63,17.3,37.98
				c-0.62-17.65-7.03-71.78-19.55-88.05C436.92,1338.73,526.28,1358.59,497.95,1494.86z"/>
			<path class="st8" d="M490.7,1495.8c-0.39,0.15-0.85,0.08-1.19-0.21c-76.5-66.93-204.81-115.57-206.09-116.05
				c-0.61-0.23-0.91-0.9-0.68-1.51c0.23-0.6,0.9-0.91,1.51-0.68c1.29,0.48,129.99,49.27,206.81,116.48
				c0.49,0.42,0.54,1.17,0.11,1.65C491.03,1495.63,490.87,1495.74,490.7,1495.8z"/>
		</g>
		<g>
			<path class="st9" d="M551.76,1557.62c0,0-162.77,5.37-189.75-95.73c-21.68-81.25,43.24,1.13,118.73,51.21
				c5.92,3.93,12.11-4.6,6.54-9.01c-54.78-43.34-133.7-113.99-120.54-152.3c19.86-57.83,25.87-26.23,78.89,39.8
				c53.02,66.03,79.28,63.21,50.29,14.66c-28.99-48.55-110.52-91.47-105.56-124.67c4.96-33.21,35.22-78.06,45.91-99.74
				c10.69-21.68,113.93,35.76,113.74,78.51c-0.19,42.76-30.82,107.01-14.32,141.54c16.5,34.53,31.72-34.56,36.85-73.04
				c5.13-38.48,14.75-61.08,42.99-21.5c28.24,39.58,3.79,98.66-24.14,132.78c-27.93,34.12-33.73,63.33-18.71,47.7
				s57.28-67.52,60.93-92.46C637.27,1370.44,696.09,1466.18,551.76,1557.62z"/>
			<path class="st10" d="M544.73,1552.03c-0.47-0.22-0.8-0.68-0.83-1.23c-6.35-124.62-73.08-279.29-73.75-280.84
				c-0.32-0.73,0.02-1.57,0.75-1.89c0.73-0.31,1.57,0.02,1.89,0.75c0.68,1.55,67.61,156.69,73.99,281.84
				c0.04,0.79-0.57,1.47-1.36,1.51C545.17,1552.17,544.94,1552.12,544.73,1552.03z"/>
		</g>
	</g>
	<g>
		<g>
			<path class="st8" d="M856.52,985.95L740.1,964.56c-1.67-0.31-3.3,0.76-3.69,2.41l-40.58,175.85c-0.2,0.87-0.03,1.77,0.47,2.51
				c0.5,0.73,1.28,1.22,2.16,1.36l156.98,23.36c0.92,0.14,1.88-0.13,2.59-0.74c0.7-0.6,1.14-1.48,1.14-2.41V989.08
				C859.16,987.55,858.03,986.23,856.52,985.95z"/>
			<linearGradient id="SVGID_1_" gradientUnits="userSpaceOnUse" x1="766.1487" y1="978.4178" x2="764.9954" y2="994.0526">
				<stop  offset="0" style="stop-color:#4042E2"/>
				<stop  offset="1" style="stop-color:#4F52FF"/>
			</linearGradient>
			<path class="st11" d="M770.27,978.94c0,2.3-1.86,4.17-4.16,4.17c-2.3,0-4.16-1.87-4.16-4.17c0-2.3,1.86-4.16,4.16-4.16
				C768.41,974.78,770.27,976.64,770.27,978.94z"/>
			
				<linearGradient id="SVGID_00000032638780798712243970000000289313897135201955_" gradientUnits="userSpaceOnUse" x1="823.5601" y1="990.7203" x2="822.4067" y2="1006.355">
				<stop  offset="0" style="stop-color:#4042E2"/>
				<stop  offset="1" style="stop-color:#4F52FF"/>
			</linearGradient>
			<path style="fill:url(#SVGID_00000032638780798712243970000000289313897135201955_);" d="M827.69,991.25
				c0,2.3-1.86,4.17-4.16,4.17c-2.3,0-4.16-1.87-4.16-4.17c0-2.3,1.86-4.16,4.16-4.16C825.82,987.08,827.69,988.95,827.69,991.25z"
				/>
		</g>
		
			<linearGradient id="SVGID_00000046315061838329077370000007552992775053882786_" gradientUnits="userSpaceOnUse" x1="765.3967" y1="953.0868" x2="824.2349" y2="953.0868">
			<stop  offset="0" style="stop-color:#DAE3FE"/>
			<stop  offset="1" style="stop-color:#E9EFFD"/>
		</linearGradient>
		<path style="fill:url(#SVGID_00000046315061838329077370000007552992775053882786_);" d="M823.52,991.96L823.52,991.96
			c-0.39,0-0.71-0.32-0.71-0.71c0-0.74-0.19-73.6-18.14-75.56c-0.27-0.03-0.55-0.04-0.82-0.04c-17.55,0-36.49,60.01-37.03,63.38
			c0,0.39-0.32,0.68-0.71,0.68c-0.39,0-0.71-0.36-0.71-0.75c0-1.51,13.88-46.55,29.49-60.55c3.44-3.09,6.77-4.48,9.94-4.13
			c19.21,2.1,19.41,73.92,19.41,76.98C824.23,991.64,823.92,991.96,823.52,991.96z"/>
		
			<linearGradient id="SVGID_00000065070764058130547180000003480384255061884337_" gradientUnits="userSpaceOnUse" x1="884.4762" y1="570.5677" x2="887.3273" y2="650.3981">
			<stop  offset="0" style="stop-color:#FF928E"/>
			<stop  offset="1" style="stop-color:#FEB3B1"/>
		</linearGradient>
		<path style="fill:url(#SVGID_00000065070764058130547180000003480384255061884337_);" d="M982.16,701.79
			c0,0-63.72,145.39-154.31,167.9c-17.53,3.41-38.13,1.92-47.34,7.64c-10.46,6.5,2.26,24.04,7.35,37.33
			c5.09,13.29,7.07,7.07,9.33,2.83c2.26-4.24-7.26-17.63,5.18-22.9c12.44-5.28,8.67,2.83,2.83,9.8c-5.84,6.98-5.65,17.72-5.28,18.29
			c0.38,0.57,9.8-4.15,18.66-8.29c7.6-3.56,11.86-13.34,12.92-16.05c17.94-2.09,130.2-19.75,177.92-137.8
			C1009.45,760.51,1014.04,643.31,982.16,701.79z"/>
		
			<linearGradient id="SVGID_00000137834130006776570450000018409917920655905709_" gradientUnits="userSpaceOnUse" x1="1202.0533" y1="1015.5779" x2="1247.7699" y2="1015.5779">
			<stop  offset="0" style="stop-color:#DAE3FE"/>
			<stop  offset="1" style="stop-color:#E9EFFD"/>
		</linearGradient>
		<path style="fill:url(#SVGID_00000137834130006776570450000018409917920655905709_);" d="M1247.06,1045.44
			c-0.35,0-0.65-0.25-0.7-0.6c-0.08-0.48-7.73-48.02-22.53-56.45c-2.54-1.45-5.08-1.64-7.75-0.57c-20.06,7.99-9.99,53.05-9.89,53.51
			c0.09,0.38-0.15,0.77-0.53,0.85c-0.38,0.1-0.77-0.15-0.85-0.53c-0.44-1.9-10.44-46.71,10.75-55.15c3.06-1.22,6.08-1,8.99,0.66
			c15.4,8.77,22.92,55.48,23.23,57.46c0.06,0.39-0.2,0.75-0.59,0.81C1247.13,1045.44,1247.09,1045.44,1247.06,1045.44z"/>
		
			<linearGradient id="SVGID_00000112608402836700616830000015982094880762928021_" gradientUnits="userSpaceOnUse" x1="1152.5721" y1="1007.674" x2="1183.8998" y2="1050.4629" gradientTransform="matrix(0.997 0.0777 -0.0777 0.997 138.12 -71.3727)">
			<stop  offset="0" style="stop-color:#E1473D"/>
			<stop  offset="1" style="stop-color:#E9605A"/>
		</linearGradient>
		<polygon style="fill:url(#SVGID_00000112608402836700616830000015982094880762928021_);" points="1267.14,1041.4 1191.91,1034.45 
			1175.16,1043.74 1189.52,1061.69 1258.23,1054.69 		"/>
		
			<linearGradient id="SVGID_00000083062925738404272410000001161139084043948189_" gradientUnits="userSpaceOnUse" x1="1268.9175" y1="1318.8588" x2="1266.0664" y2="1626.7761" gradientTransform="matrix(0.997 0.0777 -0.0777 0.997 138.12 -71.3727)">
			<stop  offset="0" style="stop-color:#09005D"/>
			<stop  offset="1" style="stop-color:#1A0F91"/>
		</linearGradient>
		<path style="fill:url(#SVGID_00000083062925738404272410000001161139084043948189_);" d="M1256.27,1499.49l1.24,28.78
			c0.24,5.46,4.16,10.07,9.53,11.11c9.06,1.76,23.64,3.97,38.11,3.57c6.35-0.17,10.94-6.23,9.49-12.42
			c-2.64-11.28-7.75-28.3-16.22-38.74l-31.63-2.47C1260.95,1488.87,1256.02,1493.63,1256.27,1499.49z"/>
		
			<linearGradient id="SVGID_00000029011884626879712940000007329903950767239080_" gradientUnits="userSpaceOnUse" x1="978.3038" y1="1735.0341" x2="1066.3152" y2="706.3994" gradientTransform="matrix(0.997 0.0777 -0.0777 0.997 138.12 -71.3727)">
			<stop  offset="0" style="stop-color:#FF928E"/>
			<stop  offset="1" style="stop-color:#FEB3B1"/>
		</linearGradient>
		<path style="fill:url(#SVGID_00000029011884626879712940000007329903950767239080_);" d="M1034.59,1146.18l-7.79,30.99
			c0,0,3.76,182.47,1.29,255.15c-0.39,11.39-4.2,22.39-10.91,31.6l-35.02,48.06l82.64-40.46l2.32-9.52l-11.55-18.79l32.76-201.53
			c1.92-11.84,0.4-23.98-4.4-34.98l-13.95-31.97L1034.59,1146.18z"/>
		
			<linearGradient id="SVGID_00000150082828408157305540000014428383683430041523_" gradientUnits="userSpaceOnUse" x1="1003.6873" y1="1316.4036" x2="1000.8362" y2="1624.3201" gradientTransform="matrix(0.997 0.0777 -0.0777 0.997 138.12 -71.3727)">
			<stop  offset="0" style="stop-color:#09005D"/>
			<stop  offset="1" style="stop-color:#1A0F91"/>
		</linearGradient>
		<path style="fill:url(#SVGID_00000150082828408157305540000014428383683430041523_);" d="M976.39,1518.88l25.21,1.97
			c4.72,0.37,9.34-1.45,12.51-4.97c8.66-9.6,26.49-28.25,34.32-28.17c10.54,0.12,6.29,37.28,6.29,37.28l5.88,0.46l11.05-45.72
			c2.78-11.5-2.11-23.5-12.15-29.77l0,0c0,0-3.78,17.53-17.38,24.36c-13.6,6.82-55.67,31.78-55.67,31.78s-4.83-1.08-10.27-0.53
			C968.11,1506.39,968.3,1518.25,976.39,1518.88z"/>
		
			<linearGradient id="SVGID_00000031930073694825416820000003091975848646036906_" gradientUnits="userSpaceOnUse" x1="1155.3431" y1="1750.3555" x2="1243.3793" y2="721.4322" gradientTransform="matrix(0.997 0.0777 -0.0777 0.997 138.12 -71.3727)">
			<stop  offset="0" style="stop-color:#FF928E"/>
			<stop  offset="1" style="stop-color:#FEB3B1"/>
		</linearGradient>
		<path style="fill:url(#SVGID_00000031930073694825416820000003091975848646036906_);" d="M1141.64,1169.53
			c0,0,89.24,206.83,102.35,253.48c13.11,46.65,15.99,84.95,15.94,88.55c-0.09,5.63,6.46,11.54,25.65,13.04
			c9.91,0.77,15.07-2.82,17.74-6.48c2.28-3.12,2.71-7.22,1.27-10.81c-5.1-12.73-21.27-53.41-27.01-71.74
			c-6.85-21.88-17.64-119.46-25.06-153.67c-7.42-34.21-15.93-71.36-57-108.17C1195.53,1173.74,1167.84,1142.04,1141.64,1169.53z"/>
		<path class="st21" d="M1100.86,838.86c-18.09-116.58,55.4-175.99,55.4-175.99c-21.95-24.63-55.16-43.27-80.62-55.07
			c-23-10.66-50.16-6.86-69.35,9.72c-21.1,18.23-44.07,44.06-40.99,68.23c3.26,25.59,41.01,154.94,41.01,154.94
			S1048.66,864.92,1100.86,838.86z"/>
		<path class="st21" d="M1156.34,900.2c-8.41-33.98-55.48-61.34-55.48-61.34c-52.2,26.06-94.55,1.82-94.55,1.82
			s-12.8,36.92-8.72,72.48c4.07,35.56,29.22,264,29.22,264c66.22,18.88,171.83-0.4,171.83-0.4
			C1161.71,1097.34,1164.75,934.18,1156.34,900.2z"/>
		
			<linearGradient id="SVGID_00000116922105908574874420000001491728266668383886_" gradientUnits="userSpaceOnUse" x1="972.3165" y1="677.5672" x2="960.4031" y2="441.4624" gradientTransform="matrix(0.997 0.0777 -0.0777 0.997 138.12 -71.3727)">
			<stop  offset="0" style="stop-color:#FF928E"/>
			<stop  offset="1" style="stop-color:#FEB3B1"/>
		</linearGradient>
		<path style="fill:url(#SVGID_00000116922105908574874420000001491728266668383886_);" d="M1071.75,535.76l14.27,100.37
			c1.43,8.85-6.39,6.81-15.04,4.47c-14.18-3.83-32.28-10.87-37.61-22.55c-0.54-1.19-0.76-2.5-0.83-3.81l-4.1-69.15
			c-0.33-5.49,3.02-10.52,8.2-12.36l18.84-6.65C1062.72,523.53,1070.52,528.16,1071.75,535.76z"/>
		
			<linearGradient id="SVGID_00000051348232176562740690000008332204781604066461_" gradientUnits="userSpaceOnUse" x1="1252.235" y1="1131.3558" x2="1329.2472" y2="1131.3558">
			<stop  offset="0" style="stop-color:#E1473D"/>
			<stop  offset="1" style="stop-color:#E9605A"/>
		</linearGradient>
		<polygon style="fill:url(#SVGID_00000051348232176562740690000008332204781604066461_);" points="1303.45,1221.31 
			1329.25,1206.48 1267.14,1041.4 1252.23,1051.47 		"/>
		
			<linearGradient id="SVGID_00000034786123606629286490000016177222956025312384_" gradientUnits="userSpaceOnUse" x1="1186.248" y1="1027.3363" x2="1234.5764" y2="1027.3363">
			<stop  offset="0" style="stop-color:#DAE3FE"/>
			<stop  offset="1" style="stop-color:#E9EFFD"/>
		</linearGradient>
		<path style="fill:url(#SVGID_00000034786123606629286490000016177222956025312384_);" d="M1233.44,1062.77c-0.02,0-0.04,0-0.06,0
			c-0.39,0-0.69-0.07-0.66-0.46c0.04-0.48,3.38-48.47-10.4-64.24c-2.65-3.03-5.8-4.6-9.38-4.8c-3.46-0.19-6.69,1.08-9.53,3.72
			c-14.88,13.86-15.74,61.56-15.75,62.04c-0.01,0.4-0.33,0.77-0.72,0.71c-0.39-0.01-0.71-0.33-0.7-0.72
			c0.03-1.98,0.88-48.77,16.2-63.04c3.13-2.92,6.68-4.31,10.58-4.07c3.97,0.22,7.45,2.03,10.37,5.36
			c14.39,16.47,10.78,64.65,10.75,65.14C1234.12,1062.8,1233.81,1062.77,1233.44,1062.77z"/>
		
			<linearGradient id="SVGID_00000140004575170391181430000017271440095658726299_" gradientUnits="userSpaceOnUse" x1="1110.823" y1="863.4152" x2="1078.6959" y2="532.9677" gradientTransform="matrix(0.997 0.0777 -0.0777 0.997 138.12 -71.3727)">
			<stop  offset="0" style="stop-color:#FF928E"/>
			<stop  offset="1" style="stop-color:#FEB3B1"/>
		</linearGradient>
		<path style="fill:url(#SVGID_00000140004575170391181430000017271440095658726299_);" d="M1120.27,708.27
			c3.69,4.89,59.59,71.4,75.6,145.61c16.01,74.21,10.63,123.77,10.63,123.77s-16.26,12.13-10.42,20.73
			c5.85,8.6,4.3,14.46,11.78,16.13c7.47,1.67,16.74,4.02,15.61-10.73c-1.13-14.75,16.48-17.73,13.56-26.64
			c-2.91-8.88,17.02-248.39-79.4-313.35c-0.46-0.31-0.91-0.61-1.37-0.91C1115.49,677.6,1114.34,700.41,1120.27,708.27z"/>
		
			<linearGradient id="SVGID_00000104690714443786120220000005835393290945728672_" gradientUnits="userSpaceOnUse" x1="1175.1207" y1="1134.2394" x2="1303.4491" y2="1134.2394">
			<stop  offset="0" style="stop-color:#FE7062"/>
			<stop  offset="1" style="stop-color:#FF928E"/>
		</linearGradient>
		<polygon style="fill:url(#SVGID_00000104690714443786120220000005835393290945728672_);" points="1175.12,1044.28 
			1252.23,1051.47 1303.45,1221.31 1192.74,1224.2 		"/>
		<g>
			
				<linearGradient id="SVGID_00000008853264522677501800000018083814077123651989_" gradientUnits="userSpaceOnUse" x1="1704.4882" y1="979.4753" x2="1705.4385" y2="1062.1609" gradientTransform="matrix(0.997 0.0777 -0.0777 0.997 -332.402 22.5662)">
				<stop  offset="0" style="stop-color:#FF928E"/>
				<stop  offset="1" style="stop-color:#FEB3B1"/>
			</linearGradient>
			<path style="fill:url(#SVGID_00000008853264522677501800000018083814077123651989_);" d="M1305,1218.65
				c-0.08,0-0.17-0.01-0.26-0.03c-0.55-0.14-0.87-0.7-0.73-1.25l4.95-18.87l-39.05-121.18c-0.17-0.54,0.12-1.12,0.66-1.29
				c0.56-0.16,1.13,0.12,1.29,0.66l39.15,121.47c0.06,0.19,0.06,0.39,0.02,0.58l-5.03,19.16
				C1305.87,1218.35,1305.46,1218.65,1305,1218.65z"/>
		</g>
		<g>
			
				<linearGradient id="SVGID_00000156566619727219174590000007353432329223520163_" gradientUnits="userSpaceOnUse" x1="1738.9648" y1="979.0797" x2="1739.9153" y2="1061.7642" gradientTransform="matrix(0.997 0.0777 -0.0777 0.997 -332.402 22.5662)">
				<stop  offset="0" style="stop-color:#FF928E"/>
				<stop  offset="1" style="stop-color:#FEB3B1"/>
			</linearGradient>
			<path style="fill:url(#SVGID_00000156566619727219174590000007353432329223520163_);" d="M1327.38,1206.82
				c-0.15,0-0.3-0.03-0.44-0.1l-13.35-6.38c-0.51-0.24-0.73-0.86-0.48-1.37c0.25-0.51,0.87-0.72,1.37-0.48l13.35,6.38
				c0.51,0.24,0.73,0.86,0.48,1.37C1328.13,1206.6,1327.76,1206.82,1327.38,1206.82z"/>
		</g>
		<g>
			
				<linearGradient id="SVGID_00000168097802447813102850000010886222813653717426_" gradientUnits="userSpaceOnUse" x1="1113.3018" y1="446.0736" x2="1021.4818" y2="552.0197">
				<stop  offset="0" style="stop-color:#FF928E"/>
				<stop  offset="1" style="stop-color:#FEB3B1"/>
			</linearGradient>
			<path style="fill:url(#SVGID_00000168097802447813102850000010886222813653717426_);" d="M1055.95,456.14
				c0,0-30.54,8.3-55.81,47.39c-25.28,39.1-13.21,60.35,4.86,65.48c18.07,5.13,45.68,8.45,78.47-14.58
				C1116.25,531.41,1095.46,446.75,1055.95,456.14z"/>
			<path class="st30" d="M1066.88,529.51c0,0,30.04-58.13-24.01-66.17l-13.94,7.19c0,0-15.3-36.54,19.5-48.31
				c34.79-11.76,81.51,9.2,89.46,55.01c7.95,45.81-4.01,73.08-29.93,90.98c-25.93,17.9-32.22-7.21-32.22-7.21
				s15.23-17.96,11.53-29.17c-3.7-11.21-17.22-0.11-17.22-0.11L1066.88,529.51z"/>
			
				<linearGradient id="SVGID_00000160174894546724207580000011306370821777012639_" gradientUnits="userSpaceOnUse" x1="1142.2247" y1="471.1401" x2="1050.4049" y2="577.0859">
				<stop  offset="0" style="stop-color:#FF928E"/>
				<stop  offset="1" style="stop-color:#FEB3B1"/>
			</linearGradient>
			<path style="fill:url(#SVGID_00000160174894546724207580000011306370821777012639_);" d="M1072.03,537.13
				c0,0,15.27-29.97,28.28-15.46c13.01,14.51-15.87,27.45-27.03,31.4L1072.03,537.13z"/>
			<path class="st30" d="M1111.92,468.29c0,0,104.97-32.3,122.25,77.2c17.28,109.49,29.21,144.59,55.24,125.71
				c0,0-4.29,40.91-54.26,22.62C1105.43,646.37,1184.38,494.41,1111.92,468.29z"/>
		</g>
	</g>
	<g>
		<g>
			<g>
				<g>
					<path class="st32" d="M733.35,1315.69c-8.42-20.06-38.92-80.89-92.87-62.11c-0.79,0.28-0.7,1.43,0.12,1.59
						c11.9,2.2,55.98,13.34,91.32,61.32C732.51,1317.26,733.73,1316.58,733.35,1315.69z"/>
					<path class="st32" d="M732.89,1316.94c-12.13-11.43-48.24-55.66-96.2-35.45c-0.53,0.22-0.42,1,0.15,1.06
						c11.85,1.25,70.7,8.71,95.82,35.35C733.32,1318.62,733.6,1317.61,732.89,1316.94z"/>
					<path class="st32" d="M731.75,1311.92c-1.15-15.12-7.91-72.22-44.68-84c-0.27-0.09-0.5,0.22-0.33,0.45
						c4.43,6.25,36.67,52.42,44.44,83.64C731.26,1312.36,731.78,1312.28,731.75,1311.92z"/>
					<path class="st32" d="M734.64,1323.33c0.32,0.18,0.64-0.24,0.38-0.5c-6.5-6.47-33.39-30.25-67.54-18.54
						C628.8,1317.56,696.53,1302.66,734.64,1323.33z"/>
					<path class="st32" d="M734.52,1317.4c-0.08,1.13-1.69,1.27-1.94,0.16c-4.08-17.94-12.72-67.39,12.44-79.97
						C774.8,1222.7,738.56,1258.75,734.52,1317.4z"/>
					<path class="st32" d="M732.78,1317.28c4.23-11.01,20.52-45.21,54.43-26.73c0.57,0.31,0.39,1.18-0.26,1.22
						c-7.63,0.48-33,3.77-53.07,26.16C733.39,1318.47,732.52,1317.95,732.78,1317.28z"/>
					<path class="st32" d="M733.7,1320.04c1.56-6.8,9.67-20.44,50.95-7.95c0.25,0.07,0.18,0.45-0.07,0.42
						c-8.11-0.84-35.52-2.7-48.95,8.7C734.75,1321.95,733.44,1321.14,733.7,1320.04z"/>
				</g>
				<path class="st32" d="M743.38,1505.45c-0.04,0.04-0.07,0.08-0.08,0.13c-0.01,0-0.01,0.09,0,0.02l0.01-0.18l0.04-0.72l0.06-1.47
					l0.1-2.98l0.15-5.98l0.21-11.97c0.1-7.98,0.14-15.97,0.11-23.96c-0.05-15.97-0.34-31.94-0.94-47.9
					c-0.32-7.98-0.72-15.95-1.22-23.91c-0.53-7.96-1.17-15.91-1.98-23.84c-0.82-7.93-1.85-15.83-3.22-23.65
					c-1.4-7.81-3.1-15.6-5.91-22.91l-0.01-0.04c-0.28-0.72,0.08-1.52,0.8-1.8c0.71-0.27,1.51,0.08,1.79,0.78
					c3.04,7.61,4.85,15.5,6.39,23.4c1.5,7.91,2.65,15.87,3.58,23.84c0.93,7.97,1.68,15.96,2.32,23.95c0.61,7.99,1.13,15.99,1.55,24
					c0.83,16.01,1.34,32.02,1.6,48.04c0.13,8.01,0.21,16.02,0.22,24.03l-0.04,12.02l-0.07,6.02l-0.06,3.02l-0.04,1.52l-0.03,0.78
					l-0.01,0.19c0,0.06-0.02,0.27-0.03,0.4c-0.03,0.29-0.08,0.59-0.14,0.87c-0.47,1.42-2,2.18-3.42,1.71
					C743.67,1508.4,742.9,1506.87,743.38,1505.45z"/>
			</g>
			<g>
				<g>
					<path class="st32" d="M763.75,1363.77c6.3-15,29.1-60.49,69.44-46.44c0.59,0.21,0.52,1.07-0.09,1.19
						c-8.9,1.65-41.86,9.97-68.29,45.85C764.38,1364.95,763.47,1364.43,763.75,1363.77z"/>
					<path class="st32" d="M764.1,1364.7c9.07-8.55,36.07-41.62,71.94-26.51c0.39,0.17,0.31,0.75-0.11,0.79
						c-8.86,0.94-52.87,6.51-71.66,26.44C763.77,1365.96,763.57,1365.2,764.1,1364.7z"/>
					<path class="st32" d="M764.95,1360.95c0.86-11.31,5.91-54,33.41-62.81c0.2-0.06,0.37,0.16,0.25,0.34
						c-3.31,4.67-27.42,39.2-33.23,62.54C765.31,1361.28,764.93,1361.22,764.95,1360.95z"/>
					<path class="st32" d="M762.21,1373.91c-0.24,0.13-0.48-0.18-0.28-0.38c4.86-4.84,24.97-22.62,50.5-13.86
						C841.36,1369.59,790.71,1358.45,762.21,1373.91z"/>
					<path class="st32" d="M762.88,1365.05c0.06,0.85,1.26,0.95,1.45,0.12c3.05-13.41,9.51-50.4-9.3-59.8
						C732.76,1294.23,759.85,1321.19,762.88,1365.05z"/>
					<path class="st32" d="M764.18,1364.95c-3.16-8.24-15.35-33.81-40.7-19.99c-0.43,0.23-0.29,0.88,0.2,0.91
						c5.71,0.36,24.67,2.82,39.69,19.56C763.72,1365.84,764.37,1365.46,764.18,1364.95z"/>
					<path class="st32" d="M763.49,1367.02c-1.17-5.09-7.23-15.29-38.1-5.94c-0.18,0.06-0.14,0.33,0.06,0.31
						c6.07-0.63,26.56-2.02,36.61,6.51C762.7,1368.45,763.68,1367.85,763.49,1367.02z"/>
				</g>
				<path class="st32" d="M751.77,1507.16c-0.06-0.25-0.11-0.52-0.14-0.78c-0.01-0.11-0.03-0.31-0.03-0.35l-0.01-0.15l-0.02-0.59
					l-0.03-1.15l-0.04-2.26l-0.04-4.51l-0.01-9c0.02-6,0.09-11.99,0.2-17.98c0.23-11.98,0.63-23.97,1.28-35.94
					c0.67-11.97,1.56-23.94,2.98-35.88c0.71-5.97,1.59-11.92,2.72-17.85c1.17-5.92,2.54-11.83,4.84-17.56
					c0.29-0.71,1.1-1.06,1.81-0.77c0.71,0.28,1.05,1.08,0.78,1.79l-0.02,0.04c-2.07,5.42-3.32,11.24-4.35,17.07
					c-1.01,5.84-1.77,11.74-2.37,17.67c-1.19,11.85-1.87,23.76-2.31,35.68c-0.43,11.93-0.62,23.86-0.62,35.8
					c-0.01,5.97,0.04,11.94,0.13,17.9l0.18,8.95l0.12,4.46l0.08,2.22l0.05,1.09l0.03,0.53l0.01,0.13c0,0.05,0-0.05-0.01-0.07
					c-0.01-0.08-0.04-0.15-0.09-0.22c0.47,1.42-0.29,2.95-1.71,3.42S752.25,1508.58,751.77,1507.16z"/>
			</g>
			<g>
				<g>
					<path class="st32" d="M715.27,1389.69c-7.21-11.76-31.86-46.88-59.99-29.11c-0.41,0.26-0.22,0.98,0.26,0.99
						c6.98,0.09,33.21,2.31,59.02,28.77C714.99,1390.77,715.59,1390.21,715.27,1389.69z"/>
					<path class="st32" d="M715.16,1390.53c-8.24-5.9-34.03-29.91-58.6-11.89c-0.27,0.2-0.11,0.68,0.21,0.66
						c6.84-0.5,40.95-2.22,58.38,11.87C715.61,1391.54,715.64,1390.87,715.16,1390.53z"/>
					<path class="st32" d="M713.9,1387.48c-2.5-9.43-13.31-44.78-35.49-48.21c-0.16-0.03-0.25,0.19-0.13,0.32
						c3.26,3.47,27.1,29.12,35.31,48.01C713.68,1387.81,713.96,1387.7,713.9,1387.48z"/>
					<path class="st32" d="M716.93,1393.4c0.2,0.08,0.33-0.22,0.15-0.36c-4.46-3.38-22.54-15.47-40.36-4.34
						C656.53,1401.31,692.91,1384.49,716.93,1393.4z"/>
					<path class="st32" d="M716.14,1390.64c0.09,0.72-0.8,0.98-1.07,0.31c-4.5-10.89-15.43-41.21-2.78-51.91
						C727.26,1326.38,711.24,1353.13,716.14,1390.64z"/>
					<path class="st32" d="M715.14,1390.75c1.04-7.42,6.04-30.82,27.43-22.85c0.36,0.13,0.36,0.71,0,0.8
						c-4.24,1.14-18.15,5.99-26.73,22.34C715.63,1391.44,715.08,1391.21,715.14,1390.75z"/>
					<path class="st32" d="M716,1392.4c0.05-4.47,2.95-13.98,27.76-10.59c0.15,0.02,0.16,0.26,0.01,0.27
						c-4.68,0.35-20.37,2.17-26.55,10.85C716.83,1393.49,715.99,1393.12,716,1392.4z"/>
				</g>
				<path class="st32" d="M743.02,1508.53c-0.02,0.07-0.03,0.15-0.03,0.22c0,0.02,0.01,0.11,0.01,0.07l-0.02-0.11l-0.07-0.45
					l-0.14-0.93l-0.3-1.89l-0.63-3.79l-1.31-7.58c-0.9-5.05-1.83-10.1-2.8-15.14c-1.93-10.08-4-20.13-6.25-30.15
					c-2.26-10.01-4.69-19.97-7.5-29.82c-1.41-4.92-2.93-9.8-4.64-14.6c-1.72-4.78-3.61-9.54-6.07-13.87l-0.02-0.03
					c-0.38-0.67-0.15-1.52,0.52-1.9c0.66-0.37,1.5-0.15,1.88,0.5c2.72,4.57,4.73,9.38,6.6,14.22c1.84,4.85,3.49,9.76,5.02,14.7
					c3.05,9.88,5.71,19.85,8.19,29.86c2.47,10.01,4.76,20.06,6.92,30.14c1.08,5.04,2.12,10.09,3.13,15.14l1.48,7.59l0.71,3.81
					l0.35,1.92l0.17,0.97l0.08,0.5l0.02,0.13l0.04,0.31c0.02,0.23,0.03,0.47,0.03,0.7c-0.15,1.49-1.47,2.57-2.95,2.43
					C743.97,1511.34,742.88,1510.02,743.02,1508.53z"/>
			</g>
		</g>
		<g>
			<path class="st32" d="M721,1494.77h53.23c3.49,0,6.07,3.25,5.29,6.64c-3.41,14.75-7.49,29.72-15.84,44.92
				c-1.54,2.81-4.48,4.57-7.68,4.57h-17.37c-3.15,0-6.05-1.73-7.54-4.51c-6.69-12.43-13.13-27.25-16.31-44.07
				C714.04,1498.4,717.02,1494.77,721,1494.77z"/>
		</g>
	</g>
	<g class="st33">
		<path class="st34" d="M832.9,411.38c-0.73-0.9-1.87-1.27-3.09-1.24l-110.42,2.32l-2.79-8.86c-0.39-1.23-1.55-2.02-2.86-1.99
			l-15.16,0.4c-1.63,0.04-2.94,1.17-2.94,2.8c0,1.62,1.32,2.69,2.94,2.65l12.96-0.31l23.44,74.91c0.39,1.26,1.58,2.13,2.92,2.15
			l77.5,1.04c1.82,0.02,3.3-1.12,3.3-2.84c0-1.72-1.48-2.9-3.3-2.92l-75.24-0.81l-6.04-19.45l82.68,0.13c1.69,0,3.19-1.11,3.66-2.64
			l13.05-42.19C833.86,413.41,833.63,412.27,832.9,411.38z"/>
		<path class="st34" d="M749.24,488.81c-6.38-0.1-11.54,4.86-11.54,11.06s5.16,11.38,11.54,11.55c6.42,0.17,11.66-4.79,11.66-11.06
			C760.91,494.09,755.66,488.91,749.24,488.81z M749.24,505.39c-2.98-0.07-5.4-2.49-5.4-5.39c0-2.9,2.42-5.22,5.4-5.16
			c2.99,0.05,5.43,2.47,5.43,5.39C754.67,503.14,752.23,505.46,749.24,505.39z"/>
		<path class="st34" d="M800.91,489.61c-6.69-0.1-12.11,4.98-12.11,11.33c0,6.35,5.41,11.66,12.11,11.83
			c6.73,0.18,12.24-4.9,12.24-11.33C813.15,495.03,807.64,489.72,800.91,489.61z M800.91,506.6c-3.13-0.07-5.67-2.55-5.67-5.52
			c0-2.97,2.54-5.34,5.67-5.29c3.14,0.06,5.7,2.54,5.7,5.52C806.6,504.3,804.04,506.67,800.91,506.6z"/>
	</g>
	<g>
		<g>
			
				<linearGradient id="SVGID_00000031907868708443320160000017770693829472125341_" gradientUnits="userSpaceOnUse" x1="61.0974" y1="1512.5544" x2="149.8678" y2="1512.5544">
				<stop  offset="0" style="stop-color:#09005D"/>
				<stop  offset="1" style="stop-color:#1A0F91"/>
			</linearGradient>
			<path style="fill:url(#SVGID_00000031907868708443320160000017770693829472125341_);" d="M73.45,1481.27
				c0,0-9.86,15.55-12.35,59.08c-0.23,4.06,2.98,7.51,7.04,7.51h77.15c3.1,0,5.32-3.04,4.33-5.98c-4.52-13.38-18.19-46-48.69-64.64
				L73.45,1481.27z"/>
			
				<linearGradient id="SVGID_00000038401838241801603850000004052128903720261054_" gradientUnits="userSpaceOnUse" x1="70.1027" y1="1471.3041" x2="106.1046" y2="1471.3041">
				<stop  offset="0" style="stop-color:#FF928E"/>
				<stop  offset="1" style="stop-color:#FEB3B1"/>
			</linearGradient>
			<path style="fill:url(#SVGID_00000038401838241801603850000004052128903720261054_);" d="M70.1,1451.78l4.36,36.59
				c0.38,3.16,2.85,5.68,6.01,6.05c4.22,0.49,10.35,0.83,16.31-0.15c5.42-0.89,9.32-5.72,9.32-11.21v-35.33L70.1,1451.78z"/>
			
				<linearGradient id="SVGID_00000163046197846938929300000012912150083246412680_" gradientUnits="userSpaceOnUse" x1="249.8775" y1="1511.1351" x2="389.1619" y2="1511.1351">
				<stop  offset="0" style="stop-color:#09005D"/>
				<stop  offset="1" style="stop-color:#1A0F91"/>
			</linearGradient>
			<path style="fill:url(#SVGID_00000163046197846938929300000012912150083246412680_);" d="M264.33,1477.24
				c0,0-14.77,22.95-14.45,54.46c0.07,7.42,6.29,13.33,13.71,13.33h119.82c5.61,0,7.89-7.21,3.3-10.43
				c-22.67-15.92-67.24-45.66-99.47-57.35H264.33z"/>
			
				<linearGradient id="SVGID_00000078760597719406245100000017865878415822084265_" gradientUnits="userSpaceOnUse" x1="251.9936" y1="1455.3176" x2="287.7978" y2="1455.3176">
				<stop  offset="0" style="stop-color:#FF928E"/>
				<stop  offset="1" style="stop-color:#FEB3B1"/>
			</linearGradient>
			<path style="fill:url(#SVGID_00000078760597719406245100000017865878415822084265_);" d="M251.99,1437.73l9.31,45.19
				c1.04,5.05,5.99,8.45,11.02,7.33c3.06-0.68,6.67-1.99,10.53-4.41c3.67-2.29,5.53-6.66,4.78-10.92l-9.63-54.74L251.99,1437.73z"/>
			<path class="st39" d="M87.2,809.46c0,0-32.36,28.53-38.45,62.86C42.66,906.65,66,1464.56,66,1464.56s32.36,5.38,49.04-4.72
				c0,0,19.79-362.08,34.82-445.75c0,0,78.87,375.07,100.72,442.84c0,0,31.18,3.79,41.23-2.14c0,0-20.66-486.19-46.62-572.63
				L87.2,809.46z"/>
			
				<linearGradient id="SVGID_00000036942114059861455100000004033734056802482068_" gradientUnits="userSpaceOnUse" x1="224.3023" y1="796.3245" x2="-100.4424" y2="1353.484">
				<stop  offset="0" style="stop-color:#020039"/>
				<stop  offset="1" style="stop-color:#090056"/>
			</linearGradient>
			<path style="fill:url(#SVGID_00000036942114059861455100000004033734056802482068_);" d="M148.93,1000.39
				c-0.71,0-1.35-0.47-1.54-1.19l-13.59-52.13l-29.18-18.72c-0.74-0.47-0.95-1.46-0.48-2.2c0.47-0.74,1.46-0.96,2.2-0.48l29.7,19.05
				c0.34,0.22,0.58,0.55,0.68,0.94l13.75,52.73c0.22,0.85-0.29,1.72-1.14,1.94C149.2,1000.38,149.06,1000.39,148.93,1000.39z"/>
			
				<linearGradient id="SVGID_00000040554663815754781570000016753454536950596771_" gradientUnits="userSpaceOnUse" x1="452.0792" y1="131.7278" x2="379.2399" y2="534.4862">
				<stop  offset="0" style="stop-color:#E1473D"/>
				<stop  offset="1" style="stop-color:#E9605A"/>
			</linearGradient>
			<path style="fill:url(#SVGID_00000040554663815754781570000016753454536950596771_);" d="M406.55,487.09
				c-136.23-11.31-171.84,16.88-171.84,16.88l65.47,103.35c0,0,133.86-2.64,229.78-76.57c-17.95-19.33-30.42-40.7-38.41-57.33
				C466.81,483.7,438.33,489.73,406.55,487.09z"/>
			
				<linearGradient id="SVGID_00000022538420735570040070000012130343643237863613_" gradientUnits="userSpaceOnUse" x1="491.5448" y1="406.9386" x2="624.6093" y2="406.9386">
				<stop  offset="0" style="stop-color:#FF928E"/>
				<stop  offset="1" style="stop-color:#FEB3B1"/>
			</linearGradient>
			<path style="fill:url(#SVGID_00000022538420735570040070000012130343643237863613_);" d="M619.89,287.12
				c-0.18-4.37-6.1-5.55-7.95-1.6l-17.38,37.09c-3.36,7.17-4.43,15.19-3.08,22.99l6.1,21.59c1.82,10.53-0.93,21.32-7.6,29.66
				c-15.97,19.97-49.99,56.44-98.42,76.56c8,16.64,20.46,38,38.41,57.33c35.19-27.12,65.29-63.83,81.77-113.55
				c7.9-2.43,13.18-9.86,12.86-18.12L619.89,287.12z"/>
			<path class="st43" d="M451.39,547.01c-47.96-51.68-139.31-75.02-192.2-84.62c-23.17-4.2-46.01,8.69-54.22,30.76
				c-23.8,63.98-88.53,230.44-101.08,259.04c-10.29,23.47-21.04,46.39-27.87,60.72c-4.08,8.56-0.51,18.81,8.03,22.92
				c44.5,21.45,124.57,45.71,157.03,55.18c7.14,2.08,14.25-3.28,14.25-10.72c0-6.31,1.71-12.5,4.96-17.91l122.94-204.87
				c76.63,84.96,143.73,92.73,195.28,74.13c-8.67-26.79-14.34-53.63-17.06-80.51C485.29,638.12,451.39,547.01,451.39,547.01z"/>
			
				<linearGradient id="SVGID_00000098210285299646624920000006988637212890010803_" gradientUnits="userSpaceOnUse" x1="792.8474" y1="435.9485" x2="505.3308" y2="793.6467">
				<stop  offset="0" style="stop-color:#FF928E"/>
				<stop  offset="1" style="stop-color:#FEB3B1"/>
			</linearGradient>
			<path style="fill:url(#SVGID_00000098210285299646624920000006988637212890010803_);" d="M687.32,636.91l-13.74-18.32
				c-44.49,30.56-81.68,37.8-112.13,32.58c2.72,26.89,8.39,53.73,17.06,80.51C646.42,707.18,687.32,636.91,687.32,636.91z"/>
			
				<linearGradient id="SVGID_00000052811438448255427910000014297190278404675472_" gradientUnits="userSpaceOnUse" x1="847.3589" y1="479.764" x2="559.8423" y2="837.4624">
				<stop  offset="0" style="stop-color:#FF928E"/>
				<stop  offset="1" style="stop-color:#FEB3B1"/>
			</linearGradient>
			<path style="fill:url(#SVGID_00000052811438448255427910000014297190278404675472_);" d="M677.63,637.24l77.43,3.02l71.29-39.82
				c-10.23-6.41-68.1,6.7-68.1,6.7s-60.49-9.15-76.86-9.17c-13.6-0.02-11.66,19.54-10.61,26.16c0.21,1.35,0.39,2.17,0.39,2.17
				L677.63,637.24z"/>
			
				<linearGradient id="SVGID_00000031899727296132836920000011634994549476879012_" gradientUnits="userSpaceOnUse" x1="469.3905" y1="219.7751" x2="190.9299" y2="731.4191">
				<stop  offset="0" style="stop-color:#FF928E"/>
				<stop  offset="1" style="stop-color:#FEB3B1"/>
			</linearGradient>
			<path style="fill:url(#SVGID_00000031899727296132836920000011634994549476879012_);" d="M331.94,367.49l-40.85,99.69
				c0,0,46.94,32.49,84.7,29.4l20.39-89.64L331.94,367.49z"/>
			<g>
				
					<linearGradient id="SVGID_00000098203233153792094120000017708266108753526440_" gradientUnits="userSpaceOnUse" x1="92.3017" y1="3270.0789" x2="-30.762" y2="3432.8821" gradientTransform="matrix(0.817 -0.5767 0.5767 0.817 -1579.634 -2304.3853)">
					<stop  offset="0" style="stop-color:#FF928E"/>
					<stop  offset="1" style="stop-color:#FEB3B1"/>
				</linearGradient>
				<path style="fill:url(#SVGID_00000098203233153792094120000017708266108753526440_);" d="M400.95,299.53
					c0.94,1.33,29.55,104.71,29.55,104.71l-59.38,15.09l-41.68-93.96C329.44,325.37,385.29,277.34,400.95,299.53z"/>
				<path class="st48" d="M351.8,339.64l18.07,51.18c0.23,0.66,0.54,1.26,0.94,1.83c2.45,3.48,11.77,14.85,22.82,4.61
					c10.03-9.29,19.31-17.62,27.89-19.13c3.85-0.68,7.58,1.67,8.62,5.44c2.6,9.39,8.06,30.67,9.99,49.88
					c0.39,3.9-2.3,7.42-6.15,8.15c-11.6,2.2-36.19,6.16-56.72,4.72c-2.78-0.2-5.23-1.86-6.39-4.4
					c-5.66-12.36-22.99-49.87-29.44-59.58c-6.05-9.11-20.89-8.85-27.11-8.3c-2.04,0.18-4.05-0.48-5.58-1.83
					c-5.44-4.77-15.8-16.95-1.23-31.53c3.05-3.05,2.97-7.97-0.18-10.93c-6.26-5.88-12.95-16.32-2.52-29.26
					c10.6-13.15,24.58-11.06,33.15-7.93c3.46,1.26,7.25-0.2,9.13-3.37c1.07-1.81,2.94-3.17,6.19-2.89c4.37,0.38,8.05-3.27,7.97-7.66
					c-0.15-8.43,2.86-19.07,17.48-23.62c25.94-8.07,42.12,16.99,43.72,35.69c1.6,18.7-27.02,25.85-43.85,24.59
					c-12.8-0.96-22.3,11.72-26.12,17.86C351.28,335.1,351.04,337.49,351.8,339.64z"/>
				
					<linearGradient id="SVGID_00000173132483665222063960000004133410996139870600_" gradientUnits="userSpaceOnUse" x1="-87.9388" y1="3399.0066" x2="10.769" y2="3297.7349" gradientTransform="matrix(0.817 -0.5767 0.5767 0.817 -1579.634 -2304.3853)">
					<stop  offset="0" style="stop-color:#FF928E"/>
					<stop  offset="1" style="stop-color:#FEB3B1"/>
				</linearGradient>
				<path style="fill:url(#SVGID_00000173132483665222063960000004133410996139870600_);" d="M348.2,400.92
					c0,0-4.19-32.46-17.69-34.05c-13.5-1.59-26.65,9.51-13.22,27.73C333.99,417.26,348.2,400.92,348.2,400.92z"/>
			</g>
		</g>
	</g>
</g>
<g id="Online_marketing" class="st50">
	<g class="st51">
		<g>
			
				<linearGradient id="SVGID_00000018218899570903141630000006086277028750851755_" gradientUnits="userSpaceOnUse" x1="323.5728" y1="486.8574" x2="328.6121" y2="703.5517" gradientTransform="matrix(0.9987 -0.0518 -0.0518 -0.9987 228.4314 1398.3708)">
				<stop  offset="3.597000e-03" style="stop-color:#F36F56"/>
				<stop  offset="1" style="stop-color:#FFC444"/>
			</linearGradient>
			<path style="fill:url(#SVGID_00000018218899570903141630000006086277028750851755_);" d="M539.08,758.55
				c0,0,13.53,68.67-60.38,121.17l82.49,14.46c0,0,23.54-47.69,0.48-123.61L539.08,758.55z"/>
			
				<linearGradient id="SVGID_00000160907639402457405960000001852427975498153366_" gradientUnits="userSpaceOnUse" x1="-3193.1594" y1="708.8248" x2="-3190.7456" y2="673.7123" gradientTransform="matrix(-0.9987 0.0518 -0.0518 -0.9987 -2707.2339 1550.8344)">
				<stop  offset="3.597000e-03" style="stop-color:#F36F56"/>
				<stop  offset="1" style="stop-color:#FFC444"/>
			</linearGradient>
			<path style="fill:url(#SVGID_00000160907639402457405960000001852427975498153366_);" d="M452.11,693.04
				c0,0,2.88-7.93,2.16-11.37s-9.69-7.69-15.9-12.21c-6.21-4.52,0.48,4.8,2,6.93c1.52,2.12,6.53,5.17,6.25,12.65L452.11,693.04z"/>
		</g>
		<g>
			<g>
				<g>
					
						<linearGradient id="SVGID_00000036945691236347303990000005031554195389555342_" gradientUnits="userSpaceOnUse" x1="-8652.2207" y1="1269.3569" x2="-8820.2344" y2="1071.2112" gradientTransform="matrix(0.9353 -0.3538 -0.3538 -0.9353 9094.8809 -1330.5443)">
						<stop  offset="0" style="stop-color:#311944"/>
						<stop  offset="1" style="stop-color:#893976"/>
					</linearGradient>
					<path style="fill:url(#SVGID_00000036945691236347303990000005031554195389555342_);" d="M642.47,837.55
						c-22.1,6.45-47.65,0.76-64.35-16.1L342.28,583.49c-21.46-21.66-20.34-55.34,2.6-75.4c23.1-20.18,70.43-23.22,92.3-1.4
						l240.25,239.85c22.66,22.62,20.86,56.9-3.88,76.4C667.46,827.78,649.76,835.43,642.47,837.55z"/>
					
						<linearGradient id="SVGID_00000127038114430257569770000006478943613324540598_" gradientUnits="userSpaceOnUse" x1="-8673.7871" y1="1287.5754" x2="-8840.958" y2="1090.4244" gradientTransform="matrix(0.9353 -0.3538 -0.3538 -0.9353 9094.8809 -1330.5443)">
						<stop  offset="0" style="stop-color:#311944"/>
						<stop  offset="1" style="stop-color:#893976"/>
					</linearGradient>
					
						<path style="opacity:0.3;fill:url(#SVGID_00000127038114430257569770000006478943613324540598_);enable-background:new    ;" d="
						M344.84,508.13c23.1-20.18,70.43-23.22,92.3-1.4l219.67,219.31c-21.3,2.24-44.09,10.93-73.44,0.48
						c-48.85-17.42-46.41-63.15-89.37-87.61c-19.66-11.17-50.93-19.14-103.03-6.21l-48.73-49.17
						C320.77,561.87,321.89,528.19,344.84,508.13z"/>
				</g>
				<g>
					
						<linearGradient id="SVGID_00000136408365574041851100000013920498261640502424_" gradientUnits="userSpaceOnUse" x1="5672.1992" y1="1419.0494" x2="5530.373" y2="1251.7859" gradientTransform="matrix(-0.9353 0.3538 -0.3538 -0.9353 6031.4214 -171.348)">
						<stop  offset="0" style="stop-color:#311944"/>
						<stop  offset="1" style="stop-color:#893976"/>
					</linearGradient>
					<path style="fill:url(#SVGID_00000136408365574041851100000013920498261640502424_);" d="M248.18,478.86
						c1.08-0.4,2.16-0.68,3.24-0.92l76.08-28.31l75.12,189l-74.16,25.59c-1.72,1.12-3.56,2.08-5.53,2.76
						c-26.19,9.41-64.15-25.07-84.81-77C217.5,538.04,221.99,488.27,248.18,478.86z"/>
					
						<linearGradient id="SVGID_00000126320743199368284590000014619263175702479762_" gradientUnits="userSpaceOnUse" x1="-8567.8994" y1="1631.6315" x2="-8409.6396" y2="756.248" gradientTransform="matrix(0.9353 -0.3538 -0.3538 -0.9353 9094.8809 -1330.5443)">
						<stop  offset="0" style="stop-color:#AA80F9"/>
						<stop  offset="0.9964" style="stop-color:#6165D7"/>
					</linearGradient>
					<path style="fill:url(#SVGID_00000126320743199368284590000014619263175702479762_);" d="M327.5,449.63
						c-3.92,73.36,21.02,136.06,75.12,189l637.31-30.67L834.95,75.39L327.5,449.63z"/>
					
						<linearGradient id="SVGID_00000129888127133251912340000013770168274486525069_" gradientUnits="userSpaceOnUse" x1="-8621.4697" y1="1651.8455" x2="-8456.0146" y2="736.6689" gradientTransform="matrix(0.9353 -0.3538 -0.3538 -0.9353 9094.8809 -1330.5443)">
						<stop  offset="0" style="stop-color:#AA80F9"/>
						<stop  offset="0.9964" style="stop-color:#6165D7"/>
					</linearGradient>
					
						<path style="opacity:0.3;fill:url(#SVGID_00000129888127133251912340000013770168274486525069_);enable-background:new    ;" d="
						M824.58,507.25c-61.78-0.04-108.19-68.55-171.9-48.49c-50.01,15.74-46.77,66.55-96.94,79
						c-51.37,12.73-79.76-34.92-142.15-32.87c-28.35,0.92-54.06,11.89-76.84,27.95c11.49,38.8,33.44,74.04,65.91,105.79
						l637.31-30.67L934.78,439.94C891.05,491.19,854.49,507.25,824.58,507.25z"/>
					
						<linearGradient id="SVGID_00000039820060251811085710000007496144637449528765_" gradientUnits="userSpaceOnUse" x1="5080.3882" y1="1513.4647" x2="4759.5601" y2="1135.0973" gradientTransform="matrix(-0.9353 0.3538 -0.3538 -0.9353 6031.4214 -171.348)">
						<stop  offset="3.597120e-03" style="stop-color:#E38DDD"/>
						<stop  offset="1" style="stop-color:#9571F6"/>
					</linearGradient>
					<path style="fill:url(#SVGID_00000039820060251811085710000007496144637449528765_);" d="M823.02,380.47
						c60.22,151.48,170.9,252.02,247.26,224.56c76.32-27.47,89.41-172.54,29.19-324.02c-60.22-151.48-170.9-252.02-247.26-224.56
						C775.85,83.92,762.8,229,823.02,380.47z"/>
					
						<linearGradient id="SVGID_00000028284911500175861820000010183029906612039102_" gradientUnits="userSpaceOnUse" x1="5108.3242" y1="1329.099" x2="4791.1143" y2="1321.0175" gradientTransform="matrix(-0.9353 0.3538 -0.3538 -0.9353 6031.4214 -171.348)">
						<stop  offset="0" style="stop-color:#311944"/>
						<stop  offset="1" style="stop-color:#893976"/>
					</linearGradient>
					<path style="fill:url(#SVGID_00000028284911500175861820000010183029906612039102_);" d="M1066.56,595.7
						c16.22-5.85,29.55-18.02,39.68-36.28c10.29-18.54,16.82-42.36,19.38-70.79c5.37-59.74-7.41-132.26-35.96-204.13
						c-28.59-71.92-69.43-134.3-115-175.7c-21.7-19.7-43.13-33.44-63.79-40.84c-20.26-7.29-38.76-8.01-54.98-2.2
						c-16.22,5.85-29.55,18.02-39.68,36.28c-10.29,18.54-16.82,42.36-19.38,70.79c-2.24,24.99-1.32,52.17,2.6,80.64
						c5.45,39.6,46.57,68.23,63.19,110.08c17.7,44.49,10.25,98.74,35.56,133.26c15.58,21.26,32.27,40.08,49.65,55.86
						c21.7,19.7,43.13,33.44,63.79,40.84C1031.84,600.79,1050.34,601.55,1066.56,595.7z"/>
					<g>
						<g>
							<defs>
								<path id="SVGID_00000072252486935110633480000005141144333655381632_" d="M1066.56,595.7
									c16.22-5.85,29.55-18.02,39.68-36.28c10.29-18.54,16.82-42.36,19.38-70.79c5.37-59.74-7.41-132.26-35.96-204.13
									c-28.59-71.92-69.43-134.3-115-175.7c-21.7-19.7-43.13-33.44-63.79-40.84c-20.26-7.29-38.76-8.01-54.98-2.2
									c-16.22,5.85-29.55,18.02-39.68,36.28c-10.29,18.54-16.82,42.36-19.38,70.79c-5.37,59.74,7.41,132.26,35.96,204.13
									c28.59,71.92,69.43,134.3,115,175.7c21.7,19.7,43.13,33.44,63.79,40.84C1031.84,600.79,1050.34,601.55,1066.56,595.7z"/>
							</defs>
							<clipPath id="SVGID_00000031894294703308289020000015398942760412058022_">
								<use xlink:href="#SVGID_00000072252486935110633480000005141144333655381632_"  style="overflow:visible;"/>
							</clipPath>
							
								<linearGradient id="SVGID_00000132776753581133084850000014010770844594868633_" gradientUnits="userSpaceOnUse" x1="-8347.291" y1="1608.1539" x2="-8243.624" y2="1034.7612" gradientTransform="matrix(0.9353 -0.3538 -0.3538 -0.9353 9094.8809 -1330.5443)">
								<stop  offset="0" style="stop-color:#FFC444"/>
								<stop  offset="0.9964" style="stop-color:#F36F56"/>
							</linearGradient>
							
								<path style="clip-path:url(#SVGID_00000031894294703308289020000015398942760412058022_);fill:url(#SVGID_00000132776753581133084850000014010770844594868633_);" d="
								M974.02,330.22c27.63,69.47,1.2,142.07-58.18,161.85c-58.46,19.46-126.93-19.78-153.8-87.33
								c-26.87-67.55-2.52-139.43,55.18-160.77C875.84,222.27,946.39,260.75,974.02,330.22z"/>
						</g>
						<g>
							<defs>
								<path id="SVGID_00000167389772714948396050000013761536829665388417_" d="M1066.56,595.7
									c16.22-5.85,29.55-18.02,39.68-36.28c10.29-18.54,16.82-42.36,19.38-70.79c5.37-59.74-7.41-132.26-35.96-204.13
									c-28.59-71.92-69.43-134.3-115-175.7c-21.7-19.7-43.13-33.44-63.79-40.84c-20.26-7.29-38.76-8.01-54.98-2.2
									c-16.22,5.85-29.55,18.02-39.68,36.28c-10.29,18.54-16.82,42.36-19.38,70.79c-5.37,59.74,7.41,132.26,35.96,204.13
									c28.59,71.92,69.43,134.3,115,175.7c21.7,19.7,43.13,33.44,63.79,40.84C1031.84,600.79,1050.34,601.55,1066.56,595.7z"/>
							</defs>
							<clipPath id="SVGID_00000183957783893978561770000015835796850043539109_">
								<use xlink:href="#SVGID_00000167389772714948396050000013761536829665388417_"  style="overflow:visible;"/>
							</clipPath>
							
								<linearGradient id="SVGID_00000088109436357573144370000018219012830905156994_" gradientUnits="userSpaceOnUse" x1="-8285.9736" y1="1533.1685" x2="-8209.6123" y2="1110.7867" gradientTransform="matrix(0.9353 -0.3538 -0.3538 -0.9353 9094.8809 -1330.5443)">
								<stop  offset="0" style="stop-color:#FFC444"/>
								<stop  offset="0.9964" style="stop-color:#F36F56"/>
							</linearGradient>
							
								<path style="opacity:0.3;clip-path:url(#SVGID_00000183957783893978561770000015835796850043539109_);fill:url(#SVGID_00000088109436357573144370000018219012830905156994_);enable-background:new    ;" d="
								M964.29,332.42c20.5,51.61,13.25,101.07-15.82,110.32c-28.63,9.13-67.67-24.27-87.61-74.4
								c-19.94-50.17-13.69-99.26,14.38-109.84C903.71,247.82,943.79,280.85,964.29,332.42z"/>
						</g>
					</g>
				</g>
			</g>
			<g>
				
					<linearGradient id="SVGID_00000090992192483407214820000013479323355748761513_" gradientUnits="userSpaceOnUse" x1="440.9153" y1="1835.4722" x2="576.3736" y2="1584.2371" gradientTransform="matrix(0.9226 -0.3857 -0.3857 -0.9226 1258.2799 1931.8148)">
					<stop  offset="0" style="stop-color:#FFC444"/>
					<stop  offset="0.9964" style="stop-color:#F36F56"/>
				</linearGradient>
				<path style="fill:url(#SVGID_00000090992192483407214820000013479323355748761513_);" d="M1112.84,78.84
					c17.58,40.04-11.01,89.53-63.87,110.56c-52.86,21.02-110,5.61-127.57-34.44c-17.58-40.04,11.01-89.53,63.87-110.56
					C1038.13,23.38,1095.27,38.8,1112.84,78.84z"/>
				<path class="st34" d="M1002.37,163.33l-30.31-68.95c-1.96-4.44,0.68-8.89,4.89-8.33l76.2,10.21c4.81,0.64,7.69,7.17,4.77,10.85
					l-45.89,58.74C1009.5,169.09,1004.29,167.73,1002.37,163.33z"/>
				<g class="st64">
					
						<linearGradient id="SVGID_00000100376322541487141030000008905662365690658951_" gradientUnits="userSpaceOnUse" x1="401.9588" y1="1821.059" x2="534.8324" y2="1554.4136" gradientTransform="matrix(0.9226 -0.3857 -0.3857 -0.9226 1258.2799 1931.8148)">
						<stop  offset="0" style="stop-color:#FFC444"/>
						<stop  offset="0.9964" style="stop-color:#F36F56"/>
					</linearGradient>
					<path style="fill:url(#SVGID_00000100376322541487141030000008905662365690658951_);" d="M1064.11,161.72
						c-20.94-16.82-18.06-41.48-39.76-49.09c-22.02-7.77-36.92,13.53-64.11,10.89c-10.53-1-23.78-5.69-38.52-20.3
						c-6.97,17.1-7.57,35.24-0.28,51.77c17.58,40.04,74.72,55.46,127.57,34.44c12.09-4.81,22.94-11.13,32.23-18.5
						C1073.96,168.49,1068.44,165.17,1064.11,161.72z"/>
				</g>
			</g>
			<g>
				
					<linearGradient id="SVGID_00000183936559097471634800000009472212115620789888_" gradientUnits="userSpaceOnUse" x1="712.6475" y1="1379.5355" x2="878.4017" y2="1072.1102" gradientTransform="matrix(0.9701 -0.2427 -0.2427 -0.9701 749.0501 1708.7794)">
					<stop  offset="0" style="stop-color:#AA80F9"/>
					<stop  offset="0.9964" style="stop-color:#6165D7"/>
				</linearGradient>
				<path style="fill:url(#SVGID_00000183936559097471634800000009472212115620789888_);" d="M1293.31,237.8
					c13.65,51.89-30.83,107.19-99.34,123.49c-68.51,16.3-135.1-12.53-148.76-64.43c-13.65-51.89,30.83-107.19,99.34-123.49
					C1213.07,157.04,1279.66,185.91,1293.31,237.8z"/>
				<path class="st34" d="M1153.09,205.85c-24.51,5.85-39.4,29.47-33.28,52.78c3.96,15.1,31.83,45.81,50.97,65.59
					c7.97,8.21,22.3,4.81,25.23-6.01c7.09-25.99,16.5-65.59,12.53-80.68C1202.42,214.18,1177.59,200.01,1153.09,205.85z
					 M1170.15,270.72c-13.17,3.12-26.51-4.48-29.79-17.02c-3.28-12.53,4.72-25.23,17.86-28.35c13.17-3.12,26.51,4.48,29.79,17.02
					C1191.29,254.9,1183.32,267.6,1170.15,270.72z"/>
				<g class="st64">
					
						<linearGradient id="SVGID_00000039114063037849785370000009607421191327719570_" gradientUnits="userSpaceOnUse" x1="664.2686" y1="1361.5363" x2="826.8386" y2="1035.2976" gradientTransform="matrix(0.9701 -0.2427 -0.2427 -0.9701 749.0501 1708.7794)">
						<stop  offset="0" style="stop-color:#AA80F9"/>
						<stop  offset="0.9964" style="stop-color:#6165D7"/>
					</linearGradient>
					<path style="fill:url(#SVGID_00000039114063037849785370000009607421191327719570_);" d="M1217.8,330.18
						c-22.26-24.19-13.93-53.74-38.92-66.83c-25.35-13.33-47.61,9.97-80.24,1.96c-12.61-3.08-27.87-11.13-43.01-31.51
						c-11.81,19.62-16.1,41.64-10.45,63.07c13.65,51.89,80.24,80.76,148.76,64.43c15.7-3.72,30.11-9.53,42.89-16.82
						C1228.49,340.15,1222.36,335.15,1217.8,330.18z"/>
				</g>
			</g>
			<g>
				
					<linearGradient id="SVGID_00000173875206494418815900000008114415650804289198_" gradientUnits="userSpaceOnUse" x1="1311.722" y1="705.7781" x2="1441.6974" y2="464.7129" gradientTransform="matrix(0.9805 0.1963 0.1963 -0.9805 -318.3812 845.483)">
					<stop  offset="0" style="stop-color:#FF9085"/>
					<stop  offset="1" style="stop-color:#FB6FBB"/>
				</linearGradient>
				<path style="fill:url(#SVGID_00000173875206494418815900000008114415650804289198_);" d="M1225.2,501.28
					c-8.77,41.64-58.5,67.39-111.84,57.34c-54.26-10.21-91.58-53.38-82.57-96.3c9.01-42.89,60.78-68.23,114.76-56.74
					C1198.65,416.87,1233.97,459.64,1225.2,501.28z"/>
				
					<linearGradient id="SVGID_00000039823316321552349900000013632905883525960842_" gradientUnits="userSpaceOnUse" x1="1311.722" y1="705.7781" x2="1441.6974" y2="464.7129" gradientTransform="matrix(0.9805 0.1963 0.1963 -0.9805 -318.3812 845.483)">
					<stop  offset="0" style="stop-color:#FF9085"/>
					<stop  offset="1" style="stop-color:#FB6FBB"/>
				</linearGradient>
				<path style="fill:url(#SVGID_00000039823316321552349900000013632905883525960842_);" d="M1225.2,501.28
					c-8.77,41.64-58.5,67.39-111.84,57.34c-54.26-10.21-91.58-53.38-82.57-96.3c9.01-42.89,60.78-68.23,114.76-56.74
					C1198.65,416.87,1233.97,459.64,1225.2,501.28z"/>
				<g>
					<path class="st34" d="M1188,472.53L1188,472.53c-1.8-11.49-10.33-21.14-22.18-23.62c-15.54-3.2-30.87,7.13-34.24,23.14
						c3.36-15.98-6.61-31.59-22.3-34.84c-12.09-2.48-24.11,3.04-30.59,13.01l0,0c-24.15,35.68,39.48,85.65,39.48,85.65
						S1195.33,513.73,1188,472.53z"/>
				</g>
				<g class="st64">
					
						<linearGradient id="SVGID_00000124127776122579200290000007316790535262814646_" gradientUnits="userSpaceOnUse" x1="1274.1085" y1="691.5751" x2="1401.99" y2="434.9477" gradientTransform="matrix(0.9805 0.1963 0.1963 -0.9805 -318.3812 845.483)">
						<stop  offset="0" style="stop-color:#FF9085"/>
						<stop  offset="1" style="stop-color:#FB6FBB"/>
					</linearGradient>
					<path style="fill:url(#SVGID_00000124127776122579200290000007316790535262814646_);" d="M1140.99,543.61
						c-6.93-24.79,9.29-43.53-3.4-61.26c-12.97-18.1-36.92-8.49-57.18-25.27c-7.85-6.53-15.82-17.54-19.26-37.68
						c-15.54,10.41-26.63,25.15-30.35,42.89c-9.01,42.89,28.31,86.09,82.57,96.3c12.29,2.32,24.39,2.72,35.84,1.48
						C1144.92,554.3,1142.44,548.73,1140.99,543.61z"/>
				</g>
			</g>
		</g>
	</g>
	<g class="st51">
		
			<linearGradient id="SVGID_00000075133424378194539150000017868506889459845508_" gradientUnits="userSpaceOnUse" x1="-6.1714" y1="-262.6119" x2="16.9468" y2="-262.6119" gradientTransform="matrix(0.9858 -0.1678 -0.1678 -0.9858 452.74 1095.1558)">
			<stop  offset="3.597000e-03" style="stop-color:#F36F56"/>
			<stop  offset="1" style="stop-color:#FFC444"/>
		</linearGradient>
		<path style="fill:url(#SVGID_00000075133424378194539150000017868506889459845508_);" d="M494.24,1340.04l-1.68,25.79
			c0,0,3.84,3.88,11.25,1.16l8.09-25.31L494.24,1340.04z"/>
		
			<linearGradient id="SVGID_00000025413678911472042930000004611575899900091816_" gradientUnits="userSpaceOnUse" x1="37.1985" y1="-171.4572" x2="-20.8672" y2="-375.1805" gradientTransform="matrix(0.9858 -0.1678 -0.1678 -0.9858 452.74 1095.1558)">
			<stop  offset="0" style="stop-color:#444B8C"/>
			<stop  offset="0.9964" style="stop-color:#26264F"/>
		</linearGradient>
		<path style="fill:url(#SVGID_00000025413678911472042930000004611575899900091816_);" d="M497.6,1358.98
			c0,0-13.25,5.17-10.69,10.73c1.4,3,6.17,9.77,10.29,15.42c3.84,5.21,10.73,7.53,17.14,5.69c2.16-0.6,4.32-1.2,6.29-1.68
			c4-1,4.24-6.33,0.32-7.65c-1.88-0.64-3.76-1.16-5.41-1.4c-4.85-0.72-11.53-11.65-12.33-16.02
			C502.48,1359.7,497.6,1358.98,497.6,1358.98z"/>
		
			<linearGradient id="SVGID_00000080202258449254923530000008747969850571301254_" gradientUnits="userSpaceOnUse" x1="562.0463" y1="274.2903" x2="371.3684" y2="117.6618" gradientTransform="matrix(1 0 0 -1 0 1436.1101)">
			<stop  offset="0" style="stop-color:#AB316D"/>
			<stop  offset="1" style="stop-color:#792D3D"/>
		</linearGradient>
		<path style="fill:url(#SVGID_00000080202258449254923530000008747969850571301254_);" d="M465.73,1092.62
			c19.54,6.41,91.82,32.39,107.91,92.02c0.84,3.16,3.08,12.05,3.16,26.51c0.4,60.18-36.36,111.12-63.11,140.75
			c-8.45-0.12-16.86-0.28-25.31-0.4c-4.2-15.38-8.09-38.32-2.04-64.19c9.25-39.52,33.23-49.77,28.63-69.15
			c-8.41-35.2-94.34-29.87-102.43-61.42C409.63,1145.36,416.07,1126.02,465.73,1092.62z"/>
		
			<linearGradient id="SVGID_00000149378800667699453400000017526675745241588374_" gradientUnits="userSpaceOnUse" x1="537.4822" y1="441.8102" x2="484.2026" y2="254.8799" gradientTransform="matrix(0.9956 0.0937 0.0937 -0.9956 -248.3864 1615.5797)">
			<stop  offset="0" style="stop-color:#444B8C"/>
			<stop  offset="0.9964" style="stop-color:#26264F"/>
		</linearGradient>
		<path style="fill:url(#SVGID_00000149378800667699453400000017526675745241588374_);" d="M223.99,1452.88l36.68-0.8
			c2.24-0.04,3.24-2.72,1.48-4.12c-1.72-1.36-4.08-2.48-7.09-2.2c-6.97,0.68-22.62-8.61-29.75-6.61c-2.32,0.64-4.2,5.85-5.17,7.29
			C218.31,1449.28,220.47,1452.96,223.99,1452.88z"/>
		
			<linearGradient id="SVGID_00000090987476124381446910000015981004767493428408_" gradientUnits="userSpaceOnUse" x1="455.1668" y1="226.371" x2="482.725" y2="226.371" gradientTransform="matrix(0.9956 0.0937 0.0937 -0.9956 -248.3864 1615.5797)">
			<stop  offset="3.597000e-03" style="stop-color:#F36F56"/>
			<stop  offset="1" style="stop-color:#FFC444"/>
		</linearGradient>
		<path style="fill:url(#SVGID_00000090987476124381446910000015981004767493428408_);" d="M240.49,1426.05l-15.1,13.13
			c0,0,5.29,3.76,12.97,2.16l15.46-10.13L240.49,1426.05z"/>
		<g class="st64">
			
				<linearGradient id="SVGID_00000088842983840035574950000002013548257563018663_" gradientUnits="userSpaceOnUse" x1="163.9395" y1="-234.1189" x2="-60.8298" y2="-113.0105" gradientTransform="matrix(0.9858 -0.1678 -0.1678 -0.9858 452.74 1095.1558)">
				<stop  offset="0" style="stop-color:#AB316D"/>
				<stop  offset="1" style="stop-color:#792D3D"/>
			</linearGradient>
			<path style="fill:url(#SVGID_00000088842983840035574950000002013548257563018663_);" d="M530.55,1247.87
				c10.13-26.03,22.3-58.14,8.41-76.36c-14.05-18.46-44.81-2.88-75.68-17.74c-11.45-5.53-23.22-15.38-32.99-33.23
				c-17.34,17.02-19.7,28.47-17.7,36.2c8.05,31.51,93.98,26.19,102.39,61.42c4.64,19.38-19.38,29.63-28.63,69.15
				c-5.21,22.22-3.08,42.28,0.32,57.26c3-13.89,7.69-28.47,14.82-43.21C512.57,1278.5,519.86,1275.29,530.55,1247.87z"/>
		</g>
		
			<linearGradient id="SVGID_00000084519774903740631360000012507449086583941032_" gradientUnits="userSpaceOnUse" x1="-464.6847" y1="-268.1326" x2="-675.8312" y2="-487.4" gradientTransform="matrix(0.9542 -0.2992 -0.2992 -0.9542 764.6526 767.7732)">
			<stop  offset="0" style="stop-color:#AB316D"/>
			<stop  offset="1" style="stop-color:#792D3D"/>
		</linearGradient>
		<path style="fill:url(#SVGID_00000084519774903740631360000012507449086583941032_);" d="M476.94,1085.09
			c-11.89,51.97-37.24,131.3-95.3,214.15c-43.01,61.3-90.21,104.99-127.25,134.18c-2.64,0.76-7.13,1.68-12.65,1.04
			c-4.08-0.48-7.33-1.64-9.53-2.64c2.56-14.66,7.93-36.28,20.7-59.66c23.34-42.76,44.17-41.4,67.59-79.16
			c17.18-27.63,22.74-57.02,33.92-115.72c8.61-45.33,8.65-56.18,20.42-69.19C398.73,1081.77,443.58,1081.49,476.94,1085.09z"/>
		<g class="st64">
			
				<linearGradient id="SVGID_00000032607335908020916720000010210309741295636611_" gradientUnits="userSpaceOnUse" x1="-482.0466" y1="-261.5656" x2="-688.313" y2="-475.765" gradientTransform="matrix(0.9542 -0.2992 -0.2992 -0.9542 764.6526 767.7732)">
				<stop  offset="0" style="stop-color:#AB316D"/>
				<stop  offset="1" style="stop-color:#792D3D"/>
			</linearGradient>
			<path style="fill:url(#SVGID_00000032607335908020916720000010210309741295636611_);" d="M261.83,1381.81
				c8.33-12.53,23.1-25.55,52.29-51.25c30.15-26.59,28.99-21.78,34.92-29.63c26.55-35.16,12.17-72.72,18.74-118.04
				c3.68-25.31,15.42-58.34,49.57-95.38c-16.02,2.8-31.35,8.85-42.52,20.58c-13.69,14.38-12.69,28.47-20.42,69.19
				c-11.17,58.74-16.74,88.09-33.92,115.72c-23.46,37.76-44.25,36.36-67.59,79.16c-12.77,23.38-18.14,45.01-20.7,59.66
				c2.16,1,5.45,2.16,9.53,2.64c3.24,0.36,6.13,0.2,8.49-0.16C248.26,1404.59,257.63,1388.13,261.83,1381.81z"/>
		</g>
		
			<linearGradient id="SVGID_00000072975828573092635500000016251071656541356178_" gradientUnits="userSpaceOnUse" x1="-3418.9949" y1="442.1564" x2="-3423.5857" y2="497.2359" gradientTransform="matrix(-0.9986 0.0537 -0.0537 -0.9986 -2972.1909 1446.7303)">
			<stop  offset="0" style="stop-color:#444B8C"/>
			<stop  offset="0.9964" style="stop-color:#26264F"/>
		</linearGradient>
		<path style="fill:url(#SVGID_00000072975828573092635500000016251071656541356178_);" d="M432.09,813.29
			c4-7.53,5.65-7.45,6.65-11.41c2.24-9.05-3.56-20.5-8.45-20.66c-3.16-0.12-3.44,4.56-10.13,11.89
			c-8.21,8.93-13.17,7.77-18.02,15.54c-1.12,1.8-6.21,9.97-3.08,16.1c4,7.77,19.74,9.01,26.31,3
			C428.49,824.82,427.16,822.54,432.09,813.29z"/>
		
			<linearGradient id="SVGID_00000077292232456089052420000002206250682189697711_" gradientUnits="userSpaceOnUse" x1="428.0548" y1="665.746" x2="443.1658" y2="439.0815" gradientTransform="matrix(1 0 0 -1 0 1436.1101)">
			<stop  offset="3.597000e-03" style="stop-color:#F36F56"/>
			<stop  offset="1" style="stop-color:#FFC444"/>
		</linearGradient>
		<path style="fill:url(#SVGID_00000077292232456089052420000002206250682189697711_);" d="M420.32,821.38c0,0,2.8,14.26,0.8,25.87
			c-1.8,10.49-22.22,21.38-26.15,24.51c-3.92,3.12,10.37,6.53,23.5,4.89c13.09-1.64,49.01-12.57,54.46-18.66s-6.37-3.08-16.3-4.24
			s-19.42-16.98-19.7-25.07C436.65,820.58,420.32,821.38,420.32,821.38z"/>
		<g>
			
				<linearGradient id="SVGID_00000031930511083127321190000015711121776103294387_" gradientUnits="userSpaceOnUse" x1="3170.7107" y1="-216.1068" x2="3215.7747" y2="-263.6054" gradientTransform="matrix(0.966 -0.2584 -0.2584 -0.966 -2732.0518 1405.2507)">
				<stop  offset="3.597000e-03" style="stop-color:#F36F56"/>
				<stop  offset="1" style="stop-color:#FFC444"/>
			</linearGradient>
			<path style="fill:url(#SVGID_00000031930511083127321190000015711121776103294387_);" d="M424.6,832.03c0,0,10.05,4.2,18.94-2.56
				c7.97-6.05-3.88-24.67-11.97-24.91c-2.68-0.08-6.65,1.76-8.97,4.44c-1.36,1.6-1.44,2.64-3.76,5.21
				c-2.12,2.36-3.04,2.56-3.36,3.72c-0.4,1.44,0.28,3.84,5.73,7.93c-2.72-0.48-5.05,0.2-5.97,1.72c-0.16,0.24-0.44,1-0.36,1.76
				C415.19,832.19,419.04,833.47,424.6,832.03z"/>
		</g>
		
			<linearGradient id="SVGID_00000132802310468830236150000016612600641982668478_" gradientUnits="userSpaceOnUse" x1="-3591.4534" y1="652.9624" x2="-3582.3521" y2="623.8962" gradientTransform="matrix(-1 0 0 -1 -2938.9724 1436.1101)">
			<stop  offset="3.597000e-03" style="stop-color:#F36F56"/>
			<stop  offset="1" style="stop-color:#FFC444"/>
		</linearGradient>
		<path style="fill:url(#SVGID_00000132802310468830236150000016612600641982668478_);" d="M645.15,782.38c0,0,6.09-0.8,4.16-11.85
			c-1.48-8.65-0.36-11.57,1.8-10.05c2.16,1.52,2.44,6.53,2.44,6.53s7.85-6.37,11.05-14.7c3.24-8.33,5.29-1.32,6.01,2.84
			c0.68,4.16-4.6,17.1-7.61,19.5c-3,2.4-7.37,13.05-7.37,13.05L645.15,782.38z"/>
		
			<linearGradient id="SVGID_00000064351125100461115730000004136798221065781902_" gradientUnits="userSpaceOnUse" x1="313.421" y1="247.2707" x2="595.4976" y2="659.2734" gradientTransform="matrix(1 0 0 -1 0 1436.1101)">
			<stop  offset="3.597000e-03" style="stop-color:#F36F56"/>
			<stop  offset="1" style="stop-color:#FFC444"/>
		</linearGradient>
		<path style="fill:url(#SVGID_00000064351125100461115730000004136798221065781902_);" d="M661.33,785.34
			c-6.93-4.6-13.81-9.21-20.74-13.81c-8.41,49.21-27.55,68.51-43.77,76.96c-39.2,20.38-74.16-15.94-149.16-1.12
			c-20.66,4.08-56.7,11.69-76.68,39.72c-5.25,7.37-7.13,12.93-15.86,65.75c-11.13,67.51-11.53,79.32-9.97,93.86
			c2.88,26.63,4.6,42.72,17.5,57.02c34.24,37.88,106.99,18.34,116.12,15.78c16.86-4.77,43.05-12.13,53.46-33.31
			c4.89-9.97,4.36-19.1-3.16-55.54c-14.9-72.24-16.82-76.92-12.65-84.81c14.05-26.71,58.54-11.41,96.14-36.24
			C634.62,895.06,659.41,863.42,661.33,785.34z"/>
		
			<linearGradient id="SVGID_00000109730216780804613000000005111162723515060926_" gradientUnits="userSpaceOnUse" x1="-3496.3843" y1="561.15" x2="-3439.863" y2="266.7699" gradientTransform="matrix(-1 0 0 -1 -2938.9724 1436.1101)">
			<stop  offset="3.597000e-03" style="stop-color:#F36F56"/>
			<stop  offset="1" style="stop-color:#FFC444"/>
		</linearGradient>
		<path style="opacity:0.3;fill:url(#SVGID_00000109730216780804613000000005111162723515060926_);enable-background:new    ;" d="
			M444.74,1109.84c7.33-14.33-2.52-27.51,8.29-44.73c13.77-21.94,38.6-14.5,47.93-30.71c15.98-27.71-46.89-66.39-34.12-110.52
			c6.09-21.06,27.39-36.32,45.17-42.08c39.48-12.81,65.31,19.86,102.31,9.65c8.77-2.44,18.86-7.45,29.03-17.86
			c-9.01,18.06-20.18,28.99-30.71,35.96c-37.6,24.83-82.09,9.53-96.14,36.24c-4.16,7.93-2.24,12.57,12.65,84.81
			c7.53,36.48,8.05,45.57,3.16,55.54c-10.41,21.18-36.6,28.59-53.46,33.32c-5.01,1.4-29.07,7.89-55.46,7.25
			C435.17,1122.21,441.5,1116.17,444.74,1109.84z"/>
	</g>
</g>
<g>
</g>
<g>
</g>
<g>
</g>
<g>
</g>
<g>
</g>
<g>
</g>
<g>
</g>
<g>
</g>
<g>
</g>
<g>
</g>
<g>
</g>
<g>
</g>
<g>
</g>
<g>
</g>
<g>
</g>
</svg>
